<?xml version="1.0" encoding="UTF-8" standalone="no"?>
<!-- Created with Inkscape (http://www.inkscape.org/) -->

<svg
   xmlns:dc="http://purl.org/dc/elements/1.1/"
   xmlns:cc="http://creativecommons.org/ns#"
   xmlns:rdf="http://www.w3.org/1999/02/22-rdf-syntax-ns#"
   xmlns:svg="http://www.w3.org/2000/svg"
   xmlns="http://www.w3.org/2000/svg"
   xmlns:sodipodi="http://sodipodi.sourceforge.net/DTD/sodipodi-0.dtd"
   xmlns:inkscape="http://www.inkscape.org/namespaces/inkscape"
   id="svg5001"
   version="1.1"
   inkscape:version="0.91 r13725"
   width="100"
   height="100"
   viewBox="0 0 100 100"
   sodipodi:docname="fish50.svg">
  <metadata
     id="metadata5007">
    <rdf:RDF>
      <cc:Work
         rdf:about="">
        <dc:format>image/svg+xml</dc:format>
        <dc:type
           rdf:resource="http://purl.org/dc/dcmitype/StillImage" />
        <dc:title />
      </cc:Work>
    </rdf:RDF>
  </metadata>
  <defs
     id="defs5005">
    <clipPath
       clipPathUnits="userSpaceOnUse"
       id="clipPath5031">
      <rect
         style="opacity:0.12300002;fill:#ff0000;fill-opacity:1;fill-rule:nonzero;stroke:none;stroke-width:3.5999999;stroke-linecap:round;stroke-linejoin:round;stroke-miterlimit:4;stroke-dasharray:none;stroke-opacity:1"
         id="rect5033"
         width="240"
         height="240"
         x="10.501074"
         y="40.466042" />
    </clipPath>
    <clipPath
       clipPathUnits="userSpaceOnUse"
       id="clipPath4300">
      <circle
         style="opacity:0.18300003;fill:#ff0000;fill-rule:evenodd;stroke:none;stroke-width:1px;stroke-linecap:butt;stroke-linejoin:miter;stroke-opacity:1"
         id="circle4302"
         cx="130.50107"
         cy="160.46603"
         r="117.6" />
    </clipPath>
  </defs>
  <sodipodi:namedview
     pagecolor="#ffffff"
     bordercolor="#666666"
     borderopacity="1"
     objecttolerance="10"
     gridtolerance="10"
     guidetolerance="10"
     inkscape:pageopacity="0"
     inkscape:pageshadow="2"
     inkscape:window-width="1920"
     inkscape:window-height="1017"
     id="namedview5003"
     showgrid="false"
     fit-margin-top="0"
     fit-margin-left="0"
     fit-margin-right="0"
     fit-margin-bottom="0"
     inkscape:zoom="1.6328077"
     inkscape:cx="106.17376"
     inkscape:cy="96.697341"
     inkscape:window-x="-8"
     inkscape:window-y="-8"
     inkscape:window-maximized="1"
     inkscape:current-layer="svg5001" />
  <g
     id="g5011"
     transform="matrix(0.41666667,0,0,0.41666667,-4.3754479,-16.860851)"
     clip-path="url(#clipPath4300)">
    <path
       style="fill:#fefefe"
       d="M 0,185.95642 0,0 l 131.1138,0 131.1138,0 0,185.95642 0,185.95642 -131.1138,0 -131.1138,0 0,-185.95642 z"
       id="path5027"
       inkscape:connector-curvature="0" />
    <path
       style="fill:#c1e8d6"
       d="m 59.564164,314.57837 0,-11.6728 4.249959,0 c 5.021932,0 8.580621,1.09148 9.566828,2.93422 0.391082,0.73075 0.711058,2.67249 0.711058,4.31497 0,4.36724 -2.399775,6.55227 -7.196243,6.55227 l -3.630318,0 -0.21626,4.53995 c -0.194235,4.07762 -0.382699,4.56359 -1.850641,4.77207 l -1.634383,0.23212 0,-11.6728 z m 9.490853,-1.52886 c 1.986123,-1.06294 1.862943,-4.65608 -0.20938,-6.10759 -0.887927,-0.62192 -2.52231,-1.13078 -3.631962,-1.13078 -1.961254,0 -2.01755,0.11148 -2.01755,3.99516 0,3.97384 0.01188,3.99516 2.226931,3.99516 1.224812,0 2.859194,-0.33838 3.631961,-0.75195 z m 9.153217,12.61635 c -0.266346,-0.26634 -0.484264,-5.5078 -0.484264,-11.64768 l 0,-11.16343 7.437,0.20701 c 6.408334,0.17838 7.470668,0.38284 7.680385,1.4782 0.215535,1.12578 -0.427424,1.27118 -5.621027,1.27118 l -5.864397,0 0,3.26877 0,3.26876 5.447942,0 c 4.963678,0 5.447942,0.12914 5.447942,1.45279 0,1.32365 -0.484264,1.45278 -5.447942,1.45278 l -5.447942,0 0,3.63196 0,3.63197 5.811138,0 c 5.714288,0 5.811138,0.0303 5.811138,1.81598 0,1.81393 -0.0081,1.81598 -7.142854,1.81598 -3.928577,0 -7.36078,-0.21792 -7.627119,-0.48427 z m 20.036317,-0.26476 c -1.079266,-0.43382 -1.634383,-1.2691 -1.634383,-2.45927 0,-1.77469 0.03864,-1.78618 2.519042,-0.74979 3.26389,1.36373 6.19636,1.3358 8.21521,-0.0783 3.37585,-2.36453 1.21194,-5.50121 -4.51847,-6.54974 -5.883188,-1.07648 -8.300702,-7.00762 -4.432815,-10.8755 1.494392,-1.4944 2.484075,-1.78297 6.114925,-1.78297 5.46674,0 6.62995,0.45654 6.62995,2.60212 0,1.54646 -0.18826,1.6487 -1.86327,1.01187 -2.75445,-1.04724 -7.27548,-0.86078 -8.27304,0.34119 -0.4791,0.57728 -0.76428,1.79595 -0.63373,2.70815 0.19668,1.37429 1.04327,1.86879 4.93977,2.88533 5.38951,1.40604 7.28306,3.20819 7.28306,6.93152 0,1.81428 -0.59328,3.11105 -2.1233,4.64107 -1.8766,1.8766 -2.61509,2.11796 -6.35594,2.07726 -2.32794,-0.0254 -4.968099,-0.34166 -5.867009,-0.70298 z m 22.557629,-0.6718 c -3.16622,-1.93057 -4.5474,-4.26839 -5.0553,-8.55679 -0.53514,-4.51848 0.58301,-8.04349 3.41084,-10.75272 1.83134,-1.75454 2.89031,-2.12248 6.70234,-2.32875 5.17764,-0.28018 8.04054,0.83991 8.39143,3.28308 0.26817,1.86722 -0.25548,1.9666 -2.77449,0.52661 -2.41026,-1.37783 -7.27549,-1.36385 -9.26064,0.0266 -2.01433,1.41089 -3.33115,6.19098 -2.71315,9.84887 0.90741,5.37093 6.50653,7.98484 11.51203,5.3743 2.74899,-1.4337 3.36733,-1.36961 3.36733,0.34901 0,3.42987 -9.14865,4.93201 -13.58039,2.2298 z m 15.01294,0.87603 c -0.0111,-0.29963 1.84212,-5.52966 4.11831,-11.62227 3.91694,-10.48435 4.24233,-11.07749 6.07692,-11.07749 1.83142,0 2.16537,0.60154 6.05119,10.89978 2.26203,5.99488 4.11279,11.22491 4.11279,11.62228 0,0.39737 -0.68005,0.7225 -1.51122,0.7225 -1.0886,0 -1.83039,-0.81255 -2.65256,-2.90557 l -1.14134,-2.90557 -4.86437,0 -4.86437,0 -1.14134,2.90557 c -0.82217,2.09302 -1.56396,2.90557 -2.65256,2.90557 -0.83117,0 -1.52032,-0.24516 -1.53145,-0.5448 z m 13.65175,-9.0799 c -0.17895,-0.49939 -0.93224,-2.62409 -1.67399,-4.72155 -0.74175,-2.09746 -1.53422,-3.81356 -1.76104,-3.81356 -0.22681,0 -1.02148,1.7161 -1.76592,3.81356 -0.74443,2.09746 -1.50988,4.22216 -1.701,4.72155 -0.25055,0.65473 0.70895,0.90799 3.43992,0.90799 2.71918,0 3.69563,-0.2561 3.46203,-0.90799 z m 9.61303,-1.98487 0,-11.81716 5.99274,0.32654 c 9.33848,0.50886 12.54369,2.86198 13.36699,9.81343 0.3264,2.75599 0.0716,4.40716 -1.08294,7.01714 -1.86731,4.22137 -4.60268,5.53996 -12.6344,6.09047 l -5.64239,0.38674 0,-11.81716 z m 13.38774,6.27818 c 2.30477,-2.30477 3.00087,-6.81391 1.57771,-10.21999 -1.25339,-2.9998 -4.52749,-4.78761 -8.76778,-4.78761 l -2.56571,0 0,8.35351 0,8.35352 4.02817,0 c 3.25453,0 4.35457,-0.32639 5.72761,-1.69943 z m 15.30476,4.67794 c -2.01383,-0.8878 -4.4759,-3.67518 -5.39956,-6.11297 -1.97077,-5.20143 0.14106,-12.81036 4.22502,-15.22281 2.63256,-1.5551 8.14804,-1.63063 11.00978,-0.15077 6.09719,3.15298 6.77167,14.72573 1.15984,19.9006 -2.06969,1.90853 -8.24339,2.79903 -10.99508,1.58595 z m 7.73636,-3.03698 c 3.17761,-1.70061 4.5294,-8.96285 2.42561,-13.03114 -3.07803,-5.95225 -11.09362,-4.3485 -12.37385,2.47576 -1.48161,7.89765 4.01565,13.7304 9.94824,10.55538 z m -69.8429,-46.19839 C 75.553561,273.90377 31.922304,238.49112 19.569082,190.14948 15.590607,174.58059 14.826661,157.25756 17.443511,141.95062 24.250633,102.13323 51.875996,68.153077 89.142268,53.758658 103.77522,48.106554 114.52057,46.16159 131.1138,46.16159 c 6.94974,0 14.73054,0.417228 17.79661,0.954304 43.76445,7.666125 77.79134,36.570401 91.57155,77.785836 11.76858,35.19882 5.46946,74.92525 -16.59169,104.63823 -22.88565,30.82346 -60.08109,48.51581 -98.22441,46.72135 z"
       id="path5025"
       inkscape:connector-curvature="0" />
    <path
       style="fill:#aed2d0"
       d="m 59.564164,314.49898 0,-11.75219 5.401976,0.27278 c 4.485829,0.22653 5.717752,0.56945 7.263922,2.022 1.864329,1.75145 2.500613,5.52396 1.410727,8.36415 -0.672124,1.75153 -4.178098,3.30131 -7.468361,3.30131 l -2.90698,0 -0.21626,4.53995 c -0.194235,4.07762 -0.382699,4.56359 -1.850641,4.77207 l -1.634383,0.23212 0,-11.75219 z m 10.024213,-1.56919 c 1.234158,-1.23416 1.081039,-4.62633 -0.269803,-5.97717 -0.62781,-0.62782 -2.262193,-1.14148 -3.631961,-1.14148 l -2.490488,0 0,3.99516 0,3.99516 2.760291,0 c 1.51816,0 3.152542,-0.39225 3.631961,-0.87167 z m 8.465295,12.3054 c -0.204269,-0.53232 -0.2803,-5.69253 -0.168951,-11.46714 l 0.202445,-10.49928 7.082325,-0.2079 c 6.708116,-0.19692 7.082324,-0.12976 7.082324,1.27119 0,1.35637 -0.451969,1.47908 -5.447942,1.47908 l -5.447942,0 0,3.26877 0,3.26876 5.447942,0 c 4.963678,0 5.447942,0.12914 5.447942,1.45279 0,1.32365 -0.484264,1.45278 -5.447942,1.45278 l -5.447942,0 0,3.60141 0,3.6014 5.62954,0.21216 c 5.074562,0.19124 5.62954,0.35537 5.62954,1.66494 0,1.33942 -0.553613,1.46902 -7.094971,1.66083 -5.389816,0.15806 -7.18423,-0.0245 -7.466368,-0.75979 z m 20.735673,0.30576 c -1.144002,-0.34016 -1.906787,-1.17125 -2.061392,-2.24598 -0.214642,-1.49218 -0.03254,-1.63828 1.452784,-1.16567 5.743593,1.82754 9.803633,1.26698 10.484953,-1.44761 0.6304,-2.51169 -0.61524,-3.71331 -5.24425,-5.05901 -2.17961,-0.63362 -4.603802,-1.79293 -5.387092,-2.57622 -1.40517,-1.40517 -1.852272,-4.54813 -0.972959,-6.83958 0.688758,-1.79487 4.208551,-3.30242 7.684621,-3.29139 4.85197,0.0154 6.392,0.64164 6.392,2.5992 0,1.53895 -0.18959,1.64119 -1.86327,1.00487 -2.75445,-1.04724 -7.27548,-0.86078 -8.27304,0.34119 -1.490641,1.79612 -0.61487,4.2195 1.7828,4.93326 6.14866,1.83038 8.18457,2.87486 8.97188,4.60283 1.27907,2.80723 1.00297,5.11797 -0.87198,7.29773 -1.44704,1.68228 -2.3579,2.0144 -5.99274,2.18508 -2.35748,0.11069 -5.103526,-0.0417 -6.102315,-0.3387 z m 22.518155,-0.66314 c -3.74967,-1.87316 -6.0239,-6.66131 -5.54644,-11.67741 0.4274,-4.49022 1.79246,-6.89317 5.04112,-8.874 4.43174,-2.70221 13.58039,-1.20007 13.58039,2.22979 0,1.68675 -0.46183,1.74151 -2.90557,0.34454 -2.1682,-1.23945 -6.78178,-1.39874 -8.82596,-0.30473 -2.98343,1.59669 -4.32112,7.60392 -2.71756,12.20388 1.38812,3.98197 7.39355,5.72743 11.54352,3.35509 2.45757,-1.40487 2.90557,-1.34316 2.90557,0.40026 0,3.21167 -8.33242,4.6918 -13.07507,2.32258 z m 14.51377,0.72752 c -0.008,-0.29963 1.8714,-5.52966 4.17586,-11.62227 3.88423,-10.26926 4.32425,-11.07749 6.03072,-11.07749 1.70746,0 2.14259,0.80228 6.00807,11.07749 2.292,6.09261 4.16079,11.32264 4.15285,11.62227 -0.008,0.29964 -0.67083,0.5448 -1.47311,0.5448 -1.02374,0 -1.80529,-0.86632 -2.62124,-2.90557 l -1.16258,-2.90557 -4.89568,0 -4.89569,0 -1.14134,2.90557 c -0.82217,2.09302 -1.56396,2.90557 -2.65256,2.90557 -0.83117,0 -1.51755,-0.24516 -1.5253,-0.5448 z m 13.63586,-9.0799 c -0.18432,-0.49939 -0.89931,-2.62409 -1.58888,-4.72155 -0.68957,-2.09746 -1.4898,-3.81356 -1.77829,-3.81356 -0.28849,0 -1.13141,1.7161 -1.87316,3.81356 -0.74174,2.09746 -1.49504,4.22216 -1.67399,4.72155 -0.2336,0.65189 0.74285,0.90799 3.46203,0.90799 2.72438,0 3.69334,-0.25485 3.45229,-0.90799 z m 10.16757,9.21639 c -0.29964,-0.30812 -0.5448,-5.61331 -0.5448,-11.78932 l 0,-11.2291 5.99274,0.32654 c 7.67833,0.4184 10.35516,1.76468 12.31415,6.19328 2.51395,5.68321 0.55838,12.81165 -4.12425,15.0337 -2.54084,1.20571 -12.81653,2.30947 -13.63784,1.4649 z m 12.04696,-4.09215 c 2.09509,-1.10238 3.58412,-5.46702 3.05924,-8.96717 -0.63869,-4.25908 -2.87063,-6.13041 -7.93522,-6.65312 l -4.08382,-0.42149 0,8.8865 0,8.8865 3.81356,-0.515 c 2.09746,-0.28324 4.41327,-0.83054 5.14624,-1.21622 z m 15.23221,3.07963 c -3.16622,-1.93057 -4.5474,-4.26839 -5.05529,-8.55679 -0.56017,-4.72978 0.66835,-8.2893 3.81426,-11.05145 2.14512,-1.88343 3.10995,-2.21549 6.43745,-2.21549 3.19382,0 4.34362,0.36138 6.24783,1.96367 6.06821,5.10606 5.70521,15.35624 -0.69525,19.63203 -3.09232,2.0658 -7.57887,2.16099 -10.749,0.22803 z m 8.53588,-2.23266 c 3.95538,-2.11686 4.81884,-11.24368 1.4073,-14.8751 -2.44737,-2.60511 -7.28672,-2.56414 -9.36604,0.0793 -2.99084,3.80223 -2.83854,10.66387 0.30651,13.80892 1.85838,1.85838 5.21497,2.29127 7.65223,0.9869 z M 113.31719,274.94452 C 79.058868,269.0612 50.732247,250.10031 32.801827,221.05021 20.86622,201.71265 15.327835,180.27309 16.192631,156.75459 17.284721,127.05469 28.8807,100.48234 49.873082,79.575314 66.799345,62.717876 87.708936,51.927408 112.05634,47.485422 c 9.15333,-1.669951 28.96159,-1.669951 38.11492,0 33.36411,6.08701 60.7807,24.489802 78.87777,52.944998 15.7342,24.7399 21.03172,57.11099 14.23406,86.97878 -2.50871,11.02284 -7.74905,23.74467 -13.85732,33.64101 -18.24578,29.56104 -47.79469,48.9783 -82.47048,54.19323 -6.95766,1.04637 -26.833,0.86975 -33.6381,-0.29892 z m 24.29438,-64.54262 2.1394,-0.91272 -5.22657,-4.1702 c -5.88817,-4.69807 -6.62266,-6.59682 -2.86581,-7.40854 4.01214,-0.86687 23.87461,-8.36794 29.23729,-11.04147 6.34,-3.16076 13.22606,-8.00528 16.21083,-11.40473 l 2.27657,-2.59288 6.73693,6.77196 c 4.19051,4.2123 8.10974,7.43062 10.36889,8.51454 4.69317,2.25174 11.58506,2.77691 14.77746,1.12606 1.26102,-0.6521 2.29276,-1.36278 2.29276,-1.57929 0,-0.21651 -2.53329,-2.91216 -5.62954,-5.99032 -10.42486,-10.36399 -12.30716,-17.05135 -7.47763,-26.56629 1.76962,-3.48643 4.03645,-6.34581 7.86606,-9.92225 6.22827,-5.81652 6.05139,-6.19424 -2.59448,-5.54036 -7.99689,0.60481 -15.89346,4.61045 -21.80335,11.06005 l -4.33285,4.72855 -2.9531,-2.46725 c -8.1781,-6.83261 -23.69511,-14.92708 -37.78256,-19.70931 -3.82198,-1.29745 -7.07349,-2.7323 -7.22559,-3.18856 -0.15208,-0.45625 1.2029,-3.35869 3.01107,-6.44985 5.64521,-9.65076 5.80149,-11.2276 1.24798,-12.59187 -5.77379,-1.72987 -15.59854,2.37947 -21.84175,9.13563 -1.3983,1.5132 -3.24402,3.50589 -4.10159,4.42821 -1.70262,1.83117 -4.97879,2.86765 -17.746986,5.61456 -14.112385,3.03609 -22.870656,7.21289 -31.289283,14.92179 -4.106066,3.75991 -12.237441,13.768 -12.237441,15.06184 0,0.3772 1.841805,2.12429 4.0929,3.88242 l 4.092899,3.1966 -3.366507,1.7109 c -1.851579,0.941 -3.366507,1.90601 -3.366507,2.14446 0,1.13383 5.576299,7.81665 10.021226,12.00977 5.771251,5.4443 14.447369,10.00806 22.303229,11.73178 2.79661,0.61363 9.824455,1.6567 15.617433,2.31793 14.980797,1.70997 15.489647,1.88848 20.671797,7.25229 2.44071,2.52627 5.57072,5.08666 6.95557,5.68976 3.09141,1.34629 9.04347,1.46452 11.92125,0.23679 z M 99.826386,188.06644 c 6.700624,-7.23748 10.610794,-16.73108 10.572624,-25.66958 -0.0319,-7.47303 -3.6751,-18.16253 -8.65898,-25.40635 -1.22336,-1.77809 -2.224293,-3.65315 -2.224293,-4.16679 0,-1.37629 7.703573,6.45444 10.265023,10.43448 8.47349,13.16621 7.94101,30.32186 -1.25713,40.50311 -2.87931,3.18704 -10.469234,8.73264 -11.951844,8.73264 -0.46447,0 1.000097,-1.99238 3.2546,-4.42751 z M 78.912609,158.61766 c -3.679235,-3.67924 -1.789954,-10.4339 3.22654,-11.53571 6.756007,-1.48386 11.36347,6.50055 6.536579,11.32744 -2.872097,2.8721 -7.010993,2.96039 -9.763119,0.20827 z"
       id="path5023"
       inkscape:connector-curvature="0" />
    <path
       style="fill:#97adcb"
       d="m 98.789345,325.50315 c -1.159503,-0.32064 -1.904738,-1.11919 -2.061501,-2.20902 -0.202903,-1.41063 -0.0138,-1.61081 1.089588,-1.15345 2.475388,1.02603 8.008388,1.27672 9.582708,0.43417 2.61726,-1.40071 1.37574,-6.58428 -1.58036,-6.59827 -2.12959,-0.0101 -6.526863,-1.67155 -7.803992,-2.94868 -1.588678,-1.58868 -1.843423,-5.49676 -0.47453,-7.27971 1.452341,-1.89162 3.868732,-2.84322 7.193072,-2.8327 4.89974,0.0155 6.40368,0.63617 6.40368,2.64274 0,1.54152 -0.18106,1.65991 -1.47751,0.96607 -2.48656,-1.33076 -8.00058,-0.59337 -9.20635,1.23118 -0.933785,1.413 -0.896507,1.72953 0.35061,2.97665 0.76754,0.76754 2.78729,1.61808 4.48834,1.89008 5.51549,0.88197 8.7607,5.80504 6.54978,9.93619 -1.62529,3.03687 -7.7356,4.4153 -13.053535,2.94475 z m 22.542875,-0.62534 c -7.14188,-3.60278 -7.52488,-16.28694 -0.61893,-20.49736 4.5946,-2.80123 12.94288,-1.54239 12.94288,1.95168 0,1.65359 -0.0807,1.68406 -1.61441,0.60979 -2.59392,-1.81685 -8.26588,-1.48601 -10.35594,0.60404 -2.02598,2.02599 -2.92304,5.89518 -2.227,9.60542 1.02578,5.46783 6.63485,7.78742 12.05425,4.98494 2.08904,-1.08029 2.1431,-1.06376 2.1431,0.65533 0,3.23171 -7.52724,4.50591 -12.32395,2.08616 z m 66.27288,0.19538 c -6.4092,-2.78626 -7.93828,-13.47784 -2.73896,-19.15127 2.31993,-2.53148 2.64783,-2.65315 7.15027,-2.65315 4.02434,0 5.00851,0.26727 6.68696,1.81598 5.70815,5.2669 5.16734,15.26273 -1.0505,19.41652 -2.82052,1.88423 -6.54183,2.09605 -10.04777,0.57192 z m 9.0251,-3.58172 c 1.87242,-1.61059 2.03808,-2.16673 2.03808,-6.8422 0,-4.38629 -0.2432,-5.348 -1.761,-6.96363 -2.43636,-2.59338 -7.07885,-2.63366 -9.47581,-0.0822 -2.06101,2.19384 -2.81922,8.03769 -1.46656,11.30331 1.87813,4.5342 6.96552,5.76714 10.66529,2.58474 z m -137.066036,-7.42234 0,-11.3546 5.580519,0.35813 c 4.931927,0.31651 5.776172,0.5856 7.263923,2.31521 1.657718,1.92721 2.204379,5.48435 1.232183,8.01785 -0.674601,1.75797 -4.18221,3.30131 -7.503022,3.30131 l -2.941642,0 0,4.35835 c 0,4.16465 -0.08071,4.35836 -1.81598,4.35836 l -1.815981,0 0,-11.35461 z m 10.024213,-1.13934 c 0.479419,-0.47942 0.871671,-1.93887 0.871671,-3.24321 0,-2.70198 -1.525173,-3.87544 -5.036992,-3.87544 -2.215048,0 -2.226931,0.0213 -2.226931,3.99516 l 0,3.99516 2.760291,0 c 1.51816,0 3.152542,-0.39225 3.631961,-0.87167 z m 8.298269,1.41646 0.20052,-11.07748 7.082325,-0.2079 c 6.708116,-0.19692 7.082324,-0.12976 7.082324,1.27119 0,1.35637 -0.451969,1.47908 -5.447942,1.47908 l -5.447942,0 0,3.26877 0,3.26876 5.447942,0 c 4.963678,0 5.447942,0.12914 5.447942,1.45279 0,1.32365 -0.484264,1.45278 -5.447942,1.45278 l -5.447942,0 0,3.99516 0,3.99516 5.811138,0 c 4.681191,0 5.811138,0.21187 5.811138,1.08959 0,0.89951 -1.333823,1.08959 -7.646041,1.08959 l -7.646034,0 0.200514,-11.07749 z m 58.008904,10.53269 c 0.0331,-0.29964 1.91291,-5.2845 4.17732,-11.07748 3.40738,-8.71699 4.39029,-10.57159 5.70178,-10.75836 0.95838,-0.13649 1.8608,0.29413 2.28332,1.08958 0.69035,1.29965 8.11636,20.54804 8.11636,21.03778 0,0.1393 -0.7699,0.25328 -1.7109,0.25328 -1.30758,0 -1.86995,-0.55652 -2.38561,-2.36078 -0.67183,-2.35069 -0.69686,-2.36168 -5.85812,-2.57303 l -5.1834,-0.21224 -0.93042,2.57302 c -0.6981,1.93055 -1.34742,2.57303 -2.60047,2.57303 -0.91854,0 -1.64297,-0.24516 -1.60986,-0.5448 z m 13.72919,-7.99031 c -0.0333,-1.5047 -3.46004,-9.74463 -3.81419,-9.17159 -0.60428,0.97773 -3.43688,8.53583 -3.43731,9.17159 -1.9e-4,0.29963 1.63402,0.54479 3.6316,0.54479 1.99758,0 3.62654,-0.24516 3.6199,-0.54479 z m 9.61746,-2.4716 0.2009,-11.14826 5.81114,0.0683 c 3.89772,0.0458 6.58441,0.46839 8.15961,1.28349 5.83366,3.01863 6.76809,13.11003 1.68488,18.19586 -2.14361,2.14472 -2.54908,2.25535 -9.15022,2.49654 l -6.90721,0.25237 0.2009,-11.14826 z m 12.67387,6.9969 c 2.33769,-1.53172 3.34678,-4.37624 2.92409,-8.24276 -0.50424,-4.61252 -2.934,-6.77746 -8.08598,-7.2047 l -4.04232,-0.33522 0,8.90783 0,8.90784 3.72384,-0.44103 c 2.04811,-0.24257 4.51427,-0.95896 5.48037,-1.59196 z M 117.31235,275.55352 C 92.586551,271.68956 72.758026,262.78362 55.407851,247.74927 22.58192,219.3048 8.5808149,173.28629 19.921581,131.1138 34.22112,77.938643 85.63837,41.722776 140.11782,46.453276 c 11.25468,0.977255 18.05931,2.357244 27.67879,5.613309 17.51709,5.929296 32.39486,15.288215 45.56843,28.664993 30.38047,30.849102 40.58552,75.668662 26.71171,117.315112 -12.73656,38.23265 -45.36881,67.10013 -85.7184,75.8291 -5.67757,1.22825 -10.27799,1.62022 -21.06537,1.79485 -7.5908,0.12289 -14.78209,0.0702 -15.98063,-0.11712 z m 18.21369,-64.26272 c 1.78176,-0.44865 3.41873,-1.1056 3.63769,-1.4599 0.40808,-0.66028 -2.12443,-3.02145 -7.12915,-6.64686 -1.57455,-1.1406 -2.7278,-2.53827 -2.60114,-3.15241 0.14349,-0.69564 3.58264,-2.25019 9.30748,-4.20713 17.61388,-6.021 25.35582,-9.56768 32.68765,-14.97463 2.59685,-1.91508 5.46105,-4.48365 6.36487,-5.70792 l 1.64333,-2.22595 5.6206,5.88351 c 6.9788,7.30526 10.50003,9.7608 16.02754,11.17689 4.82864,1.23704 9.38153,0.66403 11.74923,-1.4787 1.29944,-1.17597 1.21085,-1.34536 -2.36388,-4.52023 -4.84114,-4.29961 -9.55279,-10.12301 -11.08044,-13.69492 -3.37264,-7.88586 1.09192,-18.73572 11.04603,-26.84429 2.40235,-1.95694 3.59326,-3.35985 3.00616,-3.54129 -2.91256,-0.90012 -4.76445,-0.97419 -9.17699,-0.36705 -7.16629,0.98605 -14.59121,4.88148 -20.24908,10.62353 l -4.61074,4.67934 -2.71713,-2.1413 c -10.21263,-8.04833 -27.02058,-16.48066 -41.76071,-20.9508 -1.8977,-0.5755 -3.45036,-1.26191 -3.45036,-1.52535 0,-0.26344 1.67549,-3.42582 3.7233,-7.02751 5.85925,-10.30522 4.90895,-13.27972 -3.97833,-12.45239 -6.06244,0.56436 -12.05997,3.96482 -18.36042,10.40993 -5.15016,5.26841 -5.21084,5.30391 -11.62228,6.79948 -17.771375,4.14544 -21.331729,5.16639 -26.391995,7.56804 -9.484862,4.50158 -18.105738,12.19678 -25.331901,22.61184 l -1.605208,2.31358 3.970477,3.13436 c 2.183761,1.7239 3.98872,3.31438 4.011018,3.5344 0.0223,0.22003 -1.441023,1.11985 -3.251824,1.99961 l -3.292366,1.59956 3.110768,4.45386 c 6.402816,9.16729 18.694095,17.46917 29.381484,19.84509 2.730283,0.60697 10.357613,1.7432 16.949622,2.52495 11.721335,1.39004 16.707025,2.49247 16.707025,3.69423 0,1.0228 6.57868,7.23419 8.97373,8.47271 4.73826,2.45025 6.59273,2.71758 11.05594,1.59372 z M 99.064459,189.04629 c 3.810871,-3.75716 7.390191,-9.38765 9.583441,-15.07534 1.06702,-2.76709 1.39809,-5.4482 1.39029,-11.25908 -0.0123,-9.13714 -1.42883,-13.94016 -6.95272,-23.5739 -2.00838,-3.50265 -3.515435,-6.50461 -3.349018,-6.67104 0.567738,-0.56773 8.982338,8.97231 10.830558,12.27912 3.31109,5.92419 4.93008,11.94136 4.92073,18.28846 -0.0185,12.5796 -4.46158,20.59737 -15.18125,27.39559 -4.765535,3.02221 -5.209411,2.52766 -1.242031,-1.38381 z M 79.12088,158.40939 c -3.670677,-3.67067 -2.352377,-9.31791 2.553117,-10.93686 5.681172,-1.87496 10.817012,4.04925 8.087041,9.32843 -2.249005,4.3491 -7.157499,5.09109 -10.640158,1.60843 z"
       id="path5021"
       inkscape:connector-curvature="0" />
    <path
       style="fill:#718cba"
       d="m 98.970943,325.33745 c -1.687547,-0.48726 -2.360775,-1.11218 -2.360775,-2.19138 0,-1.15505 0.298642,-1.38548 1.271187,-0.98087 2.414505,1.00454 7.961205,1.24324 9.518785,0.40965 1.0598,-0.56719 1.5587,-1.52849 1.5587,-3.00338 0,-2.35717 -0.83987,-2.92823 -6.35298,-4.31963 -6.035919,-1.52335 -7.831568,-6.26379 -3.872389,-10.22296 1.630419,-1.63043 2.789649,-2.12331 4.993949,-2.12331 4.91752,0 7.41059,0.76367 7.41059,2.26998 0,1.57382 -0.2237,1.61307 -3.62869,0.63653 -4.80014,-1.37666 -9.260948,1.62013 -7.00466,4.70577 0.45938,0.62825 2.63122,1.61242 4.8263,2.18705 4.19371,1.09782 7.25984,3.70557 7.25984,6.17452 0,5.77013 -6.05646,8.64188 -13.619857,6.45803 z m 22.522687,-0.38199 c -6.83704,-3.37053 -7.62285,-16.1419 -1.25012,-20.31748 2.44482,-1.6019 7.57395,-2.0939 10.78415,-1.03444 2.06738,0.6823 2.62851,1.24671 2.62851,2.64388 0,1.71188 -0.0638,1.73459 -1.75672,0.62535 -3.92469,-2.57156 -10.58462,-0.90684 -12.07715,3.01881 -1.68474,4.4312 -0.18494,10.95524 2.89775,12.60506 2.03756,1.09046 6.32745,0.91467 8.79302,-0.36032 2.04099,-1.05544 2.1431,-1.03638 2.1431,0.40026 0,3.12211 -7.64991,4.64352 -12.16254,2.41888 z m 65.94028,-0.0369 c -7.1454,-3.72023 -7.52531,-16.32743 -0.61892,-20.53812 4.53577,-2.76537 11.12044,-1.29958 14.01634,3.12013 0.63382,0.96732 1.34448,3.38059 1.57924,5.3628 0.51602,4.3569 -1.48966,9.58564 -4.41122,11.49991 -2.84225,1.86232 -7.57708,2.11116 -10.56544,0.55528 z m 9.44043,-3.51346 c 1.34859,-1.4355 1.79238,-2.84939 2.02091,-6.43842 0.27225,-4.27554 0.14047,-4.76951 -1.87373,-7.0238 -2.79282,-3.12571 -6.6213,-3.27377 -9.52664,-0.36843 -1.69234,1.69235 -1.90166,2.46646 -1.90166,7.0328 0,4.72151 0.1627,5.27108 2.03808,6.88421 2.82442,2.42946 6.91547,2.39124 9.24304,-0.0864 z m -137.310176,-7.24045 0,-11.25908 4.018488,0 c 7.174162,0 10.534476,2.37061 10.486258,7.39777 -0.04051,4.22329 -2.860678,6.40369 -8.282658,6.40369 l -3.316519,0 0,4.35835 c 0,3.87409 -0.16142,4.35836 -1.452785,4.35836 -1.390298,0 -1.452784,-0.48427 -1.452784,-11.25909 z m 10.171347,-1.45502 c 1.328856,-1.60117 1.104486,-4.82417 -0.413088,-5.93384 -0.725572,-0.53056 -2.564253,-0.96465 -4.085956,-0.96465 l -2.766734,0 0,3.99516 0,3.99516 3.179822,0 c 1.943241,0 3.532204,-0.42459 4.085956,-1.09183 z m 8.714851,1.45502 0,-11.25908 6.900727,0 c 6.416462,0 6.900726,0.10195 6.900726,1.45279 0,1.32365 -0.484264,1.45278 -5.447942,1.45278 l -5.447942,0 0,3.26877 0,3.26876 5.501201,0 c 4.84739,0 5.472378,0.15109 5.258644,1.27119 -0.199707,1.04658 -1.171714,1.30889 -5.501201,1.48461 l -5.258644,0.21342 0,3.96333 0,3.96334 5.811138,0 c 4.681191,0 5.811138,0.21187 5.811138,1.08959 0,0.89588 -1.291365,1.08959 -7.263922,1.08959 l -7.263923,0 0,-11.25909 z m 57.391498,11.07749 c 0.004,-0.0999 1.90459,-5.08475 4.22447,-11.07749 3.81392,-9.85212 4.38524,-10.89588 5.96415,-10.89588 1.57924,0 2.14762,1.03966 5.94502,10.87441 2.30936,5.98093 4.19883,10.96579 4.19883,11.07748 0,0.11169 -0.76545,0.20308 -1.701,0.20308 -1.35515,0 -1.878,-0.59077 -2.57153,-2.90557 l -0.87053,-2.90557 -5.02643,0 -5.02643,0 -0.87053,2.90557 c -0.69353,2.3148 -1.21637,2.90557 -2.57153,2.90557 -0.93555,0 -1.69807,-0.0817 -1.69449,-0.1816 z m 13.79509,-8.35351 c 2.8e-4,-1.00715 -3.25176,-9.6247 -3.63211,-9.6247 -0.38035,0 -3.63239,8.61755 -3.63211,9.6247 8e-5,0.29963 1.63453,0.54479 3.63211,0.54479 1.99758,0 3.63203,-0.24516 3.63211,-0.54479 z m 10.16934,-2.83057 0,-11.36566 5.51158,0.46589 c 9.82672,0.83067 12.79351,3.51295 12.79351,11.56663 0,7.50238 -3.89216,10.69573 -13.03874,10.69769 l -5.26635,10e-4 0,-11.36568 z m 10.88578,7.91419 c 4.18653,-2.09976 5.52195,-6.90955 3.35701,-12.09098 -1.1361,-2.71907 -3.97092,-4.07013 -8.54004,-4.07013 l -2.79718,0 0,8.71671 0,8.71671 2.72397,-10e-4 c 1.49819,-6.3e-4 3.8635,-0.57266 5.25624,-1.27119 z M 114.71801,274.96466 C 76.186837,268.667 45.053126,246.13521 28.364493,212.46974 21.224762,198.06698 18.089866,186.90653 16.583324,170.52797 14.110001,143.63892 22.312411,114.7264 38.607713,92.894624 57.376959,67.748356 84.058169,51.811662 115.13317,47.18594 c 7.46974,-1.111921 24.49152,-1.111921 31.96126,0 47.35031,7.04841 84.67109,41.110941 95.93419,87.55874 3.71459,15.31852 3.95289,34.7329 0.61901,50.43078 -4.35804,20.52023 -15.55288,41.22216 -30.45151,56.31205 -16.57573,16.78853 -36.07917,27.39002 -59.56416,32.37731 -9.49251,2.01583 -29.79824,2.58974 -38.91395,1.09984 z m 22.87625,-64.17573 2.8485,-1.27951 -5.33337,-4.33098 c -2.93336,-2.38204 -5.46191,-4.72069 -5.61902,-5.19701 -0.17032,-0.51639 1.27274,-1.32847 3.57446,-2.01151 7.295,-2.1648 22.02684,-7.85019 27.83105,-10.74069 6.86975,-3.42114 13.97022,-8.32227 16.62134,-11.47294 l 1.89893,-2.25675 5.9941,6.10148 c 6.43584,6.55113 10.6006,9.38894 15.81866,10.77866 3.9637,1.05565 9.43736,0.38283 11.6837,-1.43615 l 1.59507,-1.29161 -6.33863,-6.33862 c -10.31294,-10.31294 -11.98121,-16.04045 -7.43519,-25.52641 1.86268,-3.88676 3.73192,-6.285 8.0197,-10.28932 5.12306,-4.78437 5.47088,-5.28554 4.1565,-5.98897 -3.2369,-1.73234 -11.64512,-0.37949 -18.96333,3.05113 -3.26641,1.53122 -6.25459,3.76725 -9.69588,7.2553 l -4.97432,5.04194 -1.9264,-1.80889 c -6.19401,-5.81617 -25.8349,-16.07377 -39.15401,-20.44846 -3.73083,-1.22539 -5.99273,-2.35376 -5.99273,-2.98951 0,-0.56166 1.63438,-3.87158 3.63196,-7.35539 1.99758,-3.4838 3.63196,-7.07584 3.63196,-7.98231 0,-4.49424 -9.42593,-5.18252 -16.80485,-1.22709 -2.1422,1.14832 -6.38117,4.56535 -9.41991,7.59338 -6.07338,6.05198 -5.46964,5.78616 -20.627539,9.08193 -10.684903,2.32321 -18.515302,5.26449 -24.506962,9.20539 -5.387363,3.54344 -13.591149,11.69977 -17.539078,17.43762 l -2.82086,4.09979 2.431112,2.03221 c 1.337113,1.11772 3.236145,2.71864 4.220074,3.55762 l 1.788962,1.52541 -3.396793,1.29725 c -1.868237,0.71348 -3.396793,1.51431 -3.396793,1.77961 0,0.2653 1.423486,2.43865 3.163304,4.82968 4.869279,6.69181 11.429954,12.19102 18.916267,15.85575 7.344385,3.59525 12.315399,4.73942 28.655996,6.5957 5.73145,0.65108 11.25093,1.4994 12.26551,1.88514 1.01459,0.38575 3.72282,2.65077 6.01829,5.03339 6.53582,6.78392 12.90257,8.75359 19.18022,5.93374 z M 96.610168,192.21635 c 0,-0.19985 1.593073,-2.0249 3.540152,-4.05566 12.60275,-13.14442 13.57122,-33.86275 2.35745,-50.43247 -3.256243,-4.81151 -3.357691,-5.04722 -1.80851,-4.20202 2.37259,1.29444 6.6275,6.15708 9.33006,10.66266 7.3297,12.21976 7.3429,27.43219 0.0325,37.39101 -2.62373,3.57422 -13.451622,12.13606 -13.451622,10.63648 z M 79.12088,158.40939 c -3.545549,-3.54554 -2.226915,-9.35931 2.474753,-10.911 5.351768,-1.76625 10.217361,3.03942 8.462107,8.35788 -1.618954,4.9055 -7.266189,6.2238 -10.93686,2.55312 z"
       id="path5019"
       inkscape:connector-curvature="0" />
    <path
       style="fill:#526bae"
       d="m 98.970943,325.33745 c -1.687547,-0.48726 -2.360775,-1.11218 -2.360775,-2.19138 0,-1.17062 0.285523,-1.38175 1.271187,-0.93998 2.232725,1.00073 7.970345,1.19746 9.593195,0.32894 1.1968,-0.64052 1.51598,-1.3885 1.34511,-3.15229 -0.20817,-2.1489 -0.55232,-2.41845 -4.86418,-3.80979 -7.362847,-2.37583 -9.359234,-6.40685 -5.222009,-10.54407 1.719329,-1.71934 2.746839,-2.12331 5.400649,-2.12331 4.05777,0 7.00389,1.06187 7.00389,2.5244 0,1.31038 -0.65565,1.37468 -3.39551,0.33298 -3.02085,-1.14852 -6.67981,-0.22684 -7.66262,1.9302 -1.102472,2.41966 0.21911,3.69239 5.19791,5.00578 4.47443,1.18033 6.33117,2.6442 6.95471,5.48318 1.28797,5.8641 -5.34285,9.44179 -13.261557,7.15534 z M 121.64703,324.699 c -3.9849,-1.97255 -5.56955,-4.87884 -5.56955,-10.21471 0,-5.16631 1.5924,-8.28641 5.21869,-10.22537 4.60798,-2.46388 12.36,-1.27514 12.36,1.89534 l 0,1.65379 -2.91279,-1.44113 c -3.60297,-1.78261 -7.02761,-1.30328 -9.5013,1.32984 -1.50592,1.60299 -1.75056,2.57457 -1.75056,6.95251 0,4.67547 0.16566,5.23161 2.03809,6.8422 2.43552,2.09495 7.94408,2.42106 10.51215,0.62231 1.51532,-1.06136 1.61441,-1.0368 1.61441,0.40026 0,1.06046 -0.77425,1.85454 -2.51904,2.58357 -3.42412,1.43068 -6.01437,1.32189 -9.4901,-0.39861 z m 65.76217,0.14189 c -3.63582,-1.99846 -5.32688,-5.27241 -5.32688,-10.31304 0,-5.09382 1.78833,-8.55244 5.35159,-10.34996 9.452,-4.76814 18.47178,5.35317 13.92687,15.62768 -0.80686,1.82405 -2.31951,3.87503 -3.36143,4.55772 -2.92167,1.91436 -7.59297,2.12502 -10.59015,0.4776 z m 9.74173,-3.83124 c 1.51281,-1.79788 1.88054,-2.99857 1.88054,-6.14015 0,-4.79 -1.11127,-7.39166 -3.73731,-8.74964 -3.10656,-1.60647 -4.90997,-1.24981 -7.67831,1.51853 -2.48245,2.48245 -2.54531,2.68429 -2.2552,7.24045 0.38639,6.06815 2.26278,8.36572 6.83215,8.36572 2.54484,0 3.40309,-0.38687 4.95813,-2.23491 z M 59.726842,314.35541 c 0.228465,-12.61094 -0.165368,-11.9806 6.931364,-11.09392 4.974306,0.6215 7.433803,2.76254 7.433803,6.47129 0,4.10633 -2.526261,6.39983 -7.50404,6.81263 l -4.118236,0.34152 0,4.2684 c 0,3.80243 -0.160662,4.26841 -1.471704,4.26841 -1.422394,0 -1.464986,-0.37086 -1.271187,-11.06833 z m 10.411449,-2.33123 c 1.001485,-1.52846 1.02845,-2.06236 0.192603,-3.81356 -0.833867,-1.74705 -1.461184,-2.06773 -4.416539,-2.25768 l -3.444622,-0.22139 0,4.03495 0,4.03496 3.25202,0 c 2.648376,0 3.468179,-0.3299 4.416538,-1.77728 z m 8.312071,2.14047 0,-11.25908 6.900727,0 c 6.416462,0 6.900726,0.10195 6.900726,1.45279 0,1.32365 -0.484264,1.45278 -5.447942,1.45278 l -5.447942,0 0,3.26877 0,3.26876 5.084746,0 c 4.600482,0 5.084746,0.13837 5.084746,1.45279 0,1.31442 -0.484264,1.45278 -5.084746,1.45278 l -5.084746,0 0,3.99516 0,3.99516 5.447942,0 c 4.358354,0 5.447942,0.21792 5.447942,1.08959 0,0.89206 -1.251007,1.08959 -6.900726,1.08959 l -6.900727,0 0,-11.25909 z m 59.295388,6.35594 c 6.38599,-16.96824 6.52248,-17.25182 8.30376,-17.25182 1.77224,0 1.69557,-0.16224 8.66753,18.34141 l 1.4369,3.81356 -1.50102,0 c -1.07671,0 -1.82366,-0.82136 -2.64237,-2.90557 l -1.14134,-2.90557 -4.9454,0 -4.9454,0 -0.87053,2.90557 c -0.68725,2.29383 -1.2218,2.90557 -2.53897,2.90557 l -1.66845,0 1.84529,-4.90315 z m 11.8984,-3.63196 c 0.0151,-1.12175 -3.20001,-9.6247 -3.63931,-9.6247 -0.4393,0 -3.65445,8.50295 -3.63931,9.6247 0.004,0.29963 1.64173,0.54479 3.63931,0.54479 1.99758,0 3.63527,-0.24516 3.63931,-0.54479 z m 10.16214,-2.72398 0,-11.25908 1.99758,0.0146 c 1.09867,0.008 4.12228,0.31951 6.71913,0.69217 4.08694,0.58649 5.04904,1.03356 7.15808,3.32615 2.37336,2.57992 2.42958,2.78634 2.16831,7.96029 -0.40602,8.04043 -3.45946,10.52495 -12.93502,10.52495 l -5.10808,0 0,-11.25909 z m 13.19709,6.2746 c 1.60361,-1.79476 2.05715,-3.01296 2.05715,-5.52548 0,-6.26652 -2.81778,-9.10263 -9.04383,-9.10263 l -3.30484,0 0,8.80666 0,8.80666 4.11719,-0.34143 c 3.4864,-0.28912 4.43234,-0.69416 6.17433,-2.64378 z M 121.3075,275.6071 C 97.405938,272.83426 79.813256,266.06604 62.105807,252.83116 38.481921,235.17422 22.684433,209.08235 17.663121,179.42753 16.141167,170.43919 16.13508,151.60895 17.65126,142.73608 22.257111,115.7821 35.829514,91.449423 55.781373,74.376205 71.383084,61.025507 88.380166,52.783649 109.88332,48.142255 c 8.53103,-1.841397 33.92993,-1.841397 42.46096,0 16.21129,3.499161 29.45853,8.843561 41.23925,16.637361 27.85007,18.424834 45.40648,45.264614 50.99281,77.956464 1.51618,8.87287 1.51009,27.70311 -0.0118,36.69145 -8.22136,48.55353 -45.35952,86.2204 -93.47491,94.80564 -6.08185,1.08518 -24.81976,1.94962 -29.78209,1.37393 z m 16.47319,-64.59738 c 2.59912,-1.08599 2.61159,-1.11173 1.26086,-2.60427 -0.75032,-0.8291 -2.92833,-2.65561 -4.84002,-4.05892 -6.13019,-4.49997 -6.06075,-4.62835 4.40378,-8.14151 19.85469,-6.66563 32.15082,-13.01282 38.21705,-19.72742 l 2.67548,-2.96142 4.71558,5.09326 c 8.06171,8.7074 14.58166,12.4344 21.74306,12.42901 3.28486,-0.002 8.32923,-2.0179 8.32923,-3.32787 0,-0.24549 -2.7232,-3.15122 -6.05155,-6.45718 -7.33571,-7.28633 -9.54516,-11.32776 -9.54102,-17.45194 0.004,-6.06531 3.57287,-12.35825 10.69483,-18.85862 5.87103,-5.35863 5.82737,-6.17073 -0.33285,-6.1908 -9.08566,-0.0296 -17.29354,3.6167 -24.76129,11.00002 l -4.93134,4.8756 -2.33258,-2.03276 c -6.92324,-6.03336 -22.38304,-14.22679 -35.96707,-19.06195 -4.86045,-1.73005 -8.84219,-3.47505 -8.84832,-3.87779 -0.006,-0.40274 1.61572,-3.50806 3.60409,-6.90073 5.57858,-9.51846 4.70306,-12.62518 -3.50463,-12.43597 -6.78805,0.15649 -15.88025,5.3985 -21.06339,12.14387 -2.56884,3.34311 -4.33282,4.00619 -19.332516,7.26717 -18.995128,4.1296 -28.273271,9.88181 -40.252789,24.95566 -2.047868,2.57684 -3.723397,5.07498 -3.723397,5.55141 0,0.47643 1.634383,2.11265 3.631961,3.63601 1.997579,1.52338 3.631962,2.97984 3.631962,3.23658 0,0.25675 -1.307507,1.05642 -2.905569,1.77704 -1.598063,0.72063 -2.905569,1.60142 -2.905569,1.95732 0,1.2039 5.640379,8.18847 9.914901,12.27778 9.662533,9.24387 18.284699,12.46668 39.776241,14.86767 5.956035,0.6654 11.808905,1.4908 13.006365,1.83423 1.21098,0.34731 3.73908,2.3768 5.69661,4.57309 6.07211,6.81276 13.57477,9.29468 19.9919,6.61343 z m -36.64682,-23.78211 c 2.10893,-2.49698 4.96626,-6.99153 6.34962,-9.9879 2.22655,-4.8227 2.5471,-6.2816 2.79311,-12.71186 0.40644,-10.62366 -2.15998,-18.95791 -8.83337,-28.68564 -2.071318,-3.01932 -2.103185,-3.15437 -0.4285,-1.81598 2.98416,2.38493 7.55645,7.77163 9.551,11.25222 6.92334,12.08156 6.32933,27.66257 -1.41494,37.1145 -2.45098,2.99144 -10.203861,9.37461 -11.386224,9.37461 -0.255814,0 1.26037,-2.04298 3.369304,-4.53995 z M 80.548219,159.44336 c -1.043513,-0.56713 -2.288142,-1.97474 -2.76584,-3.128 -2.357419,-5.69132 3.806107,-11.1169 9.29302,-8.1804 1.86884,1.00017 3.751184,4.83227 3.216682,6.54855 -0.85744,2.75325 -1.957518,4.29319 -3.602193,5.04255 -2.30562,1.05052 -3.816574,0.98096 -6.141669,-0.2827 z"
       id="path5017"
       inkscape:connector-curvature="0" />
    <path
       style="fill:#27419c"
       d="m 101.33172,325.83108 c -0.39952,-0.15415 -1.625305,-0.47852 -2.723973,-0.72084 -1.400688,-0.30893 -1.997579,-0.89376 -1.997579,-1.95724 0,-1.15696 0.301482,-1.39415 1.271187,-1.00009 6.523165,2.65078 11.077485,1.60638 11.077485,-2.54031 0,-2.58048 -1.06938,-3.40929 -5.67262,-4.39651 -4.074914,-0.87391 -6.676052,-3.2647 -6.676052,-6.13618 0,-2.35122 2.575838,-5.26009 5.160592,-5.8278 3.11138,-0.68337 8.63868,0.25535 9.13611,1.55163 0.60493,1.57644 0.23696,1.65231 -3.87596,0.79921 -3.17928,-0.65945 -4.02829,-0.59023 -5.62954,0.45896 -3.825696,2.50669 -2.016746,5.53857 4.12457,6.91293 4.17806,0.93501 5.856,2.23059 6.54417,5.0529 0.54825,2.2485 -0.61765,5.39737 -2.41373,6.51904 -1.49313,0.93248 -7.02472,1.78588 -8.32466,1.2843 z m 21.76448,-0.42196 c -1.21355,-0.37034 -3.15968,-1.66829 -4.32473,-2.88434 -1.78597,-1.86415 -2.16437,-2.93496 -2.41213,-6.82604 -0.39186,-6.15401 1.17833,-9.56445 5.25626,-11.41657 3.58861,-1.62989 6.1848,-1.71825 9.52153,-0.32407 1.63792,0.68437 2.51904,1.54177 2.51904,2.45124 0,1.37364 -0.0522,1.37288 -2.91279,-0.0424 -3.80892,-1.8845 -7.24017,-1.28521 -9.75528,1.70384 -2.46641,2.93116 -2.66563,9.59504 -0.37394,12.50845 2.58503,3.28634 8.74157,3.87734 12.02283,1.15414 0.81929,-0.67995 1.01918,-0.54848 1.01918,0.67032 0,0.8339 -0.61281,1.84413 -1.36181,2.24499 -2.09852,1.12309 -6.74977,1.50764 -9.19816,0.76046 z m 64.6762,-0.59439 c -3.88952,-1.83642 -5.51849,-4.83473 -5.54417,-10.20466 -0.0341,-7.13151 2.88481,-10.84988 9.00501,-11.47134 3.91777,-0.39781 7.61624,1.45077 9.52897,4.7628 1.77443,3.07255 1.89747,9.68161 0.23969,12.87438 -2.40532,4.63247 -8.2154,6.40622 -13.2295,4.03882 z m 6.8144,-1.64893 c 5.82028,-2.02896 6.35073,-14.12764 0.74647,-17.02572 -2.55732,-1.32244 -3.83985,-1.32651 -6.36594,-0.0202 -2.61991,1.35481 -3.73731,3.95819 -3.73731,8.7074 0,4.16151 1.6952,7.24183 4.64028,8.43177 2.05354,0.82973 2.06984,0.82941 4.7165,-0.0932 z m -135.022636,-8.63795 0,-10.89588 5.367469,0 c 6.507553,0 8.333669,1.12702 8.920979,5.50572 0.324784,2.42142 0.0789,3.31657 -1.375464,5.00736 -1.4584,1.69549 -2.497748,2.11912 -5.889179,2.40036 l -4.118236,0.34152 0,4.2684 c 0,3.78414 -0.164822,4.26841 -1.452785,4.26841 -1.388216,0 -1.452784,-0.48427 -1.452784,-10.89589 z m 8.612691,-0.79898 c 2.833889,-0.98789 3.663574,-3.54266 1.983326,-6.10704 -0.972151,-1.48369 -1.773704,-1.81069 -4.438428,-1.81069 l -3.25202,0 0,3.87409 c 0,2.13076 0.217918,4.09202 0.484262,4.35836 0.708273,0.70827 2.6185,0.59317 5.22286,-0.31472 z m 10.273507,0.79898 0,-10.89588 6.900727,0 c 5.649719,0 6.900726,0.19752 6.900726,1.08959 0,0.87167 -1.089588,1.08958 -5.447942,1.08958 l -5.447942,0 0,3.26877 0,3.26876 5.084746,0 c 4.035516,0 5.084746,0.22484 5.084746,1.08959 0,0.86476 -1.04923,1.08959 -5.084746,1.08959 l -5.084746,0 0,4.35835 0,4.35836 5.447942,0 c 4.358354,0 5.447942,0.21792 5.447942,1.08959 0,0.89206 -1.251007,1.08959 -6.900726,1.08959 l -6.900727,0 0,-10.89589 z m 61.637698,0.008 c 3.79464,-10.07462 4.23806,-10.88809 5.93934,-10.89589 1.66363,-0.008 2.08854,0.66532 4.46653,7.07389 1.4454,3.89528 3.31921,8.82175 4.16402,10.94769 l 1.53602,3.86538 -1.58311,-0.23341 c -1.06725,-0.15735 -1.86005,-1.06185 -2.43297,-2.77577 l -0.84986,-2.54238 -5.11309,-0.21158 -5.1131,-0.21159 -1.17458,2.93556 c -0.79637,1.99033 -1.61979,2.93556 -2.55728,2.93556 -1.23845,0 -0.95487,-1.13589 2.71808,-10.88746 z m 8.21378,-2.51493 c -1.06311,-2.97663 -2.15454,-5.18305 -2.42542,-4.90315 -0.27087,0.27991 -1.31877,2.71533 -2.32866,5.41207 l -1.83617,4.90314 4.26158,0 4.26158,0 -1.93291,-5.41206 z m 11.50445,2.5065 0,-10.89588 5.70372,0 c 8.96168,0 12.42455,3.05236 12.44538,10.97006 0.0201,7.63805 -3.74357,10.70125 -13.24595,10.78071 l -4.90315,0.041 0,-10.89589 z m 11.15728,7.71647 c 3.07809,-1.2861 4.39299,-4.38008 3.92618,-9.23828 -0.49155,-5.11566 -2.18287,-6.64654 -7.79132,-7.05221 l -4.38657,-0.3173 0,8.80402 0,8.80401 2.9289,0 c 1.61089,0 4.00616,-0.45011 5.32281,-1.00024 z M 119.8909,275.24001 C 82.012764,271.59245 47.412427,248.34874 29.657849,214.62355 20.58185,197.3835 16.505645,180.54373 16.564708,160.53269 16.654888,129.97861 28.118745,102.1149 49.451365,80.59936 81.118227,48.660957 128.02055,37.986644 169.97579,53.169685 c 39.29508,14.220367 67.69852,48.450635 74.49616,89.778705 1.39249,8.46595 1.57264,25.77193 0.3532,33.92813 -5.58701,37.36848 -28.04976,69.01735 -61.0319,85.99081 -13.97898,7.19395 -26.69538,10.90423 -42.50996,12.40317 -8.87688,0.84138 -12.39052,0.83636 -21.39239,-0.0305 z m 17.78376,-64.18599 c 1.38547,-0.57889 2.51134,-1.31436 2.50194,-1.63438 -0.009,-0.32003 -2.29755,-2.35491 -5.08475,-4.52197 -2.7872,-2.16705 -5.06764,-4.36087 -5.06764,-4.87515 0,-0.51427 1.28147,-1.28011 2.84771,-1.70185 6.18658,-1.66588 24.22193,-8.76364 30.47611,-11.9938 4.1248,-2.13037 8.41629,-5.09611 11.4102,-7.88529 l 4.79878,-4.47063 7.02842,6.96786 c 7.86165,7.7939 12.25271,10.10461 19.19242,10.09964 3.70709,-0.003 8.50786,-2.00654 8.50786,-3.55125 0,-0.36837 -1.6996,-2.19784 -3.77688,-4.0655 -4.97973,-4.47721 -9.62363,-10.53151 -11.15618,-14.54445 -2.52993,-6.62451 0.6674,-14.4682 9.42244,-23.11511 6.80975,-6.72564 6.62992,-7.26319 -2.26871,-6.78183 -4.73914,0.25635 -6.9738,0.79541 -10.88537,2.62586 -6.07883,2.84462 -11.68223,7.00808 -14.01629,10.41442 l -1.7673,2.57921 -2.57004,-2.02523 c -9.47099,-7.46326 -25.42081,-15.74727 -38.70685,-20.10355 -3.49511,-1.14598 -6.35527,-2.35346 -6.35594,-2.68327 -6.6e-4,-0.32981 1.32867,-2.8767 2.95406,-5.65976 5.8279,-9.97874 5.99415,-12.08131 1.08338,-13.70201 -2.93526,-0.96873 -9.13085,-0.068 -12.91887,1.87824 -3.47481,1.78529 -10.20951,7.21285 -12.06641,9.72444 -2.58947,3.50243 -4.35762,4.24604 -16.432061,6.9106 -21.635019,4.77437 -30.891954,10.18415 -42.645035,24.92189 -2.330771,2.92266 -4.237766,5.75895 -4.237766,6.30286 0,0.54392 1.620459,2.2386 3.60102,3.76597 1.980561,1.52737 3.614944,2.97256 3.631961,3.21152 0.01702,0.23896 -1.358284,1.03867 -3.056226,1.77713 -1.697941,0.73846 -3.193933,1.41242 -3.324426,1.4977 -0.130493,0.0853 1.399666,2.40561 3.400352,5.15631 7.154315,9.83629 19.206563,17.75662 30.614147,20.11858 2.996368,0.6204 10.024213,1.64816 15.617433,2.28391 14.397601,1.6365 15.117621,1.88647 19.704571,6.84092 2.15376,2.32633 5.3023,4.90208 6.99673,5.72388 3.65029,1.77042 9.01439,1.99019 12.54721,0.51409 z M 98.431677,190.55736 c 6.090173,-5.5634 11.010823,-14.90579 12.158433,-23.08417 1.3375,-9.53153 -1.76394,-21.10449 -8.23131,-30.715 l -2.33191,-3.46521 3.10624,2.90557 c 8.85357,8.28163 13.60302,21.46212 11.64776,32.32446 -1.66425,9.24566 -5.38216,14.95343 -13.17912,20.23267 -2.545621,1.72361 -3.972168,2.53437 -3.170093,1.80168 z M 79.303372,158.1251 c -1.874274,-1.99508 -2.098947,-5.9705 -0.468937,-8.29767 2.13669,-3.05055 7.801474,-2.79069 10.307114,0.47282 1.524566,1.98569 1.107886,5.76333 -0.851877,7.72308 -2.413242,2.41325 -6.768436,2.46257 -8.9863,0.10177 z"
       id="path5015"
       inkscape:connector-curvature="0" />
    <path
       style="fill:#111111"
       d="m 99.697335,325.31875 c -2.397,-0.54887 -3.087167,-1.0395 -3.087167,-2.19466 0,-1.13358 0.302615,-1.36219 1.271187,-0.96029 6.279355,2.60549 10.543625,1.72598 10.932985,-2.25493 0.26779,-2.73807 -0.53872,-3.42817 -5.75321,-4.9228 -2.24495,-0.64347 -4.516739,-1.6941 -5.048429,-2.33474 -1.480533,-1.78394 -1.196608,-5.91616 0.524768,-7.63755 2.821181,-2.82117 11.927091,-2.52635 12.491501,0.40444 0.20108,1.04406 -0.0338,1.21275 -1.08847,0.78186 -5.5759,-2.27799 -11.12916,-0.38881 -10.16377,3.45764 0.37611,1.49852 1.14668,2.08272 3.55987,2.6989 7.22618,1.84511 8.52781,2.98143 8.52781,7.4448 0,4.67335 -5.31912,7.08538 -12.167075,5.51733 z m 23.941195,0.1144 c -4.70786,-1.11169 -7.41577,-5.10688 -7.41577,-10.94104 0,-5.20538 1.64473,-8.29264 5.38161,-10.10164 1.68706,-0.81669 3.95531,-1.4849 5.04055,-1.4849 2.85211,0 7.01125,1.91708 7.01125,3.2317 0,1.38401 -0.0649,1.38504 -2.64093,0.0415 -2.66098,-1.38779 -4.89229,-1.37913 -7.86292,0.0305 -2.97549,1.41196 -4.02399,3.68001 -4.02399,8.70442 0,3.31381 0.33246,4.32161 2.0655,6.26122 1.75174,1.96053 2.57063,2.3117 5.39067,2.3117 1.89831,0 4.12901,-0.52669 5.19842,-1.2274 1.79681,-1.17731 1.87325,-1.16847 1.87325,0.21658 0,2.45996 -5.38794,4.05052 -10.01764,2.95728 z m 65.56391,-0.04 c -4.7922,-1.42563 -6.87799,-4.90409 -6.87799,-11.47041 0,-3.21212 0.40433,-4.73747 1.8004,-6.79196 4.01891,-5.91437 13.50344,-5.36569 16.78013,0.97073 1.73667,3.35836 1.55508,10.1301 -0.3545,13.21988 -2.17595,3.52075 -7.17302,5.31373 -11.34804,4.07173 z m 5.38436,-2.22737 c 6.74946,-2.35287 6.20379,-16.21469 -0.69796,-17.73057 -5.149,-1.13091 -8.8191,2.77243 -8.76834,9.32559 0.031,4.00142 1.53402,6.74768 4.5379,8.29143 2.1442,1.10195 2.09626,1.10084 4.9284,0.11355 z m -135.022636,-8.63798 0,-10.89588 5.367469,0 c 6.971594,0 8.79718,1.26379 8.79718,6.08998 0,4.53552 -1.766877,6.20864 -7.142449,6.76346 l -4.116631,0.42487 0,4.25672 c 0,3.77247 -0.165275,4.25674 -1.452785,4.25674 -1.388216,0 -1.452784,-0.48427 -1.452784,-10.89589 z m 10.670112,-1.88108 c 2.475154,-3.38497 0.148838,-6.83563 -4.60836,-6.83563 l -3.156183,0 0,4.45282 0,4.45283 3.40619,-0.38392 c 2.091807,-0.23578 3.77361,-0.88641 4.358353,-1.6861 z m 8.216086,1.88108 0,-10.89588 6.900727,0 c 5.649719,0 6.900726,0.19752 6.900726,1.08959 0,0.87167 -1.089588,1.08958 -5.447942,1.08958 l -5.447942,0 0,3.26877 0,3.26876 5.084746,0 c 4.035516,0 5.084746,0.22484 5.084746,1.08959 0,0.86476 -1.04923,1.08959 -5.084746,1.08959 l -5.084746,0 0,4.35835 0,4.35836 5.447942,0 c 4.358354,0 5.447942,0.21792 5.447942,1.08959 0,0.89206 -1.251007,1.08959 -6.900726,1.08959 l -6.900727,0 0,-10.89589 z m 61.456588,0.6584 c 2.18424,-5.67896 4.14223,-10.60189 4.3511,-10.93984 0.20886,-0.33794 1.09593,-0.61065 1.97126,-0.60601 1.38299,0.007 2.13092,1.4405 5.70848,10.93857 3.79049,10.06334 3.99695,10.91236 2.60346,10.70586 -0.9893,-0.14661 -1.8087,-1.10485 -2.36579,-2.76666 l -0.85229,-2.54238 -5.31833,0 -5.31832,0 -0.85229,2.54238 c -0.55957,1.66918 -1.37543,2.61984 -2.37546,2.76792 -1.40685,0.20832 -1.21989,-0.56297 2.44818,-10.09984 z m 8.42862,-3.20077 c -1.07767,-2.99637 -2.12467,-5.44636 -2.32666,-5.44442 -0.202,0.002 -1.23727,2.45351 -2.30062,5.44794 l -1.93335,5.44442 4.26002,0 4.26002,0 -1.95941,-5.44794 z m 11.47072,2.54237 0,-10.89588 5.10808,0 c 8.9651,0 13.04344,3.24242 13.04901,10.37442 0.007,7.97516 -3.94148,11.3711 -13.25394,11.40139 l -4.90315,0.016 0,-10.89589 z m 10.80956,7.91156 c 2.95282,-1.02936 4.44468,-3.93535 4.44468,-8.65775 0,-3.14738 -0.32873,-4.05264 -2.1233,-5.84721 -1.83917,-1.83917 -2.6654,-2.12331 -6.17434,-2.12331 l -4.05103,0 0,8.71671 0,8.71671 2.79718,0 c 1.53844,0 3.83651,-0.36232 5.10681,-0.80515 z"
       id="path5013"
       inkscape:connector-curvature="0" />
  </g>
</svg>
