<?xml version="1.0" encoding="UTF-8" standalone="no"?>
<!-- Created with Inkscape (http://www.inkscape.org/) -->

<svg
   xmlns:dc="http://purl.org/dc/elements/1.1/"
   xmlns:cc="http://creativecommons.org/ns#"
   xmlns:rdf="http://www.w3.org/1999/02/22-rdf-syntax-ns#"
   xmlns:svg="http://www.w3.org/2000/svg"
   xmlns="http://www.w3.org/2000/svg"
   xmlns:sodipodi="http://sodipodi.sourceforge.net/DTD/sodipodi-0.dtd"
   xmlns:inkscape="http://www.inkscape.org/namespaces/inkscape"
   id="svg4264"
   version="1.1"
   inkscape:version="0.91 r13725"
   width="100"
   height="100"
   viewBox="0 0 100 100"
   sodipodi:docname="lacteo50.svg">
  <metadata
     id="metadata4270">
    <rdf:RDF>
      <cc:Work
         rdf:about="">
        <dc:format>image/svg+xml</dc:format>
        <dc:type
           rdf:resource="http://purl.org/dc/dcmitype/StillImage" />
        <dc:title />
      </cc:Work>
    </rdf:RDF>
  </metadata>
  <defs
     id="defs4268">
    <clipPath
       clipPathUnits="userSpaceOnUse"
       id="clipPath4294">
      <rect
         style="opacity:0.181;fill:#ff0000;fill-opacity:1;fill-rule:nonzero;stroke:none;stroke-width:3.5999999;stroke-linecap:round;stroke-linejoin:round;stroke-miterlimit:4;stroke-dasharray:none;stroke-opacity:1"
         id="rect4296"
         width="240"
         height="240"
         x="10.938614"
         y="42.653767" />
    </clipPath>
    <clipPath
       clipPathUnits="userSpaceOnUse"
       id="clipPath4238">
      <circle
         style="opacity:0.24299999;fill:#ff0000;fill-rule:evenodd;stroke:none;stroke-width:1px;stroke-linecap:butt;stroke-linejoin:miter;stroke-opacity:1"
         id="circle4240"
         cx="130.93861"
         cy="162.65376"
         r="117.6" />
    </clipPath>
  </defs>
  <sodipodi:namedview
     pagecolor="#ffffff"
     bordercolor="#666666"
     borderopacity="1"
     objecttolerance="10"
     gridtolerance="10"
     guidetolerance="10"
     inkscape:pageopacity="0"
     inkscape:pageshadow="2"
     inkscape:window-width="1920"
     inkscape:window-height="1017"
     id="namedview4266"
     showgrid="false"
     fit-margin-top="0"
     fit-margin-left="0"
     fit-margin-right="0"
     fit-margin-bottom="0"
     inkscape:zoom="1.518912"
     inkscape:cx="91.734794"
     inkscape:cy="100.63524"
     inkscape:window-x="-8"
     inkscape:window-y="-8"
     inkscape:window-maximized="1"
     inkscape:current-layer="svg4264" />
  <g
     id="g4274"
     transform="matrix(0.41666667,0,0,0.41666667,-4.5577562,-17.772403)"
     clip-path="url(#clipPath4238)">
    <path
       style="fill:#fefefe"
       d="M 0,185.95642 0,0 l 131.1138,0 131.1138,0 0,185.95642 0,185.95642 -131.1138,0 -131.1138,0 0,-185.95642 z"
       id="path4290"
       inkscape:connector-curvature="0" />
    <path
       style="fill:#c8b4ac"
       d="m 105.37851,323.42503 c -3.60864,-1.84009 -5.32367,-4.58523 -5.700032,-9.12372 -0.670344,-8.0835 3.584592,-13.11689 11.096342,-13.12643 4.5768,-0.006 6.90072,1.20283 6.90072,3.58898 0,1.75118 -0.0552,1.77102 -1.78086,0.6403 -0.99623,-0.65276 -3.28259,-1.16687 -5.1893,-1.16687 -2.70414,0 -3.7996,0.39117 -5.30146,1.89302 -1.64519,1.64519 -1.89303,2.50136 -1.89303,6.53955 0,3.91025 0.27739,4.94179 1.75056,6.5099 2.47369,2.63312 5.89833,3.11245 9.5013,1.32984 l 2.91279,-1.44113 0,1.76192 c 0,3.43966 -7.52575,5.02758 -12.29703,2.59464 z m 59.80037,0.27361 c -5.34678,-2.42137 -7.59435,-10.30229 -4.76334,-16.70226 1.24381,-2.81184 2.11367,-3.68663 4.88475,-4.91241 5.5583,-2.4587 10.76214,-0.70179 13.43405,4.53559 2.73902,5.36893 1.31198,12.91562 -3.04603,16.10845 -2.47024,1.80977 -7.60855,2.28433 -10.50943,0.97063 z m 7.67805,-2.98382 c 4.11685,-2.12891 4.9004,-11.08428 1.28605,-14.69862 -2.48365,-2.48365 -6.58654,-2.47425 -9.08161,0.0208 -3.61249,3.6125 -2.67869,12.86524 1.50222,14.88523 2.25153,1.08781 3.89326,1.03369 6.29334,-0.20743 z m 12.91789,3.13825 c -1.3883,-0.50705 -1.99758,-1.2389 -1.99758,-2.39943 0,-1.61816 0.0843,-1.63976 2.72397,-0.69774 3.78801,1.35183 6.27837,1.26245 8.20095,-0.29435 1.26326,-1.02293 1.53187,-1.77205 1.16275,-3.24274 -0.3771,-1.50249 -1.14029,-2.07782 -3.55987,-2.68361 -5.13706,-1.28617 -7.73236,-2.74809 -8.20226,-4.62028 -1.28656,-5.12609 1.74752,-8.84721 7.17324,-8.79756 4.70926,0.0431 7.02906,0.87755 7.02906,2.52844 0,1.65487 -0.20544,1.69527 -3.62869,0.7135 -1.73059,-0.49633 -3.27769,-0.47854 -4.89835,0.0564 -1.9449,0.64188 -2.36884,1.1562 -2.36884,2.87388 0,1.96074 0.31766,2.18669 5.05992,3.59899 3.18053,0.9472 5.47385,2.09787 6.17434,3.09796 1.29958,1.85541 1.44823,5.0979 0.32955,7.18818 -1.60584,3.00053 -8.49074,4.39775 -13.19819,2.67844 z m -123.305087,-11.1412 0,-11.25908 1.815981,0 1.81598,0 0,9.8063 0,9.80629 5.447942,0 c 4.963678,0 5.447942,0.12914 5.447942,1.45279 0,1.35593 -0.484264,1.45278 -7.263923,1.45278 l -7.263922,0 0,-11.25908 z m 15.430627,10.35109 c 0.182506,-0.49939 2.097014,-5.56552 4.254472,-11.25805 3.691845,-9.74108 4.036445,-10.35011 5.856726,-10.35109 1.734305,-7.2e-4 2.139189,0.54291 3.919969,5.26531 1.09224,2.89649 2.918637,7.64471 4.058658,10.5516 2.507659,6.39416 2.524642,6.70022 0.371768,6.70022 -1.355157,0 -1.878,-0.59076 -2.57153,-2.90557 l -0.870531,-2.90557 -4.75083,0 -4.750823,0 -1.141344,2.90557 c -0.899927,2.29101 -1.518567,2.90557 -2.924847,2.90557 -1.119516,0 -1.659974,-0.33804 -1.451688,-0.90799 z m 13.314624,-9.0799 c -0.224593,-0.69916 -1.036859,-2.90557 -1.805048,-4.90315 -1.163688,-3.02603 -1.486453,-3.38959 -1.934688,-2.17918 -0.295895,0.79903 -1.135263,3.00545 -1.865266,4.90315 l -1.327286,3.45036 3.670315,0 c 3.166831,0 3.614295,-0.17437 3.261973,-1.27118 z m 35.903656,0.18159 0,-9.80629 -3.99515,0 c -3.5109,0 -3.99516,-0.17609 -3.99516,-1.45279 0,-1.38103 0.48426,-1.45278 9.80629,-1.45278 9.32203,0 9.8063,0.0718 9.8063,1.45278 0,1.2767 -0.48427,1.45279 -3.99516,1.45279 l -3.99516,0 0,9.80629 0,9.8063 -1.81598,0 -1.81598,0 0,-9.8063 z m 13.80146,-1.45278 0,-11.25908 7.26392,0 c 6.77966,0 7.26392,0.0969 7.26392,1.45278 0,1.32365 -0.48426,1.45279 -5.44794,1.45279 l -5.44794,0 0,2.87375 0,2.87374 5.26634,0.21342 c 4.71094,0.19091 5.26634,0.36664 5.26634,1.66621 0,1.29956 -0.5554,1.47529 -5.26634,1.6662 l -5.26634,0.21343 0,3.56958 0,3.56958 5.62166,0.21216 c 4.67609,0.17646 5.66249,0.42596 5.8644,1.48333 0.2188,1.14582 -0.51479,1.27119 -7.43765,1.27119 l -7.68037,0 0,-11.25908 z M 119.8909,277.41919 C 80.776401,273.65256 45.752039,249.60388 27.97795,214.30925 11.099473,180.79306 12.108776,138.80816 30.571864,106.40791 48.502365,74.942282 79.168488,53.992308 115.13317,48.638724 c 7.46974,-1.11192 24.49152,-1.11192 31.96126,0 25.96753,3.865441 48.61721,15.409945 66.52266,33.906488 21.47072,22.179528 32.61798,49.633798 32.62696,80.356078 0.0132,45.19106 -26.07826,85.77395 -67.24067,104.58674 -12.56077,5.74075 -23.40612,8.60494 -37.72009,9.96165 -8.87688,0.84137 -12.39052,0.83636 -21.39239,-0.0305 z m 41.00498,-44.06448 c 3.94949,-2.05588 7.5048,-5.98487 11.5968,-12.81569 6.99425,-11.67555 8.59226,-17.82459 8.60983,-33.12982 0.0121,-10.52075 -1.16318,-19.70111 -3.61039,-28.20199 -1.91435,-6.64989 -7.13693,-16.95418 -11.71318,-23.11038 -5.36415,-7.2161 -6.17104,-10.92786 -4.15974,-19.13514 1.53141,-6.24906 2.72748,-7.8352 8.12869,-10.77971 6.28481,-3.4262 6.89666,-4.05956 7.27881,-7.5347 0.29947,-2.723244 0.0776,-3.3789 -1.71916,-5.081252 -1.13465,-1.075009 -3.63974,-2.375034 -5.56687,-2.888949 -3.187,-0.849879 -4.17241,-0.762922 -10.89589,0.961497 -7.65685,1.963816 -14.77526,4.55867 -28.45737,10.373514 -7.38591,3.13898 -8.33342,3.36741 -12.52625,3.01983 -13.62663,-1.12962 -6.68765,-6.445272 9.65828,-7.398792 13.16676,-0.768066 13.40058,-1.816054 0.32559,-1.45933 -11.84846,0.323267 -18.96525,1.742557 -22.82146,4.551252 -2.36173,1.72019 -2.5238,6.29524 -0.3724,10.51233 0.82692,1.62088 1.34699,3.35486 1.15572,3.8533 -0.19127,0.49844 -1.78829,1.30957 -3.54894,1.80252 -7.277363,2.03754 -13.719205,7.57107 -17.491258,15.02496 -2.182809,4.3134 -4.552119,18.49947 -3.790083,22.69277 1.671334,9.19693 5.526254,19.20973 10.529848,27.35033 2.940733,4.78444 3.142787,5.45952 3.421009,11.43021 0.445213,9.55426 3.826155,19.48266 9.465114,27.79497 5.31039,7.82799 8.15454,10.98632 10.88461,12.08693 3.16025,1.27404 14.54326,1.96208 29.27487,1.7695 11.99552,-0.15681 13.75019,-0.33805 16.34382,-1.68816 z m -56.10707,-58.90617 c -1.11793,-0.69383 -1.27226,-2.20378 -0.63455,-6.20828 0.90389,-5.67594 5.22977,-17.26293 9.59444,-25.69895 l 4.0333,-7.79554 -0.53249,-7.99032 c -0.57546,-8.63524 -0.57748,-10.4977 -0.012,-11.06317 0.20145,-0.20145 1.82106,-0.53025 3.59913,-0.73067 4.58268,-0.51653 5.08039,0.69141 4.69848,11.40316 -0.33259,9.32827 0.0981,8.11331 -9.19272,25.93017 -1.9082,3.65931 -4.7323,10.10136 -6.27578,14.31568 -2.72187,7.4318 -3.66807,8.83697 -5.2778,7.83792 z M 92.388704,168.7046 c -4.966315,-10.78722 -5.81801,-22.30087 -2.216485,-29.96368 2.369347,-5.04115 7.729903,-10.60181 13.271931,-13.76735 l 4.2916,-2.45132 1.33794,1.65228 c 2.21464,2.73497 1.82794,9.16479 -0.8383,13.93865 -6.36115,11.3895 -11.038166,23.64229 -12.017996,31.4846 -0.275557,2.20548 -0.741836,4.00997 -1.03617,4.00997 -0.294341,0 -1.550971,-2.20642 -2.79252,-4.90315 z"
       id="path4288"
       inkscape:connector-curvature="0" />
    <path
       style="fill:#ac9d97"
       d="m 105.48394,323.29292 c -7.115038,-3.32025 -8.044573,-14.49821 -1.65289,-19.87647 1.90277,-1.60107 3.05479,-1.96366 6.23893,-1.96366 4.92812,0 7.60556,1.15969 7.60556,3.29423 l 0,1.60825 -2.91279,-1.44113 c -6.00908,-2.97307 -11.61505,0.62559 -11.61505,7.45609 0,1.94812 0.39051,4.39914 0.86781,5.44668 1.65923,3.64161 6.92211,5.01752 11.0191,2.8808 2.62852,-1.37087 2.64093,-1.36926 2.64093,0.34212 0,3.16262 -7.33691,4.51853 -12.1916,2.25309 z m 61.06793,0.92576 c -2.53571,-0.53908 -5.7962,-4.05649 -6.76854,-7.30188 -1.43663,-4.79504 -0.37671,-9.42411 2.91051,-12.71133 2.48197,-2.48197 3.1251,-2.75268 6.53962,-2.75268 2.28432,0 4.63015,0.49809 5.91202,1.25532 2.65999,1.57129 5.00479,6.30032 4.98384,10.0515 -0.02,3.58773 -2.23845,8.57241 -4.46313,10.02841 -1.86632,1.22147 -6.60187,1.9648 -9.11432,1.43066 z m 6.36972,-3.17483 c 3.21027,-1.71809 4.70465,-9.0898 2.72391,-13.43702 -0.87659,-1.92391 -3.95321,-3.97486 -5.96266,-3.97486 -2.24474,0 -4.75762,1.72958 -5.84638,4.02399 -2.14811,4.5268 -0.94252,11.44764 2.32575,13.35123 1.65531,0.96413 4.99257,0.98223 6.75938,0.0367 z m 15.5772,3.29649 c -0.39952,-0.13328 -1.62531,-0.44057 -2.72397,-0.68289 -1.51025,-0.33309 -1.99758,-0.87117 -1.99758,-2.20565 0,-1.73219 0.0469,-1.74546 2.51904,-0.71255 5.17501,2.16225 10.12076,0.53172 9.6895,-3.19447 -0.19223,-1.66094 -0.84086,-2.12814 -4.69263,-3.38013 -2.45827,-0.79903 -5.155,-2.07547 -5.99274,-2.83655 -2.15088,-1.95402 -2.02724,-5.80532 0.25979,-8.09234 1.4944,-1.4944 2.48408,-1.78297 6.11493,-1.78297 5.26817,0 6.62995,0.46356 6.62995,2.25689 0,1.57951 -0.56,1.67855 -3.39551,0.60049 -2.70115,-1.02697 -6.56944,-0.23849 -7.5171,1.53223 -1.29442,2.41866 0.27861,4.12767 4.63091,5.0312 6.4205,1.33289 9.03067,5.13234 6.77517,9.86218 -0.85477,1.79245 -1.87228,2.62177 -3.91154,3.18806 -2.70465,0.75107 -4.947,0.89727 -6.38822,0.4165 z m -126.029057,-11.62847 0,-11.25908 1.815981,0 1.81598,0 0,9.77447 0,9.77447 5.258641,0.21343 c 4.32949,0.17571 5.301497,0.43803 5.501204,1.4846 0.218019,1.14258 -0.497731,1.27119 -7.074622,1.27119 l -7.317184,0 0,-11.25908 z m 15.262758,11.07748 c 0.0044,-0.0999 1.891205,-5.08474 4.192264,-11.07748 3.77445,-9.82993 4.364832,-10.91713 6.034743,-11.11308 1.760012,-0.20652 2.053838,0.32036 5.977227,10.71818 2.269424,6.01445 4.126228,11.09706 4.126228,11.29468 0,0.19761 -0.656397,0.3593 -1.458668,0.3593 -1.023749,0 -1.805296,-0.86632 -2.621245,-2.90557 l -1.162576,-2.90557 -4.890894,0 -4.890893,0 -0.87053,2.90557 c -0.709003,2.36644 -1.202078,2.90557 -2.657354,2.90557 -0.98275,0 -1.782988,-0.0817 -1.778302,-0.1816 z m 13.613259,-9.4431 c -0.184315,-0.49939 -0.900153,-2.62662 -1.590756,-4.72718 -0.690603,-2.10056 -1.524806,-3.65284 -1.853789,-3.44952 -0.328983,0.20333 -1.084482,1.75853 -1.678896,3.456 -0.594414,1.69747 -1.313731,3.65835 -1.598492,4.35751 -0.453857,1.11431 -0.05041,1.27118 3.269644,1.27118 2.724378,0 3.693335,-0.25484 3.452289,-0.90799 z m 35.77289,-0.1816 0,-9.80629 -3.99515,0 c -3.5109,0 -3.99516,-0.17609 -3.99516,-1.45279 0,-1.37828 0.48426,-1.45278 9.4431,-1.45278 8.95883,0 9.4431,0.0745 9.4431,1.45278 0,1.25908 -0.48427,1.45279 -3.63196,1.45279 l -3.63197,0 0,9.80629 0,9.8063 -1.81598,0 -1.81598,0 0,-9.8063 z m 13.80146,-1.45278 0,-11.25908 7.26392,0 c 6.77966,0 7.26392,0.0969 7.26392,1.45278 0,1.32365 -0.48426,1.45279 -5.44794,1.45279 l -5.44794,0 0,3.26876 0,3.26877 5.08474,0 c 4.60048,0 5.08475,0.13836 5.08475,1.45278 0,1.31443 -0.48427,1.45279 -5.08475,1.45279 l -5.08474,0 0,3.63196 0,3.63196 5.44794,0 c 4.96368,0 5.44794,0.12914 5.44794,1.45279 0,1.35593 -0.48426,1.45278 -7.26392,1.45278 l -7.26392,0 0,-11.25908 z M 125.66586,277.71409 C 79.619861,275.54785 39.138265,245.80018 23.040229,202.30025 15.450969,181.79263 14.027377,158.62795 19.02257,136.92494 27.698623,99.229404 54.700441,68.593107 91.434268,54.766532 103.59671,50.1886 116.56015,47.967254 131.1138,47.967254 c 14.55365,0 27.51709,2.221346 39.67953,6.799278 55.70238,20.966319 86.34047,79.308788 71.75428,136.637828 -13.36049,52.51158 -62.58931,88.86393 -116.88175,86.30973 z m 36.42465,-44.70953 c 4.17165,-2.45235 6.17857,-4.80561 10.86527,-12.74038 6.59003,-11.15715 8.64854,-18.90497 8.63274,-32.49178 -0.009,-7.59023 -1.8707,-22.04533 -3.6489,-28.3293 -1.70099,-6.01104 -7.52764,-17.51808 -11.91993,-23.54061 -5.43143,-7.44736 -6.08902,-10.2805 -4.26879,-18.39138 1.50104,-6.68862 2.29625,-7.87153 6.96597,-10.36228 7.45105,-3.97426 8.52284,-5.10734 8.52284,-9.010257 0,-3.900951 -0.93907,-5.139225 -5.2696,-6.948639 -6.48567,-2.709886 -15.51487,-0.406555 -42.51376,10.845186 l -8.19498,3.41524 -5.00552,-0.84429 c -2.81904,-0.47549 -5.16727,-1.26585 -5.37584,-1.80936 -0.73162,-1.90658 6.11087,-3.953195 16.00375,-4.786781 13.97761,-1.177765 14.28874,-2.156651 0.59808,-1.881625 -12.75115,0.256155 -18.63858,1.442238 -22.51816,4.536526 -1.83854,1.46638 -2.16835,2.22208 -2.10991,4.83444 0.0381,1.70301 0.77357,4.47257 1.63438,6.1546 0.86081,1.68203 1.56512,3.18295 1.56512,3.33538 0,0.15244 -1.36762,0.68691 -3.03916,1.18771 -7.725394,2.31459 -14.790794,8.22392 -18.45298,15.43363 -1.902189,3.74482 -3.931881,13.94513 -3.931075,19.75575 7.26e-4,7.55839 6.701804,25.86258 12.437782,33.97582 1.011436,1.43062 1.364201,3.21115 1.367208,6.90073 0.0044,5.32182 0.448852,7.50088 3.387407,16.60516 2.13961,6.629 10.454648,19.5428 14.831348,23.03405 3.57543,2.85209 8.28011,3.37587 28.99269,3.22782 l 17.07022,-0.12202 3.3738,-1.98334 z m -57.96517,-63.0543 c 0.65993,-6.31386 4.17373,-16.26554 9.32036,-26.39679 l 4.3818,-8.62571 -0.51647,-9.28557 c -0.49374,-8.87686 -0.45123,-9.32049 0.96585,-10.0789 0.81528,-0.43632 2.49254,-0.79331 3.72724,-0.79331 3.23941,0 3.88776,2.25433 3.44705,11.98547 -0.39189,8.6532 -1.60704,12.40263 -6.55435,20.22405 -2.50686,3.96319 -6.37228,12.50451 -9.74962,21.54351 -1.66851,4.46554 -2.34737,5.4924 -3.76461,5.6945 -1.70372,0.24297 -1.72213,0.18049 -1.25725,-4.26725 z M 92.386866,168.7046 c -2.531862,-5.49491 -4.493405,-13.7819 -4.493405,-18.98344 0,-4.23662 1.743502,-10.32267 3.957836,-13.81564 3.365462,-5.3088 12.529783,-12.41883 16.006993,-12.41883 1.51101,0 2.55333,2.93433 2.55333,7.1881 0,3.48582 -0.27264,4.1463 -6.04348,14.64051 -3.23533,5.88342 -7.540468,18.55953 -8.195165,24.12996 -0.26907,2.28937 -0.722702,4.16249 -1.008066,4.16249 -0.28537,0 -1.535491,-2.20642 -2.778043,-4.90315 z"
       id="path4286"
       inkscape:connector-curvature="0" />
    <path
       style="fill:#a78678"
       d="m 107.06693,323.93462 c -7.446127,-2.23485 -9.927476,-13.30642 -4.34697,-19.3958 2.05821,-2.24591 2.90472,-2.628 6.47872,-2.92439 5.14877,-0.42698 8.47686,0.79677 8.47686,3.11695 l 0,1.64955 -2.69596,-1.37448 c -1.48277,-0.75597 -3.46027,-1.37448 -4.39442,-1.37448 -2.71736,0 -5.70545,1.93057 -6.6984,4.32776 -1.32281,3.19356 -0.6285,9.90708 1.21526,11.75086 2.03219,2.03218 6.75033,2.55598 9.7125,1.07825 2.93897,-1.46615 2.86102,-1.47417 2.86102,0.29452 0,2.37963 -6.42579,4.10668 -10.60861,2.85126 z m 58.94151,-0.3272 c -3.37226,-1.19972 -5.1618,-3.26116 -6.2607,-7.21194 -1.2951,-4.65614 -0.2457,-8.99821 2.9461,-12.19001 2.52856,-2.52857 3.08285,-2.75268 6.80802,-2.75268 3.49418,0 4.4082,0.30981 6.60534,2.23894 3.93516,3.45511 5.03978,9.02961 2.86587,14.46275 -2.05867,5.14512 -7.45272,7.41387 -12.96463,5.45294 z m 8.03362,-3.50855 c 1.59548,-1.37237 2.03272,-2.47195 2.30934,-5.80747 0.20323,-2.45068 -0.0302,-5.01114 -0.57715,-6.33167 -0.91239,-2.2027 -3.93794,-4.32776 -6.16166,-4.32776 -2.07266,0 -5.1438,2.02346 -6.03291,3.97486 -1.93617,4.24941 -0.52095,11.59275 2.58253,13.40036 2.22766,1.2975 5.79328,0.88648 7.87985,-0.90832 z m 12.45915,3.76171 c -1.99622,-0.55721 -2.72397,-1.15183 -2.72397,-2.22569 0,-1.19575 0.30068,-1.36574 1.63438,-0.92398 3.71574,1.23078 8.28056,1.23164 9.51041,10e-4 2.97213,-2.97212 0.71176,-6.0358 -5.29874,-7.18187 -5.663,-1.0798 -7.80485,-6.70009 -3.924,-10.29674 1.52266,-1.41115 2.69243,-1.77923 5.62954,-1.77138 5.18437,0.0139 6.97625,0.61278 6.97625,2.3317 0,1.06389 -0.32709,1.32026 -1.23834,0.97058 -0.68109,-0.26135 -2.60328,-0.66228 -4.27152,-0.89094 -2.46843,-0.33833 -3.31984,-0.12908 -4.5728,1.12387 -2.92997,2.92998 -1.92074,4.36652 4.32527,6.15661 4.86635,1.39468 6.77434,3.28118 6.77434,6.69803 0,5.08674 -6.01806,7.90688 -12.82082,6.00803 z m -124.031477,-11.19923 0,-11.3096 1.634383,0.23212 c 1.588705,0.22563 1.640041,0.50023 1.836845,9.82541 l 0.202463,9.5933 5.237775,0.213 c 4.309803,0.17526 5.280749,0.43822 5.48034,1.48418 0.218019,1.14258 -0.497731,1.27119 -7.074622,1.27119 l -7.317184,0 0,-11.3096 z m 17.164641,6.40645 c 6.357342,-16.89213 6.525298,-17.24383 8.340298,-17.46484 1.749581,-0.21305 2.944605,2.37521 9.937823,21.52392 0.244983,0.67081 -0.164135,0.89585 -1.320595,0.72639 -1.169877,-0.17142 -1.932022,-1.01278 -2.52539,-2.78789 l -0.849857,-2.54237 -5.165506,-0.21265 -5.165514,-0.21264 -0.879828,2.93662 c -0.696145,2.32351 -1.228169,2.93661 -2.548278,2.93661 l -1.66845,0 1.845297,-4.90315 z m 11.878991,-3.99515 c -0.0065,-0.4994 -0.795066,-3.03269 -1.752088,-5.62954 -1.400578,-3.80045 -1.845762,-4.43814 -2.282026,-3.26877 -0.298097,0.79903 -1.144039,3.01755 -1.879874,4.93004 -0.735828,1.91249 -1.337877,3.79203 -1.337877,4.17675 0,0.38473 1.634383,0.69951 3.631961,0.69951 2.427734,0 3.627967,-0.30106 3.619904,-0.90799 z m 35.605275,-0.908 0,-9.80629 -3.99515,0 c -3.5109,0 -3.99516,-0.17609 -3.99516,-1.45279 0,-1.37828 0.48426,-1.45278 9.4431,-1.45278 8.95883,0 9.4431,0.0745 9.4431,1.45278 0,1.2767 -0.48427,1.45279 -3.99516,1.45279 l -3.99516,0 0,9.80629 c 0,9.32204 -0.0718,9.8063 -1.45278,9.8063 -1.38104,0 -1.45279,-0.48426 -1.45279,-9.8063 z m 13.80146,-1.45278 0,-11.25908 7.26392,0 c 6.77966,0 7.26392,0.0969 7.26392,1.45278 0,1.32365 -0.48426,1.45279 -5.44794,1.45279 l -5.44794,0 0,3.26876 0,3.26877 5.08474,0 c 4.03552,0 5.08475,0.22483 5.08475,1.08959 0,0.86475 -1.04923,1.08959 -5.08475,1.08959 l -5.08474,0 0,3.99515 0,3.99516 5.44794,0 c 4.96368,0 5.44794,0.12914 5.44794,1.45279 0,1.35593 -0.48426,1.45278 -7.26392,1.45278 l -7.26392,0 0,-11.25908 z M 123.48668,277.39509 C 88.235912,275.31549 54.829224,255.95785 35.258986,226.27119 10.792444,189.15719 9.7427207,141.74814 32.540847,103.5109 39.755627,91.410198 52.664369,77.43497 64.210122,69.225191 76.634912,60.390356 92.654919,53.395993 108.23244,50.004968 c 6.5905,-1.434666 9.70037,-1.660325 22.88136,-1.660325 16.87863,0 23.82318,1.04047 37.046,5.550431 33.38777,11.387703 60.53562,38.530816 71.7833,71.770786 8.20267,24.24114 8.20241,49.85647 -7.3e-4,74.09201 -14.85517,43.88826 -55.25914,74.88182 -101.20145,77.6308 -4.19492,0.25101 -11.05932,0.25389 -15.25424,0.007 z m 38.13559,-43.97792 c 1.59807,-0.86391 3.91984,-2.66173 5.1595,-3.99516 2.56498,-2.759 8.80328,-13.05104 11.07661,-18.27435 3.93884,-9.05008 4.89323,-25.89591 2.32118,-40.97092 -2.28344,-13.38348 -6.49588,-23.84959 -13.30468,-33.05646 -4.89744,-6.62232 -5.3249,-7.44889 -5.80477,-11.22455 -0.52623,-4.14039 1.61039,-13.46687 3.61172,-15.76543 0.88373,-1.01497 3.3353,-2.71045 5.44794,-3.76773 5.95298,-2.9792 7.10994,-4.33985 7.10994,-8.361663 0,-2.938765 -0.32106,-3.71092 -2.20056,-5.292421 -5.75564,-4.843046 -16.97511,-2.781 -41.48987,7.625494 -10.57011,4.48701 -12.82776,4.96561 -18.89657,4.00587 -8.97957,-1.42005 -1.33537,-5.128308 13.05077,-6.331003 5.0718,-0.42401 9.71177,-0.957167 10.31105,-1.184789 1.89321,-0.719107 -2.11779,-1.516642 -7.99032,-1.58878 -10.36254,-0.127286 -22.0045,2.539206 -25.55114,5.852272 -2.00875,1.87645 -2.1857,2.3837 -1.76008,5.0454 0.26026,1.62756 1.11829,4.22369 1.90674,5.76918 0.78844,1.54549 1.43354,2.93469 1.43354,3.08712 0,0.15244 -1.38923,0.68669 -3.08717,1.18723 -7.705249,2.27144 -14.694333,8.10337 -18.345072,15.30775 -2.560198,5.05232 -4.246489,14.8663 -3.743135,21.78454 0.662208,9.10158 5.929917,22.99039 12.122193,31.96126 0.891639,1.29173 1.35231,3.80812 1.59576,8.7167 0.474749,9.57227 3.825189,19.13915 9.830664,28.07057 5.60438,8.33491 9.37327,11.6647 13.8893,12.27115 1.84519,0.24778 3.68177,0.57525 4.08128,0.7277 0.39952,0.15246 8.73487,0.20846 18.52301,0.12447 16.70338,-0.14334 17.97509,-0.24921 20.70217,-1.72345 z m -57.45602,-63.32398 c 0.69057,-6.10381 4.5773,-17.17792 9.39591,-26.77092 2.2462,-4.47179 4.13255,-9.04806 4.19188,-10.16949 0.0593,-1.12144 -0.14179,-5.35425 -0.44695,-9.40625 -0.5355,-7.11038 -0.4995,-7.3969 1.03232,-8.21669 0.87293,-0.46718 2.46233,-0.74756 3.53198,-0.62305 3.18399,0.37062 3.92152,2.77687 3.56231,11.62219 -0.27744,6.8314 -0.5924,8.35598 -2.62245,12.69411 -1.26893,2.71164 -3.24181,6.44929 -4.38419,8.30588 -2.16275,3.51492 -5.7612,11.66664 -9.26748,20.99404 -1.67241,4.44891 -2.36333,5.49293 -3.76777,5.6933 -1.69042,0.24117 -1.71135,0.17073 -1.22556,-4.12312 z m -11.09144,0.0642 c -2.188678,-4.3024 -4.420569,-12.2694 -4.908792,-17.5225 -0.527484,-5.67549 0.933182,-12.38081 3.626332,-16.64703 3.285697,-5.20489 12.66256,-12.50118 16.06594,-12.50118 2.65339,0 3.45047,8.42645 1.22294,12.92855 -0.73172,1.47888 -2.37642,4.43685 -3.65488,6.57327 -1.27847,2.13642 -3.14792,5.8955 -4.15436,8.35351 -2.093902,5.11398 -5.388214,17.22131 -5.388214,19.80288 0,2.55014 -1.22915,2.11803 -2.808966,-0.98751 z"
       id="path4284"
       inkscape:connector-curvature="0" />
    <path
       style="fill:#8f6554"
       d="m 107.86925,323.99273 c -5.42092,-1.2398 -7.955268,-4.83433 -7.976159,-11.31281 -0.0162,-5.01308 1.272459,-7.5771 4.928459,-9.80631 4.46733,-2.7239 12.85399,-1.44909 12.85399,1.95387 l 0,1.6887 -2.36077,-1.43939 c -2.80033,-1.70739 -5.6655,-1.83917 -8.46887,-0.38949 -2.78495,1.44016 -3.95074,4.60628 -3.53628,9.6041 0.27661,3.33552 0.71385,4.4351 2.30933,5.80747 2.33422,2.00781 6.66725,2.26336 9.91349,0.58466 2.03674,-1.05324 2.1431,-1.03432 2.1431,0.38118 0,2.22618 -5.5844,3.8936 -9.80629,2.92802 z m 59.56416,-0.0316 c -6.24253,-1.33718 -9.40939,-7.50222 -7.58189,-14.75989 1.23511,-4.9051 4.06506,-7.22207 9.28191,-7.59942 3.94379,-0.28527 4.43108,-0.14261 6.89134,2.01753 3.07585,2.70062 4.48728,6.87038 3.79373,11.20763 -0.53966,3.37483 -2.78528,7.32014 -4.59107,8.06602 -2.66206,1.09956 -5.70223,1.5162 -7.79402,1.06813 z m 6.63796,-3.88747 c 1.71781,-1.47759 2.03407,-2.36738 2.25913,-6.35594 0.33063,-5.85966 -1.3445,-9.03497 -5.14224,-9.74743 -5.57696,-1.04625 -8.91366,3.09574 -8.31448,10.32111 0.27661,3.33552 0.71386,4.4351 2.30933,5.80747 2.60674,2.24222 6.26428,2.23184 8.88826,-0.0252 z m 12.79303,3.79881 c -2.39487,-0.55343 -3.08716,-1.04704 -3.08716,-2.20116 0,-1.13674 0.29992,-1.36136 1.27118,-0.95202 0.69916,0.29465 2.92835,0.69209 4.95377,0.8832 4.14085,0.39069 6.12372,-0.82966 6.12372,-3.76882 0,-2.18768 -0.96385,-2.88614 -5.95887,-4.31817 -5.47338,-1.56916 -7.53266,-4.6073 -5.93858,-8.7614 1.47032,-3.83162 14.07662,-4.69107 14.07662,-0.95971 0,1.08791 -0.31466,1.31893 -1.27118,0.9333 -3.04351,-1.22701 -6.71914,-1.26281 -8.51979,-0.083 -3.58653,2.34999 -1.58425,5.5593 4.08774,6.55194 5.0939,0.89146 7.96216,4.74826 6.46323,8.69074 -1.37817,3.62487 -6.50831,5.30052 -12.20068,3.98508 z m -124.231989,-10.979 c 0.190543,-10.52638 0.272793,-11.07748 1.653303,-11.07748 1.372548,0 1.463946,0.55163 1.654881,9.98789 l 0.202096,9.98789 5.427444,0 c 4.340135,0 5.427443,0.21828 5.427443,1.08959 0,0.89607 -1.293465,1.08959 -7.282842,1.08959 l -7.282842,0 0.200517,-11.07748 z m 16.881041,6.53753 c 6.81215,-17.93509 6.656411,-17.60699 8.45976,-17.82258 1.608712,-0.19232 2.023402,0.55456 5.646385,10.16949 2.150586,5.70738 4.076136,10.81442 4.279002,11.34897 0.255661,0.67368 -0.145293,0.89657 -1.306699,0.72639 -1.169877,-0.17142 -1.932022,-1.01278 -2.52539,-2.78789 l -0.849857,-2.54237 -5.165506,-0.21265 -5.165514,-0.21264 -0.879828,2.93662 c -0.696145,2.32351 -1.228169,2.93661 -2.548278,2.93661 l -1.66845,0 1.724375,-4.53995 z m 12.011971,-4.45152 c 0,-0.55064 -0.789516,-3.08393 -1.754485,-5.62954 -1.418411,-3.74181 -1.857849,-4.3501 -2.294084,-3.1756 -0.296775,0.79903 -1.141642,3.01755 -1.877477,4.93004 -0.735828,1.91249 -1.337877,3.79203 -1.337877,4.17675 0,0.38473 1.634383,0.69951 3.631961,0.69951 2.601567,0 3.631962,-0.28403 3.631962,-1.00116 z m 35.593217,-0.81483 0,-9.80629 -3.99515,0 c -3.5109,0 -3.99516,-0.17609 -3.99516,-1.45279 0,-1.37828 0.48426,-1.45278 9.4431,-1.45278 8.95883,0 9.4431,0.0745 9.4431,1.45278 0,1.2767 -0.48427,1.45279 -3.99516,1.45279 l -3.99516,0 0,9.80629 c 0,9.32204 -0.0718,9.8063 -1.45278,9.8063 -1.38104,0 -1.45279,-0.48426 -1.45279,-9.8063 z m 13.96413,-1.27118 0.20052,-11.07748 7.08233,-0.2079 c 6.70811,-0.19692 7.08232,-0.12976 7.08232,1.27118 0,1.35638 -0.45197,1.47909 -5.44794,1.47909 l -5.44794,0 0,3.26876 0,3.26877 5.08474,0 c 4.03552,0 5.08475,0.22483 5.08475,1.08959 0,0.86475 -1.04923,1.08959 -5.08475,1.08959 l -5.08474,0 0,4.35835 0,4.35835 5.44794,0 c 4.35835,0 5.44794,0.21792 5.44794,1.08959 0,0.89607 -1.29346,1.08959 -7.28284,1.08959 l -7.28284,0 0.20051,-11.07748 z M 117.31235,277.00631 C 83.513796,271.72452 58.076899,256.77327 38.410497,230.62954 27.916028,216.67861 20.824483,199.80494 17.65126,181.23487 16.263854,173.11561 16.105437,153.46902 17.367189,146.00485 21.743395,120.11642 32.078157,99.573983 49.634168,81.867684 65.794082,65.569435 85.3552,55.066673 108.95884,50.015068 c 6.46461,-1.383545 9.84141,-1.632342 22.15496,-1.632342 16.40314,0 23.38447,1.092531 37.4092,5.854284 36.58306,12.420876 64.7239,43.044893 73.98065,80.50876 2.58482,10.4613 3.27833,16.53679 3.23375,28.32929 -0.0705,18.64079 -3.74647,35.07115 -11.16506,49.90366 -16.21686,32.42352 -44.88484,54.70697 -80.21399,62.34985 -5.67757,1.22825 -10.27799,1.62023 -21.06537,1.79486 -7.5908,0.12288 -14.78209,0.0702 -15.98063,-0.11712 z m 44.54554,-43.62067 c 3.78018,-2.33739 6.81232,-5.73059 10.36577,-11.6001 7.3448,-12.13198 9.5108,-19.97384 9.49505,-34.37634 -0.0221,-20.17787 -5.04137,-36.89652 -15.37431,-51.20985 -5.46358,-7.56823 -6.23102,-10.84866 -4.38521,-18.7446 0.67206,-2.87493 1.6605,-5.92291 2.19652,-6.77328 0.53601,-0.85037 3.15052,-2.72141 5.81002,-4.15787 6.34363,-3.42634 7.60945,-4.88367 7.46164,-8.590501 -0.2025,-5.078129 -4.23106,-7.860458 -11.38122,-7.860458 -5.2932,0 -17.68128,3.811351 -30.93719,9.51823 -11.04241,4.753929 -15.99634,5.809769 -21.06538,4.489739 -7.0319,-1.83119 0.49468,-5.069858 13.79842,-5.93741 9.51967,-0.620796 12.3855,-1.305951 9.76111,-2.333673 -2.07361,-0.812034 -13.20231,-0.762276 -18.15977,0.0812 -11.41899,1.942838 -17.02938,4.970713 -17.01494,9.182793 0.004,1.13813 0.8211,3.8179 1.81598,5.95503 0.99489,2.13713 1.80889,3.96492 1.80889,4.06177 0,0.0968 -1.38923,0.59113 -3.08717,1.0984 -7.879278,2.35395 -15.123609,8.32846 -18.342856,15.12762 -2.300521,4.85878 -4.011589,13.14346 -4.079528,19.75243 -0.08568,8.33375 4.69046,21.96546 11.350787,32.39663 2.119489,3.31946 2.386133,4.35993 2.699259,10.53268 0.628547,12.39061 6.674578,26.1573 15.726098,35.80801 4.41405,4.70626 5.81742,5.03162 23.69951,5.49452 17.41796,0.45089 24.83776,-0.0595 27.83852,-1.91497 z m -57.66945,-60.00643 c -1.28434,-3.34696 3.77117,-19.07462 9.91687,-30.85128 4.21002,-8.06742 4.28,-8.48622 3.26994,-19.5689 l -0.61081,-6.702 2.08994,-0.80735 c 5.61044,-2.16735 7.5313,1.96253 6.29828,13.54135 -0.59333,5.57174 -1.21863,7.82402 -3.26783,11.7704 -1.39376,2.68412 -3.91228,7.54345 -5.59671,10.79851 -1.68444,3.25506 -4.46776,9.62915 -6.18518,14.16465 -3.01397,7.95956 -4.87382,10.36659 -5.9145,7.65462 z M 92.386735,167.95985 C 89.455365,161.57422 88.471938,157.10085 88.43843,150 c -0.04867,-10.31495 4.603111,-18.27303 14.02784,-23.99825 5.14188,-3.12353 6.59584,-3.04559 7.36651,0.39489 0.98765,4.40916 -0.0641,9.02974 -3.2579,14.31243 -4.9733,8.22611 -10.691104,23.89904 -10.691104,29.30511 0,3.6498 -1.202905,2.94315 -3.497041,-2.05433 z"
       id="path4282"
       inkscape:connector-curvature="0" />
    <path
       style="fill:#636363"
       d="m 107.86925,323.99273 c -5.42092,-1.2398 -7.955268,-4.83433 -7.976159,-11.31281 -0.0162,-5.01308 1.272459,-7.5771 4.928459,-9.80631 4.46733,-2.7239 12.85399,-1.44909 12.85399,1.95387 l 0,1.6887 -2.36077,-1.43939 c -2.80033,-1.70739 -5.6655,-1.83917 -8.46887,-0.38949 -2.78495,1.44016 -3.95074,4.60628 -3.53628,9.6041 0.27661,3.33552 0.71385,4.4351 2.30933,5.80747 2.33422,2.00781 6.66725,2.26336 9.91349,0.58466 2.03674,-1.05324 2.1431,-1.03432 2.1431,0.38118 0,2.22618 -5.5844,3.8936 -9.80629,2.92802 z m 59.56416,-0.0316 c -6.24253,-1.33718 -9.40939,-7.50222 -7.58189,-14.75989 1.23511,-4.9051 4.06506,-7.22207 9.28191,-7.59942 3.94379,-0.28527 4.43108,-0.14261 6.89134,2.01753 3.07585,2.70062 4.48728,6.87038 3.79373,11.20763 -0.53966,3.37483 -2.78528,7.32014 -4.59107,8.06602 -2.66206,1.09956 -5.70223,1.5162 -7.79402,1.06813 z m 6.63796,-3.88747 c 1.71781,-1.47759 2.03407,-2.36738 2.25913,-6.35594 0.33063,-5.85966 -1.3445,-9.03497 -5.14224,-9.74743 -5.57696,-1.04625 -8.91366,3.09574 -8.31448,10.32111 0.27661,3.33552 0.71386,4.4351 2.30933,5.80747 2.60674,2.24222 6.26428,2.23184 8.88826,-0.0252 z m 12.79303,3.79881 c -2.39487,-0.55343 -3.08716,-1.04704 -3.08716,-2.20116 0,-1.13674 0.29992,-1.36136 1.27118,-0.95202 0.69916,0.29465 2.92835,0.69209 4.95377,0.8832 4.14085,0.39069 6.12372,-0.82966 6.12372,-3.76882 0,-2.18768 -0.96385,-2.88614 -5.95887,-4.31817 -5.47338,-1.56916 -7.53266,-4.6073 -5.93858,-8.7614 1.47032,-3.83162 14.07662,-4.69107 14.07662,-0.95971 0,1.08791 -0.31466,1.31893 -1.27118,0.9333 -3.04351,-1.22701 -6.71914,-1.26281 -8.51979,-0.083 -3.58653,2.34999 -1.58425,5.5593 4.08774,6.55194 5.0939,0.89146 7.96216,4.74826 6.46323,8.69074 -1.37817,3.62487 -6.50831,5.30052 -12.20068,3.98508 z m -124.231989,-10.979 c 0.190543,-10.52638 0.272793,-11.07748 1.653303,-11.07748 1.372548,0 1.463946,0.55163 1.654881,9.98789 l 0.202096,9.98789 5.427444,0 c 4.340135,0 5.427443,0.21828 5.427443,1.08959 0,0.89607 -1.293465,1.08959 -7.282842,1.08959 l -7.282842,0 0.200517,-11.07748 z m 16.881041,6.53753 c 6.81215,-17.93509 6.656411,-17.60699 8.45976,-17.82258 1.608712,-0.19232 2.023402,0.55456 5.646385,10.16949 2.150586,5.70738 4.076136,10.81442 4.279002,11.34897 0.255661,0.67368 -0.145293,0.89657 -1.306699,0.72639 -1.169877,-0.17142 -1.932022,-1.01278 -2.52539,-2.78789 l -0.849857,-2.54237 -5.165506,-0.21265 -5.165514,-0.21264 -0.879828,2.93662 c -0.696145,2.32351 -1.228169,2.93661 -2.548278,2.93661 l -1.66845,0 1.724375,-4.53995 z m 12.011971,-4.45152 c 0,-0.55064 -0.789516,-3.08393 -1.754485,-5.62954 -1.418411,-3.74181 -1.857849,-4.3501 -2.294084,-3.1756 -0.296775,0.79903 -1.141642,3.01755 -1.877477,4.93004 -0.735828,1.91249 -1.337877,3.79203 -1.337877,4.17675 0,0.38473 1.634383,0.69951 3.631961,0.69951 2.601567,0 3.631962,-0.28403 3.631962,-1.00116 z m 35.593217,-0.81483 0,-9.80629 -3.99515,0 c -3.5109,0 -3.99516,-0.17609 -3.99516,-1.45279 0,-1.37828 0.48426,-1.45278 9.4431,-1.45278 8.95883,0 9.4431,0.0745 9.4431,1.45278 0,1.2767 -0.48427,1.45279 -3.99516,1.45279 l -3.99516,0 0,9.80629 c 0,9.32204 -0.0718,9.8063 -1.45278,9.8063 -1.38104,0 -1.45279,-0.48426 -1.45279,-9.8063 z m 13.96413,-1.27118 0.20052,-11.07748 7.08233,-0.2079 c 6.70811,-0.19692 7.08232,-0.12976 7.08232,1.27118 0,1.35638 -0.45197,1.47909 -5.44794,1.47909 l -5.44794,0 0,3.26876 0,3.26877 5.08474,0 c 4.03552,0 5.08475,0.22483 5.08475,1.08959 0,0.86475 -1.04923,1.08959 -5.08475,1.08959 l -5.08474,0 0,4.35835 0,4.35835 5.44794,0 c 4.35835,0 5.44794,0.21792 5.44794,1.08959 0,0.89607 -1.29346,1.08959 -7.28284,1.08959 l -7.28284,0 0.20051,-11.07748 z M 116.94915,276.74913 C 69.392303,270.2141 31.497163,236.60998 19.606049,190.42856 16.647384,178.93802 15.660837,159.18005 17.424174,146.73124 22.205461,112.97628 42.18819,82.673101 71.564887,64.628524 83.467379,57.317443 98.896764,51.705079 113.68039,49.309212 c 7.48347,-1.21279 27.38335,-1.21279 34.86682,0 14.78363,2.395867 30.21301,8.008231 42.1155,15.319312 15.2651,9.37656 29.69789,23.757245 38.29421,38.155986 11.68905,19.57903 16.75648,37.99439 16.69034,60.65375 -0.0517,17.71156 -2.89724,30.84981 -10.14749,46.8523 -15.13875,33.41373 -45.23024,57.30949 -81.86781,65.01151 -8.2614,1.73672 -28.70583,2.54321 -36.68281,1.44706 z m 42.21986,-42.13283 c 7.87259,-2.19951 19.32574,-19.81674 21.71738,-33.40564 1.90709,-10.83576 0.72524,-29.418 -2.63337,-41.40436 -1.95244,-6.96797 -6.87721,-16.8544 -11.73065,-23.54917 -4.17481,-5.75867 -4.73899,-6.94229 -5.0749,-10.64684 -0.24509,-2.70281 0.0669,-5.98321 0.88761,-9.33207 1.40099,-5.71689 1.88311,-6.25308 9.81589,-10.9169 3.96157,-2.32908 4.81535,-3.18701 5.32776,-5.35371 0.73856,-3.122971 -0.40894,-5.855601 -3.38195,-8.053664 -1.72567,-1.27585 -3.05872,-1.511063 -8.35351,-1.473966 -7.46652,0.0523 -14.40234,2.125293 -32.01954,9.57004 -10.90568,4.60856 -11.3198,4.72017 -16.21424,4.36998 -5.60624,-0.40112 -7.65646,-1.54497 -5.28189,-2.94685 3.04629,-1.798446 7.57307,-2.71086 16.43055,-3.311732 9.44917,-0.641012 12.28146,-1.32977 9.67135,-2.351891 -2.49909,-0.978654 -15.24228,-0.683716 -21.46552,0.496816 -13.29647,2.522296 -16.34237,5.675727 -13.27346,13.742087 2.01456,5.29506 2.04195,5.12642 -0.97978,6.03176 -9.85499,2.95262 -18.343283,11.79593 -20.47101,21.32718 -0.386702,1.73225 -1.051336,5.96156 -1.476973,9.39848 -0.713172,5.75873 -0.629601,6.81294 1.065261,13.43826 1.78917,6.99398 7.448441,19.94462 10.719436,24.5303 1.311378,1.83845 1.70748,3.65668 2.077337,9.53552 0.623252,9.90639 3.74036,18.91203 9.428439,27.23971 8.89224,13.01877 9.13235,13.14635 26.07098,13.85338 14.32603,0.59797 25.24348,0.30327 29.1448,-0.78672 z m -54.79005,-61.26449 c -0.60555,-1.57802 1.37167,-10.5122 3.74101,-16.90399 1.20304,-3.24547 4.05429,-9.61956 6.3361,-14.16465 l 4.14875,-8.2638 -0.80979,-8.30082 c -0.92806,-9.51301 -0.67916,-10.22218 3.58758,-10.22218 3.54362,0 3.81277,0.89404 3.44588,11.44632 -0.29662,8.53124 -0.0574,7.86735 -8.96276,24.87329 -1.7783,3.39589 -4.428,9.4431 -5.88823,13.43826 -3.24164,8.86905 -4.56693,10.78591 -5.59854,8.09757 z m -11.654656,-5.16063 c -4.313295,-9.10982 -5.333237,-20.29563 -2.533816,-27.78863 1.896952,-5.07741 8.299613,-12.09944 13.724312,-15.05193 5.14595,-2.80078 6.01546,-1.96784 5.60118,5.36561 -0.28631,5.06821 -0.59113,5.94506 -4.03547,11.60846 -3.55488,5.84513 -9.521465,21.73215 -9.647792,25.68881 -0.02804,0.8795 -0.294182,2.21866 -0.591341,2.9759 -0.440986,1.12373 -0.90364,0.6094 -2.517073,-2.79822 z"
       id="path4280"
       inkscape:connector-curvature="0" />
    <path
       style="fill:#6c341d"
       d="m 63.196125,312.71187 c 0,-9.42787 0.173881,-11.25908 1.06909,-11.25908 0.879558,0 1.104918,1.77068 1.271186,9.98789 l 0.202097,9.9879 5.266344,0.21342 c 4.028811,0.16327 5.266344,0.46198 5.266344,1.27119 0,0.84773 -1.298071,1.05776 -6.537531,1.05776 l -6.53753,0 0,-11.25908 z m 15.254237,10.595 c 0,-0.36525 1.171911,-3.71573 2.604247,-7.44552 1.43233,-3.72979 3.260652,-8.51628 4.062923,-10.63664 1.194908,-3.15805 1.736077,-3.81484 2.992627,-3.63196 1.56693,0.22804 2.082094,1.3313 7.820804,16.74866 1.983363,5.32841 2.020278,5.62954 0.690094,5.62954 -1.01023,0 -1.650109,-0.81691 -2.275889,-2.90557 l -0.87053,-2.90557 -5.254089,0 -5.25409,0 -1.162576,2.90557 c -0.639421,1.59806 -1.655542,2.90557 -2.258049,2.90557 -0.602513,0 -1.095472,-0.29884 -1.095472,-0.66408 z m 13.614872,-8.23422 c -0.188107,-0.4994 -1.089835,-2.96679 -2.00384,-5.48308 -0.914005,-2.51631 -1.914284,-4.31413 -2.222848,-3.99516 -0.729152,0.75372 -3.576203,8.29844 -3.576683,9.47824 -2.47e-4,0.61847 1.298281,0.90799 4.072511,0.90799 2.956446,0 3.979119,-0.2489 3.73086,-0.90799 z m 12.461066,7.2368 c -3.21682,-2.16545 -4.38794,-4.74065 -4.38794,-9.64878 0,-4.88925 1.72434,-8.17556 5.21323,-9.93557 4.15823,-2.09765 11.05181,-1.36056 12.06911,1.29049 0.65997,1.71986 -0.0395,1.93416 -2.36105,0.72344 -3.12552,-1.62998 -7.12747,-1.40469 -9.3677,0.52732 -3.91074,3.37269 -3.84616,11.91895 0.11359,15.03369 2.28078,1.79406 6.66491,1.96691 9.7269,0.38349 2.00332,-1.03596 2.1431,-1.01987 2.1431,0.2466 0,3.26091 -8.95816,4.2006 -13.14924,1.37932 z m 22.59234,-8.50799 0,-10.16949 -3.63196,0 c -2.74415,0 -3.63196,-0.26635 -3.63196,-1.08959 0,-0.91041 1.49314,-1.08959 9.0799,-1.08959 7.44109,0 9.07991,0.18981 9.07991,1.05163 0,0.75648 -1.07028,1.11324 -3.81356,1.27118 l -3.81356,0.21956 -0.2021,9.9879 c -0.18995,9.38765 -0.28817,9.98789 -1.63438,9.98789 -1.35725,0 -1.43229,-0.53277 -1.43229,-10.16949 z m 14.52785,-1.11685 0,-11.28634 6.66037,0.20886 c 4.39412,0.13779 6.75918,0.50711 6.95077,1.08539 0.20644,0.62309 -1.35181,0.93814 -5.38918,1.08959 l -5.67959,0.21305 -0.2214,3.45037 -0.22139,3.45036 5.48774,0 c 4.39373,0 5.48774,0.21721 5.48774,1.08959 0,0.87231 -1.09361,1.08959 -5.48419,1.08959 l -5.4842,0 0.21786,4.17675 0.21784,4.17676 5.62954,0.21215 c 4.35057,0.16395 5.62954,0.45275 5.62954,1.27118 0,0.85347 -1.3395,1.05904 -6.90073,1.05904 l -6.90072,0 0,-11.28634 z m 22.23841,9.76942 c -2.8723,-2.25935 -4.07892,-5.18648 -4.07589,-9.88769 0.004,-6.96466 3.72263,-11.11696 9.9491,-11.11083 5.83968,0.006 9.76484,4.4836 9.76416,11.13903 -4.9e-4,4.81611 -0.8816,7.04769 -3.72855,9.44324 -3.01266,2.53499 -8.95139,2.74256 -11.90882,0.41625 z m 10.65728,-2.78952 c 5.00281,-5.9455 1.86516,-16.03254 -4.98704,-16.03254 -6.69883,0 -9.75827,10.92133 -4.59814,16.41403 2.48682,2.6471 7.19445,2.45974 9.58518,-0.38149 z m 10.86944,3.55741 c -0.89891,-0.36132 -1.63438,-1.19276 -1.63438,-1.84765 0,-0.8668 0.3458,-1.03572 1.27118,-0.62096 2.20816,0.98971 7.96265,1.20158 9.55078,0.35164 1.0202,-0.546 1.52671,-1.52601 1.52671,-2.95395 0,-2.4769 -1.86932,-3.94143 -5.9409,-4.6544 -3.49039,-0.6112 -5.56968,-2.40822 -6.12737,-5.29558 -0.37691,-1.95139 -0.0902,-2.69183 1.75792,-4.53995 1.80752,-1.80752 2.80305,-2.20828 5.48563,-2.20828 4.12941,0 7.00389,1.06793 7.00389,2.60211 0,0.86163 -0.34711,1.02971 -1.27118,0.61553 -0.69916,-0.31336 -2.7492,-0.70173 -4.55565,-0.86302 -3.97853,-0.35525 -6.26328,1.49363 -5.51753,4.46493 0.37348,1.48804 1.16099,1.95197 4.62605,2.72523 5.32197,1.18765 7.4447,3.2054 7.4447,7.07651 0,4.11156 -2.43389,5.9126 -7.90667,5.85082 -2.24334,-0.0254 -4.81427,-0.34166 -5.71318,-0.70298 z M 116.94915,276.74913 C 69.392303,270.2141 31.497163,236.60998 19.606049,190.42856 16.647384,178.93802 15.660837,159.18005 17.424174,146.73124 22.205461,112.97628 42.18819,82.673101 71.564887,64.628524 83.467379,57.317443 98.896764,51.705079 113.68039,49.309212 c 7.48347,-1.21279 27.38335,-1.21279 34.86682,0 14.78363,2.395867 30.21301,8.008231 42.1155,15.319312 15.2651,9.37656 29.69789,23.757245 38.29421,38.155986 11.68905,19.57903 16.75648,37.99439 16.69034,60.65375 -0.0517,17.71156 -2.89724,30.84981 -10.14749,46.8523 -15.13875,33.41373 -45.23024,57.30949 -81.86781,65.01151 -8.2614,1.73672 -28.70583,2.54321 -36.68281,1.44706 z m 42.21986,-42.13283 c 7.87259,-2.19951 19.32574,-19.81674 21.71738,-33.40564 1.90709,-10.83576 0.72524,-29.418 -2.63337,-41.40436 -1.95244,-6.96797 -6.87721,-16.8544 -11.73065,-23.54917 -4.17481,-5.75867 -4.73899,-6.94229 -5.0749,-10.64684 -0.24509,-2.70281 0.0669,-5.98321 0.88761,-9.33207 1.40099,-5.71689 1.88311,-6.25308 9.81589,-10.9169 3.96157,-2.32908 4.81535,-3.18701 5.32776,-5.35371 0.73856,-3.122971 -0.40894,-5.855601 -3.38195,-8.053664 -1.72567,-1.27585 -3.05872,-1.511063 -8.35351,-1.473966 -7.46652,0.0523 -14.40234,2.125293 -32.01954,9.57004 -10.90568,4.60856 -11.3198,4.72017 -16.21424,4.36998 -5.60624,-0.40112 -7.65646,-1.54497 -5.28189,-2.94685 3.04629,-1.798446 7.57307,-2.71086 16.43055,-3.311732 9.44917,-0.641012 12.28146,-1.32977 9.67135,-2.351891 -2.49909,-0.978654 -15.24228,-0.683716 -21.46552,0.496816 -13.29647,2.522296 -16.34237,5.675727 -13.27346,13.742087 2.01456,5.29506 2.04195,5.12642 -0.97978,6.03176 -9.85499,2.95262 -18.343283,11.79593 -20.47101,21.32718 -0.386702,1.73225 -1.051336,5.96156 -1.476973,9.39848 -0.713172,5.75873 -0.629601,6.81294 1.065261,13.43826 1.78917,6.99398 7.448441,19.94462 10.719436,24.5303 1.311378,1.83845 1.70748,3.65668 2.077337,9.53552 0.623252,9.90639 3.74036,18.91203 9.428439,27.23971 8.89224,13.01877 9.13235,13.14635 26.07098,13.85338 14.32603,0.59797 25.24348,0.30327 29.1448,-0.78672 z m -54.79005,-61.26449 c -0.60555,-1.57802 1.37167,-10.5122 3.74101,-16.90399 1.20304,-3.24547 4.05429,-9.61956 6.3361,-14.16465 l 4.14875,-8.2638 -0.80979,-8.30082 c -0.92806,-9.51301 -0.67916,-10.22218 3.58758,-10.22218 3.54362,0 3.81277,0.89404 3.44588,11.44632 -0.29662,8.53124 -0.0574,7.86735 -8.96276,24.87329 -1.7783,3.39589 -4.428,9.4431 -5.88823,13.43826 -3.24164,8.86905 -4.56693,10.78591 -5.59854,8.09757 z m -11.654656,-5.16063 c -4.313295,-9.10982 -5.333237,-20.29563 -2.533816,-27.78863 1.896952,-5.07741 8.299613,-12.09944 13.724312,-15.05193 5.14595,-2.80078 6.01546,-1.96784 5.60118,5.36561 -0.28631,5.06821 -0.59113,5.94506 -4.03547,11.60846 -3.55488,5.84513 -9.521465,21.73215 -9.647792,25.68881 -0.02804,0.8795 -0.294182,2.21866 -0.591341,2.9759 -0.440986,1.12373 -0.90364,0.6094 -2.517073,-2.79822 z"
       id="path4278"
       inkscape:connector-curvature="0" />
    <path
       style="fill:#050505"
       d="m 63.196125,313.07507 c 0,-9.20097 0.169491,-10.89589 1.089589,-10.89589 0.914716,0 1.089588,1.57385 1.089588,9.8063 l 0,9.80629 5.447942,0 c 4.358353,0 5.447942,0.21792 5.447942,1.08959 0,0.88781 -1.210657,1.08959 -6.537531,1.08959 l -6.53753,0 0,-10.89588 z m 15.254237,10.3865 c 0,-0.33875 1.746589,-5.18415 3.88131,-10.76755 3.399298,-8.89093 4.098487,-10.17802 5.630114,-10.36402 1.598353,-0.19411 1.992269,0.43079 4.578922,7.26393 1.556572,4.11196 3.431078,9.02896 4.165584,10.92666 1.312649,3.39141 1.31132,3.45036 -0.07756,3.45036 -1.021453,0 -1.656618,-0.81303 -2.292044,-2.9339 l -0.879022,-2.9339 -5.443503,0.20993 -5.443511,0.20993 -0.853257,2.54237 c -0.745794,2.22214 -3.267029,4.07134 -3.267029,2.39619 z M 92.251815,315.659 c 0,-0.96923 -3.874061,-10.57425 -4.264983,-10.57425 -0.255588,0 -1.346433,2.45158 -2.424102,5.44794 l -1.959406,5.44795 4.324249,0 c 2.378332,0 4.324242,-0.14475 4.324242,-0.32164 z m 12.565535,6.88857 c -3.19226,-1.94643 -4.57574,-4.96639 -4.5725,-9.98123 0.004,-6.92411 3.83699,-11.11355 10.16677,-11.11355 3.08429,0 7.26392,1.87024 7.26392,3.25035 0,1.03444 -0.20745,1.03803 -2.1431,0.037 -3.06199,-1.58342 -7.44612,-1.41057 -9.7269,0.38349 -2.23423,1.75744 -3.68935,6.46036 -3.05128,9.86162 0.24819,1.32294 1.28449,3.39558 2.30289,4.60589 1.62328,1.92917 2.31648,2.20056 5.62061,2.20056 2.23556,0 4.42578,-0.46005 5.38337,-1.13077 1.5037,-1.05324 1.61441,-1.03319 1.61441,0.29213 0,2.9959 -8.77512,4.08404 -12.85819,1.59444 z m 22.86659,-8.56451 -0.2021,-9.9879 -3.81356,-0.21956 c -2.09746,-0.12075 -3.81356,-0.52935 -3.81356,-0.90799 0,-0.39693 3.84468,-0.68843 9.0799,-0.68843 5.56901,0 9.07991,0.28088 9.07991,0.72639 0,0.39952 -1.79782,0.7264 -3.99516,0.7264 l -3.99516,0 0,10.16949 c 0,8.46862 -0.17881,10.16949 -1.06909,10.16949 -0.87956,0 -1.10491,-1.77068 -1.27118,-9.98789 z m 13.96255,-0.90799 0,-10.89589 6.53753,0 c 7.81437,0 8.84217,1.29574 1.27118,1.60256 l -5.26634,0.21342 -0.2214,3.45037 -0.22139,3.45036 5.48774,0 c 4.39373,0 5.48774,0.21721 5.48774,1.08959 0,0.87167 -1.08959,1.08959 -5.44794,1.08959 l -5.44795,0 0,4.35835 0,4.35835 5.81114,0 c 4.68119,0 5.81114,0.21187 5.81114,1.08959 0,0.89206 -1.25101,1.08959 -6.90073,1.08959 l -6.90072,0 0,-10.89588 z m 23.26636,9.9666 c -3.12481,-1.58117 -5.10656,-5.35881 -5.10656,-9.73416 0,-7.12329 2.73717,-10.85427 8.53341,-11.6317 6.65075,-0.89206 11.07183,3.54252 11.07647,11.11024 0.004,7.1148 -3.55112,11.16349 -9.80358,11.16349 -1.59806,0 -3.71295,-0.40855 -4.69974,-0.90787 z m 8.47543,-2.14464 c 4.24316,-2.02788 4.81772,-11.32577 0.93952,-15.20398 -7.42257,-7.42256 -16.57457,5.7359 -9.68458,13.92419 2.3688,2.81517 4.79079,3.16961 8.74506,1.27979 z m 12.02334,2.36359 c -0.89891,-0.3826 -1.63438,-1.19649 -1.63438,-1.80864 0,-1.32152 0.3415,-1.37009 2.29228,-0.32607 1.92055,1.02785 7.67387,1.01251 8.92253,-0.0238 3.19378,-2.6506 1.07663,-6.15965 -4.61781,-7.65375 -4.57264,-1.19976 -5.67188,-2.10362 -6.28469,-5.16767 -0.90747,-4.53733 4.43872,-7.73355 10.90618,-6.52025 1.45584,0.27311 2.58296,0.9156 2.58296,1.47236 0,0.7633 -0.95865,0.90086 -4.21828,0.60529 -4.73552,-0.42937 -6.6776,0.68026 -6.6776,3.81538 0,2.02149 1.12195,2.71714 6.36741,3.94805 4.3111,1.01165 5.98125,2.76418 5.98125,6.27627 0,4.00086 -2.02537,5.61698 -7.34846,5.86363 -2.55035,0.11817 -5.37248,-0.0982 -6.27139,-0.48078 z"
       id="path4276"
       inkscape:connector-curvature="0" />
  </g>
</svg>
