<?xml version="1.0" encoding="UTF-8" standalone="no"?>
<!-- Created with Inkscape (http://www.inkscape.org/) -->

<svg
   xmlns:dc="http://purl.org/dc/elements/1.1/"
   xmlns:cc="http://creativecommons.org/ns#"
   xmlns:rdf="http://www.w3.org/1999/02/22-rdf-syntax-ns#"
   xmlns:svg="http://www.w3.org/2000/svg"
   xmlns="http://www.w3.org/2000/svg"
   xmlns:sodipodi="http://sodipodi.sourceforge.net/DTD/sodipodi-0.dtd"
   xmlns:inkscape="http://www.inkscape.org/namespaces/inkscape"
   id="svg4136"
   version="1.1"
   inkscape:version="0.91 r13725"
   width="100"
   height="100"
   viewBox="0 0 100 100"
   sodipodi:docname="sesamo50.svg">
  <metadata
     id="metadata4142">
    <rdf:RDF>
      <cc:Work
         rdf:about="">
        <dc:format>image/svg+xml</dc:format>
        <dc:type
           rdf:resource="http://purl.org/dc/dcmitype/StillImage" />
        <dc:title />
      </cc:Work>
    </rdf:RDF>
  </metadata>
  <defs
     id="defs4140">
    <clipPath
       clipPathUnits="userSpaceOnUse"
       id="clipPath4166">
      <rect
         style="opacity:0.18800001;fill:#ff0000;fill-opacity:1;fill-rule:nonzero;stroke:none;stroke-width:3.5999999;stroke-linecap:round;stroke-linejoin:round;stroke-miterlimit:4;stroke-dasharray:none;stroke-opacity:1"
         id="rect4168"
         width="240"
         height="240"
         x="11.376145"
         y="24.714428" />
    </clipPath>
    <clipPath
       clipPathUnits="userSpaceOnUse"
       id="clipPath4153">
      <circle
         style="opacity:0.24299999;fill:#ff0000;fill-rule:evenodd;stroke:none;stroke-width:1px;stroke-linecap:butt;stroke-linejoin:miter;stroke-opacity:1"
         id="circle4155"
         cx="131.37614"
         cy="144.71443"
         r="117.6" />
    </clipPath>
  </defs>
  <sodipodi:namedview
     pagecolor="#ffffff"
     bordercolor="#666666"
     borderopacity="1"
     objecttolerance="10"
     gridtolerance="10"
     guidetolerance="10"
     inkscape:pageopacity="0"
     inkscape:pageshadow="2"
     inkscape:window-width="1920"
     inkscape:window-height="1017"
     id="namedview4138"
     showgrid="false"
     fit-margin-top="0"
     fit-margin-left="0"
     fit-margin-right="0"
     fit-margin-bottom="0"
     inkscape:zoom="1.5208438"
     inkscape:cx="64.60704"
     inkscape:cy="80.508188"
     inkscape:window-x="-8"
     inkscape:window-y="-8"
     inkscape:window-maximized="1"
     inkscape:current-layer="svg4136" />
  <g
     id="g4146"
     transform="matrix(0.41666667,0,0,0.41666667,-4.740061,-10.297679)"
     clip-path="url(#clipPath4153)">
    <path
       style="fill:#fefefe"
       d="M 0,185.95642 0,0 l 131.1138,0 131.1138,0 0,185.95642 0,185.95642 -131.1138,0 -131.1138,0 0,-185.95642 z"
       id="path4162"
       inkscape:connector-curvature="0" />
    <path
       style="fill:#d3d1cb"
       d="m 41.404358,336.30282 0,-11.82126 6.136923,0.43308 c 3.412713,0.24085 7.149136,0.95653 8.41717,1.61226 3.257265,1.68439 5.367285,6.71493 4.805634,11.4572 -0.823298,6.95145 -4.028508,9.30457 -13.366991,9.81343 l -5.992736,0.32654 0,-11.82125 z m 12.642054,7.03007 c 3.80425,-2.49265 3.962912,-11.28716 0.250542,-13.8874 -0.944679,-0.66168 -3.154568,-1.11619 -5.427104,-1.11619 l -3.833531,0 0,8.44593 0,8.44593 3.590672,-0.34502 c 1.974869,-0.18975 4.413608,-0.88422 5.419421,-1.54325 z m 11.32889,-7.01327 0,-11.62228 7.263922,0 c 7.263923,0 7.263923,0 7.263923,1.81598 0,1.77563 -0.121068,1.81598 -5.447942,1.81598 l -5.447942,0 0,2.90557 0,2.90557 5.084746,0 c 4.600482,0 5.084746,0.13837 5.084746,1.45279 0,1.31442 -0.484264,1.45278 -5.084746,1.45278 l -5.084746,0 0,3.99516 0,3.99516 5.447942,0 c 4.963678,0 5.447942,0.12913 5.447942,1.45278 0,1.35594 -0.484264,1.45279 -7.263923,1.45279 l -7.263922,0 0,-11.62228 z m 29.600484,11.12155 c -0.788768,-0.20612 -1.271187,-1.03064 -1.271187,-2.17262 0,-1.47263 0.254049,-1.73337 1.271187,-1.30471 0.699152,0.29466 2.906092,0.69025 4.904302,0.8791 3.035572,0.28689 3.860952,0.0916 5.018402,-1.18736 2.22229,-2.45561 0.69466,-4.77374 -3.867,-5.86807 -5.063678,-1.21476 -7.326891,-3.12456 -7.326891,-6.18275 0,-3.43024 0.606582,-4.62897 2.957521,-5.8447 2.184915,-1.12986 5.58271,-1.35225 9.30035,-0.60872 1.81071,0.36214 2.26997,0.81876 2.26997,2.25689 0,1.42802 -0.26432,1.69634 -1.27118,1.29042 -4.8976,-1.9745 -9.624699,-0.88703 -9.624699,2.21416 0,1.94773 1.089588,2.62848 6.316979,3.94673 5.89588,1.48683 7.86348,7.00396 3.90839,10.95905 -1.92483,1.92484 -2.55287,2.11543 -6.71913,2.03904 -2.527702,-0.0463 -5.167862,-0.23375 -5.867014,-0.41646 z m 19.067794,-11.12155 0,-11.62228 7.26392,0 c 7.26393,0 7.26393,0 7.26393,1.81598 0,1.77563 -0.12107,1.81598 -5.44794,1.81598 l -5.44795,0 0,2.90557 0,2.90557 5.08475,0 c 4.60048,0 5.08474,0.13837 5.08474,1.45279 0,1.31442 -0.48426,1.45278 -5.08474,1.45278 l -5.08475,0 0,3.99516 0,3.99516 5.44795,0 c 4.96367,0 5.44794,0.12913 5.44794,1.45278 0,1.35594 -0.48427,1.45279 -7.26393,1.45279 l -7.26392,0 0,-11.62228 z m 19.79419,11.10964 c -1.18474,-0.2282 -1.63438,-0.82381 -1.63438,-2.16498 0,-1.59332 0.22689,-1.77574 1.63438,-1.31395 3.10395,1.01836 7.65895,1.21726 9.18409,0.40103 2.05616,-1.10042 1.99872,-4.07251 -0.10419,-5.39109 -0.89891,-0.56364 -2.89669,-1.2466 -4.43951,-1.51767 -6.04477,-1.06208 -8.19915,-6.57427 -4.15147,-10.62195 1.78193,-1.78193 2.70861,-2.12331 5.76385,-2.12331 4.85735,0 7.36709,1.01019 7.36709,2.96531 0,1.19195 -0.29268,1.42671 -1.27119,1.01962 -0.69915,-0.29088 -2.76461,-0.68862 -4.5899,-0.88389 -3.74146,-0.40022 -6.00463,1.0612 -5.61825,3.62797 0.16663,1.10695 1.44459,1.85889 5.24919,3.08858 2.76592,0.89397 5.46265,2.21853 5.99274,2.94347 1.6252,2.22259 1.20596,6.67541 -0.81917,8.70053 -1.5439,1.54391 -2.3961,1.7697 -6.35593,1.68405 -2.51513,-0.0544 -5.30844,-0.24059 -6.20735,-0.41372 z m 18.40823,-4.39051 c 1.02867,-2.69673 2.79391,-7.35472 3.92275,-10.35109 1.12885,-2.99637 2.28742,-6.03766 2.5746,-6.75843 0.35331,-0.88674 1.12772,-1.23905 2.39501,-1.08959 1.69822,0.2003 2.26214,1.23698 6.04717,11.11678 2.29587,5.99274 4.18977,11.14104 4.20867,11.44068 0.0189,0.29964 -0.7697,0.5448 -1.75245,0.5448 -1.45528,0 -1.94835,-0.53913 -2.65736,-2.90557 l -0.87053,-2.90557 -4.89089,0 -4.89089,0 -1.16258,2.90557 c -0.92219,2.30477 -1.53801,2.90557 -2.9782,2.90557 l -1.81562,0 1.87032,-4.90315 z m 10.79651,-8.5517 c -0.98089,-2.60596 -1.80047,-4.97582 -1.82128,-5.26634 -0.045,-0.62713 -3.56453,8.6676 -3.58205,9.45968 -0.007,0.29964 1.60767,0.5448 3.58735,0.5448 l 3.5994,0 -1.78342,-4.73814 z m 11.29163,1.83257 0,-11.62228 2.45329,0 c 2.42517,0 2.47959,0.0729 4.74645,6.35594 1.26124,3.49576 2.54108,6.75592 2.84411,7.2448 0.33347,0.538 1.57721,-1.89924 3.1508,-6.17434 2.59188,-7.0415 2.60795,-7.06389 5.23529,-7.28865 l 2.63543,-0.22544 0,11.66612 0,11.66613 -1.81598,0 -1.81598,0 -0.049,-8.89831 -0.049,-8.89831 -2.60331,6.75677 c -2.39194,6.20815 -2.75017,6.73896 -4.41198,6.53753 -1.55307,-0.18825 -2.12776,-1.09175 -4.06678,-6.39357 l -2.25811,-6.17433 -0.20465,8.53511 -0.20465,8.53511 -1.79293,0 -1.79293,0 0,-11.62228 z m 29.99894,10.1989 c -3.19287,-1.94681 -4.57521,-4.96594 -4.57521,-9.99256 0,-7.45274 3.89753,-11.8284 10.53268,-11.82477 9.90215,0.005 14.28096,14.16527 6.49461,21.00177 -2.15264,1.89005 -3.14031,2.23851 -6.33829,2.23622 -2.47482,-0.001 -4.59456,-0.49434 -6.11379,-1.42066 z m 10.25881,-3.3053 c 0.92928,-1.00271 1.88708,-3.05811 2.12846,-4.56757 1.31155,-8.20199 -5.45602,-13.99751 -10.88858,-9.32462 -1.71104,1.47177 -2.0401,2.38828 -2.29506,6.39223 -0.26995,4.23959 -0.11579,4.89019 1.6583,6.99858 2.57447,3.05959 6.81627,3.28592 9.39688,0.50138 z M 119.1525,322.69976 c 0.0577,-1.30235 2.88321,-3.81356 4.29076,-3.81356 l 1.5397,0 -1.61114,2.17918 c -1.43709,1.94377 -4.28193,3.04574 -4.21932,1.63438 z M 73.652883,309.42135 c -6.427169,-1.97056 -9.324777,-10.16476 -6.103934,-17.2614 1.857659,-4.09308 6.471474,-6.34429 11.72682,-5.72188 4.636366,0.54911 6.438516,1.59604 6.438516,3.74035 l 0,1.74958 -3.369741,-1.49059 c -8.048666,-3.56031 -14.260518,2.19151 -11.886872,11.00656 0.976696,3.62717 3.279908,5.21463 7.565797,5.21463 4.291758,0 4.785247,-0.39146 4.785247,-3.7959 0,-2.78739 -0.0669,-2.86269 -2.542373,-2.86269 -2.058109,0 -2.542373,-0.27672 -2.542373,-1.45279 0,-1.29136 0.484264,-1.45278 4.358354,-1.45278 l 4.358353,0 0,5.06609 c 0,4.88781 -0.07625,5.10552 -2.166661,6.18651 -2.803678,1.44984 -7.760913,1.95125 -10.621133,1.07431 z m 87.969387,0.24687 c -4.37468,-1.18867 -7.62711,-6.18139 -7.62711,-11.70818 0,-3.96471 2.75298,-8.95318 5.81113,-10.52993 3.12639,-1.61192 8.0492,-1.27554 10.79727,0.73778 5.87352,4.30313 5.93015,15.74919 0.0986,19.93219 -1.94374,1.39426 -6.69799,2.21534 -9.07991,1.56814 z m 7.65388,-4.97515 c 3.38485,-3.60301 2.46711,-12.45847 -1.50397,-14.51199 -3.03809,-1.57106 -4.74852,-1.33507 -7.38273,1.0186 -2.14422,1.91586 -2.34764,2.47169 -2.37224,6.48198 -0.0205,3.34505 0.33355,4.86975 1.49137,6.42226 2.5266,3.38791 6.89097,3.65115 9.76757,0.58915 z m 14.13789,5.11942 c -0.39951,-0.13327 -1.6253,-0.44056 -2.72397,-0.68288 -1.55109,-0.3421 -1.99758,-0.86075 -1.99758,-2.32043 0,-1.50594 0.25285,-1.77551 1.27119,-1.35523 6.53103,2.69541 11.83073,1.27807 10.78596,-2.88459 -0.36565,-1.45689 -1.26278,-2.03878 -4.62106,-2.99728 -5.4249,-1.54834 -7.43609,-3.39723 -7.43609,-6.836 0,-3.67072 2.50255,-5.91936 7.05862,-6.34245 4.4468,-0.41294 7.46923,0.70803 7.46923,2.77023 0,1.04379 -0.33831,1.41866 -1.03801,1.15016 -4.96074,-1.90362 -9.85788,-0.93394 -9.85788,1.95194 0,2.26947 1.001,2.99439 5.6348,4.08067 5.96325,1.39794 8.60062,6.44755 5.60287,10.72744 -1.49965,2.14104 -7.27057,3.6983 -10.14808,2.73842 z m -91.888617,-11.62846 0,-11.25909 5.34998,0 c 6.960177,0 9.177867,1.47746 9.177867,6.11448 0,2.18512 -0.43163,3.49408 -1.45867,4.42354 -1.26122,1.14139 -1.32174,1.47617 -0.44714,2.47335 0.55633,0.63431 1.83808,2.78767 2.84832,4.78525 l 1.83681,3.63196 0.86553,-2.17918 c 1.07706,-2.71174 4.01967,-10.38357 5.92057,-15.43584 1.2675,-3.36878 1.6755,-3.81356 3.49832,-3.81356 1.89469,0 2.22593,0.43078 4.04938,5.26635 1.09224,2.89649 2.91864,7.6447 4.05866,10.55159 2.50746,6.39367 2.52453,6.70023 0.37306,6.70023 -1.33892,0 -1.90327,-0.61677 -2.65864,-2.90557 l -0.95893,-2.90557 -4.85221,0 -4.85222,0 -0.95892,2.90557 c -0.93738,2.84028 -1.03544,2.90557 -4.3643,2.90557 -3.2752,0 -3.45589,-0.11204 -4.72699,-2.93083 -1.9468,-4.31723 -4.25725,-6.51227 -6.854654,-6.51227 l -2.213862,0 0,4.72155 c 0,4.55206 -0.06516,4.72155 -1.815981,4.72155 l -1.81598,0 0,-11.25908 z m 30.872547,1.27118 c -0.28476,-0.69915 -1.00421,-2.66041 -1.59878,-4.35835 -0.59457,-1.69794 -1.34646,-3.08717 -1.67086,-3.08717 -0.32441,0 -1.0763,1.38923 -1.67086,3.08717 -0.59458,1.69794 -1.31403,3.6592 -1.59879,4.35835 -0.45385,1.11432 -0.0504,1.27119 3.26965,1.27119 3.32002,0 3.7235,-0.15687 3.26964,-1.27119 z m -21.3817,-3.11272 c 1.59242,-0.85223 1.91458,-4.25909 0.53337,-5.64031 -0.47942,-0.47941 -2.113806,-0.87167 -3.631966,-0.87167 l -2.76029,0 0,3.63197 c 0,3.56856 0.03886,3.63196 2.22693,3.63196 1.224813,0 2.859196,-0.33838 3.631956,-0.75195 z m 31.18712,1.84154 0,-11.25909 2.43171,0 c 2.35985,0 2.55841,0.24149 6.71913,8.17192 l 4.28741,8.17191 0.20539,-8.17191 c 0.20479,-8.14802 0.21063,-8.17192 1.99758,-8.17192 l 1.79219,0 0,11.30511 0,11.3051 -2.27791,-0.22762 c -2.10046,-0.20989 -2.62384,-0.87831 -6.71912,-8.58113 l -4.44122,-8.35351 -0.20466,8.53511 -0.20464,8.53511 -1.79294,0 -1.79292,0 0,-11.25908 z m -11.25908,-38.55436 c -15.74524,-2.1976 -21.302725,-3.52174 -31.802042,-7.57718 -22.825877,-8.8167 -44.054301,-26.67632 -56.704492,-47.70591 -7.475003,-12.42639 -13.127259,-28.2032 -15.384258,-42.94119 -1.673635,-10.92868 -1.17098,-29.20214 1.092997,-39.73469 6.840779,-31.82489 25.311321,-58.027359 53.017746,-75.211429 12.698385,-7.875786 26.69698,-12.981063 42.879319,-15.638055 9.89877,-1.625287 10.23089,-1.560667 12.44646,2.421696 2.88977,5.194213 11.09045,14.383371 14.75015,16.528104 6.68434,3.917281 11.73426,3.691733 14.57986,-0.651191 2.82587,-4.312827 1.58952,-11.606583 -2.76837,-16.331752 -1.52019,-1.648316 -1.52738,-1.713095 -0.14611,-1.315931 0.79903,0.22975 4.086,1.078288 7.30439,1.88564 32.81012,8.23062 61.81441,32.625834 75.79845,63.753302 6.79999,15.136286 9.47243,26.849976 10.0283,43.955316 0.30666,9.43685 0.11504,13.95492 -0.86263,20.33899 -7.59367,49.58594 -44.94271,87.91957 -94.43483,96.92433 -5.70488,1.03797 -25.48789,1.90109 -29.79494,1.29995 z m 27.91944,-32.84645 c 4.09055,-2.02982 6.77337,-6.02925 7.15833,-10.67134 0.69934,-8.43322 -4.11249,-15.95262 -17.64436,-27.57263 -7.17534,-6.16156 -10.84774,-8.55162 -16.35547,-10.6444 l -3.63619,-1.38165 3.67949,5.93257 c 7.16596,11.55392 14.61952,24.69483 14.22866,25.08569 -0.97172,0.97173 -2.64764,-0.75305 -5.20161,-5.35324 -6.71641,-12.09756 -14.38191,-24.25385 -15.13646,-24.00409 -1.54642,0.51188 -1.39507,12.40929 0.24081,18.93043 4.4166,17.60596 10.53956,26.62671 20.5882,30.33188 4.22774,1.55887 8.03576,1.35293 12.0786,-0.65322 z m 15.4012,-59.62886 c 6.31209,-2.43588 12.56534,-8.6159 17.22027,-17.01859 7.29409,-13.16666 11.60848,-23.69859 12.8379,-31.3387 0.61885,-3.84584 0.9218,-7.32152 0.67322,-7.72374 -0.24858,-0.40222 -2.46598,1.48555 -4.92754,4.19505 -12.45263,13.70682 -25.4853,27.1045 -26.36608,27.1045 -2.31726,0 -0.43138,-2.61082 8.99704,-12.45549 20.10422,-20.99183 20.82228,-21.82155 19.51711,-22.55196 -1.6585,-0.92814 -8.99287,1.03593 -15.70355,4.20526 -12.19962,5.76165 -26.27079,16.03905 -30.96356,22.61537 -5.02998,7.04888 -6.80884,11.66634 -6.80884,17.67396 0,5.98408 1.04054,8.79813 4.59026,12.41395 4.97377,5.06641 12.56317,6.11067 20.93377,2.88039 z m -87.267372,-2.56154 c 8.886835,-2.53213 26.640322,-14.18456 31.373822,-20.59206 4.6281,-6.26482 6.38332,-10.71715 6.39148,-16.21279 0.006,-4.1188 -0.29899,-5.2407 -2.20967,-8.1253 -5.86707,-8.85767 -17.482848,-8.35268 -27.158632,1.1807 -3.870356,3.81339 -5.332075,6.09011 -10.09163,15.71838 -5.382513,10.88846 -7.121015,15.95904 -8.094156,23.60774 l -0.462093,3.63197 7.095845,-7.62712 c 15.488905,-16.64859 19.750903,-20.7407 20.65752,-19.83408 0.664075,0.66408 -2.23885,4.07027 -12.679627,14.87788 -10.90094,11.28393 -13.292922,14.11342 -12.269037,14.51312 1.401315,0.54703 1.68079,0.50431 7.446178,-1.13844 z m 65.713682,-55.2136 c 1.4247,-0.59528 3.33706,-2.34196 4.51662,-4.12533 1.88988,-2.8573 2.04573,-3.62921 2.04573,-10.132496 0,-6.853627 -0.082,-7.200341 -3.10354,-13.126482 -4.23683,-8.309659 -11.65657,-18.521263 -16.1662,-22.249148 -3.72732,-3.081177 -5.52523,-3.896678 -4.80438,-2.179177 1.14861,2.736677 9.90947,30.053725 9.90947,30.898497 0,0.55123 -0.36821,0.879494 -0.81825,0.729479 -0.45003,-0.150007 -2.99842,-6.959934 -5.66309,-15.133169 -6.35858,-19.503441 -5.80912,-18.313895 -7.07887,-15.325399 -1.43923,3.387418 -1.36562,18.095641 0.13868,27.710365 1.19367,7.629356 4.28217,15.61375 7.49197,19.36828 3.61888,4.233 8.71757,5.57612 13.53186,3.56458 z m -6.735,-74.370653 c -4.22625,-3.040537 -6.32215,-4.954018 -5.59206,-5.105365 1.22818,-0.254605 12.80419,7.773364 13.28386,9.212366 0.51198,1.535941 -0.88533,0.789855 -7.6918,-4.107001 z"
       id="path4160"
       inkscape:connector-curvature="0" />
    <path
       style="fill:#ccc6b6"
       d="m 41.759439,347.0931 c -0.218227,-0.5687 -0.305677,-5.75867 -0.194331,-11.53328 l 0.202446,-10.49928 5.69082,0.17659 c 9.575273,0.29715 13.168307,3.32824 13.137053,11.08249 -0.03175,7.87682 -3.429347,10.91721 -12.822403,11.47432 -4.414392,0.26182 -5.701747,0.1118 -6.013585,-0.70084 z m 13.142124,-4.29133 c 2.259592,-2.12277 2.956938,-6.84832 1.5186,-10.29075 -1.305093,-3.12352 -2.655325,-3.93739 -7.626236,-4.59681 l -3.757608,-0.49846 0,8.91191 0,8.91192 4.083812,-0.42149 c 2.785114,-0.28745 4.623674,-0.92866 5.781432,-2.01632 z m 10.473739,-6.50845 0,-11.64858 7.07391,0.2079 c 6.061964,0.17816 7.10871,0.38974 7.317184,1.47909 0.214373,1.12016 -0.410273,1.27118 -5.257932,1.27118 l -5.501201,0 0,3.26877 0,3.26876 5.084746,0 c 4.600482,0 5.084746,0.13837 5.084746,1.45279 0,1.31442 -0.484264,1.45278 -5.084746,1.45278 l -5.084746,0 0,3.99516 0,3.99516 5.447942,0 c 4.963678,0 5.447942,0.12913 5.447942,1.45278 0,1.35594 -0.484264,1.45279 -7.263923,1.45279 l -7.263922,0 0,-11.64858 z m 29.96368,11.13594 c -1.182806,-0.22782 -1.634383,-0.82406 -1.634383,-2.15797 0,-1.48999 0.243589,-1.7331 1.271187,-1.26873 0.699152,0.31595 2.936622,0.70511 4.972162,0.86481 8.181712,0.64189 8.348172,-5.96733 0.186272,-7.39572 -3.968662,-0.69455 -6.429621,-2.94012 -6.429621,-5.86689 0,-3.43024 0.606582,-4.62897 2.957521,-5.8447 2.184915,-1.12986 5.58271,-1.35225 9.30035,-0.60872 1.81071,0.36214 2.26997,0.81876 2.26997,2.25689 0,1.44984 -0.24894,1.69132 -1.27118,1.23315 -0.69915,-0.31337 -2.79684,-0.70495 -4.66152,-0.87017 -2.968223,-0.26301 -3.535521,-0.0788 -4.556436,1.47928 -1.75837,2.68362 -0.781286,3.97556 3.778456,4.99598 5.01911,1.12322 7.35494,3.06507 7.91437,6.5794 0.37002,2.32447 0.12736,2.99116 -1.78463,4.90315 -1.99356,1.99356 -2.63235,2.20307 -6.44551,2.11396 -2.327938,-0.0544 -4.968098,-0.24059 -5.867008,-0.41372 z m 18.704598,-11.13594 0,-11.64858 7.07392,0.2079 c 5.99131,0.17608 7.11021,0.39763 7.31113,1.44768 0.2046,1.06927 -0.54348,1.26908 -5.43953,1.45279 l -5.67675,0.213 -0.22337,3.08717 -0.22336,3.08716 5.48971,0 c 5.00544,0 5.4897,0.12816 5.4897,1.45279 0,1.32364 -0.48426,1.45278 -5.44794,1.45278 l -5.44794,0 0,3.99516 0,3.99516 5.81114,0 c 5.32687,0 5.81114,0.12106 5.81114,1.45278 0,1.35594 -0.48427,1.45279 -7.26393,1.45279 l -7.26392,0 0,-11.64858 z m 19.79419,10.89955 c -0.98085,-0.39425 -1.63438,-1.27831 -1.63438,-2.21085 0,-1.19974 0.28973,-1.43181 1.27118,-1.01818 0.69916,0.29466 2.9868,0.69695 5.08365,0.89398 4.41512,0.41485 5.99384,-0.48747 5.99384,-3.4258 0,-2.13803 -1.56597,-3.20241 -5.92804,-4.02928 -5.67466,-1.07568 -8.10259,-6.01285 -4.93637,-10.03806 1.74159,-2.21407 5.16427,-3.0335 9.77966,-2.34138 2.83107,0.42454 3.26392,0.72199 3.26392,2.24294 0,1.58212 -0.1821,1.68426 -1.86327,1.04509 -4.46538,-1.69774 -9.03261,-0.38233 -9.03261,2.60148 0,1.95395 1.0829,2.62587 6.39425,3.96754 4.06814,1.02763 5.95442,2.96047 5.95442,6.10141 0,3.48456 -0.59818,4.67735 -2.95752,5.89742 -2.25812,1.16771 -8.81474,1.3483 -11.38873,0.31369 z m 17.25182,-0.0372 c 0,-1.2264 7.30595,-20.42224 8.21543,-21.58544 0.40554,-0.51867 1.38009,-0.84555 2.16567,-0.72639 1.11029,0.16841 2.29531,2.48097 5.32214,10.38614 5.30441,13.85353 5.04415,12.71187 2.89787,12.71187 -1.51545,0 -1.98921,-0.51212 -2.71509,-2.93489 l -0.87932,-2.9349 -5.0802,0.21092 -5.0802,0.21093 -0.84986,2.54237 c -0.5706,1.707 -1.3668,2.61864 -2.42315,2.77449 -0.88143,0.13008 -1.57329,-0.158 -1.57329,-0.65507 z m 11.97923,-12.73856 c -0.99536,-2.64442 -1.83278,-5.01427 -1.86093,-5.26635 -0.0794,-0.71057 -3.50097,8.141 -3.54329,9.16639 -0.0252,0.61013 1.15193,0.90799 3.58824,0.90799 l 3.62571,0 -1.80973,-4.80803 z m 11.4282,2.13704 0.20031,-11.49362 1.95605,-0.22584 c 2.22017,-0.25633 2.86145,0.7147 5.66592,8.57935 0.92601,2.59685 1.90192,4.97425 2.16868,5.28312 0.26677,0.30886 1.73236,-2.73207 3.25687,-6.75762 2.74634,-7.25186 2.79263,-7.31717 5.03165,-7.0991 l 2.25982,0.22009 0,11.25908 c 0,11.12305 -0.0198,11.26188 -1.63439,11.4912 -1.62018,0.2301 -1.63473,0.15126 -1.67579,-9.07991 l -0.0414,-9.31202 -2.65856,7.08233 c -2.25266,6.00102 -2.90205,7.08232 -4.25336,7.08232 -1.32573,0 -1.9732,-0.99094 -3.83756,-5.8732 -1.23353,-3.23026 -2.30851,-6.25387 -2.38887,-6.71913 -0.0804,-0.46526 -0.32552,3.07659 -0.5448,7.87078 -0.38319,8.37796 -0.46293,8.72583 -2.05178,8.95128 l -1.6531,0.23457 0.20031,-11.49365 z m 29.92426,10.01796 c -2.93206,-1.78793 -4.66341,-5.58104 -4.66341,-10.21676 0,-6.6007 3.50921,-10.94625 9.2378,-11.43939 6.93157,-0.59672 11.46194,3.92678 11.41505,11.39777 -0.0301,4.80953 -1.67658,8.246 -4.88909,10.20478 -3.00479,1.83213 -8.1431,1.85696 -11.10035,0.0536 z m 9.68197,-2.65201 c 2.00753,-1.40613 3.33176,-6.18736 2.7187,-9.81605 -1.06749,-6.31838 -7.05171,-8.635 -11.30882,-4.37788 -1.84365,1.84364 -2.1233,2.6616 -2.1233,6.21041 0,4.11262 1.35946,7.92454 3.07188,8.61353 1.945,0.78257 6.11572,0.43871 7.64154,-0.63001 z M 119.1525,322.69976 c 0.0584,-1.31598 2.89042,-3.81356 4.32427,-3.81356 l 1.57319,0 -1.68963,2.13899 c -1.52844,1.93492 -4.26774,3.02507 -4.20783,1.67457 z M 74.215002,309.46413 c -7.016693,-1.70504 -10.226582,-11.33352 -6.104583,-18.31152 1.755854,-2.97242 6.759033,-5.22613 10.571256,-4.7619 4.987707,0.60738 7.03261,1.70458 7.03261,3.77336 l 0,1.8223 -2.939601,-1.5322 c -7.943433,-4.14035 -15.251389,2.62195 -12.241505,11.32747 1.335637,3.86309 5.160488,5.9331 9.205643,4.98211 2.542678,-0.59776 2.72023,-0.82198 2.930063,-3.70003 l 0.223366,-3.06371 -2.637407,0 c -2.120804,0 -2.58945,-0.249 -2.392591,-1.27119 0.197673,-1.02644 1.012104,-1.27119 4.230022,-1.27119 l 3.985206,0 0.213981,4.86775 c 0.206099,4.68854 0.139242,4.90601 -1.815981,5.90684 -2.734467,1.39972 -7.309438,1.949 -10.260479,1.23191 z m 87.331338,-0.0817 c -6.52202,-1.88714 -9.44694,-10.46231 -5.9168,-17.3467 3.92715,-7.65863 14.24781,-7.64411 18.15868,0.0256 2.56737,5.03493 0.88978,13.39306 -3.22579,16.07165 -2.27924,1.48342 -6.28771,2.03893 -9.01609,1.24948 z m 5.43755,-2.92367 c 2.90962,-1.0143 4.44546,-3.92568 4.44196,-8.42028 -0.005,-6.57143 -4.32322,-10.32758 -9.43739,-8.20922 -5.89973,2.44374 -5.64494,14.29009 0.36021,16.74795 1.95882,0.80173 1.99851,0.80071 4.63522,-0.11845 z m 14.79577,2.87934 c -2.63933,-0.60435 -3.08717,-0.97541 -3.08717,-2.55785 0,-1.47948 0.25512,-1.74509 1.27119,-1.3235 3.89435,1.61588 6.64444,1.92231 8.65025,0.96385 2.23112,-1.06612 3.07645,-3.67351 1.72062,-5.30719 -0.44997,-0.54218 -2.43253,-1.37307 -4.40569,-1.84643 -4.98831,-1.19668 -7.23637,-3.11654 -7.23637,-6.17994 0,-5.07378 5.33245,-7.9966 11.62228,-6.37037 1.8633,0.48175 2.60795,1.10971 2.78789,2.35101 0.20194,1.39306 0.009,1.59838 -1.08959,1.15668 -2.6116,-1.05045 -6.59695,-1.27097 -8.13112,-0.44991 -1.04767,0.5607 -1.5575,1.52934 -1.5575,2.95917 0,1.89281 0.33814,2.21198 3.08717,2.91399 6.85703,1.75108 9.2615,3.57418 9.2615,7.02219 0,2.19643 -1.28828,4.8683 -2.8036,5.81464 -1.96122,1.2248 -6.71321,1.62685 -10.08986,0.85366 z m -90.254237,-11.10357 0,-11.30961 5.480956,0 c 4.850771,0 5.685971,0.20501 7.263921,1.78297 2.17274,2.17273 2.37956,6.03604 0.45066,8.41812 -1.30982,1.61756 -1.29144,1.7132 1.08959,5.66728 1.33204,2.21208 2.42189,4.30563 2.42189,4.65235 0,2.11091 1.73078,-1.41106 5.07804,-10.33333 3.62889,-9.67298 3.92186,-10.18739 5.80211,-10.18739 1.88334,0 2.18095,0.52848 6.08273,10.80176 2.25637,5.94096 4.1025,11.00755 4.1025,11.25908 0,0.25152 -0.76545,0.45733 -1.701,0.45733 -1.35516,0 -1.878,-0.59077 -2.57153,-2.90557 l -0.87053,-2.90557 -5.02643,0 -5.02643,0 -0.87053,2.90557 c -0.85414,2.85086 -0.93441,2.90557 -4.26334,2.90557 -3.36863,0 -3.40517,-0.0264 -5.12585,-3.7001 -1.96201,-4.18896 -3.75677,-5.743 -6.632585,-5.743 -1.925013,0 -1.989197,0.1325 -2.199146,4.53995 -0.194237,4.07761 -0.382699,4.56359 -1.850644,4.77207 l -1.634382,0.23212 0,-11.3096 z m 31.042827,1.58386 c -0.19112,-0.4994 -0.95657,-2.62409 -1.701,-4.72155 -0.74444,-2.09746 -1.52695,-3.81356 -1.73892,-3.81356 -0.21197,0 -0.99448,1.7161 -1.73892,3.81356 -0.74444,2.09746 -1.50989,4.22215 -1.701,4.72155 -0.25055,0.65472 0.70894,0.90799 3.43992,0.90799 2.73097,0 3.69047,-0.25327 3.43992,-0.90799 z m -21.55198,-3.47592 c 1.59242,-0.85223 1.91458,-4.25909 0.53337,-5.64031 -0.47942,-0.47941 -2.113806,-0.87167 -3.631966,-0.87167 l -2.76029,0 0,3.63197 c 0,3.56856 0.03886,3.63196 2.22693,3.63196 1.224813,0 2.859196,-0.33838 3.631956,-0.75195 z m 31.18712,1.84154 0,-11.25909 2.36815,0 c 2.28786,0 2.52803,0.30176 7.08233,8.89831 l 4.71417,8.89831 0.20395,-8.89831 c 0.19022,-8.29864 0.30036,-8.89831 1.63439,-8.89831 1.36144,0 1.43042,0.54293 1.43042,11.25909 l 0,11.25908 -2.13571,0 c -1.98866,0 -2.46274,-0.61271 -6.8851,-8.89831 l -4.74938,-8.89831 -0.0156,8.89831 -0.0156,8.89831 -1.81598,0 -1.81598,0 0,-11.25908 z M 120.35854,259.27824 C 103.32078,257.76641 86.638314,252.20307 70.823244,242.75898 52.873287,232.04002 35.897888,213.11719 27.034501,193.94673 6.3848765,149.28405 15.322125,97.974314 49.747491,63.548946 68.502504,44.793933 92.451021,33.383876 119.8925,30.128982 l 4.03294,-0.478356 2.81366,4.558487 c 1.54751,2.507168 5.45303,7.248676 8.67892,10.536684 4.97947,5.07534 6.48867,6.169778 9.99304,7.246731 3.65714,1.123901 4.43421,1.151645 6.81547,0.243331 6.44534,-2.458532 7.27469,-12.387134 1.55703,-18.640217 -1.85223,-2.025692 -1.26305,-2.041822 6.08188,-0.166498 19.94291,5.091879 37.82156,15.326688 52.61467,30.119802 40.64123,40.641234 45.06885,104.610754 10.4285,150.669144 -7.74051,10.2919 -20.91706,22.23048 -31.50425,28.54433 -16.37222,9.76386 -32.09838,14.90682 -50.58572,16.54317 -9.1033,0.80576 -11.10135,0.80309 -20.4601,-0.0273 z m 26.95914,-31.44562 c 2.79395,-1.01227 7.28817,-5.1707 8.21526,-7.60145 0.35277,-0.92492 0.64113,-3.53993 0.64082,-5.81114 -6.4e-4,-4.63114 -2.59498,-11.02345 -6.21433,-15.31178 -3.18324,-3.77161 -15.47819,-14.5361 -19.70588,-17.25292 -3.6972,-2.37591 -11.06387,-5.6455 -11.5729,-5.13645 -0.14235,0.14234 1.65581,3.36727 3.99591,7.16651 6.48445,10.52778 13.15879,22.2435 13.15879,23.09814 0,1.84783 -1.48904,0.44969 -3.63393,-3.4121 -6.08633,-10.95818 -15.66954,-26.3137 -16.2925,-26.10604 -2.30776,0.76926 -2.15935,11.20138 0.2944,20.69441 3.48758,13.4927 7.88054,21.389 14.79945,26.60182 4.74798,3.57722 11.44062,4.83699 16.31491,3.071 z m 14.83063,-59.6114 c 8.52112,-3.00751 14.70838,-8.92886 20.54957,-19.66644 8.41062,-15.46082 12.7449,-28.0014 12.68093,-36.69037 l -0.0187,-2.54237 -6.6831,7.26392 c -11.51106,12.51147 -24.11101,25.41386 -25.05714,25.65859 -2.32557,0.60153 -0.2235,-2.21753 7.99032,-10.71574 14.57015,-15.0746 21.76229,-23.18894 21.26571,-23.99243 -2.28646,-3.69956 -22.63418,5.5565 -38.03082,17.30001 -12.24214,9.33747 -18.54755,21.87906 -16.10948,32.04207 1.62921,6.79132 9.29881,12.76018 16.71236,13.00638 0.99879,0.0332 4.01395,-0.71546 6.70037,-1.66362 z m -84.12243,-3.68056 c 10.261482,-3.62076 25.74447,-14.12167 30.91074,-20.96434 7.75028,-10.26517 8.45207,-19.68832 1.9505,-26.1899 -4.2961,-4.2961 -8.30232,-5.36124 -14.020252,-3.72758 -10.267837,2.93362 -16.060946,9.6784 -24.662532,28.71404 -3.491838,7.72758 -6.10836,17.77946 -5.277132,20.27315 0.150105,0.45031 5.991267,-5.19877 12.980359,-12.55351 6.989099,-7.35475 13.116044,-13.56111 13.615438,-13.79192 2.772545,-1.28141 -0.504537,2.78212 -12.16643,15.08617 -7.160223,7.55448 -12.848701,14.01029 -12.641073,14.34624 0.664603,1.07535 4.147768,0.62928 9.310382,-1.19235 z m 63.41373,-54.11912 c 1.13803,-0.0128 5.8446,-4.13975 6.83797,-5.99587 2.81546,-5.260748 1.70644,-16.47084 -2.34495,-23.702954 -3.56961,-6.372102 -11.12638,-16.89295 -14.20651,-19.778912 -2.80302,-2.626322 -6.0337,-5.0116 -6.78783,-5.0116 -0.22238,0 1.97778,7.243029 4.88925,16.095619 4.8075,14.617677 5.66587,18.148046 3.93412,16.180409 -0.32818,-0.372879 -2.83633,-7.62409 -5.57367,-16.1138 -2.73733,-8.489709 -5.24992,-15.435835 -5.58351,-15.435835 -2.55041,0 -3.16346,19.152378 -0.99705,31.14863 2.50356,13.863083 10.53365,24.386033 17.49668,22.928373 0.79904,-0.16728 1.85001,-0.30861 2.3355,-0.31406 z m 0.18094,-71.492254 c -0.58501,-0.562258 -3.63129,-2.850394 -6.76953,-5.084745 -3.13823,-2.234353 -5.24,-4.062458 -4.6706,-4.062458 1.24531,0 13.64524,8.685128 13.64524,9.557365 0,0.924168 -1.01281,0.735779 -2.20511,-0.410162 z"
       id="path4158"
       inkscape:connector-curvature="0" />
    <path
       style="fill:#c2bba8"
       d="m 41.763302,347.10316 c -0.220352,-0.57423 -0.30954,-5.76873 -0.198194,-11.54334 l 0.202446,-10.49928 5.77227,0.21524 c 9.597833,0.35791 12.958311,3.19606 13.013656,10.99094 0.05598,7.88419 -3.212784,10.84025 -12.706536,11.49097 -4.532074,0.31063 -5.764139,0.17808 -6.083642,-0.65453 z m 13.073777,-4.24081 c 3.368995,-3.16501 3.16117,-10.5945 -0.368239,-13.16413 -0.992972,-0.72295 -3.521504,-1.53225 -5.618962,-1.79846 l -3.813559,-0.48401 0,8.90024 0,8.90023 4.000743,-0.33177 c 2.876404,-0.23853 4.506398,-0.80681 5.800017,-2.0221 z m 10.701376,-6.36113 0.200043,-11.44068 6.890778,0 c 5.918626,0 6.924462,0.17491 7.129537,1.23978 0.205954,1.06943 -0.541228,1.26905 -5.437991,1.45279 l -5.676755,0.213 -0.223364,3.08717 -0.223364,3.08716 5.489706,0 c 5.005446,0 5.48971,0.12816 5.48971,1.45279 0,1.32364 -0.484264,1.45278 -5.447942,1.45278 l -5.447942,0 0,3.99516 0,3.99516 5.811138,0 c 5.326874,0 5.811138,0.12106 5.811138,1.45278 0,1.35618 -0.484264,1.45279 -7.282368,1.45279 l -7.282368,0 0.200044,-11.44068 z m 29.800527,10.92804 c -1.182806,-0.22782 -1.634383,-0.82406 -1.634383,-2.15797 0,-1.48999 0.243589,-1.7331 1.271187,-1.26873 0.699152,0.31595 2.936622,0.70511 4.972162,0.86481 8.181712,0.64189 8.348172,-5.96733 0.186272,-7.39572 -4.170642,-0.7299 -6.429621,-2.91695 -6.429621,-6.22493 0,-3.85073 3.146209,-6.54938 7.635571,-6.54938 4.40584,0 6.89227,1.06975 6.89227,2.96531 0,1.20753 -0.27989,1.42302 -1.27118,0.97873 -0.69915,-0.31337 -2.79684,-0.70495 -4.66152,-0.87017 -2.968223,-0.26301 -3.535521,-0.0788 -4.556436,1.47928 -1.303482,1.98937 -0.890949,3.94741 0.931547,4.42144 0.662245,0.17225 2.740379,0.71291 4.618079,1.20146 4.38235,1.14023 5.99609,2.93429 5.99609,6.66609 0,4.36929 -2.68048,6.435 -8.1794,6.3035 -2.274941,-0.0544 -4.871728,-0.24059 -5.770638,-0.41372 z m 18.704598,-11.13594 0,-11.64858 7.07392,0.2079 c 5.99131,0.17608 7.11021,0.39763 7.31113,1.44768 0.2046,1.06927 -0.54348,1.26908 -5.43953,1.45279 l -5.67675,0.213 -0.22337,3.08717 -0.22336,3.08716 5.48971,0 c 5.00544,0 5.4897,0.12816 5.4897,1.45279 0,1.32364 -0.48426,1.45278 -5.44794,1.45278 l -5.44794,0 0,3.99516 0,3.99516 5.81114,0 c 5.32687,0 5.81114,0.12106 5.81114,1.45278 0,1.35594 -0.48427,1.45279 -7.26393,1.45279 l -7.26392,0 0,-11.64858 z m 19.79419,10.89955 c -0.98085,-0.39425 -1.63438,-1.27831 -1.63438,-2.21085 0,-1.19974 0.28973,-1.43181 1.27118,-1.01818 0.69916,0.29466 2.9868,0.69695 5.08365,0.89398 4.42635,0.41591 5.99384,-0.48744 5.99384,-3.45427 0,-2.10522 0.18329,-1.989 -7.3704,-4.67355 -3.73142,-1.32614 -5.51265,-4.06903 -4.5951,-7.07596 1.23232,-4.03852 4.7752,-5.54632 10.88075,-4.63074 2.83107,0.42454 3.26392,0.72199 3.26392,2.24294 0,1.58212 -0.1821,1.68426 -1.86327,1.04509 -4.43307,-1.68546 -9.03261,-0.38169 -9.03261,2.56035 0,1.99497 1.32973,2.9073 5.33163,3.65806 4.03653,0.75726 7.01704,3.5252 7.01704,6.51659 0,3.41804 -0.60849,4.61811 -2.95752,5.83285 -2.25812,1.16771 -8.81474,1.3483 -11.38873,0.31369 z m 17.25182,-0.0679 c 0,-1.20029 7.312,-20.32934 8.23919,-21.55467 0.39247,-0.51868 1.34799,-0.84555 2.12337,-0.72639 1.09542,0.16834 2.36486,2.72724 5.69294,11.47573 2.35574,6.19249 4.28323,11.3408 4.28331,11.44068 1e-4,0.0999 -0.7647,0.1816 -1.69954,0.1816 -1.34175,0 -1.90371,-0.6181 -2.6683,-2.93485 l -0.9686,-2.93485 -5.07804,0.21087 -5.07803,0.21088 -0.84986,2.54238 c -0.5706,1.707 -1.3668,2.61864 -2.42315,2.77449 -0.90596,0.13366 -1.57329,-0.15726 -1.57329,-0.68587 z m 12.38413,-11.71332 c -2.50877,-7.14482 -2.31189,-7.03443 -4.12133,-2.31071 -2.31593,6.04595 -2.29205,6.12427 1.86756,6.12427 l 3.59284,0 -1.33907,-3.81356 z m 11.0233,1.14256 0.20031,-11.49365 2.16636,0 c 2.07917,0 2.28158,0.30155 5.02904,7.4923 l 2.86269,7.49229 2.51096,-6.7659 c 2.99202,-8.06213 3.45187,-8.72064 5.89178,-8.43702 l 1.87816,0.21833 0,11.25908 c 0,11.12305 -0.0198,11.26188 -1.63439,11.4912 -1.62018,0.2301 -1.63473,0.15126 -1.67579,-9.07991 l -0.0414,-9.31202 -2.65856,7.08233 c -2.25266,6.00102 -2.90205,7.08232 -4.25336,7.08232 -1.32573,0 -1.9732,-0.99094 -3.83756,-5.8732 -1.23353,-3.23026 -2.30851,-6.25387 -2.38887,-6.71913 -0.0804,-0.46526 -0.32552,3.07659 -0.5448,7.87078 -0.38319,8.37796 -0.46293,8.72583 -2.05178,8.95128 l -1.6531,0.23457 0.20031,-11.49365 z m 29.92426,10.01796 c -2.93206,-1.78796 -4.66341,-5.58107 -4.66341,-10.21679 0,-6.6007 3.50921,-10.94625 9.2378,-11.43939 6.92203,-0.5959 11.30947,3.76973 11.36351,11.30703 0.0352,4.90436 -1.55856,8.29621 -4.83755,10.29552 -3.00479,1.83213 -8.1431,1.85696 -11.10035,0.0536 z m 9.64722,-2.62766 c 3.599,-2.52085 3.9333,-10.83912 0.58097,-14.45635 -2.49539,-2.69257 -6.30496,-2.59331 -9.13634,0.23807 -1.84365,1.84365 -2.1233,2.66161 -2.1233,6.21041 0,4.11263 1.35946,7.92455 3.07188,8.61354 1.92824,0.77582 6.10977,0.44287 7.60679,-0.60567 z m -94.05877,-22.29426 c 1.32406,-1.99416 3.24222,-3.24089 3.92924,-2.55387 0.69062,0.69062 -2.59031,4.1482 -3.93628,4.1482 -0.91569,0 -0.91478,-0.20601 0.007,-1.59433 z M 74.470801,309.30816 c -3.90112,-0.86085 -6.634804,-3.65392 -7.627903,-7.79363 -2.514678,-10.48235 6.073728,-18.09967 15.951116,-14.14752 2.215794,0.88659 2.920271,1.56863 2.920271,2.82727 l 0,1.6588 -2.723971,-1.42187 c -3.579683,-1.86853 -8.388741,-1.44043 -10.789665,0.96049 -2.317612,2.31761 -2.998306,7.38336 -1.480301,11.01646 1.453499,3.47871 5.183189,5.25697 9.096583,4.33712 2.454066,-0.57684 2.643422,-0.82127 2.851954,-3.68156 l 0.223366,-3.06371 -2.637407,0 c -2.120804,0 -2.58945,-0.249 -2.392591,-1.27119 0.197673,-1.02644 1.012104,-1.27119 4.230022,-1.27119 l 3.985206,0 0.213981,4.86775 c 0.206244,4.69178 0.140593,4.90471 -1.815981,5.89027 -2.838726,1.4299 -6.609632,1.84168 -10.00468,1.09251 z m 87.877869,0.12512 c -4.76775,-1.02127 -7.32114,-4.09253 -8.09473,-9.73648 -0.58471,-4.26593 1.25166,-9.29118 4.14924,-11.35444 6.87109,-4.89264 15.66524,-0.59114 16.49741,8.06942 0.82986,8.63651 -4.9638,14.64692 -12.55192,13.0215 z m 5.10504,-3.03717 c 2.5342,-1.15465 3.97486,-4.13107 3.97486,-8.21208 0,-7.34583 -4.52027,-10.91164 -10.14506,-8.00295 -5.3306,2.75656 -4.59502,14.07948 1.06516,16.39615 2.04998,0.83904 2.93496,0.80764 5.10504,-0.18112 z m 14.32595,2.94852 c -2.57484,-0.59502 -3.08717,-1.00234 -3.08717,-2.45442 0,-1.73669 0.008,-1.73828 3.08717,-0.64004 4.87974,1.74025 9.2615,0.32971 9.2615,-2.9814 0,-2.14172 -0.98292,-2.85463 -5.86488,-4.25379 -4.77976,-1.36986 -6.48379,-2.99603 -6.48379,-6.18752 0,-4.61012 5.12274,-7.38152 11.25908,-6.09114 2.27421,0.47822 2.95892,0.98192 3.15109,2.31803 0.20224,1.40614 0.0102,1.61239 -1.08959,1.17003 -2.6116,-1.05045 -6.59695,-1.27097 -8.13112,-0.44991 -1.04767,0.5607 -1.5575,1.52934 -1.5575,2.95917 0,1.89281 0.33814,2.21198 3.08717,2.91399 6.85703,1.75108 9.2615,3.57418 9.2615,7.02219 0,5.48461 -5.56871,8.36747 -12.89346,6.67481 z m -90.254237,-11.1606 0,-11.25909 5.480956,0 c 4.850771,0 5.685971,0.20501 7.263921,1.78297 2.40401,2.404 2.42529,6.35746 0.047,8.73573 -1.15452,1.15452 -1.44015,1.84947 -0.85277,2.07487 0.48575,0.1864 1.83896,2.16803 3.00714,4.40364 1.16818,2.23559 2.28739,4.06169 2.48715,4.05799 0.19976,-0.004 2.12905,-4.74263 4.28732,-10.53096 3.71441,-9.96175 4.02841,-10.52424 5.87511,-10.52424 1.84764,0 2.16883,0.57735 6.06377,10.89978 2.26204,5.99488 4.1128,11.06147 4.1128,11.25908 0,0.19762 -0.76545,0.35931 -1.701,0.35931 -1.35516,0 -1.878,-0.59077 -2.57153,-2.90557 l -0.87053,-2.90557 -5.02643,0 -5.02643,0 -0.87053,2.90557 c -0.85479,2.85305 -0.9321,2.90557 -4.27719,2.90557 -3.29053,0 -3.45285,-0.10243 -4.76158,-3.00468 -2.31575,-5.13541 -3.71396,-6.43842 -6.908761,-6.43842 l -2.852847,0 0,4.72155 c 0,4.23728 -0.149005,4.72155 -1.452785,4.72155 -1.3903,0 -1.452784,-0.48427 -1.452784,-11.25908 z m 31.042827,1.63438 c -0.19112,-0.4994 -0.95657,-2.62409 -1.701,-4.72155 -0.74444,-2.09746 -1.53911,-3.81356 -1.76592,-3.81356 -0.22683,0 -1.01929,1.7161 -1.76104,3.81356 -0.74175,2.09746 -1.49504,4.22215 -1.67399,4.72155 -0.2336,0.65189 0.74285,0.90799 3.46203,0.90799 2.73097,0 3.69047,-0.25327 3.43992,-0.90799 z m -21.01861,-3.59564 c 0.47941,-0.47942 0.87167,-1.72155 0.87167,-2.76029 0,-2.67745 -1.27905,-3.63197 -4.866832,-3.63197 l -3.123486,0 0,3.63197 0,3.63196 3.123486,0 c 1.717918,0 3.515742,-0.39226 3.995162,-0.87167 z m 30.65375,1.96126 0,-11.25909 2.36077,0.006 c 2.27628,0.006 2.52978,0.32418 7.08233,8.8983 l 4.72155,8.89242 0.20395,-8.89831 c 0.19022,-8.29864 0.30036,-8.8983 1.63439,-8.8983 1.36144,0 1.43042,0.54292 1.43042,11.25908 l 0,11.25908 -2.12222,0 c -1.97103,0 -2.46101,-0.63388 -6.87817,-8.89831 l -4.75596,-8.89831 -0.0226,8.89831 -0.0225,8.89839 -1.81598,0 -1.81598,0 0,-11.25908 z m -7.62712,-38.59867 C 94.395413,257.47017 68.487036,245.42175 47.84856,223.90397 18.706805,193.52063 8.6231469,148.71195 21.912075,108.65021 35.425046,67.913053 71.789942,37.122905 113.31719,31.257523 c 11.90327,-1.681239 10.34706,-2.030064 13.46269,3.01767 6.1781,10.009299 16.56853,18.724179 22.3482,18.744346 7.74018,0.02701 11.00799,-8.868073 6.31365,-17.185986 -1.20196,-2.129761 -1.9919,-3.872293 -1.75541,-3.872293 0.23649,0 3.0066,0.657869 6.1558,1.461932 37.4849,9.570742 68.22724,38.308873 80.47341,75.227018 13.28892,40.06174 3.20526,84.87042 -25.93649,115.25376 -21.42434,22.33713 -48.00193,34.28566 -79.27008,35.63757 -3.7954,0.1641 -8.53511,0.18382 -10.53269,0.0438 z m 22.26235,-31.61618 c 3.12931,-0.93757 7.61575,-4.89584 8.6589,-7.63954 1.16369,-3.06072 0.75457,-9.33728 -0.89873,-13.788 -2.78877,-7.50744 -20.72925,-23.98117 -30.75822,-28.24354 -2.60107,-1.10546 -4.89977,-1.83938 -5.10824,-1.63091 -0.20847,0.20847 1.32571,3.1193 3.40928,6.46851 5.4475,8.75654 13.69374,23.18114 13.69374,23.95355 0,1.74308 -1.53674,0.26002 -3.64514,-3.51782 -6.38997,-11.44957 -15.46694,-26.33172 -16.06034,-26.33172 -1.44934,0 -2.22437,4.15194 -1.8305,9.8063 0.47198,6.77576 2.3059,14.24281 5.60687,22.82909 2.02452,5.26606 3.07417,6.85079 7.50698,11.33378 6.91773,6.99606 12.34009,8.88311 19.4254,6.7603 z m 14.65088,-59.45799 c 5.9423,-1.83539 12.61612,-6.75663 16.47972,-12.15209 3.41254,-4.76555 9.72541,-16.92367 13.29671,-25.60849 2.57326,-6.25773 4.47566,-15.33253 4.02003,-19.17629 -0.23938,-2.0195 -0.54611,-1.78064 -7.46185,5.81114 -9.19896,10.09816 -23.8312,24.98742 -24.5561,24.98742 -1.66745,0 0.37586,-2.60748 9.06855,-11.57241 13.63262,-14.05959 21.65343,-23.00903 21.10922,-23.55324 -1.09616,-1.09616 -6.48067,-0.31415 -11.68955,1.69772 -6.92745,2.67565 -15.09404,7.29374 -23.31076,13.18194 -8.11986,5.81878 -10.50464,8.06748 -14.05287,13.25101 -7.85815,11.47977 -8.47359,21.11115 -1.81692,28.43377 2.19664,2.41639 4.19875,3.76169 7.06112,4.74468 5.07211,1.74186 6.07946,1.73802 11.8527,-0.0452 z m -84.119712,-3.62325 c 9.279799,-3.19272 23.938592,-12.55447 29.721062,-18.98119 1.66614,-1.85177 4.15095,-5.44741 5.5218,-7.99031 2.16937,-4.02413 2.49428,-5.29764 2.50649,-9.82441 0.0125,-4.62116 -0.2289,-5.54475 -2.16515,-8.28506 -2.75364,-3.89712 -4.95916,-5.49189 -9.08393,-6.56836 -7.056691,-1.84166 -16.994812,3.57869 -22.929749,12.50611 -4.859513,7.30975 -11.810552,22.22621 -13.021835,27.94397 -1.023569,4.83168 -1.420835,9.74957 -0.787566,9.74957 0.166552,0 2.370316,-2.20642 4.897251,-4.90315 11.679138,-12.4639 21.641978,-22.24996 22.142426,-21.74951 0.302238,0.30224 -2.562719,3.72601 -6.366581,7.60836 -11.920569,12.16655 -19.520008,20.64087 -19.1079,21.30768 0.655921,1.0613 4.18662,0.73008 8.673682,-0.8137 z m 66.489082,-55.70151 c 7.20359,-4.25355 8.21027,-17.02507 2.22231,-28.193692 -3.08214,-5.748741 -9.29262,-14.766967 -12.69309,-18.431589 -2.43336,-2.622386 -7.57349,-6.628945 -8.50445,-6.628945 -0.31035,0 1.38063,5.802059 3.75772,12.893463 5.82852,17.387775 6.51896,19.794189 5.67926,19.794189 -0.39052,0 -0.83673,-0.408595 -0.99157,-0.90799 -5.52833,-17.830256 -10.04528,-31.053269 -10.6077,-31.053269 -0.39788,0 -1.11166,0.89891 -1.58619,1.997578 -1.29318,2.994086 -1.01708,21.700606 0.43613,29.548221 3.20059,17.283934 12.97182,26.482784 22.28758,20.982034 z m -6.57318,-73.634284 c -6.93043,-4.940132 -7.90742,-5.770063 -6.79242,-5.770063 0.95744,0 12.88424,8.564307 13.21133,9.48669 0.38755,1.092873 0.0717,0.909999 -6.41891,-3.716627 z"
       id="path4156"
       inkscape:connector-curvature="0" />
    <path
       style="fill:#a8a498"
       d="m 41.949152,347.53371 c -0.299637,-0.30819 -0.544794,-5.44056 -0.544794,-11.40528 l 0,-10.84493 6.887913,0.25171 c 6.579103,0.24043 6.988429,0.35229 9.129862,2.49483 5.202551,5.20523 4.095098,15.22424 -2.002726,18.11845 -2.876163,1.36511 -12.525069,2.35735 -13.470255,1.38522 z m 13.020218,-4.83633 c 1.227884,-1.22789 1.964844,-2.91349 2.195246,-5.02108 0.668266,-6.11289 -1.848785,-9.05829 -8.404459,-9.83472 l -3.723838,-0.44103 0,8.90784 0,8.90783 4.042322,-0.33522 c 3.083086,-0.25567 4.480946,-0.77384 5.890729,-2.18362 z m 10.405932,-6.01456 0,-11.25908 7.263922,0 c 5.879412,0 7.263923,0.20184 7.263923,1.05903 0,0.81843 -1.278966,1.10723 -5.62954,1.27119 l -5.62954,0.21215 -0.223364,3.08717 -0.223364,3.08716 5.489706,0 c 5.005446,0 5.48971,0.12816 5.48971,1.45279 0,1.32364 -0.484264,1.45278 -5.447942,1.45278 l -5.447942,0 0,3.99516 0,3.99516 5.811138,0 c 5.326874,0 5.811138,0.12106 5.811138,1.45278 0,1.35594 -0.484264,1.45279 -7.263923,1.45279 l -7.263922,0 0,-11.25908 z m 29.96368,10.54874 c -0.968782,-0.41234 -1.634383,-1.32846 -1.634383,-2.24954 0,-1.19551 0.293194,-1.43291 1.271187,-1.02928 5.327124,2.19855 10.562914,1.2962 10.932614,-1.88416 0.27666,-2.38011 -1.00458,-3.42964 -5.69834,-4.66784 -4.917865,-1.2973 -6.505461,-2.7986 -6.505461,-6.15183 0,-3.68572 2.495194,-5.93272 7.058621,-6.35649 4.34776,-0.40375 7.46922,0.71397 7.46922,2.67454 0,1.25932 -0.24812,1.35844 -1.86326,0.74437 -3.12207,-1.18701 -7.219276,-0.85803 -8.622317,0.69231 -1.966402,2.17285 -0.871728,4.24067 2.720677,5.13929 7.2727,1.81922 9.81536,4.33938 8.84332,8.76509 -0.72256,3.28976 -2.82987,4.58371 -7.83866,4.81312 -2.474358,0.11334 -5.234308,-0.10698 -6.133218,-0.48958 z m 18.704598,-10.54874 0,-11.25908 7.26392,0 c 5.87942,0 7.26393,0.20184 7.26393,1.05903 0,0.81843 -1.27897,1.10723 -5.62954,1.27119 l -5.62954,0.21215 -0.22337,3.08717 -0.22336,3.08716 5.48971,0 c 5.00544,0 5.4897,0.12816 5.4897,1.45279 0,1.32364 -0.48426,1.45278 -5.44794,1.45278 l -5.44794,0 0,3.99516 0,3.99516 5.81114,0 c 5.32687,0 5.81114,0.12106 5.81114,1.45278 0,1.35594 -0.48427,1.45279 -7.26393,1.45279 l -7.26392,0 0,-11.25908 z m 19.79419,10.51005 c -0.94325,-0.37914 -1.63438,-1.28118 -1.63438,-2.13314 0,-1.7164 10e-6,-1.7164 2.66841,-0.70188 2.82882,1.07551 7.28804,1.03317 8.63169,-0.082 0.67422,-0.55956 1.03539,-1.80474 0.90407,-3.11691 -0.17169,-1.71545 -0.68708,-2.32433 -2.39788,-2.83286 -6.48003,-1.92619 -8.23033,-2.86101 -9.04665,-4.83178 -2.42293,-5.8495 3.27908,-9.98684 11.49823,-8.343 1.76969,0.35394 2.26997,0.83024 2.26997,2.1612 0,1.53242 -0.19075,1.63468 -1.86327,0.99879 -4.43307,-1.68546 -9.03261,-0.38169 -9.03261,2.56035 0,1.99497 1.32973,2.9073 5.33163,3.65806 4.03653,0.75726 7.01704,3.5252 7.01704,6.51659 0,3.41804 -0.60849,4.61811 -2.95752,5.83285 -2.25812,1.16771 -8.81474,1.3483 -11.38873,0.31369 z m 17.25182,0.0428 c 0,-0.38845 1.76673,-5.37332 3.92606,-11.07748 3.70886,-9.79741 4.04041,-10.38239 5.99274,-10.5732 2.03156,-0.19857 2.13453,-0.021 6.06183,10.45566 2.19733,5.86171 4.10411,10.93747 4.23728,11.27947 0.13318,0.342 -0.46515,0.62182 -1.32962,0.62182 -1.15922,0 -1.87131,-0.7626 -2.71309,-2.90556 l -1.14134,-2.90557 -4.98044,0 -4.98044,0 -1.16258,2.90557 c -0.78261,1.95593 -1.61162,2.90556 -2.53649,2.90556 -0.75565,-2e-5 -1.37391,-0.31785 -1.37391,-0.7063 z M 164.543,337.954 c -0.27692,-0.69915 -1.18336,-3.06901 -2.0143,-5.26634 -0.83096,-2.19734 -1.66403,-3.5362 -1.85127,-2.97524 -0.18724,0.56096 -1.0893,2.93082 -2.00459,5.26634 l -1.66416,4.24643 4.0189,0 c 3.53505,0 3.95828,-0.15304 3.51542,-1.27119 z m 9.79114,-1.27118 0,-11.25908 2.45121,0 c 2.44051,0 2.46322,0.032 5.20193,7.3333 l 2.75072,7.3333 2.67302,-7.15171 2.67302,-7.1517 2.6769,-0.22659 2.6769,-0.22659 -0.20076,11.12247 c -0.19081,10.5713 -0.27276,11.12248 -1.65355,11.12248 -1.35432,0 -1.4774,-0.60533 -1.81598,-8.93171 l -0.36319,-8.93169 -1.7389,4.93654 c -4.11281,11.6758 -5.32132,11.87003 -9.24742,1.48618 l -2.81514,-7.44552 -0.20268,9.6247 c -0.19004,9.02463 -0.29194,9.6247 -1.63438,9.6247 -1.36309,0 -1.4317,-0.53953 -1.4317,-11.25908 z m 30.18261,9.83763 c -4.48915,-2.95919 -6.16772,-10.66099 -3.48657,-15.99749 3.59327,-7.15197 13.52907,-7.71345 17.6788,-0.99905 1.9664,3.18173 2.15437,9.75154 0.37719,13.18376 -2.55586,4.93606 -9.93562,6.86732 -14.56942,3.81278 z m 10.49261,-3.4616 c 1.76557,-2.24456 2.49489,-5.93279 1.85143,-9.36276 -1.1431,-6.09321 -7.83532,-8.32094 -11.59041,-3.85827 -1.52183,1.8086 -1.88055,2.99325 -1.88055,6.21041 0,5.13363 1.49854,8.04379 4.54904,8.83426 3.25928,0.84456 5.40752,0.29049 7.07049,-1.82364 z m -94.99963,-21.40862 c 1.32406,-1.99416 3.24222,-3.24089 3.92924,-2.55387 0.69062,0.69062 -2.59031,4.1482 -3.93628,4.1482 -0.91569,0 -0.91478,-0.20601 0.007,-1.59433 z m 64.83835,-11.91176 c -0.3892,-0.097 -1.93343,-0.38141 -3.43162,-0.63199 -2.26827,-0.37938 -2.72397,-0.7485 -2.72397,-2.20644 0,-1.73814 0.0217,-1.74317 2.9969,-0.69348 3.83445,1.35287 5.72669,1.33492 7.73736,-0.0734 1.76312,-1.23494 2.14683,-4.07581 0.70642,-5.23012 -0.49939,-0.4002 -2.77229,-1.26212 -5.05087,-1.91537 -4.53754,-1.30086 -6.38981,-3.16949 -6.38981,-6.44622 0,-4.31301 5.3173,-7.05458 11.25908,-5.80512 2.27421,0.47822 2.95892,0.98192 3.15109,2.31803 0.20259,1.40862 0.0121,1.61165 -1.08959,1.16136 -0.73431,-0.30014 -2.68612,-0.71122 -4.33737,-0.91354 -2.37427,-0.2909 -3.31264,-0.0575 -4.48605,1.11593 -2.23457,2.23457 -1.32388,4.32272 2.30562,5.28663 6.98266,1.85445 9.17785,3.75212 9.17785,7.93402 0,2.32418 -3.0805,5.17219 -6.21424,5.74524 -1.59674,0.29198 -3.2216,0.4515 -3.6108,0.35448 z M 71.403304,308.01972 c -3.282402,-2.00139 -4.811248,-5.36082 -4.764646,-10.46965 0.04173,-4.57453 1.13142,-6.73111 4.77611,-9.45226 3.945405,-2.94567 14.299517,-1.42094 14.299517,2.10572 l 0,1.64955 -2.695961,-1.37448 c -4.04472,-2.06211 -7.697143,-1.80357 -10.549237,0.74676 -2.222881,1.98769 -2.3714,2.41936 -2.358966,6.85633 0.01102,3.93134 0.297077,5.03719 1.685261,6.51485 1.924104,2.04811 5.137416,2.88165 8.602736,2.23155 2.294992,-0.43054 2.410598,-0.60512 2.410598,-3.64016 0,-3.15908 -0.023,-3.18792 -2.542373,-3.18792 -1.775622,0 -2.542373,-0.32861 -2.542373,-1.08959 0,-0.84746 0.968521,-1.08959 4.358354,-1.08959 l 4.358353,0 0,4.75862 c 0,4.74342 -0.0081,4.76197 -2.519041,5.81113 -3.653753,1.52664 -9.700119,1.34751 -12.518332,-0.37086 z m 20.122119,-9.91261 0,-11.33599 5.882295,0.26713 c 5.121262,0.23257 6.061042,0.48787 7.263922,1.97337 1.95399,2.41307 1.79123,6.28647 -0.35433,8.43202 -1.15452,1.15452 -1.44014,1.84947 -0.85277,2.07487 0.48576,0.1864 1.83897,2.16803 3.00714,4.40364 1.16818,2.23559 2.2874,4.06371 2.48716,4.06248 0.19975,-10e-4 2.13342,-4.74017 4.29702,-10.53096 3.70697,-9.92156 4.04501,-10.52873 5.86189,-10.52873 1.81462,0 2.15654,0.60904 5.81123,10.35109 2.13574,5.6931 4.02742,10.75969 4.20372,11.25908 0.19324,0.54736 -0.31054,0.908 -1.26839,0.908 -1.17927,0 -1.88319,-0.74913 -2.73027,-2.90557 l -1.14134,-2.90557 -4.86437,0 -4.86437,0 -1.14134,2.90557 c -1.09226,2.78061 -1.27969,2.90557 -4.35822,2.90557 -3.06808,0 -3.27956,-0.13899 -4.5718,-3.00468 -2.31575,-5.13541 -3.71396,-6.43842 -6.908761,-6.43842 l -2.852847,0 0,4.72155 c 0,4.23728 -0.149005,4.72155 -1.452785,4.72155 -1.390721,0 -1.452784,-0.48427 -1.452784,-11.336 z m 31.064937,1.7113 c -0.17895,-0.4994 -0.93225,-2.62409 -1.674,-4.72155 -0.74174,-2.09746 -1.54636,-3.81356 -1.78803,-3.81356 -0.24167,0 -1.04629,1.7161 -1.78804,3.81356 -0.74175,2.09746 -1.49504,4.22215 -1.67399,4.72155 -0.2336,0.65189 0.74285,0.90799 3.46203,0.90799 2.71917,0 3.69563,-0.2561 3.46203,-0.90799 z m -21.04072,-3.59564 c 0.47941,-0.47942 0.87167,-1.72155 0.87167,-2.76029 0,-2.67745 -1.27905,-3.63197 -4.866832,-3.63197 l -3.123486,0 0,3.63197 0,3.63196 3.123486,0 c 1.717918,0 3.515742,-0.39226 3.995162,-0.87167 z m 31.13801,12.73607 c -0.26634,-0.26634 -0.48426,-5.33292 -0.48426,-11.25908 l 0,-10.77482 2.36077,0.0118 c 2.27453,0.0114 2.53327,0.33646 7.08233,8.8983 l 4.72155,8.88649 0.20395,-8.8983 c 0.19022,-8.29864 0.30036,-8.89831 1.63439,-8.89831 1.36144,0 1.43042,0.54292 1.43042,11.25908 l 0,11.25908 -2.12481,0 c -1.97635,0 -2.44583,-0.61038 -6.71913,-8.73568 l -4.59431,-8.73572 -0.20396,8.73569 c -0.18344,7.85703 -0.33565,8.73569 -1.51332,8.73569 -0.72015,0 -1.52728,-0.21792 -1.79362,-0.48427 z m 24.92145,-2.26841 c -6.61597,-6.61597 -3.31325,-18.85013 5.44324,-20.16324 8.8123,-1.32149 14.72716,8.50341 10.59653,17.6014 -1.69943,3.74313 -4.51831,5.31452 -9.53361,5.31452 -3.3758,0 -4.03047,-0.27699 -6.50616,-2.75268 z m 10.08216,-0.46161 c 2.52609,-1.30629 3.73731,-3.9363 3.73731,-8.11504 0,-7.27609 -4.54396,-10.82915 -10.14506,-7.9327 -4.4251,2.2883 -4.91527,11.39434 -0.81078,15.06171 2.53522,2.26521 4.28314,2.50398 7.21853,0.98603 z M 126.02905,259.52708 C 103.38086,258.70524 79.49429,250.07207 61.380145,236.16144 6.2290212,193.80851 0.80583856,112.68934 49.846863,63.648318 67.454826,46.040354 90.632534,34.34936 114.04358,31.267052 c 11.04551,-1.454257 9.90982,-1.699365 12.37635,2.671102 3.21302,5.693152 12.65286,15.315794 17.04254,17.372553 6.42284,3.009387 11.29992,1.793578 13.42957,-3.347865 1.38728,-3.349162 0.61219,-9.289628 -1.68502,-12.914415 -1.07607,-1.697942 -1.79259,-3.087167 -1.59228,-3.087167 0.97897,0 12.19493,3.230256 16.36105,4.712067 29.53965,10.50672 54.14643,33.551311 66.42182,62.204975 17.148,40.027468 11.08102,84.569028 -16.11908,118.340488 -22.62058,28.08554 -57.29187,43.64937 -94.24948,42.30829 z m 23.14738,-32.52293 c 1.54461,-0.73799 3.75102,-2.64309 4.90315,-4.23354 1.8309,-2.52749 2.09475,-3.52825 2.09475,-7.94523 0,-7.73775 -2.56068,-12.45075 -11.30865,-20.81387 -3.83053,-3.66201 -8.65518,-8.00052 -10.72144,-9.64113 -5.18912,-4.12017 -15.7423,-9.13863 -15.7423,-7.4861 0,0.20402 1.76376,3.22763 3.91948,6.71913 5.9279,9.60106 13.51393,22.79978 13.51393,23.51249 0,1.77516 -1.47964,0.0731 -4.34432,-4.99725 -7.29219,-12.90693 -14.64007,-24.87894 -15.26958,-24.87894 -2.53826,0 -2.89132,9.69248 -0.68794,18.8862 3.24392,13.53543 6.32906,19.9607 12.47672,25.98467 6.59107,6.45845 14.20605,8.21902 21.1662,4.89357 z m 12.85351,-58.59655 c 6.00672,-1.9346 12.84406,-7.2563 16.81615,-13.0885 2.99662,-4.39993 10.93024,-20.12998 13.49047,-26.74767 1.80975,-4.67783 3.06826,-11.25194 3.05004,-15.93244 l -0.0129,-3.31695 -4.52704,4.76132 c -2.48987,2.61873 -9.55638,10.07607 -15.70335,16.57187 -7.63472,8.06799 -11.41231,11.57455 -11.92108,11.06578 -0.50876,-0.50876 2.80264,-4.39122 10.44992,-12.25202 16.44944,-16.90872 20.68745,-21.8501 19.22216,-22.41239 -3.46889,-1.33114 -13.21541,1.85215 -23.20296,7.57824 -5.86514,3.36262 -15.8687,10.43099 -19.59396,13.84481 -3.36072,3.07977 -7.72959,9.34518 -9.98521,14.31984 -4.95021,10.91746 -1.08802,21.68803 9.22044,25.7132 4.64462,1.8136 6.79525,1.7958 12.69734,-0.10509 z m -85.758754,-3.09618 c 7.491646,-2.33013 14.242263,-6.10527 24.492004,-13.69665 6.44044,-4.77006 11.14743,-10.77642 13.62696,-17.38875 1.88816,-5.03524 1.29832,-11.0276 -1.47264,-14.96105 -2.41665,-3.43049 -8.05383,-6.67417 -11.59902,-6.67417 -5.982849,0 -15.005716,5.19105 -19.331491,11.12183 -1.220651,1.67355 -4.615322,7.86896 -7.543714,13.76758 -5.357534,10.79163 -7.615199,17.86579 -7.615199,23.86146 l 0,3.06457 5.597843,-6.11353 c 10.61176,-11.58934 21.194765,-22.057 21.744382,-21.50738 0.303066,0.30306 -2.874959,4.0541 -7.062283,8.33563 -14.681287,15.01162 -18.938699,19.72833 -18.47884,20.4724 0.642692,1.0399 3.76214,0.92481 7.641998,-0.28194 z m 67.952944,-56.07929 c 2.72011,-1.78228 5.2302,-6.6356 5.7766,-11.169174 1.01256,-8.401337 -2.64232,-17.304168 -12.5673,-30.612412 -4.01685,-5.38614 -10.51746,-11.51834 -12.21033,-11.51834 -0.4941,0 1.20896,6.259838 4.18909,15.397642 2.76192,8.468703 4.91954,15.905144 4.79473,16.525424 -0.12481,0.620281 -2.68505,-6.390377 -5.68943,-15.57924 l -5.4625,-16.707022 -1.41854,2.149354 c -1.26061,1.910066 -1.41282,3.406152 -1.36725,13.438257 0.078,17.176799 2.70575,27.681514 8.70917,34.816171 4.19769,4.98866 10.53782,6.3441 15.24576,3.25934 z m -8.16616,-74.58737 c -3.27344,-2.453254 -5.82178,-4.59039 -5.66298,-4.749194 0.15881,-0.158802 2.51019,1.279936 5.22532,3.197197 7.33854,5.182043 8.50337,6.138507 7.39533,6.072439 -0.55328,-0.03299 -3.68423,-2.067188 -6.95767,-4.520442 z"
       id="path4154"
       inkscape:connector-curvature="0" />
    <path
       style="fill:#998d6b"
       d="m 42.13075,336.78301 0,-11.35927 5.108077,0 c 9.461789,0 13.051729,2.94313 13.051729,10.70017 0,8.16736 -2.667083,10.61445 -12.544192,11.50949 l -5.615614,0.50888 0,-11.35927 z m 11.202877,7.23402 c 2.924666,-1.222 4.42489,-4.8859 3.826703,-9.34572 -0.575564,-4.29115 -2.953273,-6.32515 -8.003289,-6.84635 l -4.120722,-0.4253 0,8.81834 0,8.81833 2.9289,0 c 1.610895,0 4.026678,-0.45868 5.368408,-1.0193 z m 12.041675,-7.30791 0,-11.28538 7.263922,0 c 5.972557,0 7.263923,0.1937 7.263923,1.08958 0,0.87772 -1.129947,1.08959 -5.811138,1.08959 l -5.811138,0 0,3.26877 0,3.26876 5.447942,0 c 4.963678,0 5.447942,0.12914 5.447942,1.45279 0,1.32364 -0.484264,1.45278 -5.447942,1.45278 l -5.447942,0 0,3.99516 0,3.99516 5.864397,0 c 5.193559,0 5.836576,0.14541 5.621128,1.27118 -0.208474,1.08934 -1.25522,1.30093 -7.317184,1.47909 l -7.07391,0.2079 0,-11.28538 z m 29.96368,10.48375 c -0.905223,-0.36386 -1.634383,-1.28381 -1.634383,-2.06205 0,-1.33224 0.174059,-1.35271 3.35679,-0.39485 5.047801,1.51916 8.991881,0.21714 8.991881,-2.96841 0,-2.14238 -1.189,-3.05302 -5.75774,-4.40979 -2.070984,-0.61501 -4.401156,-1.75395 -5.17817,-2.53096 -2.011751,-2.01175 -1.85092,-5.83263 0.331823,-7.88322 3.310257,-3.10982 12.176027,-2.74408 12.652347,0.52195 0.21024,1.44147 0.0505,1.52363 -1.68167,0.86506 -2.88276,-1.09603 -7.37274,-0.88169 -8.668217,0.41379 -2.366644,2.36664 -0.729719,4.9028 3.700937,5.73399 4.17292,0.78285 6.54406,2.29887 7.38971,4.72474 1.04136,2.98722 -0.18185,6.30097 -2.83171,7.67125 -2.27105,1.17441 -8.108741,1.34864 -10.671598,0.3185 z m 18.704598,-10.48375 0,-11.28538 7.26392,0 c 5.97256,0 7.26393,0.1937 7.26393,1.08958 0,0.87772 -1.12995,1.08959 -5.81114,1.08959 l -5.81114,0 0,3.26877 0,3.26876 5.44794,0 c 4.96368,0 5.44794,0.12914 5.44794,1.45279 0,1.32364 -0.48426,1.45278 -5.44794,1.45278 l -5.44794,0 0,3.99516 0,3.99516 5.8644,0 c 5.19356,0 5.83657,0.14541 5.62113,1.27118 -0.20848,1.08934 -1.25522,1.30093 -7.31718,1.47909 l -7.07392,0.2079 0,-11.28538 z m 20.33899,10.5858 c -1.15951,-0.32064 -1.90474,-1.1192 -2.06151,-2.20902 -0.2024,-1.40711 -0.011,-1.61183 1.08959,-1.16576 5.57617,2.25992 9.05575,2.03097 10.85445,-0.71421 1.6098,-2.45687 0.2927,-4.47173 -3.53896,-5.41373 -4.52892,-1.11342 -6.58677,-2.36529 -7.70196,-4.68538 -1.518,-3.1581 0.34928,-6.59604 4.21096,-7.75303 4.20007,-1.25837 9.04873,-0.15909 9.37242,2.12491 0.21123,1.49035 0.0666,1.59758 -1.22342,0.90717 -1.96766,-1.05306 -7.59286,-0.99554 -8.67712,0.0887 -1.13786,1.13787 -1.11723,3.84042 0.0363,4.7554 0.49939,0.39611 2.62646,1.12306 4.72681,1.61544 6.62597,1.5533 8.80404,6.75971 4.59057,10.97317 -1.8429,1.8429 -2.6343,2.11375 -5.99274,2.0509 -2.12818,-0.0398 -4.68663,-0.29838 -5.68541,-0.57457 z m 16.70702,-0.0171 c 0,-0.36525 1.17191,-3.71573 2.60424,-7.44552 1.43233,-3.7298 3.26066,-8.51631 4.06296,-10.63671 1.29749,-3.4292 1.66774,-3.83059 3.35017,-3.63196 1.70842,0.20169 2.25916,1.17231 5.69096,10.0296 2.08972,5.39346 3.82306,10.37833 3.85188,11.07748 0.1,2.42585 -2.23248,1.29967 -3.38501,-1.63438 l -1.14134,-2.90557 -5.033,0 -5.03299,0 -1.14134,2.90557 c -0.75818,1.93015 -1.59206,2.90557 -2.48394,2.90557 -0.73842,4e-5 -1.34259,-0.2988 -1.34259,-0.66405 z m 13.80145,-8.38893 c 0,-0.18497 -0.60205,-1.90107 -1.33788,-3.81356 -0.73583,-1.91249 -1.56072,-4.09608 -1.83308,-4.85241 -0.64657,-1.79551 -0.74164,-1.66157 -2.90929,4.09912 l -1.84496,4.90315 3.9626,0 c 2.17944,4e-5 3.96261,-0.1513 3.96261,-0.33627 z m 9.92736,8.56874 c -0.26634,-0.2663 -0.48426,-5.33288 -0.48426,-11.25904 l 0,-10.77481 2.45329,0 c 2.42517,0 2.47959,0.0729 4.74645,6.35593 1.26124,3.49576 2.54108,6.75592 2.84411,7.2448 0.33346,0.538 1.57712,-1.8993 3.15052,-6.17433 2.47567,-6.72656 2.70788,-7.07406 4.87209,-7.29083 l 2.27252,-0.22762 0,11.35837 c 0,10.42607 -0.10434,11.33836 -1.27119,11.11466 -1.11435,-0.21364 -1.30018,-1.36288 -1.50621,-9.31477 l -0.23503,-9.07106 -2.68721,6.90073 c -2.09001,5.36714 -3.02396,6.94933 -4.20247,7.11942 -1.30064,0.18771 -1.84197,-0.68684 -3.82179,-6.17433 -3.51642,-9.74652 -3.68596,-9.69827 -3.69839,1.05249 -0.009,7.53075 -0.22183,9.6247 -0.97964,9.6247 -0.5327,0 -1.18645,-0.21792 -1.45279,-0.48427 z m 31.05456,-0.2195 c -4.11403,-1.6643 -6.6768,-7.43039 -5.89457,-13.2624 1.34017,-9.99176 14.68298,-12.60394 19.00484,-3.72066 1.60922,3.30763 1.44562,10.2327 -0.30976,13.11161 -2.41341,3.95813 -8.23437,5.71865 -12.80051,3.87145 z m 8.92517,-4.04799 c 3.12642,-3.49624 3.04159,-10.64646 -0.16435,-13.8524 -2.23534,-2.23535 -6.65216,-2.37383 -8.9006,-0.27908 -4.34061,4.04389 -3.34695,13.49657 1.65181,15.71365 2.78943,1.23718 5.38792,0.6826 7.41314,-1.58217 z m -94.7884,-21.53987 c 1.32406,-1.99416 3.24222,-3.24089 3.92924,-2.55387 0.69062,0.69062 -2.59031,4.1482 -3.93628,4.1482 -0.91569,0 -0.91478,-0.20601 0.007,-1.59433 z M 71.403304,308.06111 c -3.201852,-2.00926 -4.575726,-5.0207 -4.572502,-10.02261 0.0031,-4.68785 1.559772,-8.02087 4.710563,-10.08535 3.860358,-2.5294 14.17292,-1.09927 14.17292,1.96549 0,1.6407 0.09242,1.63265 -3.156727,0.27507 -7.872515,-3.28934 -13.590906,1.04575 -12.629597,9.57446 0.615814,5.46348 4.651893,8.24728 10.395164,7.16983 2.388094,-0.44801 2.485591,-0.59322 2.485591,-3.70214 0,-3.21386 -0.01728,-3.23585 -2.542373,-3.23585 -1.775622,0 -2.542373,-0.32861 -2.542373,-1.08959 0,-0.83646 0.92817,-1.08959 3.995157,-1.08959 l 3.995158,0 0,4.63261 c 0,5.77786 -0.769177,6.5102 -7.171424,6.82803 -3.847968,0.19102 -5.280726,-0.0539 -7.139557,-1.22036 z m 20.122119,-9.87708 0,-11.25909 4.757622,0 c 7.229545,0 9.728815,1.82199 9.760305,7.11534 0.006,0.91707 -0.7757,2.45302 -1.7359,3.41323 -0.9602,0.96019 -1.4577,1.84425 -1.10556,1.96455 0.35215,0.12032 1.76245,2.3208 3.13401,4.88997 l 2.49374,4.67122 1.04105,-2.49204 c 0.57257,-1.37063 2.47605,-6.33285 4.22996,-11.02716 2.91062,-7.79027 3.34838,-8.53499 5.01628,-8.5338 1.68352,0.001 2.13519,0.81605 5.73753,10.35108 2.15059,5.69239 4.06511,10.75839 4.25448,11.25778 0.20808,0.54873 -0.26359,0.908 -1.19207,0.908 -1.11442,0 -1.85568,-0.798 -2.69896,-2.90557 l -1.16258,-2.90557 -4.927,0 -4.927,0 -1.16258,2.90557 c -1.10724,2.76725 -1.31322,2.90557 -4.32691,2.90557 -3.00647,0 -3.23191,-0.14989 -4.51924,-3.00468 -2.31575,-5.13541 -3.71396,-6.43842 -6.908761,-6.43842 l -2.852847,0 0,4.72155 c 0,4.23728 -0.149005,4.72155 -1.452785,4.72155 -1.3903,0 -1.452784,-0.48427 -1.452784,-11.25908 z m 31.234867,2.07215 c 0,-1.17201 -3.15756,-8.97288 -3.63196,-8.97288 -0.4744,0 -3.63196,7.80087 -3.63196,8.97288 0,0.25862 1.63438,0.47022 3.63196,0.47022 1.99758,0 3.63196,-0.2116 3.63196,-0.47022 z m -21.21065,-4.03341 c 1.22288,-1.22289 1.08604,-4.58367 -0.23114,-5.67684 -0.60655,-0.50338 -2.322649,-0.95201 -3.813562,-0.99693 l -2.71075,-0.0817 -0.21956,3.81356 -0.219559,3.81356 3.161448,0 c 1.738794,0 3.553703,-0.39226 4.033123,-0.87167 z m 31.38014,1.96126 0,-11.25909 1.99758,0.0129 c 1.8185,0.0118 2.42085,0.8296 6.71913,9.12299 l 4.72155,9.11009 0.2033,-9.12299 c 0.18994,-8.52377 0.29729,-9.12295 1.63438,-9.12295 1.36229,0 1.43108,0.54118 1.43108,11.25909 l 0,11.25908 -2.0824,0 c -1.92362,0 -2.43597,-0.67301 -6.71913,-8.82604 l -4.63672,-8.82604 -0.20396,8.82604 c -0.1901,8.22674 -0.30108,8.82604 -1.63438,8.82604 -1.36145,0 -1.43043,-0.54292 -1.43043,-11.25908 z m 25.15472,9.06516 c -3.13094,-2.74901 -4.5037,-7.61675 -3.45911,-12.26588 2.24404,-9.98751 15.54439,-11.53545 19.26293,-2.2419 1.56562,3.91288 1.47801,7.621 -0.26515,11.22188 -1.84874,3.819 -4.68669,5.47982 -9.36373,5.47982 -3.05435,0 -4.09888,-0.37112 -6.17494,-2.19392 z m 9.26683,-0.68045 c 2.8653,-1.08938 4.28839,-4.61074 3.92024,-9.70035 -0.26233,-3.62676 -0.64514,-4.63566 -2.29856,-6.05787 -2.10551,-1.81108 -5.40012,-2.21832 -7.75417,-0.95848 -2.13503,1.14264 -3.59452,4.61231 -3.56598,8.47751 0.0499,6.76337 4.2331,10.31712 9.69847,8.23919 z m 12.97554,2.12534 c -0.92389,-0.37136 -1.63438,-1.28256 -1.63438,-2.09607 0,-1.36025 0.13806,-1.38144 2.51904,-0.3866 4.96073,2.07272 9.82963,0.60304 9.82963,-2.96708 0,-2.09239 -2.14329,-3.6099 -6.0739,-4.30052 -5.28237,-0.92813 -7.87678,-5.77645 -5.16377,-9.64983 1.25037,-1.78513 5.56832,-3.22952 8.10624,-2.7116 0.92326,0.18841 2.49584,0.51223 3.49463,0.7196 1.23682,0.25679 1.81598,0.86073 1.81598,1.8937 0,1.16728 -0.29283,1.39142 -1.27119,0.97301 -3.93447,-1.68264 -8.39376,-1.18542 -9.60113,1.07057 -1.27664,2.38542 -0.0637,3.60253 5.13235,5.14998 4.04755,1.20541 5.21651,1.89615 6.09992,3.60448 1.60668,3.10699 1.34774,4.94787 -1.03047,7.32608 -1.8766,1.8766 -2.61509,2.11796 -6.35593,2.07726 -2.32795,-0.0254 -4.96811,-0.34167 -5.86702,-0.70298 z M 112.2276,257.94226 C 94.694454,254.69731 80.971742,249.2737 67.405708,240.22738 18.5683,207.66083 2.2530878,143.24351 29.657849,91.187595 47.142231,57.975643 82.739847,33.801071 118.62795,30.767415 l 5.2626,-0.444853 3.02317,4.632908 c 7.46077,11.433362 15.76146,18.071165 22.59834,18.071165 2.73085,0 3.58135,-0.381058 5.57971,-2.499935 3.98127,-4.221382 3.97296,-10.089117 -0.0226,-15.976951 -1.5252,-2.247505 -1.61556,-2.632646 -0.54363,-2.317092 0.70709,0.208154 3.33524,0.896665 5.84032,1.530025 12.84386,3.247311 27.83824,10.539511 39.43894,19.18029 31.32095,23.329422 48.64806,61.314388 45.69791,100.180228 -1.52073,20.0343 -7.64696,38.18378 -18.35382,54.37475 -17.09402,25.84965 -42.40719,43.12466 -72.79051,49.67598 -10.4953,2.26302 -31.9414,2.65414 -42.13075,0.76833 z m 35.78824,-30.25296 c 5.83099,-2.43634 8.42555,-6.55322 8.33132,-13.21959 -0.12128,-8.58041 -4.19809,-14.68653 -17.50959,-26.22529 -6.83583,-5.92549 -16.56825,-11.7311 -19.66579,-11.7311 -1.23537,0 -0.81589,1.00326 2.93246,7.01352 3.43255,5.50388 9.04756,15.04282 13.50944,22.95016 0.16907,0.29964 -0.0115,0.5448 -0.40121,0.5448 -0.38974,0 -2.91153,-3.8408 -5.60397,-8.53511 -7.35576,-12.82489 -12.66904,-21.24698 -13.40418,-21.24698 -2.48614,0 -2.89191,10.35239 -0.75449,19.2494 5.05832,21.0553 14.0869,32.09182 26.40159,32.27327 1.91053,0.0282 4.68452,-0.45473 6.16442,-1.07308 z m 14.286,-59.25812 c 5.45505,-1.79077 11.72432,-6.50573 15.83899,-11.9121 2.94195,-3.86552 11.84826,-21.34501 14.24013,-27.94765 2.60107,-7.18009 4.17844,-19.4679 2.40886,-18.76513 -0.33532,0.13317 -4.36856,4.32808 -8.96274,9.32203 -16.11485,17.51709 -22.11919,23.54211 -22.63291,22.71089 -0.29461,-0.47669 3.65403,-5.1366 9.50599,-11.21834 16.27821,-16.91738 21.27767,-22.47684 20.84389,-23.1787 -0.8335,-1.34864 -6.67735,-0.54593 -12.67238,1.74066 -7.55149,2.88024 -15.73863,7.69379 -25.59075,15.04584 -6.29706,4.69912 -8.03714,6.46248 -11.16144,11.31082 -4.78518,7.42572 -6.10495,10.9526 -6.10495,16.31452 0,8.43883 4.79886,15.08035 12.50134,17.3016 3.83039,1.10462 6.76345,0.92433 11.78597,-0.72444 z m -83.323267,-3.93423 c 10.708119,-4.01987 25.574027,-14.31279 30.361487,-21.02182 4.92267,-6.89851 6.33031,-10.74456 6.01889,-16.44528 -0.34165,-6.25402 -2.93527,-10.27436 -8.21412,-12.73261 -4.47295,-2.08296 -6.83223,-2.12559 -12.459797,-0.22513 -8.599053,2.90395 -14.832196,10.60423 -22.648697,27.97969 -3.821359,8.49457 -5.211629,13.58824 -5.202644,19.06144 l 0.0056,3.41461 7.049539,-7.62712 c 12.201218,-13.20087 19.708278,-20.6886 20.224489,-20.17239 0.274191,0.27419 -5.425947,6.63008 -12.666966,14.12419 -7.241019,7.49412 -13.165489,14.04543 -13.165489,14.55848 0,1.54979 5.352842,1.09241 10.697702,-0.91406 z m 65.201177,-55.10214 c 1.00531,-0.65871 2.71543,-2.5389 3.80027,-4.17822 1.78951,-2.70412 1.97042,-3.59517 1.95054,-9.607053 -0.0169,-5.091647 -0.39545,-7.576468 -1.63463,-10.72792 -1.62362,-4.129177 -7.17462,-12.942991 -12.66108,-20.103121 -2.70369,-3.528467 -10.52294,-9.987258 -11.23224,-9.27796 -0.16339,0.16339 2.01526,7.241212 4.84144,15.728494 2.82618,8.487284 5.11639,15.954008 5.08935,16.592725 -0.0782,1.846198 -0.90009,-0.418242 -6.12155,-16.864894 -3.10013,-9.764878 -5.10628,-15.018682 -5.66387,-14.832821 -2.69365,0.897883 -3.4682,15.497869 -1.54352,29.094928 2.29255,16.196002 9.65778,26.549162 18.27077,25.682912 1.69218,-0.17019 3.89921,-0.84837 4.90452,-1.50707 z m -7.95341,-74.891177 c -3.56475,-2.596853 -6.22426,-4.72155 -5.91001,-4.72155 0.66001,0 12.78294,8.65802 12.78294,9.129385 0,0.56945 -0.33854,0.352334 -6.87293,-4.407835 z"
       id="path4152"
       inkscape:connector-curvature="0" />
    <path
       style="fill:#5f5f5f"
       d="m 95.883776,347.29492 c -1.108104,-0.30642 -1.90569,-1.12177 -2.046123,-2.09168 -0.22723,-1.56943 -0.190533,-1.57539 2.905569,-0.47141 4.909808,1.75069 9.310048,0.36085 9.310048,-2.94063 0,-2.0875 -1.89301,-3.72135 -5.08475,-4.38863 -3.444717,-0.72018 -6.26686,-2.23544 -6.8127,-3.65787 -1.571158,-4.09436 0.964881,-8.03573 5.561593,-8.6435 4.037727,-0.53387 8.079447,0.41315 8.377927,1.96303 0.20684,1.07403 -0.31722,1.16798 -4.39205,0.78747 -3.822511,-0.35695 -4.847996,-0.21096 -5.898664,0.8397 -2.781901,2.7819 -0.613867,5.03198 6.269544,6.50682 4.02152,0.86166 6.06009,5.2034 4.43345,9.44237 -1.04834,2.73191 -7.46456,4.081 -12.623844,2.65433 z m 38.680384,-0.0628 c -0.89891,-0.3829 -1.63438,-1.31566 -1.63438,-2.0728 0,-1.30592 0.16723,-1.32156 3.25608,-0.30467 4.45534,1.46675 7.71244,0.56193 8.6349,-2.39879 0.71031,-2.27984 -0.97542,-3.89173 -5.24899,-5.01908 -6.18827,-1.63243 -8.13453,-4.44858 -6.22049,-9.00074 0.68053,-1.61849 1.69442,-2.42627 3.85965,-3.07498 3.65928,-1.09635 9.02413,-0.16129 9.36969,1.63309 0.20201,1.0489 -0.33549,1.15332 -4.15406,0.80707 -4.87341,-0.44189 -6.59121,0.35834 -6.59121,3.07049 0,2.15942 1.04797,2.89847 5.6348,3.97374 6.32712,1.48324 8.646,6.41087 5.00747,10.64091 -1.43936,1.67336 -2.37718,2.01966 -5.99274,2.21288 -2.35748,0.12599 -5.02181,-0.0842 -5.92072,-0.46711 z m 71.36804,0.0168 c -3.58889,-1.48447 -6.17433,-6.09056 -6.17433,-10.9999 0,-10.40538 10.83138,-15.18984 17.83602,-7.87855 1.80751,1.88663 2.12891,2.85627 2.34196,7.06553 0.29766,5.88082 -1.22305,9.30745 -4.98535,11.2336 -2.60969,1.33606 -6.57322,1.59067 -9.0183,0.57932 z m 9.01623,-3.99898 c 3.48628,-3.48413 2.64643,-12.76086 -1.34888,-14.89908 -1.77255,-0.94864 -5.54301,-0.96407 -7.28867,-0.0298 -3.43351,1.83756 -4.44104,10.19419 -1.73538,14.39361 2.22283,3.45002 7.19942,3.70684 10.37293,0.53529 z m -172.81768,-6.93027 0,-10.89588 5.108077,0 c 9.291115,0 12.519494,2.51715 12.878436,10.04124 0.268647,5.63136 -0.578799,7.70694 -4.121466,10.09433 -2.039936,1.37472 -3.426974,1.65619 -8.16133,1.65619 l -5.703717,0 0,-10.89588 z m 11.516931,7.6816 c 2.517854,-1.30204 3.737306,-3.9344 3.737306,-8.06752 0,-2.51252 -0.453542,-3.73072 -2.057152,-5.52548 -1.741985,-1.94962 -2.687929,-2.35466 -6.174334,-2.64378 l -4.117182,-0.34143 0,8.80666 0,8.80666 3.304838,0 c 1.817661,0 4.205597,-0.4658 5.306524,-1.03511 z m 11.727621,-7.6816 0,-10.89588 6.900726,0 c 5.649719,0 6.900727,0.19752 6.900727,1.08958 0,0.87167 -1.089589,1.08959 -5.447942,1.08959 l -5.447942,0 0,3.26877 0,3.26876 5.447942,0 c 4.963678,0 5.447942,0.12914 5.447942,1.45279 0,1.32364 -0.484264,1.45278 -5.447942,1.45278 l -5.447942,0 0,3.99516 0,3.99516 5.811138,0 c 4.681191,0 5.811138,0.21186 5.811138,1.08958 0,0.89589 -1.291366,1.08959 -7.263923,1.08959 l -7.263922,0 0,-10.89588 z m 48.668278,0 0,-10.89588 6.90073,0 c 5.64972,0 6.90072,0.19752 6.90072,1.08958 0,0.87167 -1.08958,1.08959 -5.44794,1.08959 l -5.44794,0 0,3.26877 0,3.26876 5.44794,0 c 4.96368,0 5.44794,0.12914 5.44794,1.45279 0,1.32364 -0.48426,1.45278 -5.44794,1.45278 l -5.44794,0 0,3.99516 0,3.99516 5.81114,0 c 4.68119,0 5.81114,0.21186 5.81114,1.08958 0,0.89589 -1.29137,1.08959 -7.26393,1.08959 l -7.26392,0 0,-10.89588 z m 37.36114,9.68862 c 0.2858,-0.73431 2.17521,-5.68353 4.1987,-10.99828 3.46398,-9.09823 3.78598,-9.65031 5.5076,-9.4431 1.63392,0.19664 2.24167,1.3006 5.70985,10.37172 2.13472,5.5834 3.88131,10.40482 3.88131,10.71428 0,0.30945 -0.6284,0.56264 -1.39646,0.56264 -0.95185,0 -1.66358,-0.80942 -2.2355,-2.54237 l -0.83906,-2.54237 -5.28653,0 -5.28653,0 -0.67411,2.36077 c -0.47843,1.67547 -1.17121,2.43205 -2.38651,2.6063 -1.40641,0.20164 -1.61953,0.007 -1.19276,-1.08959 z m 13.48632,-7.10469 c 0,-1.41634 -3.97943,-10.61468 -4.24175,-9.80466 -0.18637,0.57552 -1.10323,3.08937 -2.03747,5.58635 l -1.69861,4.53995 3.98891,0 c 2.19391,0 3.98892,-0.14474 3.98892,-0.32164 z m 9.4431,-2.58393 0,-10.89588 2.38082,0 c 2.34207,0 2.42068,0.10935 4.82983,6.71912 2.84043,7.79304 3.34786,8.57076 4.07622,6.24746 0.29442,-0.93913 1.49957,-4.2408 2.67812,-7.33704 1.99556,-5.2427 2.28819,-5.62954 4.2584,-5.62954 l 2.11559,0 0,10.89588 c 0,10.35485 -0.071,10.89588 -1.43042,10.89588 -1.33403,0 -1.44417,-0.59966 -1.63439,-8.8983 l -0.20395,-8.89831 -2.55452,6.90073 c -1.98179,5.35358 -2.85976,6.90073 -3.91599,6.90073 -1.66233,0 -2.00227,-0.57095 -4.97361,-8.35352 l -2.35734,-6.17433 -0.2033,9.2615 c -0.19013,8.66163 -0.29599,9.2615 -1.63438,9.2615 -1.36024,0 -1.43108,-0.53934 -1.43108,-10.89588 z m -53.75303,-15.25424 c 1.43557,-2.01606 3.63196,-2.9712 3.63196,-1.5794 0,0.91039 -3.23803,3.75858 -4.27304,3.75858 -0.58745,0 -0.35994,-0.77337 0.64108,-2.17918 z M 71.403304,308.01972 c -3.192262,-1.94643 -4.575735,-4.96638 -4.572502,-9.98122 0.0032,-4.96897 1.688047,-8.26887 5.130892,-10.04923 4.365032,-2.25725 13.752591,-0.96195 13.752591,1.89758 0,1.64844 -0.471589,1.69825 -2.905569,0.30686 -2.362562,-1.35056 -6.800056,-1.36677 -9.37686,-0.0343 -2.715293,1.40414 -3.964073,4.63885 -3.530966,9.14628 0.567194,5.9029 4.45692,8.75138 10.422235,7.63227 2.388094,-0.44798 2.485591,-0.59319 2.485591,-3.70211 0,-3.11113 -0.08399,-3.23585 -2.179177,-3.23585 -1.452784,0 -2.179177,-0.3632 -2.179177,-1.08959 0,-0.82324 0.887811,-1.08959 3.631962,-1.08959 l 3.631961,0 0,4.70289 c 0,4.47317 -0.104688,4.75704 -2.143104,5.81114 -3.069008,1.58705 -9.313431,1.42532 -12.167877,-0.31514 z m 20.122119,-9.83569 0,-11.25909 4.687373,0 c 5.459074,0 7.910904,0.91816 9.033984,3.38305 1.28999,2.83123 0.94412,5.27549 -1.0017,7.0788 -1.73879,1.61146 -1.75748,1.72165 -0.48719,2.87125 0.72654,0.65752 2.08088,2.81788 3.00964,4.80082 0.92876,1.98292 1.90983,3.46862 2.18016,3.30154 0.27035,-0.16707 2.26298,-5.0546 4.42809,-10.86116 3.62702,-9.72721 4.07937,-10.55739 5.75255,-10.55739 1.67228,0 2.13211,0.84105 5.81114,10.62881 2.19733,5.84584 4.11328,10.93613 4.25766,11.31175 0.14437,0.37562 -0.48188,0.57372 -1.3917,0.44022 -1.14554,-0.16808 -1.91628,-1.02449 -2.50649,-2.78509 l -0.85229,-2.54238 -5.31832,0 -5.31833,0 -0.85601,2.54238 c -0.80519,2.39145 -1.04602,2.54237 -4.05709,2.54237 -3.05798,0 -3.28239,-0.14972 -5.01993,-3.34905 -2.76417,-5.08966 -3.50589,-5.73085 -6.629349,-5.73085 l -2.816629,0 0,4.72155 c 0,4.23728 -0.149005,4.72155 -1.452785,4.72155 -1.3903,0 -1.452784,-0.48427 -1.452784,-11.25908 z m 31.095057,1.63438 c -0.92858,-3.42278 -3.10338,-9.2615 -3.4497,-9.2615 -0.41001,0 -3.67486,8.55154 -3.67457,9.62469 9e-5,0.29964 1.65851,0.5448 3.68538,0.5448 2.59529,0 3.61237,-0.26855 3.43889,-0.90799 z m -20.46035,-4.82657 c 1.29572,-2.6114 0.18289,-4.67625 -2.91509,-5.4089 -4.061012,-0.96041 -4.814048,-0.35089 -4.814048,3.89654 l 0,3.69455 3.433046,-0.22139 c 2.777842,-0.17915 3.597752,-0.55337 4.296092,-1.9608 z m 30.76965,3.1972 0,-11.36059 1.96502,0.22985 c 1.70439,0.19935 2.59553,1.42104 6.71912,9.21146 l 4.75412,8.98161 0.2033,-9.16321 c 0.19,-8.56384 0.29691,-9.16322 1.63438,-9.16322 1.36229,0 1.43108,0.54118 1.43108,11.25909 l 0,11.25908 -2.01317,0 c -1.83303,0 -2.43427,-0.79349 -6.71913,-8.86747 l -4.70595,-8.86746 -0.3632,8.67779 c -0.31462,7.51697 -0.53324,8.71028 -1.63438,8.92072 -1.16683,0.22299 -1.27119,-0.68975 -1.27119,-11.11765 z m 26.94654,10.33537 c -6.35167,-3.26425 -7.39683,-14.48428 -1.80646,-19.39269 4.37047,-3.83732 11.87656,-2.96044 14.77281,1.72579 4.96014,8.02568 0.52205,18.60089 -7.79531,18.57489 -1.8838,-0.006 -4.21077,-0.41449 -5.17104,-0.90799 z m 9.12228,-2.98889 c 1.77183,-1.52406 2.04378,-2.33698 2.30025,-6.87603 0.27895,-4.93666 0.20055,-5.23793 -1.913,-7.35149 -3.52214,-3.52213 -8.44694,-2.86919 -10.66163,1.41354 -1.3429,2.59689 -1.38818,8.4764 -0.0834,10.83047 2.12042,3.82569 7.10616,4.78045 10.3578,1.98351 z m 11.32827,3.15856 c -0.92389,-0.37136 -1.63438,-1.28256 -1.63438,-2.09607 0,-1.36025 0.13806,-1.38144 2.51904,-0.3866 4.96073,2.07272 9.82963,0.60304 9.82963,-2.96708 0,-2.10914 -2.1713,-3.66244 -6.13289,-4.38731 -5.78201,-1.05797 -8.13552,-6.44641 -4.43281,-10.14911 1.71402,-1.71403 3.31162,-2.07589 8.02333,-1.81731 3.51092,0.19268 4.72155,0.76818 4.72155,2.2445 0,1.18747 -0.26672,1.28445 -1.86327,0.67744 -3.04965,-1.15948 -7.2199,-0.85733 -8.55684,0.61996 -2.57953,2.85036 -1.21046,4.74724 4.29531,5.95126 1.97033,0.43088 4.10107,1.17564 4.73496,1.65504 3.34922,2.53289 3.42046,7.36739 0.14651,9.94267 -2.01159,1.58233 -8.49915,1.97915 -11.65014,0.71261 z"
       id="path4150"
       inkscape:connector-curvature="0" />
    <path
       style="fill:#050505"
       d="m 96.065374,347.1696 c -1.593232,-0.48728 -2.360775,-1.17555 -2.360775,-2.11698 0,-1.30984 0.153691,-1.33073 2.519042,-0.34242 5.417419,2.26354 10.087489,0.54895 9.688849,-3.55721 -0.20607,-2.12263 -0.56342,-2.40103 -4.86258,-3.78827 -5.536325,-1.78645 -7.663042,-3.95923 -7.039834,-7.19229 0.678051,-3.5176 2.791272,-4.7487 8.151304,-4.7487 3.53351,0 4.76813,0.27168 5.09401,1.12092 0.62824,1.63717 0.19842,1.76276 -3.05809,0.89355 -3.64835,-0.97381 -7.098037,0.38339 -7.461291,2.93547 -0.347165,2.43898 0.957624,3.56718 5.170411,4.47067 4.85786,1.04182 7.05242,3.08316 7.05242,6.56002 0,3.6759 -2.35325,5.75914 -6.96979,6.1701 -1.95959,0.17445 -4.62525,-0.008 -5.923676,-0.40486 z m 39.225186,-0.003 c -1.36256,-0.41509 -2.36078,-1.20399 -2.36078,-1.86573 0,-0.80621 0.37732,-0.99184 1.27119,-0.62537 0.69915,0.28663 2.65401,0.69028 4.34412,0.89697 7.59997,0.92946 9.43872,-6.53396 2.01181,-8.16588 -5.98638,-1.31539 -7.62712,-2.77773 -7.62712,-6.7978 0,-3.2522 2.85771,-5.18522 7.66567,-5.18522 4.57231,0 6.13578,0.50234 6.13578,1.97141 0,0.69676 -0.41572,0.93006 -1.15309,0.64711 -0.63419,-0.24337 -2.40881,-0.64328 -3.94358,-0.8887 -2.36158,-0.37763 -3.07754,-0.15917 -4.65805,1.42133 -3.137,3.137 -2.3562,4.29904 4.34941,6.47315 3.99056,1.29384 5.24233,2.05678 6.00214,3.65823 1.26651,2.66941 0.47159,6.07247 -1.76002,7.53467 -2.18791,1.43357 -7.14497,1.88012 -10.27748,0.92583 z m 70.27844,-0.45796 c -3.62413,-1.86628 -6.03049,-6.75918 -5.53679,-11.25806 0.76557,-6.97633 3.95631,-10.02694 10.48751,-10.02694 5.94929,0 9.5785,4.1894 9.576,11.05415 -0.003,8.3002 -7.72077,13.73565 -14.52672,10.23085 z m 7.88497,-1.98113 c 2.6324,-1.36127 3.73731,-3.96114 3.73731,-8.79391 0,-3.33111 -0.32957,-4.31837 -2.10484,-6.30524 -4.21143,-4.71341 -10.87372,-2.42907 -12.10827,4.15165 -0.71522,3.81248 0.27309,7.59744 2.58838,9.91272 2.3068,2.3068 4.79607,2.63338 7.88742,1.03478 z m -171.32322,-8.40799 0,-10.89588 4.903148,0.016 c 9.160369,0.0298 13.258286,3.44224 13.255529,11.03819 -0.0027,7.3053 -4.120553,10.73461 -12.892333,10.7365 l -5.266344,10e-4 0,-10.89588 z m 13.130937,6.5934 c 1.781928,-1.78192 2.1233,-2.7086 2.1233,-5.76385 0,-2.0023 -0.312834,-4.46336 -0.695185,-5.46902 -0.95047,-2.49993 -4.320717,-4.07724 -8.711841,-4.07724 l -3.668034,0 0,8.71671 0,8.71671 4.41423,0 c 3.910362,0 4.656596,-0.24237 6.53753,-2.12331 z m 10.113615,-6.5934 0,-10.89588 6.900726,0 c 5.649719,0 6.900727,0.19752 6.900727,1.08958 0,0.87167 -1.089589,1.08959 -5.447942,1.08959 l -5.447942,0 0,3.63196 0,3.63196 5.508472,0 c 4.082644,0 5.430763,0.23503 5.20824,0.90799 -0.193678,0.58575 -2.148661,0.98374 -5.508472,1.12142 l -5.20824,0.21342 0,3.96333 0,3.96334 5.811138,0 c 4.681191,0 5.811138,0.21186 5.811138,1.08958 0,0.89589 -1.291366,1.08959 -7.263923,1.08959 l -7.263922,0 0,-10.89588 z m 48.668278,0 0,-10.89588 6.90073,0 c 5.64972,0 6.90072,0.19752 6.90072,1.08958 0,0.87167 -1.08958,1.08959 -5.44794,1.08959 l -5.44794,0 0,3.63196 0,3.63196 5.50847,0 c 4.08265,0 5.43077,0.23503 5.20824,0.90799 -0.19367,0.58575 -2.14866,0.98374 -5.50847,1.12142 l -5.20824,0.21342 0,3.96333 0,3.96334 5.81114,0 c 4.68119,0 5.81114,0.21186 5.81114,1.08958 0,0.89589 -1.29137,1.08959 -7.26393,1.08959 l -7.26392,0 0,-10.89588 z m 38.41269,7.44552 c 0.74002,-1.8977 2.61479,-6.80037 4.16616,-10.89482 2.3865,-6.29859 3.06421,-7.44462 4.40286,-7.44552 1.24152,-7.3e-4 1.89292,0.82006 3.0253,3.81249 0.79371,2.09746 2.61501,6.86521 4.04734,10.595 1.43234,3.72979 2.60425,6.91684 2.60425,7.08233 0,0.16548 -0.60201,0.30088 -1.33781,0.30088 -0.93142,0 -1.60224,-0.88261 -2.20833,-2.90557 l -0.87053,-2.90557 -5.11403,0 -5.11402,0 -1.14134,2.90557 c -0.75362,1.91854 -1.59382,2.90557 -2.47334,2.90557 -1.28984,0 -1.28941,-0.1092 0.0135,-3.45036 z m 12.43477,-5.20171 c 0,-0.91252 -3.03374,-9.00998 -3.64331,-9.72447 -0.27212,-0.31896 -1.24258,1.47886 -2.15658,3.99516 -0.91401,2.5163 -1.81574,4.98368 -2.00384,5.48308 -0.24826,0.6591 0.77441,0.90799 3.73086,0.90799 2.24008,0 4.07287,-0.29779 4.07287,-0.66176 z m 10.16949,-2.29206 0,-10.94413 1.96602,0.22985 c 1.72162,0.20126 2.21912,0.90709 4.00203,5.67778 3.28372,8.78652 3.4804,9.15661 4.22645,7.95244 0.35837,-0.57844 1.6835,-3.91188 2.94474,-7.40764 2.15982,-5.98639 2.41467,-6.35593 4.38325,-6.35593 l 2.0901,0 0,10.89588 c 0,9.20097 -0.16949,10.89588 -1.08959,10.89588 -0.9129,0 -1.08959,-1.53826 -1.08959,-9.48597 0,-5.21728 -0.25156,-9.33049 -0.55902,-9.14047 -0.30747,0.19003 -1.69669,3.47784 -3.08717,7.30627 -2.11329,5.81854 -2.78137,6.96085 -4.07136,6.96129 -1.29004,4.4e-4 -2.00509,-1.22103 -4.35835,-7.44499 l -2.81514,-7.44552 -0.20268,9.6247 c -0.16625,7.89475 -0.39473,9.62469 -1.27119,9.62469 -0.89313,0 -1.0685,-1.79625 -1.0685,-10.94413 z m -55.18271,-13.57161 c 0.0466,-1.09803 2.08679,-3.23132 2.84778,-2.97766 0.50323,0.16775 0.37497,0.84487 -0.35835,1.89185 -1.10427,1.57656 -2.53673,2.20136 -2.48943,1.08581 z M 71.987027,308.06727 c -6.885401,-3.66823 -6.893437,-16.34729 -0.01259,-19.87001 4.633753,-2.3723 13.013458,-1.21901 13.013458,1.79104 0,1.27827 -0.116165,1.29602 -1.614415,0.2466 -2.589508,-1.81377 -8.776634,-1.49533 -11.184264,0.57562 -1.653415,1.42221 -2.036228,2.43111 -2.298564,6.05787 -0.518875,7.17337 2.05115,10.39554 8.291557,10.39554 4.048199,0 5.352901,-1.06852 5.352901,-4.38391 0,-2.80719 -0.06429,-2.88001 -2.542373,-2.88001 -1.775622,0 -2.542373,-0.32861 -2.542373,-1.08959 0,-0.82324 0.887811,-1.08959 3.631962,-1.08959 l 3.631961,0 0,4.75862 c 0,4.74342 -0.0081,4.76197 -2.519041,5.81113 -3.391751,1.41717 -8.201724,1.27842 -11.208217,-0.32331 z m 87.819263,0.10352 c -3.31381,-1.65544 -5.08292,-5.25916 -5.0809,-10.34996 0.003,-7.27332 4.22765,-11.3721 11.04629,-10.71692 4.60836,0.44281 7.47661,3.06462 8.48217,7.75338 1.20715,5.62876 -0.54691,10.75515 -4.50602,13.16918 -2.87391,1.75235 -6.61393,1.80664 -9.94154,0.14432 z m 9.44556,-2.97675 c 2.52581,-2.5258 3.39018,-6.51504 2.24201,-10.34728 -1.19616,-3.99244 -3.32236,-5.74264 -6.97637,-5.74264 -5.21595,0 -8.04147,4.96518 -6.80849,11.96431 1.05,5.96052 7.42825,8.24021 11.54285,4.12561 z m 11.62363,3.60001 c -0.99669,-0.27733 -1.92875,-1.10963 -2.07125,-1.84955 -0.20423,-1.06048 0.0256,-1.22737 1.08578,-0.7882 2.4216,1.00321 8.00232,1.28894 9.50172,0.48648 3.57013,-1.91068 2.32357,-6.22787 -2.12663,-7.36505 -5.55191,-1.41871 -7.00099,-2.25008 -7.77076,-4.45824 -1.53176,-4.39403 1.65691,-7.90125 7.1685,-7.88463 4.24228,0.0128 6.5575,0.65083 6.5575,1.80714 0,0.68553 -1.17214,0.82714 -4.58146,0.55347 -3.67596,-0.29508 -4.8245,-0.12472 -5.81114,0.86192 -2.73012,2.73012 -0.68419,5.571 4.68936,6.51141 3.96867,0.69455 6.42963,2.94012 6.42963,5.86689 0,3.43024 -0.60658,4.62897 -2.95752,5.8447 -2.12398,1.09834 -6.94447,1.29552 -10.11373,0.41366 z m -89.350057,-11.06875 0,-10.9914 5.503859,0.35321 c 4.338178,0.27841 5.830468,0.67983 7.046008,1.89536 2.10448,2.10449 2.05208,6.07666 -0.11055,8.37867 -1.08005,1.14967 -1.37684,1.9297 -0.85654,2.25126 0.84914,0.5248 5.10598,7.64488 5.11743,8.55952 0.004,0.29964 -0.56522,0.54386 -1.26437,0.54272 -0.80668,-10e-4 -2.06748,-1.51721 -3.45037,-4.14847 -1.78084,-3.38849 -2.62689,-4.25915 -4.62853,-4.76321 -3.880678,-0.97723 -4.451368,-0.39613 -4.451368,4.53261 0,3.89688 -0.160584,4.38114 -1.452785,4.38114 -1.388775,0 -1.452784,-0.48426 -1.452784,-10.99141 z m 10.714287,-1.86391 c 2.33629,-3.14888 -0.28199,-6.75727 -4.903149,-6.75727 l -2.905569,0 0,4.45709 0,4.45709 3.450363,-0.46656 c 1.940092,-0.26233 3.847805,-1.00223 4.358355,-1.69035 z m 7.44552,12.30552 c 0,-0.30239 1.75807,-5.12381 3.90683,-10.71428 3.4165,-8.88875 4.11146,-10.16449 5.53717,-10.16449 1.42643,0 2.11737,1.27185 5.52466,10.16949 2.14189,5.59322 3.89956,10.41465 3.90594,10.71429 0.007,0.29964 -0.47433,0.54479 -1.06824,0.54479 -0.59392,0 -1.55787,-1.14406 -2.14211,-2.54237 l -1.06228,-2.54237 -5.15887,0 -5.15888,0 -1.06227,2.54237 c -0.58425,1.39831 -1.5482,2.54237 -2.14211,2.54237 -0.59391,0 -1.07984,-0.24741 -1.07984,-0.5498 z m 13.61487,-7.62211 c -0.18811,-0.49939 -1.08407,-2.95097 -1.99103,-5.44794 -0.90696,-2.49698 -1.88829,-4.53995 -2.18074,-4.53995 -0.29245,0 -1.27379,2.04297 -2.18075,4.53995 -0.90696,2.49697 -1.80292,4.94855 -1.99102,5.44794 -0.25074,0.66567 0.86259,0.90799 4.17177,0.90799 3.30917,0 4.42251,-0.24232 4.17177,-0.90799 z m 9.62968,-2.72397 0,-10.89589 1.77545,0 c 1.53168,0 2.45422,1.27162 6.71913,9.26151 l 4.94368,9.2615 0.2033,-9.2615 c 0.19013,-8.66163 0.29599,-9.26151 1.63438,-9.26151 1.36024,0 1.43108,0.53934 1.43108,10.89589 l 0,10.89588 -2.12439,0 c -1.97795,0 -2.46617,-0.63845 -7.08232,-9.2615 l -4.95794,-9.2615 -0.2033,9.2615 c -0.16622,7.57234 -0.39806,9.2615 -1.27119,9.2615 -0.89212,0 -1.06788,-1.79333 -1.06788,-10.89588 z"
       id="path4148"
       inkscape:connector-curvature="0" />
  </g>
</svg>
