<?xml version="1.0" encoding="UTF-8" standalone="no"?>
<!-- Created with Inkscape (http://www.inkscape.org/) -->

<svg
   xmlns:dc="http://purl.org/dc/elements/1.1/"
   xmlns:cc="http://creativecommons.org/ns#"
   xmlns:rdf="http://www.w3.org/1999/02/22-rdf-syntax-ns#"
   xmlns:svg="http://www.w3.org/2000/svg"
   xmlns="http://www.w3.org/2000/svg"
   xmlns:sodipodi="http://sodipodi.sourceforge.net/DTD/sodipodi-0.dtd"
   xmlns:inkscape="http://www.inkscape.org/namespaces/inkscape"
   id="svg2"
   version="1.1"
   inkscape:version="0.91 r13725"
   width="100"
   height="100"
   viewBox="0 0 100 100"
   sodipodi:docname="altra50.svg">
  <metadata
     id="metadata8">
    <rdf:RDF>
      <cc:Work
         rdf:about="">
        <dc:format>image/svg+xml</dc:format>
        <dc:type
           rdf:resource="http://purl.org/dc/dcmitype/StillImage" />
        <dc:title />
      </cc:Work>
    </rdf:RDF>
  </metadata>
  <defs
     id="defs6">
    <clipPath
       clipPathUnits="userSpaceOnUse"
       id="clipPath4178">
      <rect
         style="opacity:1;fill:#ff0000;fill-opacity:1;fill-rule:nonzero;stroke:none;stroke-width:3.73398209;stroke-linecap:round;stroke-linejoin:round;stroke-miterlimit:4;stroke-dasharray:none;stroke-opacity:1"
         id="rect4180"
         width="240"
         height="240"
         x="-243.16652"
         y="-27.744343" />
    </clipPath>
    <clipPath
       clipPathUnits="userSpaceOnUse"
       id="clipPath4293">
      <circle
         style="opacity:0.18500001;fill:#ff0000;fill-rule:evenodd;stroke:none;stroke-width:1px;stroke-linecap:butt;stroke-linejoin:miter;stroke-opacity:1"
         id="circle4295"
         cx="-123.16652"
         cy="92.255653"
         r="117.6" />
    </clipPath>
    <clipPath
       clipPathUnits="userSpaceOnUse"
       id="clipPath4155">
      <circle
         style="opacity:0.18800001;fill:#ff0000;fill-rule:evenodd;stroke:none;stroke-width:1px;stroke-linecap:butt;stroke-linejoin:miter;stroke-opacity:1"
         id="circle4157"
         cx="-123.16651"
         cy="92.255653"
         r="117.6" />
    </clipPath>
  </defs>
  <sodipodi:namedview
     pagecolor="#ffffff"
     bordercolor="#666666"
     borderopacity="1"
     objecttolerance="10"
     gridtolerance="10"
     guidetolerance="10"
     inkscape:pageopacity="0"
     inkscape:pageshadow="2"
     inkscape:window-width="1920"
     inkscape:window-height="1017"
     id="namedview4"
     showgrid="false"
     fit-margin-top="0"
     fit-margin-left="0"
     fit-margin-right="0"
     fit-margin-bottom="0"
     inkscape:zoom="1.0543273"
     inkscape:cx="52.623288"
     inkscape:cy="53.1144"
     inkscape:window-x="-8"
     inkscape:window-y="-8"
     inkscape:window-maximized="1"
     inkscape:current-layer="svg2" />
  <g
     id="g4160"
     transform="matrix(0.41666667,0,0,0.41666667,101.31938,11.560144)"
     clip-path="url(#clipPath4155)">
    <path
       style="fill:#fefefe"
       d="m -253.72018,118.19264 0,-185.956419 131.1138,0 131.1138,0 0,185.956419 0,185.95642 -131.1138,0 -131.1138,0 0,-185.95642 z"
       id="path4176"
       inkscape:connector-curvature="0" />
    <path
       style="fill:#fcf5cf"
       d="m -95.702053,258.74921 c -5.169577,-1.83914 -6.202147,-4.38394 -6.202147,-15.28529 0,-8.16292 0.28437,-9.04852 2.905568,-9.04852 1.175303,0 2.208596,0.48172 2.464656,1.149 0.242506,0.63195 0.440913,4.71037 0.440913,9.06316 0,7.59805 0.07111,7.96075 1.780416,9.08073 1.846184,1.20967 4.627388,0.87213 5.653983,-0.68619 0.293521,-0.44555 0.538678,-3.97586 0.544795,-7.84512 0.01387,-8.78467 0.717232,-10.944 3.46184,-10.6282 l 1.997222,0.22982 0.203899,8.89125 c 0.220249,9.60425 -0.461426,12.2543 -3.669378,14.26493 -2.558179,1.60338 -6.437339,1.9331 -9.581767,0.81443 z m 24.50612,0.39174 c -6.120581,-1.47273 -9.241365,-6.30096 -8.777847,-13.58038 0.350157,-5.49914 1.847818,-7.89023 6.441399,-10.28408 5.099274,-2.65737 13.104102,-1.08452 13.638828,2.67986 0.396349,2.79016 -0.793852,3.2477 -4.772418,1.83464 -3.039952,-1.0797 -3.95623,-1.13879 -5.802073,-0.37422 -5.644845,2.33817 -5.020518,13.42649 0.83878,14.89708 0.984188,0.24702 3.316619,-0.0694 5.183186,-0.70308 3.855407,-1.30895 5.113838,-0.7132 4.410763,2.08807 -0.682083,2.71765 -6.593913,4.54096 -11.160618,3.44211 z m 37.016651,-0.0738 c -4.131007,-0.81179 -4.528794,-1.13056 -4.528794,-3.62924 0,-2.41566 0.58062,-2.55974 5.412378,-1.34309 3.875077,0.97575 6.420094,-0.05 6.072377,-2.4476 -0.173527,-1.19652 -1.310477,-1.92891 -4.92037,-3.16956 -5.47829,-1.88278 -6.564385,-3.07426 -6.564385,-7.20131 0,-5.56854 5.25138,-8.53647 12.301446,-6.95243 4.132133,0.92843 5.193312,2.36848 3.475997,4.71706 -0.766322,1.048 -1.28493,1.13617 -2.952857,0.50203 -2.755649,-1.0477 -5.014213,-0.96579 -6.665593,0.24173 -1.963475,1.43573 -0.471051,2.99729 3.864879,4.04391 6.248186,1.5082 8.799479,5.14164 7.132925,10.1584 -1.461799,4.40038 -6.261429,6.33122 -12.628003,5.0801 z m -189.477648,-0.99584 c -0.24034,-0.62629 1.47762,-6.12337 3.81768,-12.21571 4.13871,-10.77513 4.31574,-11.08296 6.49571,-11.2957 1.24542,-0.12153 2.60301,0.21745 3.05578,0.76301 1.44629,1.74268 8.22551,20.29184 7.99825,21.88465 -0.15722,1.10185 -0.73836,1.54198 -2.036,1.54198 -1.37758,0 -2.1373,-0.6576 -3.14699,-2.72397 -1.29388,-2.64799 -1.44062,-2.72397 -5.26063,-2.72397 -3.82938,0 -3.96222,0.0694 -5.20788,2.72397 -0.95586,2.03691 -1.78282,2.78205 -3.27862,2.95422 -1.30445,0.15014 -2.15235,-0.16589 -2.4373,-0.90848 z m 12.79389,-10.10926 c 0,-0.14013 -0.35872,-1.28382 -0.79715,-2.54151 -0.91792,-2.63314 -1.65062,-2.46759 -2.7255,0.6158 -0.73272,2.10188 -0.6829,2.18052 1.38126,2.18052 1.17777,0 2.14139,-0.11466 2.14139,-0.25481 z m 11.04116,10.27902 c -0.91825,-0.91825 -1.28908,-20.43992 -0.43075,-22.67667 0.58144,-1.51522 4.34786,-1.51522 4.92931,0 0.2425,0.63195 0.44091,5.04478 0.44091,9.8063 l 0,8.65729 4.69599,0 c 3.75496,0 4.83434,0.2585 5.38635,1.28995 0.43795,0.81831 0.4341,1.74786 -0.0105,2.54237 -0.58473,1.04487 -1.81446,1.25243 -7.42024,1.25243 -4.25764,0 -7.0387,-0.31934 -7.59103,-0.87167 z m 17.28849,-0.94338 c -0.39971,-1.05132 -0.72674,-5.48585 -0.72674,-9.85451 l 0,-7.94303 -2.72397,-0.0111 c -3.51852,-0.0144 -4.72584,-0.82707 -4.42191,-2.9766 0.2429,-1.7179 0.33521,-1.73571 10.04489,-1.93773 8.20142,-0.17065 9.93488,-0.0191 10.62837,0.92934 0.73972,1.01162 0.8744,1.01402 1.25495,0.0223 0.57191,-1.49038 9.87252,-1.54584 12.71522,-0.0758 3.53302,1.82699 4.66763,6.2436 2.61512,10.17962 -1.03861,1.99172 -1.00187,2.34476 0.54802,5.26635 0.9137,1.72233 1.82527,3.12642 2.02571,3.12019 0.20045,-0.007 2.00112,-4.33733 4.00151,-9.62469 3.55023,-9.38385 3.69225,-9.61874 5.94802,-9.83767 2.93267,-0.28462 3.43485,0.49372 7.81267,12.10907 3.74472,9.9356 3.94494,12.08615 1.12525,12.08615 -1.37758,0 -2.1373,-0.6576 -3.147,-2.72397 -1.29387,-2.64799 -1.44061,-2.72397 -5.26062,-2.72397 -3.82944,0 -3.9622,0.0694 -5.20756,2.72397 -1.05644,2.25183 -1.70437,2.76473 -3.73819,2.95909 -4.20688,0.40204 -5.40848,-0.32009 -7.61975,-4.57925 -1.43049,-2.7553 -2.65288,-4.16981 -3.86674,-4.47446 -2.44971,-0.61484 -3.0033,0.20387 -3.26139,4.82344 -0.21818,3.9052 -0.27228,3.99515 -2.40238,3.99515 l -2.17918,0 -0.20197,-10.42099 c -0.1851,-9.55062 -0.30644,-10.37449 -1.45278,-9.86433 -0.68795,0.30616 -2.63078,0.69667 -4.3174,0.8678 l -3.06658,0.31114 -0.20219,9.55319 -0.20218,9.55319 -1.99722,0.22982 c -1.59362,0.18337 -2.1441,-0.15648 -2.72398,-1.68167 z m 44.28383,-9.98882 c -0.0438,-1.54565 -1.92122,-4.41375 -2.39129,-3.65316 -0.2447,0.39593 -0.77351,1.58416 -1.17513,2.64051 -0.68811,1.80985 -0.60557,1.92064 1.43097,1.92064 1.25842,0 2.15045,-0.37929 2.13545,-0.90799 z m -20.0893,-4.25963 c 1.25942,-2.01264 0.0717,-3.54909 -2.74351,-3.54909 -2.3324,0 -2.56517,0.18676 -2.56517,2.05811 0,1.13196 0.23292,2.29104 0.51761,2.57572 0.87015,0.87015 4.01307,0.15857 4.79107,-1.08474 z m 31.15621,15.19183 c -1.01667,-1.01667 -1.23135,-21.40735 -0.24182,-22.96794 0.38063,-0.60029 1.66455,-0.87164 3.43698,-0.72639 2.81291,0.23051 2.8417,0.26461 4.94945,5.8614 1.16605,3.09625 2.31114,5.62841 2.54464,5.62701 0.2335,-10e-4 1.40518,-2.53468 2.60373,-5.62954 2.16208,-5.58288 2.20138,-5.62883 5.0108,-5.85887 1.7743,-0.14529 3.05852,0.12594 3.43925,0.72639 0.33418,0.52704 0.61261,5.71431 0.61873,11.52726 0.0115,10.88165 -0.33679,12.31235 -2.99686,12.31235 -1.90561,0 -2.4052,-1.29459 -2.80316,-7.26392 l -0.36319,-5.44794 -1.46149,3.99515 c -1.38311,3.78093 -1.59495,3.99516 -3.95038,3.99516 -2.33315,0 -2.59186,-0.25 -4.13421,-3.99516 l -1.6453,-3.99515 -0.0339,4.9509 c -0.0186,2.72299 -0.37222,5.58316 -0.78579,6.35593 -0.84747,1.58351 -2.87867,1.84222 -4.18752,0.53336 z m 70.483596,0.0235 c -1.02961,-1.02961 -1.277789,-21.3952 -0.279893,-22.96798 0.436089,-0.68732 2.594012,-0.8796 8.152271,-0.72639 6.806942,0.18762 7.585968,0.34815 7.828293,1.61313 0.411675,2.149 -1.899821,3.31677 -6.565235,3.31677 -4.016557,0 -4.219518,0.0873 -4.219518,1.81599 0,1.68077 0.256881,1.81672 3.450363,1.82589 5.480462,0.0158 6.833571,0.5937 6.576617,2.809 -0.210871,1.81801 -0.43877,1.91219 -5.123833,2.11742 l -4.903147,0.21479 0,2.84056 0,2.84055 5.266344,0.21342 5.266343,0.21343 0,2.17917 0,2.17918 -7.276692,0.20515 c -5.039884,0.14208 -7.551879,-0.07 -8.171913,-0.69008 z m -72.808056,-48.98421 c -43.94236,-3.37134 -79.99044,-28.01412 -98.37446,-67.24965 -7.14413,-15.24713 -9.81684,-26.80052 -10.37971,-44.868608 -0.42893,-13.768482 0.21107,-20.369056 3.10426,-32.015921 11.63556,-46.840235 51.90849,-81.925996 99.99175,-87.112781 62.722652,-6.765951 118.674882,37.149248 127.7186829,100.242503 1.304586,9.101339 0.5340581,29.547387 -1.4632445,38.827117 -10.1492174,47.15466 -48.1870744,83.45381 -95.1501084,90.80078 -6.713,1.05019 -20.19515,1.77951 -25.44717,1.37656 z m 38.581245,-35.88577 c 3.770957,-0.70377 11.152736,-3.94441 14.00838,-6.14974 1.134473,-0.87612 1.216686,-1.26049 0.463686,-2.1678 -1.282104,-1.54484 -0.405676,-4.40593 2.606709,-8.50963 4.677632,-6.37221 8.762521,-8.71344 10.326588,-5.91861 0.566158,1.01166 0.991555,0.60639 2.478022,-2.36077 4.67878,-9.33942 5.366215,-17.96494 1.95555,-24.53694 -3.873058,-7.46299 -12.875448,-15.42675 -22.145724,-19.59073 -4.609605,-2.07052 -5.724915,-2.272 -12.681232,-2.29088 -11.131434,-0.0302 -17.873604,2.82895 -23.711744,10.05547 -13.32278,16.49109 -13.82087,36.81299 -1.2544,51.17836 7.76757,8.87949 17.10319,12.31638 27.954165,10.29127 z m -24.266185,-9.45074 c -3.00479,-2.36357 -7.64893,-9.93066 -9.22358,-15.02877 -2.68859,-8.70468 -1.61588,-18.29291 3.05301,-27.2885 5.5559,-10.70463 13.75088,-16.43394 23.917291,-16.72115 7.049861,-0.19917 7.033881,0.83629 -0.100519,6.51359 -9.144362,7.27676 -14.935662,15.0932 -17.543142,23.67779 -2.13945,7.04365 -1.68196,16.43175 1.12311,23.04738 1.10108,2.59685 2.17883,5.29358 2.395,5.99273 0.53819,1.74072 -1.28644,1.64344 -3.62117,-0.19307 z M -158.343,129.36832 c 7.47966,-1.67813 12.31704,-4.18439 17.5814,-9.10893 7.45624,-6.97495 11.09737,-13.89903 12.71265,-24.174745 1.74553,-11.104249 -2.0876,-22.549373 -10.90813,-32.570034 -5.35877,-6.087879 -18.79942,-13.84362 -20.20605,-11.65962 -1.08798,1.689247 -5.46476,3.181518 -10.60589,3.616104 -4.4033,0.372218 -5.79008,0.229344 -7.28562,-0.750567 -2.42535,-1.58915 -2.33067,-2.34929 0.51364,-4.123692 l 2.36077,-1.472746 -2.17918,0.444218 c -10.0151,2.041547 -17.25314,7.706317 -23.64214,18.503267 -5.75548,9.726334 -8.6184,26.130044 -6.21205,35.593225 1.66066,6.5307 4.55521,11.9981 8.4972,16.05002 3.78819,3.89382 11.75095,8.20034 17.93451,9.69956 5.69758,1.38138 15.1673,1.36104 21.43889,-0.0461 z m -17.84455,-3.18568 c -8.60992,-1.10281 -18.67359,-8.10494 -21.79704,-15.16602 -1.47035,-3.32396 -2.49183,-10.78809 -1.74332,-12.738677 0.67207,-1.751397 2.35579,-0.623637 3.77816,2.530627 1.69691,3.76306 7.38916,9.02385 12.15395,11.2327 5.5654,2.58 10.81471,3.44581 18.64701,3.07564 10.03302,-0.4742 14.35972,-2.28413 20.48972,-8.57116 4.10017,-4.2052 5.08994,-5.74588 6.59773,-10.270107 1.21969,-3.659789 2.18105,-5.401634 3.07713,-5.575337 1.19268,-0.231196 1.27668,0.292642 0.99019,6.174335 -0.27916,5.731209 -0.61445,6.999009 -3.09724,11.711279 -7.3095,13.87327 -20.79143,19.9413 -39.09629,17.59672 z M -64.256199,92.176793 c 15.629244,-6.020128 25.747017,-20.633354 25.742549,-37.180279 -0.0036,-13.456998 -7.895106,-27.523374 -19.961578,-35.581061 -4.083,-2.726514 -4.460826,-2.843841 -5.329758,-1.654954 -1.389058,1.900547 -12.937017,2.276244 -16.596022,0.539927 -3.026346,-1.436092 -3.484002,-3.647317 -0.982612,-4.747627 1.23154,-0.541736 0.530019,-0.643794 -2.846143,-0.414066 -6.299165,0.42863 -12.266484,3.729335 -19.282567,10.665771 -4.74427,4.690409 -6.16043,6.698651 -9.23744,13.099503 -6.3721,13.255301 -7.40873,24.700686 -3.19766,35.305301 3.79599,9.559381 14.97684,18.187424 27.118289,20.926664 6.713223,1.514572 19.440429,1.017778 24.572942,-0.959179 z M -89.555533,88.88174 c -9.655307,-2.562385 -15.436267,-6.824194 -20.136907,-14.845235 -1.65061,-2.81655 -2.00967,-4.40286 -2.25231,-9.95055 -0.22727,-5.196255 -0.0604,-6.789226 0.78442,-7.490397 1.35721,-1.126388 1.98058,-0.377746 3.80967,4.57529 1.62952,4.412652 7.687575,11.000565 12.529735,13.625652 6.643641,3.601729 18.193511,5.535269 25.260639,4.228838 8.538828,-1.578487 15.727743,-6.909494 20.158757,-14.948921 1.321184,-2.397094 2.715037,-4.194915 3.097439,-3.995157 0.974709,0.509157 0.681268,6.831973 -0.44756,9.643758 -1.6119,4.015068 -6.320774,10.465068 -9.557999,13.092138 -9.103962,7.388012 -20.456078,9.458826 -33.245884,6.064584 z"
       id="path4174"
       inkscape:connector-curvature="0" />
    <path
       style="fill:#fbed9f"
       d="m -96.731852,257.87036 c -3.689528,-1.81758 -4.530228,-4.60687 -4.287848,-14.22632 l 0.20509,-8.13905 1.815978,0 c 1.811826,0 1.816809,0.0192 2.179177,8.42755 0.404143,9.37769 1.025288,10.82837 4.628891,10.81073 4.165191,-0.0204 4.417503,-0.56082 4.814208,-10.31132 l 0.363196,-8.92696 1.997579,-0.22984 1.997578,-0.22985 -0.01068,8.94655 c -0.01213,10.13646 -0.584767,11.95623 -4.35775,13.84858 -3.158245,1.58401 -6.17116,1.59366 -9.345392,0.0299 z m 23.210694,-0.3451 c -4.205092,-2.19904 -5.864883,-5.36509 -5.864883,-11.18723 0,-5.26196 1.856629,-8.65622 5.825614,-10.65031 5.040756,-2.53256 13.060584,-0.88337 13.060584,2.68577 0,2.1501 -0.113681,2.17199 -4.088172,0.78698 -4.146596,-1.44496 -7.841993,-0.39747 -9.429777,2.67297 -1.653516,3.19753 -1.034005,8.75967 1.245944,11.18657 1.495308,1.59168 2.194918,1.80104 5.007494,1.49846 1.798148,-0.19344 4.168264,-0.58448 5.266932,-0.86897 1.707777,-0.44222 1.997579,-0.29664 1.997579,1.00346 0,3.84917 -7.844441,5.57953 -13.021315,2.8723 z m 37.900249,0.81302 c -1.298426,-0.39592 -2.409806,-1.03739 -2.469733,-1.42548 -0.375066,-2.42895 -0.187591,-2.52161 5.10207,-2.52161 4.306765,0 5.515859,-0.24908 6.170615,-1.27119 1.223963,-1.91067 -0.234552,-3.63735 -3.972008,-4.70233 -4.552336,-1.29717 -6.191368,-2.29051 -7.111481,-4.30996 -1.262332,-2.77051 -0.969044,-4.40286 1.234089,-6.8686 1.636562,-1.83164 2.751472,-2.35004 5.62954,-2.6176 3.996523,-0.37154 7.392341,0.62847 8.062242,2.37419 0.762763,1.98774 -0.745649,2.68404 -3.947034,1.822 -3.913409,-1.05377 -6.700721,-0.0336 -6.700721,2.45246 0,1.52129 0.48661,1.92563 3.087167,2.56521 4.239327,1.04263 6.320186,2.21839 8.05123,4.54924 1.227036,1.65219 1.360227,2.42967 0.796968,4.65195 -0.378196,1.49212 -1.53292,3.3039 -2.619755,4.11043 -2.249317,1.66919 -7.821654,2.25597 -11.313189,1.19129 z M -222.9172,257.37969 c -0.48695,-1.26898 7.27447,-21.52316 8.56015,-22.33852 1.2728,-0.8072 1.55255,-0.78006 3.02002,0.29298 1.69324,1.23813 9.45368,21.62699 8.56859,22.51208 -1.29617,1.29618 -3.37971,0.13848 -4.66557,-2.59235 l -1.29479,-2.74983 -4.15197,0.21718 c -4.01006,0.20975 -4.19569,0.31028 -5.43119,2.94115 -1.31953,2.80982 -3.82717,3.74493 -4.60524,1.71731 z m 12.72668,-9.34443 c -0.0296,-0.4994 -0.64828,-2.2155 -1.37479,-3.81356 l -1.32092,-2.90557 -1.16758,2.70064 c -1.78262,4.12325 -1.55847,4.92648 1.37479,4.92648 1.57837,0 2.52195,-0.34429 2.4885,-0.90799 z m 10.55307,9.43615 c -0.20427,-0.53232 -0.2803,-5.69253 -0.16895,-11.46714 l 0.20244,-10.49928 1.81598,0 1.81598,0 0.3632,9.4431 0.3632,9.4431 5.08474,0.3632 c 4.47942,0.31996 5.08475,0.53615 5.08475,1.81598 0,1.33942 -0.55362,1.46902 -7.09497,1.66084 -5.38982,0.15805 -7.18423,-0.0246 -7.46637,-0.7598 z m 17.55936,-0.19566 c -0.25061,-0.65307 -0.45565,-5.08318 -0.45565,-9.8447 l 0,-8.65729 -3.17982,0 c -3.82417,0 -5.4667,-1.4192 -3.69409,-3.19181 0.9335,-0.93351 2.78866,-1.16432 9.28657,-1.15543 8.63211,0.0118 10.23349,0.43883 9.81957,2.6183 -0.20066,1.05662 -1.08001,1.44795 -3.88502,1.72894 l -3.62566,0.36319 -0.3632,9.4431 c -0.34375,8.93761 -0.44573,9.45488 -1.90512,9.6631 -0.90946,0.12977 -1.72883,-0.26704 -1.99758,-0.9674 z m 13.78672,-0.0384 c -0.24251,-0.63193 -0.44092,-5.51173 -0.44092,-10.84398 0,-7.84512 0.2178,-9.9128 1.14148,-10.83647 2.15987,-2.15989 11.34482,-0.93546 13.56797,1.80871 1.56605,1.93309 1.65127,6.35339 0.16344,8.47757 -1.02151,1.45842 -0.95084,1.86598 0.90799,5.23591 1.10865,2.00991 2.21247,3.6591 2.45292,3.66485 0.24046,0.006 2.13091,-4.3671 4.20102,-9.71745 3.97964,-10.28572 5.22383,-11.73339 7.96931,-9.27257 1.83532,1.64503 9.10202,21.18925 8.21,22.08128 -1.30653,1.30652 -3.38659,0.15842 -4.67662,-2.5813 l -1.2948,-2.74983 -4.15196,0.21718 c -4.01006,0.20975 -4.19569,0.31028 -5.43119,2.94115 -1.18924,2.53236 -1.50083,2.72397 -4.42969,2.72397 -3.51329,0 -4.51103,-0.80231 -6.89382,-5.54348 -0.99407,-1.97796 -2.1487,-3.16185 -3.3868,-3.47259 -2.67844,-0.67225 -3.2645,-0.0346 -3.2645,3.55159 0,4.24896 -0.56553,5.46448 -2.54237,5.46448 -0.9133,0 -1.85897,-0.51705 -2.10146,-1.149 z m 30.7749,-9.20207 c -0.0105,-0.4994 -0.62663,-2.2155 -1.36924,-3.81356 l -1.35019,-2.90557 -1.17314,2.70064 c -1.78964,4.1199 -1.56547,4.92648 1.36925,4.92648 1.55979,0 2.53501,-0.35092 2.52332,-0.90799 z m -21.20796,-3.85475 c 0.88793,-0.62193 1.61442,-1.57921 1.61442,-2.1273 0,-1.67062 -2.16358,-3.27945 -4.41024,-3.27945 -2.03697,0 -2.12729,0.13878 -2.12729,3.26876 0,2.91727 0.1779,3.26877 1.65435,3.26877 0.9099,0 2.38084,-0.50885 3.26876,-1.13078 z m 31.9114,13.75222 c -0.28319,-0.2832 -0.5149,-5.35207 -0.5149,-11.26416 0,-10.07225 0.0932,-10.79916 1.48022,-11.54146 2.80137,-1.49925 4.15948,-0.21908 6.6091,6.22977 1.28142,3.37347 2.53436,6.13358 2.78429,6.13358 0.24993,0 1.41953,-2.65194 2.59912,-5.89321 2.3388,-6.42656 3.98301,-7.99852 6.7931,-6.49461 1.50938,0.8078 1.55648,1.21824 1.36307,11.87861 l -0.20033,11.0419 -1.81598,0 c -1.78317,0 -1.82279,-0.12468 -2.19271,-6.90072 l -0.37673,-6.90073 -1.26351,2.90557 c -2.48118,5.70571 -3.09414,6.53524 -4.99374,6.75826 -1.61255,0.1893 -2.05962,-0.22422 -3.14122,-2.90557 -2.94786,-7.30791 -2.87456,-7.3111 -3.27696,0.14247 -0.33738,6.24902 -0.51259,6.92076 -1.85524,7.11296 -0.81547,0.11673 -1.71438,-0.0195 -1.99758,-0.30266 z m 70.429412,-0.0306 c -0.266346,-0.26633 -0.484264,-5.32142 -0.484264,-11.23351 0,-12.50156 -0.14623,-12.25956 7.397768,-12.24325 6.321668,0.0137 7.984765,0.54099 7.712985,2.44554 -0.197404,1.38339 -0.754358,1.56137 -5.486056,1.75312 l -5.266343,0.21342 0,2.47736 0,2.47737 4.895636,0.21478 c 4.118659,0.1807 4.936998,0.43154 5.156216,1.58053 0.372399,1.95178 -1.105141,2.60561 -5.916865,2.6183 l -4.218523,0.0111 0.223366,3.08716 0.223366,3.08717 5.266343,0.21342 c 5.050199,0.20466 5.266344,0.28665 5.266344,1.99758 0,1.77365 -0.04206,1.78416 -7.142854,1.78416 -3.928577,0 -7.36078,-0.21792 -7.627119,-0.48427 z M -132.41268,208.2855 c -52.55687,-4.7609 -95.02957,-43.80585 -103.86399,-95.48167 -1.74964,-10.23433 -1.94423,-26.532115 -0.43435,-36.378674 5.03077,-32.80758 23.08402,-61.002764 50.7918,-79.3255638 38.37826,-25.3790532 88.247423,-25.3790532 126.625682,0 27.707782,18.3227998 45.761026,46.5179838 50.7917935,79.3255638 1.5098862,9.846559 1.3153003,26.144344 -0.4343462,36.378674 -8.2699833,48.3742 -46.2682223,86.16564 -94.7840893,94.26823 -8.38504,1.40039 -20.82232,1.92637 -28.6925,1.21344 z m 43.190162,-34.54644 c 4.760694,-1.24001 12.006995,-4.86186 13.889956,-6.94251 1.131065,-1.24981 1.134298,-1.3944 0.04053,-1.81411 -1.502238,-0.57646 -1.504526,-1.94076 -0.0081,-4.83451 1.545741,-2.98904 8.19077,-9.99396 9.480545,-9.99396 1.765554,0 1.836523,1.94492 0.189588,5.19592 l -1.599603,3.15759 1.624358,-1.45204 c 0.893398,-0.79863 3.28994,-4.8621 5.325647,-9.02996 4.143378,-8.48303 4.90091,-12.85323 3.444247,-19.86991 -1.799927,-8.67021 -12.535845,-19.63762 -24.068361,-24.58733 -13.279227,-5.699396 -28.787099,-2.51319 -37.037649,7.60966 -4.45696,5.46836 -9.14575,14.74052 -10.11746,20.00742 -2.37555,12.87606 1.23294,24.86809 10.23026,33.99807 8.38494,8.50857 17.881881,11.34897 28.606075,8.55567 z m -27.948722,-13.234 c -3.55402,-4.03132 -5.19439,-7.03857 -6.8078,-12.48051 -4.30524,-14.52138 3.63439,-33.74924 16.49265,-39.94116 4.80108,-2.31198 13.722845,-3.75908 14.584099,-2.36554 0.255051,0.41268 -1.45768,2.22882 -3.80607,4.03586 -7.263649,5.58926 -13.684009,13.13736 -16.997639,19.98333 -2.81151,5.80856 -3.01094,6.64691 -3.29343,13.84474 -0.27286,6.95247 -0.12161,8.13251 1.63376,12.74652 2.6894,7.06909 2.83468,7.62712 1.98565,7.62712 -0.41216,0 -2.11821,-1.55266 -3.79122,-3.45036 z m -40.00792,-30.71103 c 7.56545,-1.81363 12.03539,-4.20353 17.56455,-9.3911 8.22629,-7.71808 12.58734,-17.93628 12.56899,-29.449929 -0.0183,-11.469988 -3.87103,-19.934325 -13.44473,-29.537543 -4.32374,-4.337077 -6.9041,-6.222269 -11.68242,-8.535109 -6.68694,-3.236666 -7.84281,-3.516327 -7.84281,-1.897576 0,1.788399 -4.06921,3.311949 -9.99718,3.743026 -5.95865,0.433308 -8.78991,-0.508968 -7.52894,-2.505719 0.68527,-1.085135 5.10633,-2.264905 8.58494,-2.29091 1.27485,-0.0095 2.54598,-0.386361 2.82474,-0.837393 0.91543,-1.481201 -11.87052,-0.324755 -16.60844,1.50218 -5.37771,2.073639 -11.97976,8.111789 -16.6166,15.197332 -6.95928,10.634448 -10.13032,26.567652 -7.57416,38.057111 4.53802,20.39751 26.06526,31.62394 49.75206,25.94563 z m -18.81705,-4.2963 c -9.64499,-1.39451 -19.5213,-8.86832 -22.00216,-16.64993 -1.30379,-4.08958 -1.66853,-9.541288 -0.63833,-9.541288 0.33223,0 1.64971,1.613718 2.92772,3.586038 5.62457,8.68018 15.22143,13.09594 28.49736,13.11236 7.1943,0.009 11.57789,-1.02651 17.81322,-4.20755 4.92871,-2.51444 10.52858,-9.75889 12.6031,-16.304407 1.25713,-3.966494 2.20598,-3.335971 2.1862,1.452784 -0.0465,11.262023 -9.65554,23.298253 -21.66228,27.134053 -5.35244,1.70994 -13.60305,2.30304 -19.72483,1.41794 z M -69.134097,94.222575 c 6.51669,-1.208353 14.11574,-5.429194 19.476515,-10.818094 9.680375,-9.731151 13.899349,-22.76748 11.341722,-35.045079 -2.695911,-12.941397 -11.261194,-24.85176 -22.630322,-31.468359 -2.217581,-1.290588 -2.292988,-1.285954 -3.813559,0.234618 -1.30946,1.30946 -2.40401,1.55124 -7.022514,1.55124 -5.483099,0 -10.509355,-1.380502 -10.509355,-2.88648 0,-1.425654 3.917622,-2.343712 8.171912,-1.915024 4.472455,0.450675 5.746053,-0.54494 1.815981,-1.419618 -4.385869,-0.976118 -13.254908,-0.457431 -17.461954,1.021221 -13.468899,4.733934 -24.996099,19.740174 -28.518979,37.12633 -3.59886,17.761126 3.56307,32.209126 19.860572,40.065364 7.837533,3.778097 20.073857,5.262784 29.289981,3.553881 z m -19.455785,-5.830082 c -6.789944,-1.755087 -10.53268,-3.71854 -14.931438,-7.833059 -5.6674,-5.301196 -7.31423,-8.709835 -7.69281,-15.922801 -0.20378,-3.882502 -0.0304,-6.40155 0.47562,-6.907504 0.57756,-0.577562 0.92456,-0.413739 1.26293,0.596281 4.60874,13.756743 17.092166,21.585756 34.447892,21.604104 5.442363,0.0058 7.788726,-0.338419 11.1026,-1.628557 5.203061,-2.025632 12.278782,-8.387833 14.748196,-13.261002 2.249347,-4.438874 3.568932,-4.629385 2.900463,-0.418744 -1.258271,7.925754 -8.314606,17.24071 -16.273976,21.483015 -7.151332,3.811613 -16.849104,4.663824 -26.039477,2.288267 z"
       id="path4172"
       inkscape:connector-curvature="0" />
    <path
       style="fill:#f9e058"
       d="m -96.731852,257.87036 c -3.689528,-1.81758 -4.530228,-4.60687 -4.287848,-14.22632 l 0.20509,-8.13905 1.815978,0 c 1.811826,0 1.816809,0.0192 2.179177,8.42755 0.404143,9.37769 1.025288,10.82837 4.628891,10.81073 4.165191,-0.0204 4.417503,-0.56082 4.814208,-10.31132 l 0.363196,-8.92696 1.997579,-0.22984 1.997578,-0.22985 -0.01068,8.94655 c -0.01213,10.13646 -0.584767,11.95623 -4.35775,13.84858 -3.158245,1.58401 -6.17116,1.59366 -9.345392,0.0299 z m 23.210694,-0.3451 c -4.205092,-2.19904 -5.864883,-5.36509 -5.864883,-11.18723 0,-5.26196 1.856629,-8.65622 5.825614,-10.65031 5.040756,-2.53256 13.060584,-0.88337 13.060584,2.68577 0,2.1501 -0.113681,2.17199 -4.088172,0.78698 -4.146596,-1.44496 -7.841993,-0.39747 -9.429777,2.67297 -1.653516,3.19753 -1.034005,8.75967 1.245944,11.18657 1.495308,1.59168 2.194918,1.80104 5.007494,1.49846 1.798148,-0.19344 4.168264,-0.58448 5.266932,-0.86897 1.707777,-0.44222 1.997579,-0.29664 1.997579,1.00346 0,3.84917 -7.844441,5.57953 -13.021315,2.8723 z m 37.900249,0.81302 c -1.298426,-0.39592 -2.409806,-1.03739 -2.469733,-1.42548 -0.375066,-2.42895 -0.187591,-2.52161 5.10207,-2.52161 4.306765,0 5.515859,-0.24908 6.170615,-1.27119 1.223963,-1.91067 -0.234552,-3.63735 -3.972008,-4.70233 -4.552336,-1.29717 -6.191368,-2.29051 -7.111481,-4.30996 -1.262332,-2.77051 -0.969044,-4.40286 1.234089,-6.8686 1.636562,-1.83164 2.751472,-2.35004 5.62954,-2.6176 3.996523,-0.37154 7.392341,0.62847 8.062242,2.37419 0.762763,1.98774 -0.745649,2.68404 -3.947034,1.822 -3.913409,-1.05377 -6.700721,-0.0336 -6.700721,2.45246 0,1.52129 0.48661,1.92563 3.087167,2.56521 4.239327,1.04263 6.320186,2.21839 8.05123,4.54924 1.227036,1.65219 1.360227,2.42967 0.796968,4.65195 -0.378196,1.49212 -1.53292,3.3039 -2.619755,4.11043 -2.249317,1.66919 -7.821654,2.25597 -11.313189,1.19129 z M -222.9172,257.37969 c -0.48695,-1.26898 7.27447,-21.52316 8.56015,-22.33852 1.2728,-0.8072 1.55255,-0.78006 3.02002,0.29298 1.69324,1.23813 9.45368,21.62699 8.56859,22.51208 -1.29617,1.29618 -3.37971,0.13848 -4.66557,-2.59235 l -1.29479,-2.74983 -4.15197,0.21718 c -4.01006,0.20975 -4.19569,0.31028 -5.43119,2.94115 -1.31953,2.80982 -3.82717,3.74493 -4.60524,1.71731 z m 12.72668,-9.34443 c -0.0296,-0.4994 -0.64828,-2.2155 -1.37479,-3.81356 l -1.32092,-2.90557 -1.16758,2.70064 c -1.78262,4.12325 -1.55847,4.92648 1.37479,4.92648 1.57837,0 2.52195,-0.34429 2.4885,-0.90799 z m 10.55307,9.43615 c -0.20427,-0.53232 -0.2803,-5.69253 -0.16895,-11.46714 l 0.20244,-10.49928 1.81598,0 1.81598,0 0.3632,9.4431 0.3632,9.4431 5.08474,0.3632 c 4.47942,0.31996 5.08475,0.53615 5.08475,1.81598 0,1.33942 -0.55362,1.46902 -7.09497,1.66084 -5.38982,0.15805 -7.18423,-0.0246 -7.46637,-0.7598 z m 17.55936,-0.19566 c -0.25061,-0.65307 -0.45565,-5.08318 -0.45565,-9.8447 l 0,-8.65729 -3.17982,0 c -3.82417,0 -5.4667,-1.4192 -3.69409,-3.19181 0.9335,-0.93351 2.78866,-1.16432 9.28657,-1.15543 8.63211,0.0118 10.23349,0.43883 9.81957,2.6183 -0.20066,1.05662 -1.08001,1.44795 -3.88502,1.72894 l -3.62566,0.36319 -0.3632,9.4431 c -0.34375,8.93761 -0.44573,9.45488 -1.90512,9.6631 -0.90946,0.12977 -1.72883,-0.26704 -1.99758,-0.9674 z m 13.78672,-0.0384 c -0.24251,-0.63193 -0.44092,-5.51173 -0.44092,-10.84398 0,-7.84512 0.2178,-9.9128 1.14148,-10.83647 2.15987,-2.15989 11.34482,-0.93546 13.56797,1.80871 1.56605,1.93309 1.65127,6.35339 0.16344,8.47757 -1.02151,1.45842 -0.95084,1.86598 0.90799,5.23591 1.10865,2.00991 2.21247,3.6591 2.45292,3.66485 0.24046,0.006 2.13091,-4.3671 4.20102,-9.71745 3.97964,-10.28572 5.22383,-11.73339 7.96931,-9.27257 1.83532,1.64503 9.10202,21.18925 8.21,22.08128 -1.30653,1.30652 -3.38659,0.15842 -4.67662,-2.5813 l -1.2948,-2.74983 -4.15196,0.21718 c -4.01006,0.20975 -4.19569,0.31028 -5.43119,2.94115 -1.18924,2.53236 -1.50083,2.72397 -4.42969,2.72397 -3.51329,0 -4.51103,-0.80231 -6.89382,-5.54348 -0.99407,-1.97796 -2.1487,-3.16185 -3.3868,-3.47259 -2.67844,-0.67225 -3.2645,-0.0346 -3.2645,3.55159 0,4.24896 -0.56553,5.46448 -2.54237,5.46448 -0.9133,0 -1.85897,-0.51705 -2.10146,-1.149 z m 30.7749,-9.20207 c -0.0105,-0.4994 -0.62663,-2.2155 -1.36924,-3.81356 l -1.35019,-2.90557 -1.17314,2.70064 c -1.78964,4.1199 -1.56547,4.92648 1.36925,4.92648 1.55979,0 2.53501,-0.35092 2.52332,-0.90799 z m -21.20796,-3.85475 c 0.88793,-0.62193 1.61442,-1.57921 1.61442,-2.1273 0,-1.67062 -2.16358,-3.27945 -4.41024,-3.27945 -2.03697,0 -2.12729,0.13878 -2.12729,3.26876 0,2.91727 0.1779,3.26877 1.65435,3.26877 0.9099,0 2.38084,-0.50885 3.26876,-1.13078 z m 31.9114,13.75222 c -0.28319,-0.2832 -0.5149,-5.35207 -0.5149,-11.26416 0,-10.07225 0.0932,-10.79916 1.48022,-11.54146 2.80137,-1.49925 4.15948,-0.21908 6.6091,6.22977 1.28142,3.37347 2.53436,6.13358 2.78429,6.13358 0.24993,0 1.41953,-2.65194 2.59912,-5.89321 2.3388,-6.42656 3.98301,-7.99852 6.7931,-6.49461 1.50938,0.8078 1.55648,1.21824 1.36307,11.87861 l -0.20033,11.0419 -1.81598,0 c -1.78317,0 -1.82279,-0.12468 -2.19271,-6.90072 l -0.37673,-6.90073 -1.26351,2.90557 c -2.48118,5.70571 -3.09414,6.53524 -4.99374,6.75826 -1.61255,0.1893 -2.05962,-0.22422 -3.14122,-2.90557 -2.94786,-7.30791 -2.87456,-7.3111 -3.27696,0.14247 -0.33738,6.24902 -0.51259,6.92076 -1.85524,7.11296 -0.81547,0.11673 -1.71438,-0.0195 -1.99758,-0.30266 z m 70.429412,-0.0306 c -0.266346,-0.26633 -0.484264,-5.32142 -0.484264,-11.23351 0,-12.50156 -0.14623,-12.25956 7.397768,-12.24325 6.321668,0.0137 7.984765,0.54099 7.712985,2.44554 -0.197404,1.38339 -0.754358,1.56137 -5.486056,1.75312 l -5.266343,0.21342 0,2.47736 0,2.47737 4.895636,0.21478 c 4.118659,0.1807 4.936998,0.43154 5.156216,1.58053 0.372399,1.95178 -1.105141,2.60561 -5.916865,2.6183 l -4.218523,0.0111 0.223366,3.08716 0.223366,3.08717 5.266343,0.21342 c 5.050199,0.20466 5.266344,0.28665 5.266344,1.99758 0,1.77365 -0.04206,1.78416 -7.142854,1.78416 -3.928577,0 -7.36078,-0.21792 -7.627119,-0.48427 z M -129.8703,207.81886 c -53.43282,-3.79909 -96.76365,-42.86018 -105.73078,-95.31225 -3.93929,-23.042376 -0.007,-49.518917 10.44655,-70.332605 11.31669,-22.532877 31.25047,-42.05760063 53.51667,-52.418476 27.18526,-12.649801 57.76739,-14.407564 85.612601,-4.920738 18.539774,6.3164713 32.373885,15.17135211 46.279641,29.622468 C 3.7271561,59.634972 2.1804782,132.91636 -43.15396,175.9437 c -17.722459,16.82056 -38.815336,27.16746 -62.7454,30.77912 -5.87452,0.88662 -18.68083,1.47217 -23.97094,1.09604 z m 39.73422,-33.0415 c 6.610845,-1.3744 12.689564,-4.8754 19.254101,-11.08928 6.545586,-6.19594 10.584494,-12.2473 13.761894,-20.61897 1.604462,-4.22735 1.811673,-5.70541 1.508157,-10.75767 -0.208816,-3.47595 -0.865743,-6.8719 -1.615939,-8.35351 -4.011952,-7.92345 -13.044683,-16.2241 -22.666148,-20.82909 -5.573615,-2.66763 -5.809031,-2.71194 -14.383067,-2.70731 -8.393438,0.004 -8.914398,0.0968 -14.047118,2.48745 -6.64131,3.0933 -11.82172,8.60812 -16.40391,17.46284 -7.91564,15.29629 -5.94671,31.68011 5.34287,44.45909 3.51255,3.97595 10.58983,8.49534 15.28911,9.76327 4.195173,1.13191 9.087832,1.19611 13.96005,0.18318 z m 14.382,-11.78706 c 0,-1.41937 3.876181,-7.01343 6.855021,-9.89309 5.441405,-5.26024 4.279083,0.61194 -1.538164,7.77098 -2.414375,2.97126 -5.316857,4.12973 -5.316857,2.12211 z m -42.28982,-4.48894 c -7.55843,-10.72323 -8.35815,-23.72044 -2.21088,-35.93167 3.43871,-6.83079 9.01602,-12.48943 14.21722,-14.42453 4.44802,-1.65487 11.397281,-2.73491 11.397281,-1.77133 0,0.3664 -2.712719,2.97605 -6.028261,5.79923 -6.53217,5.56214 -12.47646,13.39046 -15.10461,19.892 -1.15001,2.8449 -1.68222,6.02364 -1.93507,11.55759 -0.31136,6.81453 -0.15255,8.19765 1.4805,12.89346 1.0061,2.89304 1.52841,5.26007 1.1607,5.26007 -0.36772,0 -1.70731,-1.47367 -2.97688,-3.27482 z m -40.0518,-27.67119 c 13.79332,-2.81299 25.74024,-13.6765 29.88797,-27.17756 3.22661,-10.5028 2.73095,-19.706408 -1.54173,-28.627064 -5.23039,-10.920197 -12.54269,-18.280054 -23.16122,-23.311846 -15.00132,-7.108656 -31.80858,-4.563341 -41.62656,6.303988 -7.64426,8.461279 -12.29049,19.119756 -13.64882,31.310478 -2.12498,19.071074 6.18477,33.529054 22.93206,39.899094 7.80411,2.96839 17.62153,3.54782 27.1583,1.60291 z m -18.0682,-6.16072 c -9.32567,-1.36643 -17.92515,-7.77864 -20.82449,-15.52781 -0.87963,-2.35104 -1.50111,-5.20573 -1.38106,-6.34374 l 0.21828,-2.06912 2.54237,3.43975 c 3.20276,4.33324 8.51045,8.36475 13.74274,10.43846 6.25171,2.47772 19.29367,2.8502 25.83237,0.73776 2.67093,-0.86288 6.0547,-2.33729 7.5195,-3.27645 4.51353,-2.89388 10.50666,-10.08146 11.40388,-13.676713 0.94146,-3.772532 2.05008,-3.187053 1.57416,0.831335 -0.68349,5.771008 -4.3931,12.563498 -9.3858,17.185848 -5.12615,4.74592 -6.73165,5.63155 -13.71951,7.56798 -5.55117,1.53831 -10.43393,1.73133 -17.52244,0.6927 z m -0.0744,-70.883592 c -1.00563,-1.005632 -0.40002,-1.650022 2.23971,-2.383112 3.9925,-1.108772 12.7305,-1.007353 12.35521,0.143405 -0.58421,1.791363 -13.11961,3.715024 -14.59492,2.239707 z m 112.212458,39.767877 c 9.327857,-3.545855 17.69031,-10.762395 21.952845,-18.94463 6.390356,-12.266753 6.93807,-22.067528 1.93192,-34.5698 -8.324077,-20.788409 -30.027254,-33.1119736 -48.722716,-27.665891 -9.322249,2.71561 -19.545357,12.271794 -25.004957,23.373705 -9.52098,19.360598 -7.71482,37.25995 4.9129,48.687371 5.40589,4.892049 12.853326,8.715182 19.763553,10.145586 7.328354,1.516954 19.815632,1.007695 25.166455,-1.026341 z m -25.166455,-6.145148 c -6.738058,-1.878639 -9.510864,-3.229983 -13.107883,-6.388213 -5.81567,-5.106218 -8.59001,-11.214175 -8.19116,-18.033545 l 0.23367,-3.995158 2.00106,4.074683 c 2.35331,4.791945 8.260928,10.644923 13.34425,13.220841 10.44393,5.292334 24.267203,6.13431 33.036501,2.012252 4.425036,-2.08001 10.545429,-7.590458 12.455571,-11.214269 1.413858,-2.682298 1.614436,-2.825347 1.848596,-1.318402 0.356651,2.295203 -2.861571,8.655922 -6.431397,12.71145 -5.887453,6.688504 -15.488026,10.694724 -25.382912,10.592034 -2.197337,-0.02281 -6.61017,-0.770557 -9.806296,-1.661673 z m 9.987894,-70.207105 c -2.035511,-0.818179 -2.100255,-1.910782 -0.149913,-2.529792 1.760346,-0.558712 11.711818,0.276697 13.034615,1.09423 0.506702,0.313155 0.696668,0.932797 0.42215,1.376985 -0.600589,0.971768 -10.921911,1.017204 -13.306852,0.05855 z"
       id="path4170"
       inkscape:connector-curvature="0" />
    <path
       style="fill:#f8dc3c"
       d="m -96.731852,257.87036 c -3.689528,-1.81758 -4.530228,-4.60687 -4.287848,-14.22632 l 0.20509,-8.13905 1.815978,0 c 1.811826,0 1.816809,0.0192 2.179177,8.42755 0.404143,9.37769 1.025288,10.82837 4.628891,10.81073 4.165191,-0.0204 4.417503,-0.56082 4.814208,-10.31132 l 0.363196,-8.92696 1.997579,-0.22984 1.997578,-0.22985 -0.01068,8.94655 c -0.01213,10.13646 -0.584767,11.95623 -4.35775,13.84858 -3.158245,1.58401 -6.17116,1.59366 -9.345392,0.0299 z m 23.210694,-0.3451 c -4.205092,-2.19904 -5.864883,-5.36509 -5.864883,-11.18723 0,-5.26196 1.856629,-8.65622 5.825614,-10.65031 5.040756,-2.53256 13.060584,-0.88337 13.060584,2.68577 0,2.1501 -0.113681,2.17199 -4.088172,0.78698 -4.146596,-1.44496 -7.841993,-0.39747 -9.429777,2.67297 -1.653516,3.19753 -1.034005,8.75967 1.245944,11.18657 1.495308,1.59168 2.194918,1.80104 5.007494,1.49846 1.798148,-0.19344 4.168264,-0.58448 5.266932,-0.86897 1.707777,-0.44222 1.997579,-0.29664 1.997579,1.00346 0,3.84917 -7.844441,5.57953 -13.021315,2.8723 z m 37.900249,0.81302 c -1.298426,-0.39592 -2.409806,-1.03739 -2.469733,-1.42548 -0.375066,-2.42895 -0.187591,-2.52161 5.10207,-2.52161 4.306765,0 5.515859,-0.24908 6.170615,-1.27119 1.223963,-1.91067 -0.234552,-3.63735 -3.972008,-4.70233 -4.552336,-1.29717 -6.191368,-2.29051 -7.111481,-4.30996 -1.262332,-2.77051 -0.969044,-4.40286 1.234089,-6.8686 1.636562,-1.83164 2.751472,-2.35004 5.62954,-2.6176 3.996523,-0.37154 7.392341,0.62847 8.062242,2.37419 0.762763,1.98774 -0.745649,2.68404 -3.947034,1.822 -3.913409,-1.05377 -6.700721,-0.0336 -6.700721,2.45246 0,1.52129 0.48661,1.92563 3.087167,2.56521 4.239327,1.04263 6.320186,2.21839 8.05123,4.54924 1.227036,1.65219 1.360227,2.42967 0.796968,4.65195 -0.378196,1.49212 -1.53292,3.3039 -2.619755,4.11043 -2.249317,1.66919 -7.821654,2.25597 -11.313189,1.19129 z M -222.9172,257.37969 c -0.48695,-1.26898 7.27447,-21.52316 8.56015,-22.33852 1.2728,-0.8072 1.55255,-0.78006 3.02002,0.29298 1.69324,1.23813 9.45368,21.62699 8.56859,22.51208 -1.29617,1.29618 -3.37971,0.13848 -4.66557,-2.59235 l -1.29479,-2.74983 -4.15197,0.21718 c -4.01006,0.20975 -4.19569,0.31028 -5.43119,2.94115 -1.31953,2.80982 -3.82717,3.74493 -4.60524,1.71731 z m 12.72668,-9.34443 c -0.0296,-0.4994 -0.64828,-2.2155 -1.37479,-3.81356 l -1.32092,-2.90557 -1.16758,2.70064 c -1.78262,4.12325 -1.55847,4.92648 1.37479,4.92648 1.57837,0 2.52195,-0.34429 2.4885,-0.90799 z m 10.55307,9.43615 c -0.20427,-0.53232 -0.2803,-5.69253 -0.16895,-11.46714 l 0.20244,-10.49928 1.81598,0 1.81598,0 0.3632,9.4431 0.3632,9.4431 5.08474,0.3632 c 4.47942,0.31996 5.08475,0.53615 5.08475,1.81598 0,1.33942 -0.55362,1.46902 -7.09497,1.66084 -5.38982,0.15805 -7.18423,-0.0246 -7.46637,-0.7598 z m 17.55936,-0.19566 c -0.25061,-0.65307 -0.45565,-5.08318 -0.45565,-9.8447 l 0,-8.65729 -3.17982,0 c -3.82417,0 -5.4667,-1.4192 -3.69409,-3.19181 0.9335,-0.93351 2.78866,-1.16432 9.28657,-1.15543 8.63211,0.0118 10.23349,0.43883 9.81957,2.6183 -0.20066,1.05662 -1.08001,1.44795 -3.88502,1.72894 l -3.62566,0.36319 -0.3632,9.4431 c -0.34375,8.93761 -0.44573,9.45488 -1.90512,9.6631 -0.90946,0.12977 -1.72883,-0.26704 -1.99758,-0.9674 z m 13.78672,-0.0384 c -0.24251,-0.63193 -0.44092,-5.51173 -0.44092,-10.84398 0,-7.84512 0.2178,-9.9128 1.14148,-10.83647 2.15987,-2.15989 11.34482,-0.93546 13.56797,1.80871 1.56605,1.93309 1.65127,6.35339 0.16344,8.47757 -1.02151,1.45842 -0.95084,1.86598 0.90799,5.23591 1.10865,2.00991 2.21247,3.6591 2.45292,3.66485 0.24046,0.006 2.13091,-4.3671 4.20102,-9.71745 3.97964,-10.28572 5.22383,-11.73339 7.96931,-9.27257 1.83532,1.64503 9.10202,21.18925 8.21,22.08128 -1.30653,1.30652 -3.38659,0.15842 -4.67662,-2.5813 l -1.2948,-2.74983 -4.15196,0.21718 c -4.01006,0.20975 -4.19569,0.31028 -5.43119,2.94115 -1.18924,2.53236 -1.50083,2.72397 -4.42969,2.72397 -3.51329,0 -4.51103,-0.80231 -6.89382,-5.54348 -0.99407,-1.97796 -2.1487,-3.16185 -3.3868,-3.47259 -2.67844,-0.67225 -3.2645,-0.0346 -3.2645,3.55159 0,4.24896 -0.56553,5.46448 -2.54237,5.46448 -0.9133,0 -1.85897,-0.51705 -2.10146,-1.149 z m 30.7749,-9.20207 c -0.0105,-0.4994 -0.62663,-2.2155 -1.36924,-3.81356 l -1.35019,-2.90557 -1.17314,2.70064 c -1.78964,4.1199 -1.56547,4.92648 1.36925,4.92648 1.55979,0 2.53501,-0.35092 2.52332,-0.90799 z m -21.20796,-3.85475 c 0.88793,-0.62193 1.61442,-1.57921 1.61442,-2.1273 0,-1.67062 -2.16358,-3.27945 -4.41024,-3.27945 -2.03697,0 -2.12729,0.13878 -2.12729,3.26876 0,2.91727 0.1779,3.26877 1.65435,3.26877 0.9099,0 2.38084,-0.50885 3.26876,-1.13078 z m 31.9114,13.75222 c -0.28319,-0.2832 -0.5149,-5.35207 -0.5149,-11.26416 0,-10.07225 0.0932,-10.79916 1.48022,-11.54146 2.80137,-1.49925 4.15948,-0.21908 6.6091,6.22977 1.28142,3.37347 2.53436,6.13358 2.78429,6.13358 0.24993,0 1.41953,-2.65194 2.59912,-5.89321 2.3388,-6.42656 3.98301,-7.99852 6.7931,-6.49461 1.50938,0.8078 1.55648,1.21824 1.36307,11.87861 l -0.20033,11.0419 -1.81598,0 c -1.78317,0 -1.82279,-0.12468 -2.19271,-6.90072 l -0.37673,-6.90073 -1.26351,2.90557 c -2.48118,5.70571 -3.09414,6.53524 -4.99374,6.75826 -1.61255,0.1893 -2.05962,-0.22422 -3.14122,-2.90557 -2.94786,-7.30791 -2.87456,-7.3111 -3.27696,0.14247 -0.33738,6.24902 -0.51259,6.92076 -1.85524,7.11296 -0.81547,0.11673 -1.71438,-0.0195 -1.99758,-0.30266 z m 70.429412,-0.0306 c -0.266346,-0.26633 -0.484264,-5.32142 -0.484264,-11.23351 0,-12.50156 -0.14623,-12.25956 7.397768,-12.24325 6.321668,0.0137 7.984765,0.54099 7.712985,2.44554 -0.197404,1.38339 -0.754358,1.56137 -5.486056,1.75312 l -5.266343,0.21342 0,2.47736 0,2.47737 4.895636,0.21478 c 4.118659,0.1807 4.936998,0.43154 5.156216,1.58053 0.372399,1.95178 -1.105141,2.60561 -5.916865,2.6183 l -4.218523,0.0111 0.223366,3.08716 0.223366,3.08717 5.266343,0.21342 c 5.050199,0.20466 5.266344,0.28665 5.266344,1.99758 0,1.77365 -0.04206,1.78416 -7.142854,1.78416 -3.928577,0 -7.36078,-0.21792 -7.627119,-0.48427 z m -84.019372,-52.17412 c -25.82523,-4.43507 -46.65417,-15.48149 -64.74224,-34.33539 -29.34374,-30.58613 -38.91615,-75.94962 -24.54581,-116.322088 17.09253,-48.020245 65.57721,-79.314157 116.08868,-74.9282 11.05517,0.959931 17.859127,2.34371 27.669461,5.627379 32.050387,10.7277561 59.005721,37.258017 70.411176,69.300821 14.3703489,40.372468 4.79793,85.735958 -24.54581,116.322088 -18.465734,19.24756 -40.513671,30.69651 -66.697357,34.63431 -6.95766,1.04636 -26.833,0.86975 -33.6381,-0.29892 z m 52.032646,-30.43372 c 6.006734,-1.5994 12.441,-5.4751 18.354951,-11.05616 5.997676,-5.66007 8.991037,-10.09431 12.868555,-19.06296 5.83253,-13.49055 1.653988,-25.97533 -12.260797,-36.6332 -13.254254,-10.151938 -27.150414,-12.179749 -40.316125,-5.88316 -4.27103,2.04264 -6.02859,3.43481 -9.21822,7.30174 -7.8263,9.48819 -11.29152,18.36917 -11.29152,28.93893 0,6.50323 1.63518,13.41458 4.4028,18.60917 3.84757,7.22153 12.67936,14.98537 19.87736,17.47374 4.45776,1.54107 12.435265,1.68259 17.582996,0.3119 z m 14.069048,-12.91926 c 0,-1.31117 3.370969,-6.046 6.075886,-8.53414 2.523778,-2.32152 2.428744,-1.08053 -0.223932,2.92428 -2.7776,4.19342 -5.851954,7.14058 -5.851954,5.60986 z m -44.665884,-6.66014 c -5.75637,-8.78534 -6.01269,-22.29554 -0.61778,-32.56207 4.97674,-9.47074 11.50913,-14.75859 19.28905,-15.61412 l 3.839651,-0.42223 -4.352981,3.90373 c -2.39414,2.14705 -5.28039,4.88436 -6.41389,6.0829 -9.07039,9.59092 -13.58924,23.67914 -11.18365,34.86683 0.60132,2.79661 0.99088,5.19482 0.86568,5.32937 -0.12521,0.13454 -0.76694,-0.57844 -1.42608,-1.58441 z m -37.11531,-24.43127 c 7.72118,-1.97474 12.23849,-4.5862 18.24698,-10.54856 10.89457,-10.81094 15.32157,-27.529675 10.96738,-41.418651 -1.34905,-4.303169 -5.57447,-11.494663 -9.58422,-16.311908 -9.09701,-10.929029 -24.83519,-17.632882 -37.59696,-16.01485 -9.30434,1.179675 -13.16026,3.083826 -19.74351,9.74984 -6.28275,6.361729 -9.68381,11.514465 -12.06712,18.282139 -9.5704,27.17622 0.43607,50.00552 24.77898,56.53215 5.98836,1.60555 18.17968,1.4738 24.99847,-0.27016 z m -18.46094,-7.30061 c -11.20899,-1.32061 -20.57724,-8.69835 -22.26747,-17.5362 l -0.46259,-2.41877 3.06608,3.44221 c 2.12247,2.38285 4.97344,4.38735 9.26364,6.51323 6.14756,3.04624 6.27248,3.07334 15.48714,3.36044 9.91434,0.30891 13.19948,-0.32151 20.3661,-3.90821 3.22214,-1.61261 7.93997,-6.11964 10.50723,-10.03778 1.90898,-2.91347 2.1418,-1.77713 0.42916,2.09458 -3.99602,9.03365 -11.09845,15.03284 -20.94185,17.68888 -6.01377,1.62268 -7.72482,1.71148 -15.44744,0.80162 z m -0.22026,-71.181044 c 0.50914,-0.541271 3.21783,-1.034971 6.53753,-1.191545 6.94338,-0.327501 5.04733,0.910366 -2.51559,1.642344 -3.94333,0.381654 -4.72278,0.29429 -4.02194,-0.450799 z m 108.502467,42.440085 c 10.641406,-3.125673 20.928508,-11.702412 25.618728,-21.359288 3.829032,-7.883739 5.112828,-13.655027 4.605116,-20.70218 C -37.342132,35.070354 -51.180703,17.288576 -68.126962,11.947247 -75.1677,9.7280602 -85.362579,9.7771716 -90.943204,12.05715 c -12.392896,5.063157 -23.008086,17.695671 -27.841956,33.133068 -1.26242,4.031659 -1.59512,6.890042 -1.6064,13.801453 -0.0159,9.728122 1.12727,13.839843 5.70297,20.512744 4.8246,7.035879 15.339183,13.784288 24.619425,15.801102 6.431949,1.397804 18.946504,1.364419 23.807942,-0.06349 z m -22.788254,-8.692409 c -6.906923,-1.895056 -11.064863,-4.335305 -15.215953,-8.930063 -3.579,-3.961518 -4.90962,-6.746361 -5.36171,-11.221388 l -0.38131,-3.774508 2.15411,3.316423 c 6.57805,10.12742 17.725371,15.446303 32.463456,15.489756 9.870668,0.02913 13.817731,-1.338261 21.025895,-7.283898 l 4.967804,-4.097666 -1.715288,3.051937 c -2.390557,4.253419 -8.661959,9.97545 -13.199012,12.042792 -3.930639,1.791022 -11.326067,3.292896 -15.800949,3.208867 -1.398305,-0.02622 -5.419975,-0.837269 -8.937043,-1.802252 z m 10.80613,-69.975902 c -1.244549,-0.487547 -1.265724,-0.599717 -0.191099,-1.01209 1.626995,-0.624334 10.67068,0.25808 10.67068,1.04116 0,0.758143 -8.530496,0.734477 -10.479581,-0.02906 z"
       id="path4168"
       inkscape:connector-curvature="0" />
    <path
       style="fill:#a0a0a0"
       d="m -96.731852,257.87036 c -3.689528,-1.81758 -4.530228,-4.60687 -4.287848,-14.22632 l 0.20509,-8.13905 1.815978,0 c 1.811826,0 1.816809,0.0192 2.179177,8.42755 0.404143,9.37769 1.025288,10.82837 4.628891,10.81073 4.165191,-0.0204 4.417503,-0.56082 4.814208,-10.31132 l 0.363196,-8.92696 1.997579,-0.22984 1.997578,-0.22985 -0.01068,8.94655 c -0.01213,10.13646 -0.584767,11.95623 -4.35775,13.84858 -3.158245,1.58401 -6.17116,1.59366 -9.345392,0.0299 z m 23.210694,-0.3451 c -4.205092,-2.19904 -5.864883,-5.36509 -5.864883,-11.18723 0,-5.26196 1.856629,-8.65622 5.825614,-10.65031 5.040756,-2.53256 13.060584,-0.88337 13.060584,2.68577 0,2.1501 -0.113681,2.17199 -4.088172,0.78698 -4.146596,-1.44496 -7.841993,-0.39747 -9.429777,2.67297 -1.653516,3.19753 -1.034005,8.75967 1.245944,11.18657 1.495308,1.59168 2.194918,1.80104 5.007494,1.49846 1.798148,-0.19344 4.168264,-0.58448 5.266932,-0.86897 1.707777,-0.44222 1.997579,-0.29664 1.997579,1.00346 0,3.84917 -7.844441,5.57953 -13.021315,2.8723 z m 37.900249,0.81302 c -1.298426,-0.39592 -2.409806,-1.03739 -2.469733,-1.42548 -0.375066,-2.42895 -0.187591,-2.52161 5.10207,-2.52161 4.306765,0 5.515859,-0.24908 6.170615,-1.27119 1.223963,-1.91067 -0.234552,-3.63735 -3.972008,-4.70233 -4.552336,-1.29717 -6.191368,-2.29051 -7.111481,-4.30996 -1.262332,-2.77051 -0.969044,-4.40286 1.234089,-6.8686 1.636562,-1.83164 2.751472,-2.35004 5.62954,-2.6176 3.996523,-0.37154 7.392341,0.62847 8.062242,2.37419 0.762763,1.98774 -0.745649,2.68404 -3.947034,1.822 -3.913409,-1.05377 -6.700721,-0.0336 -6.700721,2.45246 0,1.52129 0.48661,1.92563 3.087167,2.56521 4.239327,1.04263 6.320186,2.21839 8.05123,4.54924 1.227036,1.65219 1.360227,2.42967 0.796968,4.65195 -0.378196,1.49212 -1.53292,3.3039 -2.619755,4.11043 -2.249317,1.66919 -7.821654,2.25597 -11.313189,1.19129 z M -222.9172,257.37969 c -0.48695,-1.26898 7.27447,-21.52316 8.56015,-22.33852 1.2728,-0.8072 1.55255,-0.78006 3.02002,0.29298 1.69324,1.23813 9.45368,21.62699 8.56859,22.51208 -1.29617,1.29618 -3.37971,0.13848 -4.66557,-2.59235 l -1.29479,-2.74983 -4.15197,0.21718 c -4.01006,0.20975 -4.19569,0.31028 -5.43119,2.94115 -1.31953,2.80982 -3.82717,3.74493 -4.60524,1.71731 z m 12.72668,-9.34443 c -0.0296,-0.4994 -0.64828,-2.2155 -1.37479,-3.81356 l -1.32092,-2.90557 -1.16758,2.70064 c -1.78262,4.12325 -1.55847,4.92648 1.37479,4.92648 1.57837,0 2.52195,-0.34429 2.4885,-0.90799 z m 10.55307,9.43615 c -0.20427,-0.53232 -0.2803,-5.69253 -0.16895,-11.46714 l 0.20244,-10.49928 1.81598,0 1.81598,0 0.3632,9.4431 0.3632,9.4431 5.08474,0.3632 c 4.47942,0.31996 5.08475,0.53615 5.08475,1.81598 0,1.33942 -0.55362,1.46902 -7.09497,1.66084 -5.38982,0.15805 -7.18423,-0.0246 -7.46637,-0.7598 z m 17.55936,-0.19566 c -0.25061,-0.65307 -0.45565,-5.08318 -0.45565,-9.8447 l 0,-8.65729 -3.17982,0 c -3.82417,0 -5.4667,-1.4192 -3.69409,-3.19181 0.9335,-0.93351 2.78866,-1.16432 9.28657,-1.15543 8.63211,0.0118 10.23349,0.43883 9.81957,2.6183 -0.20066,1.05662 -1.08001,1.44795 -3.88502,1.72894 l -3.62566,0.36319 -0.3632,9.4431 c -0.34375,8.93761 -0.44573,9.45488 -1.90512,9.6631 -0.90946,0.12977 -1.72883,-0.26704 -1.99758,-0.9674 z m 13.78672,-0.0384 c -0.24251,-0.63193 -0.44092,-5.51173 -0.44092,-10.84398 0,-7.84512 0.2178,-9.9128 1.14148,-10.83647 2.15987,-2.15989 11.34482,-0.93546 13.56797,1.80871 1.56605,1.93309 1.65127,6.35339 0.16344,8.47757 -1.02151,1.45842 -0.95084,1.86598 0.90799,5.23591 1.10865,2.00991 2.21247,3.6591 2.45292,3.66485 0.24046,0.006 2.13091,-4.3671 4.20102,-9.71745 3.97964,-10.28572 5.22383,-11.73339 7.96931,-9.27257 1.83532,1.64503 9.10202,21.18925 8.21,22.08128 -1.30653,1.30652 -3.38659,0.15842 -4.67662,-2.5813 l -1.2948,-2.74983 -4.15196,0.21718 c -4.01006,0.20975 -4.19569,0.31028 -5.43119,2.94115 -1.18924,2.53236 -1.50083,2.72397 -4.42969,2.72397 -3.51329,0 -4.51103,-0.80231 -6.89382,-5.54348 -0.99407,-1.97796 -2.1487,-3.16185 -3.3868,-3.47259 -2.67844,-0.67225 -3.2645,-0.0346 -3.2645,3.55159 0,4.24896 -0.56553,5.46448 -2.54237,5.46448 -0.9133,0 -1.85897,-0.51705 -2.10146,-1.149 z m 30.7749,-9.20207 c -0.0105,-0.4994 -0.62663,-2.2155 -1.36924,-3.81356 l -1.35019,-2.90557 -1.17314,2.70064 c -1.78964,4.1199 -1.56547,4.92648 1.36925,4.92648 1.55979,0 2.53501,-0.35092 2.52332,-0.90799 z m -21.20796,-3.85475 c 0.88793,-0.62193 1.61442,-1.57921 1.61442,-2.1273 0,-1.67062 -2.16358,-3.27945 -4.41024,-3.27945 -2.03697,0 -2.12729,0.13878 -2.12729,3.26876 0,2.91727 0.1779,3.26877 1.65435,3.26877 0.9099,0 2.38084,-0.50885 3.26876,-1.13078 z m 31.9114,13.75222 c -0.28319,-0.2832 -0.5149,-5.35207 -0.5149,-11.26416 0,-10.07225 0.0932,-10.79916 1.48022,-11.54146 2.80137,-1.49925 4.15948,-0.21908 6.6091,6.22977 1.28142,3.37347 2.53436,6.13358 2.78429,6.13358 0.24993,0 1.41953,-2.65194 2.59912,-5.89321 2.3388,-6.42656 3.98301,-7.99852 6.7931,-6.49461 1.50938,0.8078 1.55648,1.21824 1.36307,11.87861 l -0.20033,11.0419 -1.81598,0 c -1.78317,0 -1.82279,-0.12468 -2.19271,-6.90072 l -0.37673,-6.90073 -1.26351,2.90557 c -2.48118,5.70571 -3.09414,6.53524 -4.99374,6.75826 -1.61255,0.1893 -2.05962,-0.22422 -3.14122,-2.90557 -2.94786,-7.30791 -2.87456,-7.3111 -3.27696,0.14247 -0.33738,6.24902 -0.51259,6.92076 -1.85524,7.11296 -0.81547,0.11673 -1.71438,-0.0195 -1.99758,-0.30266 z m 70.429412,-0.0306 c -0.266346,-0.26633 -0.484264,-5.32142 -0.484264,-11.23351 0,-12.50156 -0.14623,-12.25956 7.397768,-12.24325 6.321668,0.0137 7.984765,0.54099 7.712985,2.44554 -0.197404,1.38339 -0.754358,1.56137 -5.486056,1.75312 l -5.266343,0.21342 0,2.47736 0,2.47737 4.895636,0.21478 c 4.118659,0.1807 4.936998,0.43154 5.156216,1.58053 0.372399,1.95178 -1.105141,2.60561 -5.916865,2.6183 l -4.218523,0.0111 0.223366,3.08716 0.223366,3.08717 5.266343,0.21342 c 5.050199,0.20466 5.266344,0.28665 5.266344,1.99758 0,1.77365 -0.04206,1.78416 -7.142854,1.78416 -3.928577,0 -7.36078,-0.21792 -7.627119,-0.48427 z"
       id="path4166"
       inkscape:connector-curvature="0" />
    <path
       style="fill:#5d5d5d"
       d="m -95.094804,257.88554 c -0.849262,-0.16663 -2.320206,-1.12808 -3.268765,-2.13656 -1.591293,-1.69181 -1.743281,-2.53133 -1.965491,-10.85719 -0.22997,-8.61641 -0.17535,-9.0236 1.210348,-9.0236 1.35722,0 1.466898,0.56837 1.693627,8.77673 0.273712,9.90919 0.764615,10.83586 5.740264,10.83586 4.057809,0 4.620516,-1.20862 5.034857,-10.81417 0.313656,-7.27136 0.536593,-8.45296 1.634383,-8.66241 1.151157,-0.21963 1.271186,0.54802 1.271186,8.13006 0,4.7139 -0.361402,9.16579 -0.827041,10.18775 -1.395865,3.06359 -5.679065,4.51402 -10.523368,3.56353 z m 22.609489,-0.5246 c -4.206574,-1.86963 -5.742145,-4.35257 -6.013961,-9.72425 -0.294552,-5.8212 1.164849,-9.10666 4.980501,-11.21227 2.98593,-1.64775 9.532496,-1.44841 11.325777,0.34487 1.909453,1.90945 0.550307,2.66771 -2.746061,1.53202 -6.004779,-2.06881 -10.809588,1.69284 -10.809588,8.46276 0,3.98731 2.126492,7.76846 4.737458,8.42378 1.960837,0.49214 6.321733,0.0809 8.513767,-0.8028 0.905593,-0.3651 1.271187,-0.16611 1.271187,0.69188 0,1.41027 -4.113959,3.32242 -7.058993,3.28099 -1.111504,-0.0156 -3.00154,-0.46428 -4.200087,-0.99698 z m 38.135593,0.49369 c -0.99879,-0.18363 -2.220981,-0.66647 -2.715974,-1.07297 -1.697782,-1.39427 -0.118314,-1.99755 4.080748,-1.55866 5.5144,0.57637 7.520615,-0.42609 7.212756,-3.60404 -0.207458,-2.14157 -0.558211,-2.42042 -4.744983,-3.77225 -5.53062,-1.78574 -7.028673,-3.17887 -7.028673,-6.53635 0,-4.15859 2.241385,-5.80537 7.901535,-5.80537 4.711307,0 7.204525,1.09249 5.769087,2.52793 -0.464993,0.46499 -1.651722,0.45245 -3.421315,-0.0362 -3.59262,-0.99197 -6.597501,0.35262 -6.915116,3.09428 -0.25532,2.20396 0.907387,3.07906 5.147971,3.8746 5.558775,1.04284 8.261542,5.36327 6.041186,9.65697 -1.62685,3.14598 -5.611387,4.2829 -11.327222,3.23202 z m -188.146558,-0.68621 c -0.006,-0.32892 1.67453,-5.10582 3.73458,-10.61531 3.59403,-9.61205 5.12359,-11.95107 7.04046,-10.76639 1.01332,0.62627 8.12212,18.63884 8.12212,20.58016 0,2.19239 -1.74128,1.42909 -3.26876,-1.43286 -1.29973,-2.43523 -1.79102,-2.74617 -4.66328,-2.95139 -4.68393,-0.33467 -6.1898,0.26481 -7.36352,2.93142 -0.93609,2.12673 -3.57367,3.77769 -3.6016,2.25437 z m 12.77894,-8.47266 c 0.45608,-1.18851 -2.10935,-7.94298 -3.14837,-8.28932 -0.82045,-0.27348 -3.93124,8.1719 -3.25803,8.84511 0.85557,0.85558 6.03732,0.40603 6.4064,-0.55579 z m 10.98697,8.50607 c -0.28071,-0.28072 -0.51039,-5.19562 -0.51039,-10.92202 0,-9.87625 0.0736,-10.41162 1.4317,-10.41162 1.34244,0 1.44434,0.60006 1.63438,9.6247 l 0.20268,9.62469 4.9142,0.3632 c 2.70281,0.19976 4.9112,0.69007 4.90754,1.08959 -0.008,0.82769 -11.79234,1.41922 -12.58011,0.63146 z m 17.27284,-0.44986 c -0.18204,-0.4994 -0.41694,-4.83051 -0.522,-9.6247 l -0.19101,-8.71671 -3.45037,-0.2214 c -3.47426,-0.22293 -4.74936,-1.66707 -2.30136,-2.60645 1.76622,-0.67777 15.06499,-0.50091 16.19588,0.21539 1.73473,1.09876 0.12588,2.24926 -3.14539,2.24926 -2.20063,0 -3.28088,0.34583 -3.58909,1.149 -0.2425,0.63195 -0.44091,5.04478 -0.44091,9.8063 0,7.28997 -0.17569,8.6573 -1.11238,8.6573 -0.61182,0 -1.26133,-0.4086 -1.44337,-0.90799 z m 13.89255,-0.24101 c -0.24251,-0.63195 -0.44092,-5.36016 -0.44092,-10.50713 0,-8.79301 0.0931,-9.40793 1.54086,-10.18278 2.44455,-1.30828 9.20172,-0.17221 11.26847,1.89455 1.99198,1.99198 2.3385,6.17688 0.62893,7.59569 -0.59927,0.49735 -1.08959,1.29652 -1.08959,1.77592 0,1.57499 4.48885,9.19753 5.26415,8.9391 0.4168,-0.13894 2.42649,-4.59315 4.46596,-9.89825 3.62281,-9.42365 4.99685,-11.48362 6.88245,-10.31825 1.06997,0.66127 8.81577,20.48462 8.32488,21.30535 -0.7445,1.24478 -2.14504,0.3742 -3.50887,-2.18114 -1.29972,-2.43523 -1.79102,-2.74617 -4.66328,-2.95139 -4.68416,-0.33469 -6.18984,0.26483 -7.36351,2.93199 -0.9065,2.05998 -1.44915,2.41154 -4.01249,2.5995 -2.91022,0.21339 -3.00947,0.14082 -5.44794,-3.98326 -3.92312,-6.63501 -8.65805,-7.40123 -8.65805,-1.40105 0,3.85732 -0.54932,5.53015 -1.81598,5.53015 -0.51379,0 -1.13257,-0.51705 -1.37507,-1.149 z m 30.48525,-7.81098 c 0.48179,-1.25553 -1.98177,-7.90521 -3.06212,-8.26533 -0.84533,-0.28177 -3.16671,5.5179 -3.16671,7.91161 0,1.0614 0.57971,1.32338 2.92836,1.32338 1.77194,0 3.07532,-0.38292 3.30047,-0.96966 z m -20.75667,-4.11508 c 1.74836,-1.74837 1.81646,-2.78948 0.32201,-4.92312 -0.84345,-1.20418 -1.85865,-1.61442 -3.99516,-1.61442 l -2.86438,0 0,3.5109 c 0,1.931 0.21791,3.72882 0.48426,3.99516 1.00969,1.00969 4.65893,0.42581 6.05327,-0.96852 z m 31.73426,12.60593 c -0.27467,-0.27467 -0.4994,-5.14966 -0.4994,-10.83331 0,-8.72719 0.17759,-10.40205 1.14221,-10.77221 2.17321,-0.83394 3.66351,0.93204 6.01852,7.13182 1.30075,3.42437 2.64866,6.22612 2.99535,6.22612 0.34668,0 1.68453,-2.79314 2.97299,-6.20698 2.3324,-6.17977 3.87636,-7.99185 6.08664,-7.14369 1.0038,0.38519 1.13397,1.88587 0.96061,11.07487 -0.16743,8.87489 -0.38037,10.62931 -1.29012,10.62931 -0.88817,0 -1.1277,-1.44353 -1.29576,-7.80872 -0.1134,-4.29479 -0.47163,-7.80871 -0.79607,-7.80871 -0.32445,0 -1.57921,2.53329 -2.78836,5.62954 -1.87162,4.79262 -2.45126,5.62954 -3.89899,5.62954 -1.45458,0 -2.00697,-0.81422 -3.81925,-5.62954 -1.16529,-3.09625 -2.39194,-5.62954 -2.72588,-5.62954 -0.33395,0 -0.69995,3.48733 -0.81334,7.74962 -0.19055,7.16231 -0.78775,9.22328 -2.24915,7.76188 z m 70.444914,-0.0151 c -0.266346,-0.26637 -0.484264,-5.13455 -0.484264,-10.8182 0,-11.86719 -0.411276,-11.22194 7.141736,-11.2046 8.510731,0.0195 9.244591,2.64656 0.848579,3.03769 l -4.72155,0.21995 0,2.90557 0,2.90557 4.949811,0.21585 c 4.204867,0.18337 4.91448,0.40201 4.715034,1.45278 -0.183465,0.96655 -1.265469,1.31633 -4.949811,1.60013 l -4.715034,0.3632 0,3.63196 0,3.63196 5.266344,0.21342 c 4.028811,0.16328 5.266344,0.46199 5.266344,1.27119 0,0.84626 -1.282998,1.05777 -6.416462,1.05777 -3.529061,0 -6.634388,-0.21792 -6.900727,-0.48427 z"
       id="path4164"
       inkscape:connector-curvature="0" />
    <path
       style="fill:#252525"
       d="m -95.833741,256.97851 c -3.230709,-1.38434 -3.891283,-3.45402 -3.891283,-12.19205 0,-4.97699 0.285072,-8.19188 0.726392,-8.19188 0.432472,0 0.726392,2.74837 0.726392,6.79233 0,10.31499 1.328869,12.82026 6.800252,12.82026 1.876017,0 2.929823,-0.49888 4.04291,-1.91394 1.314865,-1.67158 1.505506,-2.92101 1.505506,-9.86683 0,-6.04324 0.218027,-7.87851 0.907991,-7.64315 0.655888,0.22374 0.900726,2.56258 0.881825,8.4237 -0.02499,7.74999 -0.11076,8.19856 -1.912082,9.99988 -2.064879,2.06488 -7.013295,2.96058 -9.787903,1.77168 z m 23.348426,-0.33733 c -3.047201,-1.34506 -4.74231,-3.47106 -5.517131,-6.91955 -0.931017,-4.14364 0.212383,-8.52075 2.937719,-11.24609 2.042652,-2.04265 2.663593,-2.24416 6.915414,-2.24416 2.569191,0 5.044635,0.37338 5.500983,0.82973 0.622039,0.62203 -0.358794,0.73432 -3.918501,0.44858 -4.530632,-0.36368 -4.847484,-0.28188 -6.914317,1.78495 -5.77009,5.7701 -2.549862,16.91253 4.887828,16.91253 1.602784,0 3.752629,-0.31878 4.777424,-0.70841 1.024801,-0.38963 1.863268,-0.42161 1.863268,-0.071 0,0.84581 -4.088251,2.23958 -6.464324,2.20382 -1.039053,-0.0156 -2.869816,-0.4613 -4.068363,-0.99034 z m 37.590798,0.50614 c -3.333043,-0.64197 -1.496033,-1.5473 2.336935,-1.1517 5.008242,0.5169 7.650959,-0.91545 7.650959,-4.1468 0,-2.51087 -1.600802,-3.71792 -6.750145,-5.0898 -5.553523,-1.47957 -7.292608,-5.63082 -3.815557,-9.10787 1.418433,-1.41844 2.495135,-1.77252 5.266343,-1.7319 1.91586,0.0281 4.137131,0.33197 4.936163,0.67533 1.759576,0.75612 1.120866,0.88344 -3.713637,0.74028 -4.179174,-0.12374 -6.092659,1.13767 -6.092659,4.01641 0,2.08093 2.151836,3.60071 6.073896,4.28982 3.16707,0.55647 6.274773,3.23792 6.274773,5.41414 0,5.15929 -4.725545,7.52538 -12.167071,6.09209 z m -186.862963,-0.75855 c 0.003,-1.02648 7.35547,-19.43019 8.04095,-20.12625 1.215,-1.23377 2.65815,1.15396 6.10246,10.09662 3.27352,8.49923 4.22544,13.77453 1.49235,8.27024 -1.40962,-2.8389 -2.72282,-3.4812 -7.14985,-3.49704 -3.64001,-0.013 -5.26123,0.931 -6.19398,3.60671 -0.67528,1.93712 -2.29578,3.10354 -2.29193,1.64972 z m 12.79109,-7.03062 c 0.66635,-1.73647 -2.67688,-9.95421 -3.94977,-9.70865 -1.36806,0.26391 -4.19101,7.84403 -3.54662,9.52329 0.61386,1.5997 6.89407,1.75499 7.49639,0.18536 z m 10.45202,-2.59408 c 0,-6.2954 0.27672,-10.16949 0.72639,-10.16949 0.44534,0 0.7264,3.49661 0.7264,9.03703 0,6.43195 0.26174,9.20644 0.90799,9.6247 0.49939,0.32321 3.03268,0.78139 5.62954,1.01817 l 4.72154,0.4305 -6.35593,0.11429 -6.35593,0.11429 0,-10.16949 z m 17.43341,0.86464 c 0,-10.38824 0.0373,-10.30774 -4.78095,-10.30774 -1.36563,0 -2.48297,-0.32687 -2.48297,-0.72639 0,-0.93747 15.74028,-0.97657 16.31878,-0.0405 0.2371,0.38363 -1.10435,0.78374 -3.0443,0.90799 l -3.46818,0.22213 -0.3632,9.38438 c -0.25517,6.59318 -0.63326,9.47387 -1.27119,9.68523 -0.6952,0.23034 -0.90799,-1.90814 -0.90799,-9.12507 z m 14.13675,8.40449 c -0.20946,-0.54585 -0.28887,-5.22455 -0.17647,-10.39714 l 0.20437,-9.40468 4.88989,0.057 c 5.97818,0.0697 7.82198,1.34602 7.82198,5.41456 0,1.51743 -0.47814,3.10087 -1.08959,3.60832 -1.56248,1.29675 -1.36884,2.41478 1.08959,6.29132 1.19854,1.88992 2.17917,3.86253 2.17917,4.38359 0,2.00506 -1.44393,0.7921 -3.40425,-2.85975 -2.22409,-4.14317 -5.04563,-6.04275 -7.90838,-5.32425 -1.59455,0.40021 -1.76243,0.8175 -1.76243,4.38079 0,3.76833 -1.04109,5.94224 -1.84388,3.85022 z m 9.52433,-10.87915 c 3.19739,-3.3863 0.37312,-8.10704 -4.6035,-7.69472 l -2.71375,0.22484 -0.22347,3.9264 c -0.15006,2.63653 0.0886,4.13663 0.72639,4.56629 1.24161,0.83642 5.68915,0.16886 6.81433,-1.02281 z m 8.30018,11.40825 c 0,-0.92936 7.42505,-19.68213 8.03759,-20.29978 1.47324,-1.48556 2.78115,0.97417 7.99798,15.0415 2.08509,5.6225 1.70496,7.84611 -0.53744,3.14376 -1.23278,-2.58516 -2.64294,-3.29867 -6.55253,-3.31544 -3.64378,-0.0156 -5.7922,1.13963 -6.63949,3.57018 -0.42777,1.22708 -1.12163,2.23104 -1.54193,2.23104 -0.4203,0 -0.76418,-0.16706 -0.76418,-0.37126 z m 12.79254,-7.20415 c 0.65692,-1.71191 -2.67577,-9.95515 -3.92516,-9.70865 -1.32668,0.26174 -4.17765,7.94299 -3.55265,9.57173 0.59698,1.55571 6.88916,1.67091 7.47781,0.13692 z m 10.61367,-2.77568 c 0.19043,-9.78069 0.28117,-10.35109 1.64654,-10.35109 1.15516,0 1.95651,1.351 3.99516,6.73543 1.80443,4.76583 2.86877,6.67469 3.63974,6.52774 0.6175,-0.11769 2.20952,-3.03601 3.67437,-6.73542 2.0157,-5.09056 2.8953,-6.52775 3.99516,-6.52775 1.32083,0 1.42318,0.65721 1.61192,10.35109 0.12684,6.51481 -0.0662,10.35109 -0.521,10.35109 -0.42415,0 -0.80737,-3.37488 -0.92794,-8.17191 -0.25766,-10.2517 -1.27807,-10.7579 -4.39291,-2.17918 -2.91168,8.01924 -3.94474,7.99256 -7.02987,-0.18159 -3.36103,-8.90518 -4.40004,-8.3906 -4.40004,2.17917 0,5.23357 -0.27875,8.35351 -0.74634,8.35351 -0.48536,0 -0.67586,-3.61944 -0.54479,-10.35109 z m 70.460044,0 0.201545,-10.35109 5.377554,-0.21566 c 3.078545,-0.12347 5.702666,0.10944 6.138015,0.54479 0.529685,0.52969 -0.672378,0.76046 -3.96109,0.76046 -5.317576,0 -6.464891,0.70901 -6.464891,3.99516 0,3.20879 1.172404,3.99516 5.956416,3.99516 5.872468,0 5.2954,1.33899 -0.690072,1.60119 l -4.903148,0.21479 -0.225537,3.5517 c -0.124046,1.95344 0.13675,3.9147 0.579544,4.35835 0.442795,0.44366 2.99586,1.00038 5.67348,1.23716 l 4.868397,0.4305 -6.375879,0.11429 -6.375872,0.11429 0.201538,-10.35109 z"
       id="path4162"
       inkscape:connector-curvature="0" />
  </g>
</svg>
