<?xml version="1.0" encoding="UTF-8" standalone="no"?>
<!-- Created with Inkscape (http://www.inkscape.org/) -->

<svg
   xmlns:dc="http://purl.org/dc/elements/1.1/"
   xmlns:cc="http://creativecommons.org/ns#"
   xmlns:rdf="http://www.w3.org/1999/02/22-rdf-syntax-ns#"
   xmlns:svg="http://www.w3.org/2000/svg"
   xmlns="http://www.w3.org/2000/svg"
   xmlns:sodipodi="http://sodipodi.sourceforge.net/DTD/sodipodi-0.dtd"
   xmlns:inkscape="http://www.inkscape.org/namespaces/inkscape"
   id="svg4190"
   version="1.1"
   inkscape:version="0.91 r13725"
   width="100"
   height="100"
   viewBox="0 0 100 100"
   sodipodi:docname="api50.svg">
  <metadata
     id="metadata4196">
    <rdf:RDF>
      <cc:Work
         rdf:about="">
        <dc:format>image/svg+xml</dc:format>
        <dc:type
           rdf:resource="http://purl.org/dc/dcmitype/StillImage" />
        <dc:title />
      </cc:Work>
    </rdf:RDF>
  </metadata>
  <defs
     id="defs4194">
    <clipPath
       clipPathUnits="userSpaceOnUse"
       id="clipPath4308">
      <rect
         style="opacity:0.12300002;fill:#ff0000;fill-opacity:1;fill-rule:nonzero;stroke:none;stroke-width:3.5999999;stroke-linecap:round;stroke-linejoin:round;stroke-miterlimit:4;stroke-dasharray:none;stroke-opacity:1"
         id="rect4310"
         width="240"
         height="240"
         x="45.153286"
         y="35.599773" />
    </clipPath>
    <clipPath
       clipPathUnits="userSpaceOnUse"
       id="clipPath4184">
      <circle
         style="opacity:0.18500001;fill:#ff0000;fill-rule:evenodd;stroke:none;stroke-width:1px;stroke-linecap:butt;stroke-linejoin:miter;stroke-opacity:1"
         id="circle4186"
         cx="165.15329"
         cy="155.59978"
         r="117.6" />
    </clipPath>
  </defs>
  <sodipodi:namedview
     pagecolor="#ffffff"
     bordercolor="#666666"
     borderopacity="1"
     objecttolerance="10"
     gridtolerance="10"
     guidetolerance="10"
     inkscape:pageopacity="0"
     inkscape:pageshadow="2"
     inkscape:window-width="1920"
     inkscape:window-height="1017"
     id="namedview4192"
     showgrid="false"
     fit-margin-top="0"
     fit-margin-left="0"
     fit-margin-right="0"
     fit-margin-bottom="0"
     inkscape:zoom="0.99674932"
     inkscape:cx="105.02248"
     inkscape:cy="72.587909"
     inkscape:window-x="-8"
     inkscape:window-y="-8"
     inkscape:window-maximized="1"
     inkscape:current-layer="svg4190" />
  <g
     id="g4288"
     transform="matrix(0.41666667,0,0,0.41666667,-18.81387,-14.833239)"
     clip-path="url(#clipPath4184)">
    <path
       style="fill:#fefefe"
       d="m 34.110882,180.94011 0,-185.9564164 131.113798,0 131.1138,0 0,185.9564164 0,185.95642 -131.1138,0 -131.113798,0 0,-185.95642 z"
       id="path4304"
       inkscape:connector-curvature="0" />
    <path
       style="fill:#c3e8b9"
       d="m 185.38659,318.52753 c -8.58505,-4.38224 -7.10961,-19.63995 2.14006,-22.13063 7.20943,-1.9413 13.03183,3.11196 13.03183,11.31034 0,4.5046 -1.51064,8.10632 -4.23344,10.09346 -2.59275,1.89225 -7.95705,2.2487 -10.93845,0.72683 z M 194.9,314.6627 c 1.82974,-1.82973 2.49309,-8.55807 1.16086,-11.77437 -1.34536,-3.24799 -4.91168,-4.65315 -8.25955,-3.25433 -2.86337,1.1964 -3.83081,2.67578 -4.08429,6.24558 -0.3621,5.09957 0.0301,6.6487 2.24354,8.86216 1.90479,1.90479 2.58138,2.15307 4.85972,1.78335 1.45577,-0.23624 3.29164,-1.07432 4.07972,-1.86239 z m -64.90534,3.7709 c 0,-0.28657 1.84647,-5.35316 4.10328,-11.25908 3.88007,-10.15388 4.20955,-10.73804 6.0567,-10.73804 1.85078,0 2.16951,0.5727 6.0662,10.89978 2.26204,5.99488 4.1128,11.06147 4.1128,11.25908 0,0.19762 -0.80407,0.3593 -1.78682,0.3593 -1.45528,0 -1.94835,-0.53912 -2.65736,-2.90556 l -0.87053,-2.90557 -4.85349,0 -4.8535,0 -0.95893,2.90557 c -0.75537,2.2888 -1.31972,2.90556 -2.65864,2.90556 -0.93484,0 -1.69971,-0.23447 -1.69971,-0.52104 z m 12.17435,-12.55402 c -0.86248,-2.39709 -1.79912,-4.35835 -2.08142,-4.35835 -0.2823,0 -0.99974,1.38922 -1.5943,3.08717 -0.59458,1.69794 -1.31402,3.6592 -1.59878,4.35835 -0.45272,1.11151 -0.0555,1.27119 3.16245,1.27119 l 3.68022,0 -1.56817,-4.35836 z m 11.0702,1.81598 0,-11.25908 5.40744,0 c 4.66894,0 5.68577,0.23942 7.44552,1.75309 1.67877,1.44402 2.03808,2.33689 2.03808,5.06457 0,4.59531 -1.89466,6.38712 -7.22076,6.82881 l -4.03832,0.33489 0,4.2684 c 0,4.0687 -0.085,4.2684 -1.81598,4.2684 l -1.81598,0 0,-11.25908 z m 9.75826,-1.32783 c 1.51757,-1.10968 1.74195,-4.33268 0.41309,-5.93385 -0.52119,-0.628 -2.10269,-1.09183 -3.72276,-1.09183 l -2.81663,0 0,3.99516 0,3.99516 2.40354,0 c 1.32195,0 2.99719,-0.43409 3.72276,-0.96464 z m 9.12794,1.32783 0,-11.25908 1.81598,0 1.81598,0 0,11.25908 0,11.25908 -1.81598,0 -1.81598,0 0,-11.25908 z M 157.96076,272.74551 C 130.22967,270.77382 103.97766,258.95118 84.335337,239.58817 61.956744,217.52779 50.145861,189.20648 50.104541,157.50614 50.064267,126.6089 61.994358,97.911981 83.983964,76.011792 114.84753,45.273721 160.70758,34.554004 201.80876,48.470416 c 25.64631,8.683562 46.61199,25.220938 61.34636,48.388987 16.34186,25.695627 21.44668,59.277527 13.6332,89.685507 -11.45374,44.5749 -48.91168,78.18231 -94.85662,85.10575 -5.87785,0.88574 -18.68491,1.47069 -23.97094,1.09485 z m 16.17394,-39.5711 c 1.49174,-1.63433 4.22823,-4.49995 6.08109,-6.36804 2.6135,-2.63501 3.71283,-4.51031 4.90315,-8.36409 1.72194,-5.575 1.8676,-9.78174 0.84437,-24.38602 -0.37947,-5.41606 -0.85623,-21.53604 -1.05946,-35.82218 l -0.36953,-25.97481 1.83791,0.46129 c 1.48711,0.37324 2.23828,-0.007 3.93552,-1.9913 1.15368,-1.34892 2.11089,-2.8361 2.12712,-3.30484 0.0682,-1.97003 4.23076,-5.59209 9.43163,-8.20704 6.43,-3.23294 8.22507,-4.85097 6.11553,-5.51237 -4.47361,-1.4026 -4.82031,-3.25745 -1.43703,-7.68839 l 2.5212,-3.30193 -5.21374,0.32768 c -4.59003,0.28847 -5.45963,0.13291 -7.26932,-1.30041 -1.8497,-1.46502 -2.03158,-1.997059 -1.81598,-5.312248 0.21505,-3.306646 0.0535,-3.783501 -1.57638,-4.653552 -2.22237,-1.186322 -9.56379,-0.862867 -11.19796,0.493373 -0.69088,0.573385 -1.1507,2.089627 -1.1507,3.794426 0,1.764661 -0.38521,2.987238 -1.01768,3.22994 -0.55972,0.214787 -3.41989,-0.472053 -6.35593,-1.52631 -12.03703,-4.322194 -13.06318,-4.185051 -14.37267,1.920872 -1.02911,4.798589 -2.46007,6.433249 -5.63157,6.433249 -2.68824,0 -4.96149,-1.21315 -9.12546,-4.86992 -1.49934,-1.316697 -3.02127,-2.394002 -3.38208,-2.394002 -0.85445,0 -2.97176,6.232832 -2.97176,8.748142 0,4.01602 -3.8146,7.0553 -10.89588,8.68129 -6.5938,1.51406 -6.53428,1.82621 0.80402,4.21729 3.7527,1.22276 7.84436,2.42632 9.09257,2.67457 1.43954,0.28631 3.11227,1.50013 4.57417,3.31928 1.31097,1.63131 2.93697,2.8679 3.77103,2.8679 0.80647,0 2.1334,0.35702 2.94874,0.79338 1.17742,0.63013 1.39124,1.24935 1.0392,3.00956 -0.26699,1.33489 -0.0811,2.65212 0.46739,3.31244 1.55649,1.87377 1.14111,26.94745 -0.81474,49.18002 -1.97673,22.46999 -1.63457,31.19553 1.43765,36.66182 0.90466,1.60961 1.88616,2.92656 2.18112,2.92656 0.29497,0 0.89609,1.09015 1.33582,2.42256 1.64632,4.98841 7.28381,8.37927 14.03431,8.44144 3.14321,0.029 3.71189,-0.2418 6.17433,-2.93963 z m -13.76666,-3.02314 c -1.5172,-1.5172 -2.93857,-3.9449 -3.55677,-6.07493 -1.50136,-5.173 -1.00721,-22.30147 1.16234,-40.29009 0.99172,-8.22276 1.81307,-17.86562 1.82522,-21.42857 0.013,-3.80315 0.2691,-6.02819 0.62028,-5.38851 1.20901,2.20215 4.4826,41.67235 4.36547,52.63515 -0.0623,5.82847 0.17421,8.77743 0.71843,8.95884 0.5705,0.19016 0.81018,-2.60394 0.80761,-9.41482 -0.004,-9.40795 -0.56511,-17.10004 -3.57084,-48.91041 -0.79274,-8.38983 -1.40866,-19.18411 -1.36872,-23.9873 0.0865,-10.39549 -1.0878,-13.90068 -6.50401,-19.41463 -3.72939,-3.7967 -3.72449,-3.94877 0.0761,-2.36078 3.55778,1.48654 4.83359,1.37936 4.83359,-0.40607 0,-0.82261 0.29483,-1.31343 0.65518,-1.09073 1.80822,1.11754 11.38697,16.42358 12.29157,19.64089 0.78543,2.79348 0.99873,8.36588 0.91087,23.79569 -0.0673,11.82873 0.37637,28.02515 1.07464,39.22519 1.88695,30.26642 0.6287,35.84259 -8.28096,36.69869 -3.26863,0.31408 -3.72196,0.15042 -6.06,-2.18761 z m 18.26324,-8.95137 c -0.0174,-2.76637 -0.35231,-8.46196 -0.74422,-12.65688 -0.3919,-4.19492 -1.03782,-20.3753 -1.43538,-35.95642 -0.39755,-15.58111 -0.91572,-34.70339 -1.15149,-42.49394 -0.30096,-9.94513 -0.17018,-15.12147 0.43906,-17.37662 1.17691,-4.35648 2.17165,-2.64711 2.18618,3.75676 0.009,3.7797 0.25095,4.90315 1.05783,4.90315 0.5757,0 1.26952,0.36049 1.54183,0.80109 0.44825,0.72528 1.8828,37.94339 2.97895,77.28608 0.48008,17.23113 -0.14396,22.35382 -3.05644,25.08996 l -1.78466,1.6766 -0.0317,-5.02978 z m -27.49816,-2.12419 c -1.33855,-3.04888 -0.62737,-24.37603 1.4049,-42.13075 1.33525,-11.66529 1.52283,-16.38734 1.21191,-30.50848 -0.31764,-14.42581 -0.54933,-17.02297 -1.69684,-19.0209 -2.05632,-3.58026 -0.4333,-3.84689 2.61162,-0.42902 4.26753,4.79021 4.65839,7.26698 4.07473,25.82059 -0.41487,13.18768 -0.98079,19.1433 -3.08743,32.49132 -1.4187,8.9891 -2.80057,20.75666 -3.07082,26.15012 -0.44855,8.95204 -0.5747,9.61646 -1.44807,7.62712 z M 131.52361,111.51803 c 1.54749,-0.79024 1.97184,-1.63901 2.32959,-4.65974 0.2406,-2.03142 1.12789,-4.66314 1.97177,-5.84825 2.26552,-3.18163 1.6806,-5.27032 -1.71043,-6.107814 -3.43166,-0.847533 -4.74671,-0.143499 -6.56664,3.515571 -0.74644,1.500763 -2.11831,3.075463 -3.0486,3.499333 l -1.69144,0.77067 1.77742,2.33032 c 1.92368,2.52206 2.23074,4.7104 0.98706,7.03425 -0.74104,1.38466 -0.63907,1.4442 1.63438,0.95435 1.33361,-0.28735 3.27621,-0.95726 4.31689,-1.48869 z m 23.77637,-9.57308 c 0.36251,-0.69915 0.883,-2.814809 1.15665,-4.701468 0.36093,-2.488409 1.02927,-3.848542 2.43409,-4.953581 2.41428,-1.899072 4.83592,-1.551566 12.70938,1.82379 l 5.64902,2.421733 -0.44255,-2.359017 c -0.3096,-1.650268 -0.0971,-2.704518 0.70739,-3.508976 1.37457,-1.374566 8.48323,-2.966709 11.36046,-2.544421 1.86525,0.273763 1.97812,0.167332 1.27431,-1.201554 -1.689,-3.285073 -4.24662,-6.057473 -6.41787,-6.956833 -1.93956,-0.803398 -2.85957,-0.764957 -6.09397,0.254593 -3.49351,1.101232 -4.1288,1.106034 -7.65843,0.05782 -4.90943,-1.45795 -6.47259,-1.027722 -9.3712,2.579208 -1.87753,2.336339 -2.82091,2.921797 -4.67831,2.903353 -1.2796,-0.01271 -2.96105,-0.503026 -3.73657,-1.089588 -1.5841,-1.198162 -4.59241,-1.382775 -6.17874,-0.379177 -0.90324,0.571446 -0.91684,1.341131 -0.0967,5.467395 0.8461,4.256782 0.82211,4.948649 -0.21124,6.090494 -1.08264,1.196296 -0.99803,1.446334 1.18627,3.505736 4.22017,3.978863 7.21043,4.900153 8.40798,2.590473 z m 51.51066,-2.547191 c 1.21774,-0.962746 1.1538,-5.010879 -0.10636,-6.73426 -0.75081,-1.026784 -2.23551,-1.489678 -5.71439,-1.781593 l -4.70003,-0.394387 1.07427,1.639554 c 0.72825,1.111453 0.91927,2.465833 0.59304,4.204809 -0.44498,2.371961 -0.30967,2.6374 1.79588,3.522712 2.35913,0.991936 5.48066,0.789886 7.05759,-0.456835 z"
       id="path4302"
       inkscape:connector-curvature="0" />
    <path
       style="fill:#a8de99"
       d="m 186.65362,318.90214 c -4.58808,-1.92345 -6.64068,-5.4233 -6.64128,-11.32391 -7.3e-4,-7.13936 3.61921,-11.14175 10.0771,-11.14175 6.87337,0 10.36742,3.84542 10.36255,11.40461 -0.004,6.69003 -3.38991,10.91998 -9.23111,11.53329 -1.51341,0.1589 -3.56867,-0.0536 -4.56726,-0.47224 z m 7.62427,-3.76106 c 2.29171,-1.97702 3.29,-5.91305 2.53998,-10.01455 -0.75023,-4.10271 -2.88184,-6.11466 -6.47831,-6.11466 -3.53681,0 -5.60671,1.75629 -6.65408,5.64594 -1.05927,3.93384 -0.25195,7.5569 2.23893,10.04777 2.55625,2.55626 5.70491,2.72041 8.35348,0.4355 z m -63.9884,2.54238 c 0.24765,-0.69915 2.15931,-5.76574 4.24813,-11.25908 3.48724,-9.171 3.94691,-9.98779 5.62018,-9.9866 1.67703,0.001 2.13411,0.82654 5.73249,10.35109 2.15058,5.69238 4.0651,10.75839 4.25447,11.25778 0.21725,0.57293 -0.31206,0.90799 -1.4344,0.90799 -1.44583,0 -1.94165,-0.54379 -2.64925,-2.90556 l -0.87053,-2.90557 -5.02643,0 -5.02643,0 -0.87053,2.90557 c -0.7076,2.36177 -1.20342,2.90556 -2.64925,2.90556 -1.38128,0 -1.67811,-0.28403 -1.32845,-1.27118 z m 13.25405,-8.35351 c -0.2055,-0.4994 -0.94619,-2.6241 -1.64597,-4.72155 -0.69979,-2.09746 -1.4628,-3.81356 -1.69558,-3.81356 -0.23278,0 -1.03232,1.7161 -1.77676,3.81356 -0.74443,2.09745 -1.50988,4.22215 -1.701,4.72155 -0.25043,0.6544 0.70551,0.90799 3.42273,0.90799 2.73119,0 3.66725,-0.25024 3.39658,-0.90799 z m 9.69567,-1.63439 0,-11.25908 4.75762,0 c 5.77177,0 8.59619,1.30274 9.70203,4.47498 1.81485,5.20607 -1.83526,9.32648 -8.26198,9.32648 l -2.56571,0 0,4.35835 c 0,4.16465 -0.0807,4.35835 -1.81598,4.35835 l -1.81598,0 0,-11.25908 z m 10.65433,-2.26288 c 1.11492,-1.70158 1.13319,-2.09925 0.17521,-3.81355 -0.84866,-1.51867 -1.70222,-1.96001 -4.13355,-2.13725 l -3.06403,-0.22336 0,4.03692 0,4.03693 2.88883,0 c 2.31379,0 3.13659,-0.37814 4.13354,-1.89969 z m 8.23187,2.26288 c 0,-10.77481 0.0625,-11.25908 1.45278,-11.25908 1.3903,0 1.45279,0.48427 1.45279,11.25908 0,10.77482 -0.0625,11.25908 -1.45279,11.25908 -1.3903,0 -1.45278,-0.48426 -1.45278,-11.25908 z M 147.42807,271.393 c -48.509856,-8.22395 -84.906259,-43.34375 -95.24642,-91.90567 -1.330866,-6.25032 -1.633312,-10.0529 -1.675483,-21.06538 -0.05253,-13.71799 0.559975,-19.17429 3.343236,-29.78208 10.562096,-40.255112 42.683088,-72.299604 82.659347,-82.462483 17.86119,-4.540725 39.57067,-4.540725 57.43187,0 39.97625,10.162879 72.09724,42.207371 82.65934,82.462483 2.78326,10.60779 3.39576,16.06409 3.34324,29.78208 -0.0422,11.01248 -0.34462,14.81506 -1.67548,21.06538 -10.38352,48.7655 -46.92878,83.89178 -95.60962,91.89728 -7.97735,1.31186 -27.5139,1.31651 -35.23003,0.008 z m 26.08858,-37.12274 c 1.226,-1.03161 2.76633,-2.78512 3.42295,-3.8967 0.65662,-1.11157 2.10909,-2.56168 3.2277,-3.22246 2.76462,-1.6331 5.66468,-7.85688 6.31383,-13.55007 0.29443,-2.58215 0.30826,-7.96358 0.0307,-11.95874 -0.27752,-3.99515 -0.71638,-21.10609 -0.97525,-38.02429 -0.45904,-29.9997 -0.43656,-30.74954 0.90919,-30.32242 1.71384,0.54395 4.99984,-2.706 7.09296,-7.01515 1.24555,-2.56424 2.44597,-3.54891 7.92233,-6.49843 9.48383,-5.10791 10.18075,-5.9075 5.85615,-6.7188 -1.4193,-0.26626 -2.7687,-0.97445 -2.99868,-1.57374 -0.23449,-0.61107 0.73936,-2.77025 2.21736,-4.91623 3.13352,-4.54975 3.21818,-4.99546 0.77221,-4.0655 -4.29457,1.63279 -11.14121,0.20106 -12.19711,-2.550577 -0.23925,-0.623455 -0.23557,-2.588433 0.008,-4.366634 0.41396,-3.020143 0.31409,-3.282146 -1.51631,-3.978066 -2.537,-0.964561 -9.54844,-0.960261 -11.35573,0.0073 -1.06704,0.571068 -1.40503,1.532129 -1.40503,3.995158 0,2.965089 -0.15394,3.24321 -1.79507,3.24321 -0.98728,0 -4.48205,-0.980629 -7.76615,-2.179176 -6.36261,-2.322066 -10.14735,-2.74694 -11.32358,-1.271187 -0.39804,0.499395 -0.94123,2.412814 -1.2071,4.252046 -0.53802,3.722006 -2.60934,6.462246 -4.88473,6.462246 -2.29073,0 -6.05801,-2.02526 -9.65203,-5.18883 l -3.25037,-2.861099 -1.12738,1.720606 c -0.62006,0.946333 -1.47865,3.656483 -1.90797,6.022543 -0.42932,2.36606 -1.23543,5.01003 -1.79134,5.87548 -1.09683,1.70754 -6.8464,4.12143 -11.76747,4.94044 -1.69585,0.28223 -3.25616,0.79274 -3.46736,1.13447 -0.35724,0.57804 14.50378,5.7898 16.50929,5.7898 0.49803,0 2.1007,1.30751 3.56147,2.90557 1.61655,1.76848 3.30602,2.90557 4.31706,2.90557 2.56368,0 4.32003,1.98673 3.84704,4.35167 -0.22311,1.11559 -0.0462,2.22951 0.39765,2.50383 1.19819,0.74052 0.97938,26.88864 -0.34078,40.72319 -0.60998,6.39226 -1.29821,17.01574 -1.52941,23.60775 -0.47229,13.46653 0.25353,18.8237 3.06941,22.65496 0.97243,1.32306 2.23649,3.3989 2.80902,4.61295 1.35754,2.87861 4.58826,6.10228 7.32401,7.30802 1.19855,0.52824 4.03364,0.97322 6.3002,0.98886 3.3955,0.0234 4.51347,-0.30178 6.35012,-1.84723 z m -11.7744,-3.04681 c -1.11631,-0.68852 -2.86591,-2.95804 -3.88801,-5.04336 -1.75334,-3.57723 -1.85361,-4.39636 -1.77426,-14.49416 0.0815,-10.37462 0.38036,-14.09614 2.6145,-32.5618 0.58005,-4.79419 1.14028,-11.87879 1.24497,-15.74357 0.10469,-3.86478 0.30698,-6.91023 0.44954,-6.76767 1.10997,1.10997 4.67257,47.15078 4.25719,55.0173 -0.30505,5.77715 -0.18581,7.08232 0.64706,7.08232 1.54443,0 1.33213,-18.19092 -0.43289,-37.093 -3.07234,-32.90248 -3.51976,-39.06083 -3.40055,-46.80531 0.10996,-7.14386 -0.0649,-8.37305 -1.64997,-11.60333 -0.97512,-1.98716 -3.1707,-5.01077 -4.87906,-6.71913 -3.23979,-3.23978 -3.30231,-3.76779 -0.23878,-2.01652 2.79767,1.59929 4.94315,1.37519 5.21583,-0.54479 0.3413,-2.40316 11.6693,14.66971 12.85326,19.37165 0.61236,2.43192 0.85103,10.16324 0.77276,25.03352 -0.0623,11.83321 0.25198,26.41807 0.69835,32.41081 1.25635,16.86707 1.22834,32.1205 -0.0654,35.59322 -1.98923,5.33982 -7.91121,7.66761 -12.42459,4.88382 z m 16.67161,-15.23847 c -0.25961,-5.49139 -0.79773,-14.23373 -1.19582,-19.42743 -0.39809,-5.19371 -0.72555,-17.28814 -0.7277,-26.87652 -0.002,-9.58837 -0.28936,-21.19249 -0.63828,-25.78692 -1.00594,-13.24589 -0.99624,-28.34885 0.02,-31.23487 0.87775,-2.49256 0.90532,-2.50679 1.40745,-0.72639 0.28169,0.99879 0.54474,3.53208 0.58456,5.62954 0.052,2.74074 0.35707,3.81356 1.08428,3.81356 0.55654,0 1.24209,0.57203 1.52347,1.27118 0.28137,0.69916 0.78725,11.73124 1.12418,24.51574 0.33692,12.78451 1.00588,30.64874 1.48659,39.69831 1.36143,25.63011 0.57241,35.15005 -3.17077,38.25661 -0.87188,0.72359 -1.09693,-0.64847 -1.49803,-9.13281 z m -26.9258,4.24234 c -0.36386,-0.56515 -0.81325,-3.39108 -0.99863,-6.27983 -0.3901,-6.07859 1.04191,-29.81612 2.13506,-35.39172 0.40869,-2.08449 0.86852,-13.70888 1.02185,-25.83197 0.26632,-21.05683 0.21248,-22.17193 -1.20444,-24.94933 -0.81577,-1.59904 -1.35897,-3.03159 -1.20712,-3.18344 0.66681,-0.6668 3.60111,2.21884 5.4438,5.35351 l 2.00857,3.41688 -0.22664,17.43341 c -0.20505,15.77176 -0.47289,18.99123 -2.81011,33.77724 -1.4753,9.33329 -2.78019,20.70595 -3.04211,26.51332 -0.29494,6.53924 -0.69483,9.80268 -1.12023,9.14193 z M 131.72314,111.7993 c 2.13239,-1.12184 2.60589,-2.01498 2.61875,-4.93968 0.006,-1.39198 0.90592,-4.23991 1.99957,-6.32875 2.44091,-4.662078 1.84148,-5.593407 -3.62844,-5.637528 -3.63995,-0.02935 -3.86338,0.08146 -5.06434,2.511661 -0.69102,1.398305 -2.15011,3.264127 -3.24244,4.146257 l -1.98605,1.60388 1.52457,1.66488 c 2.2308,2.43612 2.65165,4.55386 1.38984,6.9939 l -1.10293,2.13286 2.97559,-0.66857 c 1.63657,-0.36772 3.66872,-1.03322 4.51588,-1.47891 z m 24.4034,-11.3794 c 0.40509,-1.458434 0.73836,-3.387173 0.74058,-4.286083 0.007,-2.535981 2.49953,-4.541289 5.63359,-4.531083 1.5001,0.0051 5.33154,1.147162 8.52765,2.542373 3.19202,1.393424 6.02938,2.533504 6.30523,2.533504 0.27585,0 0.22674,-0.95817 -0.10912,-2.129267 -1.1137,-3.883264 2.08396,-5.861048 9.47607,-5.861048 2.37108,0 4.31107,-0.179673 4.31107,-0.399269 0,-1.271673 -2.47276,-4.792751 -4.8021,-6.837937 -2.53684,-2.227373 -2.9168,-2.337124 -6.39305,-1.846576 -4.37757,0.617745 -8.29832,0.616242 -12.7758,-0.0051 -3.15372,-0.437499 -3.38274,-0.336668 -6.50717,2.864833 -1.78112,1.825053 -3.74723,3.318283 -4.36911,3.318283 -0.62189,0 -2.35046,-0.653753 -3.84128,-1.452784 -3.34022,-1.790252 -4.29239,-1.810446 -6.36154,-0.134949 -1.60366,1.298564 -1.61035,1.375576 -0.45816,5.266343 1.1173,3.77294 1.10625,4.03479 -0.24845,5.888884 l -1.41774,1.940368 2.64697,2.324071 c 2.9928,2.627717 6.58663,4.346907 7.97399,3.814527 0.51251,-0.19667 1.26328,-1.55084 1.66837,-3.00928 z m 49.75934,-0.23386 c 2.18096,-0.993712 2.92317,-3.181766 1.9487,-5.744812 -1.0741,-2.825114 -2.60772,-3.673997 -7.42705,-4.111002 l -4.4598,-0.404397 1.1336,2.192128 c 0.71116,1.375235 0.98277,3.121504 0.72887,4.686124 -0.34242,2.110075 -0.14207,2.620263 1.30149,3.314269 2.25791,1.08553 4.49131,1.10785 6.77419,0.0677 z"
       id="path4300"
       inkscape:connector-curvature="0" />
    <path
       style="fill:#88d274"
       d="m 187.12,318.95683 c -4.5781,-1.42194 -7.00428,-5.32268 -7.00428,-11.26127 0,-7.15813 3.70096,-11.25364 10.16949,-11.25364 6.27237,0 10.17061,4.35639 10.16837,11.36342 -0.003,8.02795 -6.33603,13.3249 -13.33358,11.15149 z m 7.0449,-3.6731 c 3.92233,-3.0853 4.14829,-10.93102 0.42213,-14.65718 -5.25101,-5.25101 -12.55561,0.67494 -11.24307,9.12106 0.51517,3.31511 1.44565,4.87341 3.67249,6.15051 2.22699,1.27718 5.05244,1.03434 7.14845,-0.61439 z m -63.98136,2.76292 c 0.18937,-0.49939 2.10389,-5.57766 4.25447,-11.28504 3.66946,-9.73828 4.02085,-10.36428 5.70832,-10.1695 1.60175,0.1849 2.25636,1.39542 5.99274,11.08198 2.30701,5.98093 4.19457,10.96579 4.19457,11.07748 0,0.11169 -0.76545,0.20307 -1.701,0.20307 -1.35516,0 -1.878,-0.59076 -2.57153,-2.90556 l -0.87053,-2.90557 -4.9454,0 -4.9454,0 -1.14134,2.90557 c -0.84708,2.15644 -1.55101,2.90556 -2.73028,2.90556 -0.97052,0 -1.45492,-0.35339 -1.24462,-0.90799 z m 13.61272,-7.62712 c 2.9e-4,-1.07057 -3.26405,-9.62469 -3.67288,-9.62469 -0.41073,0 -3.61285,8.56441 -3.59854,9.62469 0.004,0.29964 1.64173,0.5448 3.63931,0.5448 1.99758,0 3.63203,-0.24516 3.63211,-0.5448 z m 9.60563,-2.54237 0.20052,-11.07748 3.25241,-0.23144 c 7.4767,-0.53203 10.91223,1.49975 10.91223,6.45353 0,1.62433 -0.31997,3.55121 -0.71105,4.28195 -0.85203,1.59202 -4.39749,2.93422 -7.75085,2.93422 l -2.43398,0 0,4.35835 c 0,4.17663 -0.0765,4.35835 -1.8349,4.35835 l -1.8349,0 0.20052,-11.07748 z m 10.13121,-1.74696 c 3.08288,-2.78998 0.83985,-6.78815 -3.80825,-6.78815 l -2.85368,0 0,3.99516 0,3.99516 2.66678,0 c 1.46672,0 3.26454,-0.54098 3.99515,-1.20217 z m 8.59231,1.56536 c 0,-10.77481 0.0625,-11.25908 1.45278,-11.25908 1.3903,0 1.45279,0.48427 1.45279,11.25908 0,10.77482 -0.0625,11.25908 -1.45279,11.25908 -1.3903,0 -1.45278,-0.48426 -1.45278,-11.25908 z M 149.60725,271.6336 C 116.86261,266.22947 91.891476,251.32078 72.52599,225.61324 53.542006,200.41213 46.038806,165.66883 52.681628,133.72462 57.546837,110.32864 71.273691,87.029143 89.518733,71.198564 111.06077,52.507298 136.67135,42.951642 165.22468,42.951642 c 23.31953,0 44.26085,6.209571 63.19613,18.73908 51.52004,34.090896 67.01639,102.069608 35.38055,155.205808 -15.02884,25.24275 -41.80821,45.15326 -70.24738,52.22905 -12.61165,3.13783 -33.05974,4.3048 -43.94673,2.50802 z m 22.64685,-36.32898 c 1.06957,-0.40915 2.84299,-2.04016 3.94092,-3.62448 1.09794,-1.58432 2.96151,-3.56792 4.14128,-4.40799 1.17978,-0.84007 2.90313,-3.19137 3.82968,-5.22512 2.86202,-6.28204 3.2266,-11.13857 2.17189,-28.9319 -0.52717,-8.8936 -0.98452,-26.0757 -1.01633,-38.18245 -0.0566,-21.55526 -0.0282,-22.00288 1.36784,-21.55979 1.67131,0.53045 4.56262,-2.50503 6.8646,-7.20687 1.16413,-2.37776 2.39091,-3.44574 6.17433,-5.37507 8.8915,-4.53416 12.30229,-7.40532 8.79718,-7.40532 -0.75476,0 -2.13294,-0.61592 -3.06261,-1.36872 l -1.6903,-1.36872 2.15462,-3.02776 c 4.68243,-6.57991 4.46194,-6.01502 2.09037,-5.35557 -1.16321,0.32345 -3.85942,0.58809 -5.99158,0.58809 -3.31181,0 -4.12265,-0.28604 -5.56504,-1.96311 -1.387,-1.612677 -1.61535,-2.507658 -1.27921,-5.013711 0.54236,-4.043637 -0.78688,-5.008656 -6.89909,-5.008656 -6.33394,0 -7.44053,0.706017 -7.44053,4.747104 0,2.950903 -0.15922,3.243211 -1.76643,3.243211 -0.97154,0 -4.42604,-0.98063 -7.67667,-2.179177 -6.28102,-2.315884 -10.25168,-2.756666 -11.45121,-1.271187 -0.40326,0.499395 -0.97119,2.349669 -1.26207,4.111715 -0.55302,3.350051 -3.05865,6.602571 -5.08639,6.602571 -1.79508,0 -5.47318,-2.0638 -9.20717,-5.16618 -1.86949,-1.553275 -3.5501,-2.824135 -3.73469,-2.824135 -0.56639,0 -2.44835,5.281355 -2.97668,8.353515 -0.27483,1.59806 -0.66258,3.46137 -0.86166,4.14069 -0.56345,1.92263 -4.63823,4.06434 -10.14849,5.33406 -2.76623,0.63742 -5.30516,1.42821 -5.64205,1.7573 -0.73184,0.71488 5.85732,3.27258 12.82091,4.97666 4.21714,1.03198 5.34593,1.65334 7.17346,3.94867 1.19567,1.50172 2.81472,2.72397 3.60831,2.72397 2.93971,0 4.24957,1.35127 4.24957,4.38391 0,1.62883 0.35085,2.88002 0.80761,2.88002 1.07377,0 0.40201,32.81941 -0.90696,44.30992 -0.52339,4.59443 -0.9603,14.89105 -0.97093,22.88136 -0.0182,13.66821 0.0768,14.7076 1.60469,17.56573 0.8932,1.67083 1.92727,3.22531 2.29793,3.45438 0.37065,0.22909 1.38828,1.89218 2.26138,3.69578 3.27447,6.76416 10.90394,9.58866 18.27952,6.76726 z m -11.31536,-5.0037 c -4.34156,-3.81194 -5.08218,-7.51227 -4.56595,-22.81274 0.24328,-7.21039 1.07716,-18.01296 1.85308,-24.00569 0.77592,-5.99274 1.67084,-14.00121 1.98872,-17.79661 l 0.57796,-6.90073 0.54359,5.44794 c 1.86413,18.68258 3.49745,42.00799 3.34284,47.73907 -0.11035,4.09028 0.10211,6.70684 0.5457,6.72087 0.44497,0.0141 0.80486,-4.26947 0.92893,-11.05626 0.192,-10.50331 -0.41009,-19.39198 -3.18602,-47.03564 -0.66196,-6.59201 -1.2421,-16.88862 -1.28921,-22.88136 -0.0814,-10.35703 -0.18552,-11.09923 -2.10487,-15.00765 -1.11057,-2.26148 -3.31793,-5.28509 -4.90524,-6.71913 -3.21707,-2.90643 -3.24604,-3.08953 -0.24091,-1.52224 3.10306,1.61836 5.34938,1.42658 5.34938,-0.45669 0,-1.51877 0.028,-1.51503 1.36075,0.1816 0.74841,0.95279 3.4879,4.89289 6.08775,8.75577 6.45577,9.59204 6.65655,10.65172 6.16225,32.52406 -0.26559,11.75186 -0.058,23.04181 0.60857,33.09174 1.48164,22.34015 1.36006,34.80679 -0.37674,38.63222 -2.50938,5.52709 -8.30382,6.94431 -12.68058,3.10147 z m 17.87963,-6.0115 c 0.21429,-1.1276 -0.24731,-10.60702 -1.02577,-21.06537 -0.93082,-12.50519 -1.29783,-22.8698 -1.07201,-30.27425 0.18887,-6.1925 -0.10689,-18.28693 -0.65724,-26.87652 -1.23924,-19.3414 -1.28487,-29.27738 -0.1518,-33.05084 l 0.87247,-2.90557 0.69587,5.42836 c 0.50021,3.90207 1.09048,5.74789 2.09937,6.56484 1.31773,1.06703 1.44163,2.73307 2.02727,27.2593 0.34308,14.36754 1.00726,32.33346 1.47596,39.92425 0.92919,15.04848 0.48553,28.88403 -1.04352,32.54196 -0.53449,1.27868 -1.56546,2.81519 -2.29101,3.41446 -1.22935,1.01537 -1.29267,0.94993 -0.92959,-0.96062 z m -27.39514,-4.85052 c -0.43161,-0.64741 -0.65425,-6.10089 -0.54864,-13.43825 0.16524,-11.47939 0.49582,-16.09328 2.31606,-32.32446 1.25926,-11.22888 1.26768,-43.14115 0.0118,-44.69693 -0.33307,-0.4126 -0.94995,-1.65593 -1.37083,-2.76295 -0.74373,-1.95613 -0.72154,-1.98212 0.78889,-0.92418 1.76026,1.23294 3.98429,4.29169 5.0673,6.96917 0.42177,1.04274 0.70258,8.71431 0.66472,18.15981 -0.0604,15.05689 -0.27445,17.67979 -2.69847,33.06138 -1.55204,9.84848 -2.81179,20.88178 -3.06866,26.87651 -0.3061,7.14365 -0.65189,9.8453 -1.16216,9.0799 z M 131.08425,112.09095 c 2.76672,-1.38033 3.24392,-2.13266 3.25764,-5.13579 0.006,-1.33943 0.88264,-3.98572 1.94784,-5.88064 2.27198,-4.041778 1.97596,-5.403648 -1.41804,-6.523774 -3.50481,-1.156692 -5.93656,-0.03788 -7.7826,3.580649 -0.85024,1.66662 -2.32053,3.271435 -3.35885,3.666215 l -1.84666,0.7021 1.87636,2.22993 c 1.97369,2.34559 2.4281,5.54139 1.13223,7.96275 -0.6801,1.27078 -0.53949,1.35149 1.63439,0.93809 1.30818,-0.24878 3.35914,-0.94157 4.55769,-1.53953 z m 23.8597,-9.23053 c 0.59516,-0.59517 1.27226,-2.06611 1.50467,-3.268766 0.2324,-1.202658 0.61256,-3.169997 0.84479,-4.371871 0.8705,-4.505092 5.20594,-4.748354 14.11876,-0.792204 l 6.38407,2.833722 -0.11144,-3.297487 c -0.10623,-3.143223 0.007,-3.341165 2.43092,-4.231242 1.39831,-0.513559 4.42192,-0.95862 6.71913,-0.989012 2.29722,-0.03036 4.17676,-0.332949 4.17676,-0.672349 0,-0.339392 -0.94582,-2.025363 -2.1018,-3.746593 -3.35578,-4.99662 -6.2196,-5.956693 -12.64338,-4.238601 -2.60521,0.696792 -3.74907,0.634577 -6.67735,-0.363196 -1.94349,-0.662208 -3.79879,-1.204017 -4.12291,-1.204017 -0.32412,0 -2.39404,1.634383 -4.59984,3.631961 -2.2058,1.997579 -4.32521,3.631962 -4.70981,3.631962 -0.3846,0 -2.13865,-0.699305 -3.8979,-1.554015 -5.4836,-2.664138 -8.96952,-0.331881 -7.05001,4.716821 1.15823,3.04638 0.94126,6.110405 -0.48939,6.911034 -1.17454,0.657305 -1.16275,0.808228 0.1816,2.325189 1.47146,1.660395 7.47082,5.760774 8.42872,5.760774 0.29276,0 1.01924,-0.48695 1.61441,-1.08211 z m 52.04829,-3.27624 c 1.9312,-1.931208 1.83584,-4.558395 -0.25362,-6.987538 -1.4381,-1.671893 -2.42072,-2.035482 -6.24953,-2.312433 -4.40583,-0.31869 -4.5189,-0.283359 -3.74154,1.169157 0.44087,0.82378 0.80159,2.940254 0.80159,4.703288 0,2.606434 0.30545,3.352838 1.63438,3.993756 2.67198,1.28864 6.21042,1.03207 7.80872,-0.56623 z"
       id="path4298"
       inkscape:connector-curvature="0" />
    <path
       style="fill:#6cc752"
       d="m 187.53149,318.9372 c -4.65892,-1.0478 -7.41577,-5.24495 -7.41577,-11.29012 0,-6.77529 3.95965,-11.20261 10.02397,-11.20788 1.71778,-0.001 4.08443,0.49433 5.25922,1.10184 2.85627,1.47703 5.05608,5.96275 5.05467,10.30718 -0.003,7.91799 -5.61324,12.73273 -12.92209,11.08898 z m 7.3818,-4.36229 c 4.87511,-5.79375 1.90029,-15.95925 -4.6703,-15.95925 -3.18764,0 -6.33126,3.13163 -6.89108,6.86477 -1.00065,6.67282 1.79602,11.29504 6.83405,11.29504 2.30967,0 3.24013,-0.43313 4.72733,-2.20056 z m -64.91863,4.17666 c 0,-0.11169 1.88948,-5.09655 4.19883,-11.07748 3.80992,-9.86717 4.36184,-10.87441 5.95867,-10.87441 1.84161,0 1.70568,-0.28577 8.72419,18.3414 l 1.4369,3.81356 -1.50102,0 c -1.07671,0 -1.82366,-0.82135 -2.64237,-2.90556 l -1.14134,-2.90557 -4.89569,0 -4.89568,0 -1.16258,2.90557 c -0.81595,2.03925 -1.5975,2.90556 -2.62124,2.90556 -0.80227,0 -1.45867,-0.0914 -1.45867,-0.20307 z m 13.80145,-8.4223 c 0,-0.63948 -1.29357,-4.40942 -2.89764,-8.44484 l -0.86622,-2.17918 -1.73797,4.72155 c -2.38867,6.48926 -2.37486,6.53753 1.86987,6.53753 1.99758,0 3.63196,-0.28578 3.63196,-0.63506 z m 10.16949,-2.63371 0,-11.25908 3.88677,0 c 4.68548,0 8.23971,1.13313 9.20363,2.93422 0.39108,0.73075 0.71105,2.60065 0.71105,4.15533 0,3.8557 -2.24837,5.8901 -7.15138,6.47079 l -3.7445,0.44348 0,4.25717 c 0,3.77291 -0.16525,4.25717 -1.45278,4.25717 -1.3903,0 -1.45279,-0.48426 -1.45279,-11.25908 z m 9.75441,-1.50467 c 0.62781,-0.6278 1.14148,-1.91196 1.14148,-2.85368 0,-2.52866 -1.8855,-3.99516 -5.13664,-3.99516 l -2.85368,0 0,3.99516 0,3.99516 2.85368,0 c 1.62574,0 3.34487,-0.49118 3.99516,-1.14148 z m 8.4054,1.50467 c 0,-10.77481 0.0625,-11.25908 1.45278,-11.25908 1.3903,0 1.45279,0.48427 1.45279,11.25908 0,10.77482 -0.0625,11.25908 -1.45279,11.25908 -1.3903,0 -1.45278,-0.48426 -1.45278,-11.25908 z m -22.92622,-36.34728 c -45.14023,-6.59138 -81.795463,-38.45923 -94.371486,-82.04602 -2.973892,-10.3071 -4.183972,-19.2819 -4.212589,-31.2435 -0.03907,-16.33346 2.013605,-27.41655 7.897815,-42.6429 10.102198,-26.141075 30.132619,-47.83415 56.21798,-60.884436 30.74089,-15.379408 70.24665,-15.379408 100.98754,0 34.45699,17.238542 57.37231,48.695076 63.24651,86.820316 1.25085,8.11837 1.0901,26.12137 -0.30815,34.51226 -7.53971,45.24556 -40.83532,81.75981 -84.7851,92.98119 -13.79813,3.52297 -31.06298,4.49036 -44.67252,2.50309 z m 22.71392,-35.74715 c 1.26908,-0.69915 3.24976,-2.46995 4.40152,-3.93511 1.15176,-1.46515 3.09498,-3.50609 4.31826,-4.53541 5.45301,-4.58841 7.14727,-12.63935 6.02179,-28.61496 -0.44177,-6.27066 -0.94222,-23.5448 -1.11212,-38.38697 -0.30629,-26.75825 -0.29658,-26.98254 1.15288,-26.6035 1.05735,0.2765 2.14975,-0.39667 3.94833,-2.43312 1.3676,-1.54846 2.50015,-3.37419 2.51677,-4.05718 0.0463,-1.89908 3.55198,-4.85671 8.38375,-7.07298 2.3971,-1.09951 5.46178,-2.92915 6.81042,-4.06588 l 2.45206,-2.06676 -2.81526,-0.78701 c -3.7235,-1.04092 -3.87607,-2.72277 -0.65552,-7.22602 1.40589,-1.96585 2.43376,-3.69667 2.28415,-3.84627 -0.14961,-0.14961 -1.78726,0.10953 -3.63924,0.57586 -3.82661,0.96355 -7.35978,0.48184 -9.29209,-1.26687 -0.95876,-0.86767 -1.31885,-2.246618 -1.31885,-5.050557 0,-4.782044 -1.22287,-5.637821 -7.91162,-5.536649 -5.50669,0.0833 -6.97942,1.16055 -6.97942,5.105223 0,2.627462 -0.0661,2.693702 -2.54237,2.546825 -1.39831,-0.08294 -4.64734,-0.981849 -7.22006,-1.997578 -5.05379,-1.995269 -9.58673,-2.389809 -10.78581,-0.93879 -0.41268,0.499395 -0.98604,2.215497 -1.27414,3.81356 -0.66834,3.707276 -1.46474,5.225226 -3.2399,6.175266 -2.16266,1.15742 -4.79647,0.15213 -9.94986,-3.79773 -2.57975,-1.977272 -4.78662,-3.484536 -4.90416,-3.349485 -1.1302,1.298622 -2.59134,5.447545 -2.99795,8.512705 -0.67839,5.11393 -3.45848,7.41607 -11.0678,9.16504 -3.07016,0.70565 -5.8643,1.5383 -6.2092,1.85032 -0.6157,0.55701 14.40522,5.77802 16.62343,5.77802 0.62269,0 2.3662,1.33645 3.87446,2.96988 1.7348,1.87879 3.65888,3.15583 5.2372,3.47601 2.20721,0.44777 2.5184,0.79634 2.69872,3.02286 0.1121,1.3842 0.55332,3.20995 0.98049,4.05723 1.09513,2.17214 0.40294,30.14272 -1.14829,46.40139 -0.76326,7.99983 -1.15334,17.30441 -1.00495,23.97094 0.22972,10.32027 0.34587,11.06857 2.19859,14.16465 1.07583,1.79782 2.78717,4.80116 3.80297,6.67409 3.01123,5.55206 7.27918,8.03516 14.59129,8.48923 0.80527,0.05 2.50245,-0.48112 3.77153,-1.18027 z m -10.03137,-4.74835 c -1.62812,-1.09579 -3.0365,-3.01186 -4.1379,-5.62954 -1.58255,-3.76121 -1.64941,-4.60572 -1.28086,-16.17849 0.21386,-6.71557 1.04221,-17.5025 1.84077,-23.97095 0.79856,-6.46844 1.70459,-14.53926 2.01338,-17.93514 l 0.56145,-6.17433 1.3865,14.89104 c 0.76259,8.19007 1.57702,21.23868 1.80986,28.99692 0.29173,9.72049 0.68524,14.19263 1.26574,14.38492 1.24304,0.41174 1.96438,-9.24482 1.38283,-18.51172 -0.41584,-6.62629 -2.92232,-34.95024 -4.51496,-51.02024 -0.25736,-2.59686 -0.50121,-8.97095 -0.54188,-14.16465 -0.0833,-10.63924 -0.98965,-13.41087 -6.12875,-18.74203 l -2.66191,-2.76139 2.68337,1.1198 c 2.90714,1.21317 5.25764,0.82076 4.6451,-0.77549 -0.83952,-2.18774 0.44192,-0.68854 5.00241,5.85255 8.29327,11.89501 8.03826,10.82735 7.81996,32.73997 -0.11083,11.12545 0.2918,26.99952 0.97982,38.63037 1.30661,22.08814 1.18093,32.19583 -0.44059,35.43453 -1.27327,2.54313 -5.35115,5.47505 -7.61501,5.47505 -0.88062,0 -2.71182,-0.74753 -4.06933,-1.66118 z m 17.12562,-6.99638 c 0.24328,-0.7665 -0.0616,-8.33419 -0.67744,-16.81708 -0.61587,-8.48289 -1.12056,-22.81036 -1.12153,-31.8388 -7.3e-4,-9.02846 -0.34382,-20.8282 -0.76189,-26.22167 -0.97811,-12.61845 -1.07393,-34.70804 -0.16058,-37.01835 0.58591,-1.48203 0.77275,-0.86932 1.09092,3.57744 0.24556,3.43203 0.75904,5.64719 1.42482,6.14668 0.57249,0.4295 1.30335,1.43467 1.62412,2.2337 0.32078,0.79903 0.85147,14.03753 1.17932,29.41889 0.32785,15.38135 0.96032,33.72447 1.40547,40.76249 0.89191,14.10132 0.22111,25.05258 -1.77043,28.90381 -1.26929,2.45454 -2.94418,3.09433 -2.23278,0.85289 z m -28.00191,-8.77585 c -0.52222,-6.46326 0.57593,-27.23683 1.95835,-37.04601 0.98865,-7.01515 1.25926,-13.48307 1.19,-28.44323 -0.085,-18.35326 -0.17227,-19.52791 -1.67369,-22.51816 l -1.58405,-3.15483 2.61537,2.49456 c 4.67824,4.46214 5.00697,6.33122 4.62867,26.31842 -0.29514,15.5935 -0.61328,19.34502 -2.70015,31.84077 -1.30107,7.79056 -2.75846,18.74093 -3.23865,24.33415 -0.70385,8.19859 -0.93561,9.3952 -1.19585,6.17433 z M 131.44744,112.04938 c 2.21372,-1.0502 2.56656,-1.58173 2.72945,-4.11169 0.10289,-1.59806 1.05757,-4.5675 2.12149,-6.59874 1.06394,-2.031235 1.7325,-4.219354 1.48572,-4.86248 -0.2468,-0.643126 -1.7253,-1.551791 -3.28557,-2.019254 -3.64079,-1.090816 -5.43814,-0.189879 -7.43676,3.727736 -0.82724,1.621526 -2.30271,3.221498 -3.33153,3.612658 l -1.84666,0.7021 1.87636,2.22993 c 1.92161,2.28369 2.5893,6.67685 1.14997,7.5664 -0.39951,0.24692 -0.72639,0.7825 -0.72639,1.19018 0,0.94196 3.85847,0.17874 7.26392,-1.43684 z m 23.88106,-9.08812 c 0.4479,-0.5397 1.02473,-2.51598 1.28183,-4.391727 0.25711,-1.875755 1.09844,-4.212632 1.86965,-5.193065 2.29553,-2.918281 4.42259,-2.556204 16.71927,2.846041 l 2.71065,1.190855 -0.42776,-3.120857 c -0.39799,-2.903601 -0.28327,-3.187998 1.6477,-4.085216 1.14151,-0.530397 4.45005,-1.170864 7.3523,-1.423271 l 5.27684,-0.45892 -2.46743,-3.658032 c -3.54909,-5.261651 -7.55889,-6.625932 -13.33529,-4.537155 -2.04627,0.73994 -3.02159,0.680506 -5.96021,-0.363196 -1.93246,-0.686354 -4.0518,-1.247913 -4.70964,-1.247913 -0.65783,0 -2.77966,1.634383 -4.71517,3.631961 -1.93551,1.997579 -3.96842,3.630741 -4.51758,3.629245 -0.54916,-0.0015 -2.06872,-0.655242 -3.3768,-1.452784 -2.76636,-1.686647 -5.1524,-1.848661 -7.02798,-0.477211 -1.23725,0.904707 -1.26194,1.317567 -0.35246,5.893126 0.91526,4.604731 0.89063,4.984133 -0.3842,5.916312 -1.33037,0.972792 -1.32962,1.032734 0.032,2.566729 2.17277,2.447758 6.92727,5.716348 8.31499,5.716348 0.69018,0 1.62133,-0.44157 2.06925,-0.98127 z m 51.50211,-3.05507 c 1.10729,-0.775577 1.60715,-1.859419 1.59131,-3.450364 -0.0421,-4.227763 -2.89951,-6.314746 -8.64585,-6.314746 -3.44723,0 -4.65998,0.761209 -2.92304,1.834693 0.41617,0.257208 0.67989,1.950814 0.58606,3.763569 -0.13051,2.521366 0.15105,3.531116 1.19814,4.296768 1.83099,1.33885 6.19521,1.26965 8.19338,-0.12992 z"
       id="path4296"
       inkscape:connector-curvature="0" />
    <path
       style="fill:#59c03c"
       d="m 132.108,313.37568 c 6.00523,-16.13475 6.21854,-16.576 8.01337,-16.576 1.7798,0 1.91477,0.28064 8.32018,17.30047 1.86269,4.94936 1.86285,4.95169 0.30455,4.72155 -1.03988,-0.15357 -1.84287,-1.07687 -2.41134,-2.77262 l -0.85229,-2.54238 -5.31832,0 -5.31832,0 -0.8523,2.54238 c -0.57198,1.70623 -1.36983,2.61873 -2.42595,2.77454 -1.55802,0.22986 -1.55265,0.17568 0.54042,-5.44794 z m 11.68775,-3.31934 c -3.7e-4,-0.90293 -2.6553,-8.26948 -3.43507,-9.53118 -0.42684,-0.69064 -3.82849,7.69514 -3.82849,9.43801 0,0.71713 1.03039,1.00116 3.63196,1.00116 2.4215,0 3.63184,-0.30262 3.6316,-0.90799 z m 10.16985,-2.45838 0,-11.35668 5.11889,0.36625 c 6.4843,0.46395 8.68256,2.16778 8.68256,6.72968 0,3.98818 -2.02746,5.85748 -7.08232,6.52982 l -3.81356,0.50724 0,4.29019 c 0,3.80592 -0.16398,4.29018 -1.45278,4.29018 -1.39084,0 -1.45279,-0.48426 -1.45279,-11.35668 z m 9.75441,-1.40707 c 0.62781,-0.6278 1.14148,-1.91196 1.14148,-2.85368 0,-2.52866 -1.8855,-3.99516 -5.13664,-3.99516 l -2.85368,0 0,3.99516 0,3.99516 2.85368,0 c 1.62574,0 3.34487,-0.49118 3.99516,-1.14148 z m 8.4054,1.50467 c 0,-10.77481 0.0625,-11.25908 1.45278,-11.25908 1.3903,0 1.45279,0.48427 1.45279,11.25908 0,10.77482 -0.0625,11.25908 -1.45279,11.25908 -1.3903,0 -1.45278,-0.48426 -1.45278,-11.25908 z m 11.99541,9.68434 c -5.64897,-4.44347 -5.2615,-15.96378 0.65831,-19.57367 2.99413,-1.82582 7.94702,-1.7754 11.00086,0.11199 6.32909,3.91159 6.02267,16.62036 -0.48183,19.98396 -3.13913,1.62331 -8.78506,1.3595 -11.17734,-0.52228 z m 10.8865,-2.48966 c 3.48605,-3.76151 3.01272,-11.7504 -0.87749,-14.81043 -2.60503,-2.04911 -5.56516,-1.85695 -8.21673,0.53343 -3.68136,3.3187 -3.85713,10.90459 -0.33431,14.42741 2.48745,2.48745 7.05132,2.41464 9.42853,-0.15041 z M 155.78158,272.0407 c -1.19854,-0.17107 -4.79419,-0.66249 -7.99031,-1.09204 -23.01349,-3.09295 -45.399,-14.357 -63.093037,-31.74746 -22.326539,-21.94347 -34.08984,-50.24927 -34.022991,-81.86884 0.08486,-40.1363 20.58469,-76.644273 54.794448,-97.582957 36.5772,-22.387717 82.93278,-22.387717 119.50998,0 34.20976,20.938684 54.7096,57.446657 54.79445,97.582957 0.0656,31.02629 -11.12096,58.59045 -32.6806,80.52646 -17.53905,17.84522 -39.54495,29.23695 -64.07223,33.16807 -5.13753,0.82342 -23.7265,1.51527 -27.23971,1.01381 z m 16.26103,-36.21515 c 1.11332,-0.57572 2.95691,-2.29183 4.09686,-3.81356 1.13995,-1.52173 3.29761,-3.83704 4.7948,-5.14512 5.47423,-4.78276 6.95577,-12.44377 5.80499,-30.01732 -0.42911,-6.55285 -0.94597,-23.55385 -1.14858,-37.77999 l -0.36838,-25.8657 1.64069,0.31363 c 1.23946,0.23694 2.21382,-0.39953 3.98424,-2.60259 1.28896,-1.60393 2.34355,-3.36456 2.34355,-3.91251 0,-1.61158 3.65007,-4.57596 8.71671,-7.07923 2.59685,-1.28302 5.63176,-3.18738 6.74423,-4.2319 l 2.02269,-1.89914 -2.74908,-0.76844 c -3.65268,-1.02104 -3.79233,-2.72876 -0.58934,-7.20745 1.40589,-1.96585 2.44935,-3.68108 2.31879,-3.81164 -0.13057,-0.13056 -2.10618,0.10808 -4.39026,0.53032 -3.562,0.65847 -4.53551,0.58068 -6.84212,-0.54672 -2.5761,-1.25912 -2.68995,-1.47102 -2.70603,-5.036572 -0.009,-2.047177 -0.43428,-4.225184 -0.94454,-4.84001 -1.27752,-1.539327 -7.29433,-2.248474 -10.88161,-1.282518 -3.20318,0.862526 -4.22491,2.503264 -3.45905,5.5547 0.7051,2.809315 -1.17387,2.885412 -8.30048,0.33616 -10.12006,-3.620041 -12.56354,-3.191274 -13.45656,2.361254 -0.76446,4.753196 -2.08523,6.314116 -5.34268,6.314116 -2.71308,0 -3.90724,-0.67917 -10.44191,-5.938796 -1.96598,-1.582381 -2.01194,-1.585322 -3.03928,-0.194717 -1.19254,1.614223 -2.59168,6.639163 -2.59168,9.307863 0,3.01502 -4.29044,5.88698 -10.94139,7.324 -3.16446,0.68372 -5.92181,1.51536 -6.12744,1.84807 -0.53829,0.87096 13.44142,5.78129 16.52404,5.80401 1.23333,0.009 2.49394,1.06362 5.04435,4.21969 0.67693,0.83769 2.51502,1.86888 4.08464,2.29153 2.74396,0.73888 2.87606,0.91519 3.43063,4.57883 1.09433,7.22957 0.74354,32.37926 -0.65599,47.03071 -1.46018,15.28633 -1.79203,27.69522 -0.91694,34.2873 0.51527,3.88157 2.68591,8.08791 8.08272,15.66299 3.11288,4.36929 11.66706,6.58354 16.25941,4.20875 z m -9.86145,-4.78932 c -5.34058,-3.49234 -6.77451,-11.28119 -5.3446,-29.03074 0.91189,-11.31934 4.17713,-39.09086 4.31159,-36.67088 0.0447,0.8056 0.73175,8.81407 1.52665,17.79662 0.7949,8.98253 1.44865,20.82644 1.45278,26.31978 0.007,8.33338 0.18571,9.98789 1.08326,9.98789 0.59167,0 1.29353,-0.86772 1.55971,-1.92826 0.86352,-3.44051 -0.31768,-25.49611 -2.63935,-49.28239 -1.24783,-12.7845 -2.26499,-23.73487 -2.26034,-24.33414 0.004,-0.59928 0.0381,-4.6102 0.0742,-8.91315 0.0728,-8.66722 -0.89773,-11.96417 -5.07435,-17.23758 l -2.21026,-2.79068 2.25366,0.85066 c 1.90365,0.71854 2.38978,0.66449 3.13014,-0.34802 0.75726,-1.03562 1.58405,-0.1462 6.07734,6.53771 2.86045,4.25503 5.62117,9.20735 6.13494,11.00517 0.68303,2.39018 0.8822,8.63789 0.74099,23.24456 -0.11675,12.07563 0.24435,26.87047 0.91304,37.4092 1.40312,22.11354 1.37276,27.4186 -0.18254,31.90215 -2.0476,5.90271 -7.17847,8.33869 -11.54684,5.4821 z m 16.52081,-19.30302 c -0.51862,-7.14807 -1.22195,-24.6006 -1.56295,-38.78341 -0.341,-14.18281 -0.82215,-33.14165 -1.06924,-42.13075 -0.29134,-10.59935 -0.18606,-16.9821 0.29952,-18.15981 0.63356,-1.53655 0.75585,-1.12655 0.79481,2.66456 0.0524,5.09805 0.51711,6.77854 1.87453,6.77854 1.24885,0 1.63829,5.61875 2.61807,37.7724 1.77912,58.38536 1.758,60.19949 -0.7367,63.28031 -1.23364,1.52349 -1.3057,1.15245 -2.21804,-11.42184 z m -27.27774,-7.91174 c 0.15063,-8.93422 0.85568,-19.56211 1.83117,-27.60291 1.38679,-11.43101 1.52887,-15.20929 1.13,-30.0485 -0.35524,-13.21603 -0.69341,-17.31204 -1.5276,-18.50302 -2.03135,-2.90016 -1.00497,-3.01562 1.5079,-0.16962 3.88184,4.39643 4.2065,6.63692 3.67979,25.394 -0.39421,14.03837 -0.87348,19.17969 -3.08092,33.05085 -1.43776,9.03452 -2.87762,20.02206 -3.19969,24.41673 -0.483,6.59056 -0.54267,5.44532 -0.34065,-6.53753 z m -19.97679,-91.77209 c 2.24339,-1.06428 2.58754,-1.59863 2.92646,-4.54382 0.21124,-1.83573 1.19081,-4.85838 2.1768,-6.717 2.10815,-3.973889 1.59282,-5.510157 -2.17594,-6.486741 -3.53203,-0.91524 -6.14739,0.436467 -7.49822,3.875339 -0.72062,1.834502 -1.80196,3.109332 -3.03511,3.578172 l -1.91566,0.72833 1.85526,2.43238 c 1.87733,2.4613 2.50008,6.53256 1.12888,7.38 -0.39951,0.24692 -0.72639,0.7825 -0.72639,1.19018 0,0.94196 3.85847,0.17874 7.26392,-1.43684 z m 23.88003,-9.08689 c 0.44735,-0.53902 1.14385,-2.72271 1.54779,-4.852647 1.54329,-8.137736 3.43413,-8.332627 18.29234,-1.885387 l 2.679,1.162467 -0.13662,-3.048283 c -0.12207,-2.723586 0.0955,-3.162923 2.04255,-4.124557 1.19854,-0.591959 4.41736,-1.259143 7.1529,-1.482632 l 4.97374,-0.406351 -2.43136,-3.631962 c -1.4479,-2.162869 -3.52882,-4.168256 -5.14456,-4.957823 -2.55981,-1.250913 -2.9431,-1.259027 -6.78028,-0.143528 -3.76502,1.094521 -4.33486,1.09338 -7.67282,-0.01533 -4.59735,-1.527 -6.5032,-1.016324 -9.27687,2.485715 -2.7667,3.493242 -4.3777,3.953949 -7.66509,2.192012 -4.78435,-2.564259 -8.91676,-1.211441 -8.19064,2.681346 0.21709,1.163768 0.6396,3.390741 0.93893,4.948831 0.44505,2.316559 0.30012,3.011404 -0.79517,3.812295 -1.27463,0.932027 -1.23616,1.089334 0.79527,3.251884 4.14173,4.40908 8.01035,6.01476 9.67089,4.01393 z m 51.78917,-3.127698 c 1.73546,-1.570569 1.71017,-5.42931 -0.0498,-7.602821 -1.14028,-1.408184 -2.2689,-1.768191 -6.53753,-2.085348 -2.83762,-0.210836 -5.15932,-0.286838 -5.15932,-0.168886 0,0.117951 0.53205,1.026479 1.18235,2.018949 0.79129,1.207656 1.04709,2.637995 0.7734,4.324533 -0.33023,2.03498 -0.10725,2.731358 1.15845,3.617898 2.09396,1.466663 6.96156,1.407833 8.63248,-0.104325 z"
       id="path4294"
       inkscape:connector-curvature="0" />
    <path
       style="fill:#53be35"
       d="m 131.4326,315.1928 c 6.98817,-18.5484 6.91486,-18.39312 8.68317,-18.39312 1.49975,0 2.07126,0.98165 4.86335,8.35351 1.74014,4.59443 3.66359,9.60293 4.27433,11.12999 1.08925,2.72347 1.08013,2.772 -0.47798,2.54237 -1.07249,-0.15806 -1.86525,-1.05987 -2.44071,-2.77647 l -0.85229,-2.54238 -5.31832,0 -5.31832,0 -0.8523,2.54238 c -0.57406,1.71242 -1.36887,2.61854 -2.43473,2.77569 l -1.58245,0.23332 1.45625,-3.86529 z m 12.36351,-5.00032 c 0,-1.175 -3.2119,-10.12403 -3.63362,-10.12403 -0.20331,0 -1.2514,2.45157 -2.32907,5.44794 l -1.95941,5.44794 3.96105,0 c 2.31197,0 3.96105,-0.32134 3.96105,-0.77185 z m 10.16949,-2.59452 0,-11.35668 5.11889,0.36625 c 6.37957,0.45646 8.68256,2.18747 8.68256,6.52612 0,4.19282 -2.47731,6.37789 -7.2309,6.37789 l -3.66498,0 0,4.72155 c 0,4.23729 -0.149,4.72155 -1.45278,4.72155 -1.39084,0 -1.45279,-0.48426 -1.45279,-11.35668 z m 9.75441,-1.40707 c 1.37237,-1.37236 1.47964,-3.9435 0.23349,-5.5962 -0.4994,-0.66232 -2.29722,-1.42032 -3.99516,-1.68446 l -3.08717,-0.48025 0,4.45119 0,4.4512 2.85368,0 c 1.62574,0 3.34487,-0.49118 3.99516,-1.14148 z m 8.4054,1.50467 c 0,-10.77481 0.0625,-11.25908 1.45278,-11.25908 1.3903,0 1.45279,0.48427 1.45279,11.25908 0,10.77482 -0.0625,11.25908 -1.45279,11.25908 -1.3903,0 -1.45278,-0.48426 -1.45278,-11.25908 z m 12.48655,9.78768 c -4.43585,-2.70447 -5.89369,-10.37507 -3.03633,-15.97598 3.56935,-6.99649 13.94654,-6.81104 17.39418,0.31084 2.76191,5.70534 1.01866,13.65863 -3.5067,15.99878 -3.07019,1.58766 -7.94571,1.43775 -10.85115,-0.33364 z m 10.38438,-2.58115 c 3.53003,-3.80896 3.29783,-11.28721 -0.44836,-14.43941 -6.79486,-5.7175 -14.33883,3.09153 -10.50516,12.26678 1.25041,2.99265 2.85941,3.9951 6.45868,4.02392 2.04983,0.0164 3.20475,-0.45926 4.49484,-1.85129 z m -41.50148,-43.18078 c -47.48884,-5.00259 -87.73269,-39.68005 -99.425153,-85.67301 -4.631081,-18.21662 -4.52367,-39.05489 0.297784,-57.77163 7.197559,-27.9407 26.31028,-53.378387 51.656219,-68.750823 12.44573,-7.548387 26.91728,-12.826273 41.76756,-15.232942 7.48347,-1.212789 27.38335,-1.212789 34.86683,0 41.00345,6.645112 74.81378,33.993425 89.77457,72.616345 8.12735,20.98168 9.60581,46.87974 3.94699,69.13905 -13.85857,54.51343 -66.99675,91.56039 -122.8848,85.67301 z m 21.20002,-38.18443 c 1.78292,-1.83448 3.24167,-3.60564 3.24167,-3.93591 0,-0.33026 1.10485,-1.28332 2.45524,-2.1179 1.5959,-0.98632 2.99255,-2.76642 3.99038,-5.08593 2.98054,-6.92847 3.26604,-10.15698 2.38141,-26.92918 -0.45305,-8.58959 -0.99131,-26.11411 -1.19614,-38.94337 l -0.3724,-23.32595 1.70743,0.3264 c 1.31584,0.25154 2.21051,-0.31289 3.90089,-2.46098 1.2064,-1.53307 2.42263,-3.52308 2.70274,-4.42225 0.63473,-2.03757 3.92658,-4.56604 9.14087,-7.02111 2.20454,-1.03797 4.96829,-2.77742 6.14166,-3.86544 l 2.13342,-1.97822 -2.87289,-0.80554 c -1.66836,-0.46779 -2.97212,-1.31514 -3.10956,-2.02097 -0.13015,-0.66848 0.97131,-2.86099 2.44771,-4.87224 1.47639,-2.01125 2.51536,-3.8258 2.30883,-4.03234 -0.20654,-0.20653 -2.09555,-0.0629 -4.19781,0.31921 -2.54263,0.46214 -4.57391,0.44241 -6.06734,-0.0589 -3.78711,-1.27133 -4.24876,-1.96558 -3.87734,-5.830971 0.23127,-2.406879 0.0223,-3.845237 -0.65739,-4.524937 -1.28429,-1.284283 -6.7901,-2.10722 -10.03079,-1.499259 -3.4199,0.641579 -4.82104,2.212852 -4.62106,5.18222 0.0906,1.345722 -0.0732,2.684775 -0.36412,2.975673 -0.29089,0.290891 -4.19772,-0.705363 -8.68184,-2.213898 -9.95842,-3.350194 -11.701,-3.089651 -12.52572,1.872785 -0.2863,1.722777 -0.98062,4.031227 -1.54291,5.129897 -1.52453,2.9788 -5.40191,2.75667 -9.70175,-0.55583 -6.84124,-5.270314 -6.59718,-5.152283 -7.65692,-3.703007 -0.8189,1.119907 -1.56528,3.776497 -2.93088,10.431797 -0.48093,2.34389 -4.93705,4.91216 -11.02884,6.35644 -2.90004,0.68757 -5.43721,1.51614 -5.63815,1.84126 -0.45229,0.73182 6.20331,3.27823 13.43057,5.1385 3.22778,0.83083 5.70524,1.89689 6.11666,2.63205 1.33829,2.39139 4.02756,4.55383 5.67697,4.56483 0.91707,0.006 2.0265,0.25127 2.46541,0.54479 2.45582,1.64233 2.84542,28.55 0.72816,50.29155 -1.54834,15.89942 -1.79678,32.99663 -0.54464,37.48108 0.45725,1.6376 1.63501,4.08918 2.61725,5.44794 0.98224,1.35877 2.2479,3.47096 2.81259,4.69376 1.42187,3.07898 6.7304,7.44498 9.47198,7.79024 7.3809,0.9295 8.32654,0.70278 11.74665,-2.81625 z m -13.65412,-3.74689 c -2.39657,-2.50207 -3.87284,-6.03414 -4.47815,-10.71428 -0.59761,-4.62047 0.62871,-22.90821 2.72772,-40.67797 l 1.63027,-13.80145 1.37019,14.52784 c 0.7536,7.99032 1.46876,20.24819 1.58923,27.23971 0.21376,12.40487 0.25712,12.71781 1.79547,12.95783 l 1.57642,0.24596 -0.4191,-14.7738 c -0.23051,-8.1256 -1.28296,-23.10916 -2.33878,-33.29682 -1.05583,-10.18765 -2.04929,-24.2095 -2.20768,-31.15965 -0.31665,-13.89429 -0.79992,-16.22229 -4.42973,-21.3387 -2.45313,-3.45784 -2.45476,-3.46567 -0.62347,-3.00606 1.00983,0.25346 2.28188,0.0908 2.82677,-0.36138 0.79261,-0.65781 1.86013,0.45159 5.33895,5.54843 2.39154,3.50385 4.87853,7.4074 5.52665,8.67455 1.83368,3.58509 2.46402,12.32952 2.08644,28.9442 -0.22663,9.97273 0.0892,22.56439 0.91061,36.30816 1.62407,27.17287 0.98462,33.02601 -3.88304,35.54318 -3.44574,1.78186 -6.77303,1.46397 -8.99877,-0.85975 z m 17.67452,-18.8862 c -0.53097,-7.49092 -1.23589,-25.06053 -1.56649,-39.04358 -0.3306,-13.98305 -0.81153,-32.45157 -1.06871,-41.04116 -0.30519,-10.19298 -0.20614,-16.24818 0.28519,-17.43342 0.62697,-1.51245 0.76049,-0.98507 0.79884,3.15517 0.0395,4.26379 0.24385,5.02288 1.43616,5.33468 1.20055,0.31395 1.44687,1.27048 1.80632,7.01432 0.82102,13.11973 2.25151,61.41942 2.25151,76.02126 0,12.89339 -0.17304,15.20774 -1.28984,17.25181 -0.70941,1.29843 -1.37934,2.36078 -1.48872,2.36078 -0.10939,0 -0.63331,-6.12894 -1.16426,-13.61986 z m -27.28836,-6.35593 c 0.14051,-7.68397 0.9538,-19.91893 1.83482,-27.6029 1.3405,-11.69138 1.52596,-16.37085 1.21306,-30.6072 -0.23773,-10.81654 -0.67413,-17.37519 -1.22453,-18.40362 -1.4745,-2.75512 -0.31688,-2.35603 1.72892,0.59605 3.26921,4.71749 3.55939,7.07255 3.01183,24.44382 -0.40765,12.93269 -0.99227,19.09784 -3.06525,32.32446 -1.40885,8.9891 -2.82922,20.1029 -3.15638,24.69733 -0.51975,7.29898 -0.56299,6.61124 -0.34247,-5.44794 z M 131.8072,112.00523 c 1.77027,-1.00842 2.26663,-1.87479 2.66347,-4.64899 0.26824,-1.87529 1.1687,-4.51147 2.00101,-5.85818 2.55474,-4.13364 1.86755,-6.335096 -2.30433,-7.382168 -3.50882,-0.880664 -5.53073,0.149651 -7.25386,3.696377 -1.00064,2.059635 -2.20744,3.430501 -3.25036,3.692251 -2.10691,0.5288 -2.0832,1.09576 0.15719,3.75833 2.10276,2.49898 2.31044,4.91442 0.62896,7.31508 l -1.18704,1.69472 3.18462,-0.51402 c 1.75153,-0.28271 4.16368,-1.07174 5.36034,-1.7534 z m 24.24486,-10.42347 c 0.41049,-1.29843 0.96403,-3.594561 1.2301,-5.102515 0.51382,-2.912186 2.55489,-4.894307 5.01698,-4.872087 1.2077,0.0109 5.4171,1.601564 14.75233,5.574668 0.69083,0.294015 0.87815,-0.414479 0.72639,-2.747331 -0.18525,-2.847509 -0.003,-3.241947 1.93373,-4.18872 1.17603,-0.574852 4.34786,-1.20329 7.04852,-1.396518 l 4.9103,-0.351334 -1.3483,-2.628785 c -3.03937,-5.925886 -7.10871,-7.931607 -12.75937,-6.288915 -3.36897,0.979387 -4.1992,0.9827 -7.34189,0.02927 -5.20238,-1.578269 -5.93028,-1.410828 -9.46841,2.178065 -3.42208,3.471196 -5.17054,3.933618 -8.23962,2.179177 -2.4266,-1.38717 -6.13559,-1.359559 -7.30908,0.05441 -0.76575,0.92267 -0.78092,1.95985 -0.0784,5.36108 0.92799,4.492925 0.59802,6.569985 -1.04375,6.569985 -1.53817,0 -1.22093,0.984458 0.98571,3.058802 2.83001,2.660348 6.8103,4.925618 8.66037,4.928798 1.14408,0.002 1.7833,-0.6465 2.32439,-2.35806 z m 51.06458,-1.746968 c 1.73219,-1.567612 1.71123,-5.428002 -0.0412,-7.592179 -1.10555,-1.365305 -2.33088,-1.777809 -6.35593,-2.139705 -2.74249,-0.246581 -5.09418,-0.367227 -5.22598,-0.268104 -0.1318,0.09912 0.31344,1.024337 0.98943,2.056025 0.86326,1.317494 1.09011,2.616559 0.76217,4.3646 -0.38679,2.061814 -0.18611,2.685465 1.16978,3.635165 2.15323,1.508186 7.00795,1.477056 8.70174,-0.05579 z"
       id="path4292"
       inkscape:connector-curvature="0" />
    <path
       style="fill:#0e0e0e"
       d="m 131.88675,314.10015 c 6.36641,-16.9162 6.55018,-17.30047 8.27369,-17.30047 1.44278,0 2.06014,1.07024 4.81868,8.35351 1.74014,4.59443 3.66359,9.60293 4.27433,11.12999 1.08925,2.72347 1.08013,2.772 -0.47798,2.54237 -1.07249,-0.15806 -1.86525,-1.05987 -2.44071,-2.77647 l -0.85229,-2.54238 -5.31832,0 -5.31832,0 -0.8523,2.54238 c -0.56846,1.69575 -1.37145,2.61905 -2.41133,2.77262 -1.5583,0.23014 -1.55814,0.22781 0.30455,-4.72155 z m 11.90951,-4.04381 c 2.2e-4,-1.33045 -3.18358,-9.98789 -3.67306,-9.98789 -0.22944,0 -1.28139,2.45157 -2.33768,5.44794 l -1.92053,5.44794 3.96556,0 c 2.68811,0 3.96561,-0.2925 3.96571,-0.90799 z m 10.16934,-2.46613 0,-11.36443 5.18334,0.43455 c 6.36618,0.53372 8.61811,2.19556 8.61811,6.35983 0,4.23288 -1.93998,6.02622 -7.00612,6.47654 l -4.25295,0.37804 -0.21627,4.53995 c -0.16127,3.38568 -0.48446,4.53995 -1.27118,4.53995 -0.87735,0 -1.05493,-1.91293 -1.05493,-11.36443 z m 9.75441,-1.39932 c 0.62781,-0.6278 1.14148,-1.87284 1.14148,-2.76673 0,-2.8006 -1.57094,-4.12362 -5.09478,-4.29075 l -3.25873,-0.15455 -0.21785,4.17675 -0.21785,4.17676 3.25313,0 c 1.98887,0 3.69674,-0.44361 4.3946,-1.14148 z m 8.4054,1.50467 c 0,-10.77481 0.0625,-11.25908 1.45278,-11.25908 1.3903,0 1.45279,0.48427 1.45279,11.25908 0,10.77482 -0.0625,11.25908 -1.45279,11.25908 -1.3903,0 -1.45278,-0.48426 -1.45278,-11.25908 z m 12.48655,9.78768 c -6.4652,-3.94173 -5.74577,-17.2056 1.08812,-20.06098 7.48992,-3.12948 14.78743,2.03546 14.73867,10.43157 -0.0229,3.93575 -2.35655,8.60867 -4.97564,9.96305 -3.07019,1.58766 -7.94571,1.43775 -10.85115,-0.33364 z m 10.37968,-2.44259 c 3.52282,-3.52282 3.34705,-11.10871 -0.33431,-14.42741 -5.1937,-4.68207 -11.63604,-0.57963 -11.63604,7.40977 0,3.34986 1.51048,6.83801 3.45035,7.96787 2.39184,1.39312 6.65176,0.91801 8.52,-0.95023 z"
       id="path4290"
       inkscape:connector-curvature="0" />
  </g>
</svg>
