<?xml version="1.0" encoding="UTF-8" standalone="no"?>
<!-- Created with Inkscape (http://www.inkscape.org/) -->

<svg
   xmlns:dc="http://purl.org/dc/elements/1.1/"
   xmlns:cc="http://creativecommons.org/ns#"
   xmlns:rdf="http://www.w3.org/1999/02/22-rdf-syntax-ns#"
   xmlns:svg="http://www.w3.org/2000/svg"
   xmlns="http://www.w3.org/2000/svg"
   xmlns:sodipodi="http://sodipodi.sourceforge.net/DTD/sodipodi-0.dtd"
   xmlns:inkscape="http://www.inkscape.org/namespaces/inkscape"
   id="svg4362"
   version="1.1"
   inkscape:version="0.91 r13725"
   width="100"
   height="100"
   viewBox="0 0 100 100"
   sodipodi:docname="cac50.svg">
  <metadata
     id="metadata4368">
    <rdf:RDF>
      <cc:Work
         rdf:about="">
        <dc:format>image/svg+xml</dc:format>
        <dc:type
           rdf:resource="http://purl.org/dc/dcmitype/StillImage" />
        <dc:title />
      </cc:Work>
    </rdf:RDF>
  </metadata>
  <defs
     id="defs4366">
    <clipPath
       clipPathUnits="userSpaceOnUse"
       id="clipPath4392">
      <rect
         style="opacity:0.12300002;fill:#ff0000;fill-opacity:1;fill-rule:nonzero;stroke:none;stroke-width:3.5999999;stroke-linecap:round;stroke-linejoin:round;stroke-miterlimit:4;stroke-dasharray:none;stroke-opacity:1"
         id="rect4394"
         width="240"
         height="240"
         x="10.764581"
         y="39.032173" />
    </clipPath>
    <clipPath
       clipPathUnits="userSpaceOnUse"
       id="clipPath4242">
      <circle
         style="opacity:0.18300003;fill:#ff0000;fill-rule:evenodd;stroke:none;stroke-width:1px;stroke-linecap:butt;stroke-linejoin:miter;stroke-opacity:1"
         id="circle4244"
         cx="130.76459"
         cy="159.03217"
         r="117.6" />
    </clipPath>
  </defs>
  <sodipodi:namedview
     pagecolor="#ffffff"
     bordercolor="#666666"
     borderopacity="1"
     objecttolerance="10"
     gridtolerance="10"
     guidetolerance="10"
     inkscape:pageopacity="0"
     inkscape:pageshadow="2"
     inkscape:window-width="1920"
     inkscape:window-height="1017"
     id="namedview4364"
     showgrid="false"
     fit-margin-top="0"
     fit-margin-left="0"
     fit-margin-right="0"
     fit-margin-bottom="0"
     inkscape:zoom="1.0823183"
     inkscape:cx="-161.31404"
     inkscape:cy="92.638204"
     inkscape:window-x="-8"
     inkscape:window-y="-8"
     inkscape:window-maximized="1"
     inkscape:current-layer="svg4362" />
  <g
     id="g4372"
     transform="matrix(0.41666667,0,0,0.41666667,-4.4852424,-16.263406)"
     clip-path="url(#clipPath4242)">
    <path
       style="fill:#fefefe"
       d="M 0,185.95642 0,0 l 131.1138,0 131.1138,0 0,185.95642 0,185.95642 -131.1138,0 -131.1138,0 0,-185.95642 z"
       id="path4388"
       inkscape:connector-curvature="0" />
    <path
       style="fill:#e6c7b5"
       d="m 34.866828,327.77987 c -3.111312,-1.68153 -5.811138,-6.62214 -5.811138,-10.63422 0,-3.89955 2.364677,-8.52258 5.222907,-10.21098 4.675004,-2.7616 13.663291,-1.29239 13.663291,2.23336 0,2.03754 -0.223997,2.09053 -2.508667,0.59356 -2.277792,-1.49247 -7.197882,-1.5153 -9.443647,-0.0438 -2.196158,1.43898 -3.653288,5.97815 -3.013622,9.38786 1.096128,5.84287 6.139446,8.4865 11.233187,5.88826 1.453738,-0.74153 2.888318,-1.46572 3.187955,-1.60933 1.330115,-0.63742 0.388566,3.24006 -0.996862,4.10527 -2.705205,1.68941 -8.666731,1.83933 -11.533404,0.29002 z m 42.182382,0.004 c -3.743659,-1.90894 -5.358643,-4.59846 -5.714381,-9.51648 -0.224335,-3.10141 0.0452,-5.01705 0.984395,-6.99625 2.26764,-4.7787 8.292903,-7.10317 13.773511,-5.31366 2.349051,0.76701 2.934189,1.32642 3.124591,2.98721 l 0.234276,2.04347 -2.358007,-1.21937 c -6.112991,-3.16115 -11.471528,-0.44327 -12.10402,6.13925 -0.46723,4.86249 0.846698,7.95581 3.925787,9.24234 3.17915,1.32833 4.522947,1.26331 7.734923,-0.37425 l 2.695961,-1.37459 0,1.77474 c 0,3.45239 -7.515014,5.04589 -12.297036,2.60747 z m 64.14739,-0.1148 c -3.105,-1.89347 -3.90847,-4.76644 -3.90847,-13.97563 l 0,-7.88193 1.81598,0 1.81599,0 0,8.38653 c 0,7.9357 0.0958,8.48238 1.78296,10.16949 2.12617,2.12617 4.70092,2.28428 6.99168,0.42934 1.54207,-1.2487 1.69614,-2.04006 1.98736,-10.2081 0.30414,-8.53033 0.37219,-8.84641 1.85917,-8.63427 1.46682,0.20927 1.54347,0.61706 1.54347,8.21052 0,5.27571 -0.35099,8.82272 -1.03312,10.44045 -1.78111,4.22401 -8.37489,5.79537 -12.85502,3.06348 z m 78.17386,0.74107 c -1.25084,-0.34516 -1.88537,-1.09162 -2.03894,-2.39859 l -0.22296,-1.89747 2.76533,0.98632 c 1.52094,0.54248 3.66424,1.00068 4.76291,1.01822 2.09054,0.0333 4.90315,-2.17553 4.90315,-3.8507 0,-1.4933 -2.2601,-3.16065 -5.08475,-3.75118 -3.91981,-0.8195 -6.47376,-2.39195 -6.94691,-4.27716 -1.27791,-5.09156 1.77186,-8.813 7.18178,-8.7635 4.74791,0.0434 7.02906,0.87469 7.02906,2.56137 0,1.30273 -0.31299,1.41615 -2.72398,0.98706 -1.49818,-0.26663 -2.8874,-0.48359 -3.08716,-0.48213 -3.6209,0.0265 -4.46308,0.33048 -5.0127,1.80909 -0.96654,2.60015 -0.26843,3.27026 5.25735,5.04653 6.11225,1.96478 7.68719,4.00488 6.57271,8.514 -1.03994,4.20757 -7.05994,6.23521 -13.35489,4.49814 z M 49.394673,327.97 c 0,-0.19761 1.850756,-5.2642 4.112793,-11.25908 3.896699,-10.32708 4.215429,-10.89978 6.066208,-10.89978 1.847148,0 2.176636,0.58416 6.056698,10.73804 2.256806,5.90592 4.103283,10.97251 4.103283,11.25908 0,0.28657 -0.764871,0.52104 -1.699714,0.52104 -1.338919,0 -1.903264,-0.61676 -2.658639,-2.90556 l -0.958924,-2.90557 -4.663719,0 -4.663718,0 -1.14134,2.90557 c -0.880268,2.24094 -1.531526,2.90556 -2.847134,2.90556 -0.938187,0 -1.705794,-0.16168 -1.705794,-0.3593 z m 13.439138,-9.62859 c -0.28476,-0.69915 -1.004213,-2.66041 -1.598783,-4.35835 -0.59457,-1.69795 -1.312007,-3.08717 -1.594304,-3.08717 -0.282298,0 -1.21894,1.96126 -2.081427,4.35835 l -1.568159,4.35836 3.68021,0 c 3.217936,0 3.615175,-0.15968 3.162463,-1.27119 z m 32.341014,-1.08959 c 3.989724,-10.47367 4.331927,-11.08874 6.277905,-11.28399 2.02126,-0.2028 2.12979,-0.0156 6.05332,10.44141 2.19734,5.85634 4.10412,10.93415 4.23729,11.28398 0.13317,0.34985 -0.55271,0.63608 -1.5242,0.63608 -1.38622,0 -2.01193,-0.62525 -2.90766,-2.90556 l -1.14134,-2.90557 -4.75083,0 -4.750827,0 -0.87053,2.90557 c -0.739772,2.46915 -1.168852,2.90556 -2.856697,2.90556 l -1.986167,0 4.219736,-11.07748 z m 8.282095,-2.13531 c -0.96911,-2.47285 -1.77983,-4.67926 -1.80162,-4.90315 -0.046,-0.47241 -2.434471,5.35464 -3.1828,7.76485 -0.47952,1.54445 -0.307874,1.63439 3.11948,1.63439 l 3.62694,0 -1.762,-4.49609 z m 11.31305,1.95371 0,-11.25908 1.81599,0 c 1.73527,0 1.81598,0.19371 1.81598,4.35836 l 0,4.35835 5.08474,0 5.08475,0 0,-4.35835 c 0,-4.16465 0.0807,-4.35836 1.81598,-4.35836 l 1.81598,0 0,11.25908 0,11.25908 -1.81598,0 c -1.7641,0 -1.81598,-0.14527 -1.81598,-5.08474 l 0,-5.08475 -5.08475,0 -5.08474,0 0,5.08475 c 0,4.93947 -0.0519,5.08474 -1.81598,5.08474 l -1.81599,0 0,-11.25908 z m 45.76272,0 0,-11.25908 7.26392,0 c 6.77966,0 7.26392,0.0968 7.26392,1.45279 0,1.32364 -0.48426,1.45278 -5.44794,1.45278 l -5.44794,0 0,2.90557 0,2.90557 5.08474,0 c 4.93947,0 5.08475,0.0519 5.08475,1.81598 0,1.7641 -0.14528,1.81598 -5.08475,1.81598 l -5.08474,0 0,3.63196 0,3.63197 5.44794,0 c 4.96368,0 5.44794,0.12913 5.44794,1.45278 0,1.35593 -0.48426,1.45278 -7.26392,1.45278 l -7.26392,0 0,-11.25908 z m 23.97094,1.45279 0,-9.8063 -3.99516,0 c -3.51089,0 -3.99515,-0.17609 -3.99515,-1.45278 0,-1.38104 0.48426,-1.45279 9.80629,-1.45279 9.32203,0 9.8063,0.0718 9.8063,1.45279 0,1.27669 -0.48427,1.45278 -3.99516,1.45278 l -3.99516,0 0,9.8063 0,9.80629 -1.81598,0 -1.81598,0 0,-9.80629 z m 13.80145,-1.45279 0,-11.25908 7.26392,0 c 6.77966,0 7.26393,0.0968 7.26393,1.45279 0,1.32364 -0.48427,1.45278 -5.44794,1.45278 l -5.44795,0 0,2.87375 0,2.87374 5.26635,0.21343 c 4.71094,0.19091 5.26634,0.36664 5.26634,1.6662 0,1.29957 -0.5554,1.4753 -5.26634,1.66621 l -5.26635,0.21342 0,3.60014 0,3.60014 5.81114,0 c 5.32688,0 5.81114,0.12106 5.81114,1.45278 0,1.36055 -0.48426,1.45278 -7.62712,1.45278 l -7.62712,0 0,-11.25908 z M 124.93947,273.36399 C 74.851692,270.49607 31.94119,235.42776 19.560646,187.24391 11.736136,156.79169 16.83193,123.22804 33.183362,97.517355 64.51315,48.254994 125.45951,29.648549 178.3293,53.205446 c 41.22876,18.370075 67.96364,59.693564 67.90464,104.958644 -0.0576,44.1812 -24.28061,83.33253 -63.94647,103.35579 -16.62495,8.39225 -38.55001,12.92044 -57.348,11.84411 z m 41.01878,-39.5984 c 3.31307,-2.39215 6.72957,-6.50068 8.12618,-9.7722 1.50908,-3.53499 1.44248,-12.69791 -0.13635,-18.75872 -2.61409,-10.03494 -11.36103,-22.02448 -16.96604,-23.25555 -2.51398,-0.55216 -7.15772,1.19063 -7.82822,2.93793 -0.37247,0.97063 2.91841,18.60178 4.60041,24.64712 0.25937,0.93221 0.15703,1.1925 -0.28561,0.72639 -0.37941,-0.39951 -1.9324,-5.62954 -3.45112,-11.62228 -1.5187,-5.99273 -3.05434,-11.46791 -3.41252,-12.16707 -0.93856,-1.83198 -5.68783,-1.68613 -8.14956,0.25027 -1.06382,0.83679 -2.66056,2.87977 -3.54833,4.53995 -1.44305,2.6986 -1.60707,4.01928 -1.54771,12.4616 0.0583,8.28164 0.31063,10.15785 2.05213,15.25424 3.31736,9.70803 6.26891,13.09629 13.74039,15.77344 5.2214,1.87091 13.50196,1.37076 16.80635,-1.01512 z M 90.198108,208.80282 c 6.485884,-1.12532 15.992982,-4.30182 19.123922,-6.38967 10.29486,-6.86507 15.71543,-13.3805 20.42469,-24.55016 2.70893,-6.42518 5.72849,-12.08462 9.13269,-17.11705 1.34703,-1.9913 6.55301,-6.38694 14.94727,-12.62065 15.96404,-11.85514 17.16633,-12.98023 20.11924,-18.82747 2.853,-5.64941 4.02018,-10.69245 4.02018,-17.37002 0,-13.706694 -4.4541,-20.532769 -18.49833,-28.349411 -3.95719,-2.202458 -4.99845,-2.441528 -11.98548,-2.751806 -13.45036,-0.597298 -22.5291,2.315498 -30.64941,9.833484 -6.5566,6.07025 -15.96801,20.857463 -21.615155,33.961723 l -2.726731,6.32741 -6.58667,2.35176 c -12.933814,4.61798 -25.608979,13.97039 -32.317033,23.84521 -3.855038,5.67494 -7.374409,13.55515 -8.75294,19.59865 -0.994552,4.36014 -1.008057,5.74436 -0.113369,11.62062 0.558619,3.66899 1.021534,7.02344 1.0287,7.45434 0.03121,1.87681 4.922584,7.95161 7.946884,9.86957 7.556199,4.792 20.475695,5.89399 36.501542,3.11347 z m -23.235934,-9.06201 c -2.123588,-0.30923 -4.00459,-0.70574 -4.180004,-0.88116 -0.175415,-0.17541 3.679346,-3.39555 8.566136,-7.15588 4.886785,-3.76031 10.081419,-7.90402 11.543618,-9.20824 l 2.658552,-2.37131 3.532264,3.22513 c 3.167738,2.89229 3.409293,3.32442 2.340675,4.18729 -0.65538,0.52918 -4.507118,3.65888 -8.559413,6.95489 -7.967027,6.48012 -7.808448,6.42776 -15.901828,5.24928 z m 13.693305,-0.94473 c 2.524983,-2.2832 12.929309,-10.66048 13.239995,-10.66048 0.462508,0 5.620263,6.65381 5.620263,7.25047 0,1.07711 -13.629798,4.3718 -18.085677,4.3718 -1.576707,0 -1.686901,-0.13683 -0.774581,-0.96179 z m -21.935794,-2.12537 c -2.138459,-1.73034 -3.513874,-4.51233 -3.513874,-7.10735 0,-2.10317 0.456493,-2.94121 2.360774,-4.33398 1.298426,-0.94965 5.015709,-3.95301 8.260629,-6.67413 3.24492,-2.72113 6.276688,-4.9475 6.737262,-4.9475 1.503794,0 11.075291,5.1348 10.838262,5.81438 -0.269724,0.77331 -22.366086,18.15657 -23.079339,18.15657 -0.26486,0 -0.986532,-0.4086 -1.603714,-0.90799 z m 39.806336,-5.91338 -3.345371,-3.91579 4.033453,-3.1118 c 2.218397,-1.71148 5.315437,-4.5682 6.882317,-6.34826 3.36581,-3.82376 3.78937,-3.65563 6.83297,2.71233 2.07357,4.33841 2.0801,4.39398 0.69571,5.92481 -1.56471,1.73022 -10.58732,8.63667 -11.29716,8.64753 -0.2511,0.004 -1.96197,-1.75513 -3.801919,-3.90882 z m -7.968894,-8.54563 -3.510675,-3.00895 7.091963,-7.11867 c 4.206443,-4.22229 7.429635,-6.91215 7.921875,-6.61106 0.45644,0.27918 2.07323,1.90048 3.59286,3.60287 l 2.76296,3.09525 -3.52474,3.80548 c -2.59804,2.80495 -10.169357,9.30489 -10.77317,9.24872 -0.02775,-0.003 -1.630206,-1.35871 -3.561073,-3.01364 z m -36.243219,1.02075 c -0.337576,-1.57745 1.387949,-8.52501 2.791322,-11.23884 0.573902,-1.1098 1.607097,-2.00618 2.29599,-1.99195 1.706828,0.0352 9.653886,1.95902 10.152499,2.45763 0.220947,0.22095 -0.383652,1.02498 -1.343554,1.78674 -0.959901,0.76176 -4.187697,3.38136 -7.17288,5.82132 -2.985182,2.43996 -5.657945,4.43629 -5.939474,4.43629 -0.281528,0 -0.634284,-0.57204 -0.783903,-1.27119 z m 59.073672,-6.3009 -2.472,-4.65426 3.86029,-4.85127 c 2.12315,-2.66821 5.15312,-6.86341 6.73326,-9.32267 1.58015,-2.45926 2.99969,-4.60887 3.15452,-4.77691 0.4079,-0.44266 3.90778,2.9695 3.90778,3.80982 0,0.38978 -1.24142,2.86609 -2.75872,5.50292 -1.51729,2.63683 -3.34468,6.26518 -4.06089,8.063 -2.15284,5.40414 -4.87639,10.89628 -5.40021,10.88976 -0.27063,-0.004 -1.60444,-2.10055 -2.96403,-4.66039 z m -33.614269,-2.09811 -5.577777,-2.91136 3.035405,-2.18102 c 1.669474,-1.19955 5.353547,-4.24627 8.18684,-6.77047 l 5.151435,-4.58946 3.687153,1.83739 c 6.017713,2.99876 6.097793,3.40977 1.565731,8.03596 -2.163414,2.20835 -5.404423,5.24708 -7.202244,6.75275 l -3.268765,2.73757 -5.577778,-2.91136 z m -9.313263,-4.09614 c -0.599274,-0.33223 -3.050848,-1.00179 -5.447942,-1.4879 -6.492323,-1.31659 -6.565085,-1.41148 -3.931061,-5.12624 3.300004,-4.65399 9.4989,-10.85439 10.851765,-10.85439 1.518085,0 12.195906,2.72267 14.435584,3.68084 l 1.743697,0.74598 -2.47009,2.58063 c -2.444164,2.55355 -8.765898,7.65239 -12.276384,9.90162 -1.13272,0.72576 -2.225937,0.93625 -2.905569,0.55946 z m 35.659712,-3.96252 c -3.5767,-3.64439 -3.66593,-3.22327 2.09237,-9.87405 2.24838,-2.59685 5.08606,-6.10998 6.30595,-7.80695 l 2.21799,-3.08539 2.93959,2.12943 c 1.61677,1.17118 3.15049,2.47067 3.40826,2.88775 0.75432,1.22052 -11.7032,18.95022 -13.31509,18.95022 -0.27913,0 -1.92121,-1.44046 -3.64907,-3.20101 z m -8.783199,-6.96848 c -1.797821,-1.19513 -3.677361,-2.17436 -4.176756,-2.17607 -2.066607,-0.007 -0.810733,-1.4191 11.530775,-12.96445 l 3.35887,-3.14217 3.17866,1.60351 c 1.74827,0.88193 3.28944,1.70135 3.42484,1.82093 0.6443,0.56904 -12.52984,17.04231 -13.62282,17.03432 -0.23364,-0.002 -1.895749,-0.98095 -3.693569,-2.17607 z m -8.878293,-4.03568 c -0.222037,-0.22204 -3.741625,-1.30089 -7.821305,-2.39745 l -7.417591,-1.99374 2.833278,-1.87498 c 4.541979,-3.00574 9.924465,-5.54211 15.901453,-7.4932 5.312375,-1.73413 11.827107,-2.39469 12.912537,-1.30926 0.59558,0.59558 -14.023895,15.47235 -15.204755,15.47235 -0.439947,0 -0.981574,-0.18167 -1.203617,-0.40372 z m 39.455372,-2.79203 -1.63744,-1.74296 5.48007,-7.01037 c 3.01404,-3.8557 6.20567,-8.30139 7.09251,-9.87932 0.88685,-1.57792 1.79741,-2.83368 2.02348,-2.79058 0.63918,0.12184 7.57959,7.89911 7.2453,8.11893 -4.33107,2.84785 -14.84563,11.36745 -15.95902,12.93107 -1.82613,2.56455 -2.15879,2.5938 -4.2449,0.37323 z m -4.08195,-4.09761 c -0.25692,-0.41571 -1.76117,-1.57272 -3.34277,-2.57114 l -2.87565,-1.81532 4.59915,-5.96396 c 2.52954,-3.28018 5.68067,-7.85715 7.00252,-10.17103 1.62128,-2.83804 2.67584,-4.00465 3.2407,-3.58502 0.46054,0.34213 2.22236,1.68741 3.91515,2.98951 l 3.07782,2.36745 -3.01566,4.48633 c -3.92847,5.84427 -10.99103,14.94286 -11.63221,14.98557 -0.27606,0.0184 -0.71213,-0.30668 -0.96905,-0.72239 z m -11.74575,-7.44891 -3.04723,-1.60156 6.01849,-9.26666 c 3.31016,-5.09666 6.20536,-9.45353 6.43376,-9.68193 0.22841,-0.2284 2.23518,0.15839 4.4595,0.85954 l 4.04422,1.27484 -2.16256,3.99273 c -2.64337,4.88046 -10.97213,16.02945 -11.97256,16.02664 -0.39951,-0.001 -2.09764,-0.72274 -3.77362,-1.6036 z m -8.39345,-2.49391 c -1.49818,-0.15671 -2.72397,-0.58357 -2.72397,-0.94857 0,-1.18606 4.43156,-11.86646 6.41848,-15.46902 l 1.93503,-3.50849 4.51208,0.27238 c 2.48163,0.1498 4.73039,0.4907 4.99725,0.75755 0.49354,0.49354 -11.38703,19.52048 -12.0517,19.30101 -0.19976,-0.0659 -1.58898,-0.24814 -3.08717,-0.40486 z m 42.08177,-4.97863 -3.49936,-3.89443 2.59136,-6.55312 c 1.42525,-3.60422 2.59137,-6.69746 2.59137,-6.87388 0,-0.17642 0.32519,-1.1761 0.72265,-2.2215 l 0.72266,-1.90073 3.4192,2.39824 c 1.88055,1.31903 3.68681,2.58515 4.01392,2.81359 0.5728,0.40005 -5.53869,18.71423 -6.56119,19.66176 -0.2757,0.25547 -2.07597,-1.28799 -4.00061,-3.42993 z m 9.53633,-5.82658 c 1.53114,-4.30578 3.08733,-7.91674 3.4582,-8.02435 0.37087,-0.10761 1.95891,0.90293 3.52897,2.24564 2.84136,2.42992 2.84882,2.45023 1.59928,4.35726 -1.13432,1.73121 -9.0674,8.40648 -10.70227,9.0054 -0.36744,0.13461 0.58468,-3.27817 2.11582,-7.58395 z m -18.45709,-2.22226 c -1.95829,-1.46819 -3.68316,-2.76409 -3.83305,-2.87978 -0.31882,-0.24608 1.07968,-3.76839 4.22001,-10.62868 l 2.24763,-4.91011 3.62158,1.83518 c 1.99186,1.00935 3.62156,2.30291 3.62156,2.87458 0,1.40568 -4.36784,13.50669 -5.45131,15.10272 -0.7984,1.1761 -1.14345,1.06745 -4.42642,-1.39391 z m 25.2145,-5.94816 c -3.06914,-2.65317 -3.15822,-2.84591 -2.42387,-5.24466 0.41931,-1.36965 1.32344,-5.74476 2.00919,-9.72249 l 1.2468,-7.232221 1.73071,2.147477 c 2.56834,3.186814 3.39157,7.140804 2.94253,14.132954 -0.39293,6.11842 -0.95066,8.73686 -1.85205,8.69503 -0.25689,-0.0119 -1.90088,-1.26116 -3.65331,-2.77609 z m -35.85735,0.0584 c -1.8977,-0.63122 -3.45036,-1.44287 -3.45036,-1.80366 0,-0.3608 1.35492,-3.57218 3.01092,-7.13639 2.06603,-4.44672 3.39976,-6.4804 4.24996,-6.4804 1.55046,0 5.95477,1.44954 6.84047,2.25133 0.82911,0.75057 -5.27892,14.48323 -6.39874,14.38624 -0.44103,-0.0382 -2.35455,-0.58591 -4.25225,-1.21712 z m -14.85081,-2.81306 c -0.57311,-0.23312 0.21451,-2.18356 2.31959,-5.74414 5.48497,-9.27745 5.34056,-9.14011 9.08086,-8.63657 1.79782,0.24202 3.48578,0.65831 3.75102,0.92509 0.26525,0.26676 -0.93841,3.50864 -2.67478,7.20416 l -3.15703,6.71913 -4.22595,-0.0573 c -2.32428,-0.0315 -4.61644,-0.21618 -5.09371,-0.41031 z m 42.33619,-3.51849 c -1.94785,-1.38487 -3.69412,-2.67053 -3.88062,-2.85703 -0.31766,-0.31766 4.72649,-17.153755 5.32661,-17.778852 0.15201,-0.158339 1.61993,0.60122 3.26204,1.68791 2.35695,1.559761 2.90446,2.308693 2.60011,3.556664 -0.21205,0.86947 -0.90483,4.602028 -1.53951,8.294578 -1.77811,10.34494 -1.56635,10.08444 -5.76863,7.09673 z m -10.07743,-5.97397 c -1.91171,-1.06395 -3.32757,-2.32083 -3.14636,-2.79305 0.1812,-0.47222 1.06142,-3.84316 1.95603,-7.490961 l 1.62657,-6.632376 3.69897,0.01111 c 5.96528,0.01794 5.97178,0.04082 2.85828,10.047457 -1.51066,4.85519 -2.92013,8.81967 -3.13216,8.80995 -0.21202,-0.01 -1.94963,-0.88817 -3.86133,-1.95213 z m -9.96243,-4.09909 c -3.94267,-1.28998 -4.05221,-1.46931 -3.64556,-5.967578 0.36197,-4.004113 0.47822,-4.203058 2.95509,-5.057244 1.41806,-0.489037 3.99933,-1.129242 5.73616,-1.422683 l 3.15787,-0.533513 -0.38621,2.805828 c -0.21242,1.543213 -0.93735,4.685375 -1.61095,6.98259 -1.32447,4.51687 -1.64889,4.68375 -6.2064,3.1926 z m -10.46054,-2.55215 -2.10704,-0.45885 3.01712,-2.723972 c 1.65942,-1.498184 3.17962,-2.723971 3.37822,-2.723971 0.19861,0 0.3611,1.470944 0.3611,3.268765 0,3.520848 -0.16516,3.614568 -4.6494,2.638028 z m 69.53146,81.66032 c 10.07785,-3.55645 21.07286,-11.79394 23.94978,-17.94324 1.80027,-3.84799 1.58747,-7.75951 -0.59702,-10.97428 l -1.83782,-2.7046 -11.05564,5.51427 c -13.07182,6.5199 -13.08982,5.84596 -0.0399,-1.49694 8.56616,-4.82001 9.3416,-5.42991 9.54843,-7.51009 0.29082,-2.92485 -0.84012,-4.96857 -3.72184,-6.72567 -4.28169,-2.61074 -18.03148,-1.42238 -26.70257,2.30782 -4.57195,1.9668 -11.04233,8.85291 -13.4855,14.35196 -3.74355,8.42592 -2.86533,14.71255 2.93839,21.03422 5.59626,6.09569 11.93464,7.34701 21.00376,4.14655 z"
       id="path4386"
       inkscape:connector-curvature="0" />
    <path
       style="fill:#dbaf95"
       d="m 35.206358,327.60457 c -4.08263,-2.02092 -5.755794,-5.11107 -5.773313,-10.66268 -0.02273,-7.20257 3.821714,-11.23452 10.71206,-11.23452 4.907856,0 7.070391,1.01147 7.070391,3.30696 l 0,1.69929 -2.976201,-1.4725 c -2.371542,-1.17335 -3.501124,-1.3393 -5.559933,-0.81686 -3.87431,0.98315 -5.628515,3.82615 -5.628515,9.12201 0,4.01163 0.191886,4.53613 2.372235,6.48427 2.690692,2.40413 5.832948,2.75626 9.151475,1.02552 2.637334,-1.37546 2.640939,-1.37491 2.640939,0.40474 0,1.01346 -0.805484,1.8264 -2.519042,2.54238 -3.424114,1.43068 -6.014377,1.32188 -9.490096,-0.39861 z m 43.6072,0.95531 c -6.5367,-1.80068 -9.574728,-10.27652 -6.189764,-17.26892 1.774694,-3.66602 4.761757,-5.51147 9.060619,-5.59775 4.616194,-0.0927 7.661833,1.29527 7.661833,3.49157 0,1.62715 -0.110027,1.67594 -1.634383,0.72468 -4.341726,-2.7094 -9.942893,-1.88592 -11.816505,1.73725 -1.297286,2.50867 -1.40448,7.90508 -0.209143,10.52856 1.758232,3.8589 7.14244,5.0645 11.299256,2.53003 l 2.360775,-1.43939 0,1.77975 c 0,1.02411 -0.60438,2.1032 -1.423496,2.54158 -1.753482,0.93844 -7.143952,1.514 -9.109192,0.97264 z m 63.196122,-0.49613 c -3.6505,-1.69903 -4.29193,-3.56309 -4.59526,-13.3543 l -0.27567,-8.89831 1.83143,0 1.83143,0 0.24084,9.13998 c 0.26793,10.16789 0.76068,11.19901 5.35184,11.19901 4.17499,0 5.02548,-1.87657 5.30093,-11.69626 0.22295,-7.94822 0.35428,-8.64273 1.63438,-8.64273 1.29734,0 1.39195,0.61638 1.39195,9.06844 0,8.89224 -0.0393,9.11241 -2.02114,11.3305 -2.39636,2.68198 -7.14278,3.50497 -10.69073,1.85367 z m 77.54238,0.21965 c -1.81432,-0.55489 -2.36078,-1.12899 -2.36078,-2.48018 0,-1.72428 0.0485,-1.73787 2.51904,-0.70561 5.35184,2.23614 10.53522,0.33073 9.56933,-3.51769 -0.40668,-1.62032 -1.24728,-2.13845 -5.54663,-3.41886 -5.42215,-1.61478 -6.54174,-2.73134 -6.54174,-6.52404 0,-2.83368 2.80974,-5.79721 5.59653,-5.90284 6.29032,-0.23844 8.93132,0.44317 8.93132,2.30509 0,1.60852 -0.5512,1.71066 -3.39552,0.62925 -2.70115,-1.02697 -6.56944,-0.23849 -7.5171,1.53223 -1.30272,2.43416 0.27736,4.12741 4.71029,5.04768 4.21559,0.87515 7.65511,3.82484 7.65511,6.5649 0,2.06075 -1.38168,4.66933 -3.01273,5.68792 -1.98377,1.23889 -7.72869,1.66251 -10.60712,0.78215 z M 49.583555,327.42131 c 0.189373,-0.49939 2.103885,-5.5654 4.254471,-11.25778 3.632463,-9.61476 4.042731,-10.34988 5.776892,-10.35109 1.735976,-10e-4 2.138743,0.72377 5.749902,10.34979 2.135742,5.6931 4.027414,10.75969 4.203717,11.25908 0.199979,0.56647 -0.348495,0.90799 -1.458168,0.90799 -1.44582,0 -1.941641,-0.54379 -2.649247,-2.90556 l -0.870529,-2.90557 -4.939322,0 -4.939321,0 -0.958924,2.90557 c -0.771262,2.33694 -1.306768,2.90556 -2.736354,2.90556 -1.121318,0 -1.650332,-0.33517 -1.433117,-0.90799 z m 13.420525,-8.7167 c -0.191112,-0.4994 -0.956561,-2.6241 -1.700998,-4.72155 -0.744437,-2.09746 -1.54398,-3.81356 -1.776761,-3.81356 -0.232781,0 -0.995791,1.7161 -1.695577,3.81356 -0.699786,2.09745 -1.440474,4.22215 -1.645972,4.72155 -0.270665,0.65775 0.665397,0.90799 3.396575,0.90799 2.717228,0 3.673163,-0.25359 3.422733,-0.90799 z m 28.506052,9.0799 c -0.0084,-0.29964 1.842116,-5.38285 4.112266,-11.29603 3.915414,-10.19866 4.222584,-10.74 5.976462,-10.53269 1.94965,0.23046 2.10872,0.55791 8.13356,16.74397 l 2.09544,5.62954 -1.76855,0 c -1.43396,0 -1.93325,-0.5497 -2.63908,-2.90556 l -0.87053,-2.90557 -4.89089,0 -4.890898,0 -1.162576,2.90557 c -0.81595,2.03925 -1.597497,2.90556 -2.621245,2.90556 -0.802271,0 -1.465547,-0.24515 -1.473959,-0.54479 z m 12.264058,-12.34867 c -0.84276,-2.29721 -1.76924,-4.43773 -2.05884,-4.75668 -0.43794,-0.48235 -3.652397,6.96609 -3.652397,8.46322 0,0.25862 1.629792,0.47022 3.621767,0.47022 l 3.62177,0 -1.5323,-4.17676 z m 10.99578,1.63438 0,-11.25908 1.81599,0 c 1.75079,0 1.81598,0.16949 1.81598,4.72155 l 0,4.72155 5.08474,0 5.08475,0 0,-4.72155 c 0,-4.55206 0.0652,-4.72155 1.81598,-4.72155 l 1.81598,0 0,11.25908 0,11.25908 -1.81598,0 c -1.7641,0 -1.81598,-0.14527 -1.81598,-5.08474 l 0,-5.08475 -5.08475,0 -5.08474,0 0,5.08475 c 0,4.93947 -0.0519,5.08474 -1.81598,5.08474 l -1.81599,0 0,-11.25908 z m 45.76272,0 0,-11.25908 7.26392,0 c 6.77966,0 7.26392,0.0968 7.26392,1.45279 0,1.33172 -0.48426,1.45278 -5.81114,1.45278 l -5.81114,0 0,3.26877 0,3.26876 5.50121,0 c 4.84739,0 5.47237,0.15109 5.25864,1.27119 -0.19971,1.04658 -1.17171,1.30889 -5.5012,1.48461 l -5.25865,0.21342 0,3.60014 0,3.60014 5.81114,0 c 5.32688,0 5.81114,0.12106 5.81114,1.45278 0,1.35593 -0.48426,1.45278 -7.26392,1.45278 l -7.26392,0 0,-11.25908 z m 23.97094,1.45279 0,-9.8063 -3.99516,0 c -3.51089,0 -3.99515,-0.17609 -3.99515,-1.45278 0,-1.38104 0.48426,-1.45279 9.80629,-1.45279 9.32203,0 9.8063,0.0718 9.8063,1.45279 0,1.27669 -0.48427,1.45278 -3.99516,1.45278 l -3.99516,0 0,9.8063 0,9.80629 -1.81598,0 -1.81598,0 0,-9.80629 z m 13.80145,-1.45279 0,-11.25908 7.26392,0 c 6.77966,0 7.26393,0.0968 7.26393,1.45279 0,1.32364 -0.48427,1.45278 -5.44794,1.45278 l -5.44795,0 0,3.26877 0,3.26876 5.5012,0 c 4.84739,0 5.47238,0.15109 5.25865,1.27119 -0.19971,1.04658 -1.17172,1.30889 -5.5012,1.48461 l -5.25865,0.21342 0,3.56958 0,3.56958 5.62167,0.21216 c 4.67609,0.17646 5.66249,0.42596 5.8644,1.48334 0.21879,1.14581 -0.51479,1.27118 -7.43765,1.27118 l -7.68038,0 0,-11.25908 z M 112.2276,271.74372 C 98.801476,269.25887 91.437573,266.86216 79.95106,261.23876 31.820101,237.67551 6.2796722,182.2441 19.569948,130.19123 26.907937,101.45117 45.854671,75.55604 70.629652,60.406252 89.569677,48.824513 108.65159,43.486595 131.1138,43.486595 c 22.46221,0 41.54412,5.337918 60.48415,16.919657 21.01691,12.851752 39.44126,35.484195 47.65708,58.541908 23.64958,66.37256 -15.87126,137.1438 -84.89668,152.02722 -10.4953,2.26303 -31.9414,2.65414 -42.13075,0.76834 z m 52.44213,-36.87183 c 3.25719,-1.54564 9.36909,-8.87273 10.35123,-12.4093 1.84396,-6.63982 0.35829,-16.01156 -3.99072,-25.17394 -4.70328,-9.90873 -10.64106,-15.69518 -16.09815,-15.68787 -1.86293,0.002 -6.74807,2.36834 -6.74807,3.26805 0,0.2126 0.67808,3.51631 1.50686,7.34158 0.82878,3.82527 1.35993,7.10197 1.18035,7.28157 -0.1796,0.17958 -1.11794,-2.86627 -2.08523,-6.76856 -1.70194,-6.8661 -1.83615,-7.11729 -4.15873,-7.7834 -5.11351,-1.46653 -10.55271,4.36499 -11.68538,12.52821 -1.28508,9.26168 1.6852,23.72342 6.30697,30.70738 2.01407,3.04347 6.12986,6.02272 9.76597,7.06921 4.10783,1.18224 12.81471,0.97482 15.6549,-0.37293 z m -13.52279,-33.35857 c 0.0349,-0.84621 0.20697,-1.01833 0.43885,-0.43886 0.20984,0.52436 0.18403,1.15088 -0.0573,1.39225 -0.24138,0.24138 -0.41306,-0.18765 -0.38152,-0.95339 z m -60.34791,7.40344 c 7.763841,-1.5369 15.75931,-4.44571 19.97579,-7.26733 9.53556,-6.3811 14.04781,-12.06525 19.78596,-24.92474 1.99672,-4.47472 5.1182,-10.52052 6.93665,-13.43512 3.47309,-5.56664 3.54001,-5.62488 21.94567,-19.09653 9.90367,-7.24879 11.91271,-9.2681 14.84841,-14.92421 2.89076,-5.56957 3.92884,-11.61104 3.53123,-20.55126 -0.30357,-6.82583 -0.54697,-7.87238 -2.7103,-11.653476 C 172.19252,91.9606 166.0833,86.7419 158.83571,83.159943 c -5.10768,-2.524351 -5.75706,-2.660825 -12.91801,-2.714869 -8.35335,-0.06305 -17.82332,1.939039 -22.42843,4.741649 -3.89739,2.371911 -11.47515,9.864625 -14.57577,14.412197 -4.1618,6.10395 -12.729179,21.66895 -14.868244,27.01224 -1.610928,4.02402 -2.192078,4.76397 -4.030308,5.13161 -4.578545,0.91571 -13.517724,5.24326 -20.55394,9.95038 -12.872928,8.61177 -21.228801,20.29701 -24.729853,34.58337 -1.182511,4.82534 -1.189145,5.67582 -0.101804,13.05035 0.940692,6.37993 1.559012,8.44432 3.233037,10.7942 5.709635,8.01478 13.386934,10.69131 29.13519,10.15736 4.594431,-0.15577 10.805084,-0.76852 13.801452,-1.36167 z m -26.144133,-9.80742 c -1.717155,-0.47789 -1.550008,-0.70704 3.258719,-4.46755 2.787791,-2.1801 7.829613,-6.17024 11.204039,-8.86697 3.374434,-2.69673 6.32084,-4.88921 6.547576,-4.87217 0.226737,0.017 1.828155,1.27471 3.558712,2.79484 l 3.146455,2.76387 -7.976062,6.64826 -7.976063,6.64825 -4.97669,-0.0724 c -2.737181,-0.0398 -5.79119,-0.29908 -6.786686,-0.57613 z m 21.763451,-4.85902 c 3.659811,-3.02916 7.072155,-5.34717 7.58299,-5.15115 0.510835,0.19602 1.987845,1.69358 3.282254,3.3279 1.684235,2.12652 2.078019,3.06878 1.384816,3.31361 -0.532758,0.18817 -1.949281,0.70519 -3.147828,1.14892 -2.128148,0.78791 -12.835758,2.86531 -14.778944,2.86728 -0.537618,5.4e-4 2.016901,-2.47741 5.676712,-5.50656 z m -28.53103,1.29443 c -1.294217,-1.35087 -2.069759,-3.10672 -2.324603,-5.26297 l -0.382434,-3.23577 5.195431,-3.99516 c 2.857488,-2.19734 6.771504,-5.25407 8.697815,-6.79273 l 3.502384,-2.79757 5.466887,2.73845 c 4.403361,2.20572 5.306637,2.93156 4.643114,3.73105 -0.923216,1.11241 -18.092571,14.55301 -20.991507,16.43267 -1.805056,1.1704 -1.927257,1.14414 -3.807087,-0.81797 z m 40.887775,-4.88525 c -1.703077,-2.2075 -2.968612,-4.10571 -2.812307,-4.21824 3.45393,-2.48672 7.225914,-5.75565 10.014634,-8.67905 l 3.50124,-3.67031 2.69496,4.81905 c 1.72318,3.08132 2.48074,5.17405 2.10087,5.80351 -0.99918,1.65568 -11.07047,9.95867 -12.07958,9.95867 -0.17783,0 -1.71675,-1.80614 -3.419817,-4.01363 z m -8.073443,-8.54508 -3.366145,-2.92497 6.998107,-6.77829 c 3.848956,-3.72806 7.175208,-6.78177 7.391658,-6.78601 0.21646,-0.004 1.79328,1.4185 3.50406,3.16165 l 3.1105,3.16938 -3.96225,4.27614 c -2.17924,2.35189 -5.390446,5.29561 -7.136017,6.54161 l -3.173767,2.26546 -3.366146,-2.92497 z m -36.222232,0.34709 c 0,-2.96875 2.789665,-11.7641 3.854659,-12.15312 0.47679,-0.17416 3.308624,0.25741 6.292964,0.95905 l 5.426074,1.2757 -7.108006,5.79865 c -3.909402,3.18926 -7.413484,5.90761 -7.786847,6.04078 -0.373365,0.13317 -0.678844,-0.73131 -0.678844,-1.92106 z m 59.035772,-5.4034 c -1.10311,-2.09745 -2.11594,-4.05706 -2.25073,-4.35467 -0.13478,-0.29762 1.20345,-2.25888 2.97387,-4.35836 1.77041,-2.09947 4.9383,-6.38894 7.03976,-9.53213 l 3.82084,-5.71489 1.80012,1.80011 1.80011,1.80011 -3.88009,7.54675 c -2.13404,4.1507 -4.75024,9.58972 -5.81376,12.08669 -1.06353,2.49698 -2.28261,4.53995 -2.70908,4.53995 -0.42646,0 -1.67793,-1.7161 -2.78104,-3.81356 z M 79.721549,174.6516 c -2.696731,-1.38417 -4.903148,-2.62019 -4.903148,-2.74671 0,-0.12652 1.552664,-1.33437 3.450363,-2.68411 1.8977,-1.34974 5.31802,-4.22202 7.600707,-6.38285 3.512572,-3.32505 4.442484,-3.85545 6.051516,-3.45161 1.873903,0.47032 7.809915,4.05524 7.42792,4.48593 -3.284397,3.703 -13.384939,13.35761 -13.947501,13.33174 -0.427191,-0.0197 -2.983126,-1.16823 -5.679857,-2.55239 z m -14.188908,-5.3809 c -2.909832,-0.70426 -5.490959,-1.48083 -5.735839,-1.72571 -0.651375,-0.65138 3.11613,-6.07344 7.277366,-10.47333 3.379238,-3.57305 3.789674,-3.795 6.225783,-3.36679 4.15569,0.73048 13.449261,3.29227 14.07884,3.88085 0.98344,0.91941 -13.876867,13.21859 -15.756543,13.04095 -0.439452,-0.0416 -3.179776,-0.65172 -6.089607,-1.35597 z m 40.575479,-2.50779 -3.1532,-3.21287 1.73078,-2.12707 c 0.95192,-1.16988 3.36515,-4.08241 5.36272,-6.47228 1.99758,-2.38987 4.29444,-5.26306 5.10412,-6.38488 1.42645,-1.97633 1.53927,-2.00495 3.63368,-0.9219 1.18883,0.61478 2.71323,1.72741 3.38755,2.47252 1.16187,1.28385 1.06675,1.60212 -1.81769,6.08171 -3.4963,5.4298 -9.93503,13.77765 -10.62677,13.77765 -0.25739,0 -1.88693,-1.4458 -3.62119,-3.21288 z m -9.542835,-7.42533 -4.040041,-2.47972 7.636006,-7.54414 7.63601,-7.54413 3.50628,1.77677 3.50629,1.77677 -2.00552,2.70163 c -2.71006,3.6507 -11.23932,13.57356 -11.77165,13.69503 -0.23504,0.0536 -2.245356,-1.01837 -4.467375,-2.38221 z M 87.88311,155.29013 C 86.890016,154.91625 83.322457,153.874 79.955207,152.974 l -6.122273,-1.63637 3.216704,-2.20105 c 4.706114,-3.22018 7.218451,-4.39211 14.555746,-6.78982 6.519603,-2.13051 11.045416,-2.67677 12.823926,-1.54782 0.64061,0.40664 -1.44979,2.78921 -6.911079,7.87697 -7.107719,6.62159 -7.995944,7.23133 -9.635121,6.61422 z m 40.08149,-2.25729 -1.58646,-1.68871 4.83543,-6.12 c 2.65948,-3.366 5.79601,-7.67267 6.97008,-9.57037 1.17407,-1.8977 2.33941,-3.45037 2.58966,-3.45037 0.79571,0 6.68432,6.08031 6.68432,6.90191 0,0.43356 -2.65394,2.72943 -5.89765,5.10192 -3.2437,2.37249 -7.12571,5.70878 -8.62668,7.41397 -1.50098,1.7052 -2.87602,3.10036 -3.05565,3.10036 -0.17962,0 -1.04049,-0.75991 -1.91305,-1.68871 z m -6.43111,-5.81537 c -1.67353,-1.26622 -3.06276,-2.58211 -3.08717,-2.92422 -0.0244,-0.3421 2.03297,-3.28399 4.57197,-6.53753 2.53899,-3.25354 5.31277,-7.28257 6.16395,-8.95341 0.85118,-1.67083 1.87264,-3.23876 2.26991,-3.48429 0.75435,-0.46621 7.21106,3.91189 7.26044,4.9231 0.0596,1.21951 -13.25069,19.6228 -13.98566,19.33712 -0.0829,-0.0322 -1.51991,-1.09454 -3.19344,-2.36077 z m -9.12429,-5.62044 c -1.49818,-0.79092 -2.72397,-1.63698 -2.72397,-1.88014 0,-0.42784 10.63565,-17.40879 11.69419,-18.67103 0.65205,-0.77751 7.9184,1.56383 7.9184,2.55145 0,1.94482 -12.36731,19.55517 -13.6732,19.46986 -0.2703,-0.0177 -1.71724,-0.67921 -3.21542,-1.47014 z m -9.4431,-3.37639 c -1.09867,-0.16643 -1.99758,-0.40441 -1.99758,-0.52885 0,-0.53191 2.4893,-6.31496 5.28407,-12.27578 l 3.01203,-6.42417 4.75026,0.50308 c 2.61264,0.2767 4.85045,0.59829 4.97292,0.71465 0.12246,0.11635 -2.44447,4.33351 -5.70431,9.37145 -3.902,6.03039 -6.33573,9.12272 -7.12338,9.05107 -0.65804,-0.0599 -2.09534,-0.24501 -3.19401,-0.41145 z m 42.70135,-4.53827 -3.55155,-3.60577 1.22469,-2.38697 c 0.67359,-1.31283 2.16247,-5.00198 3.30864,-8.1981 1.14617,-3.19613 2.42403,-5.81114 2.83969,-5.81114 0.41567,0 2.21427,1.02805 3.99689,2.28455 l 3.24113,2.28456 -3.36348,9.50998 c -1.8499,5.23049 -3.53919,9.51419 -3.75396,9.51932 -0.21478,0.005 -1.98871,-1.61326 -3.94205,-3.59643 z m 9.85739,-5.59505 c 1.54193,-4.24775 2.92885,-7.84852 3.08204,-8.00171 0.1532,-0.15319 1.60535,0.82999 3.22701,2.18484 l 2.94847,2.46338 -1.28057,2.10573 c -1.06002,1.74305 -6.6977,6.54461 -9.96195,8.48451 -0.45019,0.26754 0.44306,-2.989 1.985,-7.23675 z m -19.1984,-2.80002 c -1.86816,-1.42646 -3.39666,-2.70117 -3.39666,-2.83271 0,-0.65629 6.54106,-14.22214 6.85751,-14.22214 0.20215,0 1.86425,0.72715 3.69356,1.61589 2.93882,1.4278 3.27285,1.82767 2.86941,3.43508 -1.01515,4.04468 -5.11779,14.11052 -5.84706,14.34577 -0.42905,0.13841 -2.30859,-0.91545 -4.17676,-2.34189 z m 25.94051,-5.49752 c -1.55312,-1.23426 -2.81185,-2.46005 -2.79717,-2.72397 0.0147,-0.26392 0.40005,-2.27767 0.8564,-4.47501 0.45634,-2.19734 1.21682,-6.20157 1.68995,-8.8983 0.47313,-2.69674 1.0899,-4.903152 1.37062,-4.903152 1.3035,0 3.76572,6.106662 4.15861,10.313952 0.4284,4.58771 -0.78428,12.9306 -1.87954,12.9306 -0.31626,0 -1.84575,-1.00985 -3.39887,-2.24412 z m -35.5115,0.12754 c -1.99758,-0.70267 -3.63196,-1.57625 -3.63196,-1.94128 0,-1.51735 5.81487,-13.37555 6.55894,-13.37555 1.24522,0 7.6057,2.26481 7.6057,2.7082 0,0.60396 -6.41458,14.00643 -6.67305,13.94252 -0.12522,-0.0309 -1.86205,-0.63121 -3.85963,-1.33389 z m -13.61986,-2.76205 c -1.09867,-0.16644 -1.99758,-0.47106 -1.99758,-0.67693 0,-0.6489 5.14319,-9.22957 7.02427,-11.71898 1.63033,-2.15759 2.05408,-2.33857 4.47072,-1.90948 1.46831,0.26072 2.96052,0.74158 3.31601,1.06859 0.36735,0.33792 -0.70367,3.43533 -2.48124,7.17582 -3.42654,7.21037 -3.28662,7.12829 -10.33218,6.06098 z m 40.85957,-3.55173 c -1.39831,-1.00189 -2.95157,-2.06153 -3.45169,-2.35478 -0.6932,-0.40645 -0.27553,-2.55468 1.75734,-9.03866 1.46665,-4.678028 2.98133,-8.505498 3.36594,-8.505498 1.73774,0 5.6255,3.116136 5.30436,4.251574 -0.1861,0.658003 -0.68776,3.075904 -1.11479,5.373124 -1.86644,10.04055 -2.36123,12.16497 -2.8255,12.13145 -0.27131,-0.0196 -1.63736,-0.85534 -3.03566,-1.85721 z m -10.35109,-6.14694 c -1.49819,-0.79092 -2.7257,-1.67538 -2.72781,-1.96548 -0.002,-0.29009 0.73337,-3.74946 1.63438,-7.687493 l 1.63822,-7.160056 4.29952,0.44262 c 2.36473,0.243443 4.42085,0.563956 4.56915,0.712256 0.53987,0.539877 -5.23496,17.159473 -5.95159,17.128283 -0.40585,-0.0177 -1.96369,-0.67921 -3.46187,-1.47013 z m -10.20333,-4.02814 -3.4842,-1.07084 0.21543,-4.478957 0.21544,-4.478949 2.90557,-0.825189 c 5.69265,-1.616732 8.35351,-1.790652 8.35351,-0.546015 0,2.439836 -3.17723,12.56919 -3.92753,12.52138 -0.43671,-0.0278 -2.36191,-0.53247 -4.27822,-1.12143 z m -9.04607,-2.25901 c -2.78819,-0.34601 -2.93054,-0.90115 -0.72639,-2.832746 4.17885,-3.662107 4.17675,-3.662107 4.17675,5.09e-4 0,1.846737 -0.24515,3.305387 -0.54479,3.241457 -0.29964,-0.0639 -1.60714,-0.24809 -2.90557,-0.40922 z m 69.53054,81.41591 c 10.55178,-3.97168 20.98471,-12.48452 23.55787,-19.22226 1.53256,-4.01295 0.76001,-8.12657 -2.01596,-10.73446 l -1.74048,-1.6351 -8.07398,4.04925 c -4.44068,2.22709 -8.07397,3.92381 -8.07397,3.77048 0,-0.15333 3.59564,-2.29234 7.99031,-4.75336 5.5919,-3.13146 7.99032,-4.87039 7.99032,-5.79323 0,-2.93031 -1.68991,-5.92227 -4.24101,-7.50865 -2.25629,-1.40304 -3.59625,-1.64314 -8.83405,-1.58289 -15.60665,0.17953 -25.42541,5.56647 -31.20949,17.12271 -4.85623,9.70245 -3.94357,16.33551 3.23543,23.5145 5.63193,5.63193 11.72381,6.42077 21.41501,2.77301 z"
       id="path4384"
       inkscape:connector-curvature="0" />
    <path
       style="fill:#9c9c9c"
       d="m 35.206358,327.60457 c -4.08263,-2.02092 -5.755794,-5.11107 -5.773313,-10.66268 -0.02273,-7.20257 3.821714,-11.23452 10.71206,-11.23452 4.907856,0 7.070391,1.01147 7.070391,3.30696 l 0,1.69929 -2.976201,-1.4725 c -2.371542,-1.17335 -3.501124,-1.3393 -5.559933,-0.81686 -3.87431,0.98315 -5.628515,3.82615 -5.628515,9.12201 0,4.01163 0.191886,4.53613 2.372235,6.48427 2.690692,2.40413 5.832948,2.75626 9.151475,1.02552 2.637334,-1.37546 2.640939,-1.37491 2.640939,0.40474 0,1.01346 -0.805484,1.8264 -2.519042,2.54238 -3.424114,1.43068 -6.014377,1.32188 -9.490096,-0.39861 z m 43.6072,0.95531 c -6.5367,-1.80068 -9.574728,-10.27652 -6.189764,-17.26892 1.774694,-3.66602 4.761757,-5.51147 9.060619,-5.59775 4.616194,-0.0927 7.661833,1.29527 7.661833,3.49157 0,1.62715 -0.110027,1.67594 -1.634383,0.72468 -4.341726,-2.7094 -9.942893,-1.88592 -11.816505,1.73725 -1.297286,2.50867 -1.40448,7.90508 -0.209143,10.52856 1.758232,3.8589 7.14244,5.0645 11.299256,2.53003 l 2.360775,-1.43939 0,1.77975 c 0,1.02411 -0.60438,2.1032 -1.423496,2.54158 -1.753482,0.93844 -7.143952,1.514 -9.109192,0.97264 z m 63.196122,-0.49613 c -3.6505,-1.69903 -4.29193,-3.56309 -4.59526,-13.3543 l -0.27567,-8.89831 1.83143,0 1.83143,0 0.24084,9.13998 c 0.26793,10.16789 0.76068,11.19901 5.35184,11.19901 4.17499,0 5.02548,-1.87657 5.30093,-11.69626 0.22295,-7.94822 0.35428,-8.64273 1.63438,-8.64273 1.29734,0 1.39195,0.61638 1.39195,9.06844 0,8.89224 -0.0393,9.11241 -2.02114,11.3305 -2.39636,2.68198 -7.14278,3.50497 -10.69073,1.85367 z m 77.54238,0.21965 c -1.81432,-0.55489 -2.36078,-1.12899 -2.36078,-2.48018 0,-1.72428 0.0485,-1.73787 2.51904,-0.70561 5.35184,2.23614 10.53522,0.33073 9.56933,-3.51769 -0.40668,-1.62032 -1.24728,-2.13845 -5.54663,-3.41886 -5.42215,-1.61478 -6.54174,-2.73134 -6.54174,-6.52404 0,-2.83368 2.80974,-5.79721 5.59653,-5.90284 6.29032,-0.23844 8.93132,0.44317 8.93132,2.30509 0,1.60852 -0.5512,1.71066 -3.39552,0.62925 -2.70115,-1.02697 -6.56944,-0.23849 -7.5171,1.53223 -1.30272,2.43416 0.27736,4.12741 4.71029,5.04768 4.21559,0.87515 7.65511,3.82484 7.65511,6.5649 0,2.06075 -1.38168,4.66933 -3.01273,5.68792 -1.98377,1.23889 -7.72869,1.66251 -10.60712,0.78215 z M 49.583555,327.42131 c 0.189373,-0.49939 2.103885,-5.5654 4.254471,-11.25778 3.632463,-9.61476 4.042731,-10.34988 5.776892,-10.35109 1.735976,-10e-4 2.138743,0.72377 5.749902,10.34979 2.135742,5.6931 4.027414,10.75969 4.203717,11.25908 0.199979,0.56647 -0.348495,0.90799 -1.458168,0.90799 -1.44582,0 -1.941641,-0.54379 -2.649247,-2.90556 l -0.870529,-2.90557 -4.939322,0 -4.939321,0 -0.958924,2.90557 c -0.771262,2.33694 -1.306768,2.90556 -2.736354,2.90556 -1.121318,0 -1.650332,-0.33517 -1.433117,-0.90799 z m 13.420525,-8.7167 c -0.191112,-0.4994 -0.956561,-2.6241 -1.700998,-4.72155 -0.744437,-2.09746 -1.54398,-3.81356 -1.776761,-3.81356 -0.232781,0 -0.995791,1.7161 -1.695577,3.81356 -0.699786,2.09745 -1.440474,4.22215 -1.645972,4.72155 -0.270665,0.65775 0.665397,0.90799 3.396575,0.90799 2.717228,0 3.673163,-0.25359 3.422733,-0.90799 z m 28.506052,9.0799 c -0.0084,-0.29964 1.842116,-5.38285 4.112266,-11.29603 3.915414,-10.19866 4.222584,-10.74 5.976462,-10.53269 1.94965,0.23046 2.10872,0.55791 8.13356,16.74397 l 2.09544,5.62954 -1.76855,0 c -1.43396,0 -1.93325,-0.5497 -2.63908,-2.90556 l -0.87053,-2.90557 -4.89089,0 -4.890898,0 -1.162576,2.90557 c -0.81595,2.03925 -1.597497,2.90556 -2.621245,2.90556 -0.802271,0 -1.465547,-0.24515 -1.473959,-0.54479 z m 12.264058,-12.34867 c -0.84276,-2.29721 -1.76924,-4.43773 -2.05884,-4.75668 -0.43794,-0.48235 -3.652397,6.96609 -3.652397,8.46322 0,0.25862 1.629792,0.47022 3.621767,0.47022 l 3.62177,0 -1.5323,-4.17676 z m 10.99578,1.63438 0,-11.25908 1.81599,0 c 1.75079,0 1.81598,0.16949 1.81598,4.72155 l 0,4.72155 5.08474,0 5.08475,0 0,-4.72155 c 0,-4.55206 0.0652,-4.72155 1.81598,-4.72155 l 1.81598,0 0,11.25908 0,11.25908 -1.81598,0 c -1.7641,0 -1.81598,-0.14527 -1.81598,-5.08474 l 0,-5.08475 -5.08475,0 -5.08474,0 0,5.08475 c 0,4.93947 -0.0519,5.08474 -1.81598,5.08474 l -1.81599,0 0,-11.25908 z m 45.76272,0 0,-11.25908 7.26392,0 c 6.77966,0 7.26392,0.0968 7.26392,1.45279 0,1.33172 -0.48426,1.45278 -5.81114,1.45278 l -5.81114,0 0,3.26877 0,3.26876 5.50121,0 c 4.84739,0 5.47237,0.15109 5.25864,1.27119 -0.19971,1.04658 -1.17171,1.30889 -5.5012,1.48461 l -5.25865,0.21342 0,3.60014 0,3.60014 5.81114,0 c 5.32688,0 5.81114,0.12106 5.81114,1.45278 0,1.35593 -0.48426,1.45278 -7.26392,1.45278 l -7.26392,0 0,-11.25908 z m 23.97094,1.45279 0,-9.8063 -3.99516,0 c -3.51089,0 -3.99515,-0.17609 -3.99515,-1.45278 0,-1.38104 0.48426,-1.45279 9.80629,-1.45279 9.32203,0 9.8063,0.0718 9.8063,1.45279 0,1.27669 -0.48427,1.45278 -3.99516,1.45278 l -3.99516,0 0,9.8063 0,9.80629 -1.81598,0 -1.81598,0 0,-9.80629 z m 13.80145,-1.45279 0,-11.25908 7.26392,0 c 6.77966,0 7.26393,0.0968 7.26393,1.45279 0,1.32364 -0.48427,1.45278 -5.44794,1.45278 l -5.44795,0 0,3.26877 0,3.26876 5.5012,0 c 4.84739,0 5.47238,0.15109 5.25865,1.27119 -0.19971,1.04658 -1.17172,1.30889 -5.5012,1.48461 l -5.25865,0.21342 0,3.56958 0,3.56958 5.62167,0.21216 c 4.67609,0.17646 5.66249,0.42596 5.8644,1.48334 0.21879,1.14581 -0.51479,1.27118 -7.43765,1.27118 l -7.68038,0 0,-11.25908 z M 115.08831,272.00624 C 81.975943,267.17116 53.388471,249.10649 35.240379,221.54964 25.810508,207.23092 20.476062,193.3608 17.360671,175.06054 c -1.178372,-6.92193 -1.183319,-26.19067 -0.0087,-33.77724 7.41965,-47.920531 42.863913,-85.22179 90.880439,-95.641851 6.58009,-1.427943 9.7212,-1.65516 22.88136,-1.65516 13.16016,0 16.30127,0.227217 22.88136,1.65516 48.01653,10.420061 83.46079,47.72132 90.88044,95.641851 1.17465,7.58657 1.1697,26.85531 -0.009,33.77724 -5.35749,31.47066 -19.95335,56.04884 -44.38267,74.73663 -23.8955,18.27941 -55.68622,26.54728 -85.39595,22.20907 z m 49.84041,-37.06418 c 2.70235,-1.35902 7.84766,-7.19483 9.44439,-10.71181 6.0437,-13.31196 -7.17798,-42.64316 -19.21576,-42.62857 -2.01914,0.002 -3.65438,0.54469 -5.07806,1.68389 l -2.09988,1.68029 1.25446,5.63853 c 0.68994,3.10119 1.12162,5.77136 0.95927,5.93371 -0.16236,0.16235 -0.87306,-2.15602 -1.57935,-5.15194 -1.33235,-5.65152 -2.34516,-6.88514 -5.64836,-6.87981 -2.9375,0.005 -6.26105,2.67289 -8.33361,6.69023 -1.82088,3.52949 -1.97576,4.48535 -1.91678,11.83006 0.13195,16.43045 5.53918,28.07191 14.74259,31.73996 4.94345,1.97023 13.72688,2.05845 17.47109,0.17546 z m -14.50818,-36.33431 c 0.0349,-0.84621 0.20698,-1.01832 0.43886,-0.43886 0.20983,0.52436 0.18403,1.15088 -0.0573,1.39225 -0.24138,0.24138 -0.41306,-0.18765 -0.38152,-0.95339 z m -61.015761,10.64777 c 10.390895,-1.91963 17.216881,-4.4348 22.748611,-8.38216 7.42193,-5.29618 12.13711,-10.91524 15.97184,-19.03356 10.40819,-22.03473 10.52028,-22.1797 25.80916,-33.37931 7.02494,-5.14601 14.04364,-10.64347 15.5971,-12.21658 4.40582,-4.46155 7.52993,-11.84213 8.43359,-19.92396 1.4336,-12.82134 -1.82207,-21.615549 -10.28706,-27.787341 -10.82863,-7.895135 -18.65689,-9.843131 -30.75308,-7.652615 -10.05524,1.820913 -13.48817,3.535301 -20.56555,10.270352 -5.18926,4.938261 -7.361,7.742114 -11.93652,15.410834 -3.07622,5.15585 -6.92529,12.29909 -8.553498,15.87386 -1.628201,3.57478 -3.211366,6.96738 -3.518143,7.53911 -0.306784,0.57174 -3.232126,1.93815 -6.50076,3.03646 -5.886712,1.97802 -14.034839,6.40199 -20.616198,11.19343 -8.520294,6.20303 -17.686458,20.25707 -20.59863,31.58289 -1.059298,4.11975 -1.102463,5.6474 -0.338658,11.98547 0.481459,3.99516 1.517623,8.63237 2.302586,10.30491 2.691475,5.7348 9.729152,10.57012 17.228971,11.83736 6.356687,1.0741 17.78911,0.77946 25.576239,-0.65915 z M 65.019901,199.12135 c -2.10091,-0.44955 -1.799336,-0.75531 9.292321,-9.42126 l 11.463704,-8.95662 3.179971,2.93119 3.179971,2.9312 -8.024092,6.57601 -8.024092,6.576 -4.448201,-0.0859 c -2.44651,-0.0473 -5.425322,-0.29503 -6.619582,-0.55058 z m 16.33603,-0.33587 c 2.355233,-2.33096 11.786717,-9.92349 12.327022,-9.92349 0.315167,0 1.778215,1.47077 3.251223,3.26837 l 2.678186,3.26838 -2.045891,0.79138 c -1.967128,0.76092 -8.298588,2.16221 -14.394559,3.18583 -2.572613,0.43199 -2.78071,0.36432 -1.815981,-0.59047 z m -23.857986,-3.77054 c -2.073001,-2.6354 -2.817049,-7.61742 -1.267171,-8.48478 0.653827,-0.3659 3.06054,-2.20649 5.34825,-4.0902 2.287711,-1.88371 5.650932,-4.63078 7.473825,-6.10462 l 3.314352,-2.67969 5.559229,2.6278 c 3.057574,1.44528 5.396949,2.89035 5.198615,3.21127 -0.863826,1.3977 -22.084962,17.35758 -23.079598,17.35758 -0.606228,0 -1.752604,-0.82681 -2.547502,-1.83736 z m 41.434165,-4.31982 -3.042138,-3.89513 3.084066,-2.34361 c 1.696242,-1.28899 4.746052,-4.15455 6.777352,-6.36793 l 3.69329,-4.02431 2.70157,5.03815 2.70156,5.03815 -4.3192,3.99516 c -2.37557,2.19733 -5.27211,4.54854 -6.43678,5.22491 l -2.11758,1.22974 -3.04214,-3.89513 z m -44.448641,-7.80031 c 0.0053,-2.18727 1.220032,-6.79385 2.700395,-10.24091 0.955108,-2.22401 1.488275,-2.69486 2.705523,-2.38935 0.8338,0.20927 3.243419,0.75095 5.354707,1.20374 2.111289,0.45279 3.739991,1.08502 3.61934,1.40496 -0.272641,0.72296 -11.375407,10.01907 -13.112829,10.9791 -1.045025,0.57743 -1.270466,0.40707 -1.267136,-0.95754 z m 35.965382,-1.28341 c -1.553302,-1.59073 -2.671946,-2.97996 -2.485867,-3.08716 0.18608,-0.10722 3.348422,-3.12656 7.027431,-6.70967 l 6.689105,-6.51472 3.24408,3.18382 3.24409,3.18383 -3.0035,3.58735 c -2.98297,3.56283 -9.866394,9.24879 -11.196578,9.24879 -0.38201,0 -1.965451,-1.30151 -3.518761,-2.89224 z m 23.063479,-5.03085 -2.34724,-4.27389 3.80002,-4.64178 c 2.09001,-2.55298 5.25361,-6.87636 7.03022,-9.60752 l 3.2302,-4.96574 1.57731,1.97815 1.57733,1.97815 -4.10489,8.09831 c -2.25769,4.45408 -4.80155,9.81443 -5.65301,11.91188 -0.85147,2.09746 -1.82141,3.80969 -2.15542,3.80494 -0.33401,-0.005 -1.66354,-1.93186 -2.95452,-4.2825 z m -33.810299,-2.16775 -4.922659,-2.76534 3.026942,-2.00314 c 1.664818,-1.10172 5.097559,-3.92942 7.62831,-6.28377 2.53075,-2.35435 4.952724,-4.28064 5.382159,-4.28064 1.022347,0 5.007799,2.05569 7.013971,3.61781 1.581356,1.23133 1.573555,1.24339 -5.098394,7.8876 -3.675196,3.65992 -7.002908,6.64054 -7.39492,6.62361 -0.392012,-0.0169 -2.927942,-1.2752 -5.635409,-2.79613 z m -14.309238,-5.29871 c -2.986748,-0.77196 -5.551549,-1.52466 -5.699558,-1.67267 -0.423481,-0.42348 3.738235,-6.20544 7.38999,-10.26707 l 3.323902,-3.69698 3.565281,0.5636 c 1.960911,0.30997 5.966993,1.27885 8.902409,2.15305 l 5.337117,1.58946 -3.2464,2.85842 c -5.45867,4.80627 -12.498294,10.06544 -13.342628,9.96801 -0.439814,-0.0508 -3.243365,-0.72387 -6.230113,-1.49582 z m 40.938617,-2.61176 -2.99062,-3.47273 3.19313,-3.60923 c 1.75623,-1.98507 4.71772,-5.65221 6.58109,-8.14918 1.86337,-2.49697 3.60273,-4.53995 3.86525,-4.53995 0.26252,0 1.83839,0.98597 3.50195,2.19103 l 3.02463,2.19104 -2.82494,4.44309 c -3.07836,4.84169 -10.37261,14.41961 -10.98109,14.41903 -0.20833,-1.9e-4 -1.72456,-1.56308 -3.3694,-3.4731 z m -8.558048,-6.73623 c -1.557588,-1.17644 -3.27369,-2.13898 -3.813559,-2.13898 -0.539877,0 -0.981596,-0.23958 -0.981596,-0.53239 0,-0.29281 3.317034,-3.86076 7.371193,-7.92876 l 7.37119,-7.39636 3.1615,1.53597 c 1.73882,0.84479 3.16149,1.81167 3.16149,2.14864 0,0.97867 -5.29337,7.81297 -9.53779,12.3143 l -3.90046,4.13655 -2.831968,-2.13897 z m -9.22861,-4.33037 c -0.640583,-0.36694 -4.175826,-1.44718 -7.856099,-2.40053 l -6.691409,-1.73335 3.497745,-2.24335 c 8.089889,-5.18859 20.592029,-9.43078 25.229491,-8.56078 1.51297,0.28383 2.62515,0.5767 2.47151,0.65082 -0.15363,0.0741 -3.70095,3.46917 -7.882935,7.54457 -5.970233,5.81806 -7.853804,7.26648 -8.768303,6.74262 z m 39.776058,-2.04256 c -0.66119,-0.73061 -1.20217,-1.65931 -1.20217,-2.06378 0,-0.40447 2.1396,-3.47333 4.75465,-6.81969 2.61507,-3.34636 5.63867,-7.48366 6.71913,-9.194 1.08047,-1.71034 2.18421,-3.1103 2.45275,-3.11101 0.54523,-0.001 6.41963,6.69181 6.37412,7.26263 -0.0159,0.19975 -3.20087,2.73249 -7.07764,5.62831 -3.87677,2.89582 -7.70243,6.24537 -8.50146,7.44343 -1.70322,2.55382 -1.93111,2.60912 -3.51938,0.85411 z m -6.8445,-6.74298 c -1.89022,-1.33869 -2.90173,-2.5308 -2.59197,-3.05478 0.27939,-0.47263 2.34535,-3.3109 4.591,-6.30727 2.24566,-2.99637 4.97848,-7.00061 6.07295,-8.89831 1.09447,-1.8977 2.22133,-3.44947 2.50412,-3.4484 0.2828,7.3e-4 1.96017,1.24889 3.72751,2.77292 l 3.21333,2.77094 -2.44234,3.58302 c -3.61673,5.3059 -11.05604,14.84696 -11.54735,14.80971 -0.23501,-0.0178 -1.82228,-1.02034 -3.52725,-2.22783 z m -8.52232,-5.12697 c -1.59806,-0.83152 -3.01325,-1.60575 -3.14486,-1.72052 -0.13162,-0.11476 2.46338,-4.40485 5.76667,-9.53352 3.30329,-5.12868 6.05227,-9.40564 6.10885,-9.50434 0.10314,-0.17993 7.04569,2.04091 7.48224,2.39348 0.61454,0.4963 -3.45122,7.18689 -8.03469,13.22183 -2.8067,3.69552 -5.14124,6.70468 -5.18787,6.68702 -0.0466,-0.0177 -1.39227,-0.71243 -2.99034,-1.54395 z m -9.92647,-3.40033 -1.93614,-0.47156 2.36705,-5.85064 c 1.30188,-3.21786 3.262,-7.37775 4.35582,-9.24422 l 1.98876,-3.39355 4.48106,0.44757 c 2.46458,0.24616 4.5664,0.51439 4.6707,0.59607 0.62023,0.4857 -11.74149,18.18925 -12.76391,18.27952 -0.67495,0.0596 -2.09845,-0.10384 -3.16334,-0.36319 z m 44.0067,-3.19411 c -4.56798,-4.98652 -4.91039,-5.54521 -4.04081,-6.593 0.45157,-0.54411 1.9461,-4.01539 3.32116,-7.71395 1.37507,-3.69856 2.64919,-6.87373 2.83139,-7.05592 0.50392,-0.50393 7.02752,4.27911 7.03428,5.15746 0.008,0.9946 -5.88005,17.30389 -6.50576,18.02139 -0.26199,0.30041 -1.4501,-0.51678 -2.64026,-1.81598 z m 6.37817,-0.60865 c 0.21478,-0.56493 1.47544,-4.02955 2.80147,-7.69914 l 2.41097,-6.67199 1.92643,1.37174 c 3.44287,2.45153 3.95802,3.43349 2.86889,5.46854 -0.52991,0.99015 -2.62216,3.04266 -4.64944,4.56112 -5.07755,3.80316 -5.83472,4.22281 -5.35832,2.96973 z m -16.48745,-8.71226 c -1.59806,-1.20821 -3.1557,-2.44622 -3.46142,-2.75114 -0.30572,-0.30491 0.75663,-3.24018 2.36077,-6.52283 1.60415,-3.28264 2.91663,-6.26563 2.91663,-6.62888 0,-1.45712 1.52028,-1.4209 4.67416,0.11138 1.82388,0.88611 3.31615,1.81028 3.31615,2.05372 0,0.70718 -4.3135,12.54216 -5.22669,14.34054 -1.04196,2.05192 -1.07387,2.04772 -4.5796,-0.60279 z m 25.49725,-5.93474 -2.71089,-2.36078 1.53616,-8.71671 c 0.84488,-4.79419 1.62755,-9.039323 1.73925,-9.433631 0.11171,-0.394315 1.12454,0.675458 2.25075,2.377261 1.75171,2.64702 2.05533,3.8529 2.10089,8.34405 0.0596,5.8729 -0.79002,12.15058 -1.6444,12.15058 -0.30848,0 -1.78077,-1.06235 -3.27176,-2.36077 z m -36.54342,-0.28904 -3.05585,-1.08234 1.6868,-3.76346 c 1.77641,-3.96339 4.28533,-9.40919 4.52114,-9.81345 0.26065,-0.44685 8.2878,2.32707 8.09044,2.7958 -3.51637,8.35138 -6.0575,13.05138 -7.0304,13.00313 -0.63595,-0.0315 -2.53141,-0.5444 -4.21213,-1.13968 z m -12.01679,-2.2377 c -1.49818,-0.15671 -2.72397,-0.43213 -2.72397,-0.61204 0,-0.56721 8.01995,-13.31922 8.60349,-13.67988 0.59606,-0.36838 5.79813,0.65126 6.40163,1.25476 0.1992,0.1992 -1.01817,3.33311 -2.70527,6.96425 -3.35206,7.21463 -2.68789,6.79342 -9.57588,6.07291 z m 39.2861,-4.23893 -3.38945,-2.54479 2.71293,-8.10353 c 1.49211,-4.456937 3.06312,-8.220252 3.49113,-8.362923 0.42801,-0.14267 1.68979,0.524702 2.80394,1.483054 l 2.02573,1.742462 -1.28952,7.552937 c -1.63094,9.55273 -1.92579,10.82678 -2.49927,10.79964 -0.25632,-0.0121 -1.99129,-1.16721 -3.85549,-2.56685 z m -9.50401,-5.45276 c -1.49819,-0.78987 -2.72397,-1.75934 -2.72397,-2.15437 0,-0.39503 0.65375,-3.07738 1.45278,-5.960783 0.79903,-2.8834 1.45278,-6.022257 1.45278,-6.975226 0,-1.685317 0.11417,-1.718484 4.17676,-1.213198 2.29722,0.285712 4.3969,0.654087 4.66598,0.818608 0.65119,0.398171 -4.75624,16.484009 -5.62384,16.729599 -0.37208,0.10533 -1.90231,-0.45475 -3.40049,-1.24463 z m -10.1695,-4.14079 -3.45036,-1.14767 0,-4.162536 0,-4.16254 3.39817,-1.157869 c 3.36427,-1.14632 8.22411,-1.569095 8.22411,-0.715439 0,1.949063 -3.36226,12.617584 -3.95938,12.563184 -0.41919,-0.0382 -2.31484,-0.58591 -4.21254,-1.21713 z m -10.71428,-2.92928 c 0,-0.32115 1.14407,-1.692778 2.54237,-3.048066 l 2.54237,-2.464163 0,3.048058 c 0,2.999241 -0.0407,3.048061 -2.54237,3.048061 -1.3983,0 -2.54237,-0.26275 -2.54237,-0.58389 z m 68.38595,83.41188 c 5.41476,-1.68141 14.48697,-6.7078 18.85434,-10.4461 3.97965,-3.40645 7.77327,-8.76999 8.34012,-11.79159 0.5736,-3.05752 -0.69635,-6.88478 -3.00375,-9.05247 l -1.81218,-1.70246 -3.97788,1.95094 c -5.12794,2.51497 -5.11823,2.02258 0.0173,-0.87572 4.3853,-2.47491 4.9701,-4.06108 2.94269,-7.98164 -2.00037,-3.86831 -4.37324,-4.8008 -12.0226,-4.72466 -15.65741,0.15586 -26.01762,5.89367 -31.73251,17.57451 -2.80411,5.73138 -3.20214,12.69767 -0.97286,17.02709 3.55232,6.89889 9.78396,11.21053 16.46663,11.39318 1.25634,0.0344 4.36167,-0.58265 6.90072,-1.37108 z"
       id="path4382"
       inkscape:connector-curvature="0" />
    <path
       style="fill:#cd8e69"
       d="m 37.197852,328.33872 c -4.842998,-1.1436 -7.41712,-5.10703 -7.413055,-11.41402 0.0046,-7.17743 3.709184,-11.11356 10.459721,-11.11356 4.058503,0 6.970978,1.26266 6.970978,3.02217 0,1.61216 -0.02637,1.61466 -2.640939,0.25107 -3.286224,-1.71388 -6.462533,-1.37704 -9.081594,0.96309 -1.933163,1.72728 -2.355523,2.69831 -2.633928,6.05552 -0.36428,4.39273 0.955099,7.97985 3.420342,9.29921 2.037555,1.09046 6.32745,0.91468 8.793015,-0.36031 2.026609,-1.04801 2.143104,-1.02965 2.143104,0.33764 0,2.46178 -5.386169,4.05284 -10.017644,2.95919 z m 42.342099,0.0231 c -5.600063,-1.30833 -8.843337,-6.32201 -8.107686,-12.53343 0.762768,-6.44039 4.611037,-10.0096 10.79748,-10.01452 4.541934,-0.004 7.116501,1.21628 7.116501,3.37197 l 0,1.6887 -2.360775,-1.43939 c -5.588884,-3.4076 -11.686402,-0.32178 -12.216058,6.1823 -0.360276,4.42415 0.145664,6.38276 2.172291,8.40938 1.701298,1.7013 2.756469,2.12331 5.309106,2.12331 1.752189,0 3.820315,-0.47992 4.595826,-1.06649 1.896704,-1.43459 2.49961,-1.37382 2.49961,0.25197 0,2.15388 -5.834005,3.95425 -9.806295,3.0262 z m 63.786619,-0.13586 c -4.48871,-1.24263 -5.31204,-3.32464 -5.31204,-13.43286 0,-8.49768 0.0783,-8.98195 1.45278,-8.98195 1.37208,0 1.45279,0.48427 1.45279,8.71671 0,7.74819 0.16141,8.87813 1.45278,10.16949 1.71049,1.7105 5.61202,1.92581 7.66988,0.42327 1.24147,-0.90646 1.43881,-2.12212 1.65087,-10.16949 0.22245,-8.4425 0.34717,-9.13998 1.63438,-9.13998 1.29255,0 1.39354,0.60197 1.39354,8.30623 0,4.56842 -0.31229,9.12759 -0.69398,10.1315 -1.2809,3.36904 -6.23987,5.21207 -10.701,3.97708 z m 76.95188,-10e-4 c -2.39694,-0.54899 -3.08717,-1.03971 -3.08717,-2.19483 0,-1.13674 0.29992,-1.36136 1.27119,-0.95202 0.69915,0.29465 2.92835,0.69209 4.95377,0.8832 4.14084,0.39069 6.12371,-0.82966 6.12371,-3.76882 0,-2.21968 -1.15268,-3.06962 -5.47735,-4.0388 -5.70359,-1.27821 -8.10254,-4.65641 -6.4201,-9.04078 1.47033,-3.83159 14.07663,-4.69104 14.07663,-0.95968 0,1.0879 -0.31466,1.31892 -1.27119,0.93329 -3.04351,-1.22701 -6.71914,-1.26281 -8.51978,-0.083 -3.60685,2.3633 -1.5829,5.55855 4.15856,6.56522 4.12856,0.72388 6.50408,3.12958 6.50408,6.58669 0,2.18983 -0.44977,3.24248 -1.92913,4.51497 -1.06102,0.91265 -2.48293,1.66382 -3.1598,1.66928 -0.67688,0.006 -1.88444,0.14097 -2.68347,0.30114 -0.79903,0.16018 -2.84201,-0.0269 -4.53995,-0.41586 z M 50.851967,324.51574 c 7.018503,-18.62717 6.882574,-18.3414 8.724191,-18.3414 1.596825,0 2.148747,1.00724 5.958663,10.87441 2.309359,5.98093 4.198834,10.98853 4.198834,11.128 0,0.13948 -0.707983,0.14914 -1.573295,0.0215 -1.056343,-0.15588 -1.852541,-1.06752 -2.423149,-2.77452 l -0.849853,-2.54238 -5.16551,-0.21264 -5.165509,-0.21265 -0.879832,2.93662 c -0.70053,2.33816 -1.2244,2.93661 -2.570637,2.93661 l -1.690807,0 1.436904,-3.81356 z M 63.18407,319.431 c -0.0066,-0.4994 -0.794144,-3.03269 -1.750031,-5.62954 l -1.737977,-4.72155 -0.86622,2.17918 c -1.604075,4.03542 -2.897639,7.80536 -2.897639,8.44484 0,0.34928 1.634382,0.63506 3.631961,0.63506 2.427737,0 3.627964,-0.30105 3.619906,-0.90799 z m 28.611658,7.69104 c 0.261138,-0.73431 2.186687,-5.84275 4.279002,-11.35209 3.498124,-9.21104 3.94178,-10.00004 5.51409,-9.8063 1.49045,0.18365 2.25063,1.63236 5.92323,11.28817 4.0757,10.71561 4.16004,11.07748 2.58185,11.07748 -1.27694,0 -1.8227,-0.63819 -2.51133,-2.93661 l -0.87983,-2.93662 -5.16551,0.21265 -5.165507,0.21264 -0.849857,2.54238 c -0.593368,1.7751 -1.355514,2.61646 -2.52539,2.78789 -1.357649,0.19894 -1.58546,-0.008 -1.200748,-1.08959 z m 13.530782,-7.32785 c -2e-4,-0.29963 -0.66703,-2.34261 -1.48184,-4.53995 -0.81481,-2.19733 -1.66291,-4.48547 -1.88466,-5.08474 -0.23935,-0.64682 -1.26067,1.11946 -2.513323,4.34653 -1.160565,2.98987 -2.110126,5.52316 -2.110126,5.62954 0,0.10638 1.79782,0.19342 3.995159,0.19342 2.19733,0 3.99499,-0.24516 3.99479,-0.5448 z m 9.44346,-2.72397 c 0,-10.68308 0.0726,-11.25908 1.41813,-11.25908 1.23223,0 1.44647,0.5951 1.63438,4.53996 l 0.21626,4.53995 5.62954,0.21215 5.62954,0.21215 0,-4.7521 c 0,-4.26784 0.14805,-4.75211 1.45278,-4.75211 1.3903,0 1.45279,0.48427 1.45279,11.25908 0,10.69077 -0.0717,11.25908 -1.42096,11.25908 -1.26007,0 -1.44513,-0.59631 -1.63439,-5.26634 l -0.21342,-5.26634 -5.44794,0 -5.44794,0 -0.21342,5.26634 c -0.18926,4.67003 -0.37432,5.26634 -1.63438,5.26634 -1.34924,0 -1.42097,-0.56831 -1.42097,-11.25908 z m 45.76272,0 0,-11.25908 6.90072,0 c 6.41646,0 6.90073,0.10195 6.90073,1.45279 0,1.32364 -0.48427,1.45278 -5.44794,1.45278 l -5.44795,0 0,3.26877 0,3.26876 5.44795,0 c 4.35835,0 5.44794,0.21792 5.44794,1.08959 0,0.87231 -1.09361,1.08959 -5.48419,1.08959 l -5.4842,0 0.21786,4.17676 0.21784,4.17675 5.62954,0.21215 c 4.35057,0.16396 5.62954,0.45275 5.62954,1.27119 0,0.85718 -1.38451,1.05903 -7.26392,1.05903 l -7.26392,0 0,-11.25908 z m 23.97094,1.49075 0,-9.76833 -3.81356,-0.21956 c -2.80798,-0.16167 -3.81356,-0.50687 -3.81356,-1.30915 0,-0.90092 1.60367,-1.12479 9.2615,-1.29289 8.88945,-0.19513 9.2615,-0.14407 9.2615,1.27118 0,1.28513 -0.46644,1.47449 -3.63196,1.47449 l -3.63196,0 0,9.8063 0,9.80629 -1.81598,0 -1.81598,0 0,-9.76833 z m 14.52784,-1.49075 0,-11.25908 6.90073,0 c 6.41646,0 6.90073,0.10195 6.90073,1.45279 0,1.32364 -0.48427,1.45278 -5.44794,1.45278 l -5.44795,0 0,3.26877 0,3.26876 5.08475,0 c 4.03552,0 5.08475,0.22484 5.08475,1.08959 0,0.86476 -1.04923,1.08959 -5.08475,1.08959 l -5.08475,0 0,4.35835 0,4.35836 5.44795,0 c 4.35835,0 5.44794,0.21791 5.44794,1.08959 0,0.89206 -1.25101,1.08958 -6.90073,1.08958 l -6.90073,0 0,-11.25908 z M 115.08831,272.00624 C 81.975943,267.17116 53.388471,249.10649 35.240379,221.54964 25.810508,207.23092 20.476062,193.3608 17.360671,175.06054 c -1.178372,-6.92193 -1.183319,-26.19067 -0.0087,-33.77724 7.41965,-47.920531 42.863913,-85.22179 90.880439,-95.641851 6.58009,-1.427943 9.7212,-1.65516 22.88136,-1.65516 13.16016,0 16.30127,0.227217 22.88136,1.65516 48.01653,10.420061 83.46079,47.72132 90.88044,95.641851 1.17465,7.58657 1.1697,26.85531 -0.009,33.77724 -5.35749,31.47066 -19.95335,56.04884 -44.38267,74.73663 -23.8955,18.27941 -55.68622,26.54728 -85.39595,22.20907 z m 49.84041,-37.06418 c 2.70235,-1.35902 7.84766,-7.19483 9.44439,-10.71181 6.0437,-13.31196 -7.17798,-42.64316 -19.21576,-42.62857 -2.01914,0.002 -3.65438,0.54469 -5.07806,1.68389 l -2.09988,1.68029 1.25446,5.63853 c 0.68994,3.10119 1.12162,5.77136 0.95927,5.93371 -0.16236,0.16235 -0.87306,-2.15602 -1.57935,-5.15194 -1.33235,-5.65152 -2.34516,-6.88514 -5.64836,-6.87981 -2.9375,0.005 -6.26105,2.67289 -8.33361,6.69023 -1.82088,3.52949 -1.97576,4.48535 -1.91678,11.83006 0.13195,16.43045 5.53918,28.07191 14.74259,31.73996 4.94345,1.97023 13.72688,2.05845 17.47109,0.17546 z m -14.50818,-36.33431 c 0.0349,-0.84621 0.20698,-1.01832 0.43886,-0.43886 0.20983,0.52436 0.18403,1.15088 -0.0573,1.39225 -0.24138,0.24138 -0.41306,-0.18765 -0.38152,-0.95339 z m -61.015761,10.64777 c 10.390895,-1.91963 17.216881,-4.4348 22.748611,-8.38216 7.42193,-5.29618 12.13711,-10.91524 15.97184,-19.03356 10.40819,-22.03473 10.52028,-22.1797 25.80916,-33.37931 7.02494,-5.14601 14.04364,-10.64347 15.5971,-12.21658 4.40582,-4.46155 7.52993,-11.84213 8.43359,-19.92396 1.4336,-12.82134 -1.82207,-21.615549 -10.28706,-27.787341 -10.82863,-7.895135 -18.65689,-9.843131 -30.75308,-7.652615 -10.05524,1.820913 -13.48817,3.535301 -20.56555,10.270352 -5.18926,4.938261 -7.361,7.742114 -11.93652,15.410834 -3.07622,5.15585 -6.92529,12.29909 -8.553498,15.87386 -1.628201,3.57478 -3.211366,6.96738 -3.518143,7.53911 -0.306784,0.57174 -3.232126,1.93815 -6.50076,3.03646 -5.886712,1.97802 -14.034839,6.40199 -20.616198,11.19343 -8.520294,6.20303 -17.686458,20.25707 -20.59863,31.58289 -1.059298,4.11975 -1.102463,5.6474 -0.338658,11.98547 0.481459,3.99516 1.517623,8.63237 2.302586,10.30491 2.691475,5.7348 9.729152,10.57012 17.228971,11.83736 6.356687,1.0741 17.78911,0.77946 25.576239,-0.65915 z M 65.019901,199.12135 c -2.10091,-0.44955 -1.799336,-0.75531 9.292321,-9.42126 l 11.463704,-8.95662 3.179971,2.93119 3.179971,2.9312 -8.024092,6.57601 -8.024092,6.576 -4.448201,-0.0859 c -2.44651,-0.0473 -5.425322,-0.29503 -6.619582,-0.55058 z m 16.33603,-0.33587 c 2.355233,-2.33096 11.786717,-9.92349 12.327022,-9.92349 0.315167,0 1.778215,1.47077 3.251223,3.26837 l 2.678186,3.26838 -2.045891,0.79138 c -1.967128,0.76092 -8.298588,2.16221 -14.394559,3.18583 -2.572613,0.43199 -2.78071,0.36432 -1.815981,-0.59047 z m -23.857986,-3.77054 c -2.073001,-2.6354 -2.817049,-7.61742 -1.267171,-8.48478 0.653827,-0.3659 3.06054,-2.20649 5.34825,-4.0902 2.287711,-1.88371 5.650932,-4.63078 7.473825,-6.10462 l 3.314352,-2.67969 5.559229,2.6278 c 3.057574,1.44528 5.396949,2.89035 5.198615,3.21127 -0.863826,1.3977 -22.084962,17.35758 -23.079598,17.35758 -0.606228,0 -1.752604,-0.82681 -2.547502,-1.83736 z m 41.434165,-4.31982 -3.042138,-3.89513 3.084066,-2.34361 c 1.696242,-1.28899 4.746052,-4.15455 6.777352,-6.36793 l 3.69329,-4.02431 2.70157,5.03815 2.70156,5.03815 -4.3192,3.99516 c -2.37557,2.19733 -5.27211,4.54854 -6.43678,5.22491 l -2.11758,1.22974 -3.04214,-3.89513 z m -44.448641,-7.80031 c 0.0053,-2.18727 1.220032,-6.79385 2.700395,-10.24091 0.955108,-2.22401 1.488275,-2.69486 2.705523,-2.38935 0.8338,0.20927 3.243419,0.75095 5.354707,1.20374 2.111289,0.45279 3.739991,1.08502 3.61934,1.40496 -0.272641,0.72296 -11.375407,10.01907 -13.112829,10.9791 -1.045025,0.57743 -1.270466,0.40707 -1.267136,-0.95754 z m 35.965382,-1.28341 c -1.553302,-1.59073 -2.671946,-2.97996 -2.485867,-3.08716 0.18608,-0.10722 3.348422,-3.12656 7.027431,-6.70967 l 6.689105,-6.51472 3.24408,3.18382 3.24409,3.18383 -3.0035,3.58735 c -2.98297,3.56283 -9.866394,9.24879 -11.196578,9.24879 -0.38201,0 -1.965451,-1.30151 -3.518761,-2.89224 z m 23.063479,-5.03085 -2.34724,-4.27389 3.80002,-4.64178 c 2.09001,-2.55298 5.25361,-6.87636 7.03022,-9.60752 l 3.2302,-4.96574 1.57731,1.97815 1.57733,1.97815 -4.10489,8.09831 c -2.25769,4.45408 -4.80155,9.81443 -5.65301,11.91188 -0.85147,2.09746 -1.82141,3.80969 -2.15542,3.80494 -0.33401,-0.005 -1.66354,-1.93186 -2.95452,-4.2825 z m -33.810299,-2.16775 -4.922659,-2.76534 3.026942,-2.00314 c 1.664818,-1.10172 5.097559,-3.92942 7.62831,-6.28377 2.53075,-2.35435 4.952724,-4.28064 5.382159,-4.28064 1.022347,0 5.007799,2.05569 7.013971,3.61781 1.581356,1.23133 1.573555,1.24339 -5.098394,7.8876 -3.675196,3.65992 -7.002908,6.64054 -7.39492,6.62361 -0.392012,-0.0169 -2.927942,-1.2752 -5.635409,-2.79613 z m -14.309238,-5.29871 c -2.986748,-0.77196 -5.551549,-1.52466 -5.699558,-1.67267 -0.423481,-0.42348 3.738235,-6.20544 7.38999,-10.26707 l 3.323902,-3.69698 3.565281,0.5636 c 1.960911,0.30997 5.966993,1.27885 8.902409,2.15305 l 5.337117,1.58946 -3.2464,2.85842 c -5.45867,4.80627 -12.498294,10.06544 -13.342628,9.96801 -0.439814,-0.0508 -3.243365,-0.72387 -6.230113,-1.49582 z m 40.938617,-2.61176 -2.99062,-3.47273 3.19313,-3.60923 c 1.75623,-1.98507 4.71772,-5.65221 6.58109,-8.14918 1.86337,-2.49697 3.60273,-4.53995 3.86525,-4.53995 0.26252,0 1.83839,0.98597 3.50195,2.19103 l 3.02463,2.19104 -2.82494,4.44309 c -3.07836,4.84169 -10.37261,14.41961 -10.98109,14.41903 -0.20833,-1.9e-4 -1.72456,-1.56308 -3.3694,-3.4731 z m -8.558048,-6.73623 c -1.557588,-1.17644 -3.27369,-2.13898 -3.813559,-2.13898 -0.539877,0 -0.981596,-0.23958 -0.981596,-0.53239 0,-0.29281 3.317034,-3.86076 7.371193,-7.92876 l 7.37119,-7.39636 3.1615,1.53597 c 1.73882,0.84479 3.16149,1.81167 3.16149,2.14864 0,0.97867 -5.29337,7.81297 -9.53779,12.3143 l -3.90046,4.13655 -2.831968,-2.13897 z m -9.22861,-4.33037 c -0.640583,-0.36694 -4.175826,-1.44718 -7.856099,-2.40053 l -6.691409,-1.73335 3.497745,-2.24335 c 8.089889,-5.18859 20.592029,-9.43078 25.229491,-8.56078 1.51297,0.28383 2.62515,0.5767 2.47151,0.65082 -0.15363,0.0741 -3.70095,3.46917 -7.882935,7.54457 -5.970233,5.81806 -7.853804,7.26648 -8.768303,6.74262 z m 39.776058,-2.04256 c -0.66119,-0.73061 -1.20217,-1.65931 -1.20217,-2.06378 0,-0.40447 2.1396,-3.47333 4.75465,-6.81969 2.61507,-3.34636 5.63867,-7.48366 6.71913,-9.194 1.08047,-1.71034 2.18421,-3.1103 2.45275,-3.11101 0.54523,-0.001 6.41963,6.69181 6.37412,7.26263 -0.0159,0.19975 -3.20087,2.73249 -7.07764,5.62831 -3.87677,2.89582 -7.70243,6.24537 -8.50146,7.44343 -1.70322,2.55382 -1.93111,2.60912 -3.51938,0.85411 z m -6.8445,-6.74298 c -1.89022,-1.33869 -2.90173,-2.5308 -2.59197,-3.05478 0.27939,-0.47263 2.34535,-3.3109 4.591,-6.30727 2.24566,-2.99637 4.97848,-7.00061 6.07295,-8.89831 1.09447,-1.8977 2.22133,-3.44947 2.50412,-3.4484 0.2828,7.3e-4 1.96017,1.24889 3.72751,2.77292 l 3.21333,2.77094 -2.44234,3.58302 c -3.61673,5.3059 -11.05604,14.84696 -11.54735,14.80971 -0.23501,-0.0178 -1.82228,-1.02034 -3.52725,-2.22783 z m -8.52232,-5.12697 c -1.59806,-0.83152 -3.01325,-1.60575 -3.14486,-1.72052 -0.13162,-0.11476 2.46338,-4.40485 5.76667,-9.53352 3.30329,-5.12868 6.05227,-9.40564 6.10885,-9.50434 0.10314,-0.17993 7.04569,2.04091 7.48224,2.39348 0.61454,0.4963 -3.45122,7.18689 -8.03469,13.22183 -2.8067,3.69552 -5.14124,6.70468 -5.18787,6.68702 -0.0466,-0.0177 -1.39227,-0.71243 -2.99034,-1.54395 z m -9.92647,-3.40033 -1.93614,-0.47156 2.36705,-5.85064 c 1.30188,-3.21786 3.262,-7.37775 4.35582,-9.24422 l 1.98876,-3.39355 4.48106,0.44757 c 2.46458,0.24616 4.5664,0.51439 4.6707,0.59607 0.62023,0.4857 -11.74149,18.18925 -12.76391,18.27952 -0.67495,0.0596 -2.09845,-0.10384 -3.16334,-0.36319 z m 44.0067,-3.19411 c -4.56798,-4.98652 -4.91039,-5.54521 -4.04081,-6.593 0.45157,-0.54411 1.9461,-4.01539 3.32116,-7.71395 1.37507,-3.69856 2.64919,-6.87373 2.83139,-7.05592 0.50392,-0.50393 7.02752,4.27911 7.03428,5.15746 0.008,0.9946 -5.88005,17.30389 -6.50576,18.02139 -0.26199,0.30041 -1.4501,-0.51678 -2.64026,-1.81598 z m 6.37817,-0.60865 c 0.21478,-0.56493 1.47544,-4.02955 2.80147,-7.69914 l 2.41097,-6.67199 1.92643,1.37174 c 3.44287,2.45153 3.95802,3.43349 2.86889,5.46854 -0.52991,0.99015 -2.62216,3.04266 -4.64944,4.56112 -5.07755,3.80316 -5.83472,4.22281 -5.35832,2.96973 z m -16.48745,-8.71226 c -1.59806,-1.20821 -3.1557,-2.44622 -3.46142,-2.75114 -0.30572,-0.30491 0.75663,-3.24018 2.36077,-6.52283 1.60415,-3.28264 2.91663,-6.26563 2.91663,-6.62888 0,-1.45712 1.52028,-1.4209 4.67416,0.11138 1.82388,0.88611 3.31615,1.81028 3.31615,2.05372 0,0.70718 -4.3135,12.54216 -5.22669,14.34054 -1.04196,2.05192 -1.07387,2.04772 -4.5796,-0.60279 z m 25.49725,-5.93474 -2.71089,-2.36078 1.53616,-8.71671 c 0.84488,-4.79419 1.62755,-9.039323 1.73925,-9.433631 0.11171,-0.394315 1.12454,0.675458 2.25075,2.377261 1.75171,2.64702 2.05533,3.8529 2.10089,8.34405 0.0596,5.8729 -0.79002,12.15058 -1.6444,12.15058 -0.30848,0 -1.78077,-1.06235 -3.27176,-2.36077 z m -36.54342,-0.28904 -3.05585,-1.08234 1.6868,-3.76346 c 1.77641,-3.96339 4.28533,-9.40919 4.52114,-9.81345 0.26065,-0.44685 8.2878,2.32707 8.09044,2.7958 -3.51637,8.35138 -6.0575,13.05138 -7.0304,13.00313 -0.63595,-0.0315 -2.53141,-0.5444 -4.21213,-1.13968 z m -12.01679,-2.2377 c -1.49818,-0.15671 -2.72397,-0.43213 -2.72397,-0.61204 0,-0.56721 8.01995,-13.31922 8.60349,-13.67988 0.59606,-0.36838 5.79813,0.65126 6.40163,1.25476 0.1992,0.1992 -1.01817,3.33311 -2.70527,6.96425 -3.35206,7.21463 -2.68789,6.79342 -9.57588,6.07291 z m 39.2861,-4.23893 -3.38945,-2.54479 2.71293,-8.10353 c 1.49211,-4.456937 3.06312,-8.220252 3.49113,-8.362923 0.42801,-0.14267 1.68979,0.524702 2.80394,1.483054 l 2.02573,1.742462 -1.28952,7.552937 c -1.63094,9.55273 -1.92579,10.82678 -2.49927,10.79964 -0.25632,-0.0121 -1.99129,-1.16721 -3.85549,-2.56685 z m -9.50401,-5.45276 c -1.49819,-0.78987 -2.72397,-1.75934 -2.72397,-2.15437 0,-0.39503 0.65375,-3.07738 1.45278,-5.960783 0.79903,-2.8834 1.45278,-6.022257 1.45278,-6.975226 0,-1.685317 0.11417,-1.718484 4.17676,-1.213198 2.29722,0.285712 4.3969,0.654087 4.66598,0.818608 0.65119,0.398171 -4.75624,16.484009 -5.62384,16.729599 -0.37208,0.10533 -1.90231,-0.45475 -3.40049,-1.24463 z m -10.1695,-4.14079 -3.45036,-1.14767 0,-4.162536 0,-4.16254 3.39817,-1.157869 c 3.36427,-1.14632 8.22411,-1.569095 8.22411,-0.715439 0,1.949063 -3.36226,12.617584 -3.95938,12.563184 -0.41919,-0.0382 -2.31484,-0.58591 -4.21254,-1.21713 z m -10.71428,-2.92928 c 0,-0.32115 1.14407,-1.692778 2.54237,-3.048066 l 2.54237,-2.464163 0,3.048058 c 0,2.999241 -0.0407,3.048061 -2.54237,3.048061 -1.3983,0 -2.54237,-0.26275 -2.54237,-0.58389 z m 68.38595,83.41188 c 5.41476,-1.68141 14.48697,-6.7078 18.85434,-10.4461 3.97965,-3.40645 7.77327,-8.76999 8.34012,-11.79159 0.5736,-3.05752 -0.69635,-6.88478 -3.00375,-9.05247 l -1.81218,-1.70246 -3.97788,1.95094 c -5.12794,2.51497 -5.11823,2.02258 0.0173,-0.87572 4.3853,-2.47491 4.9701,-4.06108 2.94269,-7.98164 -2.00037,-3.86831 -4.37324,-4.8008 -12.0226,-4.72466 -15.65741,0.15586 -26.01762,5.89367 -31.73251,17.57451 -2.80411,5.73138 -3.20214,12.69767 -0.97286,17.02709 3.55232,6.89889 9.78396,11.21053 16.46663,11.39318 1.25634,0.0344 4.36167,-0.58265 6.90072,-1.37108 z"
       id="path4380"
       inkscape:connector-curvature="0" />
    <path
       style="fill:#c17243"
       d="m 37.197852,328.33872 c -4.842998,-1.1436 -7.41712,-5.10703 -7.413055,-11.41402 0.0046,-7.17743 3.709184,-11.11356 10.459721,-11.11356 4.058503,0 6.970978,1.26266 6.970978,3.02217 0,1.61216 -0.02637,1.61466 -2.640939,0.25107 -3.286224,-1.71388 -6.462533,-1.37704 -9.081594,0.96309 -1.933163,1.72728 -2.355523,2.69831 -2.633928,6.05552 -0.36428,4.39273 0.955099,7.97985 3.420342,9.29921 2.037555,1.09046 6.32745,0.91468 8.793015,-0.36031 2.026609,-1.04801 2.143104,-1.02965 2.143104,0.33764 0,2.46178 -5.386169,4.05284 -10.017644,2.95919 z m 42.342099,0.0231 c -5.600063,-1.30833 -8.843337,-6.32201 -8.107686,-12.53343 0.762768,-6.44039 4.611037,-10.0096 10.79748,-10.01452 4.541934,-0.004 7.116501,1.21628 7.116501,3.37197 l 0,1.6887 -2.360775,-1.43939 c -5.588884,-3.4076 -11.686402,-0.32178 -12.216058,6.1823 -0.360276,4.42415 0.145664,6.38276 2.172291,8.40938 1.701298,1.7013 2.756469,2.12331 5.309106,2.12331 1.752189,0 3.820315,-0.47992 4.595826,-1.06649 1.896704,-1.43459 2.49961,-1.37382 2.49961,0.25197 0,2.15388 -5.834005,3.95425 -9.806295,3.0262 z m 63.786619,-0.13586 c -4.48871,-1.24263 -5.31204,-3.32464 -5.31204,-13.43286 0,-8.49768 0.0783,-8.98195 1.45278,-8.98195 1.37208,0 1.45279,0.48427 1.45279,8.71671 0,7.74819 0.16141,8.87813 1.45278,10.16949 1.71049,1.7105 5.61202,1.92581 7.66988,0.42327 1.24147,-0.90646 1.43881,-2.12212 1.65087,-10.16949 0.22245,-8.4425 0.34717,-9.13998 1.63438,-9.13998 1.29255,0 1.39354,0.60197 1.39354,8.30623 0,4.56842 -0.31229,9.12759 -0.69398,10.1315 -1.2809,3.36904 -6.23987,5.21207 -10.701,3.97708 z m 76.95188,-10e-4 c -2.39694,-0.54899 -3.08717,-1.03971 -3.08717,-2.19483 0,-1.13674 0.29992,-1.36136 1.27119,-0.95202 0.69915,0.29465 2.92835,0.69209 4.95377,0.8832 4.14084,0.39069 6.12371,-0.82966 6.12371,-3.76882 0,-2.21968 -1.15268,-3.06962 -5.47735,-4.0388 -5.70359,-1.27821 -8.10254,-4.65641 -6.4201,-9.04078 1.47033,-3.83159 14.07663,-4.69104 14.07663,-0.95968 0,1.0879 -0.31466,1.31892 -1.27119,0.93329 -3.04351,-1.22701 -6.71914,-1.26281 -8.51978,-0.083 -3.60685,2.3633 -1.5829,5.55855 4.15856,6.56522 4.12856,0.72388 6.50408,3.12958 6.50408,6.58669 0,2.18983 -0.44977,3.24248 -1.92913,4.51497 -1.06102,0.91265 -2.48293,1.66382 -3.1598,1.66928 -0.67688,0.006 -1.88444,0.14097 -2.68347,0.30114 -0.79903,0.16018 -2.84201,-0.0269 -4.53995,-0.41586 z M 50.851967,324.51574 c 7.018503,-18.62717 6.882574,-18.3414 8.724191,-18.3414 1.596825,0 2.148747,1.00724 5.958663,10.87441 2.309359,5.98093 4.198834,10.98853 4.198834,11.128 0,0.13948 -0.707983,0.14914 -1.573295,0.0215 -1.056343,-0.15588 -1.852541,-1.06752 -2.423149,-2.77452 l -0.849853,-2.54238 -5.16551,-0.21264 -5.165509,-0.21265 -0.879832,2.93662 c -0.70053,2.33816 -1.2244,2.93661 -2.570637,2.93661 l -1.690807,0 1.436904,-3.81356 z M 63.18407,319.431 c -0.0066,-0.4994 -0.794144,-3.03269 -1.750031,-5.62954 l -1.737977,-4.72155 -0.86622,2.17918 c -1.604075,4.03542 -2.897639,7.80536 -2.897639,8.44484 0,0.34928 1.634382,0.63506 3.631961,0.63506 2.427737,0 3.627964,-0.30105 3.619906,-0.90799 z m 28.611658,7.69104 c 0.261138,-0.73431 2.186687,-5.84275 4.279002,-11.35209 3.498124,-9.21104 3.94178,-10.00004 5.51409,-9.8063 1.49045,0.18365 2.25063,1.63236 5.92323,11.28817 4.0757,10.71561 4.16004,11.07748 2.58185,11.07748 -1.27694,0 -1.8227,-0.63819 -2.51133,-2.93661 l -0.87983,-2.93662 -5.16551,0.21265 -5.165507,0.21264 -0.849857,2.54238 c -0.593368,1.7751 -1.355514,2.61646 -2.52539,2.78789 -1.357649,0.19894 -1.58546,-0.008 -1.200748,-1.08959 z m 13.530782,-7.32785 c -2e-4,-0.29963 -0.66703,-2.34261 -1.48184,-4.53995 -0.81481,-2.19733 -1.66291,-4.48547 -1.88466,-5.08474 -0.23935,-0.64682 -1.26067,1.11946 -2.513323,4.34653 -1.160565,2.98987 -2.110126,5.52316 -2.110126,5.62954 0,0.10638 1.79782,0.19342 3.995159,0.19342 2.19733,0 3.99499,-0.24516 3.99479,-0.5448 z m 9.44346,-2.72397 c 0,-10.68308 0.0726,-11.25908 1.41813,-11.25908 1.23223,0 1.44647,0.5951 1.63438,4.53996 l 0.21626,4.53995 5.62954,0.21215 5.62954,0.21215 0,-4.7521 c 0,-4.26784 0.14805,-4.75211 1.45278,-4.75211 1.3903,0 1.45279,0.48427 1.45279,11.25908 0,10.69077 -0.0717,11.25908 -1.42096,11.25908 -1.26007,0 -1.44513,-0.59631 -1.63439,-5.26634 l -0.21342,-5.26634 -5.44794,0 -5.44794,0 -0.21342,5.26634 c -0.18926,4.67003 -0.37432,5.26634 -1.63438,5.26634 -1.34924,0 -1.42097,-0.56831 -1.42097,-11.25908 z m 45.76272,0 0,-11.25908 6.90072,0 c 6.41646,0 6.90073,0.10195 6.90073,1.45279 0,1.32364 -0.48427,1.45278 -5.44794,1.45278 l -5.44795,0 0,3.26877 0,3.26876 5.44795,0 c 4.35835,0 5.44794,0.21792 5.44794,1.08959 0,0.87231 -1.09361,1.08959 -5.48419,1.08959 l -5.4842,0 0.21786,4.17676 0.21784,4.17675 5.62954,0.21215 c 4.35057,0.16396 5.62954,0.45275 5.62954,1.27119 0,0.85718 -1.38451,1.05903 -7.26392,1.05903 l -7.26392,0 0,-11.25908 z m 23.97094,1.49075 0,-9.76833 -3.81356,-0.21956 c -2.80798,-0.16167 -3.81356,-0.50687 -3.81356,-1.30915 0,-0.90092 1.60367,-1.12479 9.2615,-1.29289 8.88945,-0.19513 9.2615,-0.14407 9.2615,1.27118 0,1.28513 -0.46644,1.47449 -3.63196,1.47449 l -3.63196,0 0,9.8063 0,9.80629 -1.81598,0 -1.81598,0 0,-9.76833 z m 14.52784,-1.49075 0,-11.25908 6.90073,0 c 6.41646,0 6.90073,0.10195 6.90073,1.45279 0,1.32364 -0.48427,1.45278 -5.44794,1.45278 l -5.44795,0 0,3.26877 0,3.26876 5.08475,0 c 4.03552,0 5.08475,0.22484 5.08475,1.08959 0,0.86476 -1.04923,1.08959 -5.08475,1.08959 l -5.08475,0 0,4.35835 0,4.35836 5.44795,0 c 4.35835,0 5.44794,0.21791 5.44794,1.08959 0,0.89206 -1.25101,1.08958 -6.90073,1.08958 l -6.90073,0 0,-11.25908 z M 122.0339,272.69465 c -16.93163,-2.0047 -26.576966,-4.559 -39.58838,-10.48394 C 60.326959,252.13872 39.900424,232.24369 28.622692,209.78838 20.21729,193.05223 16.508427,176.99457 16.574924,157.62712 16.68916,124.35487 29.963899,94.987912 55.110696,72.376615 75.416338,54.118348 103.17976,43.610151 131.1138,43.610151 c 56.43543,0 104.21353,40.761139 113.39682,96.742729 1.33824,8.15799 1.50052,25.64486 0.31196,33.61807 -3.66851,24.60948 -14.06077,45.97499 -30.84802,63.42061 -17.96278,18.66726 -40.19262,30.37821 -65.06415,34.27659 -5.24006,0.82133 -22.90954,1.49619 -26.87651,1.0265 z m 42.41846,-37.31486 c 2.29123,-0.87112 8.09708,-6.95531 9.62408,-10.08547 1.63024,-3.34181 2.14272,-12.32828 1.01329,-17.76866 -1.87104,-9.01276 -9.95032,-22.08015 -15.39128,-24.89378 -3.13563,-1.62149 -7.47252,-1.31676 -9.80423,0.6889 -1.96698,1.69193 -1.98696,1.79122 -1.11779,5.5567 0.48675,2.10868 0.75285,3.96612 0.59135,4.12763 -0.16151,0.16151 -0.70483,-1.4401 -1.20737,-3.55912 -1.05142,-4.43344 -1.5549,-4.91602 -5.14477,-4.93123 -3.40549,-0.0145 -5.97728,2.04277 -8.47555,6.77966 -1.83861,3.48615 -1.96787,4.31888 -1.89106,12.1835 0.0928,9.50652 1.67973,16.1677 5.53087,23.2166 2.54732,4.66248 6.62262,7.64605 12.45648,9.11955 3.74667,0.94632 10.76498,0.72571 13.81598,-0.43428 z M 88.945503,209.56317 c 21.001637,-3.44178 33.846577,-13.33818 41.482557,-31.96026 1.14674,-2.79661 3.75872,-8.02664 5.80439,-11.62228 4.0912,-7.19102 6.05561,-9.009 23.48034,-21.73009 4.87866,-3.56172 9.83802,-7.57803 11.02079,-8.92512 6.36975,-7.25475 9.42309,-20.73899 7.15478,-31.59717 -1.77049,-8.475168 -7.16467,-14.545113 -18.28498,-20.57565 l -5.24503,-2.844371 -9.4431,0.0486 c -8.02399,0.04126 -10.26975,0.320586 -14.94387,1.858598 -8.10394,2.666586 -15.12226,8.301334 -21.09595,16.937143 -4.66822,6.74858 -12.648768,21.21104 -15.111492,27.38529 -1.640215,4.11214 -1.685012,4.15173 -6.485019,5.73115 -17.979811,5.91615 -32.685502,18.71801 -39.58706,34.46204 -4.017008,9.1637 -4.632459,13.44108 -3.281661,22.80752 0.977209,6.77598 1.467243,8.32561 3.549815,11.22554 3.038392,4.23088 7.89391,7.37807 13.4597,8.72414 5.677963,1.3732 19.376243,1.4105 27.52579,0.0749 z M 66.283292,199.2324 c -1.298426,-0.16113 -2.360775,-0.52077 -2.360775,-0.7992 0,-0.27844 2.355999,-2.30071 5.235554,-4.49394 2.879555,-2.19322 7.792676,-6.03317 10.918044,-8.53321 l 5.682487,-4.54551 3.065012,2.87046 c 2.762194,2.58688 2.946015,2.9642 1.860581,3.81913 -0.662433,0.52176 -4.290428,3.48196 -8.062213,6.5782 -7.38762,6.06448 -7.732206,6.17213 -16.33869,5.10407 z m 14.346247,0.205 c 0,-0.0656 2.976247,-2.52836 6.613881,-5.47281 l 6.613882,-5.35354 2.436915,2.84944 c 1.340302,1.56719 2.349893,3.1498 2.243535,3.51689 -0.299659,1.03431 -5.323613,2.55956 -11.915477,3.6175 -3.296005,0.52898 -5.992736,0.90812 -5.992736,0.84252 z m -23.088672,-4.58267 c -0.767707,-1.09867 -1.58607,-3.22007 -1.818584,-4.71422 -0.391249,-2.51418 -0.215333,-2.86604 2.36056,-4.72155 1.530822,-1.1027 5.24312,-4.04789 8.249549,-6.54486 3.006429,-2.49698 5.936331,-4.53996 6.51089,-4.53996 1.521364,0 10.035407,4.51479 9.801008,5.19722 -0.352896,1.02744 -21.748081,17.32094 -22.744325,17.32094 -0.529797,0 -1.591391,-0.89891 -2.359098,-1.99757 z m 41.452645,-4.20993 -3.064598,-3.82153 3.927908,-2.96559 c 2.160338,-1.63107 5.161338,-4.44118 6.668868,-6.24467 l 2.74098,-3.27908 2.37936,4.17686 c 1.30865,2.29727 2.38346,4.72362 2.38847,5.39189 0.009,1.15799 -5.13709,5.93102 -9.79721,9.08757 l -2.17918,1.47608 -3.064598,-3.82153 z m -8.236118,-8.80757 -2.951397,-2.66641 6.685845,-6.71376 c 3.677215,-3.69257 7.090638,-6.55843 7.585368,-6.36858 0.49474,0.18985 1.94106,1.64122 3.21404,3.22526 l 2.31449,2.88009 -3.32204,3.69491 c -3.05575,3.39874 -9.213643,8.6149 -10.170236,8.6149 -0.222574,0 -1.732809,-1.19989 -3.35607,-2.66641 z m -35.995387,-0.42816 c 0.625002,-3.33154 2.455144,-9.3717 3.165019,-10.44575 0.404495,-0.61201 1.923448,-0.53226 5.813893,0.30522 2.896489,0.62352 5.244833,1.3232 5.218542,1.55485 -0.0726,0.63966 -12.042867,10.17405 -13.452455,10.71496 -1.067992,0.40983 -1.167814,0.12453 -0.744999,-2.12928 z m 58.879013,-4.80672 -2.21854,-4.25758 3.19371,-3.90846 c 1.75655,-2.14966 4.68593,-6.1966 6.50974,-8.99321 1.82381,-2.79661 3.42925,-5.22223 3.56764,-5.39027 0.1384,-0.16804 1.03564,0.43101 1.99386,1.33122 l 1.74225,1.63675 -2.95509,5.20631 c -1.62529,2.86347 -3.7479,7.16757 -4.71689,9.56466 -2.53635,6.2744 -3.90831,9.08074 -4.43611,9.07403 -0.25411,-0.003 -1.46037,-1.92177 -2.68057,-4.26345 z m -33.366178,-2.08282 -5.072761,-2.55737 2.494032,-1.90117 c 1.371719,-1.04565 4.874964,-3.97625 7.785,-6.51246 l 5.290961,-4.61127 3.223467,1.56045 c 5.570339,2.69655 5.612143,3.1566 0.737884,8.11984 -2.363673,2.40682 -5.442443,5.29478 -6.841707,6.41769 l -2.544116,2.04165 -5.07276,-2.55736 z m -14.536344,-5.46345 c -3.196126,-0.79947 -5.916932,-1.54293 -6.046236,-1.65215 -0.395519,-0.33408 4.022029,-6.13477 7.519397,-9.87374 2.343541,-2.50543 3.866437,-3.53503 5.228742,-3.53503 1.59163,0 9.978939,2.00643 13.942107,3.33527 0.740636,0.24833 0.228653,1.1729 -1.815981,3.2794 -2.701082,2.78283 -12.157772,10.20127 -12.742543,9.99608 -0.150891,-0.0529 -2.88936,-0.75037 -6.085486,-1.54983 z m 40.544472,-2.82438 -3.0177,-3.0177 4.84436,-5.5284 c 2.6644,-3.04062 5.66156,-6.74701 6.66034,-8.23642 0.99879,-1.48941 2.00668,-2.71025 2.23976,-2.71298 0.23307,-0.003 1.69836,1.09684 3.25619,2.44348 l 2.83243,2.44844 -3.545,5.36028 c -3.83868,5.80432 -8.98087,12.261 -9.76484,12.261 -0.26832,0 -1.8458,-1.35796 -3.50554,-3.0177 z m -7.136843,-5.70939 c -0.250445,-0.40522 -1.783816,-1.4145 -3.407491,-2.24284 l -2.952146,-1.50607 4.272618,-4.35102 c 2.349937,-2.39306 5.807612,-5.64883 7.683722,-7.23505 l 3.41113,-2.88401 2.97046,1.51542 c 1.89942,0.96901 2.78632,1.83277 2.45973,2.39555 -0.93374,1.60906 -4.90517,6.63855 -8.58172,10.86804 -3.56143,4.09706 -4.94714,4.91103 -5.856303,3.43998 z m -11.979058,-5.71828 c -0.599273,-0.32984 -3.541162,-1.20148 -6.53753,-1.93696 -2.996368,-0.73548 -5.587518,-1.43967 -5.758111,-1.56486 -0.479884,-0.35218 2.093019,-2.12252 6.484503,-4.4618 6.137129,-3.26915 14.869388,-5.92031 19.500009,-5.92031 l 4.08048,0 -7.236663,7.26392 c -7.057852,7.08444 -8.28624,7.85651 -10.532688,6.62001 z m 41.092201,-2.20525 c -1.21695,-1.34472 -1.05315,-1.6756 4.42737,-8.94301 3.1301,-4.15064 6.34484,-8.41429 7.14387,-9.4748 l 1.45278,-1.92818 3.09948,3.55433 3.09948,3.55432 -6.93102,5.23239 c -3.81205,2.87782 -7.59893,6.1704 -8.41528,7.31686 -1.75217,2.4607 -2.20047,2.54027 -3.87668,0.68809 z m -6.56251,-5.95176 c -1.58373,-1.19015 -2.95561,-2.24 -3.0486,-2.333 -0.093,-0.093 1.97107,-2.93764 4.5868,-6.32146 2.61574,-3.3838 5.55185,-7.71702 6.5247,-9.62938 l 1.76882,-3.47701 3.30278,2.37188 c 1.81653,1.30453 3.42194,2.56467 3.56757,2.80032 0.47854,0.7743 -12.47537,18.84717 -13.45936,18.77806 -0.19976,-0.014 -1.65898,-0.99927 -3.24271,-2.18941 z m -8.92322,-5.25586 -3.08603,-1.58901 5.81,-9.00813 c 3.1955,-4.95446 5.80999,-9.26469 5.80999,-9.57828 0,-0.48238 2.02533,0.0623 7.14959,1.92287 0.74166,0.26928 0.5009,1.1798 -1.00516,3.80145 -1.56438,2.72316 -8.99645,13.07503 -11.16754,15.55487 -0.23366,0.26689 -1.81354,-0.22981 -3.51085,-1.10377 z m -9.36019,-3.16944 -2.27672,-0.2867 2.37442,-5.62995 c 1.30593,-3.09648 3.19268,-7.24627 4.19279,-9.22175 l 1.81838,-3.59179 4.83427,0.24496 4.83426,0.24496 -1.3024,1.98885 c -0.71631,1.09388 -3.42709,5.31156 -6.02394,9.37263 -2.59686,4.06107 -5.04843,7.33465 -5.44795,7.27463 -0.39951,-0.06 -1.75091,-0.23816 -3.00311,-0.39584 z m 42.44446,-4.91865 c -3.03415,-3.3583 -3.31,-3.93527 -2.46893,-5.16416 0.52078,-0.76091 2.01845,-4.40022 3.32817,-8.08738 1.5279,-4.30143 2.67301,-6.53258 3.19532,-6.2258 0.44771,0.26296 1.95809,1.30524 3.35639,2.31618 1.39831,1.01094 2.66347,1.91791 2.81147,2.01548 0.29094,0.19181 -5.40889,16.56271 -6.27879,18.03378 -0.35761,0.60474 -1.62941,-0.32664 -3.94363,-2.8881 z m 9.97239,-5.19811 c 1.4093,-3.89325 2.69554,-7.21181 2.85832,-7.37459 0.49976,-0.49977 5.47613,3.59964 5.47613,4.51109 0,0.9761 -4.1423,5.00633 -8.17238,7.95129 l -2.72444,1.99086 2.56237,-7.07865 z m -19.31925,-3.0411 -3.31956,-2.68254 3.31956,-7.02381 3.31956,-7.0238 3.43508,1.77151 3.43509,1.77151 -2.55842,7.07616 c -1.40714,3.8919 -2.95292,7.46257 -3.43508,7.93484 -0.67761,0.66369 -1.63046,0.24953 -4.19623,-1.82387 z m 25.90169,-5.51667 c -2.83635,-2.42767 -2.84008,-2.438 -2.0184,-5.60226 0.45275,-1.74356 1.20427,-5.7034 1.67006,-8.79965 0.46578,-3.09625 1.12227,-5.62954 1.45885,-5.62954 0.33659,0 1.27237,1.29448 2.07952,2.87663 1.10373,2.1635 1.46556,4.2794 1.45955,8.53511 -0.009,6.07088 -0.62799,11.12343 -1.35823,11.07914 -0.24737,-0.015 -1.72847,-1.12174 -3.29135,-2.45943 z m -36.4999,-0.15178 -3.02187,-1.07101 2.92861,-6.31716 c 1.61073,-3.47444 3.13401,-6.52953 3.38507,-6.7891 0.25106,-0.25956 2.14418,0.0673 4.20694,0.72639 l 3.75046,1.19833 -2.66286,5.81114 c -3.98986,8.70699 -3.41364,8.27472 -8.58635,6.44141 z m -10.99956,-2.38306 -3.85196,-0.42639 4.21515,-6.78608 4.21515,-6.78608 3.12305,0.34496 c 1.71768,0.18974 3.27208,0.49399 3.45421,0.67613 0.55797,0.55797 -5.80167,13.61895 -6.57726,13.50788 -0.39951,-0.0572 -2.45977,-0.2959 -4.57834,-0.53042 z m 39.44517,-3.4141 c -0.79903,-0.61904 -2.07922,-1.57644 -2.84488,-2.12755 -1.36141,-0.97995 -1.34747,-1.15078 0.63239,-7.74969 3.24716,-10.822805 2.90019,-10.261543 5.50953,-8.912197 1.22411,0.633007 2.38615,1.569203 2.58233,2.080431 0.19618,0.51122 -0.31095,4.637256 -1.12696,9.168956 -0.816,4.53171 -1.48364,8.34573 -1.48364,8.47562 0,0.63101 -1.9771,0.0652 -3.26877,-0.93557 z m -10.16949,-6.24195 c -1.59806,-0.81696 -3.01256,-1.57857 -3.14333,-1.69249 -0.13077,-0.11392 0.41018,-2.6062 1.20211,-5.53838 0.79194,-2.932176 1.62872,-6.182709 1.85953,-7.223404 0.40034,-1.80507 0.59576,-1.876002 4.24583,-1.541056 2.10439,0.193104 3.96258,0.472751 4.1293,0.621436 0.34791,0.310279 -4.28495,15.636784 -4.94922,16.373044 -0.24125,0.26742 -1.74616,-0.1822 -3.34422,-0.99915 z m -10.35109,-4.14461 c -4.12554,-1.22758 -4.43009,-1.88447 -3.35827,-7.243591 0.40232,-2.011577 0.90917,-2.408405 4.35593,-3.410405 2.14535,-0.623673 4.51909,-1.029348 5.27498,-0.901511 1.34346,0.227216 1.34185,0.363044 -0.0714,6.043577 -0.79514,3.19613 -1.65766,5.99914 -1.91672,6.22891 -0.25904,0.22977 -2.1871,-0.0929 -4.28456,-0.71698 z m -10.64559,-2.8584 c -0.46754,-0.756499 3.73811,-4.9 4.35121,-4.286896 0.24194,0.24194 0.21937,1.443901 -0.0501,2.67101 -0.37829,1.722376 -0.88118,2.231116 -2.20543,2.231116 -0.94347,0 -1.8865,-0.27685 -2.09564,-0.61523 z m 67.17235,83.71632 c 9.64699,-2.83737 21.77904,-10.95377 25.5921,-17.12125 2.86826,-4.6393 3.25169,-8.27309 1.28064,-12.13666 -1.9223,-3.76801 -3.0919,-4.27065 -6.33684,-2.72325 -1.38975,0.66273 -2.34768,0.9151 -2.12873,0.56083 0.21895,-0.35427 1.42208,-1.06828 2.67362,-1.58669 2.15715,-0.89351 2.25681,-1.10863 1.9157,-4.13496 -0.42339,-3.75632 -2.5377,-6.32557 -6.20022,-7.53431 -5.3669,-1.77123 -21.48943,0.79256 -27.20751,4.32654 -4.08715,2.52599 -9.19152,8.53205 -11.56906,13.61275 -4.30444,9.19838 -2.7592,16.68034 4.82346,23.35487 5.15346,4.53625 9.99072,5.48982 17.15684,3.38213 z"
       id="path4378"
       inkscape:connector-curvature="0" />
    <path
       style="fill:#5b5b5b"
       d="m 37.197852,328.33872 c -4.842998,-1.1436 -7.41712,-5.10703 -7.413055,-11.41402 0.0046,-7.17743 3.709184,-11.11356 10.459721,-11.11356 4.058503,0 6.970978,1.26266 6.970978,3.02217 0,1.61216 -0.02637,1.61466 -2.640939,0.25107 -3.286224,-1.71388 -6.462533,-1.37704 -9.081594,0.96309 -1.933163,1.72728 -2.355523,2.69831 -2.633928,6.05552 -0.36428,4.39273 0.955099,7.97985 3.420342,9.29921 2.037555,1.09046 6.32745,0.91468 8.793015,-0.36031 2.026609,-1.04801 2.143104,-1.02965 2.143104,0.33764 0,2.46178 -5.386169,4.05284 -10.017644,2.95919 z m 42.342099,0.0231 c -5.600063,-1.30833 -8.843337,-6.32201 -8.107686,-12.53343 0.762768,-6.44039 4.611037,-10.0096 10.79748,-10.01452 4.541934,-0.004 7.116501,1.21628 7.116501,3.37197 l 0,1.6887 -2.360775,-1.43939 c -5.588884,-3.4076 -11.686402,-0.32178 -12.216058,6.1823 -0.360276,4.42415 0.145664,6.38276 2.172291,8.40938 1.701298,1.7013 2.756469,2.12331 5.309106,2.12331 1.752189,0 3.820315,-0.47992 4.595826,-1.06649 1.896704,-1.43459 2.49961,-1.37382 2.49961,0.25197 0,2.15388 -5.834005,3.95425 -9.806295,3.0262 z m 63.786619,-0.13586 c -4.48871,-1.24263 -5.31204,-3.32464 -5.31204,-13.43286 0,-8.49768 0.0783,-8.98195 1.45278,-8.98195 1.37208,0 1.45279,0.48427 1.45279,8.71671 0,7.74819 0.16141,8.87813 1.45278,10.16949 1.71049,1.7105 5.61202,1.92581 7.66988,0.42327 1.24147,-0.90646 1.43881,-2.12212 1.65087,-10.16949 0.22245,-8.4425 0.34717,-9.13998 1.63438,-9.13998 1.29255,0 1.39354,0.60197 1.39354,8.30623 0,4.56842 -0.31229,9.12759 -0.69398,10.1315 -1.2809,3.36904 -6.23987,5.21207 -10.701,3.97708 z m 76.95188,-10e-4 c -2.39694,-0.54899 -3.08717,-1.03971 -3.08717,-2.19483 0,-1.13674 0.29992,-1.36136 1.27119,-0.95202 0.69915,0.29465 2.92835,0.69209 4.95377,0.8832 4.14084,0.39069 6.12371,-0.82966 6.12371,-3.76882 0,-2.21968 -1.15268,-3.06962 -5.47735,-4.0388 -5.70359,-1.27821 -8.10254,-4.65641 -6.4201,-9.04078 1.47033,-3.83159 14.07663,-4.69104 14.07663,-0.95968 0,1.0879 -0.31466,1.31892 -1.27119,0.93329 -3.04351,-1.22701 -6.71914,-1.26281 -8.51978,-0.083 -3.60685,2.3633 -1.5829,5.55855 4.15856,6.56522 4.12856,0.72388 6.50408,3.12958 6.50408,6.58669 0,2.18983 -0.44977,3.24248 -1.92913,4.51497 -1.06102,0.91265 -2.48293,1.66382 -3.1598,1.66928 -0.67688,0.006 -1.88444,0.14097 -2.68347,0.30114 -0.79903,0.16018 -2.84201,-0.0269 -4.53995,-0.41586 z M 50.851967,324.51574 c 7.018503,-18.62717 6.882574,-18.3414 8.724191,-18.3414 1.596825,0 2.148747,1.00724 5.958663,10.87441 2.309359,5.98093 4.198834,10.98853 4.198834,11.128 0,0.13948 -0.707983,0.14914 -1.573295,0.0215 -1.056343,-0.15588 -1.852541,-1.06752 -2.423149,-2.77452 l -0.849853,-2.54238 -5.16551,-0.21264 -5.165509,-0.21265 -0.879832,2.93662 c -0.70053,2.33816 -1.2244,2.93661 -2.570637,2.93661 l -1.690807,0 1.436904,-3.81356 z M 63.18407,319.431 c -0.0066,-0.4994 -0.794144,-3.03269 -1.750031,-5.62954 l -1.737977,-4.72155 -0.86622,2.17918 c -1.604075,4.03542 -2.897639,7.80536 -2.897639,8.44484 0,0.34928 1.634382,0.63506 3.631961,0.63506 2.427737,0 3.627964,-0.30105 3.619906,-0.90799 z m 28.611658,7.69104 c 0.261138,-0.73431 2.186687,-5.84275 4.279002,-11.35209 3.498124,-9.21104 3.94178,-10.00004 5.51409,-9.8063 1.49045,0.18365 2.25063,1.63236 5.92323,11.28817 4.0757,10.71561 4.16004,11.07748 2.58185,11.07748 -1.27694,0 -1.8227,-0.63819 -2.51133,-2.93661 l -0.87983,-2.93662 -5.16551,0.21265 -5.165507,0.21264 -0.849857,2.54238 c -0.593368,1.7751 -1.355514,2.61646 -2.52539,2.78789 -1.357649,0.19894 -1.58546,-0.008 -1.200748,-1.08959 z m 13.530782,-7.32785 c -2e-4,-0.29963 -0.66703,-2.34261 -1.48184,-4.53995 -0.81481,-2.19733 -1.66291,-4.48547 -1.88466,-5.08474 -0.23935,-0.64682 -1.26067,1.11946 -2.513323,4.34653 -1.160565,2.98987 -2.110126,5.52316 -2.110126,5.62954 0,0.10638 1.79782,0.19342 3.995159,0.19342 2.19733,0 3.99499,-0.24516 3.99479,-0.5448 z m 9.44346,-2.72397 c 0,-10.68308 0.0726,-11.25908 1.41813,-11.25908 1.23223,0 1.44647,0.5951 1.63438,4.53996 l 0.21626,4.53995 5.62954,0.21215 5.62954,0.21215 0,-4.7521 c 0,-4.26784 0.14805,-4.75211 1.45278,-4.75211 1.3903,0 1.45279,0.48427 1.45279,11.25908 0,10.69077 -0.0717,11.25908 -1.42096,11.25908 -1.26007,0 -1.44513,-0.59631 -1.63439,-5.26634 l -0.21342,-5.26634 -5.44794,0 -5.44794,0 -0.21342,5.26634 c -0.18926,4.67003 -0.37432,5.26634 -1.63438,5.26634 -1.34924,0 -1.42097,-0.56831 -1.42097,-11.25908 z m 45.76272,0 0,-11.25908 6.90072,0 c 6.41646,0 6.90073,0.10195 6.90073,1.45279 0,1.32364 -0.48427,1.45278 -5.44794,1.45278 l -5.44795,0 0,3.26877 0,3.26876 5.44795,0 c 4.35835,0 5.44794,0.21792 5.44794,1.08959 0,0.87231 -1.09361,1.08959 -5.48419,1.08959 l -5.4842,0 0.21786,4.17676 0.21784,4.17675 5.62954,0.21215 c 4.35057,0.16396 5.62954,0.45275 5.62954,1.27119 0,0.85718 -1.38451,1.05903 -7.26392,1.05903 l -7.26392,0 0,-11.25908 z m 23.97094,1.49075 0,-9.76833 -3.81356,-0.21956 c -2.80798,-0.16167 -3.81356,-0.50687 -3.81356,-1.30915 0,-0.90092 1.60367,-1.12479 9.2615,-1.29289 8.88945,-0.19513 9.2615,-0.14407 9.2615,1.27118 0,1.28513 -0.46644,1.47449 -3.63196,1.47449 l -3.63196,0 0,9.8063 0,9.80629 -1.81598,0 -1.81598,0 0,-9.76833 z m 14.52784,-1.49075 0,-11.25908 6.90073,0 c 6.41646,0 6.90073,0.10195 6.90073,1.45279 0,1.32364 -0.48427,1.45278 -5.44794,1.45278 l -5.44795,0 0,3.26877 0,3.26876 5.08475,0 c 4.03552,0 5.08475,0.22484 5.08475,1.08959 0,0.86476 -1.04923,1.08959 -5.08475,1.08959 l -5.08475,0 0,4.35835 0,4.35836 5.44795,0 c 4.35835,0 5.44794,0.21791 5.44794,1.08959 0,0.89206 -1.25101,1.08958 -6.90073,1.08958 l -6.90073,0 0,-11.25908 z"
       id="path4376"
       inkscape:connector-curvature="0" />
    <path
       style="fill:#040404"
       d="m 34.278322,326.8579 c -6.355015,-3.87455 -5.959707,-16.18357 0.633298,-19.71944 4.321087,-2.31743 12.303876,-1.23525 12.303876,1.66797 0,1.3169 -0.127757,1.33431 -2.143104,0.29213 -2.465565,-1.27499 -6.75546,-1.45078 -8.793015,-0.36032 -2.219262,1.18772 -3.591726,4.65666 -3.591726,9.07818 0,3.5488 0.279654,4.36676 2.1233,6.2104 1.763612,1.76362 2.720644,2.12331 5.649512,2.12331 2.015854,0 4.2177,-0.48434 5.140622,-1.13078 1.498249,-1.04942 1.614411,-1.03167 1.614411,0.2466 0,3.13885 -8.653435,4.20367 -12.937174,1.59195 z m 19.3808,-9.20182 c 3.680787,-9.60859 4.313206,-10.7781 5.931374,-10.96872 1.674697,-0.19727 2.010366,0.32314 4.451025,6.90073 1.451853,3.91275 3.321753,8.8302 4.155334,10.92765 1.443261,3.63154 1.452025,3.81356 0.183603,3.81356 -0.881988,0 -1.721942,-0.9927 -2.4862,-2.93831 l -1.154202,-2.93831 -5.249543,0.21434 -5.249543,0.21434 -0.849853,2.54238 c -0.552656,1.65329 -1.374795,2.62023 -2.350963,2.76503 -1.373653,0.20375 -1.151276,-0.69057 2.618968,-10.53269 z m 9.899536,1.41172 c -0.285609,-0.69915 -1.167781,-3.15072 -1.960382,-5.44794 -0.7926,-2.29721 -1.677594,-4.17675 -1.966651,-4.17675 -0.289059,0 -1.389799,2.45157 -2.44609,5.44794 l -1.92053,5.44794 4.406472,0 c 3.910203,0 4.347988,-0.14317 3.887181,-1.27119 z m 12.638348,7.60001 c -3.20275,-2.15598 -4.481304,-4.93006 -4.439059,-9.63142 0.05978,-6.65334 3.109471,-10.35533 9.08558,-11.02893 3.616191,-0.40759 8.502719,1.33684 8.502719,3.03538 0,1.39201 -0.672712,1.39576 -2.49961,0.0139 -0.775511,-0.58657 -2.843637,-1.06649 -4.595826,-1.06649 -5.829356,0 -9.430925,5.96466 -7.497704,12.41717 1.215617,4.05736 3.310692,5.74264 7.139063,5.74264 1.742331,0 4.16068,-0.5134 5.374118,-1.1409 2.068104,-1.06946 2.190516,-1.05923 1.95507,0.16335 -0.644949,3.34895 -8.868196,4.293 -13.024351,1.49522 z m 17.182373,-3.24165 c 6.664071,-17.7439 6.287564,-16.97374 8.184661,-16.74195 1.56115,0.19075 2.23503,1.427 5.66143,10.38601 2.13914,5.59322 3.89457,10.41465 3.90094,10.71429 0.007,0.29964 -0.48136,0.54479 -1.08387,0.54479 -0.6025,0 -1.61863,-1.3075 -2.25805,-2.90556 l -1.16257,-2.90557 -5.25409,0 -5.254093,0 -0.87053,2.90557 c -0.629085,2.09969 -1.263654,2.90556 -2.287917,2.90556 -1.3637,0 -1.347632,-0.18571 0.424089,-4.90314 z M 105.32651,319.431 c -4.9e-4,-1.20888 -2.85607,-8.73365 -3.60928,-9.51084 -0.51496,-0.53135 -2.34858,3.52203 -3.97381,8.78445 -0.481678,1.55965 -0.319838,1.63438 3.53935,1.63438 2.75121,0 4.04399,-0.29028 4.04374,-0.90799 z m 10.16986,-1.99758 c 0,-9.20097 0.16949,-10.89588 1.08959,-10.89588 0.84746,0 1.08958,0.96852 1.08958,4.35835 l 0,4.35835 5.81114,0 5.81114,0 0,-4.35835 c 0,-3.38983 0.24213,-4.35835 1.08959,-4.35835 0.9201,0 1.08959,1.69491 1.08959,10.89588 0,9.20097 -0.16949,10.89588 -1.08959,10.89588 -0.87167,0 -1.08959,-1.08958 -1.08959,-5.44794 l 0,-5.44794 -5.81114,0 -5.81114,0 0,5.44794 c 0,4.35836 -0.21791,5.44794 -1.08958,5.44794 -0.9201,0 -1.08959,-1.69491 -1.08959,-10.89588 z m 24.91943,9.14451 c -2.00359,-1.72174 -2.04215,-1.90611 -2.27892,-10.89589 -0.20097,-7.63086 -0.0658,-9.1445 0.81659,-9.1445 0.846,0 1.12156,1.67572 1.37823,8.38113 0.37394,9.76927 1.23583,11.37674 6.09996,11.37674 4.60631,0 5.38432,-1.65951 5.38432,-11.48483 0,-7.78878 0.085,-8.27304 1.45278,-8.27304 1.35922,0 1.45279,0.48426 1.45279,7.51872 0,8.77516 -0.82239,11.73057 -3.67465,13.20552 -3.28281,1.69762 -8.2301,1.37938 -10.6311,-0.68385 z m 20.11689,-9.14451 0,-10.89588 6.90072,0 c 4.11623,0 6.90073,0.2931 6.90073,0.72639 0,0.41969 -2.30025,0.72639 -5.44794,0.72639 l -5.44795,0 0,3.63196 0,3.63196 5.08475,0 c 4.03552,0 5.08475,0.22484 5.08475,1.08959 0,0.86476 -1.04923,1.08959 -5.08475,1.08959 l -5.08475,0 0,4.35835 0,4.35836 5.44795,0 c 4.35835,0 5.44794,0.21791 5.44794,1.08959 0,0.89206 -1.25101,1.08958 -6.90073,1.08958 l -6.90072,0 0,-10.89588 z m 24.53623,0.90799 -0.20209,-9.98789 -3.81356,-0.21956 c -2.09746,-0.12076 -3.81356,-0.52935 -3.81356,-0.90799 0,-0.39693 3.84468,-0.68843 9.0799,-0.68843 5.23523,0 9.0799,0.2915 9.0799,0.68843 0,0.37864 -1.7161,0.78723 -3.81356,0.90799 l -3.81355,0.21956 -0.2021,9.98789 c -0.16444,8.12698 -0.39747,9.98789 -1.25069,9.98789 -0.85322,0 -1.08625,-1.86091 -1.25069,-9.98789 z m 13.96255,-0.90799 0,-10.89588 6.90073,0 c 8.29999,0 9.33045,1.30011 1.27119,1.60383 l -5.62954,0.21215 -0.2214,3.45036 -0.2214,3.45036 5.48774,0 c 4.39373,0 5.48775,0.21722 5.48775,1.08959 0,0.87231 -1.09362,1.08959 -5.48419,1.08959 l -5.4842,0 0.21785,4.17676 0.21785,4.17675 5.62954,0.21215 c 4.35057,0.16396 5.62954,0.45275 5.62954,1.27119 0,0.85347 -1.3395,1.05903 -6.90073,1.05903 l -6.90073,0 0,-10.89588 z m 19.79419,10.18555 c -0.89891,-0.3826 -1.63438,-1.23146 -1.63438,-1.88634 0,-0.84961 0.36416,-1.04043 1.27119,-0.66609 3.08676,1.27394 5.90836,1.54735 8.22876,0.79736 2.05583,-0.66447 2.5243,-1.20376 2.70981,-3.11942 0.26011,-2.68602 -1.4504,-4.12751 -5.80199,-4.88953 -3.49039,-0.6112 -5.56967,-2.40822 -6.12737,-5.29558 -0.37691,-1.95139 -0.0902,-2.69183 1.75792,-4.53995 1.78482,-1.78482 2.81099,-2.20637 5.35133,-2.19836 4.1205,0.013 6.4118,0.66407 6.4118,1.8219 0,0.70018 -1.06272,0.83962 -4.21828,0.55349 -4.75307,-0.43099 -6.6776,0.68048 -6.6776,3.85649 0,1.92452 1.10365,2.60478 6.39425,3.94121 4.05753,1.02495 5.95442,2.96195 5.95442,6.08035 0,4.16214 -1.96823,5.77596 -7.34846,6.02525 -2.55036,0.11818 -5.37249,-0.0982 -6.2714,-0.48078 z"
       id="path4374"
       inkscape:connector-curvature="0" />
  </g>
</svg>
