<?xml version="1.0" encoding="UTF-8" standalone="no"?>
<!-- Created with Inkscape (http://www.inkscape.org/) -->

<svg
   xmlns:dc="http://purl.org/dc/elements/1.1/"
   xmlns:cc="http://creativecommons.org/ns#"
   xmlns:rdf="http://www.w3.org/1999/02/22-rdf-syntax-ns#"
   xmlns:svg="http://www.w3.org/2000/svg"
   xmlns="http://www.w3.org/2000/svg"
   xmlns:sodipodi="http://sodipodi.sourceforge.net/DTD/sodipodi-0.dtd"
   xmlns:inkscape="http://www.inkscape.org/namespaces/inkscape"
   id="svg4404"
   version="1.1"
   inkscape:version="0.91 r13725"
   width="100"
   height="100"
   viewBox="0 0 100 100"
   sodipodi:docname="crus50.svg">
  <metadata
     id="metadata4410">
    <rdf:RDF>
      <cc:Work
         rdf:about="">
        <dc:format>image/svg+xml</dc:format>
        <dc:type
           rdf:resource="http://purl.org/dc/dcmitype/StillImage" />
        <dc:title />
      </cc:Work>
    </rdf:RDF>
  </metadata>
  <defs
     id="defs4408">
    <clipPath
       clipPathUnits="userSpaceOnUse"
       id="clipPath4434">
      <rect
         style="opacity:0.12300002;fill:#ff0000;fill-opacity:1;fill-rule:nonzero;stroke:none;stroke-width:3.5999999;stroke-linecap:round;stroke-linejoin:round;stroke-miterlimit:4;stroke-dasharray:none;stroke-opacity:1"
         id="rect4436"
         width="240"
         height="240"
         x="9.9822435"
         y="42.16502" />
    </clipPath>
    <clipPath
       clipPathUnits="userSpaceOnUse"
       id="clipPath4271">
      <circle
         style="opacity:0.20100002;fill:#ff0000;fill-rule:evenodd;stroke:none;stroke-width:1px;stroke-linecap:butt;stroke-linejoin:miter;stroke-opacity:1"
         id="circle4273"
         cx="129.98224"
         cy="162.16502"
         r="117.6" />
    </clipPath>
  </defs>
  <sodipodi:namedview
     pagecolor="#ffffff"
     bordercolor="#666666"
     borderopacity="1"
     objecttolerance="10"
     gridtolerance="10"
     guidetolerance="10"
     inkscape:pageopacity="0"
     inkscape:pageshadow="2"
     inkscape:window-width="1920"
     inkscape:window-height="1017"
     id="namedview4406"
     showgrid="false"
     fit-margin-top="0"
     fit-margin-left="0"
     fit-margin-right="0"
     fit-margin-bottom="0"
     inkscape:zoom="1.2409339"
     inkscape:cx="106.93846"
     inkscape:cy="89.255052"
     inkscape:window-x="-8"
     inkscape:window-y="-8"
     inkscape:window-maximized="1"
     inkscape:current-layer="svg4404" />
  <g
     id="g4414"
     transform="matrix(0.41666667,0,0,0.41666667,-4.1592686,-17.568759)"
     clip-path="url(#clipPath4271)">
    <path
       style="fill:#fefefe"
       d="M 0,185.95642 0,0 l 131.1138,0 131.1138,0 0,185.95642 0,185.95642 -131.1138,0 -131.1138,0 0,-185.95642 z"
       id="path4430"
       inkscape:connector-curvature="0" />
    <path
       style="fill:#cfeffb"
       d="m 36.319612,325.63713 c -3.803397,-1.39035 -6.53753,-6.05144 -6.53753,-11.14502 0,-7.46852 3.789688,-11.57887 10.680107,-11.58382 4.895066,-0.004 7.479699,1.16537 7.479699,3.38265 0,1.95637 -0.525622,2.07974 -2.49961,0.58669 -2.232687,-1.68872 -7.247622,-1.36001 -9.556985,0.62641 -2.552415,2.1955 -3.290891,8.41652 -1.426967,12.02095 1.988669,3.84566 6.899194,4.84992 11.122787,2.27474 l 2.360775,-1.43938 0,2.09743 c 0,1.6995 -0.434014,2.24874 -2.287571,2.89489 -2.369409,0.82598 -7.43136,0.98024 -9.334705,0.28446 z m 15.98063,-11.1862 0,-11.69918 5.795642,0.26319 c 4.831144,0.21939 6.067464,0.53502 7.429011,1.89657 2.021417,2.02141 2.22775,6.66434 0.386578,8.69881 -1.186796,1.3114 -1.125627,1.60256 1.271197,6.05076 2.894881,5.37253 3.095063,6.48905 1.163432,6.48905 -0.952582,0 -2.167007,-1.42319 -3.874003,-4.53995 -2.376846,-4.33983 -2.619872,-4.5498 -5.513174,-4.76332 l -3.026722,-0.22337 0,4.76332 c 0,4.59661 -0.06356,4.76332 -1.815981,4.76332 l -1.81598,0 0,-11.6992 z m 10.024213,-2.24753 c 0.479418,-0.47942 0.87167,-1.79502 0.87167,-2.92355 0,-2.20013 -2.009727,-3.46871 -5.49523,-3.46871 -1.638169,0 -1.768692,0.26803 -1.768692,3.63197 l 0,3.63196 2.76029,0 c 1.51816,0 3.152543,-0.39226 3.631962,-0.87167 z m 14.753077,12.93304 c -3.08039,-1.70733 -3.658598,-3.79865 -3.686172,-13.33256 l -0.02574,-8.89831 1.81598,0 1.815981,0 0,8.71671 c 0,7.74819 0.161419,8.87813 1.452784,10.16949 0.807102,0.80711 2.421305,1.45279 3.631962,1.45279 1.210656,0 2.824859,-0.64568 3.631961,-1.45279 1.291365,-1.29136 1.452784,-2.4213 1.452784,-10.16949 l 0,-8.71671 1.815981,0 1.81598,0 0,8.68254 c 0,9.57678 -0.650317,11.93056 -3.737309,13.52691 -2.490894,1.28809 -7.678765,1.29922 -9.984189,0.0214 z m 19.714234,0.26466 c -1.079266,-0.43382 -1.634382,-1.2691 -1.634382,-2.45927 0,-1.77469 0.03864,-1.78618 2.519041,-0.74979 4.995845,2.08739 9.829625,0.83716 9.829625,-2.54238 0,-1.81144 -1.364,-2.77886 -5.75774,-4.08366 -4.796062,-1.42428 -6.590926,-3.20004 -6.590926,-6.52078 0,-4.12984 2.723775,-6.13965 8.320746,-6.13965 4.89521,0 7.4622,1.20645 6.71424,3.15561 -0.36563,0.9528 -0.82741,1.04503 -2.34449,0.46823 -4.13575,-1.5724 -9.058535,-0.41818 -9.058535,2.12392 0,1.83883 1.138097,2.59923 5.958865,3.9813 4.64041,1.33035 6.3898,3.16933 6.3898,6.71699 0,3.31814 -0.62453,4.52935 -2.95752,5.73579 -2.25811,1.16771 -8.814738,1.34831 -11.388724,0.31369 z m 23.789344,-9.42046 0,-10.1695 -3.99515,0 c -3.5109,0 -3.99516,-0.17609 -3.99516,-1.45278 0,-1.38104 0.48426,-1.45279 9.80629,-1.45279 9.32203,0 9.8063,0.0718 9.8063,1.45279 0,1.27669 -0.48427,1.45278 -3.99516,1.45278 l -3.99516,0 0,10.1695 0,10.16949 -1.81598,0 -1.81598,0 0,-10.16949 z m 8.71671,9.67646 c 0,-0.27116 1.87954,-5.50852 4.17675,-11.63858 4.10841,-10.96316 4.21049,-11.14231 6.23784,-10.94765 1.95368,0.18759 2.28403,0.78461 6.33956,11.45698 2.35317,6.1925 4.28585,11.36251 4.29485,11.48893 0.009,0.12641 -0.85543,0.12641 -1.92096,0 -1.48067,-0.17567 -2.13747,-0.82914 -2.78635,-2.77222 l -0.84901,-2.54237 -5.0802,-0.21093 -5.0802,-0.21092 -0.87932,2.93489 c -0.71763,2.39521 -1.20789,2.9349 -2.66614,2.9349 -0.98275,0 -1.78682,-0.22186 -1.78682,-0.49303 z m 13.49101,-10.22126 c -0.22459,-0.69915 -1.00919,-2.84804 -1.74355,-4.7753 l -1.33521,-3.50411 -1.57416,4.11354 c -0.8658,2.26245 -1.57417,4.41134 -1.57417,4.7753 0,0.36397 1.49297,0.66176 3.31772,0.66176 2.83103,0 3.25781,-0.18647 2.90937,-1.27119 z m 13.31132,9.06543 c -6.40046,-4.27579 -6.76346,-14.52597 -0.69525,-19.63203 1.94104,-1.63328 3.02705,-1.96186 6.45471,-1.95296 4.86929,0.0126 7.66412,1.22292 7.9851,3.45784 0.26817,1.86722 -0.25548,1.9666 -2.77449,0.52661 -2.1682,-1.23945 -6.78178,-1.39874 -8.82596,-0.30473 -0.80659,0.43168 -1.92917,1.89212 -2.49462,3.24544 -3.62409,8.67367 3.13611,16.33673 10.85882,12.30906 2.74899,-1.43371 3.36733,-1.36962 3.36733,0.34901 0,3.60716 -9.43501,4.96829 -13.87564,2.00176 z m 17.5076,-9.99883 0,-11.64769 7.437,0.20701 c 6.40833,0.17838 7.47066,0.38284 7.68038,1.4782 0.21554,1.12578 -0.42742,1.27118 -5.62103,1.27118 l -5.86439,0 0,3.26877 0,3.26876 5.44794,0 c 4.96368,0 5.44794,0.12914 5.44794,1.45279 0,1.32365 -0.48426,1.45278 -5.44794,1.45278 l -5.44794,0 0,3.63196 0,3.63197 5.81114,0 c 5.71428,0 5.81113,0.0303 5.81113,1.81598 l 0,1.81598 -7.62712,0 -7.62711,0 0,-11.64769 z m 23.38391,10.17718 c -6.22777,-3.79697 -6.87977,-14.53595 -1.18603,-19.53511 2.12338,-1.86435 3.15945,-2.23894 6.19276,-2.23894 7.29531,0 10.82727,3.76175 10.83182,11.53654 0.003,5.32134 -1.7048,8.87199 -5.11608,10.63604 -2.9538,1.52747 -7.86272,1.34501 -10.72247,-0.39853 z m 9.76736,-3.15318 c 1.71104,-1.47177 2.04011,-2.38828 2.29506,-6.39223 0.26996,-4.23959 0.1158,-4.89019 -1.6583,-6.99858 -1.58648,-1.88544 -2.49253,-2.32449 -4.79691,-2.32449 -3.42752,0 -5.36703,1.69274 -6.40635,5.59123 -2.19487,8.23295 4.8821,15.0136 10.5665,10.12407 z m 11.34025,3.87466 c -1.07927,-0.43382 -1.63438,-1.2691 -1.63438,-2.45927 0,-1.77469 0.0386,-1.78618 2.51904,-0.74979 4.99584,2.08739 9.82963,0.83716 9.82963,-2.54238 0,-1.81144 -1.36401,-2.77886 -5.75774,-4.08366 -4.79607,-1.42428 -6.59093,-3.20004 -6.59093,-6.52078 0,-4.04465 2.74241,-6.13965 8.03698,-6.13965 5.3242,0 6.49086,0.46771 6.49086,2.60212 0,1.54646 -0.18826,1.6487 -1.86327,1.01187 -4.42895,-1.68389 -9.03261,-0.38161 -9.03261,2.55515 0,1.54933 0.60482,1.93979 5.05992,3.26657 5.58644,1.66371 7.28875,3.301 7.28875,7.01034 0,3.31814 -0.62453,4.52935 -2.95752,5.73579 -2.25812,1.16771 -8.81474,1.34831 -11.38873,0.31369 z m -80.38032,-24.8563 c 1.18724,-2.08693 2.78372,-3.45036 4.04012,-3.45036 1.79545,0 1.6884,0.87243 -0.341,2.77895 -1.8226,1.71224 -4.57551,2.21191 -3.69912,0.67141 z m -13.14268,-24.25241 c -42.112816,-2.95145 -78.085798,-26.76979 -96.989995,-64.2188 -4.81256,-9.53362 -9.256765,-24.22493 -10.936027,-36.15145 -1.258007,-8.93466 -0.46905,-29.15301 1.493397,-38.27081 10.006539,-46.491752 46.195397,-81.458771 93.357565,-90.20554 8.98628,-1.666609 30.2389,-1.666609 39.22518,0 23.74804,4.404349 44.24363,14.952559 60.94326,31.364909 16.55935,16.274492 27.54472,36.215871 32.41431,58.840631 1.96244,9.1178 2.7514,29.33615 1.49339,38.27081 -1.08173,7.68269 -3.80723,18.45597 -6.55336,25.90384 -14.23277,38.60138 -50.6906,67.81926 -91.56636,73.38272 -6.5831,0.89601 -17.90692,1.43231 -22.88136,1.08369 z m 63.02169,-43.66527 c 1.05234,-1.09867 2.44474,-3.26967 3.09422,-4.82445 1.04136,-2.49292 1.05415,-2.9536 0.10824,-3.89952 -1.41248,-1.41247 -2.43647,-0.68851 -3.06338,2.16581 -0.28068,1.27791 -1.1114,3.72573 -1.84605,5.43961 -1.54292,3.59947 -1.00621,3.95117 1.70697,1.11855 z M 75.570827,228.26877 c -1.98839,-5.45956 -3.873843,-7.44201 -4.794957,-5.04163 -0.78106,2.03541 4.26456,10.67117 6.234856,10.67117 0.335716,0 -0.31224,-2.53329 -1.439899,-5.62954 z m 88.183333,3.46834 c 1.86692,-0.7098 2.48289,-2.45486 1.15599,-3.27493 -0.389,-0.24042 -3.37276,0.29336 -6.63057,1.18618 -4.32158,1.18434 -5.55438,1.7682 -4.55906,2.15917 2.00404,0.78722 7.88649,0.74593 10.03364,-0.0704 z m -55.52172,-0.70362 c 1.67058,-0.49753 1.55426,-0.61132 -1.45278,-1.42124 -1.79782,-0.48422 -4.3446,-1.21869 -5.6595,-1.63216 -2.89605,-0.91065 -4.703437,-0.34425 -4.373212,1.37047 0.374187,1.94299 7.236172,2.94845 11.485492,1.68293 z m 64.66181,-2.9555 c 3.94085,-2.80613 5.74552,-12.17748 2.71107,-14.07819 -2.1642,-1.3556 -3.75526,0.336 -4.28031,4.55081 -0.30056,2.41269 -1.16399,4.66099 -2.42485,6.31406 -1.07696,1.41196 -1.77608,3.04151 -1.55362,3.62124 0.57345,1.4944 3.14132,1.30558 5.54771,-0.40792 z m -78.164086,-0.4491 c 0.274409,-0.7151 -0.32302,-2.20419 -1.507257,-3.75681 -1.392378,-1.82549 -2.05524,-3.69818 -2.283559,-6.45136 -0.278303,-3.35598 -0.555683,-3.93796 -2.056417,-4.31463 -0.954218,-0.23949 -2.220726,-0.032 -2.814886,0.46107 -1.53162,1.27113 -1.353639,6.23257 0.349794,9.75072 2.147804,4.43592 7.249141,7.08162 8.312325,4.31101 z m 97.471166,-6.91985 c 1.43256,-2.31793 -0.69189,-12.53205 -3.19342,-15.3536 -1.34851,-1.52102 -3.67824,-1.37797 -4.72325,0.29002 -0.53882,0.86004 -0.13308,2.60121 1.54612,6.63483 1.25217,3.00784 2.60179,6.32392 2.99915,7.36908 0.75087,1.97492 2.4715,2.51574 3.3714,1.05967 z M 75.595074,213.55933 c 2.766639,-6.54404 2.978804,-8.55306 1.039308,-9.84126 -2.123158,-1.41019 -3.738037,0.0802 -5.490949,5.0675 -1.822151,5.18435 -2.127881,10.41846 -0.661508,11.32503 1.520649,0.94014 2.448692,-0.24893 5.113149,-6.55127 z m 72.225746,-2.61287 c 7.43365,-4.45016 14.23895,-9.97271 15.63135,-12.68494 2.215,-4.31459 3.7153,-11.46664 4.09801,-19.53573 0.32694,-6.89317 0.20922,-7.91505 -1.17537,-10.20278 -0.84628,-1.39831 -2.42525,-4.50288 -3.50881,-6.89906 -5.81347,-12.8558 -6.74868,-14.20813 -11.77641,-17.02881 -3.77063,-2.11542 -4.88619,-3.15455 -5.53902,-5.15955 -0.96378,-2.96 -2.77328,-3.49591 -6.06187,-1.79532 -3.44259,1.78024 -15.09888,1.62853 -18.16553,-0.23642 -2.8976,-1.76213 -4.88861,-1.28087 -5.45979,1.31972 -0.53209,2.42257 -2.58788,4.4123 -6.68087,6.46621 -3.88959,1.95183 -5.95764,4.7959 -8.90931,12.2525 -1.304015,3.29422 -3.397121,7.54147 -4.651361,9.43832 -2.18222,3.3003 -2.276339,3.74873 -2.185278,10.41186 0.0959,7.01785 1.489605,14.91136 3.469416,19.64972 0.589947,1.41194 2.80771,4.02937 4.928363,5.81652 3.91983,3.30339 12.45773,8.9064 15.3429,10.06879 0.87334,0.35187 7.14479,0.65963 13.93656,0.68392 l 12.34867,0.0442 4.35835,-2.60914 z m 25.37644,0.45167 c 1.33159,-0.50627 1.86327,-1.23999 1.86327,-2.57131 0,-2.54995 -2.45717,-7.15801 -4.79924,-9.00028 -3.09645,-2.43567 -0.38069,-1.80296 5.84465,1.36166 4.51901,2.29721 5.9569,2.7304 7.07566,2.13166 4.46567,-2.38996 0.75794,-9.227 -7.19596,-13.26928 l -3.39139,-1.72355 6.6497,-0.31793 c 5.13781,-0.24564 6.98714,-0.62331 8.13386,-1.66108 1.81647,-1.64388 1.86317,-2.67255 0.21299,-4.69144 -1.01641,-1.2435 -2.6179,-1.71984 -7.99032,-2.37661 -3.69552,-0.45178 -6.71913,-1.0355 -6.71913,-1.29717 0,-0.26166 1.78403,-1.21519 3.96451,-2.11895 8.3306,-3.45284 11.80982,-7.49904 8.56576,-9.96163 -1.80299,-1.36867 -4.14176,-1.24145 -10.2028,0.55501 -4.27372,1.26671 -5.20228,1.79448 -4.79662,2.72628 1.00533,2.30921 1.165,10.36187 0.32005,16.14053 -1.34323,9.18642 -3.32679,14.74767 -6.41523,17.98622 l -2.69475,2.8257 3.04633,1.61178 c 1.67549,0.88649 3.60568,2.22986 4.28934,2.9853 1.43073,1.58093 1.7137,1.62533 4.23932,0.66509 z m -79.176818,-2.15952 c 1.482124,-1.17785 3.597349,-2.54106 4.700492,-3.02936 l 2.005706,-0.88782 -2.673639,-2.755 c -3.117356,-3.21222 -5.250937,-9.01845 -6.529082,-17.76789 -0.872324,-5.97145 -0.735145,-14.20568 0.272956,-16.38437 0.603211,-1.30364 -0.430518,-1.77054 -8.505065,-3.84148 -3.817903,-0.97921 -4.412513,-0.97302 -5.992736,0.0624 -3.740026,2.45055 -1.060569,6.13037 7.325622,10.06059 5.748066,2.69386 5.762659,2.67918 -3.913104,3.9352 -5.892661,0.76494 -6.296506,0.98526 -6.995397,3.8165 -0.795443,3.22239 2.181843,4.5958 9.966145,4.59736 3.514148,7.1e-4 6.389572,0.0677 6.389826,0.14889 2.62e-4,0.0812 -1.452937,0.79052 -3.229329,1.5763 -4.517332,1.99822 -9.845259,7.46247 -9.845259,10.09715 0,4.13989 3.243726,4.93603 8.224162,2.01853 1.669206,-0.9778 4.328172,-2.31788 5.908816,-2.97795 l 2.873898,-1.20014 -2.724719,3.01594 c -4.397499,4.86751 -5.428351,9.34736 -2.478283,10.77013 2.292617,1.10569 2.229312,1.12092 5.21899,-1.25498 z M 197.21549,180.94219 c 4.0929,-2.36092 6.49811,-4.74147 7.23053,-7.15642 0.89012,-2.93493 -1.46656,-2.72806 -6.69308,0.58752 -2.69269,1.70818 -5.63127,3.54978 -6.53018,4.09244 -1.93128,1.16588 -2.03638,1.90017 -0.49291,3.44365 1.55999,1.55998 2.29438,1.45046 6.48564,-0.96719 z M 72.200669,180.44293 c 0.615875,-1.60495 0.128073,-2.17673 -3.775743,-4.42569 -1.877051,-1.08136 -4.424304,-2.71962 -5.660562,-3.64059 -3.794776,-2.82695 -6.273005,-1.88649 -4.512435,1.71242 2.308479,4.71894 12.750824,9.47557 13.94874,6.35386 z M 207.28108,168.89505 c 0.89458,-2.33124 1.27383,-8.09014 0.64281,-9.76114 -0.61435,-1.62685 -0.73308,-1.4931 -1.54822,1.74411 -0.48556,1.92834 -1.31117,4.35562 -1.83468,5.39394 -0.52351,1.03832 -0.806,2.29645 -0.62777,2.79584 0.45073,1.26289 2.86446,1.13908 3.36786,-0.17275 z M 58.06544,168.21516 c 0.672359,-0.81014 0.553449,-1.63643 -0.548803,-3.81356 -0.773927,-1.52863 -1.65456,-3.92339 -1.956962,-5.32169 -0.542757,-2.50971 -0.558662,-2.51905 -1.237866,-0.7264 -1.163912,3.07196 0.468531,10.89589 2.2734,10.89589 0.336541,0 0.998145,-0.46541 1.470231,-1.03424 z m 115.55644,-4.9585 c 1.67381,-2.09746 3.98814,-5.6806 5.14297,-7.96254 1.15483,-2.28193 3.22148,-5.27077 4.59258,-6.64186 6.89023,-6.89023 7.40472,-26.67156 1.02013,-39.22291 -1.81359,-3.56531 -6.8654,-10.226634 -9.78599,-12.903811 -2.33673,-2.141985 -9.86825,-7.253695 -10.19947,-6.922474 -0.11875,0.118743 0.9703,3.133147 2.42012,6.698673 3.84454,9.454882 5.9151,21.384722 3.70836,21.366172 -2.81471,-0.0237 -14.03551,-10.78166 -17.41144,-16.69329 -0.911,-1.59526 -1.85708,-2.902991 -2.10242,-2.906071 -0.24533,-0.0029 -0.63906,1.402482 -0.87494,3.123461 -0.49145,3.5855 0.78907,9.7924 2.83383,13.73606 1.816,3.50244 9.04658,10.90698 13.41472,13.73744 l 3.42626,2.22013 -0.36715,5.92522 c -0.27939,4.5088 -0.0815,6.60709 0.82759,8.77765 0.65712,1.56884 0.92158,3.03979 0.5877,3.26877 -3.82806,2.62533 -7.41648,5.49103 -7.41648,5.92278 0,0.29623 0.70888,2.44723 1.57528,4.78001 1.48699,4.00367 3.83412,7.51015 5.02709,7.51015 0.29588,0 1.90745,-1.7161 3.58126,-3.81356 z m -76.542978,-4.60968 1.822417,-5.01502 -2.379683,-1.81598 c -6.041499,-4.61037 -5.936426,-4.44567 -4.574027,-7.16996 0.970794,-1.94122 1.145259,-3.7176 0.842208,-8.57516 l -0.382234,-6.12675 3.009283,-1.89557 c 4.685224,-2.95127 12.069014,-10.39583 13.890624,-14.00495 0.90741,-1.79783 2.0181,-5.0044 2.46821,-7.12574 0.79087,-3.72731 0.42626,-9.581286 -0.59677,-9.581286 -0.27489,0 -1.24929,1.333554 -2.16535,2.963466 -2.31042,4.11083 -9.592448,11.7339 -13.769341,14.41421 -1.91554,1.2292 -3.699349,2.23491 -3.96401,2.23491 -1.802586,0 0.766765,-13.55645 4.130194,-21.791763 1.386929,-3.395884 2.429651,-6.268569 2.317162,-6.383753 -0.629593,-0.644637 -9.494513,6.219465 -12.917593,10.002087 -7.517528,8.307139 -11.444375,18.531169 -11.444375,29.796829 0,8.41278 1.93537,15.27347 5.2963,18.77482 1.40044,1.45895 3.530164,4.62693 4.732721,7.03996 1.202557,2.41303 3.737724,6.11269 5.633695,8.22147 3.395717,3.77685 3.467986,3.81336 4.837685,2.44367 0.764753,-0.76476 2.21055,-3.64723 3.212884,-6.40549 z m 95.060328,5.07669 c 4.0958,-4.41945 6.78854,-12.68735 4.4272,-13.59348 -1.12137,-0.43031 -2.33233,0.79575 -6.83571,6.92097 -3.14359,4.27573 -3.68409,6.18676 -2.17624,7.69461 1.34302,1.34302 2.66619,1.04805 4.58475,-1.0221 z m -117.466107,0.2957 c 1.532557,-1.53255 0.911382,-3.74482 -2.234851,-7.95924 -1.687297,-2.26015 -3.394689,-4.65328 -3.794205,-5.31807 -0.399516,-0.66478 -1.379987,-1.26714 -2.178825,-1.33857 -2.27568,-0.20349 -2.195766,2.62937 0.217462,7.70879 3.220719,6.77907 5.847662,9.04985 7.990419,6.90709 z m 124.937217,-21.5761 c 0.2843,-7.08891 -0.77919,-7.99907 -2.2951,-1.96421 -1.65562,6.59107 -1.58096,7.86162 0.44505,7.57388 1.50356,-0.21353 1.65164,-0.66254 1.85005,-5.60967 z m -133.508646,3.52927 c 0,-2.68901 -2.337166,-10.85167 -2.991332,-10.44738 -0.721139,0.44569 -0.879779,9.01126 -0.199717,10.78347 0.662224,1.72573 3.191049,1.45938 3.191049,-0.33609 z"
       id="path4428"
       inkscape:connector-curvature="0" />
    <path
       style="fill:#a2e0f8"
       d="m 34.792651,324.50127 c -6.182389,-4.13011 -6.759432,-14.15101 -1.114614,-19.35629 3.842289,-3.54311 14.263851,-2.71301 14.263851,1.13614 0,1.70019 -0.05683,1.71712 -2.143104,0.63827 -3.289671,-1.70116 -7.578098,-1.42416 -9.983459,0.64484 -1.880838,1.61783 -2.038086,2.1551 -2.038086,6.96362 0,4.80852 0.157248,5.34579 2.038086,6.96362 2.379627,2.04687 6.30203,2.31938 9.485624,0.65903 2.691508,-1.40372 2.784902,-1.38396 2.509862,0.53108 -0.518928,3.61319 -8.635205,4.74769 -13.01816,1.81969 z m 18.016963,1.1897 c -0.280155,-0.28015 -0.509372,-5.52147 -0.509372,-11.64738 l 0,-11.13802 4.381684,0 c 6.01814,0 9.176593,1.41866 9.993415,4.48866 0.722368,2.715 -0.187401,6.3046 -1.749828,6.90417 -0.796802,0.30576 -0.725539,0.76221 0.359548,2.30297 1.74787,2.48189 4.448594,7.82034 4.448594,8.79343 0,0.41543 -0.635721,0.75533 -1.412715,0.75533 -0.992579,0 -2.126717,-1.35017 -3.813559,-4.53995 -2.309703,-4.36761 -2.516685,-4.54837 -5.45231,-4.76158 l -3.051468,-0.22161 -0.217298,4.57267 c -0.163216,3.43461 -0.497296,4.62594 -1.342309,4.78669 -0.618755,0.11769 -1.354227,-0.0153 -1.634382,-0.29538 z m 9.932516,-13.325 c 1.110662,-1.10915 0.685063,-4.58938 -0.683629,-5.59018 -0.725573,-0.53056 -2.400815,-0.96465 -3.722761,-0.96465 l -2.403537,0 0,4.088 0,4.088 3.087167,-0.49322 c 1.697942,-0.27127 3.373184,-0.77885 3.72276,-1.12795 z m 13.35892,11.66637 -2.372237,-2.11779 -0.239325,-9.50449 -0.239324,-9.50449 1.873707,0 1.873707,0 0,8.55508 c 0,10.19131 0.677557,11.78391 5.013356,11.78391 4.481092,0 5.075651,-1.26325 5.31337,-11.28936 0.200957,-8.47546 0.247082,-8.69225 1.899225,-8.92626 l 1.693264,-0.23984 -0.240479,9.56273 -0.24048,9.56272 -2.372237,2.11779 c -1.945678,1.73698 -3.021181,2.11779 -5.981273,2.11779 -2.960092,0 -4.035596,-0.38081 -5.981274,-2.11779 z m 21.235511,1.50861 c -1.144003,-0.34016 -1.906787,-1.17125 -2.061393,-2.24598 -0.213675,-1.48545 -0.02586,-1.63995 1.452785,-1.19508 3.592947,1.08101 7.711027,1.28221 9.261377,0.4525 1.23014,-0.65835 1.54961,-1.39346 1.37755,-3.16965 -0.19864,-2.05051 -0.59438,-2.42204 -3.49279,-3.27919 -5.858098,-1.73242 -7.063357,-2.37371 -7.896086,-4.20135 -1.303504,-2.86088 -0.974652,-4.596 1.302683,-6.87332 1.764675,-1.76468 2.715501,-2.12163 5.629543,-2.11339 5.27644,0.015 6.775,0.59948 6.775,2.64274 0,1.51182 -0.19594,1.65195 -1.40503,1.00486 -2.09705,-1.1223 -7.71167,-0.93089 -8.731281,0.29766 -0.479099,0.57728 -0.764281,1.79933 -0.633734,2.71567 0.196649,1.38034 1.047088,1.88268 4.958905,2.9291 5.47268,1.46398 7.26392,3.20516 7.26392,7.06093 0,4.04787 -2.5088,6.07638 -7.81866,6.32184 -2.29174,0.10595 -4.984,-0.0503 -5.982789,-0.34734 z m 23.753929,0.15002 c -0.28016,-0.28015 -0.50938,-4.86772 -0.50938,-10.1946 l 0,-9.68523 -3.99515,0 c -3.52995,0 -3.99516,-0.17162 -3.99516,-1.47387 0,-1.41687 0.37182,-1.46602 9.61572,-1.27118 8.48596,0.17887 9.64439,0.35203 9.85957,1.47387 0.20852,1.08714 -0.33936,1.27118 -3.7841,1.27118 l -4.02792,0 -0.2021,9.97888 c -0.16862,8.32629 -0.3884,10.01459 -1.3271,10.1946 -0.61876,0.11865 -1.35423,-0.0135 -1.63438,-0.29365 z m 8.67553,-0.0973 c -0.18916,-0.30607 1.5397,-5.45438 3.84192,-11.44068 3.74656,-9.74189 4.37703,-10.90724 6.00742,-11.10391 1.72044,-0.20754 2.04919,0.37764 5.9215,10.54012 2.25497,5.91791 4.09994,11.1651 4.09994,11.66041 0,0.4953 -0.61826,0.90056 -1.37391,0.90056 -0.92487,0 -1.75388,-0.94964 -2.53649,-2.90557 l -1.16258,-2.90557 -4.90903,0.007 -4.90903,0.007 -1.21724,2.89818 c -1.10796,2.63799 -2.89283,3.74884 -3.7625,2.34168 z m 13.29577,-9.0682 c -0.0865,-2.09592 -3.45839,-9.57047 -3.85031,-8.53511 -1.49149,3.9401 -3.37545,9.10881 -3.37577,9.2615 -1.9e-4,0.0999 1.63402,0.1816 3.6316,0.1816 2.4413,0 3.61968,-0.29767 3.59448,-0.90799 z m 14.20213,8.60592 c -2.92464,-1.29096 -4.40144,-3.10473 -5.46961,-6.71764 -2.46821,-8.34831 2.3721,-15.50814 10.48411,-15.50814 4.43321,0 6.97097,1.23922 6.97097,3.40402 0,1.66867 -0.0616,1.68619 -2.1431,0.6098 -3.32693,-1.72043 -7.76309,-1.43758 -9.82725,0.62657 -3.04083,3.04084 -3.30517,10.08529 -0.50806,13.53958 1.74149,2.15064 7.06407,2.7424 10.17887,1.13167 2.27689,-1.17742 2.29954,-1.17176 2.29954,0.57444 0,1.32502 -0.56886,1.96188 -2.28757,2.56102 -3.02938,1.05605 -7.00986,0.96521 -9.6979,-0.22132 z m 16.67353,0.10384 c -0.20427,-0.53232 -0.2803,-5.69253 -0.16895,-11.46714 l 0.20244,-10.49928 7.08233,-0.2079 c 6.70811,-0.19692 7.08232,-0.12976 7.08232,1.27119 0,1.35637 -0.45197,1.47908 -5.44794,1.47908 l -5.44794,0 0,3.26877 0,3.26876 5.44794,0 c 4.96368,0 5.44794,0.12914 5.44794,1.45279 0,1.32365 -0.48426,1.45278 -5.44794,1.45278 l -5.44794,0 0,3.60141 0,3.6014 5.62954,0.21216 c 5.07456,0.19124 5.62954,0.35537 5.62954,1.66494 0,1.33942 -0.55362,1.46902 -7.09497,1.66083 -5.38982,0.15806 -7.18423,-0.0245 -7.46637,-0.75979 z m 23.66595,-0.31602 c -3.52976,-1.8386 -5.33597,-5.30009 -5.37178,-10.2947 -0.0352,-4.90436 1.55856,-8.29621 4.83754,-10.29552 3.0048,-1.83213 8.14311,-1.85696 11.10036,-0.0536 6.00763,3.66345 6.3069,15.67439 0.49818,19.99447 -2.6475,1.96901 -7.93508,2.27934 -11.0643,0.64938 z m 9.47426,-3.79791 c 1.84365,-1.84365 2.12331,-2.66161 2.12331,-6.21041 0,-4.33835 -1.36107,-7.90394 -3.30131,-8.64849 -2.10312,-0.80704 -5.78169,-0.47702 -7.41211,0.66497 -2.00754,1.40612 -3.33176,6.18735 -2.7187,9.81604 1.06748,6.31838 7.0517,8.635 11.30881,4.37789 z m 11.56641,4.41969 c -1.14401,-0.34016 -1.90679,-1.17125 -2.0614,-2.24598 -0.21367,-1.48545 -0.0259,-1.63995 1.45279,-1.19508 6.69478,2.01426 10.7781,1.05636 10.7781,-2.52842 0,-2.35717 -0.83987,-2.92823 -6.35298,-4.31963 -6.03592,-1.52335 -7.83157,-6.26379 -3.87239,-10.22296 1.76468,-1.76468 2.7155,-2.12163 5.62954,-2.11339 5.27644,0.015 6.775,0.59948 6.775,2.64274 0,1.51182 -0.19593,1.65195 -1.40503,1.00486 -2.09704,-1.1223 -7.71167,-0.93089 -8.73128,0.29766 -0.4791,0.57728 -0.76428,1.80247 -0.63373,2.72264 0.1942,1.36887 1.01158,1.87769 4.49604,2.7988 2.34227,0.61918 5.03901,1.82084 5.99274,2.67035 2.32644,2.07221 2.33886,5.95508 0.0277,8.64203 -1.44704,1.68228 -2.3579,2.0144 -5.99273,2.18508 -2.35749,0.11069 -5.10353,-0.0417 -6.10232,-0.3387 z m -79.90315,-26.26734 c 1.48873,-2.09073 5.0494,-3.24317 3.92754,-1.27118 -1.19956,2.10857 -2.78994,3.45036 -4.08959,3.45036 -1.33261,0 -1.32596,-0.0895 0.16205,-2.17918 z M 123.48668,275.93584 C 82.796578,273.50085 46.181928,248.99283 27.818119,211.90006 8.6410895,173.1647 12.89129,127.24477 38.892377,92.251818 44.217707,85.084847 54.95674,74.240827 61.743341,69.177457 92.30105,46.378866 132.04767,39.966055 167.79661,52.066585 c 17.22141,5.829216 31.13045,14.430969 44.18002,27.32222 22.16151,21.892625 34.25116,50.715485 34.26605,81.693455 0.0268,55.75843 -39.95267,103.45634 -95.15309,113.52326 -6.97272,1.27162 -18.94319,1.84853 -27.60291,1.33032 z m 65.81889,-44.93429 c 2.27125,-3.43209 2.70036,-7.45966 0.83559,-7.84294 -0.79276,-0.16294 -1.51143,0.3683 -1.92977,1.42648 -0.36662,0.92735 -1.35084,3.38108 -2.18717,5.45272 -0.83632,2.07164 -1.52059,4.12612 -1.52059,4.56551 0,1.48747 2.84741,-0.64829 4.80194,-3.60177 z m -111.91428,1.62557 c -0.268468,-0.69915 -1.202347,-3.3253 -2.075296,-5.83589 -1.295942,-3.7271 -1.852394,-4.52684 -3.032545,-4.35835 -0.794951,0.11349 -1.551898,0.76545 -1.682107,1.44879 -0.305227,1.60182 1.692006,5.79933 3.885643,8.16631 1.986007,2.14293 3.630704,2.4709 2.904305,0.57914 z m 88.21755,-1.33523 c 0.43044,-0.43044 0.56008,-1.36251 0.28811,-2.07126 -0.37448,-0.97588 -1.04142,-1.19966 -2.74778,-0.922 -4.73762,0.77091 -10.61368,2.82171 -10.165,3.54768 0.60048,0.9716 11.58086,0.48939 12.62467,-0.55442 z m -56.75405,-0.21947 c 1.29269,-0.8191 0.71304,-1.10478 -5.39581,-2.6594 -5.170606,-1.31584 -7.950589,-1.0969 -7.396649,0.58253 0.164651,0.49918 1.090743,1.31138 2.057985,1.80489 2.007944,1.02448 9.256984,1.20816 10.734474,0.27198 z m 65.00759,-3.57889 c 2.14112,-1.93768 3.35192,-4.85588 3.48604,-8.40188 0.14149,-3.74079 -0.97276,-5.53232 -3.44086,-5.53232 -2.05874,0 -2.97483,1.59791 -3.08629,5.38332 -0.0514,1.74576 -0.79055,3.86101 -1.91735,5.48698 -2.04599,2.95237 -2.20504,3.72204 -1.01508,4.912 0.96005,0.96005 3.86297,0.062 5.97354,-1.8481 z m -78.842829,-0.29729 c 0.130787,-0.68977 -0.629136,-2.39072 -1.688702,-3.77989 -1.436027,-1.88273 -1.926494,-3.37236 -1.926494,-5.85112 0,-2.68872 -0.326746,-3.53944 -1.706739,-4.44364 -2.141273,-1.40302 -4.673992,-0.29232 -4.783322,2.09767 -0.28261,6.17792 0.8987,9.54629 4.230015,12.06149 2.359954,1.78181 5.530031,1.7362 5.875242,-0.0845 z m 97.526199,-7.19618 c 1.54535,-2.88751 -1.33018,-13.77965 -4.12621,-15.62956 -1.94198,-1.28486 -3.80378,-0.59078 -4.36,1.6254 -0.37591,1.49773 2.32768,9.35777 4.9127,14.28255 0.90757,1.72904 2.56841,1.59965 3.57351,-0.27839 z M 75.42613,214.64457 c 1.365058,-3.19374 2.638678,-6.86032 2.830264,-8.14797 0.296332,-1.99167 0.06109,-2.47205 -1.575625,-3.2178 -1.654169,-0.75369 -2.108862,-0.68004 -3.242637,0.5252 -2.936978,3.12214 -5.236118,12.70457 -3.725485,15.52721 1.47295,2.75223 3.10681,1.41202 5.713483,-4.68664 z m 70.78925,-2.62651 c 3.89048,-1.96071 11.79509,-7.45601 14.86387,-10.3334 3.0711,-2.87957 5.084,-8.3992 6.37553,-17.48256 1.50831,-10.60792 1.40333,-11.93645 -1.29972,-16.44822 -1.30237,-2.17383 -3.60175,-6.8782 -5.10974,-10.45416 -3.42094,-8.11221 -5.48445,-10.84509 -9.8648,-13.06478 -3.94774,-2.00047 -4.78299,-2.8734 -5.46036,-5.70672 -0.65956,-2.75885 -1.91032,-3.05288 -5.68047,-1.33538 -4.21216,1.91887 -15.93049,1.84888 -18.72984,-0.11185 -2.888,-2.02284 -4.27059,-1.5763 -5.74108,1.85423 -1.02619,2.39398 -2.16272,3.55376 -4.99105,5.09313 -5.14691,2.80131 -7.50845,5.82326 -10.613871,13.5821 -1.485262,3.7109 -3.582923,7.90706 -4.661463,9.3248 -1.853004,2.43578 -1.95844,3.00044 -1.914879,10.25465 0.0486,8.09478 1.650109,16.87525 3.803732,20.85465 1.908835,3.52709 8.195421,8.44461 17.215541,13.46642 3.57791,1.99195 3.81885,2.02224 16.19117,2.03519 11.3697,0.0119 12.84884,-0.13281 15.61743,-1.5281 z m 28.15591,-1.40146 c 1.03996,-1.03996 1.34124,-1.97233 0.99757,-3.08717 -0.80464,-2.61017 -2.46975,-5.57463 -3.97892,-7.08379 -2.15971,-2.15971 -0.23837,-1.6941 4.92529,1.19358 5.08337,2.84278 7.52024,2.90357 8.95466,0.22335 1.60039,-2.99037 -2.15845,-8.11596 -8.63119,-11.76958 l -3.14339,-1.77431 6.52912,-0.31216 c 6.94896,-0.33224 8.83755,-1.14776 8.83755,-3.81619 0,-2.95164 -1.57394,-4.04996 -6.90611,-4.81919 -9.41819,-1.35868 -9.31062,-1.24301 -3.61091,-3.88306 4.91201,-2.2752 9.40948,-6.29254 8.86689,-7.92031 -0.14159,-0.42479 -1.09266,-1.39592 -2.11346,-2.15807 -1.82871,-1.36532 -1.93491,-1.36403 -7.21813,0.0879 -2.94916,0.81047 -6.01586,1.72254 -6.81489,2.02684 -0.9187,0.34987 -0.1589,-0.89077 2.06676,-3.37472 1.93575,-2.1604 4.60128,-6.06443 5.9234,-8.67563 1.32212,-2.61121 3.42862,-5.7201 4.6811,-6.90865 5.29783,-5.02741 7.09752,-20.39055 3.70364,-31.61624 -3.70864,-12.26678 -9.18827,-19.03671 -22.06593,-27.261809 l -2.05906,-1.315148 1.22969,2.847806 c 4.31661,9.996691 8.06958,24.785301 6.65011,26.204781 -0.81352,0.81351 -8.33654,-4.80265 -12.2382,-9.13618 -2.00617,-2.22823 -4.66685,-5.83587 -5.91264,-8.01701 l -2.26506,-3.965704 -0.62408,2.876113 c -0.88861,4.095171 -0.0331,10.208911 2.07182,14.806781 1.99711,4.36225 10.50585,13.20866 15.04565,15.64273 2.28191,1.22346 2.58818,1.68234 2.18176,3.26876 -0.98647,3.8506 -0.60684,11.29206 0.676,13.2506 l 1.24413,1.89946 -3.9681,2.99595 c -2.18246,1.64777 -3.96811,3.48216 -3.96811,4.07644 0,1.7254 3.23073,9.15255 5.296,12.17503 2.54239,3.72073 3.08361,8.15936 2.0025,16.42277 -1.31891,10.08108 -3.2195,15.58484 -6.6772,19.336 l -2.90781,3.1546 2.77764,1.41763 c 1.5277,0.7797 3.40033,2.10617 4.16141,2.94771 1.7548,1.94035 4.36363,1.95702 6.2805,0.0402 z m -78.576628,-2.14202 c 2.126826,-1.59806 4.188785,-2.90557 4.582138,-2.90557 0.39335,0 -0.60246,-1.49693 -2.212915,-3.3265 -3.371833,-3.83061 -4.782181,-7.58239 -6.275353,-16.69357 -1.306678,-7.97321 -1.321308,-12.20257 -0.05448,-15.75226 l 0.971252,-2.72149 -4.736121,-1.46284 c -8.105564,-2.50355 -9.731346,-2.5656 -11.717644,-0.44721 -1.661869,1.7724 -1.684242,1.92947 -0.526416,3.69654 1.324721,2.02177 4.885162,4.4078 9.774864,6.5506 3.774574,1.65412 3.043169,2.12453 -4.571107,2.93995 -5.684411,0.60876 -7.887239,2.15642 -7.52567,5.28742 0.290934,2.51929 3.45321,3.66219 10.395094,3.75699 4.95438,0.0676 5.026184,0.0949 2.800489,1.06335 -4.871397,2.11962 -11.083707,9.26677 -10.156009,11.68432 0.207196,0.53993 1.205172,1.52452 2.217726,2.18797 1.775186,1.16315 2.003818,1.11743 6.394968,-1.2789 2.504681,-1.36685 5.200025,-2.72597 5.989657,-3.02027 1.346651,-0.50189 1.338188,-0.43121 -0.136511,1.13964 -2.106843,2.24421 -4.53292,7.79242 -4.037245,9.23282 0.527564,1.53308 2.37122,2.97458 3.804436,2.97458 0.633545,0 2.892029,-1.30751 5.018847,-2.90557 z M 198.8613,180.14355 c 4.22912,-2.82411 6.67904,-6.27197 5.64521,-7.94474 -0.78877,-1.27627 -2.50804,-0.88179 -5.70735,1.30953 -1.67005,1.14388 -4.42568,2.78491 -6.12362,3.64673 -3.14189,1.59473 -3.90786,3.33174 -2.21549,5.02411 1.53043,1.53044 3.93265,0.94838 8.40125,-2.03563 z m -127.093746,1.30924 c 1.909968,-1.90997 0.785137,-3.3293 -5.817175,-7.34023 -5.000456,-3.0378 -6.925682,-3.86694 -7.627118,-3.2848 -0.51605,0.42829 -0.938274,1.21762 -0.938274,1.75407 0,1.67628 4.43628,6.12052 7.922524,7.93674 3.79093,1.97496 5.213567,2.18069 6.460043,0.93422 z M 207.67712,167.68822 c 0.98048,-2.8126 1.04861,-9.09375 0.10496,-9.67695 -0.38087,-0.23539 -1.06888,0.9711 -1.52893,2.6811 -0.46004,1.71 -1.31614,4.0375 -1.90244,5.17223 -1.26813,2.45435 -0.81498,4.11119 1.12444,4.11119 0.92229,0 1.67832,-0.78541 2.20197,-2.28757 z m -149.214601,0.8543 c 0.606037,-0.9806 -3.28715,-11.70871 -4.072825,-11.22314 -0.898072,0.55503 -0.792123,6.90893 0.160784,9.64245 0.785015,2.25189 2.955256,3.1288 3.912041,1.58069 z m 36.311991,-4.08659 c 1.275138,-1.9461 4.026951,-9.34733 3.999167,-10.75608 -0.0086,-0.43686 -1.767087,-2.04871 -3.907729,-3.5819 l -3.89206,-2.78763 1.183757,-2.29712 c 1.208746,-2.34561 1.516301,-9.23249 0.579066,-12.96671 -0.425041,-1.69351 -0.103714,-2.12762 2.860874,-3.86498 4.931385,-2.88999 11.562345,-9.88173 14.055085,-14.81981 2.42499,-4.80389 3.36632,-10.56531 2.4304,-14.875245 l -0.61352,-2.825259 -2.74686,4.450264 c -3.3441,5.41787 -10.688778,12.94792 -14.854856,15.22979 l -3.068804,1.68086 0,-1.78222 c 0,-4.19992 2.409523,-13.89083 5.094487,-20.489641 1.592702,-3.914376 2.895828,-7.224908 2.895828,-7.356741 0,-0.131833 -2.696731,1.671239 -5.992736,4.006823 -13.05446,9.250529 -19.69646,21.778529 -19.69646,37.151099 0,8.88243 1.679274,14.89684 5.32654,19.07731 1.476814,1.69271 3.724271,5.03891 4.994346,7.43601 2.63225,4.96801 7.754332,11.25908 9.166954,11.25908 0.52224,0 1.506175,-0.84955 2.186521,-1.8879 z m 97.45871,-0.47288 c 3.72473,-4.21202 6.67055,-11.66004 5.27623,-13.34008 -1.51673,-1.82755 -2.63141,-1.06499 -6.75034,4.61793 -3.76281,5.19156 -4.96598,8.49833 -3.59204,9.87227 1.01994,1.01994 3.68147,0.41572 5.06615,-1.15012 z m -117.837427,0.46708 c 1.836,-0.70454 1.382434,-4.42409 -0.903646,-7.4104 -1.128952,-1.47476 -2.943408,-3.90716 -4.032122,-5.40534 -1.924435,-2.64823 -4.722462,-3.68631 -4.894762,-1.81599 -0.28983,3.1461 1.849584,8.71983 4.863957,12.67188 1.831314,2.40097 2.810303,2.78729 4.966573,1.95985 z M 198.95643,147.91125 c 0.88277,-1.06367 1.34463,-11.04844 0.54792,-11.84516 -0.77381,-0.7738 -1.16168,0.026 -2.69383,5.55499 -1.11921,4.03881 -1.26369,5.502 -0.61985,6.27779 1.05651,1.27301 1.71708,1.27597 2.76576,0.0124 z M 66.344871,146.41887 c 0.195528,-0.50954 -0.259996,-3.18099 -1.012274,-5.93657 -0.752278,-2.75558 -1.377296,-5.32068 -1.388929,-5.70022 -0.01163,-0.37954 -0.397578,-0.31364 -0.857657,0.14644 -1.058033,1.05803 -0.937657,10.90343 0.149326,12.21316 0.891,1.07359 2.569953,0.68332 3.109534,-0.72281 z"
       id="path4426"
       inkscape:connector-curvature="0" />
    <path
       style="fill:#5fcaf4"
       d="m 34.792651,324.50127 c -6.182389,-4.13011 -6.759432,-14.15101 -1.114614,-19.35629 3.842289,-3.54311 14.263851,-2.71301 14.263851,1.13614 0,1.70019 -0.05683,1.71712 -2.143104,0.63827 -3.289671,-1.70116 -7.578098,-1.42416 -9.983459,0.64484 -1.880838,1.61783 -2.038086,2.1551 -2.038086,6.96362 0,4.80852 0.157248,5.34579 2.038086,6.96362 2.379627,2.04687 6.30203,2.31938 9.485624,0.65903 2.691508,-1.40372 2.784902,-1.38396 2.509862,0.53108 -0.518928,3.61319 -8.635205,4.74769 -13.01816,1.81969 z m 18.016963,1.1897 c -0.280155,-0.28015 -0.509372,-5.52147 -0.509372,-11.64738 l 0,-11.13802 4.381684,0 c 6.01814,0 9.176593,1.41866 9.993415,4.48866 0.722368,2.715 -0.187401,6.3046 -1.749828,6.90417 -0.796802,0.30576 -0.725539,0.76221 0.359548,2.30297 1.74787,2.48189 4.448594,7.82034 4.448594,8.79343 0,0.41543 -0.635721,0.75533 -1.412715,0.75533 -0.992579,0 -2.126717,-1.35017 -3.813559,-4.53995 -2.309703,-4.36761 -2.516685,-4.54837 -5.45231,-4.76158 l -3.051468,-0.22161 -0.217298,4.57267 c -0.163216,3.43461 -0.497296,4.62594 -1.342309,4.78669 -0.618755,0.11769 -1.354227,-0.0153 -1.634382,-0.29538 z m 9.932516,-13.325 c 1.110662,-1.10915 0.685063,-4.58938 -0.683629,-5.59018 -0.725573,-0.53056 -2.400815,-0.96465 -3.722761,-0.96465 l -2.403537,0 0,4.088 0,4.088 3.087167,-0.49322 c 1.697942,-0.27127 3.373184,-0.77885 3.72276,-1.12795 z m 13.35892,11.66637 -2.372237,-2.11779 -0.239325,-9.50449 -0.239324,-9.50449 1.873707,0 1.873707,0 0,8.55508 c 0,10.19131 0.677557,11.78391 5.013356,11.78391 4.481092,0 5.075651,-1.26325 5.31337,-11.28936 0.200957,-8.47546 0.247082,-8.69225 1.899225,-8.92626 l 1.693264,-0.23984 -0.240479,9.56273 -0.24048,9.56272 -2.372237,2.11779 c -1.945678,1.73698 -3.021181,2.11779 -5.981273,2.11779 -2.960092,0 -4.035596,-0.38081 -5.981274,-2.11779 z m 21.235511,1.50861 c -1.144003,-0.34016 -1.906787,-1.17125 -2.061393,-2.24598 -0.213675,-1.48545 -0.02586,-1.63995 1.452785,-1.19508 3.592947,1.08101 7.711027,1.28221 9.261377,0.4525 1.23014,-0.65835 1.54961,-1.39346 1.37755,-3.16965 -0.19864,-2.05051 -0.59438,-2.42204 -3.49279,-3.27919 -5.858098,-1.73242 -7.063357,-2.37371 -7.896086,-4.20135 -1.303504,-2.86088 -0.974652,-4.596 1.302683,-6.87332 1.764675,-1.76468 2.715501,-2.12163 5.629543,-2.11339 5.27644,0.015 6.775,0.59948 6.775,2.64274 0,1.51182 -0.19594,1.65195 -1.40503,1.00486 -2.09705,-1.1223 -7.71167,-0.93089 -8.731281,0.29766 -0.479099,0.57728 -0.764281,1.79933 -0.633734,2.71567 0.196649,1.38034 1.047088,1.88268 4.958905,2.9291 5.47268,1.46398 7.26392,3.20516 7.26392,7.06093 0,4.04787 -2.5088,6.07638 -7.81866,6.32184 -2.29174,0.10595 -4.984,-0.0503 -5.982789,-0.34734 z m 23.753929,0.15002 c -0.28016,-0.28015 -0.50938,-4.86772 -0.50938,-10.1946 l 0,-9.68523 -3.99515,0 c -3.52995,0 -3.99516,-0.17162 -3.99516,-1.47387 0,-1.41687 0.37182,-1.46602 9.61572,-1.27118 8.48596,0.17887 9.64439,0.35203 9.85957,1.47387 0.20852,1.08714 -0.33936,1.27118 -3.7841,1.27118 l -4.02792,0 -0.2021,9.97888 c -0.16862,8.32629 -0.3884,10.01459 -1.3271,10.1946 -0.61876,0.11865 -1.35423,-0.0135 -1.63438,-0.29365 z m 8.67553,-0.0973 c -0.18916,-0.30607 1.5397,-5.45438 3.84192,-11.44068 3.74656,-9.74189 4.37703,-10.90724 6.00742,-11.10391 1.72044,-0.20754 2.04919,0.37764 5.9215,10.54012 2.25497,5.91791 4.09994,11.1651 4.09994,11.66041 0,0.4953 -0.61826,0.90056 -1.37391,0.90056 -0.92487,0 -1.75388,-0.94964 -2.53649,-2.90557 l -1.16258,-2.90557 -4.90903,0.007 -4.90903,0.007 -1.21724,2.89818 c -1.10796,2.63799 -2.89283,3.74884 -3.7625,2.34168 z m 13.29577,-9.0682 c -0.0865,-2.09592 -3.45839,-9.57047 -3.85031,-8.53511 -1.49149,3.9401 -3.37545,9.10881 -3.37577,9.2615 -1.9e-4,0.0999 1.63402,0.1816 3.6316,0.1816 2.4413,0 3.61968,-0.29767 3.59448,-0.90799 z m 14.20213,8.60592 c -2.92464,-1.29096 -4.40144,-3.10473 -5.46961,-6.71764 -2.46821,-8.34831 2.3721,-15.50814 10.48411,-15.50814 4.43321,0 6.97097,1.23922 6.97097,3.40402 0,1.66867 -0.0616,1.68619 -2.1431,0.6098 -3.32693,-1.72043 -7.76309,-1.43758 -9.82725,0.62657 -3.04083,3.04084 -3.30517,10.08529 -0.50806,13.53958 1.74149,2.15064 7.06407,2.7424 10.17887,1.13167 2.27689,-1.17742 2.29954,-1.17176 2.29954,0.57444 0,1.32502 -0.56886,1.96188 -2.28757,2.56102 -3.02938,1.05605 -7.00986,0.96521 -9.6979,-0.22132 z m 16.67353,0.10384 c -0.20427,-0.53232 -0.2803,-5.69253 -0.16895,-11.46714 l 0.20244,-10.49928 7.08233,-0.2079 c 6.70811,-0.19692 7.08232,-0.12976 7.08232,1.27119 0,1.35637 -0.45197,1.47908 -5.44794,1.47908 l -5.44794,0 0,3.26877 0,3.26876 5.44794,0 c 4.96368,0 5.44794,0.12914 5.44794,1.45279 0,1.32365 -0.48426,1.45278 -5.44794,1.45278 l -5.44794,0 0,3.60141 0,3.6014 5.62954,0.21216 c 5.07456,0.19124 5.62954,0.35537 5.62954,1.66494 0,1.33942 -0.55362,1.46902 -7.09497,1.66083 -5.38982,0.15806 -7.18423,-0.0245 -7.46637,-0.75979 z m 23.66595,-0.31602 c -3.52976,-1.8386 -5.33597,-5.30009 -5.37178,-10.2947 -0.0352,-4.90436 1.55856,-8.29621 4.83754,-10.29552 3.0048,-1.83213 8.14311,-1.85696 11.10036,-0.0536 6.00763,3.66345 6.3069,15.67439 0.49818,19.99447 -2.6475,1.96901 -7.93508,2.27934 -11.0643,0.64938 z m 9.47426,-3.79791 c 1.84365,-1.84365 2.12331,-2.66161 2.12331,-6.21041 0,-4.33835 -1.36107,-7.90394 -3.30131,-8.64849 -2.10312,-0.80704 -5.78169,-0.47702 -7.41211,0.66497 -2.00754,1.40612 -3.33176,6.18735 -2.7187,9.81604 1.06748,6.31838 7.0517,8.635 11.30881,4.37789 z m 11.56641,4.41969 c -1.14401,-0.34016 -1.90679,-1.17125 -2.0614,-2.24598 -0.21367,-1.48545 -0.0259,-1.63995 1.45279,-1.19508 6.69478,2.01426 10.7781,1.05636 10.7781,-2.52842 0,-2.35717 -0.83987,-2.92823 -6.35298,-4.31963 -6.03592,-1.52335 -7.83157,-6.26379 -3.87239,-10.22296 1.76468,-1.76468 2.7155,-2.12163 5.62954,-2.11339 5.27644,0.015 6.775,0.59948 6.775,2.64274 0,1.51182 -0.19593,1.65195 -1.40503,1.00486 -2.09704,-1.1223 -7.71167,-0.93089 -8.73128,0.29766 -0.4791,0.57728 -0.76428,1.80247 -0.63373,2.72264 0.1942,1.36887 1.01158,1.87769 4.49604,2.7988 2.34227,0.61918 5.03901,1.82084 5.99274,2.67035 2.32644,2.07221 2.33886,5.95508 0.0277,8.64203 -1.44704,1.68228 -2.3579,2.0144 -5.99273,2.18508 -2.35749,0.11069 -5.10353,-0.0417 -6.10232,-0.3387 z m -79.90315,-26.26734 c 1.48873,-2.09073 5.0494,-3.24317 3.92754,-1.27118 -1.19956,2.10857 -2.78994,3.45036 -4.08959,3.45036 -1.33261,0 -1.32596,-0.0895 0.16205,-2.17918 z M 112.42089,274.5795 C 70.558103,267.52522 35.866407,238.16276 22.302821,198.30509 14.086873,174.16188 14.075334,148.57121 22.269412,124.21308 34.501472,87.851428 65.381367,59.151351 102.39787,49.740909 c 17.79478,-4.523842 39.63708,-4.523842 57.43186,0 53.6953,13.650572 90.858,65.954821 85.8152,120.779671 -1.05931,11.51672 -2.39954,18.02662 -5.72015,27.78451 -13.62803,40.04704 -48.4852,69.42159 -90.51673,76.27952 -11.25212,1.83591 -26.074,1.83386 -36.98716,-0.005 z m 75.79332,-42.12898 c 3.93273,-4.13415 4.7359,-9.44809 1.42802,-9.44809 -0.95856,0 -1.80094,1.32407 -3.11939,4.90314 -0.99342,2.69673 -2.05254,5.47519 -2.35362,6.17434 -0.97623,2.26697 1.15522,1.4084 4.04499,-1.62939 z m -112.099954,-4.1776 c -1.201155,-3.09852 -2.526501,-5.84861 -2.945201,-6.11128 -1.350214,-0.84705 -2.709007,0.21925 -2.709007,2.12587 0,3.4662 5.555244,11.03002 7.306213,9.94786 0.292554,-0.18081 -0.45085,-2.86391 -1.652005,-5.96245 z m 89.314384,3.30146 c 1.1717,-0.97242 1.16859,-2.37263 -0.007,-3.34863 -0.6596,-0.54743 -2.55876,-0.31119 -6.6618,0.82865 -5.86795,1.63014 -7.61115,3.00052 -4.62451,3.63548 2.47947,0.52712 10.23785,-0.23917 11.29375,-1.1155 z m -55.84746,-0.50196 c 1.30111,-0.82443 0.76367,-1.08748 -5.97124,-2.92252 -4.370813,-1.19091 -5.948566,-1.36012 -6.71913,-0.7206 -1.375387,1.14146 -1.264344,2.61499 0.264153,3.50526 1.547397,0.90127 11.054927,1.00675 12.426217,0.13786 z m 62.83434,-2.18468 c 2.8289,-1.86507 4.69706,-4.90479 5.24016,-8.52639 0.8402,-5.60287 -1.69176,-8.76338 -5.18623,-6.47371 -1.42249,0.93205 -1.76727,1.77264 -1.76727,4.30862 0,2.16283 -0.56936,3.98965 -1.81598,5.82664 -3.56052,5.24673 -1.45404,8.15031 3.52932,4.86484 z m -78.407136,0.2113 c 1.664223,-0.63862 1.412535,-2.88029 -0.666981,-5.94058 -1.177409,-1.73271 -1.81598,-3.67862 -1.81598,-5.5338 0,-5.00433 -3.872005,-7.31789 -6.228422,-3.72154 -0.897152,1.36924 -1.058157,2.66186 -0.676859,5.43424 0.551426,4.00931 2.333324,6.74479 5.751261,8.82902 2.608627,1.59073 2.197097,1.4852 3.636981,0.93266 z m 98.070476,-7.96448 c 1.56087,-1.56087 1.44146,-6.03165 -0.29291,-10.96621 -2.37067,-6.74501 -5.30642,-8.6344 -7.71186,-4.96323 -1.10739,1.69009 -1.10008,2.00324 0.10603,4.53996 0.71249,1.49856 2.05763,4.66677 2.98917,7.04046 1.38332,3.52485 2.62335,5.39233 3.63839,5.47937 0.0713,0.006 0.64338,-0.50254 1.27118,-1.13035 z M 76.093939,213.38869 c 2.791278,-6.85723 2.942564,-7.56234 1.94822,-9.0799 -2.293663,-3.50057 -5.273288,-1.48821 -7.600512,5.13316 -1.617354,4.60166 -1.864007,9.20833 -0.562713,10.50963 2.06248,2.06248 3.187627,0.87436 6.215005,-6.56289 z m 70.128571,-1.02394 c 4.03103,-2.07139 10.91113,-6.96642 14.4939,-10.31207 3.9052,-3.64673 5.67669,-8.15185 7.02923,-17.87631 1.34676,-9.68284 1.07419,-12.72252 -1.50493,-16.78234 -1.25525,-1.97592 -3.41284,-6.28976 -4.79462,-9.58633 -3.10873,-7.41657 -5.01361,-10.29686 -8.04604,-12.16605 -6.48555,-3.99769 -7.03972,-4.48398 -7.3928,-6.48716 -0.5528,-3.13619 -2.24165,-3.84025 -5.58996,-2.33037 -3.98728,1.79802 -16.02615,1.95012 -18.64292,0.23555 -3.14176,-2.05856 -5.31142,-1.6107 -6.27016,1.29428 -0.84902,2.57257 -4.44661,6.19811 -6.15032,6.19811 -2.37822,0 -6.63552,5.58041 -9.07891,11.90051 -1.364008,3.52814 -3.436637,7.85905 -4.605845,9.62424 -1.169209,1.76517 -2.405485,4.42692 -2.747274,5.91497 -1.094746,4.7662 1.338893,21.0677 3.878281,25.97833 1.484753,2.87119 7.037888,7.4802 14.399948,11.95172 l 5.98892,3.6375 13.3544,0 c 10.96555,0 13.77024,-0.21369 15.6791,-1.19458 z m 29.24588,-2.71992 c 0.49526,-1.97327 -0.67379,-5.15097 -3.03282,-8.24383 l -1.7989,-2.35846 1.94361,0.73895 c 1.06898,0.40643 2.81976,1.36283 3.89061,2.12536 4.39538,3.12978 9.48552,2.17607 9.48552,-1.77725 0,-2.01195 -3.41921,-6.21403 -7.41361,-9.11102 l -2.69207,-1.95247 4.78969,-0.44727 c 5.9075,-0.55165 8.22156,-1.91437 8.22156,-4.8416 0,-2.81007 -2.06125,-4.09701 -7.62712,-4.76193 -6.97995,-0.83387 -7.66833,-1.31072 -4.00696,-2.77571 4.39743,-1.7595 9.26988,-5.26291 9.84658,-7.07992 0.35353,-1.11389 -0.0362,-2.06418 -1.41004,-3.43801 l -1.89862,-1.89862 -5.98703,1.54682 c -3.29286,0.85076 -6.04093,1.49965 -6.10681,1.44199 -0.0659,-0.0577 1.35281,-2.05207 3.15265,-4.43203 1.79985,-2.37996 4.21641,-6.19718 5.37014,-8.48272 1.15374,-2.28554 2.70998,-4.5877 3.45831,-5.11591 1.91532,-1.35192 3.57825,-4.85521 4.835,-10.18586 2.98618,-12.66626 -0.74688,-27.41598 -9.64348,-38.10251 -3.30448,-3.969303 -15.40635,-13.375211 -15.40635,-11.974233 0,0.299935 1.1909,3.469032 2.64644,7.042424 1.45554,3.5734 3.07844,8.458349 3.60644,10.855449 1.1152,5.0629 1.3009,10.53268 0.35759,10.53268 -0.3594,0 -2.40237,-1.31338 -4.53995,-2.91862 -4.49057,-3.37227 -9.67636,-9.22284 -12.60622,-14.222286 -1.98924,-3.394373 -2.05641,-3.436511 -2.71776,-1.70485 -1.31861,3.452596 -0.22707,11.592636 2.1862,16.303386 2.30537,4.50013 8.50046,11.10764 13.60964,14.51567 l 2.90557,1.93813 0,7.17104 c 0,4.76746 0.30433,7.4759 0.90799,8.0806 1.51359,1.51623 1.04512,2.31431 -3.10284,5.28598 -2.18871,1.56804 -3.97949,2.94981 -3.97949,3.07058 0,1.154 3.98795,10.36755 4.97645,11.49732 2.22793,2.54634 3.06612,5.48693 3.08447,10.82095 0.039,11.349 -2.74818,21.83261 -7.07897,26.62628 l -2.47452,2.739 2.74386,1.65857 c 1.50913,0.91221 3.64622,2.39714 4.7491,3.29984 1.708,1.398 2.32777,1.52885 4.18114,0.88276 1.25798,-0.43854 2.34426,-1.42934 2.575,-2.34867 z m -80.059456,-0.62546 c 1.743326,-1.29842 3.789138,-2.74253 4.546234,-3.20913 1.330122,-0.81976 1.321802,-0.88825 -0.246835,-2.03107 -4.848349,-3.53222 -8.391363,-15.76768 -8.260213,-28.52583 0.05579,-5.42852 0.652315,-7.37987 3.069617,-10.04163 0.746891,-0.82242 2.15087,-3.82648 3.119942,-6.67568 l 1.761959,-5.18037 -3.937111,-2.97255 c -2.165405,-1.6349 -3.937104,-3.08548 -3.937104,-3.2235 0,-0.13803 0.529736,-1.51666 1.177191,-3.06364 0.907453,-2.1682 1.071952,-4.07918 0.717908,-8.34008 l -0.459269,-5.5274 3.095644,-2.04486 c 5.419813,-3.58012 11.510513,-9.95489 13.755613,-14.3972 2.38372,-4.71657 3.40946,-12.11541 2.27569,-16.414854 l -0.6612,-2.507368 -2.63853,4.686544 c -3.18072,5.649578 -14.307866,16.672008 -16.830386,16.672008 -0.743826,0 -0.424054,-5.97863 0.563346,-10.53269 0.519726,-2.39709 2.142632,-7.340763 3.606443,-10.985937 1.463811,-3.645182 2.661472,-6.842187 2.661472,-7.104465 0,-1.118172 -10.938791,7.028789 -13.98175,10.41329 -5.149794,5.727812 -7.453075,9.653802 -9.718627,16.565642 -1.762591,5.37737 -2.086075,7.54991 -2.083497,13.99283 0.0036,9.22542 1.508673,14.83375 5.027376,18.73463 1.336496,1.48167 3.624094,4.86856 5.083539,7.52643 1.459446,2.65786 3.976301,6.33522 5.593017,8.17191 1.616717,1.83668 2.829988,3.33693 2.696158,3.33388 -0.133838,-0.003 -2.368032,-0.65431 -4.964884,-1.44724 -2.596852,-0.79293 -5.468521,-1.44418 -6.381487,-1.44723 -2.224561,-0.007 -5.240789,2.04574 -5.240789,3.56746 0,1.90955 4.270983,5.56442 9.235249,7.90298 l 4.5137,2.12632 -6.448743,0.88126 c -7.193949,0.9831 -9.020085,2.16954 -8.625843,5.60421 0.323855,2.82141 3.010046,3.94707 9.487024,3.97557 5.234637,0.023 5.259429,0.0323 3.097693,1.15772 -6.634736,3.45413 -10.739462,8.83587 -9.243472,12.11922 1.386319,3.04264 3.81353,3.07854 9.078363,0.13428 2.564695,-1.43426 4.905879,-2.60774 5.202632,-2.60774 0.29676,0 -0.297981,0.99536 -1.321642,2.21191 -1.023661,1.21655 -2.248256,3.50379 -2.721327,5.08276 -0.750908,2.50632 -0.692956,3.05556 0.456429,4.32561 1.878813,2.07608 4.241273,1.80446 7.88047,-0.906 z M 196.80267,181.62338 c 4.20657,-2.14602 8.03994,-6.05823 8.03994,-8.20528 0,-2.73909 -1.89245,-2.97717 -5.32017,-0.66931 -1.66834,1.12327 -4.586,2.93391 -6.4837,4.02363 -2.53576,1.45612 -3.45036,2.42248 -3.45036,3.64561 0,0.91537 0.21791,1.88222 0.48426,2.14856 0.9092,0.90919 3.92845,0.48605 6.73003,-0.94321 z m -124.53955,-0.9333 c 1.088412,-1.53477 1.057722,-1.71507 -0.503605,-2.95807 -4.014204,-3.1958 -12.308843,-7.8681 -13.29575,-7.48939 -1.23548,0.4741 -1.413872,2.83451 -0.362669,4.7987 1.042048,1.94708 9.32911,7.28314 11.310949,7.28314 0.930609,0 2.213593,-0.73547 2.851075,-1.63438 z M 207.3438,169.08777 c 1.26746,-1.80956 1.61212,-11.07742 0.43891,-11.8025 -0.38052,-0.23518 -1.17506,1.13476 -1.76564,3.0443 -0.59059,1.90953 -1.48509,4.50803 -1.98779,5.77443 -0.7424,1.87027 -0.73516,2.51803 0.0386,3.45036 1.27914,1.54127 1.93497,1.44787 3.27591,-0.46659 z M 58.320426,168.45439 c 0.89207,-1.41423 -3.007584,-12.67764 -4.033941,-11.65129 -0.387295,0.3873 -0.575623,2.97918 -0.418507,5.75975 0.366375,6.48394 2.389854,9.16143 4.452448,5.89154 z m 133.920844,-4.10814 c 2.67884,-2.88142 5.36149,-8.51739 5.54355,-11.64639 0.13263,-2.27957 -0.0893,-2.73465 -1.42648,-2.92516 -1.25206,-0.17838 -2.50647,1.0318 -5.99273,5.7815 -2.42506,3.30391 -4.4092,6.35624 -4.4092,6.78296 0,1.34977 2.21733,4.00467 3.34464,4.00467 0.5957,0 1.9188,-0.89891 2.94022,-1.99758 z M 75.677738,163.07336 c 0.741109,-1.62656 0.460699,-2.35068 -2.666782,-6.88664 -4.188674,-6.07507 -5.647264,-7.48598 -7.391668,-7.15004 -1.88941,0.36387 -1.963304,2.0128 -0.290432,6.48089 2.981907,7.96441 8.370233,11.89846 10.348882,7.55579 z M 199.77585,147.04715 c 0.38962,-1.0248 0.70841,-3.29166 0.70841,-5.03746 0,-3.24907 -1.17678,-7.41887 -1.8919,-6.70375 -0.83496,0.83496 -3.13973,11.12147 -2.76336,12.33329 0.6025,1.93992 3.12824,1.56103 3.94685,-0.59208 z m -133.705787,0.0854 c 0.684568,-0.82486 0.609951,-2.13231 -0.346204,-6.06629 -2.058411,-8.46907 -3.365265,-8.94329 -3.82905,-1.38947 -0.420158,6.84326 1.636144,10.5152 4.175254,7.45576 z"
       id="path4424"
       inkscape:connector-curvature="0" />
    <path
       style="fill:#a3a3a3"
       d="m 34.792651,324.50127 c -6.182389,-4.13011 -6.759432,-14.15101 -1.114614,-19.35629 3.842289,-3.54311 14.263851,-2.71301 14.263851,1.13614 0,1.70019 -0.05683,1.71712 -2.143104,0.63827 -3.289671,-1.70116 -7.578098,-1.42416 -9.983459,0.64484 -1.880838,1.61783 -2.038086,2.1551 -2.038086,6.96362 0,4.80852 0.157248,5.34579 2.038086,6.96362 2.379627,2.04687 6.30203,2.31938 9.485624,0.65903 2.691508,-1.40372 2.784902,-1.38396 2.509862,0.53108 -0.518928,3.61319 -8.635205,4.74769 -13.01816,1.81969 z m 18.016963,1.1897 c -0.280155,-0.28015 -0.509372,-5.52147 -0.509372,-11.64738 l 0,-11.13802 4.381684,0 c 6.01814,0 9.176593,1.41866 9.993415,4.48866 0.722368,2.715 -0.187401,6.3046 -1.749828,6.90417 -0.796802,0.30576 -0.725539,0.76221 0.359548,2.30297 1.74787,2.48189 4.448594,7.82034 4.448594,8.79343 0,0.41543 -0.635721,0.75533 -1.412715,0.75533 -0.992579,0 -2.126717,-1.35017 -3.813559,-4.53995 -2.309703,-4.36761 -2.516685,-4.54837 -5.45231,-4.76158 l -3.051468,-0.22161 -0.217298,4.57267 c -0.163216,3.43461 -0.497296,4.62594 -1.342309,4.78669 -0.618755,0.11769 -1.354227,-0.0153 -1.634382,-0.29538 z m 9.932516,-13.325 c 1.110662,-1.10915 0.685063,-4.58938 -0.683629,-5.59018 -0.725573,-0.53056 -2.400815,-0.96465 -3.722761,-0.96465 l -2.403537,0 0,4.088 0,4.088 3.087167,-0.49322 c 1.697942,-0.27127 3.373184,-0.77885 3.72276,-1.12795 z m 13.35892,11.66637 -2.372237,-2.11779 -0.239325,-9.50449 -0.239324,-9.50449 1.873707,0 1.873707,0 0,8.55508 c 0,10.19131 0.677557,11.78391 5.013356,11.78391 4.481092,0 5.075651,-1.26325 5.31337,-11.28936 0.200957,-8.47546 0.247082,-8.69225 1.899225,-8.92626 l 1.693264,-0.23984 -0.240479,9.56273 -0.24048,9.56272 -2.372237,2.11779 c -1.945678,1.73698 -3.021181,2.11779 -5.981273,2.11779 -2.960092,0 -4.035596,-0.38081 -5.981274,-2.11779 z m 21.235511,1.50861 c -1.144003,-0.34016 -1.906787,-1.17125 -2.061393,-2.24598 -0.213675,-1.48545 -0.02586,-1.63995 1.452785,-1.19508 3.592947,1.08101 7.711027,1.28221 9.261377,0.4525 1.23014,-0.65835 1.54961,-1.39346 1.37755,-3.16965 -0.19864,-2.05051 -0.59438,-2.42204 -3.49279,-3.27919 -5.858098,-1.73242 -7.063357,-2.37371 -7.896086,-4.20135 -1.303504,-2.86088 -0.974652,-4.596 1.302683,-6.87332 1.764675,-1.76468 2.715501,-2.12163 5.629543,-2.11339 5.27644,0.015 6.775,0.59948 6.775,2.64274 0,1.51182 -0.19594,1.65195 -1.40503,1.00486 -2.09705,-1.1223 -7.71167,-0.93089 -8.731281,0.29766 -0.479099,0.57728 -0.764281,1.79933 -0.633734,2.71567 0.196649,1.38034 1.047088,1.88268 4.958905,2.9291 5.47268,1.46398 7.26392,3.20516 7.26392,7.06093 0,4.04787 -2.5088,6.07638 -7.81866,6.32184 -2.29174,0.10595 -4.984,-0.0503 -5.982789,-0.34734 z m 23.753929,0.15002 c -0.28016,-0.28015 -0.50938,-4.86772 -0.50938,-10.1946 l 0,-9.68523 -3.99515,0 c -3.52995,0 -3.99516,-0.17162 -3.99516,-1.47387 0,-1.41687 0.37182,-1.46602 9.61572,-1.27118 8.48596,0.17887 9.64439,0.35203 9.85957,1.47387 0.20852,1.08714 -0.33936,1.27118 -3.7841,1.27118 l -4.02792,0 -0.2021,9.97888 c -0.16862,8.32629 -0.3884,10.01459 -1.3271,10.1946 -0.61876,0.11865 -1.35423,-0.0135 -1.63438,-0.29365 z m 8.67553,-0.0973 c -0.18916,-0.30607 1.5397,-5.45438 3.84192,-11.44068 3.74656,-9.74189 4.37703,-10.90724 6.00742,-11.10391 1.72044,-0.20754 2.04919,0.37764 5.9215,10.54012 2.25497,5.91791 4.09994,11.1651 4.09994,11.66041 0,0.4953 -0.61826,0.90056 -1.37391,0.90056 -0.92487,0 -1.75388,-0.94964 -2.53649,-2.90557 l -1.16258,-2.90557 -4.90903,0.007 -4.90903,0.007 -1.21724,2.89818 c -1.10796,2.63799 -2.89283,3.74884 -3.7625,2.34168 z m 13.29577,-9.0682 c -0.0865,-2.09592 -3.45839,-9.57047 -3.85031,-8.53511 -1.49149,3.9401 -3.37545,9.10881 -3.37577,9.2615 -1.9e-4,0.0999 1.63402,0.1816 3.6316,0.1816 2.4413,0 3.61968,-0.29767 3.59448,-0.90799 z m 14.20213,8.60592 c -2.92464,-1.29096 -4.40144,-3.10473 -5.46961,-6.71764 -2.46821,-8.34831 2.3721,-15.50814 10.48411,-15.50814 4.43321,0 6.97097,1.23922 6.97097,3.40402 0,1.66867 -0.0616,1.68619 -2.1431,0.6098 -3.32693,-1.72043 -7.76309,-1.43758 -9.82725,0.62657 -3.04083,3.04084 -3.30517,10.08529 -0.50806,13.53958 1.74149,2.15064 7.06407,2.7424 10.17887,1.13167 2.27689,-1.17742 2.29954,-1.17176 2.29954,0.57444 0,1.32502 -0.56886,1.96188 -2.28757,2.56102 -3.02938,1.05605 -7.00986,0.96521 -9.6979,-0.22132 z m 16.67353,0.10384 c -0.20427,-0.53232 -0.2803,-5.69253 -0.16895,-11.46714 l 0.20244,-10.49928 7.08233,-0.2079 c 6.70811,-0.19692 7.08232,-0.12976 7.08232,1.27119 0,1.35637 -0.45197,1.47908 -5.44794,1.47908 l -5.44794,0 0,3.26877 0,3.26876 5.44794,0 c 4.96368,0 5.44794,0.12914 5.44794,1.45279 0,1.32365 -0.48426,1.45278 -5.44794,1.45278 l -5.44794,0 0,3.60141 0,3.6014 5.62954,0.21216 c 5.07456,0.19124 5.62954,0.35537 5.62954,1.66494 0,1.33942 -0.55362,1.46902 -7.09497,1.66083 -5.38982,0.15806 -7.18423,-0.0245 -7.46637,-0.75979 z m 23.66595,-0.31602 c -3.52976,-1.8386 -5.33597,-5.30009 -5.37178,-10.2947 -0.0352,-4.90436 1.55856,-8.29621 4.83754,-10.29552 3.0048,-1.83213 8.14311,-1.85696 11.10036,-0.0536 6.00763,3.66345 6.3069,15.67439 0.49818,19.99447 -2.6475,1.96901 -7.93508,2.27934 -11.0643,0.64938 z m 9.47426,-3.79791 c 1.84365,-1.84365 2.12331,-2.66161 2.12331,-6.21041 0,-4.33835 -1.36107,-7.90394 -3.30131,-8.64849 -2.10312,-0.80704 -5.78169,-0.47702 -7.41211,0.66497 -2.00754,1.40612 -3.33176,6.18735 -2.7187,9.81604 1.06748,6.31838 7.0517,8.635 11.30881,4.37789 z m 11.56641,4.41969 c -1.14401,-0.34016 -1.90679,-1.17125 -2.0614,-2.24598 -0.21367,-1.48545 -0.0259,-1.63995 1.45279,-1.19508 6.69478,2.01426 10.7781,1.05636 10.7781,-2.52842 0,-2.35717 -0.83987,-2.92823 -6.35298,-4.31963 -6.03592,-1.52335 -7.83157,-6.26379 -3.87239,-10.22296 1.76468,-1.76468 2.7155,-2.12163 5.62954,-2.11339 5.27644,0.015 6.775,0.59948 6.775,2.64274 0,1.51182 -0.19593,1.65195 -1.40503,1.00486 -2.09704,-1.1223 -7.71167,-0.93089 -8.73128,0.29766 -0.4791,0.57728 -0.76428,1.80247 -0.63373,2.72264 0.1942,1.36887 1.01158,1.87769 4.49604,2.7988 2.34227,0.61918 5.03901,1.82084 5.99274,2.67035 2.32644,2.07221 2.33886,5.95508 0.0277,8.64203 -1.44704,1.68228 -2.3579,2.0144 -5.99273,2.18508 -2.35749,0.11069 -5.10353,-0.0417 -6.10232,-0.3387 z m -79.90315,-26.26734 c 1.48873,-2.09073 5.0494,-3.24317 3.92754,-1.27118 -1.19956,2.10857 -2.78994,3.45036 -4.08959,3.45036 -1.33261,0 -1.32596,-0.0895 0.16205,-2.17918 z M 118.40194,275.19508 C 93.261093,272.58526 69.241045,261.09837 50.587351,242.76473 32.924437,225.40486 21.85798,203.98203 17.676972,179.05569 c -1.458544,-8.69554 -1.447501,-27.01665 0.02168,-35.96505 8.16852,-49.752437 47.057473,-88.083389 96.884948,-95.49479 61.72006,-9.180319 119.76261,33.474234 129.94535,95.49479 1.46918,8.9484 1.48022,27.26951 0.0216,35.96505 -4.08655,24.36321 -14.56719,45.06907 -31.56799,62.36665 -24.92748,25.36263 -58.86351,37.48046 -94.5807,33.77274 z m 69.37813,-41.84156 c 2.49948,-2.4696 4.87862,-7.62377 4.26146,-9.23206 -0.29087,-0.75801 -1.10605,-1.11654 -2.22073,-0.97673 -1.44724,0.18151 -2.06192,1.06251 -3.44843,4.94244 -0.928,2.59685 -1.9265,5.29359 -2.21891,5.99274 -0.83486,1.99615 1.30487,1.56758 3.62661,-0.72639 z m -109.693565,0 c -0.28561,-0.69916 -1.172702,-3.23245 -1.971319,-5.62954 -0.798618,-2.3971 -2.072674,-4.90254 -2.831245,-5.56766 -0.758564,-0.66512 -1.036773,-1.32345 -0.61824,-1.46296 0.736134,-0.24538 5.525129,-11.01659 6.269768,-14.10171 0.496322,-2.05628 -1.638029,-4.06303 -4.026792,-3.78605 -2.600348,0.30152 -5.242955,5.88396 -5.744786,12.13572 -0.314122,3.9133 -0.16587,4.80507 0.932302,5.60807 1.061435,0.77614 1.137423,1.15775 0.406029,2.03902 -1.279179,1.54132 0.08288,5.26113 3.304649,9.02504 2.645433,3.0906 5.266721,4.15639 4.279634,1.74007 z m 85.283005,-0.81532 c 2.55666,-0.7154 3.60051,-2.68336 2.1779,-4.10597 -1.02905,-1.02904 -1.67198,-0.98954 -6.88841,0.42333 -3.16439,0.85706 -6.054,1.84202 -6.42136,2.18879 -1.65077,1.55825 6.83303,2.69674 11.13187,1.49385 z m -53.39218,-1.55548 c 0.73325,-0.72377 -0.72428,-1.39107 -7.02993,-3.21849 -4.633958,-1.34295 -7.063624,-0.99577 -7.063624,1.00934 0,1.70878 1.28979,2.73195 3.995158,3.1693 2.877296,0.46514 9.270236,-0.14269 10.098396,-0.96015 z m 62.76466,-2.18688 c 4.37664,-2.66837 6.81657,-11.54649 4.02194,-14.63452 -2.69216,-2.9748 -6.05426,-0.76668 -6.07497,3.98984 -0.009,2.14858 -0.64061,3.96111 -2.16085,6.20446 -1.68825,2.49131 -1.9907,3.46238 -1.41401,4.53995 0.94288,1.76179 2.62349,1.73201 5.62789,-0.0997 z m -77.558536,-0.75738 c 0.637547,-1.19127 0.530266,-1.88648 -0.51924,-3.36485 -2.60307,-3.66675 -3.117523,-4.98271 -3.128084,-8.00156 -0.01085,-3.10044 -1.264351,-4.56551 -3.906225,-4.56551 -5.647286,0 -3.699996,12.7877 2.449503,16.08571 3.213015,1.72316 4.114061,1.69601 5.104046,-0.15379 z m 97.165216,-6.6341 c 1.38847,-1.38847 0.94291,-7.82588 -0.86979,-12.56658 -1.28748,-3.36709 -2.1223,-4.52024 -3.67051,-5.07011 -1.71518,-0.60918 -2.20938,-0.45815 -3.4289,1.0479 -0.78369,0.96781 -1.26171,2.26873 -1.06227,2.89093 0.65678,2.04899 5.16926,12.73451 5.76925,13.66154 0.74277,1.14764 2.13539,1.16315 3.26222,0.0363 z m -45.94033,-8.98718 c 6.44564,-3.26121 16.11253,-10.89002 17.67147,-13.94581 2.29851,-4.50544 3.72044,-11.20655 4.15539,-19.58302 0.36768,-7.08107 0.26121,-8.06408 -1.12266,-10.36534 -0.84088,-1.39831 -2.53445,-4.66707 -3.76351,-7.26393 -1.22905,-2.59685 -3.21765,-6.79388 -4.4191,-9.32673 -1.74025,-3.66871 -2.87032,-5.02432 -5.5572,-6.66633 -5.55625,-3.39555 -7.15417,-4.91171 -7.61735,-7.22758 -0.36486,-1.82429 -0.79062,-2.20309 -2.47632,-2.20309 -1.11965,0 -2.75323,0.50257 -3.63019,1.11682 -2.27213,1.59146 -15.5152,1.59791 -17.78417,0.009 -2.65296,-1.8582 -5.55886,-1.46135 -6.38588,0.87211 -1.21536,3.42917 -1.82463,4.12366 -5.28435,6.02338 -5.29133,2.90546 -6.74599,4.72169 -10.07992,12.58528 -1.716193,4.04792 -4.105675,8.77665 -5.309946,10.50826 -2.094915,3.01228 -2.184523,3.452 -2.072302,10.1695 0.117406,7.02823 1.478927,14.64229 3.593513,20.09615 1.446385,3.73046 8.631655,9.63048 17.876685,14.67905 2.3715,1.29505 8.93323,1.94794 22.71201,2.25985 4.94824,0.11201 6.34346,-0.14329 9.49383,-1.73723 z m 28.46653,-1.18437 c 1.93381,-1.60492 0.5013,-6.73295 -2.98647,-10.69081 -1.3464,-1.52786 -0.91529,-1.40889 3.29015,0.90799 5.33827,2.94097 7.45511,3.26895 9.44948,1.46406 2.87468,-2.60155 0.49448,-7.66833 -5.49217,-11.69129 l -3.51312,-2.36077 3.44818,0 c 4.4395,0 8.96671,-1.36526 9.82111,-2.96171 0.87542,-1.63575 -0.47795,-5.57112 -2.08834,-6.07252 -1.1876,-0.36976 -10.67875,-1.81843 -12.10636,-1.84784 -0.39951,-0.008 1.23487,-0.94484 3.63197,-2.08135 8.81993,-4.18173 11.39317,-8.37653 6.73513,-10.97939 -1.80597,-1.00917 -2.49306,-0.97587 -7.75401,0.37575 l -5.77245,1.48304 2.75505,-3.30424 c 1.51527,-1.81732 3.65692,-5.10206 4.75922,-7.29939 1.1023,-2.19734 3.24823,-5.35334 4.76874,-7.01334 3.54274,-3.86774 5.13146,-8.92389 5.57593,-17.74555 0.82123,-16.29922 -6.47754,-30.42054 -20.67487,-40.000792 -2.97106,-2.00485 -5.50308,-3.535569 -5.62672,-3.401593 -0.12365,0.133975 1.19178,3.693225 2.92317,7.909431 2.98999,7.281124 5.66604,19.560044 4.51397,20.712114 -1.53791,1.53791 -13.52323,-10.01608 -17.26195,-16.640729 -1.29631,-2.296925 -2.49393,-4.039228 -2.66138,-3.871773 -0.16746,0.167448 -0.5713,1.992487 -0.89744,4.055642 -0.72696,4.59869 0.20125,10.12003 2.44601,14.54984 1.9827,3.91267 9.7415,11.99681 13.98388,14.57023 l 2.99371,1.81598 -0.39686,5.81114 c -0.29597,4.33381 -0.11103,6.49215 0.7275,8.48994 l 1.12436,2.67879 -3.97302,3.06516 c -2.18517,1.68584 -3.84199,3.42227 -3.68182,3.85874 0.16016,0.43646 0.85946,2.5219 1.55399,4.63429 0.69453,2.11239 2.37653,5.49572 3.73777,7.51852 2.28769,3.3995 2.47497,4.10479 2.47497,9.32079 0,7.00967 -1.67675,16.88939 -3.64615,21.48381 -0.81941,1.91161 -2.63166,4.55253 -4.02722,5.86872 l -2.53738,2.39306 2.3814,1.21964 c 1.30977,0.6708 3.48399,2.18028 4.83158,3.3544 2.49778,2.17622 4.88731,2.31685 7.17046,0.42201 z m -78.213564,-2.93236 4.772684,-3.20662 -2.72356,-2.69104 c -4.287029,-4.23585 -7.167501,-14.85591 -7.179523,-26.47034 -0.0058,-5.31937 0.74522,-7.69011 3.72645,-11.7678 0.730221,-0.99879 2.000528,-3.77724 2.822906,-6.17433 l 1.495235,-4.35836 -1.67801,-1.45278 c -0.922896,-0.79903 -2.742487,-2.28479 -4.043535,-3.30168 l -2.365533,-1.84889 1.205012,-2.4155 c 0.944201,-1.8927 1.123736,-3.71829 0.829489,-8.43468 l -0.375523,-6.01918 3.599252,-2.33223 c 4.80249,-3.11191 11.17139,-9.73915 13.28717,-13.82614 2.27236,-4.38947 3.21485,-9.91413 2.48209,-14.54952 -0.32614,-2.063157 -0.7345,-3.892707 -0.90747,-4.065675 -0.17297,-0.172969 -1.39645,1.57659 -2.71886,3.887905 -2.63036,4.59739 -11.259186,13.63781 -15.003382,15.71906 l -2.360775,1.31225 0,-2.53596 c 0,-4.43748 1.992624,-12.22015 5.037356,-19.674577 1.624125,-3.976359 2.952958,-7.320894 2.952958,-7.432294 0,-0.111406 -2.392961,1.404988 -5.317685,3.36977 -14.755009,9.912175 -22.265336,24.305571 -21.368309,40.951931 0.453239,8.41082 2.000288,13.33359 5.284656,16.81604 1.416544,1.50198 3.412525,4.40928 4.435518,6.46069 1.022985,2.0514 3.2906,5.57292 5.039135,7.8256 l 3.17915,4.09579 -4.407661,-1.37182 c -2.42421,-0.75449 -5.415138,-1.37181 -6.64651,-1.37181 -2.600644,0 -4.89563,1.78902 -4.89563,3.8163 0,2.05431 4.074341,5.55302 9.076605,7.79423 l 4.355049,1.95124 -6.386731,0.82444 c -7.293473,0.94149 -7.609177,1.0734 -8.561012,3.5769 -1.482561,3.89944 0.798668,5.72735 8.100101,6.49051 l 4.252685,0.44449 -2.801128,2.02913 c -5.955864,4.3144 -8.090935,9.25514 -5.149714,11.91691 1.757201,1.59024 4.608058,1.16128 8.533845,-1.28406 1.509719,-0.9404 3.391009,-1.94923 4.180641,-2.24187 1.372054,-0.50846 1.367775,-0.45781 -0.09662,1.14266 -2.164802,2.36596 -3.881441,5.99753 -3.881441,8.21123 0,1.44 0.557644,2.1216 2.353576,2.87673 1.294475,0.54428 2.520262,0.88394 2.723971,0.75479 0.203717,-0.12914 2.518104,-1.6778 5.143082,-3.44144 z M 197.07729,181.82814 c 4.00873,-2.04005 7.76532,-6.06871 7.76532,-8.32771 0,-3.31033 -1.70854,-3.22688 -7.43471,0.36311 -9.6096,6.02469 -9.5732,5.98085 -7.05598,8.49807 1.57169,1.57169 2.77651,1.47612 6.72537,-0.53347 z M 72.611062,180.92429 c 1.116356,-2.08592 0.404688,-3.10744 -3.794586,-5.44669 -2.092404,-1.1656 -4.851197,-2.9073 -6.130652,-3.87044 -2.848796,-2.14452 -4.860858,-1.91272 -5.153795,0.59372 -0.291713,2.49597 2.092919,5.35372 6.646827,7.96558 4.3686,2.50557 7.353286,2.77382 8.432206,0.75783 z M 208.29062,166.70702 c 0.92866,-3.72431 0.37936,-9.57618 -0.873,-9.30048 -0.3563,0.0784 -1.18584,1.88152 -1.84343,4.00686 -0.65759,2.12533 -1.55381,4.50428 -1.99159,5.28656 -1.10227,1.96964 0.15346,4.1585 2.21715,3.8647 1.23602,-0.17596 1.78474,-1.02576 2.49087,-3.85764 z m -149.86937,2.12873 c 0.920716,-0.92071 0.976364,-1.44474 0.28926,-2.72397 -0.467925,-0.87116 -1.378808,-3.35872 -2.024184,-5.52791 -1.465175,-4.92462 -2.599252,-5.40599 -3.156582,-1.33983 -0.655289,4.78086 1.100248,10.73175 3.165909,10.73175 0.32206,0 1.098579,-0.51301 1.725597,-1.14004 z m 134.08714,-4.68657 c 2.78624,-2.98267 5.26702,-8.3121 5.35826,-11.51105 C 197.93471,150.25061 197.7593,150 196.01983,150 c -1.56699,0 -2.67405,1.04812 -5.99274,5.67368 -4.28009,5.96556 -4.80025,7.65763 -2.9292,9.52867 1.68285,1.68287 3.1151,1.40408 5.4105,-1.05317 z m -117.565587,0.26608 c 0.730613,-0.66119 1.328383,-1.81575 1.328383,-2.56569 0,-1.63239 -7.551287,-12.61525 -9.075879,-13.20029 -0.606785,-0.23285 -0.883606,-0.89371 -0.640131,-1.52819 0.486507,-1.26782 -1.741596,-11.26883 -2.755714,-12.36925 -1.178068,-1.27831 -2.033387,1.24558 -2.044998,6.03441 -0.01222,5.04164 0.84837,7.39777 2.702085,7.39777 0.940574,0 1.015605,0.19371 0.337639,0.87167 -1.358327,1.35833 -1.044924,3.48453 1.209902,8.20824 2.183296,4.57386 5.226041,8.35351 6.724851,8.35351 0.48701,0 1.483249,-0.54098 2.213862,-1.20218 z M 199.8089,147.36228 c 0.48115,-0.89904 0.71125,-3.62366 0.5488,-6.49853 -0.45231,-8.00489 -1.79454,-7.68066 -3.90813,0.94406 -0.66338,2.70696 -1.01784,5.41243 -0.7877,6.01217 0.6174,1.60891 3.19315,1.32463 4.14703,-0.4577 z"
       id="path4422"
       inkscape:connector-curvature="0" />
    <path
       style="fill:#1bb5f0"
       d="m 35.59322,324.87781 c -3.778709,-1.88768 -6.02453,-6.65677 -5.537923,-11.76001 0.433854,-4.55 2.050177,-7.13513 5.589559,-8.93991 4.749189,-2.42167 11.687687,-1.13877 12.173101,2.25076 0.226026,1.57828 0.145632,1.6122 -1.452785,0.61303 -4.395228,-2.74746 -9.98855,-1.94693 -11.874174,1.69946 -0.592325,1.14543 -1.076955,3.9218 -1.076955,6.16971 0,3.5488 0.279654,4.36676 2.123301,6.21041 2.462592,2.46259 6.65941,2.87774 10.26144,1.01506 2.040998,-1.05544 2.143104,-1.03638 2.143104,0.40026 0,3.19355 -7.714619,4.6562 -12.348668,2.34123 z m 42.285159,0.17793 c -3.635099,-1.57938 -4.602283,-4.68925 -4.355389,-14.00429 0.171937,-6.48706 0.400147,-7.80266 1.386203,-7.99144 1.023065,-0.19587 1.221813,0.93602 1.491232,8.49272 0.359681,10.08814 1.134117,11.69978 5.612884,11.68071 1.436259,-0.006 2.999535,-0.25793 3.473935,-0.55958 1.690438,-1.07488 2.406217,-4.71644 2.406217,-12.24171 0,-6.87803 0.125746,-7.60904 1.271187,-7.38982 1.090932,0.20878 1.303155,1.27209 1.496629,7.49878 0.123996,3.99053 -0.138966,8.49693 -0.58436,10.01421 -1.42378,4.8503 -6.815216,6.83936 -12.198538,4.50042 z m 19.63978,0.28171 c -1.687547,-0.48726 -2.360775,-1.11218 -2.360775,-2.19138 0,-1.16001 0.294458,-1.3842 1.271186,-0.96783 0.699153,0.29804 3.118954,0.69688 5.37734,0.8863 3.78141,0.31718 4.20199,0.19815 5.31797,-1.50505 1.83324,-2.79788 0.48869,-4.57592 -4.53838,-6.00156 -5.198186,-1.47418 -6.992281,-3.12291 -6.992281,-6.42575 0,-4.7265 4.026371,-6.92063 10.828091,-5.90065 2.58952,0.38832 3.26392,0.78329 3.26392,1.91157 0,1.2013 -0.31016,1.33618 -1.99758,0.86867 -5.07593,-1.40634 -8.898305,-0.0435 -8.898305,3.17265 0,1.87698 1.140073,2.57783 6.316985,3.88335 6.97158,1.75811 8.24774,9.44437 2.00139,12.05427 -2.76183,1.15396 -6.08085,1.22852 -9.589561,0.21541 z m 59.745761,-0.5569 c -3.8792,-1.78591 -5.69112,-5.03817 -5.68632,-10.20653 0.007,-6.96982 3.07849,-10.78563 9.24263,-11.48042 4.62091,-0.52084 8.42916,0.90404 8.42916,3.15382 0,1.74234 -0.0359,1.75286 -1.87325,0.549 -1.06941,-0.70071 -3.30011,-1.2274 -5.19842,-1.2274 -2.84548,0 -3.63442,0.34611 -5.46898,2.39934 -2.00008,2.23847 -2.12366,2.71584 -1.84325,7.11966 0.25807,4.05293 0.58297,4.96322 2.298,6.43842 2.36401,2.03344 6.67821,2.29806 9.9428,0.60988 2.04099,-1.05544 2.1431,-1.03638 2.1431,0.40026 0,1.03474 -0.79113,1.83906 -2.51904,2.56103 -3.33442,1.3932 -5.94118,1.3059 -9.46643,-0.31706 z m 42.11598,0.78801 c -4.57573,-1.58397 -6.87503,-5.27676 -6.88148,-11.05204 -0.008,-7.63372 4.22847,-11.98359 11.09671,-11.39232 2.35952,0.20312 4.0791,0.85689 5.35996,2.0378 5.3568,4.9388 5.07238,14.8793 -0.54341,18.99211 -2.04297,1.49621 -6.69223,2.22432 -9.03178,1.41445 z m 6.90001,-3.04211 c 2.06319,-1.10418 3.91864,-6.68846 3.30649,-9.95147 -0.71703,-3.82214 -1.54222,-5.12068 -4.09194,-6.43919 -5.85141,-3.02588 -11.25503,3.07013 -9.76445,11.01559 0.94217,5.02221 6.20196,7.70202 10.5499,5.37507 z m 12.54575,2.811 c -1.68754,-0.48726 -2.36077,-1.11218 -2.36077,-2.19138 0,-1.16001 0.29446,-1.3842 1.27119,-0.96783 0.69915,0.29804 3.08221,0.69422 5.29568,0.8804 4.61986,0.38858 6.0364,-0.6005 5.65269,-3.94691 -0.20681,-1.80363 -0.76085,-2.21159 -4.75505,-3.50124 -5.50364,-1.77703 -7.02868,-3.1839 -7.02868,-6.48408 0,-4.72038 4.02996,-6.91432 10.82809,-5.89488 2.57697,0.38644 3.26392,0.78585 3.26392,1.89773 0,1.64071 -0.0883,1.6563 -3.54768,0.62595 -3.08463,-0.91873 -6.13085,-0.0395 -7.27589,2.09999 -1.13353,2.11803 0.45764,3.65629 5.01653,4.8497 6.09566,1.59571 8.75243,5.66705 6.47497,9.92252 -1.59889,2.98755 -7.53386,4.24068 -12.835,2.71003 z m -166.36274,-10.9912 0.200518,-11.07748 5.316491,0.10209 c 4.45329,0.0855 5.603198,0.37143 7.082325,1.76101 2.304884,2.16532 2.432456,6.55018 0.253949,8.72869 -1.324448,1.32444 -1.383946,1.66215 -0.479923,2.72397 0.986196,1.15833 4.897375,8.00058 4.897375,8.5675 0,0.14944 -0.62255,0.27171 -1.383444,0.27171 -0.917992,0 -2.135985,-1.33344 -3.620193,-3.96331 -2.390863,-4.23637 -3.964275,-5.47979 -6.934081,-5.47979 -1.809566,0 -1.863734,0.13723 -1.863734,4.72155 0,4.56504 -0.06082,4.72155 -1.8349,4.72155 l -1.834901,0 0.200518,-11.07749 z m 10.006813,-1.99758 c 2.947379,-2.94738 0.891025,-6.53753 -3.744543,-6.53753 l -2.792987,0 0,3.99516 0,3.99516 2.542373,0 c 1.57385,0 3.095814,-0.55344 3.995157,-1.45279 z m 58.111377,3.26877 0,-9.8063 -4.04841,0 c -3.46425,0 -4.01325,-0.18342 -3.80466,-1.27118 0.21446,-1.1183 1.35663,-1.29564 9.49636,-1.47449 8.8805,-0.19513 9.2526,-0.144 9.2526,1.27118 0,1.303 -0.46466,1.47449 -3.99516,1.47449 l -3.99516,0 0,9.8063 c 0,9.32203 -0.0718,9.8063 -1.45278,9.8063 -1.38104,0 -1.45279,-0.48427 -1.45279,-9.8063 z m 10.47666,5.62954 c 0.91199,-2.29722 2.87572,-7.3638 4.36385,-11.25908 2.10162,-5.50114 3.01174,-7.08233 4.07652,-7.08233 0.75396,0 1.67677,0.57204 2.05068,1.27119 0.75889,1.41897 8.08798,20.44605 8.08798,20.99721 0,0.19295 -0.70798,0.24635 -1.57329,0.11869 -1.0564,-0.15586 -1.85245,-1.0674 -2.42294,-2.77449 -0.8473,-2.53538 -0.86308,-2.54297 -5.73562,-2.75819 l -4.88599,-0.21581 -1.15477,2.93978 c -0.87883,2.23729 -1.55024,2.93979 -2.80969,2.93979 l -1.65491,0 1.65818,-4.17676 z m 11.0568,-8.35351 c -0.93424,-2.49697 -1.85779,-5.03027 -2.05234,-5.62954 -0.20335,-0.62641 -0.98318,0.60872 -1.83449,2.90557 -2.90466,7.83681 -3.02671,7.26392 1.54758,7.26392 l 4.03786,0 -1.69861,-4.53995 z m 32.21957,1.27118 0,-11.25908 6.90072,0 c 6.41647,0 6.90073,0.10195 6.90073,1.45279 0,1.32365 -0.48426,1.45278 -5.44794,1.45278 l -5.44794,0 0,3.26877 0,3.26876 5.08474,0 c 4.60048,0 5.08475,0.13837 5.08475,1.45279 0,1.31442 -0.48427,1.45278 -5.08475,1.45278 l -5.08474,0 0,3.99516 0,3.99516 5.44794,0 c 4.35835,0 5.44794,0.21792 5.44794,1.08959 0,0.89206 -1.25101,1.08959 -6.90073,1.08959 l -6.90072,0 0,-11.25909 z m -36.31961,-13.10061 c 0,-1.30347 2.58674,-3.9696 3.8514,-3.9696 1.39312,0 1.34976,0.16219 -0.58264,2.17917 -1.92287,2.00705 -3.26876,2.74425 -3.26876,1.79043 z M 118.40194,275.19508 C 93.261093,272.58526 69.241045,261.09837 50.587351,242.76473 32.924437,225.40486 21.85798,203.98203 17.676972,179.05569 c -1.458544,-8.69554 -1.447501,-27.01665 0.02168,-35.96505 8.16852,-49.752437 47.057473,-88.083389 96.884948,-95.49479 61.72006,-9.180319 119.76261,33.474234 129.94535,95.49479 1.46918,8.9484 1.48022,27.26951 0.0216,35.96505 -4.08655,24.36321 -14.56719,45.06907 -31.56799,62.36665 -24.92748,25.36263 -58.86351,37.48046 -94.5807,33.77274 z m 69.37813,-41.84156 c 2.49948,-2.4696 4.87862,-7.62377 4.26146,-9.23206 -0.29087,-0.75801 -1.10605,-1.11654 -2.22073,-0.97673 -1.44724,0.18151 -2.06192,1.06251 -3.44843,4.94244 -0.928,2.59685 -1.9265,5.29359 -2.21891,5.99274 -0.83486,1.99615 1.30487,1.56758 3.62661,-0.72639 z m -109.693565,0 c -0.28561,-0.69916 -1.172702,-3.23245 -1.971319,-5.62954 -0.798618,-2.3971 -2.072674,-4.90254 -2.831245,-5.56766 -0.758564,-0.66512 -1.036773,-1.32345 -0.61824,-1.46296 0.736134,-0.24538 5.525129,-11.01659 6.269768,-14.10171 0.496322,-2.05628 -1.638029,-4.06303 -4.026792,-3.78605 -2.600348,0.30152 -5.242955,5.88396 -5.744786,12.13572 -0.314122,3.9133 -0.16587,4.80507 0.932302,5.60807 1.061435,0.77614 1.137423,1.15775 0.406029,2.03902 -1.279179,1.54132 0.08288,5.26113 3.304649,9.02504 2.645433,3.0906 5.266721,4.15639 4.279634,1.74007 z m 85.283005,-0.81532 c 2.55666,-0.7154 3.60051,-2.68336 2.1779,-4.10597 -1.02905,-1.02904 -1.67198,-0.98954 -6.88841,0.42333 -3.16439,0.85706 -6.054,1.84202 -6.42136,2.18879 -1.65077,1.55825 6.83303,2.69674 11.13187,1.49385 z m -53.39218,-1.55548 c 0.73325,-0.72377 -0.72428,-1.39107 -7.02993,-3.21849 -4.633958,-1.34295 -7.063624,-0.99577 -7.063624,1.00934 0,1.70878 1.28979,2.73195 3.995158,3.1693 2.877296,0.46514 9.270236,-0.14269 10.098396,-0.96015 z m 62.76466,-2.18688 c 4.37664,-2.66837 6.81657,-11.54649 4.02194,-14.63452 -2.69216,-2.9748 -6.05426,-0.76668 -6.07497,3.98984 -0.009,2.14858 -0.64061,3.96111 -2.16085,6.20446 -1.68825,2.49131 -1.9907,3.46238 -1.41401,4.53995 0.94288,1.76179 2.62349,1.73201 5.62789,-0.0997 z m -77.558536,-0.75738 c 0.637547,-1.19127 0.530266,-1.88648 -0.51924,-3.36485 -2.60307,-3.66675 -3.117523,-4.98271 -3.128084,-8.00156 -0.01085,-3.10044 -1.264351,-4.56551 -3.906225,-4.56551 -5.647286,0 -3.699996,12.7877 2.449503,16.08571 3.213015,1.72316 4.114061,1.69601 5.104046,-0.15379 z m 97.165216,-6.6341 c 1.38847,-1.38847 0.94291,-7.82588 -0.86979,-12.56658 -1.28748,-3.36709 -2.1223,-4.52024 -3.67051,-5.07011 -1.71518,-0.60918 -2.20938,-0.45815 -3.4289,1.0479 -0.78369,0.96781 -1.26171,2.26873 -1.06227,2.89093 0.65678,2.04899 5.16926,12.73451 5.76925,13.66154 0.74277,1.14764 2.13539,1.16315 3.26222,0.0363 z m -45.94033,-8.98718 c 6.44564,-3.26121 16.11253,-10.89002 17.67147,-13.94581 2.29851,-4.50544 3.72044,-11.20655 4.15539,-19.58302 0.36768,-7.08107 0.26121,-8.06408 -1.12266,-10.36534 -0.84088,-1.39831 -2.53445,-4.66707 -3.76351,-7.26393 -1.22905,-2.59685 -3.21765,-6.79388 -4.4191,-9.32673 -1.74025,-3.66871 -2.87032,-5.02432 -5.5572,-6.66633 -5.55625,-3.39555 -7.15417,-4.91171 -7.61735,-7.22758 -0.36486,-1.82429 -0.79062,-2.20309 -2.47632,-2.20309 -1.11965,0 -2.75323,0.50257 -3.63019,1.11682 -2.27213,1.59146 -15.5152,1.59791 -17.78417,0.009 -2.65296,-1.8582 -5.55886,-1.46135 -6.38588,0.87211 -1.21536,3.42917 -1.82463,4.12366 -5.28435,6.02338 -5.29133,2.90546 -6.74599,4.72169 -10.07992,12.58528 -1.716193,4.04792 -4.105675,8.77665 -5.309946,10.50826 -2.094915,3.01228 -2.184523,3.452 -2.072302,10.1695 0.117406,7.02823 1.478927,14.64229 3.593513,20.09615 1.446385,3.73046 8.631655,9.63048 17.876685,14.67905 2.3715,1.29505 8.93323,1.94794 22.71201,2.25985 4.94824,0.11201 6.34346,-0.14329 9.49383,-1.73723 z m 28.46653,-1.18437 c 1.93381,-1.60492 0.5013,-6.73295 -2.98647,-10.69081 -1.3464,-1.52786 -0.91529,-1.40889 3.29015,0.90799 5.33827,2.94097 7.45511,3.26895 9.44948,1.46406 2.87468,-2.60155 0.49448,-7.66833 -5.49217,-11.69129 l -3.51312,-2.36077 3.44818,0 c 4.4395,0 8.96671,-1.36526 9.82111,-2.96171 0.87542,-1.63575 -0.47795,-5.57112 -2.08834,-6.07252 -1.1876,-0.36976 -10.67875,-1.81843 -12.10636,-1.84784 -0.39951,-0.008 1.23487,-0.94484 3.63197,-2.08135 8.81993,-4.18173 11.39317,-8.37653 6.73513,-10.97939 -1.80597,-1.00917 -2.49306,-0.97587 -7.75401,0.37575 l -5.77245,1.48304 2.75505,-3.30424 c 1.51527,-1.81732 3.65692,-5.10206 4.75922,-7.29939 1.1023,-2.19734 3.24823,-5.35334 4.76874,-7.01334 3.54274,-3.86774 5.13146,-8.92389 5.57593,-17.74555 0.82123,-16.29922 -6.47754,-30.42054 -20.67487,-40.000792 -2.97106,-2.00485 -5.50308,-3.535569 -5.62672,-3.401593 -0.12365,0.133975 1.19178,3.693225 2.92317,7.909431 2.98999,7.281124 5.66604,19.560044 4.51397,20.712114 -1.53791,1.53791 -13.52323,-10.01608 -17.26195,-16.640729 -1.29631,-2.296925 -2.49393,-4.039228 -2.66138,-3.871773 -0.16746,0.167448 -0.5713,1.992487 -0.89744,4.055642 -0.72696,4.59869 0.20125,10.12003 2.44601,14.54984 1.9827,3.91267 9.7415,11.99681 13.98388,14.57023 l 2.99371,1.81598 -0.39686,5.81114 c -0.29597,4.33381 -0.11103,6.49215 0.7275,8.48994 l 1.12436,2.67879 -3.97302,3.06516 c -2.18517,1.68584 -3.84199,3.42227 -3.68182,3.85874 0.16016,0.43646 0.85946,2.5219 1.55399,4.63429 0.69453,2.11239 2.37653,5.49572 3.73777,7.51852 2.28769,3.3995 2.47497,4.10479 2.47497,9.32079 0,7.00967 -1.67675,16.88939 -3.64615,21.48381 -0.81941,1.91161 -2.63166,4.55253 -4.02722,5.86872 l -2.53738,2.39306 2.3814,1.21964 c 1.30977,0.6708 3.48399,2.18028 4.83158,3.3544 2.49778,2.17622 4.88731,2.31685 7.17046,0.42201 z m -78.213564,-2.93236 4.772684,-3.20662 -2.72356,-2.69104 c -4.287029,-4.23585 -7.167501,-14.85591 -7.179523,-26.47034 -0.0058,-5.31937 0.74522,-7.69011 3.72645,-11.7678 0.730221,-0.99879 2.000528,-3.77724 2.822906,-6.17433 l 1.495235,-4.35836 -1.67801,-1.45278 c -0.922896,-0.79903 -2.742487,-2.28479 -4.043535,-3.30168 l -2.365533,-1.84889 1.205012,-2.4155 c 0.944201,-1.8927 1.123736,-3.71829 0.829489,-8.43468 l -0.375523,-6.01918 3.599252,-2.33223 c 4.80249,-3.11191 11.17139,-9.73915 13.28717,-13.82614 2.27236,-4.38947 3.21485,-9.91413 2.48209,-14.54952 -0.32614,-2.063157 -0.7345,-3.892707 -0.90747,-4.065675 -0.17297,-0.172969 -1.39645,1.57659 -2.71886,3.887905 -2.63036,4.59739 -11.259186,13.63781 -15.003382,15.71906 l -2.360775,1.31225 0,-2.53596 c 0,-4.43748 1.992624,-12.22015 5.037356,-19.674577 1.624125,-3.976359 2.952958,-7.320894 2.952958,-7.432294 0,-0.111406 -2.392961,1.404988 -5.317685,3.36977 -14.755009,9.912175 -22.265336,24.305571 -21.368309,40.951931 0.453239,8.41082 2.000288,13.33359 5.284656,16.81604 1.416544,1.50198 3.412525,4.40928 4.435518,6.46069 1.022985,2.0514 3.2906,5.57292 5.039135,7.8256 l 3.17915,4.09579 -4.407661,-1.37182 c -2.42421,-0.75449 -5.415138,-1.37181 -6.64651,-1.37181 -2.600644,0 -4.89563,1.78902 -4.89563,3.8163 0,2.05431 4.074341,5.55302 9.076605,7.79423 l 4.355049,1.95124 -6.386731,0.82444 c -7.293473,0.94149 -7.609177,1.0734 -8.561012,3.5769 -1.482561,3.89944 0.798668,5.72735 8.100101,6.49051 l 4.252685,0.44449 -2.801128,2.02913 c -5.955864,4.3144 -8.090935,9.25514 -5.149714,11.91691 1.757201,1.59024 4.608058,1.16128 8.533845,-1.28406 1.509719,-0.9404 3.391009,-1.94923 4.180641,-2.24187 1.372054,-0.50846 1.367775,-0.45781 -0.09662,1.14266 -2.164802,2.36596 -3.881441,5.99753 -3.881441,8.21123 0,1.44 0.557644,2.1216 2.353576,2.87673 1.294475,0.54428 2.520262,0.88394 2.723971,0.75479 0.203717,-0.12914 2.518104,-1.6778 5.143082,-3.44144 z M 197.07729,181.82814 c 4.00873,-2.04005 7.76532,-6.06871 7.76532,-8.32771 0,-3.31033 -1.70854,-3.22688 -7.43471,0.36311 -9.6096,6.02469 -9.5732,5.98085 -7.05598,8.49807 1.57169,1.57169 2.77651,1.47612 6.72537,-0.53347 z M 72.611062,180.92429 c 1.116356,-2.08592 0.404688,-3.10744 -3.794586,-5.44669 -2.092404,-1.1656 -4.851197,-2.9073 -6.130652,-3.87044 -2.848796,-2.14452 -4.860858,-1.91272 -5.153795,0.59372 -0.291713,2.49597 2.092919,5.35372 6.646827,7.96558 4.3686,2.50557 7.353286,2.77382 8.432206,0.75783 z M 208.29062,166.70702 c 0.92866,-3.72431 0.37936,-9.57618 -0.873,-9.30048 -0.3563,0.0784 -1.18584,1.88152 -1.84343,4.00686 -0.65759,2.12533 -1.55381,4.50428 -1.99159,5.28656 -1.10227,1.96964 0.15346,4.1585 2.21715,3.8647 1.23602,-0.17596 1.78474,-1.02576 2.49087,-3.85764 z m -149.86937,2.12873 c 0.920716,-0.92071 0.976364,-1.44474 0.28926,-2.72397 -0.467925,-0.87116 -1.378808,-3.35872 -2.024184,-5.52791 -1.465175,-4.92462 -2.599252,-5.40599 -3.156582,-1.33983 -0.655289,4.78086 1.100248,10.73175 3.165909,10.73175 0.32206,0 1.098579,-0.51301 1.725597,-1.14004 z m 134.08714,-4.68657 c 2.78624,-2.98267 5.26702,-8.3121 5.35826,-11.51105 C 197.93471,150.25061 197.7593,150 196.01983,150 c -1.56699,0 -2.67405,1.04812 -5.99274,5.67368 -4.28009,5.96556 -4.80025,7.65763 -2.9292,9.52867 1.68285,1.68287 3.1151,1.40408 5.4105,-1.05317 z m -117.565587,0.26608 c 0.730613,-0.66119 1.328383,-1.81575 1.328383,-2.56569 0,-1.63239 -7.551287,-12.61525 -9.075879,-13.20029 -0.606785,-0.23285 -0.883606,-0.89371 -0.640131,-1.52819 0.486507,-1.26782 -1.741596,-11.26883 -2.755714,-12.36925 -1.178068,-1.27831 -2.033387,1.24558 -2.044998,6.03441 -0.01222,5.04164 0.84837,7.39777 2.702085,7.39777 0.940574,0 1.015605,0.19371 0.337639,0.87167 -1.358327,1.35833 -1.044924,3.48453 1.209902,8.20824 2.183296,4.57386 5.226041,8.35351 6.724851,8.35351 0.48701,0 1.483249,-0.54098 2.213862,-1.20218 z M 199.8089,147.36228 c 0.48115,-0.89904 0.71125,-3.62366 0.5488,-6.49853 -0.45231,-8.00489 -1.79454,-7.68066 -3.90813,0.94406 -0.66338,2.70696 -1.01784,5.41243 -0.7877,6.01217 0.6174,1.60891 3.19315,1.32463 4.14703,-0.4577 z"
       id="path4420"
       inkscape:connector-curvature="0" />
    <path
       style="fill:#636363"
       d="m 35.59322,324.87781 c -3.778709,-1.88768 -6.02453,-6.65677 -5.537923,-11.76001 0.433854,-4.55 2.050177,-7.13513 5.589559,-8.93991 4.749189,-2.42167 11.687687,-1.13877 12.173101,2.25076 0.226026,1.57828 0.145632,1.6122 -1.452785,0.61303 -4.395228,-2.74746 -9.98855,-1.94693 -11.874174,1.69946 -0.592325,1.14543 -1.076955,3.9218 -1.076955,6.16971 0,3.5488 0.279654,4.36676 2.123301,6.21041 2.462592,2.46259 6.65941,2.87774 10.26144,1.01506 2.040998,-1.05544 2.143104,-1.03638 2.143104,0.40026 0,3.19355 -7.714619,4.6562 -12.348668,2.34123 z m 42.285159,0.17793 c -3.635099,-1.57938 -4.602283,-4.68925 -4.355389,-14.00429 0.171937,-6.48706 0.400147,-7.80266 1.386203,-7.99144 1.023065,-0.19587 1.221813,0.93602 1.491232,8.49272 0.359681,10.08814 1.134117,11.69978 5.612884,11.68071 1.436259,-0.006 2.999535,-0.25793 3.473935,-0.55958 1.690438,-1.07488 2.406217,-4.71644 2.406217,-12.24171 0,-6.87803 0.125746,-7.60904 1.271187,-7.38982 1.090932,0.20878 1.303155,1.27209 1.496629,7.49878 0.123996,3.99053 -0.138966,8.49693 -0.58436,10.01421 -1.42378,4.8503 -6.815216,6.83936 -12.198538,4.50042 z m 19.63978,0.28171 c -1.687547,-0.48726 -2.360775,-1.11218 -2.360775,-2.19138 0,-1.16001 0.294458,-1.3842 1.271186,-0.96783 0.699153,0.29804 3.118954,0.69688 5.37734,0.8863 3.78141,0.31718 4.20199,0.19815 5.31797,-1.50505 1.83324,-2.79788 0.48869,-4.57592 -4.53838,-6.00156 -5.198186,-1.47418 -6.992281,-3.12291 -6.992281,-6.42575 0,-4.7265 4.026371,-6.92063 10.828091,-5.90065 2.58952,0.38832 3.26392,0.78329 3.26392,1.91157 0,1.2013 -0.31016,1.33618 -1.99758,0.86867 -5.07593,-1.40634 -8.898305,-0.0435 -8.898305,3.17265 0,1.87698 1.140073,2.57783 6.316985,3.88335 6.97158,1.75811 8.24774,9.44437 2.00139,12.05427 -2.76183,1.15396 -6.08085,1.22852 -9.589561,0.21541 z m 59.745761,-0.5569 c -3.8792,-1.78591 -5.69112,-5.03817 -5.68632,-10.20653 0.007,-6.96982 3.07849,-10.78563 9.24263,-11.48042 4.62091,-0.52084 8.42916,0.90404 8.42916,3.15382 0,1.74234 -0.0359,1.75286 -1.87325,0.549 -1.06941,-0.70071 -3.30011,-1.2274 -5.19842,-1.2274 -2.84548,0 -3.63442,0.34611 -5.46898,2.39934 -2.00008,2.23847 -2.12366,2.71584 -1.84325,7.11966 0.25807,4.05293 0.58297,4.96322 2.298,6.43842 2.36401,2.03344 6.67821,2.29806 9.9428,0.60988 2.04099,-1.05544 2.1431,-1.03638 2.1431,0.40026 0,1.03474 -0.79113,1.83906 -2.51904,2.56103 -3.33442,1.3932 -5.94118,1.3059 -9.46643,-0.31706 z m 42.11598,0.78801 c -4.57573,-1.58397 -6.87503,-5.27676 -6.88148,-11.05204 -0.008,-7.63372 4.22847,-11.98359 11.09671,-11.39232 2.35952,0.20312 4.0791,0.85689 5.35996,2.0378 5.3568,4.9388 5.07238,14.8793 -0.54341,18.99211 -2.04297,1.49621 -6.69223,2.22432 -9.03178,1.41445 z m 6.90001,-3.04211 c 2.06319,-1.10418 3.91864,-6.68846 3.30649,-9.95147 -0.71703,-3.82214 -1.54222,-5.12068 -4.09194,-6.43919 -5.85141,-3.02588 -11.25503,3.07013 -9.76445,11.01559 0.94217,5.02221 6.20196,7.70202 10.5499,5.37507 z m 12.54575,2.811 c -1.68754,-0.48726 -2.36077,-1.11218 -2.36077,-2.19138 0,-1.16001 0.29446,-1.3842 1.27119,-0.96783 0.69915,0.29804 3.08221,0.69422 5.29568,0.8804 4.61986,0.38858 6.0364,-0.6005 5.65269,-3.94691 -0.20681,-1.80363 -0.76085,-2.21159 -4.75505,-3.50124 -5.50364,-1.77703 -7.02868,-3.1839 -7.02868,-6.48408 0,-4.72038 4.02996,-6.91432 10.82809,-5.89488 2.57697,0.38644 3.26392,0.78585 3.26392,1.89773 0,1.64071 -0.0883,1.6563 -3.54768,0.62595 -3.08463,-0.91873 -6.13085,-0.0395 -7.27589,2.09999 -1.13353,2.11803 0.45764,3.65629 5.01653,4.8497 6.09566,1.59571 8.75243,5.66705 6.47497,9.92252 -1.59889,2.98755 -7.53386,4.24068 -12.835,2.71003 z m -166.36274,-10.9912 0.200518,-11.07748 5.316491,0.10209 c 4.45329,0.0855 5.603198,0.37143 7.082325,1.76101 2.304884,2.16532 2.432456,6.55018 0.253949,8.72869 -1.324448,1.32444 -1.383946,1.66215 -0.479923,2.72397 0.986196,1.15833 4.897375,8.00058 4.897375,8.5675 0,0.14944 -0.62255,0.27171 -1.383444,0.27171 -0.917992,0 -2.135985,-1.33344 -3.620193,-3.96331 -2.390863,-4.23637 -3.964275,-5.47979 -6.934081,-5.47979 -1.809566,0 -1.863734,0.13723 -1.863734,4.72155 0,4.56504 -0.06082,4.72155 -1.8349,4.72155 l -1.834901,0 0.200518,-11.07749 z m 10.006813,-1.99758 c 2.947379,-2.94738 0.891025,-6.53753 -3.744543,-6.53753 l -2.792987,0 0,3.99516 0,3.99516 2.542373,0 c 1.57385,0 3.095814,-0.55344 3.995157,-1.45279 z m 58.111377,3.26877 0,-9.8063 -4.04841,0 c -3.46425,0 -4.01325,-0.18342 -3.80466,-1.27118 0.21446,-1.1183 1.35663,-1.29564 9.49636,-1.47449 8.8805,-0.19513 9.2526,-0.144 9.2526,1.27118 0,1.303 -0.46466,1.47449 -3.99516,1.47449 l -3.99516,0 0,9.8063 c 0,9.32203 -0.0718,9.8063 -1.45278,9.8063 -1.38104,0 -1.45279,-0.48427 -1.45279,-9.8063 z m 10.47666,5.62954 c 0.91199,-2.29722 2.87572,-7.3638 4.36385,-11.25908 2.10162,-5.50114 3.01174,-7.08233 4.07652,-7.08233 0.75396,0 1.67677,0.57204 2.05068,1.27119 0.75889,1.41897 8.08798,20.44605 8.08798,20.99721 0,0.19295 -0.70798,0.24635 -1.57329,0.11869 -1.0564,-0.15586 -1.85245,-1.0674 -2.42294,-2.77449 -0.8473,-2.53538 -0.86308,-2.54297 -5.73562,-2.75819 l -4.88599,-0.21581 -1.15477,2.93978 c -0.87883,2.23729 -1.55024,2.93979 -2.80969,2.93979 l -1.65491,0 1.65818,-4.17676 z m 11.0568,-8.35351 c -0.93424,-2.49697 -1.85779,-5.03027 -2.05234,-5.62954 -0.20335,-0.62641 -0.98318,0.60872 -1.83449,2.90557 -2.90466,7.83681 -3.02671,7.26392 1.54758,7.26392 l 4.03786,0 -1.69861,-4.53995 z m 32.21957,1.27118 0,-11.25908 6.90072,0 c 6.41647,0 6.90073,0.10195 6.90073,1.45279 0,1.32365 -0.48426,1.45278 -5.44794,1.45278 l -5.44794,0 0,3.26877 0,3.26876 5.08474,0 c 4.60048,0 5.08475,0.13837 5.08475,1.45279 0,1.31442 -0.48427,1.45278 -5.08475,1.45278 l -5.08474,0 0,3.99516 0,3.99516 5.44794,0 c 4.35835,0 5.44794,0.21792 5.44794,1.08959 0,0.89206 -1.25101,1.08959 -6.90073,1.08959 l -6.90072,0 0,-11.25909 z m -36.31961,-13.10061 c 0,-1.30347 2.58674,-3.9696 3.8514,-3.9696 1.39312,0 1.34976,0.16219 -0.58264,2.17917 -1.92287,2.00705 -3.26876,2.74425 -3.26876,1.79043 z"
       id="path4418"
       inkscape:connector-curvature="0" />
    <path
       style="fill:#050505"
       d="m 38.135593,325.45624 c -5.310189,-1.24061 -7.871158,-4.78381 -7.865499,-10.88222 0.0061,-6.54606 2.752523,-10.2577 8.370032,-11.31155 3.081734,-0.57814 8.495276,0.76835 9.06571,2.25488 0.657599,1.71367 -0.178428,1.94518 -2.565941,0.71055 -6.941615,-3.58964 -13.365664,1.85605 -12.105172,10.2616 0.929068,6.19547 6.344678,8.99453 11.99437,6.19928 2.712394,-1.34198 2.912795,-1.35351 2.912795,-0.16761 0,2.06296 -5.935359,3.83944 -9.806295,2.93507 z m 41.767554,0.0344 c -4.986552,-1.18084 -5.811138,-3.09041 -5.811138,-13.45734 0,-6.76276 0.200644,-8.40129 1.028753,-8.40129 0.816596,0 1.07875,1.7927 1.271186,8.69276 0.280446,10.05587 0.884456,11.25001 5.690376,11.25001 4.80592,0 5.409929,-1.19414 5.690375,-11.25001 0.228283,-8.18539 0.328903,-8.69276 1.72391,-8.69276 1.424898,0 1.469426,0.32601 1.16594,8.53511 -0.317855,8.59744 -1.025361,11.23399 -3.330531,12.4113 -1.890668,0.96562 -5.389184,1.3952 -7.428871,0.91219 z m 20.702183,0.16552 c -4.345137,-0.86413 -4.721554,-1.05454 -4.721554,-2.38831 0,-1.31775 0.15117,-1.33871 2.519041,-0.34935 1.385477,0.57888 3.167913,1.05252 3.960983,1.05252 2.48552,0 5.15946,-1.63163 5.60896,-3.42256 0.61457,-2.44865 -1.35325,-4.28701 -5.70682,-5.33142 -4.591019,-1.1014 -6.382164,-2.82375 -6.382164,-6.13709 0,-4.59069 4.378724,-6.93394 10.528844,-5.63444 1.94821,0.41165 2.98688,1.05525 3.16085,1.95858 0.20384,1.05849 -0.0277,1.22827 -1.08576,0.79603 -0.73967,-0.30219 -2.69587,-0.71496 -4.34712,-0.91728 -2.40112,-0.29419 -3.31016,-0.0599 -4.539952,1.16984 -2.959169,2.95916 -1.763593,4.87148 3.977242,6.36156 4.947,1.28403 6.57067,2.49424 7.20183,5.36791 0.60454,2.75246 -1.32672,6.38627 -3.65007,6.8679 -3.62688,0.75187 -5.10215,0.88891 -6.52431,0.60608 z m 59.02174,-0.26156 c -4.95184,-0.85102 -7.81109,-4.84187 -7.81109,-10.90245 0,-5.20538 1.64473,-8.29264 5.38161,-10.10164 1.68706,-0.81669 3.95531,-1.4849 5.04055,-1.4849 2.85211,0 7.01125,1.91708 7.01125,3.2317 0,1.38401 -0.0649,1.38504 -2.64093,0.0415 -4.27448,-2.22929 -9.51904,-0.69858 -11.15726,3.25642 -2.166,5.22918 -0.62732,11.55018 3.2607,13.39517 3.12095,1.48098 4.56216,1.43798 7.84153,-0.23393 2.5986,-1.32484 2.69596,-1.32639 2.69596,-0.0429 0,0.73239 -0.27364,1.50073 -0.6081,1.70744 -1.49903,0.92645 -6.5345,1.55963 -9.01422,1.13349 z m 40.28083,-0.0373 c -8.34095,-1.70591 -10.18739,-15.18013 -2.82074,-20.58402 2.80819,-2.05997 8.36041,-2.05315 11.15255,0.0137 4.07874,3.01923 5.57725,9.13392 3.54349,14.45924 -1.93748,5.07322 -6.20705,7.27036 -11.8753,6.11108 z m 7.62631,-3.93071 c 3.27233,-3.71686 3.02136,-10.74053 -0.50997,-14.27186 -3.32612,-3.32612 -8.23016,-2.44913 -10.56676,1.88966 -1.65147,3.06659 -1.19259,9.86151 0.81684,12.09556 2.97749,3.31033 7.4869,3.4363 10.25989,0.28664 z m 14.37862,4.21899 c -4.27386,-0.8188 -4.72155,-1.04425 -4.72155,-2.37772 0,-1.31775 0.15117,-1.33871 2.51904,-0.34935 3.46047,1.44587 5.66183,1.3199 7.91569,-0.45299 3.70349,-2.91317 2.01539,-5.55931 -4.78778,-7.50493 -4.37145,-1.25017 -5.64695,-2.57845 -5.64695,-5.8806 0,-2.90037 1.1801,-4.51889 3.96495,-5.43797 3.05754,-1.00908 9.06011,-0.25908 9.62082,1.20209 0.59126,1.5408 0.12423,1.66115 -3.10336,0.79965 -3.58765,-0.95759 -6.54196,-0.31344 -7.59611,1.65626 -1.30426,2.43703 -0.19592,4.2142 3.15025,5.05122 7.61941,1.90594 10.01418,4.46303 8.49388,9.06959 -1.03373,3.13222 -5.49099,5.05199 -9.80888,4.22475 z m -168.886196,-11.11765 0,-10.89588 5.117764,0 c 4.465151,0 5.345124,0.22736 6.900726,1.78296 2.344423,2.34443 2.35848,5.69787 0.03363,8.02272 -1.521921,1.52192 -1.608646,1.86609 -0.667118,2.64749 0.595218,0.49399 2.040877,2.79726 3.212574,5.11838 2.016346,3.99436 2.052608,4.22021 0.677574,4.22021 -1.043452,0 -2.059675,-1.20224 -3.60673,-4.26694 -2.304643,-4.56546 -3.131253,-5.17615 -7.006282,-5.17615 l -2.482963,0 0,4.72155 c 0,3.71267 -0.232819,4.72155 -1.089589,4.72155 -0.920097,0 -1.089588,-1.69492 -1.089588,-10.89589 z m 9.75441,-1.86787 c 0.62781,-0.6278 1.141473,-1.91196 1.141473,-2.85368 0,-2.63407 -1.873705,-3.99516 -5.499827,-3.99516 l -3.216879,0 0,3.99516 0,3.99516 3.216879,0 c 1.955914,0 3.66432,-0.44744 4.358354,-1.14148 z m 57.800066,2.95746 0,-9.8063 -3.63196,0 c -2.74415,0 -3.63196,-0.26634 -3.63196,-1.08958 0,-0.91041 1.49314,-1.08959 9.0799,-1.08959 7.58676,0 9.07991,0.17918 9.07991,1.08959 0,0.83645 -0.92817,1.08958 -3.99516,1.08958 l -3.99516,0 0,9.8063 c 0,9.32203 -0.0718,9.8063 -1.45278,9.8063 -1.38104,0 -1.45279,-0.48427 -1.45279,-9.8063 z m 9.85744,8.17191 c 0.28174,-0.89891 2.06952,-5.72034 3.97287,-10.71428 3.02949,-7.94872 3.68195,-9.10721 5.23719,-9.29907 1.61504,-0.19925 1.97889,0.3291 4.00186,5.81113 1.2239,3.31667 3.06871,8.23673 4.09956,10.93346 1.79901,4.70622 1.81737,4.90315 0.45691,4.90315 -1.02427,0 -1.65884,-0.80588 -2.28792,-2.90557 l -0.87053,-2.90557 -5.30381,0 -5.3038,0 -0.87053,2.90557 c -0.62054,2.07119 -1.26875,2.90557 -2.25729,2.90557 -1.10562,0 -1.28291,-0.33133 -0.87451,-1.63439 z m 13.38711,-6.67757 c 0,-1.41882 -3.95267,-10.5322 -4.36933,-10.07404 -0.63702,0.70046 -3.62098,8.69114 -3.62098,9.69653 0,0.38454 1.79782,0.69915 3.99516,0.69915 2.19733,0 3.99515,-0.14474 3.99515,-0.32164 z m 30.50848,-2.58393 0,-10.89588 6.90072,0 c 5.64972,0 6.90073,0.19752 6.90073,1.08959 0,0.87167 -1.08959,1.08958 -5.44794,1.08958 l -5.44794,0 0,3.26877 0,3.26876 5.08474,0 c 4.03552,0 5.08475,0.22484 5.08475,1.08959 0,0.86476 -1.04923,1.08959 -5.08475,1.08959 l -5.08474,0 0,4.35835 0,4.35836 5.44794,0 c 4.35835,0 5.44794,0.21792 5.44794,1.08959 0,0.89206 -1.25101,1.08959 -6.90073,1.08959 l -6.90072,0 0,-10.89589 z M 139.6434,298.76734 c 1.07749,-1.07748 2.18488,-1.73324 2.46088,-1.45724 0.70498,0.70498 -1.89646,3.4163 -3.27784,3.4163 -0.83658,0 -0.61805,-0.52404 0.81696,-1.95906 z"
       id="path4416"
       inkscape:connector-curvature="0" />
  </g>
</svg>
