<?xml version="1.0" encoding="UTF-8" standalone="no"?>
<!-- Created with Inkscape (http://www.inkscape.org/) -->

<svg
   xmlns:dc="http://purl.org/dc/elements/1.1/"
   xmlns:cc="http://creativecommons.org/ns#"
   xmlns:rdf="http://www.w3.org/1999/02/22-rdf-syntax-ns#"
   xmlns:svg="http://www.w3.org/2000/svg"
   xmlns="http://www.w3.org/2000/svg"
   xmlns:sodipodi="http://sodipodi.sourceforge.net/DTD/sodipodi-0.dtd"
   xmlns:inkscape="http://www.inkscape.org/namespaces/inkscape"
   id="svg4222"
   version="1.1"
   inkscape:version="0.91 r13725"
   width="100"
   height="100"
   viewBox="0 0 100 100"
   sodipodi:docname="huevos50.svg">
  <metadata
     id="metadata4228">
    <rdf:RDF>
      <cc:Work
         rdf:about="">
        <dc:format>image/svg+xml</dc:format>
        <dc:type
           rdf:resource="http://purl.org/dc/dcmitype/StillImage" />
        <dc:title></dc:title>
      </cc:Work>
    </rdf:RDF>
  </metadata>
  <defs
     id="defs4226">
    <clipPath
       clipPathUnits="userSpaceOnUse"
       id="clipPath4252">
      <rect
         style="opacity:0.181;fill:#ff0000;fill-opacity:1;fill-rule:nonzero;stroke:none;stroke-width:3.5999999;stroke-linecap:round;stroke-linejoin:round;stroke-miterlimit:4;stroke-dasharray:none;stroke-opacity:1"
         id="rect4254"
         width="240"
         height="240"
         x="11.376157"
         y="40.903584" />
    </clipPath>
    <clipPath
       clipPathUnits="userSpaceOnUse"
       id="clipPath4322">
      <circle
         style="opacity:0.12000002;fill:#ff0000;fill-rule:evenodd;stroke:none;stroke-width:1px;stroke-linecap:butt;stroke-linejoin:miter;stroke-opacity:1"
         id="circle4324"
         cx="131.37616"
         cy="160.90358"
         r="117.6" />
    </clipPath>
  </defs>
  <sodipodi:namedview
     pagecolor="#ffffff"
     bordercolor="#666666"
     borderopacity="1"
     objecttolerance="10"
     gridtolerance="10"
     guidetolerance="10"
     inkscape:pageopacity="0"
     inkscape:pageshadow="2"
     inkscape:window-width="1920"
     inkscape:window-height="1017"
     id="namedview4224"
     showgrid="false"
     fit-margin-top="0"
     fit-margin-left="0"
     fit-margin-right="0"
     fit-margin-bottom="0"
     inkscape:zoom="1.43"
     inkscape:cx="97.422871"
     inkscape:cy="98.88506"
     inkscape:window-x="-8"
     inkscape:window-y="-8"
     inkscape:window-maximized="1"
     inkscape:current-layer="svg4222" />
  <g
     id="g4232"
     transform="matrix(0.41666667,0,0,0.41666667,-4.7400658,-17.04316)"
     clip-path="url(#clipPath4322)">
    <path
       style="fill:#fefefe"
       d="M 0,185.95642 0,0 l 131.1138,0 131.1138,0 0,185.95642 0,185.95642 -131.1138,0 -131.1138,0 0,-185.95642 z"
       id="path4248"
       inkscape:connector-curvature="0" />
    <path
       style="fill:#f9cea7"
       d="m 69.007263,314.52785 c 0,-11.13801 0.06053,-11.62228 1.452785,-11.62228 1.303781,0 1.452784,0.48427 1.452784,4.72155 l 0,4.72155 5.447942,0 5.447942,0 0,-4.72155 c 0,-4.56472 0.06094,-4.72155 1.834423,-4.72155 l 1.834431,0 -0.200048,11.44068 c -0.196569,11.24214 -0.228407,11.44471 -1.834424,11.6728 -1.571411,0.22318 -1.634382,0.0203 -1.634382,-5.26634 l 0,-5.49847 -5.447942,0 -5.447942,0 0,5.44795 c 0,4.96367 -0.129136,5.44794 -1.452784,5.44794 -1.392252,0 -1.452785,-0.48427 -1.452785,-11.62228 z m 25.253593,9.50449 -2.372237,-2.11779 -0.239325,-9.50449 -0.239324,-9.50449 1.873707,0 1.873707,0 0,8.55508 c 0,10.23491 0.668397,11.78391 5.084746,11.78391 4.41635,0 5.08475,-1.549 5.08475,-11.78391 l 0,-8.55508 1.81598,0 1.81598,0 0,9.15255 0,9.15254 -2.46974,2.46973 c -2.16103,2.16104 -2.93135,2.46974 -6.16287,2.46974 -3.052996,0 -4.104333,-0.36709 -6.065374,-2.11779 z m 20.291534,1.65808 c -0.27984,-0.27985 -0.50881,-5.52092 -0.50881,-11.64683 l 0,-11.13802 7.26392,0 c 6.77966,0 7.26393,0.0968 7.26393,1.45279 0,1.32365 -0.48427,1.45278 -5.44794,1.45278 l -5.44795,0 0,3.26877 0,3.26876 5.44795,0 c 4.96367,0 5.44794,0.12914 5.44794,1.45279 0,1.32365 -0.48427,1.45278 -5.44794,1.45278 l -5.44795,0 0,3.60141 0,3.6014 5.62954,0.21216 c 5.07457,0.19124 5.62954,0.35537 5.62954,1.66494 0,1.33697 -0.55297,1.46921 -6.93671,1.65892 -3.81519,0.11339 -7.16568,-0.0228 -7.44552,-0.30265 z m 20.74397,-10.94268 c -3.39915,-8.91399 -4.14312,-11.53327 -3.32948,-11.722 2.12478,-0.49285 2.84673,0.61319 6.02283,9.22715 1.94631,5.27859 3.45442,8.4219 3.77007,7.85786 0.28936,-0.51706 1.89231,-4.59975 3.56211,-9.07264 2.73163,-7.3172 3.21426,-8.13254 4.814,-8.13254 2.09362,0 2.32459,-0.99775 -2.94276,12.71187 -3.46942,9.03006 -4.10958,10.19413 -5.71337,10.38938 -1.70503,0.20759 -2.05128,-0.4229 -6.1834,-11.25908 z m 22.54762,9.97901 c -3.19155,-1.946 -4.80985,-5.37748 -4.80985,-10.1989 0,-7.23759 3.92209,-11.61684 10.40412,-11.61684 6.55768,0 10.31477,4.26149 10.31477,11.69956 0,4.90471 -1.93065,8.7438 -5.26407,10.46758 -2.91663,1.50825 -7.86284,1.34497 -10.64497,-0.3514 z m 10.0085,-3.60549 c 1.84365,-1.84365 2.12331,-2.66161 2.12331,-6.21041 0,-4.33835 -1.36107,-7.90394 -3.30131,-8.64849 -1.75762,-0.67446 -5.33651,-0.54455 -6.81631,0.24741 -2.15902,1.15548 -3.35695,5.22661 -3.07041,10.43473 0.15982,2.90523 3.74349,6.30006 6.65049,6.30006 1.56356,0 2.96509,-0.67415 4.41423,-2.1233 z m 11.5664,4.38189 c -1.15916,-0.32054 -1.90473,-1.11922 -2.06139,-2.20818 -0.21367,-1.48545 -0.0259,-1.63995 1.45279,-1.19508 6.69478,2.01426 10.7781,1.05636 10.7781,-2.52842 0,-2.32926 -0.58999,-2.726 -6.35437,-4.27294 -6.05505,-1.62495 -7.82366,-6.317 -3.871,-10.26965 1.8658,-1.86581 2.64178,-2.12331 6.39869,-2.12331 4.74001,0 7.25026,1.23431 6.49785,3.19506 -0.37088,0.96648 -0.77009,1.06558 -1.88625,0.46823 -1.92913,-1.03244 -7.55789,-0.95811 -8.62996,0.11395 -2.35089,2.35089 0.0218,5.08546 5.20222,5.99567 5.00217,0.87889 7.62877,5.46602 5.82356,10.17034 -1.05761,2.75608 -7.99458,4.13531 -13.35024,2.65433 z m -56.29539,-49.55181 c -51.259705,-3.29939 -94.085676,-40.75375 -104.978169,-91.8109 -1.975955,-9.26203 -2.712906,-27.51335 -1.49031,-36.909 5.660399,-43.50016 34.92367,-80.110788 75.596804,-94.577483 13.391715,-4.76319 23.624575,-6.465688 38.861985,-6.465688 6.39225,0 14.23729,0.423795 17.43341,0.941766 46.39085,7.518204 82.95583,40.988211 94.38745,86.398185 2.76764,10.99396 3.55286,19.05992 3.10187,31.86303 -0.90038,25.56056 -8.67669,46.65664 -24.85101,67.41747 -22.86712,29.35149 -59.8103,45.60473 -98.06203,43.14262 z m 49.02452,-60.57451 c 14.38292,-4.64332 25.08315,-11.06215 34.39923,-20.6353 6.34415,-6.51922 9.13449,-11.72453 9.71463,-18.1224 0.31683,-3.4941 0.0805,-4.7488 -1.46277,-7.76614 -4.26124,-8.33135 -13.97538,-14.31855 -29.07613,-17.92071 -5.57168,-1.32909 -8.87552,-1.59604 -20.10554,-1.62455 -18.27654,-0.0464 -23.91023,1.54744 -33.7625,9.55182 -3.56495,2.89631 -4.93224,4.69593 -7.62712,10.03883 l -3.2835,6.50992 0,8.36122 c 0,11.79791 1.62813,16.36093 8.2923,23.24 8.04507,8.30451 15.65137,11.03746 29.4801,10.59224 5.45552,-0.17565 8.79932,-0.72955 13.4313,-2.22493 z m 26.85311,-39.26043 c -3.90411,-3.98136 -8.87679,-6.48817 -15.22388,-7.67463 -6.94567,-1.29834 -8.74282,-4.11602 -5.19718,-8.14843 1.31669,-1.49745 4.51095,-1.29401 11.73471,0.74735 5.84709,1.65232 9.22421,3.5611 13.56656,7.6679 3.10402,2.93567 3.86685,4.11566 3.86685,5.98154 0,2.57786 -1.85703,4.72876 -4.08271,4.72876 -0.78427,0 -2.88323,-1.48612 -4.66435,-3.30249 z M 89.892747,211.01425 c 7.537191,-1.7771 15.660533,-8.03324 19.662673,-15.1431 4.97203,-8.83288 6.27904,-23.35054 3.15938,-35.0931 -5.1159,-19.25651 -16.969627,-37.36531 -27.962898,-42.7186 -9.918697,-4.83 -17.749752,-2.53888 -25.415838,7.43591 -3.966838,5.16149 -6.283275,9.73905 -8.72452,17.24072 -3.685919,11.32641 -4.403609,15.95821 -4.445865,28.69249 -0.03784,11.40539 0.05611,12.22486 1.941402,16.93153 2.69046,6.71679 7.483414,13.81385 11.050781,16.36318 4.091402,2.92383 10.448457,6.08289 13.481362,6.69939 4.405751,0.89558 12.539506,0.70303 17.253523,-0.40842 z M 59.212994,152.55566 c -1.733353,-1.91533 -1.134908,-6.27975 1.841389,-13.42913 4.474422,-10.74804 13.751059,-17.88958 17.646592,-13.58507 2.064893,2.28168 1.428915,4.11256 -2.634349,7.58392 -4.344426,3.71156 -7.231184,8.50026 -8.834188,14.65462 -0.602933,2.31481 -1.470906,4.66019 -1.928828,5.21195 -1.216918,1.4663 -4.587289,1.22487 -6.090616,-0.43629 z m 73.236416,-5.76088 c 8.38938,-5.54684 19.19411,-7.8857 31.89684,-6.9046 l 6.35593,0.49091 0,-2.86385 c 0,-4.68984 -2.02882,-18.6405 -3.64859,-25.08863 -1.80641,-7.1911 -7.58039,-19.386151 -11.12489,-23.496521 -3.57765,-4.148819 -10.24981,-7.576315 -14.74709,-7.575581 -3.9858,6.46e-4 -10.70207,2.829377 -14.67039,6.178816 -2.64963,2.236409 -8.72524,9.728041 -12.07233,14.885986 -5.89263,9.08068 -10.95223,19.81308 -10.05967,21.3385 0.26275,0.44905 1.89146,2.67181 3.61935,4.93945 3.79348,4.97849 7.94565,12.67756 11.17296,20.71722 l 2.39008,5.954 3.56933,-3.04843 c 1.96314,-1.67665 5.25645,-4.16392 7.31847,-5.52727 z m -10.02603,-30.54297 c -1.63126,-1.80252 -1.17518,-4.5432 1.80356,-10.83795 2.98363,-6.305117 5.77424,-9.635822 10.99332,-13.120987 5.09021,-3.399116 7.20813,-3.665469 9.18297,-1.154854 2.20336,2.801114 1.30245,4.744947 -3.72859,8.044932 -4.70418,3.085579 -7.93806,7.456549 -10.42323,14.088209 -0.68321,1.82314 -1.58586,3.55495 -2.00589,3.84847 -1.44865,1.01234 -4.53725,0.55197 -5.82214,-0.86782 z"
       id="path4246"
       inkscape:connector-curvature="0" />
    <path
       style="fill:#f8bc86"
       d="m 69.007263,314.52785 c 0,-11.13801 0.06053,-11.62228 1.452785,-11.62228 1.303781,0 1.452784,0.48427 1.452784,4.72155 l 0,4.72155 5.447942,0 5.447942,0 0,-4.77207 c 0,-4.53332 0.08177,-4.76046 1.634382,-4.53995 1.61464,0.22932 1.634383,0.36815 1.634383,11.4912 0,10.77482 -0.06247,11.25908 -1.452785,11.25908 -1.299566,0 -1.475295,-0.5554 -1.666205,-5.26634 l -0.213422,-5.26635 -5.416118,0 -5.416119,0 0,5.44795 c 0,4.96367 -0.129136,5.44794 -1.452784,5.44794 -1.392252,0 -1.452785,-0.48427 -1.452785,-11.62228 z m 25.253593,9.50449 -2.372237,-2.11779 -0.24048,-9.56272 -0.240479,-9.56273 1.693264,0.23984 c 1.643332,0.23276 1.703971,0.49907 2.05646,9.03048 0.414044,10.02134 0.940642,11.18514 5.061106,11.18514 4.4272,0 5.02851,-1.28919 5.26562,-11.28936 0.20096,-8.47546 0.24708,-8.69225 1.89923,-8.92626 l 1.69326,-0.23984 -0.24048,9.56273 -0.24048,9.56272 -2.37224,2.11779 c -1.94567,1.73698 -3.02118,2.11779 -5.98127,2.11779 -2.960092,0 -4.035596,-0.38081 -5.981274,-2.11779 z m 20.112424,1.20285 c -0.20426,-0.53232 -0.2803,-5.69253 -0.16895,-11.46714 l 0.20245,-10.49928 7.08232,-0.2079 c 6.70812,-0.19692 7.08233,-0.12976 7.08233,1.27119 0,1.35637 -0.45197,1.47908 -5.44794,1.47908 l -5.44795,0 0,3.26877 0,3.26876 5.44795,0 c 4.96367,0 5.44794,0.12914 5.44794,1.45279 0,1.32365 -0.48427,1.45278 -5.44794,1.45278 l -5.44795,0 0,3.60141 0,3.6014 5.62954,0.21216 c 5.07457,0.19124 5.62954,0.35537 5.62954,1.66494 0,1.33942 -0.55361,1.46902 -7.09497,1.66083 -5.38981,0.15806 -7.18423,-0.0245 -7.46637,-0.75979 z m 25.31915,0.042 c -0.90948,-1.16319 -8.21543,-20.35903 -8.21543,-21.58542 0,-0.49348 0.68602,-0.78422 1.54579,-0.65511 1.25715,0.18878 2.16104,1.89956 4.84076,9.162 1.92573,5.21903 3.51904,8.56733 3.83417,8.05744 0.29656,-0.47984 1.92717,-4.58 3.62358,-9.11148 2.72733,-7.28527 3.28178,-8.23904 4.78953,-8.23904 0.93783,0 1.70508,0.0817 1.70498,0.1816 -9e-5,0.0999 -1.92757,5.24819 -4.28332,11.44068 -3.32807,8.74849 -4.59751,11.30739 -5.69293,11.47573 -0.77538,0.11916 -1.7416,-0.20771 -2.14713,-0.72639 z m 18.95201,-0.16406 c -4.97634,-2.16634 -7.29393,-11.3063 -4.32346,-17.05054 3.42076,-6.61503 13.97512,-6.95878 17.86339,-0.5818 1.88912,3.09826 1.93882,10.10377 0.0961,13.5398 -2.42459,4.52092 -8.47834,6.33783 -13.63599,4.09254 z m 9.4508,-4.10349 c 2.37759,-2.8256 2.77542,-7.37087 1.0307,-11.7759 -0.98555,-2.48827 -2.62431,-3.42259 -6.00313,-3.42259 -3.20211,0 -5.14395,1.80727 -6.2148,5.78409 -2.32796,8.64539 5.96327,15.62273 11.18723,9.41442 z m 11.14205,4.33499 c -2.57948,-0.99218 -2.91797,-4.00063 -0.3632,-3.22805 6.61398,2.00011 10.71429,1.0261 10.71429,-2.54512 0,-2.35409 -0.84356,-2.92963 -6.31699,-4.30993 -3.41891,-0.86217 -6.03168,-3.60654 -6.03168,-6.33545 0,-0.9921 0.93579,-2.70968 2.1233,-3.89719 1.76468,-1.76468 2.7155,-2.12163 5.62954,-2.11339 5.27644,0.015 6.775,0.59948 6.775,2.64274 0,1.51182 -0.19593,1.65195 -1.40503,1.00486 -2.09704,-1.1223 -7.71167,-0.93089 -8.73128,0.29766 -0.4791,0.57728 -0.76428,1.79933 -0.63373,2.71567 0.19665,1.38034 1.04709,1.88268 4.9589,2.9291 5.47269,1.46398 7.26393,3.20516 7.26393,7.06093 0,4.03918 -2.50768,6.07192 -7.81867,6.33788 -2.29174,0.11477 -5.06572,-0.13709 -6.16438,-0.55969 z M 114.14708,274.9147 C 71.453182,268.24912 35.929207,238.62372 22.284087,198.30509 12.372505,169.01833 14.383586,137.88197 27.965418,110.34448 43.016971,79.827096 70.660097,57.555804 103.51089,49.479605 c 9.50069,-2.335694 16.83991,-3.18165 27.60291,-3.18165 30.85368,0 57.76955,10.903303 80.1679,32.475073 41.66221,40.124722 46.56552,105.356152 11.41462,151.855102 -17.99838,23.80894 -45.09847,39.78435 -75.14397,44.29711 -8.79581,1.32111 -24.90841,1.31603 -33.40527,-0.0105 z m 55.45785,-58.55367 c 20.19932,-5.04356 41.35576,-20.74541 45.74093,-33.94794 2.85497,-8.59549 0.63413,-15.73522 -6.70107,-21.54316 -7.7097,-6.10447 -18.54142,-10.019 -33.21058,-12.00214 -7.45621,-1.00801 -21.19609,-0.47496 -26.93442,1.04496 -8.94517,2.36931 -19.36157,9.34575 -22.8135,15.27946 -6.62008,11.37963 -7.37271,19.19621 -3.11199,32.32045 1.67359,5.15512 9.2595,13.42426 15.21331,16.58351 8.52153,4.52174 19.61573,5.31146 31.81732,2.26486 z m 29.48364,-40.44783 c -4.70364,-4.70364 -12.35838,-8.08167 -18.37294,-8.10796 -3.33616,-0.0146 -4.69766,-4.59802 -2.1289,-7.16679 1.16157,-1.16157 1.93663,-1.26563 5.62954,-0.75582 9.04264,1.24834 17.49345,5.58222 21.73915,11.14863 2.17166,2.8472 2.27709,4.99773 0.33998,6.93485 -2.15405,2.15405 -3.33679,1.81714 -7.20683,-2.05291 z M 91.525423,210.84025 c 4.746871,-1.31819 8.694527,-3.89762 13.543267,-8.84927 13.60581,-13.89461 12.72188,-40.60179 -2.16551,-65.42923 -4.4919,-7.49107 -13.187767,-16.49287 -18.26798,-18.91068 -4.784586,-2.27712 -10.876816,-2.70227 -15.178938,-1.05927 -3.690984,1.4096 -9.863961,7.41483 -13.474968,13.1088 -9.338757,14.72569 -13.465447,45.1898 -7.993914,59.01281 6.431742,16.24882 19.426235,24.86079 35.547728,23.55891 2.197337,-0.17744 5.792978,-0.82188 7.990315,-1.43207 z M 59.725791,152.86439 c -2.152182,-1.50746 -2.050394,-3.73516 0.506288,-11.08045 2.527351,-7.26102 4.705375,-10.55577 9.621777,-14.55508 4.116133,-3.34832 6.406419,-3.75309 8.633661,-1.52584 1.754913,1.75491 1.373564,4.0164 -1.008268,5.97927 -5.929046,4.88614 -8.561777,8.86901 -10.325016,15.61994 -1.711585,6.55318 -3.790823,8.11004 -7.428442,5.56216 z m 64.896179,0.30586 c 3.33988,-3.56565 12.193,-9.06334 17.57437,-10.9135 4.33154,-1.48921 6.26331,-1.68491 16.70113,-1.69192 l 11.80304,-0.008 -0.0222,-4.72155 c -0.0801,-17.03737 -6.69929,-38.065326 -14.79836,-47.01169 -4.74568,-5.242162 -11.50118,-8.566961 -16.12037,-7.93383 -10.17481,1.394615 -22.79749,14.147702 -31.73627,32.06417 -5.00744,10.03668 -5.00811,9.4624 0.0189,16.43074 5.15478,7.14543 8.48504,13.5984 12.60725,24.42882 0.82413,2.16525 1.43432,2.06643 3.97249,-0.64331 z m -1.92463,-37.01044 c -1.85004,-1.85004 -1.59737,-3.21015 2.05536,-11.0637 1.95607,-4.20566 3.69844,-6.65519 6.71698,-9.443098 5.61797,-5.188737 8.80871,-6.832337 11.1727,-5.755228 4.14216,1.88729 3.72074,5.758925 -0.88247,8.107307 -3.97634,2.028579 -8.4625,7.532359 -10.70469,13.132929 -1.03965,2.59685 -2.22727,5.13014 -2.63917,5.62954 -1.14534,1.38863 -4.02876,1.0822 -5.71871,-0.60775 z"
       id="path4244"
       inkscape:connector-curvature="0" />
    <path
       style="fill:#f6a65e"
       d="m 69.007263,314.52785 c 0,-11.13801 0.06053,-11.62228 1.452785,-11.62228 1.303781,0 1.452784,0.48427 1.452784,4.72155 l 0,4.72155 5.447942,0 5.447942,0 0,-4.77207 c 0,-4.53332 0.08177,-4.76046 1.634382,-4.53995 1.61464,0.22932 1.634383,0.36815 1.634383,11.4912 0,10.77482 -0.06247,11.25908 -1.452785,11.25908 -1.299566,0 -1.475295,-0.5554 -1.666205,-5.26634 l -0.213422,-5.26635 -5.416118,0 -5.416119,0 0,5.44795 c 0,4.96367 -0.129136,5.44794 -1.452784,5.44794 -1.392252,0 -1.452785,-0.48427 -1.452785,-11.62228 z m 25.253593,9.50449 -2.372237,-2.11779 -0.24048,-9.56272 -0.240479,-9.56273 1.693264,0.23984 c 1.643332,0.23276 1.703971,0.49907 2.05646,9.03048 0.414044,10.02134 0.940642,11.18514 5.061106,11.18514 4.4272,0 5.02851,-1.28919 5.26562,-11.28936 0.20096,-8.47546 0.24708,-8.69225 1.89923,-8.92626 l 1.69326,-0.23984 -0.24048,9.56273 -0.24048,9.56272 -2.37224,2.11779 c -1.94567,1.73698 -3.02118,2.11779 -5.98127,2.11779 -2.960092,0 -4.035596,-0.38081 -5.981274,-2.11779 z m 20.112424,1.20285 c -0.20426,-0.53232 -0.2803,-5.69253 -0.16895,-11.46714 l 0.20245,-10.49928 7.08232,-0.2079 c 6.70812,-0.19692 7.08233,-0.12976 7.08233,1.27119 0,1.35637 -0.45197,1.47908 -5.44794,1.47908 l -5.44795,0 0,3.26877 0,3.26876 5.44795,0 c 4.96367,0 5.44794,0.12914 5.44794,1.45279 0,1.32365 -0.48427,1.45278 -5.44794,1.45278 l -5.44795,0 0,3.60141 0,3.6014 5.62954,0.21216 c 5.07457,0.19124 5.62954,0.35537 5.62954,1.66494 0,1.33942 -0.55361,1.46902 -7.09497,1.66083 -5.38981,0.15806 -7.18423,-0.0245 -7.46637,-0.75979 z m 25.31915,0.042 c -0.90948,-1.16319 -8.21543,-20.35903 -8.21543,-21.58542 0,-0.49348 0.68602,-0.78422 1.54579,-0.65511 1.25715,0.18878 2.16104,1.89956 4.84076,9.162 1.92573,5.21903 3.51904,8.56733 3.83417,8.05744 0.29656,-0.47984 1.92717,-4.58 3.62358,-9.11148 2.72733,-7.28527 3.28178,-8.23904 4.78953,-8.23904 0.93783,0 1.70508,0.0817 1.70498,0.1816 -9e-5,0.0999 -1.92757,5.24819 -4.28332,11.44068 -3.32807,8.74849 -4.59751,11.30739 -5.69293,11.47573 -0.77538,0.11916 -1.7416,-0.20771 -2.14713,-0.72639 z m 18.95201,-0.16406 c -4.97634,-2.16634 -7.29393,-11.3063 -4.32346,-17.05054 3.42076,-6.61503 13.97512,-6.95878 17.86339,-0.5818 1.88912,3.09826 1.93882,10.10377 0.0961,13.5398 -2.42459,4.52092 -8.47834,6.33783 -13.63599,4.09254 z m 9.4508,-4.10349 c 2.37759,-2.8256 2.77542,-7.37087 1.0307,-11.7759 -0.98555,-2.48827 -2.62431,-3.42259 -6.00313,-3.42259 -3.20211,0 -5.14395,1.80727 -6.2148,5.78409 -2.32796,8.64539 5.96327,15.62273 11.18723,9.41442 z m 11.14205,4.33499 c -2.57948,-0.99218 -2.91797,-4.00063 -0.3632,-3.22805 6.61398,2.00011 10.71429,1.0261 10.71429,-2.54512 0,-2.35409 -0.84356,-2.92963 -6.31699,-4.30993 -3.41891,-0.86217 -6.03168,-3.60654 -6.03168,-6.33545 0,-0.9921 0.93579,-2.70968 2.1233,-3.89719 1.76468,-1.76468 2.7155,-2.12163 5.62954,-2.11339 5.27644,0.015 6.775,0.59948 6.775,2.64274 0,1.51182 -0.19593,1.65195 -1.40503,1.00486 -2.09704,-1.1223 -7.71167,-0.93089 -8.73128,0.29766 -0.4791,0.57728 -0.76428,1.79933 -0.63373,2.71567 0.19665,1.38034 1.04709,1.88268 4.9589,2.9291 5.47269,1.46398 7.26393,3.20516 7.26393,7.06093 0,4.03918 -2.50768,6.07192 -7.81867,6.33788 -2.29174,0.11477 -5.06572,-0.13709 -6.16438,-0.55969 z M 120.94431,275.6103 C 105.19907,273.4127 99.641585,272.08856 89.142268,268.03312 62.422758,257.71248 38.871289,235.67227 27.05229,209.92736 14.420057,182.41102 12.769975,152.5632 22.314247,124.2224 30.35775,100.33799 45.935076,80.037183 67.191283,65.737384 100.62353,43.246328 143.73436,40.080913 180.72319,57.401296 c 8.64457,4.047909 21.01737,12.516163 28.64496,19.605342 27.84554,25.879992 41.22557,64.411212 35.31055,101.685862 -3.94075,24.83345 -14.94093,46.26994 -32.86876,64.05269 -16.81507,16.67902 -37.22039,27.22576 -61.07069,31.56516 -5.70488,1.03797 -25.48789,1.90109 -29.79494,1.29995 z m 42.49394,-57.72213 c 10.55608,-1.66548 25.2527,-8.05419 34.50364,-14.99896 16.21046,-12.16936 22.22835,-24.5238 16.91679,-34.7294 -6.61706,-12.71394 -29.57307,-21.02107 -54.5553,-19.74201 -13.07069,0.66921 -19.90916,3.10046 -28.7154,10.2091 -3.99144,3.22199 -5.06336,4.64844 -7.9824,10.6225 -2.94075,6.01847 -3.40541,7.60965 -3.63443,12.44574 -0.94658,19.98894 12.03954,34.53179 32.57122,36.47572 5.0735,0.48036 6.25353,0.44974 10.89588,-0.28269 z m 35.04111,-42.54177 c -3.45463,-3.65933 -9.01856,-6.44242 -14.39959,-7.20269 -4.48168,-0.6332 -6.84688,-2.08258 -6.81696,-4.1774 0.0606,-4.24464 3.19311,-5.05167 11.55276,-2.97634 6.58588,1.63498 10.65207,3.85677 15.11905,8.26116 3.92758,3.87255 4.59272,5.81172 2.80239,8.17018 -1.75045,2.30593 -4.85936,1.52475 -8.25765,-2.07491 z M 91.56982,211.00524 c 1.968305,-0.51923 5.672331,-2.43801 8.231172,-4.26396 10.230858,-7.30059 14.968978,-17.45202 14.968978,-32.07103 0,-16.33018 -8.16129,-36.21956 -20.08947,-48.95881 -12.852116,-13.72601 -25.009394,-14.03573 -35.315901,-0.89972 -5.5902,7.12491 -8.985,15.14967 -12.192142,28.82024 -2.275629,9.69997 -2.27912,26.44386 -0.0069,33.05085 2.242027,6.51917 5.548733,12.09213 9.558092,16.10875 4.096929,4.10433 12.760115,8.68898 17.731546,9.38371 4.478608,0.62585 12.345508,0.088 17.114615,-1.17003 z M 59.612694,152.60432 c -1.729548,-1.3294 -1.747338,-1.44977 -0.829558,-5.61338 1.68598,-7.64863 5.13957,-13.98313 10.141375,-18.60111 4.808115,-4.43915 6.989202,-5.12561 9.050072,-2.84837 2.064181,2.28089 1.533443,5.06269 -1.282947,6.7244 -4.33398,2.55711 -8.185169,8.75145 -9.896752,15.91816 -1.383997,5.79505 -3.610709,7.16548 -7.18219,4.4203 z m 66.983026,-0.98412 c 5.76459,-4.8838 8.55585,-6.58666 14.75871,-9.00381 4.66731,-1.81878 5.86656,-1.96352 17.36228,-2.09539 11.01298,-0.12634 12.37537,-0.27631 12.59554,-1.38643 0.40589,-2.0466 -2.00964,-19.20808 -3.58276,-25.45418 -4.03894,-16.036671 -10.81868,-26.601161 -20.01416,-31.18697 -2.08385,-1.03922 -4.98539,-1.863879 -6.55802,-1.863879 -4.19681,0 -12.2289,4.192787 -16.94979,8.847872 -6.77857,6.684073 -17.38847,23.412327 -19.66182,31.000117 -0.85716,2.86094 -0.82058,2.96459 2.80618,7.95094 4.77575,6.56606 7.4268,11.36401 10.71504,19.39236 2.91707,7.12212 3.15996,7.62711 3.66852,7.62711 0.18821,0 2.37534,-1.72248 4.86028,-3.82774 z m -3.73609,-35.65489 c -1.57172,-1.67302 -1.58078,-1.78764 -0.41621,-5.26635 3.04806,-9.10499 8.85459,-16.473418 15.75607,-19.994292 3.12725,-1.595398 5.22344,-1.289027 6.4151,0.937612 1.27218,2.377083 0.18083,4.814209 -2.84767,6.359238 -1.51905,0.774958 -3.99546,2.774412 -5.50313,4.443222 -2.59209,2.86913 -6.96415,10.93141 -6.9654,12.84448 -6.4e-4,0.97961 -2.25328,2.38633 -3.82135,2.38633 -0.5559,0 -1.73373,-0.76961 -2.61741,-1.71024 z"
       id="path4242"
       inkscape:connector-curvature="0" />
    <path
       style="fill:#a2a2a2"
       d="m 69.007263,314.52785 c 0,-11.13801 0.06053,-11.62228 1.452785,-11.62228 1.303781,0 1.452784,0.48427 1.452784,4.72155 l 0,4.72155 5.447942,0 5.447942,0 0,-4.77207 c 0,-4.53332 0.08177,-4.76046 1.634382,-4.53995 1.61464,0.22932 1.634383,0.36815 1.634383,11.4912 0,10.77482 -0.06247,11.25908 -1.452785,11.25908 -1.299566,0 -1.475295,-0.5554 -1.666205,-5.26634 l -0.213422,-5.26635 -5.416118,0 -5.416119,0 0,5.44795 c 0,4.96367 -0.129136,5.44794 -1.452784,5.44794 -1.392252,0 -1.452785,-0.48427 -1.452785,-11.62228 z m 25.253593,9.50449 -2.372237,-2.11779 -0.24048,-9.56272 -0.240479,-9.56273 1.693264,0.23984 c 1.643332,0.23276 1.703971,0.49907 2.05646,9.03048 0.414044,10.02134 0.940642,11.18514 5.061106,11.18514 4.4272,0 5.02851,-1.28919 5.26562,-11.28936 0.20096,-8.47546 0.24708,-8.69225 1.89923,-8.92626 l 1.69326,-0.23984 -0.24048,9.56273 -0.24048,9.56272 -2.37224,2.11779 c -1.94567,1.73698 -3.02118,2.11779 -5.98127,2.11779 -2.960092,0 -4.035596,-0.38081 -5.981274,-2.11779 z m 20.112424,1.20285 c -0.20426,-0.53232 -0.2803,-5.69253 -0.16895,-11.46714 l 0.20245,-10.49928 7.08232,-0.2079 c 6.70812,-0.19692 7.08233,-0.12976 7.08233,1.27119 0,1.35637 -0.45197,1.47908 -5.44794,1.47908 l -5.44795,0 0,3.26877 0,3.26876 5.44795,0 c 4.96367,0 5.44794,0.12914 5.44794,1.45279 0,1.32365 -0.48427,1.45278 -5.44794,1.45278 l -5.44795,0 0,3.60141 0,3.6014 5.62954,0.21216 c 5.07457,0.19124 5.62954,0.35537 5.62954,1.66494 0,1.33942 -0.55361,1.46902 -7.09497,1.66083 -5.38981,0.15806 -7.18423,-0.0245 -7.46637,-0.75979 z m 25.31915,0.042 c -0.90948,-1.16319 -8.21543,-20.35903 -8.21543,-21.58542 0,-0.49348 0.68602,-0.78422 1.54579,-0.65511 1.25715,0.18878 2.16104,1.89956 4.84076,9.162 1.92573,5.21903 3.51904,8.56733 3.83417,8.05744 0.29656,-0.47984 1.92717,-4.58 3.62358,-9.11148 2.72733,-7.28527 3.28178,-8.23904 4.78953,-8.23904 0.93783,0 1.70508,0.0817 1.70498,0.1816 -9e-5,0.0999 -1.92757,5.24819 -4.28332,11.44068 -3.32807,8.74849 -4.59751,11.30739 -5.69293,11.47573 -0.77538,0.11916 -1.7416,-0.20771 -2.14713,-0.72639 z m 18.95201,-0.16406 c -4.97634,-2.16634 -7.29393,-11.3063 -4.32346,-17.05054 3.42076,-6.61503 13.97512,-6.95878 17.86339,-0.5818 1.88912,3.09826 1.93882,10.10377 0.0961,13.5398 -2.42459,4.52092 -8.47834,6.33783 -13.63599,4.09254 z m 9.4508,-4.10349 c 2.37759,-2.8256 2.77542,-7.37087 1.0307,-11.7759 -0.98555,-2.48827 -2.62431,-3.42259 -6.00313,-3.42259 -3.20211,0 -5.14395,1.80727 -6.2148,5.78409 -2.32796,8.64539 5.96327,15.62273 11.18723,9.41442 z m 11.14205,4.33499 c -2.57948,-0.99218 -2.91797,-4.00063 -0.3632,-3.22805 6.61398,2.00011 10.71429,1.0261 10.71429,-2.54512 0,-2.35409 -0.84356,-2.92963 -6.31699,-4.30993 -3.41891,-0.86217 -6.03168,-3.60654 -6.03168,-6.33545 0,-0.9921 0.93579,-2.70968 2.1233,-3.89719 1.76468,-1.76468 2.7155,-2.12163 5.62954,-2.11339 5.27644,0.015 6.775,0.59948 6.775,2.64274 0,1.51182 -0.19593,1.65195 -1.40503,1.00486 -2.09704,-1.1223 -7.71167,-0.93089 -8.73128,0.29766 -0.4791,0.57728 -0.76428,1.79933 -0.63373,2.71567 0.19665,1.38034 1.04709,1.88268 4.9589,2.9291 5.47269,1.46398 7.26393,3.20516 7.26393,7.06093 0,4.03918 -2.50768,6.07192 -7.81867,6.33788 -2.29174,0.11477 -5.06572,-0.13709 -6.16438,-0.55969 z m -59.38257,-50.0842 c -47.626788,-4.3665 -88.633808,-39.88902 -100.157199,-86.76164 -3.398028,-13.82184 -4.172506,-31.9887 -1.941875,-45.5504 6.122321,-37.22226 29.008894,-67.933919 63.451186,-85.145607 30.248568,-15.115983 69.565368,-15.115983 99.813938,0 34.44229,17.211688 57.32886,47.923347 63.45118,85.145607 1.39196,8.4628 1.57273,25.7681 0.3544,33.92813 -7.96102,53.32051 -50.36597,93.63835 -103.54306,98.44679 -8.2996,0.75047 -12.69772,0.73757 -21.42857,-0.0629 z m 45.76271,-57.64602 c 26.67159,-5.67403 51.24026,-25.9333 51.16515,-42.19067 -0.0529,-11.44798 -11.82133,-20.70165 -32.10298,-25.24299 -8.76804,-1.96329 -30.05763,-2.32234 -36.13239,-0.60938 -9.62241,2.71332 -19.82336,9.77661 -23.392,16.19699 -4.68465,8.42822 -5.5263,11.60112 -5.12164,19.30816 0.62933,11.98611 4.53461,19.78848 13.15478,26.28196 8.26944,6.22928 21.00534,8.68618 32.42908,6.25593 z m 33.55143,-42.12921 c -3.74073,-3.92498 -8.24679,-6.18883 -15.33833,-7.70605 -6.2735,-1.34218 -7.54686,-2.56718 -5.84015,-5.61834 1.45291,-2.59745 3.13426,-2.76131 10.14426,-0.98863 7.66103,1.93731 10.26139,3.24511 14.92223,7.50486 4.53899,4.14839 5.25824,5.77326 3.64522,8.23505 -1.75608,2.68012 -4.02937,2.24953 -7.53323,-1.42689 z M 87.167069,212.07474 c 9.877925,-1.56325 19.099761,-8.45674 23.582721,-17.62851 3.55981,-7.28309 5.16382,-16.9243 4.13158,-24.83364 -2.85204,-21.85301 -16.635788,-45.66969 -30.069177,-51.95594 -7.097085,-3.32112 -10.408969,-3.50916 -15.970199,-0.90674 -9.529845,4.45954 -17.005128,16.59994 -21.222085,34.46618 -2.218851,9.40074 -3.102394,23.72216 -1.874379,30.38198 1.666601,9.03836 8.082368,20.1336 13.931098,24.09202 9.656513,6.53553 16.497541,8.12435 27.490441,6.38465 z M 59.709442,152.3971 c -3.124745,-3.12475 1.873336,-16.51078 8.668813,-23.21712 4.876768,-4.81279 6.547885,-5.53934 9.018083,-3.92081 2.800141,1.83473 2.296845,4.16687 -1.585859,7.34845 -4.167058,3.41459 -7.247809,8.16557 -8.687366,13.39723 -1.815532,6.59802 -2.227373,7.26392 -4.492528,7.26392 -1.12721,0 -2.441724,-0.39225 -2.921143,-0.87167 z m 73.220338,-5.44473 c 1.79782,-1.21535 5.72034,-3.12487 8.71671,-4.24337 5.13484,-1.91677 6.1472,-2.03704 17.61501,-2.09287 l 12.16707,-0.0592 0,-2.20935 c 0,-4.70281 -2.32477,-19.90499 -4.04988,-26.48314 -2.43749,-9.2945 -7.37456,-19.29396 -11.73445,-23.766764 -4.77995,-4.903736 -10.76247,-7.761167 -15.2812,-7.298761 -5.29597,0.541933 -11.59361,3.924705 -16.52887,8.878461 -6.97122,6.997351 -15.13336,19.774754 -19.16366,29.999714 l -1.36054,3.45171 3.19454,4.35572 c 5.29974,7.22614 7.95219,11.94438 11.5378,20.52373 l 3.41774,8.1777 4.10049,-3.51191 c 2.25526,-1.93155 5.57142,-4.50629 7.36924,-5.72164 z m -8.76271,-30.24866 c -2.6583,-1.31837 -2.56016,-4.01036 0.37807,-10.36977 3.41278,-7.386514 5.26588,-9.702522 10.6285,-13.283548 4.96951,-3.318509 7.07109,-3.673206 9.01789,-1.522017 1.82274,2.014104 0.56994,4.574862 -3.17212,6.483915 -1.5754,0.803709 -3.89049,2.69656 -5.14466,4.20634 -2.03133,2.44533 -5.76341,9.37959 -6.82741,12.68543 -0.63932,1.98635 -2.85577,2.80369 -4.88027,1.79965 z"
       id="path4240"
       inkscape:connector-curvature="0" />
    <path
       style="fill:#f48c2e"
       d="m 96.038185,325.05574 c -3.635099,-1.57938 -4.602283,-4.68925 -4.355389,-14.00429 0.178162,-6.72181 0.376663,-7.79818 1.477009,-8.00893 1.140952,-0.21853 1.271187,0.48806 1.271187,6.89691 0,7.45523 0.786029,11.70704 2.347503,12.69814 0.506695,0.32161 2.06533,0.58474 3.463635,0.58474 1.3983,0 2.95694,-0.26313 3.46363,-0.58474 1.56148,-0.9911 2.34751,-5.24291 2.34751,-12.69814 0,-6.40885 0.13023,-7.11544 1.27118,-6.89691 1.10035,0.21075 1.29885,1.28712 1.47701,8.00893 0.25091,9.46656 -0.70692,12.44424 -4.5147,14.03523 -3.14658,1.31473 -5.168839,1.30714 -8.248575,-0.0309 z m 63.056195,-0.13877 c -3.82135,-1.97911 -5.82562,-5.47538 -5.82562,-10.16228 0,-7.78462 4.54399,-12.4265 11.40714,-11.65292 5.38667,0.60715 8.93271,5.05757 8.93072,11.20841 -0.003,8.66218 -7.57745,14.19839 -14.51224,10.60679 z m 9.04025,-3.39719 c 3.33526,-3.33525 3.0998,-11.50786 -0.42339,-14.6963 -2.35081,-2.12746 -6.93752,-1.80199 -9.03925,0.64142 -3.22523,3.74956 -3.19523,10.78976 0.0599,14.04484 2.40056,2.40055 7.00738,2.40547 9.40281,0.01 z m 12.45152,3.99961 c -2.06011,-0.44981 -4.06599,-2.5238 -3.2399,-3.3499 0.2301,-0.2301 1.30217,-0.0823 2.38238,0.32835 1.0802,0.4107 3.40614,0.74672 5.16874,0.74672 2.61681,0 3.42302,-0.33315 4.39461,-1.81598 1.08168,-1.65087 1.08696,-1.97304 0.058,-3.54337 -0.70199,-1.07137 -2.1725,-1.92263 -3.87201,-2.24145 -5.82467,-1.09272 -8.92803,-4.24508 -7.8077,-7.93098 1.17971,-3.88122 4.81283,-5.38408 10.83332,-4.48125 2.58952,0.38832 3.26392,0.78329 3.26392,1.91157 0,1.2013 -0.31017,1.33618 -1.99758,0.86867 -5.04867,-1.39878 -8.89831,-0.044 -8.89831,3.13152 0,1.93352 1.35825,2.84928 5.33163,3.59469 3.86345,0.72478 7.01704,3.53839 7.01704,6.26055 0,5.54587 -5.08337,8.16954 -12.63418,6.52086 z M 69.007263,314.16465 c 0,-10.77481 0.06248,-11.25908 1.452785,-11.25908 1.303781,0 1.452784,0.48427 1.452784,4.72155 l 0,4.72155 5.413279,0 5.413285,0 0.216254,-4.53265 c 0.173485,-3.63604 0.467717,-4.58056 1.487448,-4.77481 1.166601,-0.22224 1.271187,0.68854 1.271187,11.07019 0,10.82807 -0.06218,11.31234 -1.452785,11.31234 -1.314421,0 -1.452784,-0.48427 -1.452784,-5.08475 l 0,-5.08475 -5.447942,0 -5.447942,0 0,5.08475 c 0,4.60048 -0.13836,5.08475 -1.452784,5.08475 -1.390299,0 -1.452785,-0.48427 -1.452785,-11.25909 z m 45.762707,0 0,-11.25908 6.90073,0 c 6.41646,0 6.90073,0.10195 6.90073,1.45279 0,1.32365 -0.48427,1.45278 -5.44794,1.45278 l -5.44795,0 0,3.26877 0,3.26876 5.08475,0 c 4.60048,0 5.08474,0.13837 5.08474,1.45279 0,1.31442 -0.48426,1.45278 -5.08474,1.45278 l -5.08475,0 0,3.99516 0,3.99516 5.44795,0 c 4.35835,0 5.44794,0.21792 5.44794,1.08959 0,0.89206 -1.25101,1.08959 -6.90073,1.08959 l -6.90073,0 0,-11.25909 z m 22.85398,6.03336 c -1.10078,-2.91882 -2.93416,-7.68532 -4.07419,-10.59221 -2.4484,-6.24306 -2.49649,-6.70023 -0.7049,-6.70023 1.08899,0 2.08779,1.93042 4.89919,9.46888 2.59491,6.95795 3.68105,9.12494 4.09593,8.17191 0.31052,-0.71332 1.96073,-4.89083 3.66712,-9.28334 2.0758,-5.34344 3.51286,-8.0654 4.34251,-8.22517 0.68198,-0.13134 1.23998,0.20179 1.23998,0.7403 0,0.53851 -1.74659,5.54734 -3.88131,11.13074 -3.48636,9.11865 -4.06964,10.17426 -5.73211,10.37387 -1.68757,0.20262 -2.02732,-0.24585 -3.85222,-5.08475 z M 119.85472,275.26042 C 72.227932,270.89393 31.220912,235.37141 19.697521,188.49879 c -3.398028,-13.82184 -4.172506,-31.9887 -1.941875,-45.5504 6.122321,-37.22226 29.008894,-67.933919 63.451186,-85.145607 30.248568,-15.115983 69.565368,-15.115983 99.813938,0 34.44229,17.211688 57.32886,47.923347 63.45118,85.145607 1.39196,8.4628 1.57273,25.7681 0.3544,33.92813 -7.96102,53.32051 -50.36597,93.63835 -103.54306,98.44679 -8.2996,0.75047 -12.69772,0.73757 -21.42857,-0.0629 z m 45.76271,-57.64602 c 26.67159,-5.67403 51.24026,-25.9333 51.16515,-42.19067 -0.0529,-11.44798 -11.82133,-20.70165 -32.10298,-25.24299 -8.76804,-1.96329 -30.05763,-2.32234 -36.13239,-0.60938 -9.62241,2.71332 -19.82336,9.77661 -23.392,16.19699 -4.68465,8.42822 -5.5263,11.60112 -5.12164,19.30816 0.62933,11.98611 4.53461,19.78848 13.15478,26.28196 8.26944,6.22928 21.00534,8.68618 32.42908,6.25593 z m 33.55143,-42.12921 c -3.74073,-3.92498 -8.24679,-6.18883 -15.33833,-7.70605 -6.2735,-1.34218 -7.54686,-2.56718 -5.84015,-5.61834 1.45291,-2.59745 3.13426,-2.76131 10.14426,-0.98863 7.66103,1.93731 10.26139,3.24511 14.92223,7.50486 4.53899,4.14839 5.25824,5.77326 3.64522,8.23505 -1.75608,2.68012 -4.02937,2.24953 -7.53323,-1.42689 z M 87.167069,212.07474 c 9.877925,-1.56325 19.099761,-8.45674 23.582721,-17.62851 3.55981,-7.28309 5.16382,-16.9243 4.13158,-24.83364 -2.85204,-21.85301 -16.635788,-45.66969 -30.069177,-51.95594 -7.097085,-3.32112 -10.408969,-3.50916 -15.970199,-0.90674 -9.529845,4.45954 -17.005128,16.59994 -21.222085,34.46618 -2.218851,9.40074 -3.102394,23.72216 -1.874379,30.38198 1.666601,9.03836 8.082368,20.1336 13.931098,24.09202 9.656513,6.53553 16.497541,8.12435 27.490441,6.38465 z M 59.709442,152.3971 c -3.124745,-3.12475 1.873336,-16.51078 8.668813,-23.21712 4.876768,-4.81279 6.547885,-5.53934 9.018083,-3.92081 2.800141,1.83473 2.296845,4.16687 -1.585859,7.34845 -4.167058,3.41459 -7.247809,8.16557 -8.687366,13.39723 -1.815532,6.59802 -2.227373,7.26392 -4.492528,7.26392 -1.12721,0 -2.441724,-0.39225 -2.921143,-0.87167 z m 73.220338,-5.44473 c 1.79782,-1.21535 5.72034,-3.12487 8.71671,-4.24337 5.13484,-1.91677 6.1472,-2.03704 17.61501,-2.09287 l 12.16707,-0.0592 0,-2.20935 c 0,-4.70281 -2.32477,-19.90499 -4.04988,-26.48314 -2.43749,-9.2945 -7.37456,-19.29396 -11.73445,-23.766764 -4.77995,-4.903736 -10.76247,-7.761167 -15.2812,-7.298761 -5.29597,0.541933 -11.59361,3.924705 -16.52887,8.878461 -6.97122,6.997351 -15.13336,19.774754 -19.16366,29.999714 l -1.36054,3.45171 3.19454,4.35572 c 5.29974,7.22614 7.95219,11.94438 11.5378,20.52373 l 3.41774,8.1777 4.10049,-3.51191 c 2.25526,-1.93155 5.57142,-4.50629 7.36924,-5.72164 z m -8.76271,-30.24866 c -2.6583,-1.31837 -2.56016,-4.01036 0.37807,-10.36977 3.41278,-7.386514 5.26588,-9.702522 10.6285,-13.283548 4.96951,-3.318509 7.07109,-3.673206 9.01789,-1.522017 1.82274,2.014104 0.56994,4.574862 -3.17212,6.483915 -1.5754,0.803709 -3.89049,2.69656 -5.14466,4.20634 -2.03133,2.44533 -5.76341,9.37959 -6.82741,12.68543 -0.63932,1.98635 -2.85577,2.80369 -4.88027,1.79965 z"
       id="path4238"
       inkscape:connector-curvature="0" />
    <path
       style="fill:#606060"
       d="m 96.038185,325.05574 c -3.635099,-1.57938 -4.602283,-4.68925 -4.355389,-14.00429 0.178162,-6.72181 0.376663,-7.79818 1.477009,-8.00893 1.140952,-0.21853 1.271187,0.48806 1.271187,6.89691 0,7.45523 0.786029,11.70704 2.347503,12.69814 0.506695,0.32161 2.06533,0.58474 3.463635,0.58474 1.3983,0 2.95694,-0.26313 3.46363,-0.58474 1.56148,-0.9911 2.34751,-5.24291 2.34751,-12.69814 0,-6.40885 0.13023,-7.11544 1.27118,-6.89691 1.10035,0.21075 1.29885,1.28712 1.47701,8.00893 0.25091,9.46656 -0.70692,12.44424 -4.5147,14.03523 -3.14658,1.31473 -5.168839,1.30714 -8.248575,-0.0309 z m 63.056195,-0.13877 c -3.82135,-1.97911 -5.82562,-5.47538 -5.82562,-10.16228 0,-7.78462 4.54399,-12.4265 11.40714,-11.65292 5.38667,0.60715 8.93271,5.05757 8.93072,11.20841 -0.003,8.66218 -7.57745,14.19839 -14.51224,10.60679 z m 9.04025,-3.39719 c 3.33526,-3.33525 3.0998,-11.50786 -0.42339,-14.6963 -2.35081,-2.12746 -6.93752,-1.80199 -9.03925,0.64142 -3.22523,3.74956 -3.19523,10.78976 0.0599,14.04484 2.40056,2.40055 7.00738,2.40547 9.40281,0.01 z m 12.45152,3.99961 c -2.06011,-0.44981 -4.06599,-2.5238 -3.2399,-3.3499 0.2301,-0.2301 1.30217,-0.0823 2.38238,0.32835 1.0802,0.4107 3.40614,0.74672 5.16874,0.74672 2.61681,0 3.42302,-0.33315 4.39461,-1.81598 1.08168,-1.65087 1.08696,-1.97304 0.058,-3.54337 -0.70199,-1.07137 -2.1725,-1.92263 -3.87201,-2.24145 -5.82467,-1.09272 -8.92803,-4.24508 -7.8077,-7.93098 1.17971,-3.88122 4.81283,-5.38408 10.83332,-4.48125 2.58952,0.38832 3.26392,0.78329 3.26392,1.91157 0,1.2013 -0.31017,1.33618 -1.99758,0.86867 -5.04867,-1.39878 -8.89831,-0.044 -8.89831,3.13152 0,1.93352 1.35825,2.84928 5.33163,3.59469 3.86345,0.72478 7.01704,3.53839 7.01704,6.26055 0,5.54587 -5.08337,8.16954 -12.63418,6.52086 z M 69.007263,314.16465 c 0,-10.77481 0.06248,-11.25908 1.452785,-11.25908 1.303781,0 1.452784,0.48427 1.452784,4.72155 l 0,4.72155 5.413279,0 5.413285,0 0.216254,-4.53265 c 0.173485,-3.63604 0.467717,-4.58056 1.487448,-4.77481 1.166601,-0.22224 1.271187,0.68854 1.271187,11.07019 0,10.82807 -0.06218,11.31234 -1.452785,11.31234 -1.314421,0 -1.452784,-0.48427 -1.452784,-5.08475 l 0,-5.08475 -5.447942,0 -5.447942,0 0,5.08475 c 0,4.60048 -0.13836,5.08475 -1.452784,5.08475 -1.390299,0 -1.452785,-0.48427 -1.452785,-11.25909 z m 45.762707,0 0,-11.25908 6.90073,0 c 6.41646,0 6.90073,0.10195 6.90073,1.45279 0,1.32365 -0.48427,1.45278 -5.44794,1.45278 l -5.44795,0 0,3.26877 0,3.26876 5.08475,0 c 4.60048,0 5.08474,0.13837 5.08474,1.45279 0,1.31442 -0.48426,1.45278 -5.08474,1.45278 l -5.08475,0 0,3.99516 0,3.99516 5.44795,0 c 4.35835,0 5.44794,0.21792 5.44794,1.08959 0,0.89206 -1.25101,1.08959 -6.90073,1.08959 l -6.90073,0 0,-11.25909 z m 22.85398,6.03336 c -1.10078,-2.91882 -2.93416,-7.68532 -4.07419,-10.59221 -2.4484,-6.24306 -2.49649,-6.70023 -0.7049,-6.70023 1.08899,0 2.08779,1.93042 4.89919,9.46888 2.59491,6.95795 3.68105,9.12494 4.09593,8.17191 0.31052,-0.71332 1.96073,-4.89083 3.66712,-9.28334 2.0758,-5.34344 3.51286,-8.0654 4.34251,-8.22517 0.68198,-0.13134 1.23998,0.20179 1.23998,0.7403 0,0.53851 -1.74659,5.54734 -3.88131,11.13074 -3.48636,9.11865 -4.06964,10.17426 -5.73211,10.37387 -1.68757,0.20262 -2.02732,-0.24585 -3.85222,-5.08475 z"
       id="path4236"
       inkscape:connector-curvature="0" />
    <path
       style="fill:#050505"
       d="m 98.062953,325.5011 c -4.995291,-1.21188 -5.811138,-3.10269 -5.811138,-13.46787 0,-6.76273 0.200644,-8.40126 1.028753,-8.40126 0.816596,0 1.078751,1.7927 1.271186,8.69276 0.280446,10.05587 0.884456,11.25001 5.690376,11.25001 4.80592,0 5.40993,-1.19414 5.69037,-11.25001 0.22884,-8.20532 0.32608,-8.69276 1.7341,-8.69276 1.44032,0 1.4795,0.29512 1.13851,8.57475 -0.45107,10.95215 -1.1891,12.34395 -7.1102,13.40847 -0.99879,0.17956 -2.633168,0.12823 -3.631957,-0.11409 z m 84.624697,0.15499 c -4.34513,-0.86413 -4.72155,-1.05454 -4.72155,-2.38831 0,-1.31775 0.15117,-1.33871 2.51904,-0.34935 3.04184,1.27096 4.8079,1.32363 7.23912,0.21589 2.06435,-0.94058 2.91109,-2.82012 2.23298,-4.95664 -0.32315,-1.01817 -1.91649,-1.87004 -5.48607,-2.9331 -5.26011,-1.56654 -6.50507,-2.74634 -6.50507,-6.16467 0,-2.90037 1.1801,-4.51889 3.96495,-5.43797 3.05754,-1.00908 9.06011,-0.25908 9.62081,1.20209 0.59127,1.5408 0.12424,1.66115 -3.10335,0.79965 -3.78948,-1.01147 -6.68665,-0.2604 -7.7168,2.00054 -1.15448,2.5338 0.62035,4.25566 5.51584,5.35123 4.21182,0.94256 5.86069,2.25618 6.61211,5.26773 0.65085,2.60847 -1.33748,6.30792 -3.64769,6.78683 -3.62689,0.75187 -5.10215,0.88891 -6.52432,0.60608 z M 69.007263,314.52785 c 0,-10.41162 0.06457,-10.89588 1.452785,-10.89588 1.291364,0 1.452784,0.48426 1.452784,4.35835 l 0,4.35835 5.811138,0 5.811138,0 0,-4.35835 c 0,-3.38983 0.242128,-4.35835 1.089588,-4.35835 0.9201,0 1.089589,1.69491 1.089589,10.89588 0,9.05528 -0.178685,10.89589 -1.057765,10.89589 -0.809201,0 -1.107916,-1.23754 -1.271187,-5.26635 l -0.213421,-5.26634 -5.62954,-0.21215 -5.62954,-0.21216 0,5.4785 c 0,4.99423 -0.128416,5.4785 -1.452784,5.4785 -1.388217,0 -1.452785,-0.48427 -1.452785,-10.89589 z m 45.762707,0 0,-10.89588 6.90073,0 c 5.64972,0 6.90073,0.19752 6.90073,1.08959 0,0.87167 -1.08959,1.08958 -5.44794,1.08958 l -5.44795,0 0,3.26877 0,3.26876 5.08475,0 c 4.03551,0 5.08474,0.22484 5.08474,1.08959 0,0.86476 -1.04923,1.08959 -5.08474,1.08959 l -5.08475,0 0,4.35835 0,4.35836 5.44795,0 c 4.35835,0 5.44794,0.21792 5.44794,1.08959 0,0.89206 -1.25101,1.08959 -6.90073,1.08959 l -6.90073,0 0,-10.89589 z m 20.97605,0.18084 c -3.27728,-8.59625 -3.8687,-10.76354 -2.99261,-10.96659 1.43529,-0.33267 1.68822,0.13867 5.28995,9.85792 1.68919,4.55828 3.31595,8.02102 3.61501,7.69497 0.29907,-0.32604 1.96627,-4.4336 3.70491,-9.12791 2.3999,-6.47976 3.47,-8.53511 4.44372,-8.53511 1.62225,0 1.65769,-0.26789 -0.79018,5.97383 -1.14002,2.90689 -2.96642,7.6551 -4.05866,10.55159 -1.62247,4.30258 -2.27337,5.26621 -3.55677,5.26558 -1.35445,-6.6e-4 -2.13364,-1.47687 -5.65537,-10.71428 z m 20.78404,8.31048 c -4.0397,-4.0397 -4.34911,-12.03494 -0.63649,-16.44713 3.83748,-4.56058 11.24448,-4.56939 15.07428,-0.0179 3.67692,4.36976 3.18503,12.6251 -1.00173,16.81185 -1.81524,1.81525 -2.58657,2.05777 -6.54463,2.05777 -4.11034,0 -4.68865,-0.20178 -6.89143,-2.40456 z m 9.40295,0.2435 c 3.19797,-1.21587 4.89057,-4.82456 4.57346,-9.75079 -0.24005,-3.7292 -0.57636,-4.55327 -2.59389,-6.35593 -3.05317,-2.72801 -5.91268,-2.71264 -9.00281,0.0484 -2.24952,2.00994 -2.37224,2.38177 -2.37224,7.18766 0,4.04554 0.29311,5.39387 1.45278,6.68285 2.42371,2.69397 4.85207,3.36286 7.9427,2.18781 z"
       id="path4234"
       inkscape:connector-curvature="0" />
  </g>
</svg>
