<?xml version="1.0" encoding="UTF-8" standalone="no"?>
<!-- Created with Inkscape (http://www.inkscape.org/) -->

<svg
   xmlns:dc="http://purl.org/dc/elements/1.1/"
   xmlns:cc="http://creativecommons.org/ns#"
   xmlns:rdf="http://www.w3.org/1999/02/22-rdf-syntax-ns#"
   xmlns:svg="http://www.w3.org/2000/svg"
   xmlns="http://www.w3.org/2000/svg"
   xmlns:sodipodi="http://sodipodi.sourceforge.net/DTD/sodipodi-0.dtd"
   xmlns:inkscape="http://www.inkscape.org/namespaces/inkscape"
   id="svg4306"
   version="1.1"
   inkscape:version="0.91 r13725"
   width="100"
   height="100"
   viewBox="0 0 100 100"
   sodipodi:docname="molus50.svg">
  <metadata
     id="metadata4312">
    <rdf:RDF>
      <cc:Work
         rdf:about="">
        <dc:format>image/svg+xml</dc:format>
        <dc:type
           rdf:resource="http://purl.org/dc/dcmitype/StillImage" />
        <dc:title />
      </cc:Work>
    </rdf:RDF>
  </metadata>
  <defs
     id="defs4310">
    <clipPath
       clipPathUnits="userSpaceOnUse"
       id="clipPath4336">
      <rect
         style="opacity:0.181;fill:#ff0000;fill-opacity:1;fill-rule:nonzero;stroke:none;stroke-width:3.5999999;stroke-linecap:round;stroke-linejoin:round;stroke-miterlimit:4;stroke-dasharray:none;stroke-opacity:1"
         id="rect4338"
         width="240"
         height="240"
         x="10.938613"
         y="39.59095" />
    </clipPath>
    <clipPath
       clipPathUnits="userSpaceOnUse"
       id="clipPath4267">
      <circle
         style="opacity:0.181;fill:#ff0000;fill-rule:evenodd;stroke:none;stroke-width:1px;stroke-linecap:butt;stroke-linejoin:miter;stroke-opacity:1"
         id="circle4269"
         cx="130.93861"
         cy="159.59096"
         r="117.6" />
    </clipPath>
  </defs>
  <sodipodi:namedview
     pagecolor="#ffffff"
     bordercolor="#666666"
     borderopacity="1"
     objecttolerance="10"
     gridtolerance="10"
     guidetolerance="10"
     inkscape:pageopacity="0"
     inkscape:pageshadow="2"
     inkscape:window-width="1920"
     inkscape:window-height="1017"
     id="namedview4308"
     showgrid="false"
     fit-margin-top="0"
     fit-margin-left="0"
     fit-margin-right="0"
     fit-margin-bottom="0"
     inkscape:zoom="1.4182101"
     inkscape:cx="110.54921"
     inkscape:cy="96.259799"
     inkscape:window-x="-8"
     inkscape:window-y="-8"
     inkscape:window-maximized="1"
     inkscape:current-layer="svg4306" />
  <g
     id="g4316"
     transform="matrix(0.41666667,0,0,0.41666667,-4.5577558,-16.49623)"
     clip-path="url(#clipPath4267)">
    <path
       style="fill:#fdfdfd"
       d="M 0,185.95642 0,0 l 131.1138,0 131.1138,0 0,185.95642 0,185.95642 -131.1138,0 -131.1138,0 0,-185.95642 z"
       id="path4332"
       inkscape:connector-curvature="0" />
    <path
       style="fill:#d2edf1"
       d="m 46.489104,314.52785 0,-11.62228 2.56517,0 c 1.410844,0 2.710365,0.4086 2.887825,0.908 0.17746,0.49939 1.409881,3.79419 2.738713,7.32177 l 2.416058,6.41377 2.772816,-7.32176 c 2.759908,-7.28769 2.784246,-7.32178 5.228804,-7.32178 l 2.455989,0 0,11.62228 0,11.62228 -1.815981,0 -1.815981,0 -0.04605,-8.89831 c -0.03392,-6.55619 -0.231672,-8.42032 -0.751297,-7.08232 -0.38789,0.99879 -1.539815,4.02239 -2.559834,6.71913 -1.542452,4.07793 -2.133404,4.90314 -3.511269,4.90314 -1.418654,0 -2.028699,-0.96542 -4.245811,-6.71912 l -2.589118,-6.71913 -0.04904,8.8983 -0.04904,8.89831 -1.815981,0 -1.81598,0 0,-11.62228 z m 31.598062,10.96883 c -5.562922,-2.45241 -7.924369,-11.22832 -4.714423,-17.52033 1.772869,-3.4751 4.627888,-5.07078 9.072777,-5.07078 4.61323,0 7.46169,1.65971 9.121031,5.31452 2.526058,5.56383 1.50515,12.01183 -2.484298,15.69064 -2.069687,1.90853 -8.243389,2.79903 -10.995087,1.58595 z m 8.562923,-3.98919 c 3.408559,-3.15895 3.482636,-10.61754 0.138661,-13.96153 -3.752717,-3.75271 -9.848506,-1.31832 -10.913463,4.35836 -1.610629,8.58541 5.262843,14.71148 10.774802,9.60317 z m 10.686472,-6.97964 0,-11.62228 1.81598,0 1.815979,0 0,9.8063 0,9.8063 5.44794,0 c 5.32688,0 5.44795,0.0404 5.44795,1.81598 0,1.81598 0,1.81598 -7.26393,1.81598 l -7.263919,0 0,-11.62228 z m 18.966149,10.60859 c -3.08039,-1.70733 -3.6586,-3.79865 -3.68617,-13.33256 l -0.0257,-8.89831 1.81598,0 1.81598,0 0,8.71671 c 0,7.74819 0.16142,8.87813 1.45278,10.16949 0.80711,0.80711 2.42131,1.45279 3.63196,1.45279 1.21066,0 2.82486,-0.64568 3.63197,-1.45279 1.29136,-1.29136 1.45278,-2.4213 1.45278,-10.16949 l 0,-8.71671 1.81598,0 1.81598,0 0,8.68254 c 0,9.57678 -0.65032,11.93056 -3.73731,13.52691 -2.49089,1.28809 -7.67876,1.29922 -9.98419,0.0214 z m 19.71424,0.26466 c -1.07927,-0.43382 -1.63438,-1.2691 -1.63438,-2.45927 0,-1.77469 0.0386,-1.78618 2.51904,-0.74979 4.99584,2.08739 9.82962,0.83716 9.82962,-2.54238 0,-1.81144 -1.364,-2.77886 -5.75774,-4.08366 -4.7952,-1.42402 -6.59092,-3.20018 -6.59092,-6.51911 0,-4.15897 2.54934,-6.14132 7.89788,-6.14132 5.46674,0 6.62996,0.45654 6.62996,2.60212 0,1.54646 -0.18827,1.6487 -1.86327,1.01187 -4.11131,-1.56312 -9.03261,-0.40056 -9.03261,2.13377 0,1.83883 1.13809,2.59923 5.95886,3.9813 4.64041,1.33035 6.3898,3.16933 6.3898,6.71699 0,3.31814 -0.62453,4.52935 -2.95752,5.73579 -2.25811,1.16771 -8.81474,1.34831 -11.38872,0.31369 z m 22.46874,-0.72585 c -3.41454,-2.08178 -5.52242,-7.09742 -4.96406,-11.81188 0.77379,-6.53352 4.60203,-9.95037 11.15363,-9.95508 4.89507,-0.004 7.4797,1.16537 7.4797,3.38265 0,1.95686 -0.40165,2.04116 -2.90557,0.60979 -4.73664,-2.7077 -10.41402,-0.30461 -11.5838,4.90315 -1.91488,8.5248 4.36458,13.85363 11.83621,10.04438 l 2.73876,-1.3963 -0.2244,1.92426 c -0.13802,1.18355 -0.92342,2.27614 -2.04037,2.83838 -2.84347,1.43132 -8.70943,1.15597 -11.4901,-0.53935 z m 21.79932,0.29893 c -6.69318,-3.41322 -7.0544,-16.73924 -0.56107,-20.69886 2.86283,-1.74575 8.54404,-1.80276 11.40217,-0.11442 6.01619,3.55384 6.63627,14.64818 1.10384,19.74983 -2.49789,2.30339 -8.47073,2.83514 -11.94494,1.06345 z m 8.07993,-2.57466 c 2.32826,-1.24004 3.27794,-2.78265 3.80633,-6.18282 1.15339,-7.42195 -4.23316,-12.68351 -9.88705,-9.65763 -3.30056,1.76641 -4.54868,7.9043 -2.5702,12.63948 1.58851,3.80183 5.0901,5.09747 8.65092,3.20097 z m 13.06165,3.27903 c -1.63073,-0.35351 -2.83333,-2.59006 -2.06294,-3.83658 0.25569,-0.41373 1.42649,-0.27115 2.92912,0.35669 3.49823,1.46166 6.64561,1.30849 8.36098,-0.40689 0.79903,-0.79903 1.45279,-1.77966 1.45279,-2.17917 0,-1.5104 -2.79442,-3.42851 -5.66313,-3.88724 -4.26857,-0.68257 -6.80081,-3.09655 -6.89947,-6.57726 -0.11476,-4.0486 2.59999,-6.24601 7.69995,-6.23261 5.59152,0.0147 7.04182,0.56973 7.04182,2.69489 0,1.45563 -0.2483,1.69769 -1.27118,1.23923 -0.69916,-0.31337 -2.78506,-0.70415 -4.63533,-0.8684 -2.85253,-0.25323 -3.53771,-0.0508 -4.50541,1.33073 -1.72585,2.46401 -0.43303,4.06394 4.05374,5.01668 4.21871,0.89582 5.70462,1.78086 6.96593,4.14906 1.3152,2.46939 1.00377,5.04854 -0.87308,7.23051 -1.50283,1.74715 -2.29923,2.01746 -6.35593,2.15732 -2.5508,0.088 -5.35783,0.004 -6.23786,-0.18696 z m -75.76073,-49.41724 c -39.388861,-1.85306 -75.291998,-24.01626 -95.087871,-58.69827 -6.68837,-11.71791 -11.779917,-27.0377 -13.898947,-41.8201 -1.292357,-9.01551 -0.530536,-28.79587 1.467062,-38.09161 8.673819,-40.363246 37.627877,-72.834863 76.648084,-85.959865 23.125702,-7.778658 49.513522,-7.778658 72.639222,0 39.02021,13.125002 67.97427,45.596619 76.64808,85.959865 1.9976,9.29574 2.75942,29.0761 1.46707,38.09161 -3.79808,26.49547 -15.286,49.52093 -33.56727,67.2795 -10.0326,9.74576 -18.37578,15.7243 -30.18964,21.63323 -16.20378,8.10463 -37.39617,12.48678 -56.12579,11.60564 z m 43.55827,-44.39547 c 5.6197,-2.76015 5.74342,-8.62995 0.34801,-16.51076 l -3.21286,-4.69286 3.07944,-1.88409 c 5.26616,-3.22198 7.16396,-4.70651 16.51769,-12.92075 24.32022,-21.35747 28.53708,-27.58119 29.84013,-44.0414 0.33208,-4.19491 0.79439,-8.93462 1.02737,-10.53268 0.63335,-4.34447 -1.79275,-8.04066 -7.26802,-11.07292 -4.63717,-2.56812 -7.61885,-5.37894 -7.61885,-7.18226 0,-1.65766 -5.49421,-10.73503 -8.03598,-13.2768 -1.58228,-1.58228 -4.05551,-2.77609 -8.53653,-4.12053 -10.95465,-3.2867 -14.08016,-4.78323 -18.52602,-8.870437 -8.02883,-7.381141 -15.321,-9.4937 -24.41573,-7.073296 -7.46391,1.986393 -12.88267,2.089896 -21.09308,0.402901 -12.24091,-2.515133 -16.91933,-1.301484 -26.401064,6.848804 -6.423472,5.521478 -9.297828,6.960888 -17.567862,8.797598 -7.673438,1.70421 -10.745525,4.5067 -15.698799,14.32112 -2.651299,5.25329 -4.195486,7.45975 -5.928613,8.47128 -6.780863,3.95763 -8.050189,4.98754 -9.403439,7.6298 -1.184323,2.31244 -1.377015,3.6445 -0.998237,6.90073 0.258161,2.21933 0.774821,7.01226 1.148133,10.65094 1.167444,11.37916 4.604373,17.8396 15.563502,29.25494 6.307876,6.57047 21.612216,19.62943 28.192952,24.05663 5.613581,3.77653 5.595493,3.58388 1.052644,11.21383 -2.161598,3.6305 -2.980809,5.79101 -2.930034,7.7274 0.08019,3.05793 2.106712,6.25006 4.256128,6.70413 0.799032,0.1688 17.796609,0.33573 37.772399,0.37095 32.81055,0.0578 36.56281,-0.0554 38.83672,-1.17227 z m -6.36039,-49.54138 c 1.46208,-2.4205 33.87206,-47.3123 35.04134,-48.53657 0.7517,-0.78705 1.28999,-0.59141 3.01821,1.09695 1.15684,1.13017 2.92053,2.59029 3.91932,3.24474 l 1.81598,1.18989 -22.44589,22.41048 c -12.34524,12.32577 -21.95228,21.5933 -21.34896,20.59451 z M 83.716706,161.2984 C 72.030871,149.38931 62.469733,139.48904 62.469733,139.2978 c 0,-0.19125 1.783392,-1.68143 3.963092,-3.3115 l 3.963093,-2.96378 17.322447,24.10617 c 9.527346,13.2584 17.569535,24.51478 17.871545,25.01417 1.79427,2.96701 -2.86483,-1.47296 -21.873204,-20.84446 z m 50.013624,20.20644 c -0.0408,-0.65055 -1.04589,-17.32125 -2.23357,-37.046 -1.18767,-19.72476 -2.27825,-37.35857 -2.4235,-39.18625 l -0.26411,-3.32306 5.51068,0.0583 5.51068,0.0583 -0.16475,2.17521 c -0.0906,1.19637 -1.16792,18.35561 -2.39402,38.13164 -1.22611,19.77603 -2.50783,36.93705 -2.84827,38.13559 -0.34044,1.19855 -0.65235,1.64692 -0.69314,0.99637 z m -15.22591,-2.16681 c -0.3655,-0.95431 -6.46007,-15.62737 -13.54349,-32.60679 -7.083425,-16.97942 -13.031292,-31.25979 -13.217488,-31.73416 -0.18637,-0.47484 1.076114,-1.57395 2.808894,-2.44541 1.731079,-0.8706 3.727176,-2.0928 4.435772,-2.71599 0.772859,-0.67971 1.531652,-0.86383 1.896432,-0.46016 0.79447,0.87915 19.07507,70.90701 18.62706,71.35502 -0.18845,0.18844 -0.64167,-0.43819 -1.00718,-1.39251 z m 30.40599,0.8717 c 0,-0.96589 18.23071,-70.70209 18.60267,-71.15903 0.29381,-0.36093 1.3774,0.20141 5.8608,3.04154 l 3.76129,2.38269 -13.77754,32.98459 c -7.57763,18.14152 -13.92821,33.13528 -14.11237,33.31944 -0.18417,0.18417 -0.33485,-0.072 -0.33485,-0.56923 z"
       id="path4330"
       inkscape:connector-curvature="0" />
    <path
       style="fill:#9fdde6"
       d="m 46.998476,325.69097 c -0.280155,-0.28015 -0.509372,-5.52147 -0.509372,-11.64738 l 0,-11.13802 2.478787,0 c 2.423231,0 2.526813,0.12618 4.621597,5.62954 1.178546,3.09625 2.386963,6.40821 2.685371,7.35991 0.701351,2.23678 1.132467,1.53582 4.079873,-6.63351 2.271454,-6.2958 2.316537,-6.35594 4.764894,-6.35594 l 2.471743,0 -0.200043,11.44068 c -0.19041,10.88974 -0.270004,11.44068 -1.652828,11.44068 -1.35058,0 -1.478336,-0.60532 -1.815981,-8.60437 l -0.363196,-8.60436 -2.442679,6.60678 c -3.50766,9.48728 -4.856878,9.13457 -8.893482,-2.32491 l -1.738899,-4.93654 -0.363196,8.92352 c -0.296627,7.28796 -0.569396,8.96292 -1.488206,9.13842 -0.618756,0.11818 -1.354228,-0.0143 -1.634383,-0.2945 z m 29.924923,-1.1897 c -6.40046,-4.27579 -6.763462,-14.52597 -0.695252,-19.63203 1.904208,-1.60229 3.054014,-1.96367 6.24783,-1.96367 3.327501,0 4.292332,0.33206 6.437448,2.21549 1.387816,1.21852 2.910334,3.38822 3.383375,4.82155 1.042286,3.15816 0.446013,9.17564 -1.150699,11.61252 -2.984354,4.5547 -9.724787,5.95094 -14.222702,2.94614 z m 8.900135,-2.04157 c 3.556838,-1.90356 4.612417,-9.72725 1.864228,-13.81717 -1.418637,-2.11123 -2.131162,-2.49928 -4.926799,-2.68314 -2.710395,-0.17825 -3.56108,0.0967 -4.983392,1.61068 -3.297523,3.51005 -2.752606,12.03126 0.934525,14.61383 1.786983,1.25165 5.051484,1.37825 7.111438,0.2758 z m 12.022613,3.23149 c -0.280272,-0.28028 -0.509586,-5.54443 -0.509586,-11.69812 0,-11.18744 1.59e-4,-11.18851 1.634382,-10.95642 1.588707,0.22563 1.640037,0.50023 1.836847,9.82542 l 0.20246,9.59329 5.24548,0.213 c 4.69022,0.19045 5.24548,0.36679 5.24548,1.66579 0,1.3305 -0.55324,1.4702 -6.57274,1.6597 -3.61501,0.11381 -6.802059,-0.0224 -7.082323,-0.30266 z m 17.480083,-1.65885 -2.37224,-2.11779 -0.24048,-9.56272 -0.24047,-9.56273 1.69326,0.23984 c 1.65214,0.23401 1.69827,0.4508 1.89922,8.92626 0.23772,10.02611 0.83228,11.28936 5.31337,11.28936 4.3358,0 5.01336,-1.5926 5.01336,-11.78391 l 0,-8.55508 1.87371,0 1.8737,0 -0.23932,9.50449 -0.23932,9.50449 -2.37224,2.11779 c -1.94568,1.73698 -3.02118,2.11779 -5.98128,2.11779 -2.96009,0 -4.03559,-0.38081 -5.98127,-2.11779 z m 21.23551,1.50861 c -1.144,-0.34016 -1.90679,-1.17125 -2.06139,-2.24598 -0.21368,-1.48545 -0.0259,-1.63995 1.45278,-1.19508 6.69478,2.01426 10.7781,1.05636 10.7781,-2.52842 0,-2.35717 -0.83987,-2.92823 -6.35297,-4.31963 -6.03592,-1.52335 -7.83157,-6.26379 -3.87239,-10.22296 1.76467,-1.76468 2.7155,-2.12163 5.62954,-2.11339 5.27644,0.015 6.775,0.59948 6.775,2.64274 0,1.51182 -0.19594,1.65195 -1.40503,1.00486 -2.09705,-1.1223 -7.71167,-0.93089 -8.73128,0.29766 -0.4791,0.57728 -0.76428,1.80247 -0.63373,2.72264 0.1942,1.36887 1.01158,1.87769 4.49604,2.7988 2.34227,0.61918 5.039,1.82084 5.99273,2.67035 2.32645,2.07221 2.33887,5.95508 0.0277,8.64203 -1.44704,1.68228 -2.35791,2.0144 -5.99274,2.18508 -2.35748,0.11069 -5.10353,-0.0417 -6.10232,-0.3387 z m 22.70428,-0.58549 c -3.53311,-1.74175 -5.51374,-5.46126 -5.50924,-10.34604 0.007,-7.50359 3.87844,-11.70559 10.77106,-11.69042 4.41117,0.01 7.18482,1.28816 7.49604,3.45512 0.26821,1.86745 -0.38238,2.00576 -2.36853,0.50351 -0.79011,-0.59761 -2.96027,-1.06649 -4.93616,-1.06649 -2.74298,0 -3.90923,0.38308 -5.25092,1.72478 -3.65331,3.6533 -2.71432,12.96288 1.5012,14.8836 2.44488,1.11397 6.07114,0.99811 8.27992,-0.26455 2.45758,-1.40487 2.90557,-1.34316 2.90557,0.40026 0,3.14079 -8.26473,4.67987 -12.88894,2.40023 z m 20.80508,-0.45419 c -6.40046,-4.27579 -6.76346,-14.52597 -0.69525,-19.63203 1.92159,-1.61691 3.04441,-1.96367 6.35856,-1.96367 3.68991,0 4.25397,0.22909 6.77756,2.75268 5.63365,5.63365 4.38803,15.99693 -2.34101,19.47666 -2.96484,1.53317 -7.25967,1.26372 -10.09986,-0.63364 z m 9.86535,-2.99153 c 3.14504,-3.14505 3.29735,-10.00669 0.30651,-13.80892 -2.10548,-2.67669 -6.91864,-2.68443 -9.42627,-0.0152 -1.5178,1.61562 -1.761,2.57733 -1.761,6.96362 0,4.67547 0.16565,5.23161 2.03808,6.8422 2.72295,2.34218 6.51094,2.35 8.84268,0.0182 z m 11.4558,3.89136 c -0.98085,-0.39425 -1.63438,-1.2783 -1.63438,-2.21085 0,-1.19712 0.29187,-1.43248 1.27118,-1.02505 0.69916,0.29088 2.83292,0.69519 4.7417,0.89847 3.75988,0.40041 6.33579,-1.01228 6.33579,-3.47471 0,-1.76507 -1.40892,-2.73319 -5.89932,-4.05365 -5.17854,-1.52283 -6.44935,-2.75196 -6.44935,-6.2378 0,-4.27731 2.45938,-6.39479 7.4125,-6.38202 5.58481,0.0144 7.11534,0.5735 7.11534,2.5992 0,1.53895 -0.18959,1.64119 -1.86327,1.00487 -4.40899,-1.6763 -9.759,-0.29299 -9.759,2.52329 0,1.4321 1.40582,2.2865 5.86488,3.56446 2.22689,0.63821 4.57128,1.74003 5.20975,2.44846 2.88139,3.19715 2.11747,8.06608 -1.56426,9.96997 -2.3642,1.22259 -8.17085,1.42474 -10.78156,0.37536 z m -84.0799,-49.84758 C 102.34963,273.21526 91.259222,269.73338 78.98121,263.51929 27.731473,237.58104 3.4770044,177.53681 22.391345,123.42573 28.719282,105.32245 37.531018,91.681476 51.712564,78.035123 82.516234,48.393928 127.33461,38.368091 167.79661,52.067201 c 29.35838,9.939787 54.81324,32.526597 67.3902,59.797209 17.33497,37.58743 14.02362,79.77783 -8.94877,114.0176 -16.12832,24.03886 -42.4797,41.63357 -71.87969,47.99378 -5.67757,1.22825 -10.27799,1.62022 -21.06537,1.79485 -7.5908,0.12289 -14.78209,0.0702 -15.98063,-0.11712 z m 50.65115,-42.85748 c 4.80988,-1.86429 5.64425,-2.88782 5.64425,-6.92396 0,-3.92656 -1.21381,-7.37536 -3.85081,-10.94128 -0.9603,-1.29858 -1.96445,-2.74943 -2.23145,-3.2241 -0.30372,-0.53996 1.44483,-2.11173 4.67095,-4.1987 5.98404,-3.87105 21.35977,-17.49928 30.92632,-27.41143 8.9143,-9.23635 11.65136,-14.74812 12.61285,-25.39928 0.3725,-4.12657 0.89664,-9.52338 1.16474,-11.99291 0.43481,-4.00515 0.28581,-4.83414 -1.37971,-7.67615 -1.4617,-2.49419 -2.92547,-3.72325 -6.74047,-5.65964 -3.92457,-1.99201 -5.0684,-2.97236 -5.87551,-5.03572 -2.17057,-5.54903 -5.1108,-10.48822 -8.23154,-13.82784 -2.79107,-2.98683 -4.06493,-3.72757 -8.71671,-5.06868 -10.95537,-3.15843 -13.9114,-4.53426 -18.81274,-8.755997 -6.97672,-6.009363 -11.22623,-7.962501 -17.30112,-7.951874 -2.71001,0.0051 -6.72512,0.491179 -8.92245,1.080966 -5.02734,1.34939 -13.47788,1.34939 -19.6126,0 -6.19059,-1.361688 -12.04057,-1.353894 -16.07689,0.02143 -1.86154,0.634293 -6.306969,3.590899 -10.360224,6.890485 -7.320414,5.95923 -9.889866,7.1622 -20.185147,9.4503 -5.423766,1.20542 -8.831338,4.68615 -13.297951,13.58343 -3.141925,6.25856 -5.937172,9.64273 -7.964669,9.64273 -1.481119,0 -6.689837,4.92196 -7.642407,7.22168 -0.613376,1.48081 -0.758012,3.91346 -0.444417,7.47469 0.255693,2.90368 0.457716,6.32689 0.448941,7.60714 -0.02663,3.88503 2.034654,12.36988 3.898792,16.04858 4.77402,9.42108 25.393389,29.61691 40.939193,40.09828 2.073944,1.3983 3.779237,3.06372 3.789537,3.70094 0.01032,0.63721 -1.34039,3.25222 -3.00154,5.81114 -5.087658,7.83727 -4.383625,14.04964 1.794785,15.83721 1.273293,0.36839 17.916817,0.69929 36.985607,0.73532 30.6312,0.0579 35.03192,-0.0746 37.77239,-1.13676 z M 83.850922,161.15917 C 64.279544,141.45522 62.24597,139.18674 63.50179,138.45941 c 0.767388,-0.44444 2.586009,-1.85343 4.041379,-3.13107 l 2.646128,-2.323 15.208012,21.1694 c 8.364407,11.64317 16.451801,22.90341 17.971971,25.02275 1.52017,2.11935 2.64291,3.85336 2.49498,3.85336 -0.14793,0 -10.053929,-9.85126 -22.013338,-21.89168 z m 79.368568,21.07832 c 0.32008,-0.6471 8.39882,-11.99572 17.95276,-25.21916 l 17.3708,-24.0426 2.66252,2.3378 c 1.46438,1.28579 3.20917,2.66468 3.8773,3.0642 1.02146,0.61078 -2.2594,4.25228 -20.61527,22.88135 -12.00654,12.18523 -21.56818,21.62552 -21.24811,20.97841 z m -29.56332,-1.79954 c 0,-1.17075 -0.98063,-18.1366 -2.17917,-37.70187 -1.19855,-19.56527 -2.17918,-36.72179 -2.17918,-38.1256 l 0,-2.55237 5.08475,0 5.08474,0 -0.0102,2.54238 c -0.0219,5.49615 -5.00222,77.16734 -5.38904,77.55416 -0.22656,0.22657 -0.41193,-0.54595 -0.41193,-1.7167 z m -15.27608,-1.92705 c -0.3944,-0.89891 -6.56962,-15.69007 -13.72271,-32.86925 l -13.005616,-31.23487 3.023993,-1.6359 c 1.663198,-0.89974 3.730315,-2.14604 4.593588,-2.76955 1.888115,-1.3637 0.838685,-4.6544 11.134275,34.91393 4.05417,15.58111 7.82157,29.88196 8.37201,31.77966 1.04806,3.61334 0.83077,4.61096 -0.39554,1.81598 z m 30.83065,0.54479 c 1.02439,-4.21118 17.92937,-68.42591 18.22803,-69.24046 0.27401,-0.74732 0.79437,-0.66119 2.35242,0.38937 1.10031,0.74193 2.93907,1.8222 4.08612,2.40061 1.14705,0.57839 2.22968,1.42723 2.40584,1.88631 0.17617,0.45908 -5.45987,14.6835 -12.52451,31.60984 -12.12612,29.05323 -15.40657,36.4842 -14.5479,32.95433 z"
       id="path4328"
       inkscape:connector-curvature="0" />
    <path
       style="fill:#6ecddb"
       d="m 46.829255,325.26242 c -0.210017,-0.5473 -0.290747,-5.71976 -0.179402,-11.49437 l 0.202447,-10.49928 2.259813,-0.22009 c 2.239022,-0.21807 2.285315,-0.15275 5.031597,7.09895 1.761021,4.65008 2.980752,6.98188 3.344828,6.39443 0.315174,-0.50854 1.604962,-3.78479 2.866194,-7.28055 2.271454,-6.2958 2.316537,-6.35594 4.764894,-6.35594 l 2.471743,0 -0.200043,11.44068 c -0.19041,10.88974 -0.270004,11.44068 -1.652828,11.44068 -1.35058,0 -1.478336,-0.60532 -1.815981,-8.60437 l -0.363196,-8.60436 -2.442679,6.60678 c -3.50766,9.48728 -4.856878,9.13457 -8.893482,-2.32491 l -1.738899,-4.93654 -0.363196,8.92352 c -0.315729,7.75728 -0.529621,8.95535 -1.636579,9.16699 -0.700361,0.1339 -1.445215,-0.20433 -1.655231,-0.75162 z m 30.094144,-0.76115 c -6.448827,-4.3081 -6.762066,-14.52714 -0.604119,-19.70872 2.179685,-1.83408 2.850632,-2.00954 6.637039,-1.73565 3.418111,0.24724 4.625106,0.70024 6.402254,2.40285 3.762,3.60424 4.648002,11.72975 1.759656,16.13792 -2.957005,4.51296 -9.716128,5.89556 -14.19483,2.9036 z m 8.831121,-2.00463 c 3.95538,-2.11686 4.818842,-11.24368 1.407305,-14.8751 -2.375753,-2.52887 -7.048417,-2.53786 -9.415584,-0.0181 -3.2666,3.47713 -2.70122,12.01196 0.965855,14.58048 1.764603,1.23597 5.045128,1.38165 7.042424,0.31273 z m 12.091627,3.19455 c -0.280272,-0.28028 -0.509586,-5.54443 -0.509586,-11.69812 0,-11.18744 1.59e-4,-11.18851 1.634382,-10.95642 1.588707,0.22563 1.640037,0.50023 1.836847,9.82542 l 0.20246,9.59329 5.24548,0.213 c 4.69022,0.19045 5.24548,0.36679 5.24548,1.66579 0,1.3305 -0.55324,1.4702 -6.57274,1.6597 -3.61501,0.11381 -6.802059,-0.0224 -7.082323,-0.30266 z m 19.466203,-0.18827 c -3.782,-1.65074 -4.3434,-3.27268 -4.59884,-13.2864 l -0.24047,-9.42742 1.69326,0.23984 c 1.65214,0.23401 1.69827,0.4508 1.89922,8.92626 0.23711,10.00017 0.83842,11.28936 5.26562,11.28936 4.12047,0 4.64707,-1.1638 5.06111,-11.18514 0.35249,-8.53141 0.41313,-8.79772 2.05646,-9.03048 l 1.69326,-0.23984 -0.24048,9.48689 c -0.23208,9.15567 -0.30796,9.55431 -2.17338,11.41773 -2.08635,2.08413 -7.59403,3.0408 -10.41576,1.8092 z m 19.24939,0.038 c -1.144,-0.34016 -1.90679,-1.17125 -2.06139,-2.24598 -0.21506,-1.49506 -0.0354,-1.63764 1.45278,-1.1531 3.17647,1.03421 7.7131,1.23914 9.24791,0.41773 1.03157,-0.55208 1.53019,-1.52579 1.53019,-2.98813 0,-2.35716 -0.83987,-2.92822 -6.35297,-4.31963 -6.03592,-1.52334 -7.83157,-6.26379 -3.87239,-10.22296 1.76467,-1.76467 2.7155,-2.12162 5.62954,-2.11339 5.27644,0.015 6.775,0.59948 6.775,2.64274 0,1.51182 -0.19594,1.65196 -1.40503,1.00486 -2.09705,-1.12229 -7.71167,-0.93089 -8.73128,0.29767 -0.4791,0.57727 -0.76428,1.80247 -0.63373,2.72263 0.1942,1.36887 1.01158,1.87769 4.49604,2.7988 2.34227,0.61919 5.039,1.82084 5.99273,2.67035 2.32645,2.07222 2.33887,5.95508 0.0277,8.64203 -1.44704,1.68228 -2.35791,2.0144 -5.99274,2.18508 -2.35748,0.1107 -5.10353,-0.0417 -6.10232,-0.3387 z m 22.70428,-0.58549 c -3.53311,-1.74175 -5.51374,-5.46125 -5.50924,-10.34604 0.007,-7.50359 3.87844,-11.70558 10.77106,-11.69042 4.41117,0.01 7.18482,1.28816 7.49604,3.45512 0.26821,1.86746 -0.38238,2.00576 -2.36853,0.50352 -1.84727,-1.39721 -7.64339,-1.36742 -9.66659,0.0497 -2.98522,2.09093 -3.83798,10.23858 -1.41029,13.47461 2.14574,2.86023 7.26338,3.70097 10.67092,1.75304 2.45758,-1.40488 2.90557,-1.34316 2.90557,0.40026 0,3.14078 -8.26473,4.67987 -12.88894,2.40023 z m 20.80508,-0.45419 c -6.44883,-4.3081 -6.76207,-14.52714 -0.60412,-19.70871 2.17968,-1.83409 2.85063,-2.00955 6.63704,-1.73566 3.4145,0.24698 4.62566,0.70077 6.39526,2.39617 3.71915,3.56316 4.59531,9.41296 2.20012,14.68932 -2.60408,5.73653 -9.49323,7.78933 -14.6283,4.35888 z m 8.90013,-2.04157 c 3.55684,-1.90356 4.61242,-9.72725 1.86423,-13.81716 -1.41864,-2.11124 -2.13116,-2.49929 -4.9268,-2.68314 -2.74327,-0.18042 -3.55623,0.0915 -5.06064,1.6929 -1.55342,1.65354 -1.79233,2.58622 -1.79233,6.99697 0,4.67548 0.16565,5.23161 2.03808,6.8422 2.18143,1.87639 5.43365,2.27612 7.87746,0.96823 z m 12.96581,3.04349 c -1.1595,-0.32064 -1.90473,-1.11919 -2.0615,-2.20902 -0.2029,-1.41063 -0.0138,-1.61081 1.08959,-1.15345 0.73431,0.30437 2.89684,0.71971 4.80562,0.92299 3.75988,0.40041 6.33579,-1.01228 6.33579,-3.47471 0,-1.75008 -1.40146,-2.72928 -5.75775,-4.02296 -4.7952,-1.42402 -6.59092,-3.20018 -6.59092,-6.51911 0,-4.00824 2.58183,-6.14385 7.4125,-6.1314 5.58481,0.0144 7.11534,0.5735 7.11534,2.5992 0,1.53895 -0.18959,1.64119 -1.86327,1.00487 -4.46547,-1.69777 -9.759,-0.28991 -9.759,2.59549 0,1.36998 2.67352,2.96639 5.91904,3.53438 7.24244,1.26747 9.48248,9.32988 3.45782,12.44537 -2.11,1.09111 -6.92971,1.28591 -10.10326,0.40835 z M 120.94431,275.6103 C 105.19907,273.4127 99.641585,272.08856 89.142268,268.03312 75.152738,262.62954 61.745451,253.92895 50.83685,243.17501 19.05475,211.84351 8.1375813,166.31315 22.314657,124.2224 30.735063,99.222808 46.711708,78.944486 69.733655,64.035944 c 36.298255,-23.506009 86.462035,-23.506009 122.760285,0 15.40248,9.974333 27.48179,22.112196 36.20972,36.385256 19.37013,31.6766 22.65262,69.16332 9.04815,103.33183 -14.70698,36.93753 -47.24453,63.3218 -87.01256,70.55732 -5.70488,1.03797 -25.48789,1.90109 -29.79494,1.29995 z m 48.33277,-43.34637 c 6.16263,-3.10764 6.50249,-8.90297 0.99395,-16.94902 l -3.14313,-4.59101 4.35905,-2.64798 c 4.49728,-2.73195 20.22532,-16.16714 29.60558,-25.28965 10.59209,-10.30104 15.27937,-19.89639 15.34648,-31.41594 0.0142,-2.44244 0.35143,-6.15739 0.74931,-8.25544 0.60587,-3.19473 0.507,-4.30276 -0.60834,-6.81828 -1.5606,-3.51972 -2.55782,-4.43764 -7.99798,-7.36198 -3.77211,-2.02769 -4.28318,-2.63364 -7.35184,-8.71671 -5.84765,-11.59192 -8.05004,-13.47453 -19.05648,-16.2895 -7.26134,-1.85714 -11.0023,-3.81284 -15.65726,-8.1853 -4.4084,-4.140864 -11.96449,-7.849656 -15.99247,-7.849656 -1.5272,0 -5.70205,0.646678 -9.27746,1.437066 -7.92093,1.751012 -12.50498,1.826513 -18.98592,0.312704 -11.48431,-2.682501 -17.15467,-1.487448 -25.662169,5.40839 -8.258942,6.694376 -11.646915,8.493066 -18.827165,9.995386 -5.578151,1.16712 -6.586874,1.6427 -9.753491,4.59843 -2.46203,2.29807 -4.607564,5.44021 -7.082971,10.37303 -3.238286,6.45304 -3.854946,7.23069 -7.000796,8.82841 -4.456197,2.26323 -7.252643,4.8982 -8.586582,8.09076 -1.095568,2.62206 -0.854658,6.92272 1.168678,20.86286 1.285625,8.85756 5.01279,15.01739 15.865327,26.22041 5.789938,5.97692 20.369763,18.46141 27.146443,23.2451 2.696731,1.90363 4.903148,3.7047 4.903148,4.00238 0,0.29766 -1.465497,2.97789 -3.256656,5.95603 -2.338177,3.88766 -3.260071,6.20266 -3.268766,8.2083 -0.01591,3.66097 1.961579,6.90058 4.698276,7.69708 1.204686,0.35062 18.219744,0.66697 37.811244,0.703 35.55856,0.0654 35.62658,0.0627 38.86199,-1.56887 z m -4.70846,-51.8397 c 32.57371,-45.54302 34.06168,-47.48664 35.26555,-46.0649 0.64123,0.75729 2.29813,2.14526 3.68199,3.08437 l 2.51611,1.70747 -21.80103,22.13144 c -11.99057,12.17229 -20.83875,20.78602 -19.66262,19.14162 z M 83.547159,160.53269 c -11.682336,-11.98547 -20.877962,-21.79177 -20.43472,-21.79177 0.443241,0 2.072239,-1.14407 3.619996,-2.54237 1.547757,-1.39831 2.996725,-2.54237 3.219928,-2.54237 0.223205,0 7.517951,9.88801 16.210549,21.97336 8.692598,12.08535 16.599348,23.03572 17.570558,24.33414 0.97121,1.29843 1.60574,2.36078 1.41007,2.36078 -0.19567,0 -9.91404,-9.8063 -21.596381,-21.79177 z m 48.392191,-14.39166 c -1.12737,-19.0519 -2.22415,-36.76451 -2.43729,-39.36137 l -0.38752,-4.72155 5.23257,0.24341 5.23257,0.24341 -0.43903,5.20453 c -0.24147,2.8625 -1.42654,20.39278 -2.6335,38.95619 -1.20696,18.5634 -2.26726,33.82445 -2.35625,33.91342 -0.089,0.089 -1.08417,-15.42614 -2.21155,-34.47804 z m -13.53741,32.66894 c 0,-0.46808 -5.7641,-14.65997 -12.8091,-31.53753 -7.045013,-16.87757 -12.948301,-31.18736 -13.118437,-31.79953 -0.201581,-0.72537 0.781075,-1.71175 2.821213,-2.83189 1.72179,-0.94537 3.648334,-2.16217 4.281196,-2.70402 1.033148,-0.88456 2.089758,2.58893 10.345958,34.01136 5.05742,19.24808 9.03417,35.15766 8.83723,35.35459 -0.19694,0.19694 -0.35806,-0.0249 -0.35806,-0.49298 z m 31.26557,-0.26553 c -0.0169,-0.28119 3.74468,-14.82719 8.35904,-32.32446 4.61436,-17.49726 8.70671,-33.01598 9.09413,-34.48604 l 0.70439,-2.67285 3.76579,2.48007 c 2.07118,1.36404 4.06923,2.58121 4.44009,2.70483 0.55101,0.18367 -6.61914,17.86981 -24.65487,60.81455 -0.92283,2.19733 -1.69168,3.76509 -1.70857,3.4839 z"
       id="path4326"
       inkscape:connector-curvature="0" />
    <path
       style="fill:#4cc3d4"
       d="m 46.829255,325.26242 c -0.210017,-0.5473 -0.290747,-5.71976 -0.179402,-11.49437 l 0.202447,-10.49928 2.259813,-0.22009 c 2.239022,-0.21807 2.285315,-0.15275 5.031597,7.09895 1.761021,4.65008 2.980752,6.98188 3.344828,6.39443 0.315174,-0.50854 1.604962,-3.78479 2.866194,-7.28055 2.271454,-6.2958 2.316537,-6.35594 4.764894,-6.35594 l 2.471743,0 -0.200043,11.44068 c -0.19041,10.88974 -0.270004,11.44068 -1.652828,11.44068 -1.35058,0 -1.478336,-0.60532 -1.815981,-8.60437 l -0.363196,-8.60436 -2.442679,6.60678 c -3.50766,9.48728 -4.856878,9.13457 -8.893482,-2.32491 l -1.738899,-4.93654 -0.363196,8.92352 c -0.315729,7.75728 -0.529621,8.95535 -1.636579,9.16699 -0.700361,0.1339 -1.445215,-0.20433 -1.655231,-0.75162 z m 30.094144,-0.76115 c -6.448827,-4.3081 -6.762066,-14.52714 -0.604119,-19.70872 2.179685,-1.83408 2.850632,-2.00954 6.637039,-1.73565 3.418111,0.24724 4.625106,0.70024 6.402254,2.40285 3.762,3.60424 4.648002,11.72975 1.759656,16.13792 -2.957005,4.51296 -9.716128,5.89556 -14.19483,2.9036 z m 8.831121,-2.00463 c 3.95538,-2.11686 4.818842,-11.24368 1.407305,-14.8751 -2.375753,-2.52887 -7.048417,-2.53786 -9.415584,-0.0181 -3.2666,3.47713 -2.70122,12.01196 0.965855,14.58048 1.764603,1.23597 5.045128,1.38165 7.042424,0.31273 z m 12.091627,3.19455 c -0.280272,-0.28028 -0.509586,-5.54443 -0.509586,-11.69812 0,-11.18744 1.59e-4,-11.18851 1.634382,-10.95642 1.588707,0.22563 1.640037,0.50023 1.836847,9.82542 l 0.20246,9.59329 5.24548,0.213 c 4.69022,0.19045 5.24548,0.36679 5.24548,1.66579 0,1.3305 -0.55324,1.4702 -6.57274,1.6597 -3.61501,0.11381 -6.802059,-0.0224 -7.082323,-0.30266 z m 19.466203,-0.18827 c -3.782,-1.65074 -4.3434,-3.27268 -4.59884,-13.2864 l -0.24047,-9.42742 1.69326,0.23984 c 1.65214,0.23401 1.69827,0.4508 1.89922,8.92626 0.23711,10.00017 0.83842,11.28936 5.26562,11.28936 4.12047,0 4.64707,-1.1638 5.06111,-11.18514 0.35249,-8.53141 0.41313,-8.79772 2.05646,-9.03048 l 1.69326,-0.23984 -0.24048,9.48689 c -0.23208,9.15567 -0.30796,9.55431 -2.17338,11.41773 -2.08635,2.08413 -7.59403,3.0408 -10.41576,1.8092 z m 19.24939,0.038 c -1.144,-0.34016 -1.90679,-1.17125 -2.06139,-2.24598 -0.21506,-1.49506 -0.0354,-1.63764 1.45278,-1.1531 3.17647,1.03421 7.7131,1.23914 9.24791,0.41773 1.03157,-0.55208 1.53019,-1.52579 1.53019,-2.98813 0,-2.35716 -0.83987,-2.92822 -6.35297,-4.31963 -6.03592,-1.52334 -7.83157,-6.26379 -3.87239,-10.22296 1.76467,-1.76467 2.7155,-2.12162 5.62954,-2.11339 5.27644,0.015 6.775,0.59948 6.775,2.64274 0,1.51182 -0.19594,1.65196 -1.40503,1.00486 -2.09705,-1.12229 -7.71167,-0.93089 -8.73128,0.29767 -0.4791,0.57727 -0.76428,1.80247 -0.63373,2.72263 0.1942,1.36887 1.01158,1.87769 4.49604,2.7988 2.34227,0.61919 5.039,1.82084 5.99273,2.67035 2.32645,2.07222 2.33887,5.95508 0.0277,8.64203 -1.44704,1.68228 -2.35791,2.0144 -5.99274,2.18508 -2.35748,0.1107 -5.10353,-0.0417 -6.10232,-0.3387 z m 22.70428,-0.58549 c -3.53311,-1.74175 -5.51374,-5.46125 -5.50924,-10.34604 0.007,-7.50359 3.87844,-11.70558 10.77106,-11.69042 4.41117,0.01 7.18482,1.28816 7.49604,3.45512 0.26821,1.86746 -0.38238,2.00576 -2.36853,0.50352 -1.84727,-1.39721 -7.64339,-1.36742 -9.66659,0.0497 -2.98522,2.09093 -3.83798,10.23858 -1.41029,13.47461 2.14574,2.86023 7.26338,3.70097 10.67092,1.75304 2.45758,-1.40488 2.90557,-1.34316 2.90557,0.40026 0,3.14078 -8.26473,4.67987 -12.88894,2.40023 z m 20.80508,-0.45419 c -6.44883,-4.3081 -6.76207,-14.52714 -0.60412,-19.70871 2.17968,-1.83409 2.85063,-2.00955 6.63704,-1.73566 3.4145,0.24698 4.62566,0.70077 6.39526,2.39617 3.71915,3.56316 4.59531,9.41296 2.20012,14.68932 -2.60408,5.73653 -9.49323,7.78933 -14.6283,4.35888 z m 8.90013,-2.04157 c 3.55684,-1.90356 4.61242,-9.72725 1.86423,-13.81716 -1.41864,-2.11124 -2.13116,-2.49929 -4.9268,-2.68314 -2.74327,-0.18042 -3.55623,0.0915 -5.06064,1.6929 -1.55342,1.65354 -1.79233,2.58622 -1.79233,6.99697 0,4.67548 0.16565,5.23161 2.03808,6.8422 2.18143,1.87639 5.43365,2.27612 7.87746,0.96823 z m 12.96581,3.04349 c -1.1595,-0.32064 -1.90473,-1.11919 -2.0615,-2.20902 -0.2029,-1.41063 -0.0138,-1.61081 1.08959,-1.15345 0.73431,0.30437 2.89684,0.71971 4.80562,0.92299 3.75988,0.40041 6.33579,-1.01228 6.33579,-3.47471 0,-1.75008 -1.40146,-2.72928 -5.75775,-4.02296 -4.7952,-1.42402 -6.59092,-3.20018 -6.59092,-6.51911 0,-4.00824 2.58183,-6.14385 7.4125,-6.1314 5.58481,0.0144 7.11534,0.5735 7.11534,2.5992 0,1.53895 -0.18959,1.64119 -1.86327,1.00487 -4.46547,-1.69777 -9.759,-0.28991 -9.759,2.59549 0,1.36998 2.67352,2.96639 5.91904,3.53438 7.24244,1.26747 9.48248,9.32988 3.45782,12.44537 -2.11,1.09111 -6.92971,1.28591 -10.10326,0.40835 z M 119.8909,275.24001 C 94.218231,272.7678 69.381028,261.11865 50.599167,242.74078 32.697306,225.22399 21.219955,202.45306 17.401251,176.87652 16.185213,168.73185 16.363715,151.41086 17.750574,142.9799 24.730453,100.54803 54.25838,65.907256 95.069294,52.273211 108.1414,47.906105 115.07611,46.865744 131.1138,46.865744 c 16.03769,0 22.9724,1.040361 36.04451,5.407467 35.91214,11.99747 63.24461,40.198515 73.97817,76.329039 5.64472,19.00085 6.14643,40.56391 1.3936,59.89654 -7.87008,32.01236 -29.37303,59.25649 -58.66926,74.33362 -14.04711,7.22927 -26.73879,10.93687 -42.57753,12.43809 -8.87688,0.84138 -12.39052,0.83636 -21.39239,-0.0305 z m 49.67122,-42.77285 c 3.91565,-1.67844 5.10189,-3.94539 4.48412,-8.56926 -0.47661,-3.56732 -1.9345,-6.67339 -4.90932,-10.45945 l -2.0926,-2.66325 4.1897,-2.39677 c 4.93464,-2.82292 24.22098,-19.61619 32.519,-28.31539 8.52014,-8.93206 12.68399,-18.08758 12.70325,-27.93205 0.005,-2.4236 0.35804,-6.29672 0.7851,-8.60695 0.72127,-3.90166 0.64043,-4.4785 -1.13654,-8.1105 -1.57347,-3.21605 -2.49059,-4.16558 -5.16679,-5.34939 -5.13717,-2.27241 -7.43611,-4.23959 -8.20378,-7.01988 -1.14886,-4.1608 -7.23443,-13.27345 -10.13561,-15.17724 -1.4559,-0.95537 -5.53805,-2.56982 -9.07147,-3.58767 -9.07462,-2.61407 -11.90882,-4.02273 -16.45696,-8.179523 -8.03504,-7.343651 -15.40359,-9.530099 -24.33414,-7.220608 -7.76105,2.007044 -13.41996,2.235102 -19.70988,0.794332 -7.68032,-1.759264 -14.95671,-1.697855 -19.15211,0.16163 -1.79782,0.79683 -5.883776,3.673213 -9.079902,6.391968 -6.432443,5.471691 -9.048429,6.807291 -17.070218,8.715261 -9.309325,2.21421 -11.305122,3.96921 -16.703918,14.68858 -3.364357,6.67996 -4.039585,7.55387 -6.910135,8.94348 -4.61635,2.23474 -6.739166,4.10885 -8.447838,7.45813 -1.435234,2.81329 -1.469201,3.37833 -0.661787,11.00882 1.709831,16.15881 3.136188,20.43987 9.417902,28.26687 7.258433,9.04398 25.439902,25.6307 35.450379,32.34092 5.192673,3.48075 5.194394,3.51898 0.478322,10.62189 -2.109138,3.1766 -2.695562,4.77102 -2.695562,7.32895 0,3.74014 1.921395,6.896 4.665966,7.66376 0.962775,0.26932 17.985501,0.52226 37.828281,0.56208 34.37082,0.069 36.23577,0.004 39.41654,-1.35874 z m 4.06867,-63.94415 c 4.4292,-6.1925 11.86461,-16.56325 16.52312,-23.04612 l 8.47002,-11.78704 1.83815,1.68775 c 1.01099,0.92825 2.54827,2.15947 3.41617,2.73603 1.53081,1.01694 0.98153,1.65589 -18.36127,21.35838 l -19.9393,20.31008 8.05311,-11.25908 z m -91.148805,-9.44689 -19.493382,-19.61637 2.936808,-2.12742 c 1.615245,-1.17008 3.16517,-2.49691 3.444278,-2.94851 0.30887,-0.49977 1.709232,0.83177 3.578259,3.40238 11.09116,15.25449 29.432392,40.9063 29.248302,40.9063 -0.12148,0 -8.992905,-8.82738 -19.714265,-19.61638 z m 49.479565,-18.37515 c -1.1065,-19.25599 -2.14911,-35.68416 -2.31691,-36.50703 -0.28269,-1.38625 0.0536,-1.50235 4.57815,-1.5807 l 4.88325,-0.0846 -0.1972,3.03348 c -3.50909,53.97747 -4.5811,69.79532 -4.74104,69.95527 -0.10694,0.10693 -1.09975,-15.56048 -2.20625,-34.81647 z m 19.17408,33.54123 c -0.0494,-0.48833 16.64266,-64.05439 16.88354,-64.29527 0.40593,-0.40593 7.76775,4.56273 7.76775,5.24263 0,0.43771 -5.26284,13.35226 -11.6952,28.69902 -6.43237,15.34675 -11.96855,28.55694 -12.30263,29.35598 -0.33408,0.79903 -0.62814,1.24797 -0.65346,0.99764 z m -46.56132,-30.14419 c -6.577611,-15.79303 -12.059011,-28.98833 -12.180885,-29.32288 -0.121867,-0.33454 0.425448,-0.81362 1.216271,-1.06462 0.790816,-0.25099 2.644954,-1.27552 4.1203,-2.27672 1.475354,-1.0012 2.760034,-1.72249 2.854834,-1.60287 0.42738,0.53926 16.4353,62.49519 16.2064,62.7241 -0.14169,0.14168 -5.6393,-12.66397 -12.21692,-28.45701 z"
       id="path4324"
       inkscape:connector-curvature="0" />
    <path
       style="fill:#9f9f9f"
       d="m 46.829255,325.26242 c -0.210017,-0.5473 -0.290747,-5.71976 -0.179402,-11.49437 l 0.202447,-10.49928 2.259813,-0.22009 c 2.239022,-0.21807 2.285315,-0.15275 5.031597,7.09895 1.761021,4.65008 2.980752,6.98188 3.344828,6.39443 0.315174,-0.50854 1.604962,-3.78479 2.866194,-7.28055 2.271454,-6.2958 2.316537,-6.35594 4.764894,-6.35594 l 2.471743,0 -0.200043,11.44068 c -0.19041,10.88974 -0.270004,11.44068 -1.652828,11.44068 -1.35058,0 -1.478336,-0.60532 -1.815981,-8.60437 l -0.363196,-8.60436 -2.442679,6.60678 c -3.50766,9.48728 -4.856878,9.13457 -8.893482,-2.32491 l -1.738899,-4.93654 -0.363196,8.92352 c -0.315729,7.75728 -0.529621,8.95535 -1.636579,9.16699 -0.700361,0.1339 -1.445215,-0.20433 -1.655231,-0.75162 z m 30.094144,-0.76115 c -6.448827,-4.3081 -6.762066,-14.52714 -0.604119,-19.70872 2.179685,-1.83408 2.850632,-2.00954 6.637039,-1.73565 3.418111,0.24724 4.625106,0.70024 6.402254,2.40285 3.762,3.60424 4.648002,11.72975 1.759656,16.13792 -2.957005,4.51296 -9.716128,5.89556 -14.19483,2.9036 z m 8.831121,-2.00463 c 3.95538,-2.11686 4.818842,-11.24368 1.407305,-14.8751 -2.375753,-2.52887 -7.048417,-2.53786 -9.415584,-0.0181 -3.2666,3.47713 -2.70122,12.01196 0.965855,14.58048 1.764603,1.23597 5.045128,1.38165 7.042424,0.31273 z m 12.091627,3.19455 c -0.280272,-0.28028 -0.509586,-5.54443 -0.509586,-11.69812 0,-11.18744 1.59e-4,-11.18851 1.634382,-10.95642 1.588707,0.22563 1.640037,0.50023 1.836847,9.82542 l 0.20246,9.59329 5.24548,0.213 c 4.69022,0.19045 5.24548,0.36679 5.24548,1.66579 0,1.3305 -0.55324,1.4702 -6.57274,1.6597 -3.61501,0.11381 -6.802059,-0.0224 -7.082323,-0.30266 z m 19.466203,-0.18827 c -3.782,-1.65074 -4.3434,-3.27268 -4.59884,-13.2864 l -0.24047,-9.42742 1.69326,0.23984 c 1.65214,0.23401 1.69827,0.4508 1.89922,8.92626 0.23711,10.00017 0.83842,11.28936 5.26562,11.28936 4.12047,0 4.64707,-1.1638 5.06111,-11.18514 0.35249,-8.53141 0.41313,-8.79772 2.05646,-9.03048 l 1.69326,-0.23984 -0.24048,9.48689 c -0.23208,9.15567 -0.30796,9.55431 -2.17338,11.41773 -2.08635,2.08413 -7.59403,3.0408 -10.41576,1.8092 z m 19.24939,0.038 c -1.144,-0.34016 -1.90679,-1.17125 -2.06139,-2.24598 -0.21506,-1.49506 -0.0354,-1.63764 1.45278,-1.1531 3.17647,1.03421 7.7131,1.23914 9.24791,0.41773 1.03157,-0.55208 1.53019,-1.52579 1.53019,-2.98813 0,-2.35716 -0.83987,-2.92822 -6.35297,-4.31963 -6.03592,-1.52334 -7.83157,-6.26379 -3.87239,-10.22296 1.76467,-1.76467 2.7155,-2.12162 5.62954,-2.11339 5.27644,0.015 6.775,0.59948 6.775,2.64274 0,1.51182 -0.19594,1.65196 -1.40503,1.00486 -2.09705,-1.12229 -7.71167,-0.93089 -8.73128,0.29767 -0.4791,0.57727 -0.76428,1.80247 -0.63373,2.72263 0.1942,1.36887 1.01158,1.87769 4.49604,2.7988 2.34227,0.61919 5.039,1.82084 5.99273,2.67035 2.32645,2.07222 2.33887,5.95508 0.0277,8.64203 -1.44704,1.68228 -2.35791,2.0144 -5.99274,2.18508 -2.35748,0.1107 -5.10353,-0.0417 -6.10232,-0.3387 z m 22.70428,-0.58549 c -3.53311,-1.74175 -5.51374,-5.46125 -5.50924,-10.34604 0.007,-7.50359 3.87844,-11.70558 10.77106,-11.69042 4.41117,0.01 7.18482,1.28816 7.49604,3.45512 0.26821,1.86746 -0.38238,2.00576 -2.36853,0.50352 -1.84727,-1.39721 -7.64339,-1.36742 -9.66659,0.0497 -2.98522,2.09093 -3.83798,10.23858 -1.41029,13.47461 2.14574,2.86023 7.26338,3.70097 10.67092,1.75304 2.45758,-1.40488 2.90557,-1.34316 2.90557,0.40026 0,3.14078 -8.26473,4.67987 -12.88894,2.40023 z m 20.80508,-0.45419 c -6.44883,-4.3081 -6.76207,-14.52714 -0.60412,-19.70871 2.17968,-1.83409 2.85063,-2.00955 6.63704,-1.73566 3.4145,0.24698 4.62566,0.70077 6.39526,2.39617 3.71915,3.56316 4.59531,9.41296 2.20012,14.68932 -2.60408,5.73653 -9.49323,7.78933 -14.6283,4.35888 z m 8.90013,-2.04157 c 3.55684,-1.90356 4.61242,-9.72725 1.86423,-13.81716 -1.41864,-2.11124 -2.13116,-2.49929 -4.9268,-2.68314 -2.74327,-0.18042 -3.55623,0.0915 -5.06064,1.6929 -1.55342,1.65354 -1.79233,2.58622 -1.79233,6.99697 0,4.67548 0.16565,5.23161 2.03808,6.8422 2.18143,1.87639 5.43365,2.27612 7.87746,0.96823 z m 12.96581,3.04349 c -1.1595,-0.32064 -1.90473,-1.11919 -2.0615,-2.20902 -0.2029,-1.41063 -0.0138,-1.61081 1.08959,-1.15345 0.73431,0.30437 2.89684,0.71971 4.80562,0.92299 3.75988,0.40041 6.33579,-1.01228 6.33579,-3.47471 0,-1.75008 -1.40146,-2.72928 -5.75775,-4.02296 -4.7952,-1.42402 -6.59092,-3.20018 -6.59092,-6.51911 0,-4.00824 2.58183,-6.14385 7.4125,-6.1314 5.58481,0.0144 7.11534,0.5735 7.11534,2.5992 0,1.53895 -0.18959,1.64119 -1.86327,1.00487 -4.46547,-1.69777 -9.759,-0.28991 -9.759,2.59549 0,1.36998 2.67352,2.96639 5.91904,3.53438 7.24244,1.26747 9.48248,9.32988 3.45782,12.44537 -2.11,1.09111 -6.92971,1.28591 -10.10326,0.40835 z"
       id="path4322"
       inkscape:connector-curvature="0" />
    <path
       style="fill:#5f5f5f"
       d="m 77.748682,324.91857 c -7.145397,-3.72023 -7.525318,-16.32744 -0.618923,-20.53812 4.853463,-2.95906 11.517705,-1.18746 14.141586,3.75935 1.658986,3.12769 1.669271,9.62934 0.02012,12.73714 -2.484682,4.68244 -8.731402,6.54667 -13.542813,4.04163 z m 9.440433,-3.51346 c 1.344494,-1.43115 1.792417,-2.85002 2.017969,-6.39223 0.259118,-4.06932 0.08929,-4.79119 -1.599305,-6.79797 -2.274058,-2.70257 -5.010981,-3.51951 -7.850564,-2.34332 -2.818221,1.16735 -4.212422,4.12216 -4.212422,8.92765 0,3.21716 0.358722,4.40181 1.88055,6.21041 2.5243,2.99995 7.1413,3.18695 9.763772,0.39546 z m 29.914445,3.65063 c -3.6351,-1.57938 -4.60228,-4.68925 -4.35539,-14.00429 0.17816,-6.72181 0.37666,-7.79818 1.47701,-8.00893 1.14095,-0.21853 1.27119,0.48806 1.27119,6.89691 0,7.45523 0.78603,11.70704 2.3475,12.69814 0.5067,0.32161 2.06533,0.58474 3.46363,0.58474 1.39831,0 2.95694,-0.26313 3.46364,-0.58474 1.56147,-0.9911 2.3475,-5.24291 2.3475,-12.69814 0,-6.40885 0.13024,-7.11544 1.27119,-6.89691 1.10035,0.21075 1.29885,1.28712 1.47701,8.00893 0.25091,9.46656 -0.70693,12.44424 -4.5147,14.03523 -3.14659,1.31473 -5.16884,1.30714 -8.24858,-0.0309 z m 19.63978,0.28171 c -1.68755,-0.48726 -2.36077,-1.11218 -2.36077,-2.19138 0,-1.16001 0.29445,-1.3842 1.27118,-0.96783 0.69915,0.29804 3.08221,0.69422 5.29568,0.8804 4.61987,0.38858 6.0364,-0.6005 5.65269,-3.94691 -0.20681,-1.80363 -0.76085,-2.21159 -4.75505,-3.50124 -5.50363,-1.77703 -7.02867,-3.1839 -7.02867,-6.48408 0,-4.72038 4.02996,-6.91432 10.82809,-5.89488 2.62032,0.39294 3.26392,0.7768 3.26392,1.94668 0,1.04744 -0.35747,1.35102 -1.27119,1.07958 -5.09382,-1.51331 -8.16218,-1.00019 -9.55238,1.59741 -1.13354,2.11803 0.45764,3.65629 5.01652,4.8497 6.09567,1.59571 8.75243,5.66705 6.47497,9.92252 -1.59889,2.98755 -7.53385,4.24068 -12.83499,2.71003 z m 23.07743,-0.45964 c -3.8583,-1.93847 -5.82561,-5.41244 -5.82561,-10.28711 0,-5.02097 1.74371,-8.54198 5.12953,-10.35781 4.36009,-2.33834 12.30388,-1.23441 12.30388,1.70985 0,0.87036 -0.36004,1.29295 -0.90799,1.06572 -4.50222,-1.86701 -6.12599,-2.03928 -8.77777,-0.9313 -4.36148,1.82235 -6.07522,7.72524 -3.81399,13.13711 0.56545,1.35331 1.68803,2.81376 2.49462,3.24543 2.15541,1.15355 7.53273,0.95547 9.39072,-0.34592 1.51532,-1.06136 1.61441,-1.0368 1.61441,0.40026 0,1.06046 -0.77425,1.85454 -2.51904,2.58357 -3.3306,1.3916 -6.01044,1.3268 -9.08876,-0.2198 z m 21.0509,0 c -5.10973,-2.55259 -7.18268,-10.50853 -4.30019,-16.50395 3.39332,-7.05788 14.2045,-7.19988 17.8205,-0.23406 1.72015,3.31367 1.64772,9.8828 -0.14259,12.93223 -2.70834,4.61312 -8.47667,6.25413 -13.37772,3.80578 z m 9.46514,-3.4727 c 1.3445,-1.43115 1.79242,-2.85002 2.01797,-6.39223 0.25912,-4.06932 0.0893,-4.79119 -1.5993,-6.79797 -2.27406,-2.70257 -5.01098,-3.51951 -7.85057,-2.34332 -2.81822,1.16735 -4.21242,4.12216 -4.21242,8.92765 0,3.21716 0.35872,4.40181 1.88055,6.21041 2.5243,2.99995 7.1413,3.18695 9.76377,0.39546 z m 11.78183,3.97056 c -1.67529,-0.51084 -2.36077,-1.15824 -2.36077,-2.2296 0,-1.16633 0.28914,-1.3827 1.27118,-0.95126 1.92762,0.84686 6.51546,1.25836 8.49377,0.76184 1.9512,-0.48972 2.92444,-2.57897 2.22619,-4.77897 -0.32316,-1.01817 -1.91649,-1.87004 -5.48607,-2.9331 -5.31839,-1.58389 -6.52201,-2.75345 -6.48197,-6.29852 0.0423,-3.74014 3.04013,-6.04049 7.87217,-6.04049 3.77118,0 6.63257,1.11396 6.63257,2.58211 0,0.9502 -0.43575,1.05751 -2.36077,0.58138 -5.21827,-1.29069 -9.27602,-0.16991 -9.25038,2.55499 0.0203,2.1639 1.13282,2.99748 5.48235,4.10801 5.05886,1.29164 6.85519,3.08252 6.85519,6.83439 0,5.11218 -6.1267,7.8726 -12.89346,5.80922 z m -154.903144,-11.25926 0,-11.30733 1.997579,0.22985 c 1.805724,0.20777 2.281563,0.95054 4.954415,7.73375 l 2.956837,7.50391 2.867121,-7.50391 c 2.752011,-7.20264 2.954098,-7.50391 5.033478,-7.50391 l 2.166357,0 0.200517,11.07748 c 0.192836,10.6531 0.144969,11.07749 -1.249484,11.07749 -1.362627,0 -1.462252,-0.55808 -1.653302,-9.26151 -0.225259,-10.26184 -0.05329,-10.26184 -3.927257,0 -1.542872,4.08696 -2.12789,4.90315 -3.514395,4.90315 -1.437157,0 -1.996614,-0.91389 -4.113252,-6.71913 l -2.449849,-6.71913 -0.203956,8.89831 c -0.190211,8.29864 -0.300353,8.89831 -1.634382,8.89831 -1.361713,0 -1.430427,-0.54318 -1.430427,-11.30733 z m 50.28374,0.239 c 0.177523,-9.79893 0.343918,-11.09584 1.450889,-11.30833 1.126475,-0.21623 1.270425,0.75451 1.452785,9.79714 l 0.20242,10.03714 5.26634,0.21342 c 4.02881,0.16327 5.26634,0.46199 5.26634,1.27119 0,0.85207 -1.34563,1.05777 -6.91965,1.05777 l -6.919637,0 0.200513,-11.06833 z"
       id="path4320"
       inkscape:connector-curvature="0" />
    <path
       style="fill:#060606"
       d="m 80.266343,325.41391 c -5.279346,-1.13086 -7.627119,-4.60099 -7.627119,-11.2733 0,-7.43763 4.638305,-11.90266 11.323206,-10.90019 6.03077,0.90437 8.875111,5.66253 8.114833,13.57491 -0.578622,6.02177 -5.866983,9.8718 -11.81092,8.59858 z m 5.381702,-2.49829 c 3.138073,-1.62276 4.887639,-6.8761 3.726334,-11.18886 -1.137167,-4.22312 -2.84238,-5.94418 -6.356426,-6.41551 -2.682516,-0.35981 -3.300661,-0.1524 -5.196704,1.74364 -5.352845,5.35285 -2.333979,16.73541 4.478745,16.88698 0.718991,0.016 2.225615,-0.44582 3.348051,-1.02625 z m 32.806285,2.48105 c -4.58246,-1.04659 -5.86353,-4.55431 -5.86353,-16.05495 0,-5.14231 0.13833,-5.70975 1.39195,-5.70975 1.28062,0 1.41134,0.69524 1.63438,8.69276 0.28044,10.05587 0.88445,11.25001 5.69037,11.25001 4.80592,0 5.40993,-1.19414 5.69038,-11.25001 0.19244,-6.90006 0.45459,-8.69276 1.27119,-8.69276 0.82752,0 1.02875,1.62728 1.02875,8.31933 0,4.57563 -0.36299,9.11599 -0.80663,10.08968 -1.33193,2.92328 -5.63338,4.36141 -10.03686,3.35569 z m 21.37618,0.24883 c -4.27386,-0.8188 -4.72155,-1.04425 -4.72155,-2.37772 0,-1.31775 0.15117,-1.33871 2.51904,-0.34935 3.46047,1.44587 5.66183,1.3199 7.91568,-0.45299 3.7035,-2.91317 2.01539,-5.55931 -4.78778,-7.50493 -4.37144,-1.25017 -5.64694,-2.57845 -5.64694,-5.8806 0,-2.90037 1.1801,-4.51889 3.96494,-5.43797 3.05755,-1.00908 9.06012,-0.25908 9.62082,1.20209 0.59126,1.5408 0.12424,1.66115 -3.10335,0.79965 -3.58766,-0.95759 -6.54197,-0.31344 -7.59611,1.65626 -1.30426,2.43703 -0.19592,4.2142 3.15024,5.05122 7.61942,1.90594 10.01419,4.46303 8.49389,9.06959 -1.03373,3.13222 -5.491,5.05199 -9.80888,4.22475 z m 22.35475,-0.26754 c -5.33635,-1.1155 -8.19117,-4.95322 -8.18898,-11.00838 0.002,-5.943 3.72127,-10.49827 9.16765,-11.22878 3.34841,-0.44911 8.26464,1.31129 8.26464,2.95941 0,0.9614 -0.29637,0.96575 -2.51904,0.0371 -4.21587,-1.7615 -6.75671,-1.36515 -9.62298,1.50112 -2.48245,2.48245 -2.54531,2.68428 -2.2552,7.24045 0.23362,3.66895 0.67146,5.08389 2.01606,6.51514 2.27351,2.42004 5.62635,2.99076 9.08368,1.54619 1.51168,-0.63162 2.87202,-1.1484 3.02299,-1.1484 0.66466,0 0.19197,2.14443 -0.57752,2.62001 -1.53892,0.9511 -6.004,1.46521 -8.3913,0.96617 z m 21.22878,0.036 c -5.32485,-1.14061 -7.7724,-4.58237 -7.7724,-10.92962 0,-7.56832 4.35765,-12.08761 10.86507,-11.26809 5.95811,0.75035 8.8928,4.47148 8.8928,11.27591 0,7.65552 -5.18334,12.37885 -11.98547,10.9218 z m 5.3817,-2.49829 c 2.50415,-1.29495 3.94219,-4.56411 3.87791,-8.81584 -0.0681,-4.50681 -2.13771,-7.76126 -5.46531,-8.59432 -5.34196,-1.33736 -8.85513,2.22246 -8.85439,8.97196 7.3e-4,7.3199 4.91882,11.29424 10.44179,8.4382 z m 17.13646,2.87325 c -0.39951,-0.13539 -1.95218,-0.45118 -3.45036,-0.70176 -1.99425,-0.33355 -2.72397,-0.8132 -2.72397,-1.79051 0,-1.25248 0.19007,-1.26941 3.07888,-0.27414 5.12582,1.76599 9.26979,0.24165 9.26979,-3.40986 0,-2.54238 -0.96724,-3.31898 -5.45761,-4.3819 -6.17765,-1.46231 -8.54254,-5.67134 -5.4182,-9.64329 2.48255,-3.15606 11.60558,-3.35524 12.20072,-0.26637 0.19959,1.03588 -0.0559,1.11069 -1.68167,0.49255 -4.50006,-1.71091 -9.08634,-0.0228 -9.08634,3.34457 0,1.3809 0.59916,2.06221 2.51904,2.86439 1.38547,0.57888 3.15821,1.05252 3.93943,1.05252 0.7812,0 2.42609,0.84624 3.65528,1.88055 1.70187,1.43203 2.23491,2.4794 2.23491,4.39137 0,2.8489 -2.65181,6.07675 -4.99232,6.07675 -0.78451,0 -1.86172,0.13754 -2.39378,0.30564 -0.53208,0.16811 -1.29428,0.19488 -1.6938,0.0595 z M 47.215496,314.5279 l 0,-10.89588 2.090102,0 c 1.968579,0 2.223431,0.36954 4.383252,6.35593 1.261233,3.49576 2.581024,6.82056 2.93287,7.38844 0.706503,1.14029 1.324729,-0.0884 4.448397,-8.84123 1.586552,-4.44565 1.936812,-4.90314 3.753895,-4.90314 l 2.004074,0 0,10.89588 c 0,9.20097 -0.169491,10.89589 -1.089588,10.89589 -0.913493,0 -1.089588,-1.54964 -1.089588,-9.58838 0,-5.32885 -0.27459,-9.28182 -0.618114,-8.89831 -0.339961,0.37954 -1.720165,3.71368 -3.067119,7.4092 -1.990354,5.46077 -2.72484,6.71903 -3.921838,6.7186 -1.201029,-4.3e-4 -1.939386,-1.2851 -4.000972,-6.96129 -1.390478,-3.82842 -2.779703,-7.11624 -3.087167,-7.30627 -0.307465,-0.19002 -0.559027,3.92319 -0.559027,9.14047 0,7.94772 -0.17669,9.48598 -1.089589,9.48598 -0.920097,0 -1.089588,-1.69492 -1.089588,-10.89589 z m 50.847457,0 c 0,-9.20097 0.169489,-10.89588 1.089588,-10.89588 0.914719,0 1.089589,1.57385 1.089589,9.80629 l 0,9.8063 5.44794,0 c 4.35835,0 5.44794,0.21792 5.44794,1.08959 0,0.88781 -1.21065,1.08959 -6.53753,1.08959 l -6.537527,0 0,-10.89589 z"
       id="path4318"
       inkscape:connector-curvature="0" />
  </g>
</svg>
