<?xml version="1.0" encoding="UTF-8" standalone="no"?>
<!-- Created with Inkscape (http://www.inkscape.org/) -->

<svg
   xmlns:dc="http://purl.org/dc/elements/1.1/"
   xmlns:cc="http://creativecommons.org/ns#"
   xmlns:rdf="http://www.w3.org/1999/02/22-rdf-syntax-ns#"
   xmlns:svg="http://www.w3.org/2000/svg"
   xmlns="http://www.w3.org/2000/svg"
   xmlns:sodipodi="http://sodipodi.sourceforge.net/DTD/sodipodi-0.dtd"
   xmlns:inkscape="http://www.inkscape.org/namespaces/inkscape"
   id="svg4348"
   version="1.1"
   inkscape:version="0.91 r13725"
   width="100"
   height="100"
   viewBox="0 0 100 100"
   sodipodi:docname="most50.svg">
  <metadata
     id="metadata4354">
    <rdf:RDF>
      <cc:Work
         rdf:about="">
        <dc:format>image/svg+xml</dc:format>
        <dc:type
           rdf:resource="http://purl.org/dc/dcmitype/StillImage" />
        <dc:title />
      </cc:Work>
    </rdf:RDF>
  </metadata>
  <defs
     id="defs4352">
    <clipPath
       clipPathUnits="userSpaceOnUse"
       id="clipPath4378">
      <rect
         style="opacity:0.181;fill:#ff0000;fill-opacity:1;fill-rule:nonzero;stroke:none;stroke-width:3.5999999;stroke-linecap:round;stroke-linejoin:round;stroke-miterlimit:4;stroke-dasharray:none;stroke-opacity:1"
         id="rect4380"
         width="240"
         height="240"
         x="11.376154"
         y="40.466042" />
    </clipPath>
    <clipPath
       clipPathUnits="userSpaceOnUse"
       id="clipPath4296">
      <circle
         style="opacity:0.206;fill:#ff0000;fill-rule:evenodd;stroke:none;stroke-width:1px;stroke-linecap:butt;stroke-linejoin:miter;stroke-opacity:1"
         id="circle4298"
         cx="131.37616"
         cy="160.46603"
         r="117.6" />
    </clipPath>
  </defs>
  <sodipodi:namedview
     pagecolor="#ffffff"
     bordercolor="#666666"
     borderopacity="1"
     objecttolerance="10"
     gridtolerance="10"
     guidetolerance="10"
     inkscape:pageopacity="0"
     inkscape:pageshadow="2"
     inkscape:window-width="1920"
     inkscape:window-height="1017"
     id="namedview4350"
     showgrid="false"
     fit-margin-top="0"
     fit-margin-left="0"
     fit-margin-right="0"
     fit-margin-bottom="0"
     inkscape:zoom="1.3249068"
     inkscape:cx="94.797607"
     inkscape:cy="100.1977"
     inkscape:window-x="-8"
     inkscape:window-y="-8"
     inkscape:window-maximized="1"
     inkscape:current-layer="svg4348" />
  <g
     id="g4358"
     transform="matrix(0.41666667,0,0,0.41666667,-4.7400646,-16.860851)"
     clip-path="url(#clipPath4296)">
    <path
       style="fill:#fefefe"
       d="M 0,185.95642 0,0 l 131.1138,0 131.1138,0 0,185.95642 0,185.95642 -131.1138,0 -131.1138,0 0,-185.95642 z"
       id="path4374"
       inkscape:connector-curvature="0" />
    <path
       style="fill:#e3cfa2"
       d="m 58.837772,315.57359 0,-11.30293 2.635431,0.22545 c 2.627328,0.22476 2.643425,0.24716 5.235176,7.28835 l 2.599745,7.0629 2.639775,-7.0629 c 2.639509,-7.06219 2.640047,-7.06293 5.316672,-7.2895 l 2.6769,-0.22659 -0.20076,11.12248 c -0.196961,10.91185 -0.231712,11.12687 -1.835143,11.35459 -1.616818,0.22963 -1.634913,0.13594 -1.683421,-8.71671 l -0.04903,-8.94882 -2.589123,6.71913 c -2.217109,5.75371 -2.827154,6.71913 -4.245808,6.71913 -1.377865,0 -1.968818,-0.82521 -3.511269,-4.90315 -1.020019,-2.69673 -2.171945,-5.72034 -2.559834,-6.71913 -0.519625,-1.338 -0.717373,0.52613 -0.751298,7.08232 l -0.04605,8.89831 -1.815981,0 -1.81598,0 0,-11.30293 z m 28.786685,9.10901 c -6.640983,-5.83086 -4.209661,-18.14028 4.020748,-20.35649 9.181255,-2.47226 15.921945,7.59233 11.543625,17.23589 -1.6891,3.72035 -4.515635,5.31452 -9.422879,5.31452 -3.017143,0 -4.071901,-0.37679 -6.141494,-2.19392 z m 11.219869,-2.58615 c 1.484844,-1.58055 1.761004,-2.60316 1.761004,-6.52103 0,-4.08912 -0.23726,-4.88376 -1.977774,-6.62428 -2.384608,-2.38461 -6.264603,-2.67033 -8.521852,-0.62755 -3.351625,3.03318 -3.529874,10.7638 -0.322148,13.97153 2.39875,2.39875 6.709409,2.30423 9.06077,-0.19867 z m 10.659304,4.27935 c -0.78877,-0.20613 -1.27119,-1.03065 -1.27119,-2.17263 0,-1.48558 0.2451,-1.73059 1.27119,-1.27068 2.3118,1.03617 8.16515,1.22196 9.28249,0.29465 1.30581,-1.08373 1.39826,-3.89887 0.16061,-4.8907 -0.49939,-0.4002 -2.81086,-1.27333 -5.13659,-1.94028 -3.64715,-1.0459 -4.37063,-1.55258 -5.26157,-3.68491 -1.9472,-4.66029 1.18639,-8.63704 6.79616,-8.62482 5.17784,0.0113 7.41556,0.77251 7.41556,2.52266 0,1.32305 -0.27384,1.4295 -2.36078,0.91763 -4.92828,-1.20878 -9.2615,0.0684 -9.2615,2.72973 0,1.27327 2.50262,2.85317 5.2037,3.28509 4.40006,0.7036 7.14497,3.35249 7.14497,6.89504 0,2.0829 -0.49079,3.3648 -1.78296,4.65697 -1.53976,1.53977 -2.40674,1.77148 -6.35594,1.69871 -2.51513,-0.0464 -5.145,-0.23376 -5.84415,-0.41646 z m 23.42615,-9.30558 0,-9.80629 -3.99516,0 c -3.51089,0 -3.99515,-0.17609 -3.99515,-1.45279 0,-1.37828 0.48426,-1.45278 9.4431,-1.45278 8.95883,0 9.44309,0.0745 9.44309,1.45278 0,1.2767 -0.48426,1.45279 -3.99515,1.45279 l -3.99516,0 0,9.80629 c 0,9.32204 -0.0718,9.8063 -1.45278,9.8063 -1.38104,0 -1.45279,-0.48426 -1.45279,-9.8063 z m 8.71671,9.15843 c 0,-0.51728 5.32263,-14.88304 7.63214,-20.5991 0.30878,-0.76426 1.27923,-1.26782 2.43347,-1.26274 1.80442,0.008 2.16008,0.64755 5.91502,10.63726 2.19733,5.84585 4.10411,10.90863 4.23728,11.25063 0.13318,0.342 -0.55271,0.62182 -1.52419,0.62182 -1.38623,0 -2.01194,-0.62525 -2.90766,-2.90557 l -1.14135,-2.90557 -4.66979,0 -4.6698,0 -1.14134,2.90557 c -0.82217,2.09302 -1.56396,2.90557 -2.65256,2.90557 -0.83117,0 -1.51122,-0.29154 -1.51122,-0.64787 z m 12.45297,-11.5192 c -0.73,-1.8977 -1.57215,-4.10412 -1.87144,-4.90315 -0.46226,-1.23415 -0.73849,-0.96087 -1.83557,1.81598 -2.69934,6.83235 -2.76085,6.53753 1.36398,6.53753 l 3.67031,0 -1.32728,-3.45036 z m 8.87932,11.08853 c -0.25803,-0.67241 2.19511,-4.2966 6.51477,-9.6247 l 6.92863,-8.54616 -6.49196,-0.20886 c -5.89537,-0.18966 -6.49197,-0.33985 -6.49197,-1.63438 0,-1.33724 0.53982,-1.42552 8.71671,-1.42552 8.29487,0 8.71671,0.0718 8.71671,1.48468 0,0.81657 -2.9925,5.14769 -6.64999,9.6247 l -6.64998,8.14001 7.01317,0.20791 c 6.41525,0.19017 7.01319,0.32952 7.01319,1.63438 0,1.34183 -0.54021,1.42648 -9.1027,1.42648 -7.37976,0 -9.18103,-0.20415 -9.51658,-1.07854 z m 20.08367,0.17055 c 0.007,-0.4994 1.76405,-5.48426 3.90593,-11.07748 3.73647,-9.75725 3.97754,-10.16949 5.94706,-10.16949 2.20038,0 1.79884,-0.81729 9.03544,18.39044 l 1.45525,3.86259 -1.94549,-0.23063 c -1.48985,-0.17662 -2.14427,-0.82607 -2.79428,-2.77301 -0.84306,-2.5252 -0.88087,-2.54381 -5.59846,-2.75507 l -4.74967,-0.21271 -1.17503,2.93668 c -0.82676,2.06626 -1.60736,2.93667 -2.63369,2.93667 -0.80227,0 -1.45344,-0.4086 -1.44706,-0.90799 z m 12.72323,-9.8063 c -0.27375,-1.09866 -1.05883,-3.2885 -1.74461,-4.86631 l -1.2469,-2.86873 -1.60289,4.39609 c -0.8816,2.41786 -1.6029,4.6077 -1.6029,4.86632 0,0.25861 1.50637,0.47021 3.34751,0.47021 3.28822,0 3.33869,-0.0354 2.84979,-1.99758 z M 114.36784,274.1862 C 89.974336,270.624 67.106717,259.00723 49.341018,241.15256 27.71657,219.41982 15.980629,190.93057 15.980629,160.16949 c 0,-57.37539 42.193703,-105.976076 99.019131,-114.054885 13.63549,-1.938541 32.76792,-0.961235 43.76443,2.235536 l 4.01014,1.165779 -22.86807,23.414641 -22.86807,23.414644 21.26559,21.256425 21.26559,21.25643 28.00856,-28.4741 28.00855,-28.474087 2.56411,2.838175 c 17.62924,19.513462 28.09638,47.611272 28.09638,75.421442 0,57.39032 -42.17892,105.97398 -99.01913,114.05489 -8.99561,1.2789 -23.95992,1.26151 -32.86,-0.0382 z m 28.36824,-25.77472 c 18.48701,-1.17059 26.99007,-3.12144 38.70792,-8.88075 5.79653,-2.84899 8.28169,-4.55777 11.07748,-7.61682 3.0538,-3.34134 3.60443,-4.38425 3.60443,-6.82692 0,-1.58571 -0.48998,-3.8306 -1.08883,-4.98866 -2.88973,-5.58811 -14.36497,-10.5105 -28.68976,-12.30668 -10.13947,-1.27138 -12.36696,-1.03555 -21.25397,2.25028 -7.02415,2.59706 -9.18803,3.06727 -15.44699,3.35656 -4.76793,0.22038 -9.90438,-0.075 -14.89104,-0.85642 -10.67235,-1.67231 -25.737955,-3.31013 -30.602967,-3.32693 l -4.104305,-0.0142 -0.83631,-3.48613 c -1.095458,-4.56638 -0.251209,-6.69142 3.752891,-9.44632 1.73036,-1.19051 4.527849,-3.66358 6.216646,-5.49571 2.790392,-3.02723 3.07054,-3.67632 3.07054,-7.11453 0,-2.08086 -0.520555,-5.85903 -1.156787,-8.39594 -1.353458,-5.39679 -1.100375,-5.93487 4.016731,-8.54008 4.18784,-2.1321 6.095481,-4.18868 7.987021,-8.61057 1.86275,-4.35461 1.88201,-5.72637 0.10296,-7.33639 -2.26369,-2.04861 -3.876426,-1.12083 -6.228375,3.58306 -1.891795,3.78358 -2.706051,4.62244 -6.174335,6.36085 -7.370651,3.69441 -8.606702,6.86361 -6.479055,16.61214 0.782964,3.58742 1.171838,6.96794 0.864152,7.51225 -0.307685,0.54432 -3.061474,2.96077 -6.119535,5.36989 -6.783049,5.34366 -7.552863,7.11447 -6.882744,15.83248 l 0.464139,6.03825 -2.364158,1.01415 c -3.448565,1.47934 -6.975509,5.30922 -7.509234,8.15422 -0.87557,4.66719 0.144816,7.00776 5.335768,12.23927 8.437174,8.50309 17.979803,11.98577 36.865177,13.45437 5.98731,0.46559 13.82791,1.10831 17.42355,1.42826 3.59564,0.31994 7.02785,0.62474 7.62712,0.67731 0.59928,0.0526 6.31961,-0.23557 12.71187,-0.64032 z m 21.79176,-10.19281 c -3.18074,-0.46424 -2.68581,-0.82863 2.89232,-2.12941 5.1223,-1.19449 12.43221,-4.9917 15.69477,-8.15281 1.76684,-1.7119 3.14713,-3.95384 3.78851,-6.15346 0.93721,-3.21417 1.06862,-3.34897 1.84697,-1.89462 2.4735,4.62179 -0.71335,9.68495 -9.26912,14.72646 -5.15524,3.03774 -10.31391,4.281 -14.95345,3.60384 z m -42.2261,-99.24187 c 4.79119,-3.32586 9.0526,-6.04702 9.46982,-6.04702 0.41721,0 2.97563,2.20008 5.68538,4.88907 l 4.92681,4.88906 3.67092,-3.67092 3.67092,-3.67091 -15.16733,-14.61566 -15.16733,-14.61566 -3.39632,3.39631 -3.39632,3.39631 5.20864,5.24363 5.20863,5.24363 -6.82049,10.28328 c -6.41572,9.67301 -6.74025,10.34195 -5.46857,11.27184 0.74357,0.5437 1.69214,0.77828 2.10797,0.52129 0.41581,-0.25698 4.67608,-3.1884 9.46727,-6.51425 z"
       id="path4372"
       inkscape:connector-curvature="0" />
    <path
       style="fill:#a0a0a0"
       d="m 59.322033,326.39226 c -0.266344,-0.26634 -0.484261,-5.33293 -0.484261,-11.25908 l 0,-10.77482 2.478868,0 c 2.410682,0 2.533393,0.14486 4.46108,5.26634 3.981184,10.57722 3.252111,10.31548 6.230962,2.23696 2.619353,-7.10357 2.645358,-7.1401 5.082048,-7.1401 l 2.449221,0 0,10.89588 c 0,10.70077 -0.02884,10.89999 -1.611647,11.12502 -1.580542,0.22472 -1.615583,0.0565 -1.81598,-8.7167 l -0.204335,-8.94585 -2.449852,6.71913 c -2.097372,5.75241 -2.684525,6.71913 -4.080966,6.71913 -1.386402,0 -2.019564,-1.00808 -4.22024,-6.71913 l -2.589121,-6.71913 -0.04904,8.8983 c -0.04479,8.12657 -0.164537,8.89831 -1.380758,8.89831 -0.732446,0 -1.549637,-0.21792 -1.81598,-0.48426 z m 29.514685,-0.93912 c -1.279031,-0.77987 -2.855041,-2.44195 -3.502249,-3.69351 -1.311777,-2.53668 -1.558112,-8.76966 -0.460613,-11.65454 2.915303,-7.66314 14.903579,-7.94604 18.314974,-0.43221 2.57447,5.67046 1.44902,11.57743 -2.90366,15.23998 -2.91789,2.45524 -7.920619,2.69133 -11.448452,0.54028 z m 9.930356,-3.27447 c 2.062736,-2.19567 2.819216,-8.0377 1.464346,-11.30863 -1.158499,-2.79687 -4.452804,-4.58438 -7.297377,-3.95961 -5.494533,1.20681 -7.544027,10.05002 -3.515986,15.17085 2.071823,2.6339 6.918661,2.68439 9.349017,0.0974 z m 11.099756,4.18521 c -1.15476,-0.22242 -1.63439,-0.82761 -1.63439,-2.06228 0,-1.57566 0.18321,-1.67782 1.86327,-1.03906 3.37345,1.28258 8.10444,0.87889 9.27433,-0.79136 2.06939,-2.95447 0.19031,-4.94584 -5.77309,-6.11809 -3.68254,-0.72388 -5.47877,-2.91068 -5.22153,-6.35685 0.28862,-3.86653 2.70017,-5.75895 7.33876,-5.75895 4.52978,0 6.31972,0.66929 6.31972,2.36304 0,1.19646 -0.31171,1.33131 -1.99758,0.86422 -4.74428,-1.31445 -8.89831,-0.0517 -8.89831,2.70495 0,1.75445 1.20815,2.54811 5.44795,3.5789 4.62597,1.12468 6.90072,3.19963 6.90072,6.29461 0,3.35416 -0.61867,4.56132 -2.95752,5.77079 -1.93042,0.99825 -6.98229,1.25889 -10.66233,0.55008 z m 23.06295,-9.29366 0,-9.80629 -3.99516,0 c -3.51089,0 -3.99515,-0.17609 -3.99515,-1.45279 0,-1.37828 0.48426,-1.45278 9.4431,-1.45278 8.95883,0 9.44309,0.0745 9.44309,1.45278 0,1.2767 -0.48426,1.45279 -3.99515,1.45279 l -3.99516,0 0,9.80629 c 0,9.32204 -0.0718,9.8063 -1.45278,9.8063 -1.38104,0 -1.45279,-0.48426 -1.45279,-9.8063 z m 8.71671,9.26894 c 0,-0.29555 1.84497,-5.3793 4.09994,-11.29722 3.89626,-10.22531 4.19206,-10.74894 5.95442,-10.54012 1.66106,0.19682 2.25076,1.24252 5.65397,10.02603 4.27498,11.0335 4.53917,12.34867 2.48063,12.34867 -1.03155,0 -1.66337,-0.80022 -2.29416,-2.90557 l -0.87053,-2.90557 -4.89089,0 -4.89089,0 -1.16258,2.90557 c -0.81595,2.03925 -1.5975,2.90557 -2.62124,2.90557 -0.80228,0 -1.45867,-0.24182 -1.45867,-0.53736 z m 11.97923,-12.98738 c -0.99536,-2.64442 -1.82677,-5.01427 -1.84759,-5.26635 -0.0474,-0.57424 -3.56559,8.78536 -3.58205,9.52959 -0.007,0.29963 1.61951,0.54479 3.61366,0.54479 l 3.62571,0 -1.80973,-4.80803 z m 9.81253,12.01708 c 0,-0.87313 2.86917,-5.09417 6.55742,-9.64705 l 6.55741,-8.09469 -6.55741,-0.20886 c -5.96041,-0.18983 -6.55742,-0.33863 -6.55742,-1.63438 0,-1.33724 0.53982,-1.42552 8.71671,-1.42552 8.09904,0 8.71671,0.0984 8.71671,1.38901 0,0.76396 -2.94189,4.98887 -6.53753,9.38868 -3.59564,4.39983 -6.53753,8.18761 -6.53753,8.41729 0,0.22969 3.1293,0.41761 6.95398,0.41761 6.23143,0 6.92867,0.13209 6.71029,1.27119 -0.21366,1.11446 -1.33966,1.29633 -9.13317,1.47514 -8.65891,0.19867 -8.88946,0.16369 -8.88946,-1.34842 z m 19.6126,0.91031 c 0,-0.55681 5.19069,-14.59982 7.64721,-20.68892 0.35286,-0.87463 1.13313,-1.23701 2.34608,-1.08959 1.6193,0.19682 2.24134,1.32939 5.70675,10.39039 2.13914,5.59322 3.89457,10.57808 3.90095,11.07748 0.007,0.49939 -0.59257,0.90799 -1.331,0.90799 -0.89449,0 -1.72802,-0.9812 -2.49738,-2.93978 l -1.15478,-2.93978 -4.88598,0.21581 c -4.87254,0.21521 -4.88832,0.2228 -5.73562,2.75818 -0.5705,1.70709 -1.36654,2.61864 -2.42294,2.77449 -0.86531,0.12767 -1.57329,-0.0821 -1.57329,-0.46627 z m 11.76525,-13.26906 -1.83552,-5.1497 -1.6961,4.51174 c -0.93285,2.48146 -1.6961,4.79882 -1.6961,5.1497 0,0.35088 1.58923,0.63796 3.53162,0.63796 l 3.53163,0 -1.83553,-5.1497 z m -74.9252,-38.49649 c -40.569651,-3.90676 -76.985175,-29.89457 -93.230075,-66.53334 -7.654027,-17.2629 -10.25332,-29.38329 -10.25332,-47.81079 0,-26.42353 7.593586,-48.96352 23.615206,-70.096849 23.010006,-30.351363 62.186899,-47.745418 99.960239,-44.38111 8.98554,0.800303 19.24909,2.5854 21.22979,3.692414 0.77673,0.434109 -4.78059,6.458132 -21.75245,23.579238 l -22.79571,22.99617 21.55717,21.557177 21.55717,21.55717 27.86602,-28.31409 c 25.75219,-26.166269 27.96453,-28.23247 29.16459,-27.238134 0.71422,0.591777 3.14965,3.533666 5.41207,6.537531 16.07046,21.337123 23.59849,43.702703 23.59849,70.110483 0,11.72132 -0.69643,17.68962 -3.30574,28.3293 -8.11467,33.08825 -31.97303,61.66964 -63.51097,76.08367 -12.56077,5.74075 -23.40612,8.60494 -37.72009,9.96165 -8.87688,0.84137 -12.39052,0.83636 -21.39239,-0.0305 z m 38.09941,-27.16729 c 9.41229,-1.66778 15.77293,-3.68115 23.49365,-7.43659 7.39655,-3.59776 14.19005,-9.40595 15.06115,-12.87672 0.64795,-2.58162 -0.7755,-7.24755 -2.80866,-9.20652 -6.64977,-6.40713 -21.14589,-10.87768 -35.18689,-10.85152 -5.52946,0.0103 -7.28132,0.35627 -13.27111,2.62082 -10.99396,4.15647 -17.04837,4.55914 -33.15569,2.20513 -7.23944,-1.05802 -17.354766,-2.15755 -22.47849,-2.44341 -10.503218,-0.58599 -10.234939,-0.39893 -10.395109,-7.24789 -0.06966,-2.97715 0.07801,-3.19242 3.839877,-5.59885 5.184908,-3.31675 8.93254,-7.76453 9.31699,-11.05762 0.166605,-1.42705 -0.0029,-4.43091 -0.377201,-6.67524 -0.374063,-2.24432 -0.72207,-5.37712 -0.773353,-6.96179 -0.0912,-2.81796 -0.0015,-2.92544 4.095087,-4.89618 4.509188,-2.16934 7.328419,-5.6498 9.220639,-11.38328 0.89049,-2.69821 0.85834,-3.12966 -0.33121,-4.44409 -0.74294,-0.82094 -2.23852,-1.45577 -3.4296,-1.45577 -1.890701,0 -2.331519,0.48379 -4.204377,4.61429 -1.875704,4.13678 -2.453651,4.76977 -5.584917,6.1168 -5.122322,2.20356 -8.21238,5.99949 -8.21238,10.08833 0,1.11581 0.538554,4.53493 1.196782,7.59805 0.658235,3.06312 1.003736,6.0724 0.767775,6.6873 -0.235954,0.61489 -2.865422,2.95177 -5.843259,5.19307 -3.318443,2.49767 -5.79478,4.97673 -6.397311,6.40436 -1.101218,2.60922 -1.28246,8.96202 -0.369428,12.94898 0.561112,2.45023 0.471109,2.66228 -1.320931,3.11204 -2.805741,0.7042 -8.045477,6.24275 -8.619042,9.11058 -0.871899,4.35949 0.576006,7.4079 6.010481,12.65445 8.180545,7.89765 17.239521,11.40247 33.130027,12.81764 4.77654,0.42539 11.95338,1.06626 15.94854,1.42415 10.26295,0.91935 32.82379,0.33117 40.67796,-1.06052 z m 4.89316,-9.50341 c 0.22755,-0.22755 2.30444,-0.90746 4.61529,-1.51091 5.00013,-1.30571 11.53236,-4.49556 14.74931,-7.20244 2.61156,-2.19749 5.14647,-6.68363 5.19021,-9.18537 0.0272,-1.55363 0.1044,-1.52424 1.17118,0.4457 2.56512,4.73681 -1.43056,9.98073 -11.67278,15.31933 -4.14523,2.16065 -5.61453,2.54743 -9.67712,2.54743 -2.6344,0 -4.60364,-0.18618 -4.37609,-0.41374 z m -40.66654,-98.44887 9.44158,-6.61079 5.36197,5.32617 5.36197,5.32618 3.80121,-3.80121 3.80121,-3.80121 -15.23206,-15.24503 -15.23207,-15.24502 -3.87017,3.80543 -3.87016,3.80543 5.38854,5.18302 5.38855,5.18302 -6.43613,9.8884 c -3.53988,5.43863 -6.43614,10.15046 -6.43614,10.47074 0,0.79552 1.59006,2.32567 2.41672,2.32567 0.37037,0 4.9221,-2.97486 10.11498,-6.6108 z"
       id="path4370"
       inkscape:connector-curvature="0" />
    <path
       style="fill:#ceac5c"
       d="m 59.564164,315.6707 0,-11.31234 2.090102,0 c 1.968579,0 2.223431,0.36954 4.383252,6.35593 1.261233,3.49576 2.559715,6.78608 2.885517,7.31182 0.389999,0.62933 1.52933,-1.54202 3.335027,-6.35593 2.600545,-6.93296 2.850852,-7.31182 4.830678,-7.31182 l 2.088015,0 0,11.31234 c 0,10.38224 -0.104521,11.2923 -1.271187,11.06864 -1.114351,-0.21364 -1.300184,-1.36287 -1.506218,-9.31477 l -0.235024,-9.07105 -2.687215,6.90072 c -3.735865,9.59365 -4.76932,9.6424 -8.127135,0.38335 l -2.517047,-6.94066 -0.363196,8.90002 c -0.315397,7.72872 -0.530493,8.93201 -1.634383,9.14306 -1.16664,0.22304 -1.271186,-0.68733 -1.271186,-11.06931 z m 29.843687,9.93351 c -3.336225,-1.70802 -5.147019,-5.34769 -5.143634,-10.33863 0.0051,-7.00541 3.789269,-10.90722 10.579358,-10.90722 2.952175,0 3.740107,0.35201 6.097245,2.72397 3.16682,3.18672 4.14673,7.27797 2.88152,12.03071 -1.80001,6.76168 -8.230145,9.65731 -14.414489,6.49117 z m 7.823361,-1.94198 c 2.526087,-1.30629 3.737308,-3.93629 3.737308,-8.11504 0,-5.32668 -2.638923,-9.00965 -6.455599,-9.00965 -4.731363,0 -7.738648,4.37326 -7.158573,10.41018 0.283961,2.9553 0.796336,4.06479 2.636426,5.7089 2.556494,2.28423 4.299675,2.52634 7.240438,1.00561 z m 12.635618,2.46526 c -0.89891,-0.36132 -1.63439,-1.28299 -1.63439,-2.04817 0,-1.31768 0.16199,-1.33542 3.06421,-0.33552 3.9632,1.36543 7.64124,0.71348 8.66623,-1.53613 1.22084,-2.67946 -0.24049,-4.48684 -4.44293,-5.49498 -5.08439,-1.21973 -7.28751,-3.11395 -7.28751,-6.26573 0,-3.82319 2.63024,-6.09127 7.04931,-6.07869 4.73491,0.0135 6.75215,0.64928 6.75215,2.12815 0,1.10236 -0.40107,1.16006 -3.56231,0.51249 -2.97198,-0.60881 -3.87479,-0.52499 -5.44794,0.50578 -2.01408,1.31967 -2.46457,3.46576 -0.97765,4.65735 0.4994,0.4002 2.77229,1.26212 5.05088,1.91537 4.63854,1.32983 6.3898,3.16934 6.3898,6.71183 0,3.59527 -3.40371,6.09034 -8.22765,6.03123 -2.0668,-0.0254 -4.49329,-0.34166 -5.3922,-0.70298 z m 23.06295,-9.05727 0,-9.80629 -3.99516,0 c -3.51089,0 -3.99515,-0.17609 -3.99515,-1.45279 0,-1.37828 0.48426,-1.45278 9.4431,-1.45278 8.95883,0 9.44309,0.0745 9.44309,1.45278 0,1.2767 -0.48426,1.45279 -3.99515,1.45279 l -3.99516,0 0,9.80629 c 0,9.32204 -0.0718,9.8063 -1.45278,9.8063 -1.38104,0 -1.45279,-0.48426 -1.45279,-9.8063 z m 8.86717,8.96223 c 6.94499,-19.01666 8.19569,-21.73604 9.89936,-21.52392 1.4864,0.18507 2.22621,1.5742 5.63686,10.58424 2.15925,5.70416 3.92591,10.68903 3.92591,11.07748 0,0.38844 -0.51661,0.70627 -1.14803,0.70627 -0.66678,0 -1.63129,-1.23028 -2.3009,-2.93494 l -1.15287,-2.93493 -5.08225,0.21096 -5.08224,0.21097 -0.84986,2.54237 c -0.59337,1.77511 -1.35551,2.61647 -2.52539,2.78789 -1.15646,0.16946 -1.56558,-0.0556 -1.32059,-0.72639 z m 13.28867,-9.14382 c -0.28476,-0.69916 -1.01692,-2.74213 -1.62704,-4.53996 -0.61012,-1.79782 -1.31948,-3.50604 -1.57636,-3.79605 -0.25689,-0.29 -1.32137,1.75297 -2.36554,4.53995 l -1.89847,5.06724 3.99258,0 c 3.51543,0 3.93071,-0.15192 3.47483,-1.27118 z m 8.35263,8.57358 c 0,-0.80247 2.98904,-5.14364 6.6423,-9.64705 l 6.64228,-8.18804 -6.64228,-0.20886 c -6.04474,-0.19006 -6.6423,-0.33709 -6.6423,-1.63438 0,-1.33724 0.53982,-1.42552 8.71671,-1.42552 7.81898,0 8.71627,0.13092 8.71247,1.27119 -0.002,0.69915 -3.11607,5.10004 -6.91943,9.77976 l -6.91518,8.50858 7.10102,0.20813 c 5.73526,0.1681 7.10102,0.41769 7.10102,1.29772 0,0.89812 -1.56361,1.12542 -8.8983,1.29354 -8.49442,0.19469 -8.89831,0.13773 -8.89831,-1.25507 z m 19.6126,0.95698 c 0,-0.25153 1.84612,-5.31811 4.1025,-11.25908 3.63119,-9.56083 4.29279,-10.80175 5.75895,-10.80175 1.33244,0 1.93608,0.74592 3.08609,3.81356 0.78632,2.09746 2.65394,7.00877 4.15028,10.91403 1.49634,3.90525 2.49518,7.3259 2.21965,7.60142 -0.89573,0.89574 -2.94663,-0.9958 -3.61805,-3.33693 -0.65386,-2.27985 -0.66682,-2.28506 -5.69345,-2.28506 l -5.0381,0 -1.14134,2.90557 c -0.75818,1.93016 -1.59206,2.90557 -2.48394,2.90557 -0.73843,0 -1.34259,-0.2058 -1.34259,-0.45733 z m 11.97923,-13.06741 c -0.99536,-2.64442 -1.80974,-4.98703 -1.80974,-5.20582 0,-0.9764 -0.73566,0.55925 -2.44829,5.1107 l -1.84496,4.90315 3.95636,0 3.95636,0 -1.80973,-4.80803 z M 119.8909,274.51362 c -40.569651,-3.90676 -76.985175,-29.89457 -93.230075,-66.53334 -7.654027,-17.2629 -10.25332,-29.38329 -10.25332,-47.81079 0,-26.42353 7.593586,-48.96352 23.615206,-70.096849 23.010006,-30.351363 62.186899,-47.745418 99.960239,-44.38111 8.98554,0.800303 19.24909,2.5854 21.22979,3.692414 0.77673,0.434109 -4.78059,6.458132 -21.75245,23.579238 l -22.79571,22.99617 21.55717,21.557177 21.55717,21.55717 27.86602,-28.31409 c 25.75219,-26.166269 27.96453,-28.23247 29.16459,-27.238134 0.71422,0.591777 3.14965,3.533666 5.41207,6.537531 16.07046,21.337123 23.59849,43.702703 23.59849,70.110483 0,11.72132 -0.69643,17.68962 -3.30574,28.3293 -8.11467,33.08825 -31.97303,61.66964 -63.51097,76.08367 -12.56077,5.74075 -23.40612,8.60494 -37.72009,9.96165 -8.87688,0.84137 -12.39052,0.83636 -21.39239,-0.0305 z m 38.09941,-27.16729 c 9.41229,-1.66778 15.77293,-3.68115 23.49365,-7.43659 7.39655,-3.59776 14.19005,-9.40595 15.06115,-12.87672 0.64795,-2.58162 -0.7755,-7.24755 -2.80866,-9.20652 -6.64977,-6.40713 -21.14589,-10.87768 -35.18689,-10.85152 -5.52946,0.0103 -7.28132,0.35627 -13.27111,2.62082 -10.99396,4.15647 -17.04837,4.55914 -33.15569,2.20513 -7.23944,-1.05802 -17.354766,-2.15755 -22.47849,-2.44341 -10.503218,-0.58599 -10.234939,-0.39893 -10.395109,-7.24789 -0.06966,-2.97715 0.07801,-3.19242 3.839877,-5.59885 5.184908,-3.31675 8.93254,-7.76453 9.31699,-11.05762 0.166605,-1.42705 -0.0029,-4.43091 -0.377201,-6.67524 -0.374063,-2.24432 -0.72207,-5.37712 -0.773353,-6.96179 -0.0912,-2.81796 -0.0015,-2.92544 4.095087,-4.89618 4.509188,-2.16934 7.328419,-5.6498 9.220639,-11.38328 0.89049,-2.69821 0.85834,-3.12966 -0.33121,-4.44409 -0.74294,-0.82094 -2.23852,-1.45577 -3.4296,-1.45577 -1.890701,0 -2.331519,0.48379 -4.204377,4.61429 -1.875704,4.13678 -2.453651,4.76977 -5.584917,6.1168 -5.122322,2.20356 -8.21238,5.99949 -8.21238,10.08833 0,1.11581 0.538554,4.53493 1.196782,7.59805 0.658235,3.06312 1.003736,6.0724 0.767775,6.6873 -0.235954,0.61489 -2.865422,2.95177 -5.843259,5.19307 -3.318443,2.49767 -5.79478,4.97673 -6.397311,6.40436 -1.101218,2.60922 -1.28246,8.96202 -0.369428,12.94898 0.561112,2.45023 0.471109,2.66228 -1.320931,3.11204 -2.805741,0.7042 -8.045477,6.24275 -8.619042,9.11058 -0.871899,4.35949 0.576006,7.4079 6.010481,12.65445 8.180545,7.89765 17.239521,11.40247 33.130027,12.81764 4.77654,0.42539 11.95338,1.06626 15.94854,1.42415 10.26295,0.91935 32.82379,0.33117 40.67796,-1.06052 z m 4.89316,-9.50341 c 0.22755,-0.22755 2.30444,-0.90746 4.61529,-1.51091 5.00013,-1.30571 11.53236,-4.49556 14.74931,-7.20244 2.61156,-2.19749 5.14647,-6.68363 5.19021,-9.18537 0.0272,-1.55363 0.1044,-1.52424 1.17118,0.4457 2.56512,4.73681 -1.43056,9.98073 -11.67278,15.31933 -4.14523,2.16065 -5.61453,2.54743 -9.67712,2.54743 -2.6344,0 -4.60364,-0.18618 -4.37609,-0.41374 z m -40.66654,-98.44887 9.44158,-6.61079 5.36197,5.32617 5.36197,5.32618 3.80121,-3.80121 3.80121,-3.80121 -15.23206,-15.24503 -15.23207,-15.24502 -3.87017,3.80543 -3.87016,3.80543 5.38854,5.18302 5.38855,5.18302 -6.43613,9.8884 c -3.53988,5.43863 -6.43614,10.15046 -6.43614,10.47074 0,0.79552 1.59006,2.32567 2.41672,2.32567 0.37037,0 4.9221,-2.97486 10.11498,-6.6108 z"
       id="path4368"
       inkscape:connector-curvature="0" />
    <path
       style="fill:#c29732"
       d="m 59.564164,315.6707 0,-11.31234 2.090102,0 c 1.968579,0 2.223431,0.36954 4.383252,6.35593 1.261233,3.49576 2.559715,6.78608 2.885517,7.31182 0.389999,0.62933 1.52933,-1.54202 3.335027,-6.35593 2.600545,-6.93296 2.850852,-7.31182 4.830678,-7.31182 l 2.088015,0 0,11.31234 c 0,10.38224 -0.104521,11.2923 -1.271187,11.06864 -1.114351,-0.21364 -1.300184,-1.36287 -1.506218,-9.31477 l -0.235024,-9.07105 -2.687215,6.90072 c -3.735865,9.59365 -4.76932,9.6424 -8.127135,0.38335 l -2.517047,-6.94066 -0.363196,8.90002 c -0.315397,7.72872 -0.530493,8.93201 -1.634383,9.14306 -1.16664,0.22304 -1.271186,-0.68733 -1.271186,-11.06931 z m 29.843687,9.93351 c -3.336225,-1.70802 -5.147019,-5.34769 -5.143634,-10.33863 0.0051,-7.00541 3.789269,-10.90722 10.579358,-10.90722 2.952175,0 3.740107,0.35201 6.097245,2.72397 3.16682,3.18672 4.14673,7.27797 2.88152,12.03071 -1.80001,6.76168 -8.230145,9.65731 -14.414489,6.49117 z m 7.823361,-1.94198 c 2.526087,-1.30629 3.737308,-3.93629 3.737308,-8.11504 0,-5.32668 -2.638923,-9.00965 -6.455599,-9.00965 -4.731363,0 -7.738648,4.37326 -7.158573,10.41018 0.283961,2.9553 0.796336,4.06479 2.636426,5.7089 2.556494,2.28423 4.299675,2.52634 7.240438,1.00561 z m 12.635618,2.46526 c -0.89891,-0.36132 -1.63439,-1.28299 -1.63439,-2.04817 0,-1.31768 0.16199,-1.33542 3.06421,-0.33552 3.9632,1.36543 7.64124,0.71348 8.66623,-1.53613 1.22084,-2.67946 -0.24049,-4.48684 -4.44293,-5.49498 -5.08439,-1.21973 -7.28751,-3.11395 -7.28751,-6.26573 0,-3.82319 2.63024,-6.09127 7.04931,-6.07869 4.73491,0.0135 6.75215,0.64928 6.75215,2.12815 0,1.10236 -0.40107,1.16006 -3.56231,0.51249 -2.97198,-0.60881 -3.87479,-0.52499 -5.44794,0.50578 -2.01408,1.31967 -2.46457,3.46576 -0.97765,4.65735 0.4994,0.4002 2.77229,1.26212 5.05088,1.91537 4.63854,1.32983 6.3898,3.16934 6.3898,6.71183 0,3.59527 -3.40371,6.09034 -8.22765,6.03123 -2.0668,-0.0254 -4.49329,-0.34166 -5.3922,-0.70298 z m 23.06295,-9.05727 0,-9.80629 -3.99516,0 c -3.51089,0 -3.99515,-0.17609 -3.99515,-1.45279 0,-1.37828 0.48426,-1.45278 9.4431,-1.45278 8.95883,0 9.44309,0.0745 9.44309,1.45278 0,1.2767 -0.48426,1.45279 -3.99515,1.45279 l -3.99516,0 0,9.80629 c 0,9.32204 -0.0718,9.8063 -1.45278,9.8063 -1.38104,0 -1.45279,-0.48426 -1.45279,-9.8063 z m 8.86717,8.96223 c 6.94499,-19.01666 8.19569,-21.73604 9.89936,-21.52392 1.4864,0.18507 2.22621,1.5742 5.63686,10.58424 2.15925,5.70416 3.92591,10.68903 3.92591,11.07748 0,0.38844 -0.51661,0.70627 -1.14803,0.70627 -0.66678,0 -1.63129,-1.23028 -2.3009,-2.93494 l -1.15287,-2.93493 -5.08225,0.21096 -5.08224,0.21097 -0.84986,2.54237 c -0.59337,1.77511 -1.35551,2.61647 -2.52539,2.78789 -1.15646,0.16946 -1.56558,-0.0556 -1.32059,-0.72639 z m 13.28867,-9.14382 c -0.28476,-0.69916 -1.01692,-2.74213 -1.62704,-4.53996 -0.61012,-1.79782 -1.31948,-3.50604 -1.57636,-3.79605 -0.25689,-0.29 -1.32137,1.75297 -2.36554,4.53995 l -1.89847,5.06724 3.99258,0 c 3.51543,0 3.93071,-0.15192 3.47483,-1.27118 z m 8.35263,8.57358 c 0,-0.80247 2.98904,-5.14364 6.6423,-9.64705 l 6.64228,-8.18804 -6.64228,-0.20886 c -6.04474,-0.19006 -6.6423,-0.33709 -6.6423,-1.63438 0,-1.33724 0.53982,-1.42552 8.71671,-1.42552 7.81898,0 8.71627,0.13092 8.71247,1.27119 -0.002,0.69915 -3.11607,5.10004 -6.91943,9.77976 l -6.91518,8.50858 7.10102,0.20813 c 5.73526,0.1681 7.10102,0.41769 7.10102,1.29772 0,0.89812 -1.56361,1.12542 -8.8983,1.29354 -8.49442,0.19469 -8.89831,0.13773 -8.89831,-1.25507 z m 19.6126,0.95698 c 0,-0.25153 1.84612,-5.31811 4.1025,-11.25908 3.63119,-9.56083 4.29279,-10.80175 5.75895,-10.80175 1.33244,0 1.93608,0.74592 3.08609,3.81356 0.78632,2.09746 2.65394,7.00877 4.15028,10.91403 1.49634,3.90525 2.49518,7.3259 2.21965,7.60142 -0.89573,0.89574 -2.94663,-0.9958 -3.61805,-3.33693 -0.65386,-2.27985 -0.66682,-2.28506 -5.69345,-2.28506 l -5.0381,0 -1.14134,2.90557 c -0.75818,1.93016 -1.59206,2.90557 -2.48394,2.90557 -0.73843,0 -1.34259,-0.2058 -1.34259,-0.45733 z m 11.97923,-13.06741 c -0.99536,-2.64442 -1.80974,-4.98703 -1.80974,-5.20582 0,-0.9764 -0.73566,0.55925 -2.44829,5.1107 l -1.84496,4.90315 3.95636,0 3.95636,0 -1.80973,-4.80803 z M 125.66586,274.80853 C 70.599201,272.2179 25.599946,231.2104 17.403856,176.15012 c -1.112411,-7.47302 -1.111772,-24.49481 0.0012,-31.96126 7.55766,-50.701086 45.499147,-89.113243 96.251894,-97.4459 12.68877,-2.083259 34.62597,-1.065121 45.22218,2.098829 l 3.06799,0.916081 -22.49899,22.998284 c -12.37444,12.649053 -22.49898,23.274654 -22.49898,23.612441 0,0.94439 41.66263,42.372325 42.61236,42.372325 0.45957,0 13.17774,-12.58474 28.2626,-27.9661 15.08487,-15.381356 27.65365,-27.966102 27.93062,-27.966102 0.7017,0 8.40373,9.721846 11.427,14.423652 12.51047,19.45638 18.50704,39.84899 18.50704,62.93712 0,22.49272 -5.1202,40.74354 -16.91431,60.29056 -21.10565,34.97954 -61.56024,56.30312 -103.1086,54.34848 z m 34.86683,-27.74845 c 9.10916,-1.84159 14.98826,-3.87509 22.69752,-7.85076 6.6041,-3.40574 12.47111,-8.81433 13.34699,-12.30414 2.40103,-9.56646 -10.81538,-17.60621 -32.66747,-19.87215 -8.22092,-0.85247 -9.24687,-0.70121 -20.13105,2.96798 -7.82487,2.63788 -8.96966,2.83176 -16.70702,2.82961 -4.56859,-0.001 -11.08498,-0.4853 -14.48086,-1.0756 -8.94852,-1.55551 -25.294447,-3.10526 -28.820297,-2.73245 -2.98686,0.31581 -3.045276,0.27787 -3.809514,-2.4744 -0.899513,-3.23947 -0.990406,-6.10121 -0.228319,-7.18849 0.29352,-0.41877 1.677741,-1.53239 3.076046,-2.47472 3.784518,-2.55042 7.964048,-6.65493 9.224716,-9.05915 1.201126,-2.29067 0.973228,-7.15838 -0.63807,-13.62872 -1.012721,-4.06669 -0.545317,-4.8659 4.184877,-7.15575 4.085745,-1.97788 6.881951,-5.37702 8.613301,-10.47056 1.33203,-3.91876 1.33242,-4.05721 0.0158,-5.5121 -0.92112,-1.01782 -2.05532,-1.42341 -3.56687,-1.27552 -1.935322,0.18935 -2.48369,0.78745 -4.325494,4.71773 -1.934318,4.12772 -2.426535,4.62969 -5.93663,6.05433 -7.065051,2.86749 -8.709443,7.28438 -6.482012,17.41089 0.571206,2.59685 1.050036,5.25273 1.06407,5.90197 0.01402,0.64923 -2.543847,3.16806 -5.684186,5.5974 -3.548738,2.74529 -6.091736,5.32264 -6.719125,6.80989 -1.103134,2.61505 -1.341683,9.82036 -0.440856,13.31588 0.525514,2.03917 0.385035,2.27262 -1.855062,3.08265 -5.430146,1.96356 -9.241614,8.2941 -8.106179,13.46369 0.654081,2.97801 8.892399,11.5303 13.720675,14.24358 4.801416,2.69819 11.49552,4.93281 17.626503,5.88406 19.346356,3.00169 54.075636,3.41352 67.028546,0.79485 z m 4.65812,-9.42718 c 0.28179,-0.45596 0.97113,-0.82902 1.53183,-0.82902 2.11683,0 9.20032,-3.10696 13.25209,-5.81263 4.35864,-2.91059 7.42533,-7.13932 7.44559,-10.2669 0.009,-1.37515 0.15134,-1.50011 0.71527,-0.62749 0.38728,0.59927 0.70916,2.21203 0.71527,3.5839 0.009,2.03964 -0.63242,3.11461 -3.51939,5.89727 -4.38312,4.22477 -11.98068,8.05059 -16.93222,8.52637 -2.67579,0.25711 -3.57691,0.12469 -3.20844,-0.4715 z m -36.29668,-102.70144 2.86506,-2.0482 5.31163,5.27618 5.31163,5.27617 3.80121,-3.80121 3.80121,-3.80121 -15.23206,-15.24503 -15.23207,-15.24502 -3.83204,3.78444 -3.83205,3.78445 5.19877,5.23369 5.19876,5.23369 -2.43776,3.8672 c -1.34076,2.12695 -4.37364,6.77643 -6.73972,10.33217 l -4.30197,6.46497 1.69225,1.27646 c 1.66984,1.25956 1.78414,1.21276 8.62716,-3.53204 3.8142,-2.64468 8.2242,-5.7302 9.79999,-6.85671 z"
       id="path4366"
       inkscape:connector-curvature="0" />
    <path
       style="fill:#be9227"
       d="m 59.564164,315.6707 0,-11.31234 2.090102,0 c 1.968579,0 2.223431,0.36954 4.383252,6.35593 1.261233,3.49576 2.559715,6.78608 2.885517,7.31182 0.389999,0.62933 1.52933,-1.54202 3.335027,-6.35593 2.600545,-6.93296 2.850852,-7.31182 4.830678,-7.31182 l 2.088015,0 0,11.31234 c 0,10.38224 -0.104521,11.2923 -1.271187,11.06864 -1.114351,-0.21364 -1.300184,-1.36287 -1.506218,-9.31477 l -0.235024,-9.07105 -2.687215,6.90072 c -3.735865,9.59365 -4.76932,9.6424 -8.127135,0.38335 l -2.517047,-6.94066 -0.363196,8.90002 c -0.315397,7.72872 -0.530493,8.93201 -1.634383,9.14306 -1.16664,0.22304 -1.271186,-0.68733 -1.271186,-11.06931 z m 29.843687,9.93351 c -3.336225,-1.70802 -5.147019,-5.34769 -5.143634,-10.33863 0.0051,-7.00541 3.789269,-10.90722 10.579358,-10.90722 2.952175,0 3.740107,0.35201 6.097245,2.72397 3.16682,3.18672 4.14673,7.27797 2.88152,12.03071 -1.80001,6.76168 -8.230145,9.65731 -14.414489,6.49117 z m 7.823361,-1.94198 c 2.526087,-1.30629 3.737308,-3.93629 3.737308,-8.11504 0,-5.32668 -2.638923,-9.00965 -6.455599,-9.00965 -4.731363,0 -7.738648,4.37326 -7.158573,10.41018 0.283961,2.9553 0.796336,4.06479 2.636426,5.7089 2.556494,2.28423 4.299675,2.52634 7.240438,1.00561 z m 12.635618,2.46526 c -0.89891,-0.36132 -1.63439,-1.28299 -1.63439,-2.04817 0,-1.31768 0.16199,-1.33542 3.06421,-0.33552 3.9632,1.36543 7.64124,0.71348 8.66623,-1.53613 1.22084,-2.67946 -0.24049,-4.48684 -4.44293,-5.49498 -5.08439,-1.21973 -7.28751,-3.11395 -7.28751,-6.26573 0,-3.82319 2.63024,-6.09127 7.04931,-6.07869 4.73491,0.0135 6.75215,0.64928 6.75215,2.12815 0,1.10236 -0.40107,1.16006 -3.56231,0.51249 -2.97198,-0.60881 -3.87479,-0.52499 -5.44794,0.50578 -2.01408,1.31967 -2.46457,3.46576 -0.97765,4.65735 0.4994,0.4002 2.77229,1.26212 5.05088,1.91537 4.63854,1.32983 6.3898,3.16934 6.3898,6.71183 0,3.59527 -3.40371,6.09034 -8.22765,6.03123 -2.0668,-0.0254 -4.49329,-0.34166 -5.3922,-0.70298 z m 23.06295,-9.05727 0,-9.80629 -3.99516,0 c -3.51089,0 -3.99515,-0.17609 -3.99515,-1.45279 0,-1.37828 0.48426,-1.45278 9.4431,-1.45278 8.95883,0 9.44309,0.0745 9.44309,1.45278 0,1.2767 -0.48426,1.45279 -3.99515,1.45279 l -3.99516,0 0,9.80629 c 0,9.32204 -0.0718,9.8063 -1.45278,9.8063 -1.38104,0 -1.45279,-0.48426 -1.45279,-9.8063 z m 8.86717,8.96223 c 6.94499,-19.01666 8.19569,-21.73604 9.89936,-21.52392 1.4864,0.18507 2.22621,1.5742 5.63686,10.58424 2.15925,5.70416 3.92591,10.68903 3.92591,11.07748 0,0.38844 -0.51661,0.70627 -1.14803,0.70627 -0.66678,0 -1.63129,-1.23028 -2.3009,-2.93494 l -1.15287,-2.93493 -5.08225,0.21096 -5.08224,0.21097 -0.84986,2.54237 c -0.59337,1.77511 -1.35551,2.61647 -2.52539,2.78789 -1.15646,0.16946 -1.56558,-0.0556 -1.32059,-0.72639 z m 13.28867,-9.14382 c -0.28476,-0.69916 -1.01692,-2.74213 -1.62704,-4.53996 -0.61012,-1.79782 -1.31948,-3.50604 -1.57636,-3.79605 -0.25689,-0.29 -1.32137,1.75297 -2.36554,4.53995 l -1.89847,5.06724 3.99258,0 c 3.51543,0 3.93071,-0.15192 3.47483,-1.27118 z m 8.35263,8.57358 c 0,-0.80247 2.98904,-5.14364 6.6423,-9.64705 l 6.64228,-8.18804 -6.64228,-0.20886 c -6.04474,-0.19006 -6.6423,-0.33709 -6.6423,-1.63438 0,-1.33724 0.53982,-1.42552 8.71671,-1.42552 7.81898,0 8.71627,0.13092 8.71247,1.27119 -0.002,0.69915 -3.11607,5.10004 -6.91943,9.77976 l -6.91518,8.50858 7.10102,0.20813 c 5.73526,0.1681 7.10102,0.41769 7.10102,1.29772 0,0.89812 -1.56361,1.12542 -8.8983,1.29354 -8.49442,0.19469 -8.89831,0.13773 -8.89831,-1.25507 z m 19.6126,0.95698 c 0,-0.25153 1.84612,-5.31811 4.1025,-11.25908 3.63119,-9.56083 4.29279,-10.80175 5.75895,-10.80175 1.33244,0 1.93608,0.74592 3.08609,3.81356 0.78632,2.09746 2.65394,7.00877 4.15028,10.91403 1.49634,3.90525 2.49518,7.3259 2.21965,7.60142 -0.89573,0.89574 -2.94663,-0.9958 -3.61805,-3.33693 -0.65386,-2.27985 -0.66682,-2.28506 -5.69345,-2.28506 l -5.0381,0 -1.14134,2.90557 c -0.75818,1.93016 -1.59206,2.90557 -2.48394,2.90557 -0.73843,0 -1.34259,-0.2058 -1.34259,-0.45733 z m 11.97923,-13.06741 c -0.99536,-2.64442 -1.80974,-4.98703 -1.80974,-5.20582 0,-0.9764 -0.73566,0.55925 -2.44829,5.1107 l -1.84496,4.90315 3.95636,0 3.95636,0 -1.80973,-4.80803 z M 113.31719,273.46939 C 86.094275,268.82332 62.811921,255.95501 44.860017,235.63263 14.756152,201.55368 7.9999728,151.84078 27.841989,110.41162 38.617651,87.912576 57.792892,68.527434 80.099825,57.581746 97.059319,49.259973 112.03416,45.797561 131.16199,45.775395 c 10.93293,-0.01267 14.64298,0.376073 25.1468,2.634901 l 5.58239,1.200486 -22.28941,22.788669 c -12.25919,12.533769 -22.37727,23.19035 -22.48464,23.681297 -0.10738,0.490939 9.39592,10.475582 21.11843,22.188092 l 21.31365,21.29546 28.03166,-28.37297 28.03166,-28.372972 3.24716,3.611615 c 1.78593,1.986392 5.26625,6.64221 7.73403,10.346273 22.30409,33.477734 25.27695,76.657414 7.7903,113.151114 -10.79067,22.51955 -29.94171,41.91259 -52.10412,52.76255 -11.59308,5.67556 -21.18666,8.72766 -34.09588,10.84723 -7.62417,1.25182 -27.3597,1.21347 -34.86683,-0.0678 z m 30.55078,-24.63281 c 21.66123,-0.84909 40.32495,-7.15859 49.049,-16.58159 3.49226,-3.77206 3.93533,-4.6019 3.93533,-7.37057 0,-6.17649 -5.49233,-11.1237 -16.07466,-14.47923 -8.32583,-2.64003 -13.58898,-3.524 -21.69774,-3.64426 -6.40481,-0.095 -7.42274,0.1 -14.16465,2.71295 -6.54826,2.5379 -8.09599,2.85057 -15.70944,3.1735 -5.82187,0.24694 -10.5607,0.004 -15.25424,-0.78069 -10.88914,-1.82145 -28.066358,-3.49001 -30.748525,-2.98683 -2.370123,0.44464 -2.496349,0.35384 -3.242165,-2.33209 -0.426813,-1.53711 -0.777849,-3.56786 -0.780072,-4.51278 -0.0044,-1.71104 0.492334,-2.24365 7.623065,-8.17967 1.997579,-1.6629 4.201838,-3.87527 4.898361,-4.91638 1.59823,-2.38893 1.622942,-6.78506 0.07421,-13.20168 -1.394346,-5.77696 -1.108336,-6.44571 3.658504,-8.55434 3.587404,-1.5869 7.610022,-5.95498 8.199832,-8.90404 0.23482,-1.17412 0.71161,-2.3107 1.05952,-2.52573 1.2281,-0.759 0.61511,-4.08206 -1.00181,-5.43095 -3.16191,-2.63777 -5.139053,-1.46619 -7.731053,4.58112 -1.27715,2.9797 -2.048942,3.7238 -5.655974,5.45307 -7.304542,3.50191 -8.830031,7.86728 -6.380542,18.25871 0.602099,2.55429 0.915233,5.1693 0.69584,5.81114 -0.219385,0.64184 -2.689372,2.91179 -5.488859,5.04432 -2.799487,2.13254 -5.606673,4.66591 -6.238184,5.62972 -1.463013,2.23284 -2.104778,10.00534 -1.120382,13.56909 0.738333,2.67295 0.700181,2.76052 -1.626134,3.73252 -5.751336,2.40306 -9.181958,8.30792 -7.987708,13.7486 1.093909,4.98356 10.083262,13.07753 18.343234,16.51617 7.311966,3.04398 13.272624,4.05366 31.803422,5.38719 8.74614,0.6294 16.3924,1.24661 16.99167,1.37158 0.59927,0.12497 1.90678,0.13046 2.90557,0.0122 0.99879,-0.11825 6.24785,-0.38872 11.66458,-0.60106 z m 22.47585,-11.15779 c 0,-0.38133 1.01138,-0.89559 2.24751,-1.14281 7.32811,-1.46563 17.64117,-8.92125 18.53713,-13.40105 0.25428,-1.27142 0.74835,-2.31168 1.09793,-2.31168 1.0163,0 0.73479,3.51228 -0.46793,5.83807 -1.3513,2.61314 -10.5239,9.18028 -14.08922,10.08721 -5.34682,1.3601 -7.32542,1.61136 -7.32542,0.93026 z m -44.35676,-97.75717 c 4.96426,-3.446 9.25397,-6.26544 9.5327,-6.26544 0.27873,0 2.80164,2.12469 5.60648,4.72155 2.80484,2.59685 5.39022,4.72155 5.74528,4.72155 0.35506,0 2.26099,-1.6401 4.2354,-3.64465 l 3.58983,-3.64463 -15.41813,-15.41815 -15.41814,-15.41814 -4.04356,4.04357 -4.04357,4.04356 5.27907,5.14499 5.27908,5.14499 -6.79382,10.24306 c -6.66973,10.05599 -6.76946,10.26996 -5.46097,11.71583 0.73306,0.81002 1.68194,1.3388 2.10863,1.17506 0.42669,-0.16373 4.83746,-3.11715 9.80172,-6.56315 z"
       id="path4364"
       inkscape:connector-curvature="0" />
    <path
       style="fill:#606060"
       d="m 59.564164,315.6707 0,-11.31234 2.090102,0 c 1.968579,0 2.223431,0.36954 4.383252,6.35593 1.261233,3.49576 2.559715,6.78608 2.885517,7.31182 0.389999,0.62933 1.52933,-1.54202 3.335027,-6.35593 2.600545,-6.93296 2.850852,-7.31182 4.830678,-7.31182 l 2.088015,0 0,11.31234 c 0,10.38224 -0.104521,11.2923 -1.271187,11.06864 -1.114351,-0.21364 -1.300184,-1.36287 -1.506218,-9.31477 l -0.235024,-9.07105 -2.687215,6.90072 c -3.735865,9.59365 -4.76932,9.6424 -8.127135,0.38335 l -2.517047,-6.94066 -0.363196,8.90002 c -0.315397,7.72872 -0.530493,8.93201 -1.634383,9.14306 -1.16664,0.22304 -1.271186,-0.68733 -1.271186,-11.06931 z m 29.843687,9.93351 c -3.336225,-1.70802 -5.147019,-5.34769 -5.143634,-10.33863 0.0051,-7.00541 3.789269,-10.90722 10.579358,-10.90722 2.952175,0 3.740107,0.35201 6.097245,2.72397 3.16682,3.18672 4.14673,7.27797 2.88152,12.03071 -1.80001,6.76168 -8.230145,9.65731 -14.414489,6.49117 z m 7.823361,-1.94198 c 2.526087,-1.30629 3.737308,-3.93629 3.737308,-8.11504 0,-5.32668 -2.638923,-9.00965 -6.455599,-9.00965 -4.731363,0 -7.738648,4.37326 -7.158573,10.41018 0.283961,2.9553 0.796336,4.06479 2.636426,5.7089 2.556494,2.28423 4.299675,2.52634 7.240438,1.00561 z m 12.635618,2.46526 c -0.89891,-0.36132 -1.63439,-1.28299 -1.63439,-2.04817 0,-1.31768 0.16199,-1.33542 3.06421,-0.33552 3.9632,1.36543 7.64124,0.71348 8.66623,-1.53613 1.22084,-2.67946 -0.24049,-4.48684 -4.44293,-5.49498 -5.08439,-1.21973 -7.28751,-3.11395 -7.28751,-6.26573 0,-3.82319 2.63024,-6.09127 7.04931,-6.07869 4.73491,0.0135 6.75215,0.64928 6.75215,2.12815 0,1.10236 -0.40107,1.16006 -3.56231,0.51249 -2.97198,-0.60881 -3.87479,-0.52499 -5.44794,0.50578 -2.01408,1.31967 -2.46457,3.46576 -0.97765,4.65735 0.4994,0.4002 2.77229,1.26212 5.05088,1.91537 4.63854,1.32983 6.3898,3.16934 6.3898,6.71183 0,3.59527 -3.40371,6.09034 -8.22765,6.03123 -2.0668,-0.0254 -4.49329,-0.34166 -5.3922,-0.70298 z m 23.06295,-9.05727 0,-9.80629 -3.99516,0 c -3.51089,0 -3.99515,-0.17609 -3.99515,-1.45279 0,-1.37828 0.48426,-1.45278 9.4431,-1.45278 8.95883,0 9.44309,0.0745 9.44309,1.45278 0,1.2767 -0.48426,1.45279 -3.99515,1.45279 l -3.99516,0 0,9.80629 c 0,9.32204 -0.0718,9.8063 -1.45278,9.8063 -1.38104,0 -1.45279,-0.48426 -1.45279,-9.8063 z m 8.86717,8.96223 c 6.94499,-19.01666 8.19569,-21.73604 9.89936,-21.52392 1.4864,0.18507 2.22621,1.5742 5.63686,10.58424 2.15925,5.70416 3.92591,10.68903 3.92591,11.07748 0,0.38844 -0.51661,0.70627 -1.14803,0.70627 -0.66678,0 -1.63129,-1.23028 -2.3009,-2.93494 l -1.15287,-2.93493 -5.08225,0.21096 -5.08224,0.21097 -0.84986,2.54237 c -0.59337,1.77511 -1.35551,2.61647 -2.52539,2.78789 -1.15646,0.16946 -1.56558,-0.0556 -1.32059,-0.72639 z m 13.28867,-9.14382 c -0.28476,-0.69916 -1.01692,-2.74213 -1.62704,-4.53996 -0.61012,-1.79782 -1.31948,-3.50604 -1.57636,-3.79605 -0.25689,-0.29 -1.32137,1.75297 -2.36554,4.53995 l -1.89847,5.06724 3.99258,0 c 3.51543,0 3.93071,-0.15192 3.47483,-1.27118 z m 8.35263,8.57358 c 0,-0.80247 2.98904,-5.14364 6.6423,-9.64705 l 6.64228,-8.18804 -6.64228,-0.20886 c -6.04474,-0.19006 -6.6423,-0.33709 -6.6423,-1.63438 0,-1.33724 0.53982,-1.42552 8.71671,-1.42552 7.81898,0 8.71627,0.13092 8.71247,1.27119 -0.002,0.69915 -3.11607,5.10004 -6.91943,9.77976 l -6.91518,8.50858 7.10102,0.20813 c 5.73526,0.1681 7.10102,0.41769 7.10102,1.29772 0,0.89812 -1.56361,1.12542 -8.8983,1.29354 -8.49442,0.19469 -8.89831,0.13773 -8.89831,-1.25507 z m 19.6126,0.95698 c 0,-0.25153 1.84612,-5.31811 4.1025,-11.25908 3.63119,-9.56083 4.29279,-10.80175 5.75895,-10.80175 1.33244,0 1.93608,0.74592 3.08609,3.81356 0.78632,2.09746 2.65394,7.00877 4.15028,10.91403 1.49634,3.90525 2.49518,7.3259 2.21965,7.60142 -0.89573,0.89574 -2.94663,-0.9958 -3.61805,-3.33693 -0.65386,-2.27985 -0.66682,-2.28506 -5.69345,-2.28506 l -5.0381,0 -1.14134,2.90557 c -0.75818,1.93016 -1.59206,2.90557 -2.48394,2.90557 -0.73843,0 -1.34259,-0.2058 -1.34259,-0.45733 z m 11.97923,-13.06741 c -0.99536,-2.64442 -1.80974,-4.98703 -1.80974,-5.20582 0,-0.9764 -0.73566,0.55925 -2.44829,5.1107 l -1.84496,4.90315 3.95636,0 3.95636,0 -1.80973,-4.80803 z"
       id="path4362"
       inkscape:connector-curvature="0" />
    <path
       style="fill:#060606"
       d="m 90.12427,325.60421 c -3.473179,-1.77103 -5.28085,-4.54934 -5.682995,-8.73456 -0.487554,-5.07409 1.757404,-10.00163 5.214843,-11.44623 7.86528,-3.28633 14.212542,1.26627 14.212542,10.19402 0,5.30298 -1.80613,8.69693 -5.435087,10.21321 -3.284877,1.37251 -5.280204,1.31813 -8.309303,-0.22644 z m 8.186412,-2.3986 c 5.682948,-4.47021 3.027348,-16.66807 -3.628823,-16.66807 -1.389051,0 -3.154431,0.33656 -3.923063,0.74792 -4.65287,2.49014 -4.75025,13.94288 -0.141378,16.6273 2.085211,1.21452 5.669034,0.88511 7.693264,-0.70715 z m 12.282538,2.85824 c -1.37841,-0.39801 -2.36078,-1.15875 -2.36078,-1.82819 0,-0.80621 0.37732,-0.99184 1.27119,-0.62537 5.25377,2.15393 11.07748,0.62507 11.07748,-2.9081 0,-2.11259 -1.88021,-3.42916 -6.75014,-4.72661 -5.00133,-1.33246 -6.6477,-4.16142 -4.79203,-8.23418 1.3576,-2.97961 5.21068,-4.03191 10.72498,-2.92905 1.59169,0.31835 2.26998,0.86861 2.26998,1.84154 0,1.14673 -0.24385,1.25704 -1.40503,0.63559 -1.96151,-1.04976 -6.77854,-0.93874 -8.32475,0.19186 -0.85756,0.62708 -1.20888,1.66076 -1.04683,3.08012 0.2233,1.95571 0.63255,2.24085 4.8411,3.37309 5.54041,1.49056 6.48926,2.20314 7.07236,5.31136 1.07183,5.71332 -5.00141,9.00546 -12.57753,6.81794 z m -51.029056,-10.44641 0,-10.53269 2.090102,0 c 1.968579,0 2.223431,0.36955 4.383252,6.35593 2.947406,8.16934 3.378522,8.8703 4.079874,6.63351 0.298407,-0.95169 1.506824,-4.26365 2.685372,-7.3599 1.99556,-5.24269 2.288187,-5.62954 4.258402,-5.62954 l 2.115589,0 0,10.53269 c 0,8.87813 -0.17116,10.53269 -1.089589,10.53269 -0.910409,0 -1.089588,-1.49315 -1.089588,-9.07991 0,-4.99394 -0.245158,-9.079 -0.544794,-9.0779 -0.299637,10e-4 -1.688862,3.10553 -3.087167,6.89873 -2.120064,5.75112 -2.799061,6.89706 -4.087681,6.89873 -1.284209,10e-4 -1.932763,-1.07192 -3.838458,-6.35394 -3.501601,-9.7054 -3.672597,-9.65484 -3.685014,1.08959 -0.0093,8.06608 -0.18757,9.6247 -1.100712,9.6247 -0.918427,0 -1.089588,-1.65456 -1.089588,-10.53269 z m 73.365616,0.72639 0,-9.80629 -3.63196,0 c -1.99758,0 -3.63196,-0.32688 -3.63196,-0.7264 0,-0.44551 3.51089,-0.72639 9.0799,-0.72639 5.56901,0 9.0799,0.28088 9.0799,0.72639 0,0.39952 -1.79782,0.7264 -3.99515,0.7264 l -3.99516,0 0,9.80629 c 0,9.32203 -0.0718,9.8063 -1.45278,9.8063 -1.38104,0 -1.45279,-0.48427 -1.45279,-9.8063 z m 9.43025,9.31476 c -0.007,-0.32892 1.6882,-5.10844 3.76726,-10.62114 3.52909,-9.35751 3.89796,-10.00869 5.555,-9.80629 1.56476,0.19112 2.23536,1.42077 5.66424,10.38628 2.13914,5.59322 3.89457,10.25121 3.90095,10.35109 0.007,0.0999 -0.56044,0.17827 -1.25959,0.17421 -0.79387,-0.004 -1.73371,-1.10843 -2.50299,-2.93966 l -1.2318,-2.93226 -4.88037,0.21568 c -4.86544,0.21502 -4.88299,0.22346 -5.73323,2.75806 -0.74379,2.21726 -3.24415,4.05779 -3.27947,2.41403 z m 13.08755,-7.68038 c -5e-4,-1.20887 -2.85608,-8.73364 -3.60929,-9.51084 -0.51495,-0.53135 -2.34857,3.52204 -3.9738,8.78445 -0.48168,1.55965 -0.31984,1.63438 3.53934,1.63438 2.75122,0 4.04399,-0.29028 4.04375,-0.90799 z m 7.99067,7.24056 c 0,-0.51225 3.10533,-4.73976 6.90073,-9.39448 3.7954,-4.65471 6.90073,-8.64843 6.90073,-8.87493 0,-0.22651 -2.94189,-0.41182 -6.53753,-0.41182 -3.87409,0 -6.53753,-0.29594 -6.53753,-0.7264 0,-0.44215 3.26876,-0.72639 8.35351,-0.72639 5.43415,0 8.35351,0.27085 8.35351,0.77502 0,0.42626 -3.11503,4.59394 -6.92228,9.2615 l -6.92228,8.48648 6.92228,0.20791 c 5.49808,0.16513 6.92228,0.42666 6.92228,1.27118 0,0.87438 -1.54863,1.06329 -8.71671,1.06329 -6.60574,0 -8.71671,-0.22555 -8.71671,-0.93136 z m 23.66863,-9.3314 c 2.16385,-5.64452 3.93428,-10.38423 3.93428,-10.53269 0,-0.14846 0.79343,-0.26993 1.76318,-0.26993 1.85669,0 1.90228,0.0927 7.94901,16.16223 1.70357,4.52733 1.74457,4.90315 0.53494,4.90315 -0.8539,0 -1.70745,-1.01169 -2.45139,-2.90557 l -1.14134,-2.90557 -4.78586,0 -4.78587,0 -1.16258,2.90557 c -0.75601,1.88945 -1.62176,2.90557 -2.47561,2.90557 -1.14277,0 -0.80286,-1.33084 2.62124,-10.26276 z m 9.70794,2.09084 c -0.0783,-1.89777 -3.40524,-9.61191 -4.02977,-9.34387 -0.63489,0.27249 -3.92307,8.33052 -3.92307,9.6139 0,0.35088 1.79782,0.63796 3.99516,0.63796 2.73185,0 3.98331,-0.28711 3.95768,-0.90799 z"
       id="path4360"
       inkscape:connector-curvature="0" />
  </g>
</svg>
