<?xml version="1.0" encoding="UTF-8" standalone="no"?>
<!-- Created with Inkscape (http://www.inkscape.org/) -->

<svg
   xmlns:dc="http://purl.org/dc/elements/1.1/"
   xmlns:cc="http://creativecommons.org/ns#"
   xmlns:rdf="http://www.w3.org/1999/02/22-rdf-syntax-ns#"
   xmlns:svg="http://www.w3.org/2000/svg"
   xmlns="http://www.w3.org/2000/svg"
   xmlns:sodipodi="http://sodipodi.sourceforge.net/DTD/sodipodi-0.dtd"
   xmlns:inkscape="http://www.inkscape.org/namespaces/inkscape"
   id="svg4178"
   version="1.1"
   inkscape:version="0.91 r13725"
   width="100"
   height="100"
   viewBox="0 0 100 100"
   sodipodi:docname="soja50.svg">
  <metadata
     id="metadata4184">
    <rdf:RDF>
      <cc:Work
         rdf:about="">
        <dc:format>image/svg+xml</dc:format>
        <dc:type
           rdf:resource="http://purl.org/dc/dcmitype/StillImage" />
        <dc:title />
      </cc:Work>
    </rdf:RDF>
  </metadata>
  <defs
     id="defs4182">
    <clipPath
       clipPathUnits="userSpaceOnUse"
       id="clipPath4208">
      <rect
         style="opacity:0.18800001;fill:#ff0000;fill-opacity:1;fill-rule:nonzero;stroke:none;stroke-width:3.5999999;stroke-linecap:round;stroke-linejoin:round;stroke-miterlimit:4;stroke-dasharray:none;stroke-opacity:1"
         id="rect4210"
         width="240"
         height="240"
         x="10.938619"
         y="35.215508" />
    </clipPath>
    <clipPath
       clipPathUnits="userSpaceOnUse"
       id="clipPath4182">
      <circle
         style="opacity:0.206;fill:#ff0000;fill-rule:evenodd;stroke:none;stroke-width:1px;stroke-linecap:butt;stroke-linejoin:miter;stroke-opacity:1"
         id="circle4184"
         cx="130.93861"
         cy="155.21552"
         r="117.6" />
    </clipPath>
  </defs>
  <sodipodi:namedview
     pagecolor="#ffffff"
     bordercolor="#666666"
     borderopacity="1"
     objecttolerance="10"
     gridtolerance="10"
     guidetolerance="10"
     inkscape:pageopacity="0"
     inkscape:pageshadow="2"
     inkscape:window-width="1920"
     inkscape:window-height="1017"
     id="namedview4180"
     showgrid="false"
     fit-margin-top="0"
     fit-margin-left="0"
     fit-margin-right="0"
     fit-margin-bottom="0"
     inkscape:zoom="1.4182101"
     inkscape:cx="113.61202"
     inkscape:cy="91.884358"
     inkscape:window-x="-8"
     inkscape:window-y="-8"
     inkscape:window-maximized="1"
     inkscape:current-layer="svg4178" />
  <g
     id="g4188"
     transform="matrix(0.41666667,0,0,0.41666667,-4.5577582,-14.673129)"
     clip-path="url(#clipPath4182)">
    <path
       style="fill:#fefefe"
       d="M 0,185.95642 0,0 l 131.1138,0 131.1138,0 0,185.95642 0,185.95642 -131.1138,0 -131.1138,0 0,-185.95642 z"
       id="path4204"
       inkscape:connector-curvature="0" />
    <path
       style="fill:#aee2ca"
       d="m 135.59322,331.477 c -0.88469,-0.88469 -0.50054,-2.4213 0.60533,-2.4213 0.59927,0 1.74334,-0.65376 2.54237,-1.45279 1.33172,-1.33171 1.45278,-2.4213 1.45278,-13.07506 l 0,-11.62228 1.81598,0 1.81598,0 0,11.28242 c 0,12.59253 -0.75754,15.81595 -4.00731,17.0515 -2.21222,0.84109 -3.54655,0.91609 -4.22513,0.23751 z m -37.295918,-5.8326 c -1.993504,-0.38805 -3.423436,-2.06606 -2.907146,-3.41148 0.337889,-0.88052 0.798087,-0.8865 3.168429,-0.0411 3.936915,1.40405 6.543845,1.27721 8.221075,-0.40001 1.73999,-1.74 1.77408,-2.12361 0.3672,-4.1322 -0.63417,-0.90541 -2.24524,-1.74581 -3.87443,-2.02107 -7.599743,-1.28397 -10.250378,-7.10839 -5.27478,-11.59067 2.84098,-2.5593 12.41397,-1.72364 12.41397,1.08367 0,1.28802 -0.31676,1.41243 -2.53613,0.99607 -5.08314,-0.95362 -7.41056,-0.63725 -8.359753,1.13633 -1.280339,2.39233 0.202918,4.01002 4.573623,4.98814 6.30035,1.40996 8.9216,5.018 7.0058,9.64316 -1.44935,3.49904 -6.49277,4.97653 -12.797858,3.74917 z m 22.335438,-0.72583 c -3.39822,-1.7884 -5.22517,-4.51052 -5.6688,-8.44638 -0.83452,-7.40388 2.45055,-12.90734 8.2923,-13.89205 4.6752,-0.78807 9.29873,1.52141 11.13185,5.56043 0.77845,1.71518 1.41536,4.42602 1.41536,6.02408 0,3.73017 -2.22352,8.62042 -4.63926,10.20328 -2.83623,1.85836 -7.5757,2.10617 -10.53145,0.55064 z m 8.56949,-3.52103 c 3.74176,-3.14848 3.80378,-11.14094 0.11238,-14.48161 -2.09636,-1.89719 -6.36871,-1.62058 -8.54234,0.55306 -3.53306,3.53305 -2.83621,12.50577 1.13888,14.66454 2.83961,1.54211 4.82147,1.34206 7.29108,-0.73599 z m 16.979,3.1182 c 0.18251,-0.49939 2.09702,-5.56551 4.25447,-11.25804 3.69185,-9.74108 4.03645,-10.35012 5.85673,-10.35109 1.7343,-7.3e-4 2.13919,0.5429 3.91997,5.26531 1.09224,2.89649 2.91863,7.6447 4.05866,10.55159 2.50765,6.39417 2.52464,6.70022 0.37176,6.70022 -1.35515,0 -1.878,-0.59076 -2.57153,-2.90556 l -0.87053,-2.90557 -4.75083,0 -4.75082,0 -1.14134,2.90557 c -0.89993,2.291 -1.51857,2.90556 -2.92485,2.90556 -1.11952,0 -1.65997,-0.33804 -1.45169,-0.90799 z m 13.31463,-9.0799 c -0.2246,-0.69915 -1.03686,-2.90557 -1.80505,-4.90315 -1.16369,-3.02603 -1.48646,-3.38959 -1.93469,-2.17917 -0.2959,0.79903 -1.13526,3.00544 -1.86527,4.90314 l -1.32728,3.45037 3.67031,0 c 3.16683,0 3.6143,-0.17438 3.26198,-1.27119 z M 122.39709,270.51673 C 92.863967,267.62496 68.544759,256.1937 48.598454,235.82763 20.540552,207.17925 9.5402142,165.80314 19.558601,126.59859 24.897874,105.70464 35.316204,88.000396 51.311818,72.639227 66.292099,58.253115 82.953965,48.912698 102.42131,43.98794 c 10.4327,-2.639215 17.49622,-3.501123 28.69249,-3.501123 30.64047,0 57.65566,10.884479 79.80198,32.15241 23.17977,22.260378 35.28773,50.652143 35.31464,82.808713 0.0254,30.37142 -11.53224,58.86726 -32.60127,80.37969 -17.57235,17.94215 -38.56449,28.95776 -63.55814,33.35207 -5.92624,1.04194 -22.50657,1.84299 -27.67392,1.33703 z m -1.08959,-24.67117 c 6.97822,-1.29355 14.3323,-3.29821 21.79177,-5.94028 19.1378,-6.77839 32.07023,-10.88135 38.25724,-12.13753 6.68019,-1.35631 16.74303,-1.75243 22.83663,-0.89894 l 4.07207,0.57035 -2.98248,-3.41517 c -15.85518,-18.1554 -21.96847,-22.08825 -34.46217,-22.17048 -7.45733,-0.0491 -10.38945,0.55015 -23.36293,4.77461 -18.92349,6.16192 -42.63562,11.28956 -52.207166,11.28956 -11.039186,0 -30.247162,-4.74591 -34.392982,-8.49782 -0.716223,-0.64818 -1.514887,-0.96584 -1.774806,-0.70592 -0.25992,0.25992 -0.135288,3.25416 0.27696,6.65387 0.574018,4.73378 1.446358,7.63349 3.725149,12.38261 8.938407,18.62814 26.277093,24.01686 58.222715,18.09514 z m -18.74427,-3.28526 c -3.481694,-1.76949 -7.608408,-6.68976 -8.904415,-10.6167 -1.057547,-3.2044 -0.485099,-7.87696 1.192075,-9.73022 2.142632,-2.36759 6.2397,-3.20092 10.23609,-2.08201 4.6815,1.31075 10.68287,7.10357 11.82794,11.41693 1.01824,3.83555 0.3491,7.71408 -1.75235,10.15715 -2.29199,2.6646 -8.24386,3.06843 -12.59934,0.85485 z m -21.570495,-0.44753 c -2.892203,-0.60602 -7.307193,-4.35181 -9.286552,-7.87896 -1.681549,-2.99647 -1.975983,-4.26811 -1.746012,-7.5409 0.227331,-3.23523 0.643414,-4.25215 2.335218,-5.70737 1.774349,-1.52624 2.617232,-1.72932 6.104366,-1.47073 6.718372,0.4982 11.788075,5.00761 13.89706,12.36122 1.958862,6.83016 -3.588203,11.85347 -11.30408,10.23674 z m 46.404095,-1.96906 c -5.64387,-2.62793 -9.72129,-8.7665 -9.72129,-14.63548 0,-2.87253 0.36924,-3.74671 2.46974,-5.84721 2.12042,-2.12043 2.96126,-2.46973 5.94499,-2.46973 7.01431,0 14.23622,5.60786 16.00543,12.42833 0.88966,3.42975 0.86137,4.09298 -0.27318,6.40355 -1.5582,3.17338 -5.44711,5.86783 -8.45536,5.85836 -1.23935,-0.004 -3.92599,-0.78592 -5.97033,-1.73782 z m 25.69562,-7.75157 c -9.03931,-2.1549 -15.3035,-12.07551 -11.84628,-18.76102 2.85785,-5.52648 10.99411,-5.96973 17.72853,-0.96583 3.36826,2.50274 6.64273,7.88286 6.64273,10.91436 0,6.82693 -5.2776,10.54022 -12.52498,8.81249 z m 21.6975,-6.82422 c -6.43816,-2.29493 -10.6253,-7.6798 -10.6253,-13.66466 0,-12.58477 20.34542,-8.70136 23.29973,4.44731 0.95247,4.23911 -0.59071,7.79552 -4.00086,9.22037 -3.11262,1.30053 -5.01847,1.29987 -8.67357,-0.003 z M 123.2561,197.17713 c 4.19135,-7.96389 5.41282,-13.30778 5.86562,-25.662 0.34621,-9.44589 0.51402,-10.48042 1.75264,-10.80433 0.91293,-0.23873 1.23529,-0.7819 0.96656,-1.62861 -0.31606,-0.99582 0.42526,-1.59905 3.42999,-2.79105 6.47541,-2.56883 15.66715,-5.89401 27.44095,-9.92696 6.1925,-2.12115 14.44613,-5.01689 18.34141,-6.43497 3.89528,-1.41809 7.07376,-2.3473 7.06329,-2.06491 -0.0213,0.57409 -6.56373,3.26568 -35.37957,14.55526 -10.87965,4.26246 -19.68096,8.07681 -19.55848,8.47633 0.45914,1.49763 9.00429,7.77297 13.55272,9.95277 6.07723,2.91246 14.49873,3.60933 20.30644,1.68031 6.86309,-2.27955 13.68316,-7.54284 18.98839,-14.65403 6.64408,-8.90578 7.34443,-10.04884 9.9431,-16.22845 3.87886,-9.22386 3.91043,-8.96779 -1.41563,-11.48267 -2.53108,-1.19513 -7.38041,-3.10469 -10.77629,-4.24345 -5.80984,-1.94826 -6.88189,-2.06928 -18.15981,-2.0499 -11.3711,0.0195 -12.19492,0.11782 -16.07146,1.91746 -7.53985,3.5003 -12.90141,9.78507 -15.83328,18.55962 -0.83012,2.48437 -1.5093,5.81357 -1.5093,7.39823 0,3.53291 -0.97748,6.26991 -2.43957,6.83097 -1.14984,0.44123 -1.22975,0.0267 -2.3181,-12.02711 -0.38286,-4.24024 -0.63576,-4.90315 -1.8706,-4.90315 -1.20167,0 -1.36996,0.37401 -1.0623,2.36078 0.20106,1.29842 0.56003,4.32203 0.79771,6.71913 0.23768,2.39709 0.61468,5.4207 0.83778,6.71912 0.37186,2.16429 0.24775,2.36078 -1.4912,2.36078 -2.63162,0 -2.42686,1.89157 0.26298,2.42954 2.97173,0.59434 3.34354,2.64645 2.38939,13.18789 -0.8328,9.20087 -3.29483,17.55785 -7.071,24.00139 -2.0685,3.52963 -2.23419,4.20862 -0.92855,3.80529 0.49939,-0.15428 2.27517,-2.87825 3.94617,-6.05328 z m -20.78504,-17.47271 c 4.62494,-1.3683 9.60736,-4.83105 13.80413,-9.5938 2.78202,-3.1572 5.45044,-7.3372 4.90428,-7.68239 -0.12934,-0.0817 -5.62862,-0.88643 -12.22063,-1.78819 -15.754514,-2.15517 -29.151003,-4.47024 -30.508478,-5.27221 -0.700046,-0.41358 -0.05077,-0.50923 1.815981,-0.26754 4.584915,0.5936 39.078177,3.97768 40.554087,3.9787 4.31404,0.003 -5.6875,-17.67375 -12.58099,-22.23564 -5.69977,-3.77193 -15.290034,-4.88307 -24.78133,-2.87119 -6.323753,1.34045 -17.251121,6.87059 -23.285154,11.78418 -7.185439,5.8512 -7.025355,5.45759 -4.045184,9.94605 5.840519,8.79646 15.406922,17.27113 23.864801,21.14132 8.658073,3.9618 15.719281,4.86044 22.478487,2.86071 z m 21.01562,-39.37074 c 0,-0.32253 -0.66885,-5.96115 -1.48635,-12.53027 -2.41849,-19.43435 -4.82615,-43.611575 -4.28314,-43.010522 0.66497,0.736039 3.06124,14.439908 6.48983,37.114282 1.53018,10.11956 2.95964,18.57668 3.17658,18.79362 1.04287,1.04287 12.05351,-9.75586 15.30491,-15.01036 6.01236,-9.71637 6.26334,-21.87944 0.6789,-32.899811 -4.26932,-8.425097 -13.39559,-18.753792 -22.21558,-25.142566 -6.23212,-4.514254 -7.51363,-4.9676 -9.34846,-3.307107 -5.46909,4.949467 -13.809453,19.072058 -16.268792,27.547676 -3.465531,11.943268 -3.532954,19.693748 -0.248259,28.537488 2.731859,7.35528 13.615221,16.39738 23.440391,19.47472 3.53063,1.10583 4.75997,1.21762 4.75997,0.43285 z"
       id="path4202"
       inkscape:connector-curvature="0" />
    <path
       style="fill:#8fd7b6"
       d="m 135.83535,330.64823 c 0,-0.91461 0.63426,-1.69257 1.63438,-2.00468 0.89891,-0.28053 1.87454,-0.87459 2.16806,-1.32014 0.29352,-0.44555 0.53868,-6.14457 0.54479,-12.66448 l 0.0111,-11.8544 1.63439,0.23212 c 1.57656,0.22391 1.64231,0.54051 1.85865,8.94883 0.3877,15.06845 -0.64233,18.76434 -5.49062,19.7012 -2.04634,0.39543 -2.36077,0.25712 -2.36077,-1.03845 z m -37.590799,-5.2704 c -1.814317,-0.55489 -2.360775,-1.12899 -2.360775,-2.48017 0,-1.72429 0.04852,-1.73788 2.519041,-0.70562 3.513243,1.46792 6.658963,1.31762 8.376843,-0.40027 2.88417,-2.88417 1.62124,-4.75673 -4.42195,-6.55646 -5.563793,-1.65698 -6.685939,-2.90093 -6.33435,-7.02198 0.312537,-3.66335 2.887743,-5.45752 7.77891,-5.41963 4.93205,0.0382 6.60935,0.63204 6.60935,2.34 0,1.62008 -0.21664,1.65985 -3.63675,0.66771 -3.43821,-0.99739 -6.45181,-0.23625 -7.412452,1.87214 -1.11571,2.44872 0.181053,3.70069 4.833492,4.66654 4.7679,0.9898 7.23266,3.3579 7.23266,6.94898 0,5.0999 -6.5407,8.12059 -13.184019,6.08876 z m 22.624399,-0.2264 c -5.38562,-2.43896 -7.62784,-10.22658 -4.79096,-16.63981 1.75244,-3.9617 4.65453,-5.72711 9.41454,-5.72711 5.34454,0 9.27072,3.79816 10.07417,9.74567 0.60049,4.44515 -1.2053,9.3869 -4.21262,11.52829 -2.72456,1.94007 -7.51251,2.43915 -10.48513,1.09296 z m 7.67805,-2.98383 c 2.57604,-1.33212 3.96043,-5.16574 3.46209,-9.58709 -0.61347,-5.44267 -4.95934,-8.54612 -9.39473,-6.70892 -2.7051,1.12049 -4.21242,4.08799 -4.21242,8.29306 0,7.35835 4.51067,10.91661 10.14506,8.00295 z m 17.57891,2.63431 c 0.13317,-0.342 2.03995,-5.40478 4.23728,-11.25062 3.73312,-9.93166 4.11914,-10.62936 5.88539,-10.63726 1.76905,-0.008 2.15328,0.6841 5.99274,10.7933 2.25638,5.94096 4.1025,11.00755 4.1025,11.25908 0,0.25152 -0.68004,0.45733 -1.51122,0.45733 -1.0886,0 -1.83039,-0.81255 -2.65256,-2.90557 l -1.14133,-2.90557 -4.85958,0 -4.85958,0 -0.87053,2.90557 c -0.71905,2.39997 -1.19199,2.90557 -2.71789,2.90557 -1.01604,0 -1.7384,-0.27983 -1.60522,-0.62183 z m 13.27084,-9.72926 c -1.44931,-4.6679 -3.04766,-7.95275 -3.50759,-7.20858 -0.28053,0.45392 -1.13072,2.62927 -1.8893,4.83413 l -1.37924,4.00883 3.64179,0 c 3.44276,0 3.61405,-0.0893 3.13434,-1.63438 z m -34.82048,-44.5914 C 95.908306,268.47208 71.400576,257.63849 50.947943,237.934 20.380957,208.48513 8.6615745,164.25153 20.612801,123.43712 27.142141,101.13889 40.589198,80.751256 58.064028,66.655772 71.360447,55.930663 84.426696,49.125947 100.30541,44.657059 c 19.21737,-5.408511 42.39941,-5.408511 61.61678,0 15.87871,4.468888 28.94496,11.273604 42.24138,21.998713 17.47483,14.095484 30.92189,34.483118 37.45123,56.781348 2.7567,9.41435 3.93636,16.83096 4.40979,27.72466 2.35597,54.21167 -34.38529,103.0549 -87.30788,116.06564 -10.09054,2.48071 -24.9561,3.8975 -34.14044,3.25383 z m -1.8675,-24.58386 c 6.61643,-1.30678 15.29915,-3.87427 26.98806,-7.9804 28.68657,-10.07711 35.72345,-11.69513 48.32194,-11.11083 4.35239,0.20185 8.48547,0.60763 9.18462,0.90173 0.90513,0.38073 1.27118,0.19857 1.27118,-0.63259 0,-0.64202 -0.41709,-1.16731 -0.92687,-1.16731 -0.50977,0 -2.55275,-2.16278 -4.53995,-4.80618 -5.07977,-6.7572 -12.78066,-13.67454 -18.18593,-16.33555 -6.15817,-3.03165 -13.85076,-4.14655 -20.61138,-2.98723 -2.76026,0.47333 -9.86525,2.3918 -15.78888,4.26326 -15.27527,4.82595 -27.61851,8.02055 -37.28355,9.64951 -14.248224,2.40141 -16.952212,2.48612 -26.87651,0.84197 -11.236663,-1.86156 -17.524683,-3.74416 -22.013001,-6.59057 -1.903649,-1.20726 -3.558441,-2.19501 -3.677314,-2.19501 -0.506021,0 0.461397,8.69167 1.392623,12.51187 3.517204,14.42877 15.39338,25.49031 29.745634,27.70526 5.880305,0.90749 23.536468,-0.19895 32.999328,-2.06793 z m -18.68445,-2.74421 c -1.31568,-0.42148 -3.94413,-2.46443 -5.840997,-4.53991 -5.823203,-6.37151 -6.664234,-12.5188 -2.286544,-16.71289 5.080891,-4.8678 15.493171,-1.04956 19.757621,7.24522 1.59761,3.10751 1.88107,8.83742 0.55935,11.30707 -1.71114,3.1973 -6.98876,4.36652 -12.18943,2.70051 z m -24.484369,-1.90294 c -12.081177,-5.54199 -13.171309,-21.87978 -1.459918,-21.87978 10.870642,0 19.216322,16.65386 10.916303,21.78356 -2.917635,1.8032 -5.674148,1.83125 -9.456385,0.0962 z m 50.218139,-0.11023 c -6.10498,-1.82888 -12.08255,-9.67874 -12.08255,-15.86703 0,-8.4582 10.92931,-10.72882 18.88085,-3.9226 7.6487,6.54701 7.75875,16.31402 0.21931,19.4642 -2.84998,1.1908 -3.95751,1.24215 -7.01761,0.32543 z m 20.05728,-10.12907 c -7.3778,-3.34886 -11.47696,-11.75685 -8.51978,-17.47539 5.51104,-10.65719 27.01155,0.83053 24.00139,12.82394 -0.26419,1.05261 -1.41908,2.85258 -2.56644,3.99993 -1.78117,1.78118 -2.6517,2.08377 -5.95554,2.07015 -2.24021,-0.009 -5.17056,-0.60655 -6.95963,-1.41863 z m 24.96061,-5.43102 c -3.58735,-1.29984 -8.89158,-6.46832 -9.95973,-9.70483 -1.17322,-3.55489 -0.39176,-8.12635 1.65891,-9.70444 4.14865,-3.19261 9.85625,-2.36485 15.73498,2.28202 6.08779,4.81213 7.34049,13.40846 2.40325,16.49181 -2.25803,1.41017 -6.87604,1.70846 -9.83741,0.63544 z m -50.54196,-29.8172 c 3.6238,-7.42014 5.0638,-14.7306 5.0638,-25.70735 0,-8.2117 0.0858,-8.72561 1.53275,-9.18486 1.13771,-0.3611 2.027,0.0538 3.45037,1.60954 5.52431,6.03826 17.52408,11.82794 24.55265,11.84623 7.19238,0.0187 18.47037,-5.6212 24.1553,-12.07962 7.29711,-8.28996 16.46996,-24.93788 15.89613,-28.85009 -0.44347,-3.02344 -15.33368,-8.66521 -26.48771,-10.03596 -13.29796,-1.63423 -24.22716,1.18197 -31.17825,8.03389 -5.32856,5.25254 -9.74206,15.82413 -9.74206,23.33503 0,3.57808 -1.1633,3.68597 11.62227,-1.07785 13.58616,-5.06212 38.0193,-13.4532 38.31423,-13.15828 0.29177,0.29177 -47.37315,19.3129 -48.39607,19.3129 -0.36223,0 -0.83702,-0.46494 -1.05509,-1.03321 -0.23533,-0.61325 -0.97858,-0.88097 -1.82862,-0.65868 -1.2936,0.33828 -1.47478,-0.1064 -1.87274,-4.59634 -0.24232,-2.73397 -0.58319,-6.5245 -0.75749,-8.42339 l -0.31692,-3.45255 3.98412,-2.94324 c 7.98234,-5.8969 14.86159,-16.60402 16.3001,-25.3701 0.70319,-4.28509 -0.28533,-11.81812 -2.23441,-17.027532 C 141.14805,85.374241 128.32932,71.18361 115.94819,63.878565 l -2.5489,-1.50389 -2.76502,3.049916 C 99.281934,77.946619 92.675977,93.623225 92.748544,107.86925 c 0.0393,7.71396 1.701239,13.10612 5.731881,18.59695 4.070465,5.54507 15.332125,12.93697 21.461525,14.08686 1.40215,0.26304 2.93371,0.7158 3.40348,1.00613 0.47675,0.29465 1.19036,3.88052 1.61518,8.1163 0.41859,4.17364 0.93397,8.16047 1.1453,8.85962 0.29557,0.97781 -0.0415,1.27119 -1.4604,1.27119 -1.62113,0 -1.9912,-0.50607 -3.05429,-4.17676 -2.0346,-7.02518 -8.56073,-15.94357 -14.33361,-19.58782 -4.41062,-2.78431 -11.758531,-4.01754 -18.729492,-3.14346 -3.203906,0.40174 -7.027242,1.06653 -8.496313,1.47732 -4.821617,1.34825 -16.740063,8.27554 -21.854858,12.70258 -5.882288,5.09132 -5.965154,4.3706 1.593679,13.86079 13.046964,16.38059 33.184155,24.00836 46.361494,17.56128 4.31637,-2.1118 12.0684,-9.40558 14.19658,-13.35737 1.12883,-2.09613 1.68666,-2.43099 4.04956,-2.43099 2.72752,0 2.74075,0.0144 2.81816,3.08716 0.33894,13.45346 -1.23752,21.47285 -6.13489,31.20802 -1.96085,3.89785 -2.87392,6.44682 -2.37696,6.63557 1.13532,0.43121 2.29411,-1.21422 5.54945,-7.8799 z m -15.27518,-35.26675 c -23.152921,-3.53846 -29.085461,-4.53399 -28.788468,-4.83099 0.327828,-0.32783 37.967128,3.1952 41.007138,3.83826 2.31333,0.48934 1.59112,2.08929 -1.01553,2.24972 -1.16779,0.0719 -6.2092,-0.49376 -11.20314,-1.25699 z m 14.92099,-19.75747 c -0.32903,-1.03864 -3.60764,-29.07635 -4.73548,-40.49637 -0.41428,-4.194913 -0.9434,-8.771184 -1.17581,-10.169489 -0.23241,-1.398305 -0.22804,-2.349763 0.01,-2.114354 0.89455,0.885749 8.41401,47.297793 8.41401,51.933413 0,1.84576 -1.9841,2.5145 -2.51242,0.8468 z"
       id="path4200"
       inkscape:connector-curvature="0" />
    <path
       style="fill:#a4a4a4"
       d="m 135.83535,330.64823 c 0,-0.91461 0.63426,-1.69257 1.63438,-2.00468 0.89891,-0.28053 1.87454,-0.87459 2.16806,-1.32014 0.29352,-0.44555 0.53868,-6.14457 0.54479,-12.66448 l 0.0111,-11.8544 1.63439,0.23212 c 1.57656,0.22391 1.64231,0.54051 1.85865,8.94883 0.3877,15.06845 -0.64233,18.76434 -5.49062,19.7012 -2.04634,0.39543 -2.36077,0.25712 -2.36077,-1.03845 z m -37.590799,-5.2704 c -1.814317,-0.55489 -2.360775,-1.12899 -2.360775,-2.48017 0,-1.72429 0.04852,-1.73788 2.519041,-0.70562 3.513243,1.46792 6.658963,1.31762 8.376843,-0.40027 2.88417,-2.88417 1.62124,-4.75673 -4.42195,-6.55646 -5.563793,-1.65698 -6.685939,-2.90093 -6.33435,-7.02198 0.312537,-3.66335 2.887743,-5.45752 7.77891,-5.41963 4.93205,0.0382 6.60935,0.63204 6.60935,2.34 0,1.62008 -0.21664,1.65985 -3.63675,0.66771 -3.43821,-0.99739 -6.45181,-0.23625 -7.412452,1.87214 -1.11571,2.44872 0.181053,3.70069 4.833492,4.66654 4.7679,0.9898 7.23266,3.3579 7.23266,6.94898 0,5.0999 -6.5407,8.12059 -13.184019,6.08876 z m 22.624399,-0.2264 c -5.38562,-2.43896 -7.62784,-10.22658 -4.79096,-16.63981 1.75244,-3.9617 4.65453,-5.72711 9.41454,-5.72711 5.34454,0 9.27072,3.79816 10.07417,9.74567 0.60049,4.44515 -1.2053,9.3869 -4.21262,11.52829 -2.72456,1.94007 -7.51251,2.43915 -10.48513,1.09296 z m 7.67805,-2.98383 c 2.57604,-1.33212 3.96043,-5.16574 3.46209,-9.58709 -0.61347,-5.44267 -4.95934,-8.54612 -9.39473,-6.70892 -2.7051,1.12049 -4.21242,4.08799 -4.21242,8.29306 0,7.35835 4.51067,10.91661 10.14506,8.00295 z m 17.57891,2.63431 c 0.13317,-0.342 2.03995,-5.40478 4.23728,-11.25062 3.73312,-9.93166 4.11914,-10.62936 5.88539,-10.63726 1.76905,-0.008 2.15328,0.6841 5.99274,10.7933 2.25638,5.94096 4.1025,11.00755 4.1025,11.25908 0,0.25152 -0.68004,0.45733 -1.51122,0.45733 -1.0886,0 -1.83039,-0.81255 -2.65256,-2.90557 l -1.14133,-2.90557 -4.85958,0 -4.85958,0 -0.87053,2.90557 c -0.71905,2.39997 -1.19199,2.90557 -2.71789,2.90557 -1.01604,0 -1.7384,-0.27983 -1.60522,-0.62183 z m 13.27084,-9.72926 c -1.44931,-4.6679 -3.04766,-7.95275 -3.50759,-7.20858 -0.28053,0.45392 -1.13072,2.62927 -1.8893,4.83413 l -1.37924,4.00883 3.64179,0 c 3.44276,0 3.61405,-0.0893 3.13434,-1.63438 z M 122.76029,270.10868 C 73.141917,266.89249 31.143794,231.14602 19.196887,181.96126 14.231648,161.51965 15.327469,138.96187 22.284499,118.40194 35.291634,79.962292 67.501442,51.607657 108.23244,42.741045 c 6.5905,-1.434666 9.70037,-1.660325 22.88136,-1.660325 13.18099,0 16.29086,0.225659 22.88136,1.660325 40.731,8.866612 72.9408,37.221247 85.94794,75.660895 13.86966,40.98864 3.94573,85.49084 -26.0704,116.90837 -23.39899,24.49146 -56.29461,37.05521 -91.11241,34.79837 z m 0.5779,-24.17192 c 6.26763,-1.25176 14.93713,-3.80553 24.69734,-7.27508 32.4003,-11.51763 43.23898,-13.68048 56.38158,-11.25094 2.30982,0.42699 4.34133,0.63469 4.51447,0.46156 0.39847,-0.39847 -5.54831,-6.98914 -13.54269,-15.00902 -8.47575,-8.5028 -15.3242,-11.63778 -25.4131,-11.63326 -5.72284,0.003 -11.08929,1.21251 -23.97095,5.40464 -19.79434,6.44174 -39.6155,10.55806 -50.821713,10.55431 -11.932285,-0.004 -27.278917,-3.52132 -33.688036,-7.721 -1.534842,-1.00574 -2.91644,-1.70279 -3.070217,-1.54901 -0.539188,0.53918 1.142162,12.72977 2.149494,15.58486 3.196562,9.06002 10.016094,16.93389 18.146663,20.95224 6.907431,3.41383 10.250556,3.92811 23.700279,3.64584 8.53662,-0.17915 13.59435,-0.70268 20.91688,-2.16514 z m -19.8273,-3.22416 c -5.956143,-2.71264 -11.221855,-11.08728 -10.245082,-16.2939 0.890346,-4.74596 5.821198,-7.59562 10.860672,-6.27663 7.47549,1.95656 12.82267,8.21738 12.82267,15.0136 0,4.57917 -1.36206,7.03238 -4.51468,8.13139 -3.16797,1.10436 -5.57805,0.94921 -8.92358,-0.57446 z m -23.153915,-1.16473 c -5.250952,-1.8717 -10.566153,-8.65335 -10.607367,-13.5339 -0.06117,-7.24376 6.672972,-10.83064 13.632841,-7.26141 8.840681,4.53377 12.059071,16.50283 5.481088,20.38394 -2.907596,1.71552 -4.616034,1.79814 -8.506562,0.41137 z m 49.953925,-0.53689 c -5.75007,-1.19369 -12.63536,-9.43015 -12.63536,-15.11491 0,-4.86468 3.83975,-8.70478 8.70397,-8.70478 5.09282,0 12.04451,4.6501 14.48342,9.6882 4.13669,8.54527 -1.44609,16.02185 -10.55203,14.13149 z m 19.68287,-9.92016 c -4.99426,-2.26884 -9.80007,-8.92952 -9.80007,-13.58253 0,-4.38334 4.27732,-8.30732 9.05537,-8.30732 4.26608,0 10.2841,3.28075 13.12944,7.15757 4.09829,5.58397 4.21284,10.14007 0.35203,14.00088 -1.78117,1.78118 -2.6517,2.08377 -5.95554,2.07015 -2.15939,-0.009 -5.15626,-0.60054 -6.78123,-1.33875 z m 23.25078,-6.3862 c -10.27422,-5.39937 -12.28658,-17.24602 -3.38269,-19.91369 3.61453,-1.08294 7.63351,0.0235 11.88964,3.27333 3.89151,2.97138 5.6577,6.34494 5.6577,10.80662 0,2.76642 -0.34765,3.56853 -2.23491,5.15656 -1.78949,1.50576 -2.98386,1.87476 -5.99274,1.85147 -2.0668,-0.016 -4.73845,-0.54442 -5.937,-1.17429 z m -49.28434,-28.11698 c 3.98232,-7.83622 5.4423,-14.55022 5.5811,-25.66585 0.10753,-8.61186 0.25451,-9.62201 1.44544,-9.93415 0.85997,-0.22539 2.33727,0.6342 4.20498,2.44675 3.96415,3.84707 8.86204,6.87193 14.66213,9.05507 8.80417,3.31388 16.09883,2.19731 25.29637,-3.87203 5.98443,-3.94906 8.17078,-6.14495 13.47385,-13.53268 5.33049,-7.42591 10.40739,-17.73605 10.40739,-21.13523 0,-2.13172 -3.8578,-4.44462 -12.34866,-7.40351 -8.8163,-3.07229 -15.69518,-4.06515 -24.46107,-3.53056 -8.95893,0.54634 -14.01756,2.27814 -19.29941,6.60703 -6.50714,5.33311 -11.44533,15.88697 -11.44533,24.46084 0,2.37886 -0.33282,3.51608 -1.11709,3.81703 -1.46309,0.56145 -1.63213,-0.0429 -2.41286,-8.62674 l -0.66068,-7.26392 2.27691,-1.78173 c 3.81264,-2.98345 10.18616,-9.6476 12.63051,-13.20644 1.2715,-1.85124 3.17698,-5.9372 4.23441,-9.0799 2.23813,-6.65179 2.10948,-11.96908 -0.48182,-19.914468 -1.7647,-5.410903 -8.04744,-15.27616 -13.34945,-20.961531 -3.72303,-3.99223 -13.38574,-11.585288 -17.35546,-13.638112 -2.14505,-1.109249 -2.22249,-1.085414 -4.27878,1.317042 -8.1967,9.576542 -13.208802,18.453819 -16.150633,28.60547 -4.654721,16.062469 -2.518082,27.539219 6.827323,36.672389 4.39727,4.2974 10.8674,8.10071 17.85214,10.49395 l 4.35836,1.49333 0.55305,4.35835 c 0.30418,2.3971 0.81503,6.41605 1.13523,8.93101 0.55518,4.36061 0.51269,4.56272 -0.91625,4.35835 -1.11309,-0.15919 -1.88423,-1.33511 -2.99864,-4.57265 -1.88441,-5.4745 -4.59388,-9.76677 -9.31905,-14.76293 -4.43351,-4.68779 -7.33405,-6.27119 -13.554369,-7.39934 -13.136491,-2.3825 -28.457314,3.3011 -42.770614,15.86671 l -3.221732,2.82835 3.536518,5.00237 c 7.763348,10.98118 18.954475,19.63389 29.612843,22.89595 6.658867,2.03798 15.466434,1.73322 20.088794,-0.69512 4.94538,-2.59803 9.30547,-6.49503 12.89522,-11.52561 2.95615,-4.14268 3.51689,-4.58326 5.83329,-4.58326 l 2.56275,0 -0.31929,9.6247 c -0.27943,8.42324 -0.61079,10.48611 -2.6545,16.52542 -1.28437,3.7954 -3.32153,8.50452 -4.52703,10.46471 -1.69998,2.76424 -1.97894,3.69844 -1.24319,4.1632 1.19132,0.75254 2.14407,-0.46137 5.4173,-6.90226 z m -8.82704,-35.33997 c -1.99758,-0.3061 -9.51574,-1.42033 -16.707021,-2.47606 -20.294644,-2.97938 -18.949009,-3.40379 3.654121,-1.15249 20.42284,2.03413 20.67714,2.07587 20.2014,3.31562 -0.43373,1.13028 -1.50785,1.1773 -7.1485,0.31293 z m 17.07022,-2.4599 c 0,-0.56019 0.89891,-1.35102 1.99758,-1.75739 1.09867,-0.40638 6.08353,-2.25462 11.07748,-4.10719 11.92777,-4.42479 32.18785,-11.29224 32.47291,-11.00718 0.24616,0.24615 -44.14826,17.89029 -45.01378,17.89029 -0.29381,0 -0.53419,-0.45834 -0.53419,-1.01853 z m -50.257265,-3.10964 c 0.524361,-0.20983 1.150874,-0.18403 1.392254,0.0573 0.241373,0.24138 -0.187656,0.41306 -0.95339,0.38152 -0.84621,-0.0349 -1.018329,-0.20698 -0.438864,-0.43886 z m 41.986115,-16.02922 c -0.85155,-4.29255 -5.61665,-46.50177 -5.46205,-48.382669 0.2025,-2.463624 7.92206,45.328609 7.92206,49.045929 0,2.10075 -2.01973,1.55621 -2.46001,-0.66326 z"
       id="path4198"
       inkscape:connector-curvature="0" />
    <path
       style="fill:#65c89b"
       d="m 135.83535,330.14528 c 0,-0.59927 0.64225,-1.08958 1.42723,-1.08958 2.45509,0 2.93112,-2.35166 2.93112,-14.4801 0,-11.18576 0.0603,-11.67003 1.45279,-11.67003 1.39535,0 1.45278,0.48427 1.45278,12.25071 0,11.29381 -0.11759,12.40021 -1.5055,14.16465 -1.70341,2.16553 -5.75842,2.74603 -5.75842,0.82435 z m -33.79599,-4.42618 c -0.3892,-0.097 -1.93343,-0.38141 -3.431613,-0.63199 -2.119547,-0.35451 -2.723971,-0.7879 -2.723971,-1.95318 0,-1.14349 0.300574,-1.37254 1.271187,-0.96873 0.699152,0.29088 2.832915,0.69519 4.741697,0.89847 3.9727,0.42308 6.33578,-1.03458 6.33578,-3.9082 0,-1.86582 -2.3238,-3.37842 -6.53753,-4.25536 -4.667008,-0.97128 -6.920545,-4.62628 -5.359913,-8.69323 1.427949,-3.72116 13.350233,-4.66367 13.350233,-1.05539 0,1.14908 -0.27741,1.24462 -1.86327,0.64168 -2.71334,-1.03161 -5.57498,-0.86868 -7.4182,0.42236 -3.375843,2.36453 -1.211943,5.50121 4.51847,6.54974 3.9691,0.72624 6.21578,3.14858 6.21578,6.70173 0,1.88978 -0.47438,3.25532 -1.43195,4.1219 -1.33753,1.21045 -6.07538,2.52687 -7.6667,2.1302 z m 21.81052,-0.11765 c -5.06167,-0.9031 -7.8883,-3.91334 -8.75313,-9.32168 -1.10314,-6.89868 2.76925,-12.60017 8.96207,-13.19523 7.93103,-0.76207 12.80907,5.77627 10.91947,14.63603 -1.08715,5.09731 -6.2475,8.75175 -11.12841,7.88088 z m 4.76178,-3.10481 c 2.08633,-1.11658 3.59173,-4.5793 3.59173,-8.26174 0,-4.17874 -1.21122,-6.80875 -3.73731,-8.11504 -6.37894,-3.29868 -11.5008,2.30905 -9.98227,10.9292 0.87281,4.95461 5.9481,7.68451 10.12785,5.44758 z m 18.49438,0.20312 c 0.59918,-1.49818 2.51318,-6.48305 4.25332,-11.07748 2.81426,-7.43037 3.35511,-8.35351 4.8942,-8.35351 1.55384,0 2.15046,1.07417 5.85008,10.53269 2.26588,5.79298 4.14687,10.80058 4.17998,11.128 0.0331,0.32742 -0.64778,0.49086 -1.51309,0.3632 -1.05635,-0.15585 -1.85255,-1.06749 -2.42315,-2.77449 l -0.84986,-2.54238 -5.1655,-0.21264 -5.16552,-0.21265 -0.87982,2.93662 c -0.70137,2.34094 -1.22368,2.93662 -2.57496,2.93662 -1.66821,0 -1.67783,-0.0432 -0.60568,-2.72398 z M 158.5136,312.0092 c -1.07298,-2.98332 -2.16133,-5.18974 -2.41856,-4.90315 -0.58931,0.65658 -3.55267,8.68769 -3.55267,9.62822 0,0.38454 1.78247,0.69915 3.96105,0.69915 l 3.96105,0 -1.95087,-5.42422 z M 122.76029,270.10868 C 73.141917,266.89249 31.143794,231.14602 19.196887,181.96126 14.231648,161.51965 15.327469,138.96187 22.284499,118.40194 35.291634,79.962292 67.501442,51.607657 108.23244,42.741045 c 6.5905,-1.434666 9.70037,-1.660325 22.88136,-1.660325 13.18099,0 16.29086,0.225659 22.88136,1.660325 40.731,8.866612 72.9408,37.221247 85.94794,75.660895 13.86966,40.98864 3.94573,85.49084 -26.0704,116.90837 -23.39899,24.49146 -56.29461,37.05521 -91.11241,34.79837 z m 0.5779,-24.17192 c 6.26763,-1.25176 14.93713,-3.80553 24.69734,-7.27508 32.4003,-11.51763 43.23898,-13.68048 56.38158,-11.25094 2.30982,0.42699 4.34133,0.63469 4.51447,0.46156 0.39847,-0.39847 -5.54831,-6.98914 -13.54269,-15.00902 -8.47575,-8.5028 -15.3242,-11.63778 -25.4131,-11.63326 -5.72284,0.003 -11.08929,1.21251 -23.97095,5.40464 -19.79434,6.44174 -39.6155,10.55806 -50.821713,10.55431 -11.932285,-0.004 -27.278917,-3.52132 -33.688036,-7.721 -1.534842,-1.00574 -2.91644,-1.70279 -3.070217,-1.54901 -0.539188,0.53918 1.142162,12.72977 2.149494,15.58486 3.196562,9.06002 10.016094,16.93389 18.146663,20.95224 6.907431,3.41383 10.250556,3.92811 23.700279,3.64584 8.53662,-0.17915 13.59435,-0.70268 20.91688,-2.16514 z m -19.8273,-3.22416 c -5.956143,-2.71264 -11.221855,-11.08728 -10.245082,-16.2939 0.890346,-4.74596 5.821198,-7.59562 10.860672,-6.27663 7.47549,1.95656 12.82267,8.21738 12.82267,15.0136 0,4.57917 -1.36206,7.03238 -4.51468,8.13139 -3.16797,1.10436 -5.57805,0.94921 -8.92358,-0.57446 z m -23.153915,-1.16473 c -5.250952,-1.8717 -10.566153,-8.65335 -10.607367,-13.5339 -0.06117,-7.24376 6.672972,-10.83064 13.632841,-7.26141 8.840681,4.53377 12.059071,16.50283 5.481088,20.38394 -2.907596,1.71552 -4.616034,1.79814 -8.506562,0.41137 z m 49.953925,-0.53689 c -5.75007,-1.19369 -12.63536,-9.43015 -12.63536,-15.11491 0,-4.86468 3.83975,-8.70478 8.70397,-8.70478 5.09282,0 12.04451,4.6501 14.48342,9.6882 4.13669,8.54527 -1.44609,16.02185 -10.55203,14.13149 z m 19.68287,-9.92016 c -4.99426,-2.26884 -9.80007,-8.92952 -9.80007,-13.58253 0,-4.38334 4.27732,-8.30732 9.05537,-8.30732 4.26608,0 10.2841,3.28075 13.12944,7.15757 4.09829,5.58397 4.21284,10.14007 0.35203,14.00088 -1.78117,1.78118 -2.6517,2.08377 -5.95554,2.07015 -2.15939,-0.009 -5.15626,-0.60054 -6.78123,-1.33875 z m 23.25078,-6.3862 c -10.27422,-5.39937 -12.28658,-17.24602 -3.38269,-19.91369 3.61453,-1.08294 7.63351,0.0235 11.88964,3.27333 3.89151,2.97138 5.6577,6.34494 5.6577,10.80662 0,2.76642 -0.34765,3.56853 -2.23491,5.15656 -1.78949,1.50576 -2.98386,1.87476 -5.99274,1.85147 -2.0668,-0.016 -4.73845,-0.54442 -5.937,-1.17429 z m -49.28434,-28.11698 c 3.98232,-7.83622 5.4423,-14.55022 5.5811,-25.66585 0.10753,-8.61186 0.25451,-9.62201 1.44544,-9.93415 0.85997,-0.22539 2.33727,0.6342 4.20498,2.44675 3.96415,3.84707 8.86204,6.87193 14.66213,9.05507 8.80417,3.31388 16.09883,2.19731 25.29637,-3.87203 5.98443,-3.94906 8.17078,-6.14495 13.47385,-13.53268 5.33049,-7.42591 10.40739,-17.73605 10.40739,-21.13523 0,-2.13172 -3.8578,-4.44462 -12.34866,-7.40351 -8.8163,-3.07229 -15.69518,-4.06515 -24.46107,-3.53056 -8.95893,0.54634 -14.01756,2.27814 -19.29941,6.60703 -6.50714,5.33311 -11.44533,15.88697 -11.44533,24.46084 0,2.37886 -0.33282,3.51608 -1.11709,3.81703 -1.46309,0.56145 -1.63213,-0.0429 -2.41286,-8.62674 l -0.66068,-7.26392 2.27691,-1.78173 c 3.81264,-2.98345 10.18616,-9.6476 12.63051,-13.20644 1.2715,-1.85124 3.17698,-5.9372 4.23441,-9.0799 2.23813,-6.65179 2.10948,-11.96908 -0.48182,-19.914468 -1.7647,-5.410903 -8.04744,-15.27616 -13.34945,-20.961531 -3.72303,-3.99223 -13.38574,-11.585288 -17.35546,-13.638112 -2.14505,-1.109249 -2.22249,-1.085414 -4.27878,1.317042 -8.1967,9.576542 -13.208802,18.453819 -16.150633,28.60547 -4.654721,16.062469 -2.518082,27.539219 6.827323,36.672389 4.39727,4.2974 10.8674,8.10071 17.85214,10.49395 l 4.35836,1.49333 0.55305,4.35835 c 0.30418,2.3971 0.81503,6.41605 1.13523,8.93101 0.55518,4.36061 0.51269,4.56272 -0.91625,4.35835 -1.11309,-0.15919 -1.88423,-1.33511 -2.99864,-4.57265 -1.88441,-5.4745 -4.59388,-9.76677 -9.31905,-14.76293 -4.43351,-4.68779 -7.33405,-6.27119 -13.554369,-7.39934 -13.136491,-2.3825 -28.457314,3.3011 -42.770614,15.86671 l -3.221732,2.82835 3.536518,5.00237 c 7.763348,10.98118 18.954475,19.63389 29.612843,22.89595 6.658867,2.03798 15.466434,1.73322 20.088794,-0.69512 4.94538,-2.59803 9.30547,-6.49503 12.89522,-11.52561 2.95615,-4.14268 3.51689,-4.58326 5.83329,-4.58326 l 2.56275,0 -0.31929,9.6247 c -0.27943,8.42324 -0.61079,10.48611 -2.6545,16.52542 -1.28437,3.7954 -3.32153,8.50452 -4.52703,10.46471 -1.69998,2.76424 -1.97894,3.69844 -1.24319,4.1632 1.19132,0.75254 2.14407,-0.46137 5.4173,-6.90226 z m -8.82704,-35.33997 c -1.99758,-0.3061 -9.51574,-1.42033 -16.707021,-2.47606 -20.294644,-2.97938 -18.949009,-3.40379 3.654121,-1.15249 20.42284,2.03413 20.67714,2.07587 20.2014,3.31562 -0.43373,1.13028 -1.50785,1.1773 -7.1485,0.31293 z m 17.07022,-2.4599 c 0,-0.56019 0.89891,-1.35102 1.99758,-1.75739 1.09867,-0.40638 6.08353,-2.25462 11.07748,-4.10719 11.92777,-4.42479 32.18785,-11.29224 32.47291,-11.00718 0.24616,0.24615 -44.14826,17.89029 -45.01378,17.89029 -0.29381,0 -0.53419,-0.45834 -0.53419,-1.01853 z m -50.257265,-3.10964 c 0.524361,-0.20983 1.150874,-0.18403 1.392254,0.0573 0.241373,0.24138 -0.187656,0.41306 -0.95339,0.38152 -0.84621,-0.0349 -1.018329,-0.20698 -0.438864,-0.43886 z m 41.986115,-16.02922 c -0.85155,-4.29255 -5.61665,-46.50177 -5.46205,-48.382669 0.2025,-2.463624 7.92206,45.328609 7.92206,49.045929 0,2.10075 -2.01973,1.55621 -2.46001,-0.66326 z"
       id="path4196"
       inkscape:connector-curvature="0" />
    <path
       style="fill:#44bd85"
       d="m 135.83535,330.14528 c 0,-0.59927 0.64225,-1.08958 1.42723,-1.08958 2.45509,0 2.93112,-2.35166 2.93112,-14.4801 0,-11.18576 0.0603,-11.67003 1.45279,-11.67003 1.39535,0 1.45278,0.48427 1.45278,12.25071 0,11.29381 -0.11759,12.40021 -1.5055,14.16465 -1.70341,2.16553 -5.75842,2.74603 -5.75842,0.82435 z m -33.79599,-4.42618 c -0.3892,-0.097 -1.93343,-0.38141 -3.431613,-0.63199 -2.119547,-0.35451 -2.723971,-0.7879 -2.723971,-1.95318 0,-1.14349 0.300574,-1.37254 1.271187,-0.96873 0.699152,0.29088 2.832915,0.69519 4.741697,0.89847 3.9727,0.42308 6.33578,-1.03458 6.33578,-3.9082 0,-1.86582 -2.3238,-3.37842 -6.53753,-4.25536 -4.667008,-0.97128 -6.920545,-4.62628 -5.359913,-8.69323 1.427949,-3.72116 13.350233,-4.66367 13.350233,-1.05539 0,1.14908 -0.27741,1.24462 -1.86327,0.64168 -2.71334,-1.03161 -5.57498,-0.86868 -7.4182,0.42236 -3.375843,2.36453 -1.211943,5.50121 4.51847,6.54974 3.9691,0.72624 6.21578,3.14858 6.21578,6.70173 0,1.88978 -0.47438,3.25532 -1.43195,4.1219 -1.33753,1.21045 -6.07538,2.52687 -7.6667,2.1302 z m 21.81052,-0.11765 c -5.06167,-0.9031 -7.8883,-3.91334 -8.75313,-9.32168 -1.10314,-6.89868 2.76925,-12.60017 8.96207,-13.19523 7.93103,-0.76207 12.80907,5.77627 10.91947,14.63603 -1.08715,5.09731 -6.2475,8.75175 -11.12841,7.88088 z m 4.76178,-3.10481 c 2.08633,-1.11658 3.59173,-4.5793 3.59173,-8.26174 0,-4.17874 -1.21122,-6.80875 -3.73731,-8.11504 -6.37894,-3.29868 -11.5008,2.30905 -9.98227,10.9292 0.87281,4.95461 5.9481,7.68451 10.12785,5.44758 z m 18.49438,0.20312 c 0.59918,-1.49818 2.51318,-6.48305 4.25332,-11.07748 2.81426,-7.43037 3.35511,-8.35351 4.8942,-8.35351 1.55384,0 2.15046,1.07417 5.85008,10.53269 2.26588,5.79298 4.14687,10.80058 4.17998,11.128 0.0331,0.32742 -0.64778,0.49086 -1.51309,0.3632 -1.05635,-0.15585 -1.85255,-1.06749 -2.42315,-2.77449 l -0.84986,-2.54238 -5.1655,-0.21264 -5.16552,-0.21265 -0.87982,2.93662 c -0.70137,2.34094 -1.22368,2.93662 -2.57496,2.93662 -1.66821,0 -1.67783,-0.0432 -0.60568,-2.72398 z M 158.5136,312.0092 c -1.07298,-2.98332 -2.16133,-5.18974 -2.41856,-4.90315 -0.58931,0.65658 -3.55267,8.68769 -3.55267,9.62822 0,0.38454 1.78247,0.69915 3.96105,0.69915 l 3.96105,0 -1.95087,-5.42422 z M 113.68039,269.12404 C 63.696626,261.14776 25.078108,222.418 17.351998,172.51816 c -1.174646,-7.58657 -1.169699,-26.85531 0.0087,-33.77724 3.118707,-18.31974 8.46486,-32.21152 17.891002,-46.489102 17.034895,-25.802404 42.255622,-42.743164 73.70717,-49.509095 6.48233,-1.394494 9.80766,-1.640764 22.15496,-1.640764 12.3473,0 15.67263,0.24627 22.15496,1.640764 31.45155,6.765931 56.67227,23.706691 73.70717,49.509095 9.42614,14.277582 14.77229,28.169362 17.891,46.489102 1.17837,6.92193 1.18332,26.19067 0.009,33.77724 -6.43872,41.5851 -34.46369,75.96273 -74.08227,90.87512 -6.3209,2.37919 -14.99993,4.56801 -22.97251,5.7936 -8.00101,1.22996 -26.24953,1.19637 -34.14043,-0.0628 z m 9.4431,-23.09704 c 6.44353,-1.26559 15.09611,-3.85031 27.2397,-8.13711 28.79677,-10.16552 41.74604,-12.72614 53.31651,-10.54295 2.6731,0.50438 5.0239,0.75334 5.224,0.55324 0.36826,-0.36827 -2.0773,-3.15196 -12.18528,-13.87006 -13.94,-14.7814 -24.48326,-16.19445 -52.26442,-7.00466 -18.13913,6.00029 -38.44618,10.1759 -49.377311,10.15314 -12.863658,-0.0268 -28.219419,-3.84712 -34.661279,-8.62335 l -2.41752,-1.79245 0.478414,5.39585 c 1.35991,15.33786 8.483957,26.75969 20.144528,32.29727 7.3796,3.50456 10.089828,3.92773 23.437278,3.65945 8.76193,-0.17612 13.94631,-0.69008 21.06538,-2.08837 z m -18.87229,-3.08738 c -6.078845,-2.29361 -10.546601,-8.59683 -10.546601,-14.87939 0,-3.13949 0.32979,-4.04656 2.123303,-5.84007 1.767777,-1.76779 2.710373,-2.12046 5.629538,-2.10633 4.93399,0.0239 10.10059,2.97964 13.13094,7.5121 4.7288,7.07283 2.4316,15.19322 -4.53996,16.04835 -1.68618,0.20682 -4.1191,-0.10149 -5.79722,-0.73466 z m -25.437642,-2.19331 c -7.236077,-3.76342 -10.953204,-13.18755 -7.189999,-18.22901 5.897181,-7.90026 20.591936,0.89676 20.621159,12.34487 0.01075,4.21267 -3.094663,7.02791 -7.745746,7.02198 -1.928426,-0.002 -4.486866,-0.51449 -5.685414,-1.13784 z m 49.031472,-0.74217 c -3.63863,-1.57607 -6.46371,-4.47142 -8.43828,-8.6482 -2.09116,-4.42339 -2.17586,-7.25215 -0.30884,-10.31418 2.30095,-3.77365 8.57242,-4.67549 13.83187,-1.98901 2.59067,1.32329 7.76834,6.8524 8.67451,9.26331 1.75568,4.67107 -0.2788,10.72287 -4.09222,12.17273 -2.58783,0.98389 -6.7595,0.77474 -9.66704,-0.48465 z m 23.60775,-8.44592 c -7.77615,-2.757 -13.05568,-11.69123 -10.18694,-17.23875 1.37127,-2.65175 5.04259,-5.11034 7.64457,-5.11938 6.17386,-0.0214 14.34575,6.27807 15.97028,12.3111 2.13251,7.91957 -4.79945,13.1062 -13.42791,10.04703 z m 22.41308,-6.70101 c -8.50895,-3.70238 -12.48778,-14.24028 -7.00511,-18.55295 2.05758,-1.6185 7.44406,-1.98918 10.73325,-0.73863 8.26502,3.14235 12.57054,13.34042 7.6919,18.21906 -1.7728,1.77281 -2.70209,2.11861 -5.62954,2.09487 -1.92843,-0.0156 -4.53416,-0.47569 -5.7905,-1.02235 z m -49.84429,-28.16955 c 4.10512,-8.30866 5.44453,-14.32915 5.68681,-25.56166 0.16747,-7.76421 0.40592,-9.49638 1.38249,-10.0429 0.87748,-0.49106 1.55014,-0.18998 2.62312,1.1741 2.34725,2.98405 11.80989,8.89288 17.01572,10.62526 13.6542,4.54383 27.60532,-2.43852 39.40965,-19.724 3.47002,-5.08127 8.04206,-14.56375 9.14953,-18.97622 0.39972,-1.59263 -0.005,-2.02638 -3.71798,-3.98216 -10.34599,-5.45003 -21.46269,-7.84456 -33.439,-7.20273 -7.4579,0.39968 -8.75636,0.68598 -13.53509,2.98446 -5.63166,2.70872 -9.08364,5.948 -12.43776,11.67138 -2.50009,4.26608 -4.68206,11.92298 -4.68206,16.43013 0,2.33149 -0.33755,3.5179 -1.08219,3.80364 -1.31893,0.50613 -1.61219,-0.60817 -2.45802,-9.33974 -0.63279,-6.53224 -0.63176,-6.53866 1.27186,-7.93112 3.36996,-2.46507 11.44009,-10.9173 13.42322,-14.05877 1.0583,-1.67647 2.77078,-5.25961 3.80549,-7.96253 1.64296,-4.29178 1.83246,-5.65642 1.49575,-10.77112 -0.67592,-10.267179 -5.71842,-20.352228 -15.36653,-30.733143 -4.44263,-4.780068 -12.5146,-11.184067 -17.03923,-13.518279 l -2.51139,-1.295601 -3.13522,3.546902 c -7.31699,8.277786 -12.523521,17.749731 -15.384322,27.987859 -6.350419,22.726552 1.754223,38.227232 24.268712,46.415592 l 5.08475,1.84929 0.55431,4.68824 c 0.30486,2.57854 0.81456,6.58235 1.13265,8.89737 0.54822,3.98987 0.50043,4.19798 -0.9175,3.99516 -1.12133,-0.1604 -1.88933,-1.36341 -3.06737,-4.80478 -1.87795,-5.48599 -4.31958,-9.31966 -9.26795,-14.55183 -4.29126,-4.53738 -7.14038,-6.13911 -13.113159,-7.372 -8.678448,-1.79139 -19.420918,0.38179 -29.605421,5.98911 -5.311407,2.92433 -16.538806,11.6533 -16.538806,12.85844 0,0.89135 7.12521,10.27308 10.424864,13.72636 5.922659,6.19841 16.319264,12.54178 24.078767,14.69137 4.897054,1.35662 11.567339,1.24843 15.980625,-0.2592 4.95359,-1.6922 11.41335,-6.93894 15.49464,-12.58504 3.01167,-4.16637 3.63565,-4.66854 5.57074,-4.48318 l 2.17918,0.20874 0.21117,6.44506 c 0.34325,10.47577 -2.70737,22.62938 -7.65945,30.5151 -1.38959,2.21277 -1.56556,2.94651 -0.81755,3.4088 1.42307,0.87952 2.27074,-0.15576 5.53195,-6.75636 z m -10.38078,-35.75522 c -3.21791,-0.50011 -10.98528,-1.66226 -17.260823,-2.58256 -6.275549,-0.92029 -11.270949,-1.8124 -11.100893,-1.98246 0.170056,-0.17006 7.120235,0.36899 15.444846,1.19789 21.90446,2.18109 22.00753,2.19732 21.54896,3.39234 -0.45662,1.18993 -0.82029,1.18887 -8.63209,-0.0252 z m 18.5626,-2.14467 c 0,-0.56019 0.89891,-1.33885 1.99758,-1.73034 1.09867,-0.3915 6.20518,-2.24403 11.34781,-4.11674 14.23917,-5.18525 29.80816,-10.51353 30.04067,-10.28101 0.2083,0.20829 -42.26684,17.14662 -42.99746,17.14662 -0.21373,0 -0.3886,-0.45834 -0.3886,-1.01853 z m -7.69248,-17.97343 c -0.62945,-1.01846 -4.3813,-31.31161 -4.93497,-39.84582 l -0.40057,-6.174329 1.0563,5.447939 c 1.16765,6.02223 6.16058,38.7455 6.16058,40.37596 0,1.23614 -1.16364,1.35752 -1.88134,0.19625 z m -5.99428,-47.83613 c 0,-0.998789 0.16487,-1.407385 0.36638,-0.90799 0.20151,0.499394 0.20151,1.316586 0,1.81598 -0.20151,0.499395 -0.36638,0.0908 -0.36638,-0.90799 z"
       id="path4194"
       inkscape:connector-curvature="0" />
    <path
       style="fill:#01a65a"
       d="m 135.83535,330.14528 c 0,-0.59927 0.61373,-1.08958 1.36384,-1.08958 2.57984,0 2.95248,-1.63384 3.15749,-13.84422 0.17943,-10.68609 0.33221,-11.94958 1.47141,-12.16833 1.17023,-0.22471 1.27118,0.73308 1.27118,12.05987 0,11.3477 -0.11701,12.45273 -1.5055,14.21791 -1.70341,2.16553 -5.75842,2.74603 -5.75842,0.82435 z m -38.680387,-5.22227 c -0.699153,-0.1827 -1.271187,-0.99695 -1.271187,-1.80943 0,-1.14147 0.28893,-1.34667 1.271187,-0.90279 0.699152,0.31595 2.936617,0.70511 4.972157,0.86481 4.15321,0.32584 6.10532,-0.8857 6.10532,-3.78914 0,-2.18011 -0.96598,-2.88684 -5.86488,-4.29085 -2.22689,-0.63821 -4.596748,-1.76576 -5.266343,-2.50566 -1.23969,-1.36984 -1.580179,-4.16191 -0.76622,-6.28307 1.427949,-3.72116 13.350233,-4.66367 13.350233,-1.05539 0,1.14908 -0.27741,1.24462 -1.86327,0.64168 -4.83596,-1.83863 -9.430496,0.1021 -8.90939,3.76333 0.199911,1.40453 1.028179,1.89684 4.96152,2.94902 2.7703,0.74108 5.24688,1.90349 5.99274,2.81275 1.8745,2.2852 1.63527,6.17545 -0.51178,8.3225 -1.53976,1.53976 -2.40674,1.77147 -6.35593,1.6987 -2.51514,-0.0463 -5.145005,-0.23375 -5.844157,-0.41646 z m 22.607357,-0.72231 c -1.0496,-0.65141 -2.49152,-2.17157 -3.20425,-3.37814 -1.61038,-2.72614 -1.77559,-9.45632 -0.30543,-12.44193 1.50239,-3.05105 5.41189,-5.47506 8.83032,-5.47506 6.305,0 10.01877,4.11773 10.02328,11.11356 0.005,7.43939 -3.39202,11.4182 -9.71994,11.38528 -2.13887,-0.0111 -4.52542,-0.52192 -5.62398,-1.20371 z m 9.98551,-2.66254 c 3.79095,-3.26084 3.05286,-13.46358 -1.13617,-15.70549 -7.86468,-4.20905 -14.41532,7.944 -8.23859,15.28463 2.32915,2.76804 6.43187,2.95222 9.37476,0.42086 z m 20.63796,-7.19191 c 3.75618,-9.8486 4.41015,-11.07748 5.89496,-11.07748 1.48215,0 2.14133,1.22606 5.85805,10.89588 2.30339,5.99274 4.19182,10.97761 4.1965,11.07749 0.004,0.0999 -0.59565,0.1816 -1.33407,0.1816 -0.89188,0 -1.72576,-0.97542 -2.48394,-2.90557 l -1.14134,-2.90557 -5.03299,0 -5.033,0 -1.14134,2.90557 c -0.79443,2.02241 -1.57696,2.90557 -2.57453,2.90557 -1.30461,0 -1.05417,-0.99378 2.7917,-11.07749 z m 10.1469,2.89375 c 0,-1.19808 -4.236,-10.76172 -4.54511,-10.26155 -0.7873,1.27387 -3.44448,8.63794 -3.44485,9.54698 -2.4e-4,0.61638 1.28274,0.90799 3.9948,0.90799 2.19734,0 3.99516,-0.087 3.99516,-0.19342 z M 114.71801,269.15352 C 88.90234,264.93412 67.699374,254.29414 50.165089,236.75985 35.275173,221.86994 24.876049,203.63169 19.606049,183.16464 15.217574,166.12115 15.519439,142.90973 20.35765,125.3715 32.445644,81.553236 68.708173,49.167692 113.68039,42.026306 c 7.48347,-1.188343 27.38335,-1.188343 34.86682,0 44.97222,7.141386 81.23474,39.52693 93.32274,83.345194 4.83821,17.53823 5.14007,40.74965 0.7516,57.79314 -9.78991,38.021 -37.65085,68.3857 -74.09855,80.75752 -12.63854,4.29003 -20.51673,5.63704 -34.86683,5.96155 -8.72724,0.19735 -14.66353,-0.0315 -18.93816,-0.73019 z m 6.98858,-22.93855 c 8.4729,-1.53096 14.62536,-3.17668 22.51816,-6.02338 33.76942,-12.17963 46.54962,-14.95868 59.07536,-12.84594 2.89813,0.48883 5.45076,0.70736 5.6725,0.48561 0.22175,-0.22174 -0.69851,-1.51525 -2.04501,-2.87446 -1.3465,-1.35921 -4.73632,-5.06543 -7.53293,-8.23603 -9.66986,-10.96302 -16.37709,-14.76884 -27.07182,-15.3611 -7.41228,-0.41048 -12.00017,0.46711 -25.934,4.96081 -20.20526,6.51624 -40.7784,10.87362 -51.312161,10.86789 -10.642903,-0.006 -27.266229,-3.80647 -32.686034,-7.47316 -4.738001,-3.20544 -4.465241,-3.40316 -3.931574,2.84996 1.62705,19.06459 12.994938,32.23119 30.584891,35.42423 7.764705,1.4095 18.170028,0.84422 32.662618,-1.77443 z m -18.39178,-3.9626 c -4.653847,-2.02236 -9.619131,-9.05188 -9.600295,-13.59146 0.01634,-3.94095 0.759014,-5.56628 3.245564,-7.10306 9.333281,-5.76828 23.983891,8.31944 18.891961,18.16614 -0.6034,1.16686 -1.72598,2.45813 -2.49462,2.8695 -1.97471,1.05682 -7.23696,0.87808 -10.04261,-0.34112 z m -23.264583,-1.12554 c -5.285107,-2.12086 -9.590179,-8.05614 -9.590179,-13.22171 0,-4.16451 1.169703,-6.31133 4.107573,-7.53885 6.579378,-2.74904 15.749274,3.80897 17.364422,12.41846 1.221239,6.50976 -5.204884,11.02148 -11.881816,8.3421 z m 49.650203,-0.4558 c -4.98174,-1.39748 -10.00276,-7.20196 -11.3334,-13.10184 -0.72099,-3.19676 0.54016,-6.72628 3.02537,-8.46699 2.32426,-1.62797 8.03145,-1.52033 11.43427,0.21566 5.77054,2.94391 10.39482,10.37401 9.26303,14.88344 -0.26054,1.03807 -1.37636,2.89764 -2.4796,4.13238 -1.56801,1.75492 -2.71432,2.29834 -5.2511,2.48941 -1.78486,0.13443 -3.88121,0.066 -4.65857,-0.15206 z m 22.46353,-9.20574 c -4.29789,-1.39412 -6.57592,-3.11742 -9.04152,-6.83978 -5.55007,-8.37908 -0.31869,-17.08125 8.82786,-14.68473 4.5476,1.19154 8.35786,3.94045 10.8004,7.79192 5.61369,8.85188 -0.63704,16.96001 -10.58674,13.73259 z m 20.8397,-7.44837 c -11.8203,-5.89031 -11.2382,-20.14804 0.77546,-18.99368 8.60719,0.82704 15.91187,10.73326 12.61528,17.10817 -2.09304,4.04749 -7.51902,4.81151 -13.39074,1.88551 z m -49.70659,-25.53023 c 4.62583,-8.6927 6.08989,-14.77298 6.41488,-26.64115 0.19074,-6.96543 0.55548,-10.28784 1.1712,-10.66837 0.55116,-0.34064 2.02091,0.48433 3.83119,2.15045 17.97013,16.53905 37.13719,14.3764 52.42243,-5.91491 2.95021,-3.91644 6.00813,-8.38337 6.79538,-9.92651 1.70858,-3.34908 5.82572,-13.60096 5.82572,-14.5063 0,-1.18151 -6.11768,-4.22638 -14.16465,-7.04997 l -7.99032,-2.80371 -11.62227,-6.5e-4 -11.62228,-6.4e-4 -5.26843,2.46855 c -3.40974,1.59765 -6.39933,3.67758 -8.47399,5.89556 -5.4072,5.78074 -9.1118,14.6554 -9.13031,21.87239 -0.005,2.09284 -0.41983,3.70268 -1.09821,4.26569 -0.59928,0.49736 -1.10865,0.78254 -1.13195,0.63374 -0.0233,-0.1488 -0.45377,-3.95823 -0.95661,-8.46539 l -0.91427,-8.19485 2.26612,-1.40054 c 3.14456,-1.94344 10.67832,-9.91978 13.35323,-14.13767 7.61403,-12.00608 6.64386,-25.41556 -2.8611,-39.545343 -2.31263,-3.437898 -6.59775,-8.595349 -9.52248,-11.46101 -5.25852,-5.152311 -15.29044,-12.586322 -16.98478,-12.586322 -2.03457,0 -10.54235,11.061051 -14.400387,18.722085 -4.467814,8.871894 -6.456843,16.75938 -6.54422,25.95104 -0.122506,12.88764 3.058939,19.01943 14.451897,27.85403 l 2.17917,1.68982 -2.54237,-1.43601 c -8.662068,-4.89261 -22.744692,-3.80054 -35.503449,2.75319 -6.377466,3.27588 -18.249577,12.16336 -18.249577,13.66166 0,1.22037 5.483963,8.53671 9.936537,13.25667 10.215203,10.82866 24.996588,17.65177 35.419177,16.34955 7.652782,-0.95615 16.428672,-7.06801 21.502812,-14.97537 2.09104,-3.25861 2.5984,-3.63737 4.60996,-3.44146 l 2.26033,0.22012 -0.11369,9.07991 c -0.10013,7.99725 -0.38172,9.90271 -2.36165,15.98063 -1.23638,3.7954 -3.2221,8.6579 -4.41271,10.80557 -1.19062,2.14766 -1.98813,4.19064 -1.77224,4.53995 0.98795,1.59854 2.43047,0.21355 5.20191,-4.99443 z m -16.88061,-38.71782 c -7.590795,-1.15271 -14.455202,-2.14408 -15.254233,-2.20306 -1.066584,-0.0787 -1.144773,-0.18976 -0.294131,-0.41774 0.637256,-0.17079 7.655128,0.35745 15.595274,1.17385 7.94015,0.81641 14.69176,1.48438 15.00358,1.48438 0.31182,0 0.56695,0.49031 0.56695,1.08959 0,1.33028 1.07538,1.40788 -15.61744,-1.12702 z m 17.69904,-0.49656 c -0.71329,-0.16016 -1.54626,-1.62905 -2.08675,-3.67985 -0.99618,-3.77979 -5.82591,-11.62938 -9.99409,-16.24306 l -2.702,-2.99079 3.71922,1.88468 c 2.04557,1.03656 5.21968,2.26248 7.05355,2.72426 1.96525,0.49486 3.49454,1.34432 3.72449,2.06884 0.43315,1.36475 1.92868,16.2356 1.64923,16.39919 -0.0971,0.0568 -0.71071,-0.0166 -1.36365,-0.16327 z m 8.08789,-0.39316 c 0,-0.59543 0.57203,-1.25505 1.27118,-1.46584 0.69916,-0.21079 5.84746,-2.07822 11.44068,-4.14984 12.75357,-4.72365 26.73099,-9.46226 27.0297,-9.16356 0.12478,0.12479 -8.35742,3.58281 -18.84935,7.68448 -10.49193,4.10168 -19.48483,7.61954 -19.98422,7.81747 -0.4994,0.19793 -0.90799,-0.12729 -0.90799,-0.72271 z m -45.944311,-2.4595 c 0.499395,-0.2015 1.316586,-0.2015 1.815981,0 0.499394,0.20151 0.0908,0.36639 -0.907991,0.36639 -0.998789,0 -1.407385,-0.16488 -0.90799,-0.36639 z m 37.697481,-17.86033 c -0.59309,-3.34814 -3.97018,-32.66126 -4.41442,-38.31719 l -0.37085,-4.721547 1.05834,5.447937 c 0.85613,4.40705 6.16262,38.54837 6.16262,39.64957 0,0.1661 -0.45394,0.30201 -1.00875,0.30201 -0.56803,0 -1.19145,-1.03141 -1.42694,-2.36078 z"
       id="path4192"
       inkscape:connector-curvature="0" />
    <path
       style="fill:#0e0e0e"
       d="m 135.83535,330.14528 c 0,-0.59927 0.61373,-1.08958 1.36384,-1.08958 2.57984,0 2.95248,-1.63384 3.15749,-13.84422 0.17943,-10.68609 0.33221,-11.94958 1.47141,-12.16833 1.17023,-0.22471 1.27118,0.73308 1.27118,12.05987 0,11.3477 -0.11701,12.45273 -1.5055,14.21791 -1.70341,2.16553 -5.75842,2.74603 -5.75842,0.82435 z m -38.680387,-5.22227 c -0.699153,-0.1827 -1.271187,-0.99695 -1.271187,-1.80943 0,-1.14147 0.28893,-1.34667 1.271187,-0.90279 0.699152,0.31595 2.936617,0.70511 4.972157,0.86481 4.15321,0.32584 6.10532,-0.8857 6.10532,-3.78914 0,-2.18011 -0.96598,-2.88684 -5.86488,-4.29085 -2.22689,-0.63821 -4.596748,-1.76576 -5.266343,-2.50566 -1.23969,-1.36984 -1.580179,-4.16191 -0.76622,-6.28307 1.427949,-3.72116 13.350233,-4.66367 13.350233,-1.05539 0,1.14908 -0.27741,1.24462 -1.86327,0.64168 -4.90785,-1.86597 -9.316075,-0.10445 -8.890453,3.55261 0.194877,1.67445 0.779775,2.04852 4.942583,3.16099 2.77177,0.74073 5.24649,1.90175 5.99274,2.8115 1.8745,2.2852 1.63527,6.17545 -0.51178,8.3225 -1.53976,1.53976 -2.40674,1.77147 -6.35593,1.6987 -2.51514,-0.0463 -5.145005,-0.23375 -5.844157,-0.41646 z m 22.607357,-0.72231 c -1.0496,-0.65141 -2.49152,-2.17157 -3.20425,-3.37814 -1.61038,-2.72614 -1.77559,-9.45632 -0.30543,-12.44193 1.50239,-3.05105 5.41189,-5.47506 8.83032,-5.47506 6.305,0 10.01877,4.11773 10.02328,11.11356 0.005,7.43939 -3.39202,11.4182 -9.71994,11.38528 -2.13887,-0.0111 -4.52542,-0.52192 -5.62398,-1.20371 z m 10.31777,-3.07944 c 1.84364,-1.84365 2.1233,-2.66161 2.1233,-6.21041 0,-6.5013 -2.40855,-9.8261 -7.11821,-9.8261 -6.594,0 -9.59912,10.22466 -4.71211,16.03255 2.52257,2.9979 6.71137,2.99961 9.70702,0.004 z m 16.95216,1.9417 c 0.5243,-1.29843 2.50344,-6.38322 4.39809,-11.29954 3.02175,-7.84098 3.63418,-8.91149 4.98677,-8.71671 1.57735,0.22715 2.19627,1.55434 7.81008,16.74748 1.91072,5.17117 1.97226,5.62955 0.75577,5.62955 -0.87057,0 -1.7154,-0.99556 -2.46567,-2.90557 l -1.14134,-2.90557 -5.03299,0 -5.033,0 -1.14134,2.90557 c -0.80936,2.06041 -1.57013,2.90557 -2.6155,2.90557 -1.37442,0 -1.40966,-0.15971 -0.52087,-2.36078 z m 13.13658,-6.90073 c -0.28561,-0.69915 -1.17671,-3.17716 -1.98023,-5.50669 -0.80351,-2.32953 -1.72402,-3.96391 -2.04557,-3.63196 -0.74657,0.77071 -3.59981,8.30094 -3.6003,9.50185 -2.4e-4,0.61848 1.29829,0.90799 4.07252,0.90799 3.59248,0 4.01162,-0.14993 3.55358,-1.27119 z"
       id="path4190"
       inkscape:connector-curvature="0" />
  </g>
</svg>
